<?xml version="1.0" encoding="UTF-8"?>
<svg width="71px" height="65px" viewBox="0 0 71 65" version="1.1" xmlns="http://www.w3.org/2000/svg" xmlns:xlink="http://www.w3.org/1999/xlink">
    <!-- Generator: Sketch 57 (83077) - https://sketch.com -->
    <title>Group 9</title>
    <desc>Created with Sketch.</desc>
    <g id="Request-Demo" stroke="none" stroke-width="1" fill="none" fill-rule="evenodd" stroke-linecap="round" stroke-linejoin="round">
        <g id="Home-Page" transform="translate(-246.000000, -685.000000)" stroke-width="2">
            <g id="Group-9" transform="translate(247.000000, 686.000000)">
                <path d="M20.7827167,49.0715633 C25.0041455,57.3400195 33.5921684,63 43.4995019,63 C57.5836507,63 69,51.5627122 69,37.4566905 L69,8.5706838 C51.0297099,5.65687228 43.4995019,0 43.4995019,0 C43.4995019,0 35.9702901,5.65687228 18,8.5706838 L18,17.9318432" id="Stroke-1" stroke="#000000"></path>
                <g id="Group-2" transform="translate(0.000000, 20.000000)" stroke="#F94D54">
                    <polyline id="Stroke-3" points="3.0003 15.9345065 3.0003 0.8563 36.0003 0.8563 36.0003 24.8563 11.3604848 24.8563"></polyline>
                    <path d="M3.0003,7.3563 L35.0003,7.3563" id="Stroke-5"></path>
                    <path d="M0.0003,19.8563 L5.0003,24.8563" id="Stroke-7"></path>
                    <path d="M0.0003,24.8563 L5.0003,19.8563" id="Stroke-9"></path>
                </g>
            </g>
        </g>
    </g>
</svg>