<?xml version="1.0" encoding="UTF-8"?>
<svg width="261px" height="129px" viewBox="0 0 261 129" version="1.1" xmlns="http://www.w3.org/2000/svg" xmlns:xlink="http://www.w3.org/1999/xlink">
    <!-- Generator: Sketch 54.1 (76490) - https://sketchapp.com -->
    <title>Group 257</title>
    <desc>Created with Sketch.</desc>
    <g id="Web-Pages" stroke="none" stroke-width="1" fill="none" fill-rule="evenodd">
        <g id="CD-Page" transform="translate(-826.000000, -2781.000000)">
            <g id="Group-257" transform="translate(828.000000, 2783.000000)">
                <path d="M182.131608,30.6991372 L182.238818,116.97086 C182.238818,121.956916 186.274326,126 191.25136,126 C196.229769,126 200.265277,121.956916 200.265277,116.97086 L224,25.0454279 L108.315904,25 L104,30.6110346 L182.131608,30.6991372 Z" id="Fill-1" fill="#FFFFFF"></path>
                <path d="M182.131608,30.6991372 L182.238818,116.97086 C182.238818,121.956916 186.274326,126 191.25136,126 C196.229769,126 200.265277,121.956916 200.265277,116.97086 L224,25.0454279 L108.315904,25 L104,30.6110346 L182.131608,30.6991372 Z" id="Stroke-3" stroke="#000000" stroke-width="2"></path>
                <polygon id="Fill-5" fill="#FFFFFF" points="257 92.2841785 139.461206 118 125 51.7158215 242.538794 26"></polygon>
                <polygon id="Stroke-7" stroke="#000000" stroke-width="2" points="257 92.2841785 139.461206 118 125 51.7158215 242.538794 26"></polygon>
                <polyline id="Stroke-9" stroke="#EC1C24" stroke-width="1.895" stroke-linecap="round" stroke-linejoin="round" points="159 64 165 67.493897 161.111138 73"></polyline>
                <polyline id="Stroke-11" stroke="#EC1C24" stroke-width="1.895" stroke-linecap="round" stroke-linejoin="round" points="149 75 143 71.4827279 146.847651 66"></polyline>
                <path d="M156,65 L154,75" id="Stroke-13" stroke="#EC1C24" stroke-width="1.895" stroke-linecap="round" stroke-linejoin="round"></path>
                <polyline id="Stroke-15" stroke="#EC1C24" stroke-width="1.895" stroke-linecap="round" stroke-linejoin="round" points="232 67 238 70.4947165 234.112614 76"></polyline>
                <polyline id="Stroke-17" stroke="#EC1C24" stroke-width="1.895" stroke-linecap="round" stroke-linejoin="round" points="222 79 216 75.4827279 219.848175 70"></polyline>
                <path d="M227,68 L225,78" id="Stroke-19" stroke="#EC1C24" stroke-width="1.895" stroke-linecap="round" stroke-linejoin="round"></path>
                <path d="M174,88 L183,86" id="Stroke-21" stroke="#EC1C24" stroke-width="1.895" stroke-linecap="round" stroke-linejoin="round"></path>
                <path d="M188,85 L208,80" id="Stroke-23" stroke="#EC1C24" stroke-width="1.895" stroke-linecap="round" stroke-linejoin="round"></path>
                <path d="M174,70 L183,68" id="Stroke-25" stroke="#EC1C24" stroke-width="1.895" stroke-linecap="round" stroke-linejoin="round"></path>
                <path d="M188,66.88 L193,66.12" id="Stroke-27" stroke="#EC1C24" stroke-width="1.895" stroke-linecap="round" stroke-linejoin="round"></path>
                <path d="M213,62 L220,60" id="Stroke-29" stroke="#EC1C24" stroke-width="1.895" stroke-linecap="round" stroke-linejoin="round"></path>
                <path d="M197,65 L208,62" id="Stroke-31" stroke="#EC1C24" stroke-width="1.895" stroke-linecap="round" stroke-linejoin="round"></path>
                <path d="M160,78.88 L165,78.12" id="Stroke-33" stroke="#EC1C24" stroke-width="1.895" stroke-linecap="round" stroke-linejoin="round"></path>
                <path d="M208,68.8795 L213,68.1205" id="Stroke-35" stroke="#EC1C24" stroke-width="1.895" stroke-linecap="round" stroke-linejoin="round"></path>
                <path d="M169,78 L179,76" id="Stroke-37" stroke="#EC1C24" stroke-width="1.895" stroke-linecap="round" stroke-linejoin="round"></path>
                <path d="M183,73.8795 L188,73.1205" id="Stroke-39" stroke="#EC1C24" stroke-width="1.895" stroke-linecap="round" stroke-linejoin="round"></path>
                <path d="M193,72 L205,69" id="Stroke-41" stroke="#EC1C24" stroke-width="1.895" stroke-linecap="round" stroke-linejoin="round"></path>
                <path d="M173,82 L187,79" id="Stroke-43" stroke="#EC1C24" stroke-width="1.895" stroke-linecap="round" stroke-linejoin="round"></path>
                <path d="M191,79 L203,76" id="Stroke-45" stroke="#EC1C24" stroke-width="1.895" stroke-linecap="round" stroke-linejoin="round"></path>
                <polygon id="Fill-47" fill="#FFFFFF" points="132.072755 105 19 64.0485942 41.9258748 0 155 40.9514058"></polygon>
                <polygon id="Stroke-49" stroke="#000000" stroke-width="2" points="132.072755 105 19 64.0485942 41.9258748 0 155 40.9514058"></polygon>
                <polyline id="Stroke-51" stroke="#EC1C24" stroke-width="1.895" stroke-linecap="round" stroke-linejoin="round" points="63.7400951 27 67 33.0995195 60 36"></polyline>
                <polyline id="Stroke-53" stroke="#EC1C24" stroke-width="1.895" stroke-linecap="round" stroke-linejoin="round" points="48.2940244 33 45 26.8790025 52 24"></polyline>
                <path d="M60,26 L53,33" id="Stroke-55" stroke="#EC1C24" stroke-width="1.895" stroke-linecap="round" stroke-linejoin="round"></path>
                <polyline id="Stroke-57" stroke="#EC1C24" stroke-width="1.895" stroke-linecap="round" stroke-linejoin="round" points="123.739249 70 127 76.0995195 120 79"></polyline>
                <polyline id="Stroke-59" stroke="#EC1C24" stroke-width="1.895" stroke-linecap="round" stroke-linejoin="round" points="108.294024 75 105 68.8790025 112 66"></polyline>
                <path d="M119,68 L112,75" id="Stroke-61" stroke="#EC1C24" stroke-width="1.895" stroke-linecap="round" stroke-linejoin="round"></path>
                <path d="M63,56 L72,59" id="Stroke-63" stroke="#EC1C24" stroke-width="1.895" stroke-linecap="round" stroke-linejoin="round"></path>
                <path d="M77,61 L96,68" id="Stroke-65" stroke="#EC1C24" stroke-width="1.895" stroke-linecap="round" stroke-linejoin="round"></path>
                <path d="M73,41 L82,45" id="Stroke-67" stroke="#EC1C24" stroke-width="1.895" stroke-linecap="round" stroke-linejoin="round"></path>
                <path d="M86,46 L91,48" id="Stroke-69" stroke="#EC1C24" stroke-width="1.895" stroke-linecap="round" stroke-linejoin="round"></path>
                <path d="M111,55 L118,58" id="Stroke-71" stroke="#EC1C24" stroke-width="1.895" stroke-linecap="round" stroke-linejoin="round"></path>
                <path d="M95,49 L106,53" id="Stroke-73" stroke="#EC1C24" stroke-width="1.895" stroke-linecap="round" stroke-linejoin="round"></path>
                <path d="M56,41 L61,43" id="Stroke-75" stroke="#EC1C24" stroke-width="1.895" stroke-linecap="round" stroke-linejoin="round"></path>
                <path d="M103,59 L108,61" id="Stroke-77" stroke="#EC1C24" stroke-width="1.895" stroke-linecap="round" stroke-linejoin="round"></path>
                <path d="M64,45 L74,49" id="Stroke-79" stroke="#EC1C24" stroke-width="1.895" stroke-linecap="round" stroke-linejoin="round"></path>
                <path d="M79,49 L84,51" id="Stroke-81" stroke="#EC1C24" stroke-width="1.895" stroke-linecap="round" stroke-linejoin="round"></path>
                <path d="M88,53 L99,57" id="Stroke-83" stroke="#EC1C24" stroke-width="1.895" stroke-linecap="round" stroke-linejoin="round"></path>
                <path d="M65,51 L78,56" id="Stroke-85" stroke="#EC1C24" stroke-width="1.895" stroke-linecap="round" stroke-linejoin="round"></path>
                <path d="M83,57 L95,62" id="Stroke-87" stroke="#EC1C24" stroke-width="1.895" stroke-linecap="round" stroke-linejoin="round"></path>
                <polygon id="Fill-89" fill="#FFFFFF" points="244.702673 124 125 112.901455 131.298698 46 251 57.0985454"></polygon>
                <polygon id="Stroke-91" stroke="#000000" stroke-width="2" points="244.702673 124 125 112.901455 131.298698 46 251 57.0985454"></polygon>
                <polyline id="Stroke-93" stroke="#EC1C24" stroke-width="1.895" stroke-linecap="round" stroke-linejoin="round" points="159.076104 67 164 71.8976009 158 76"></polyline>
                <polyline id="Stroke-95" stroke="#EC1C24" stroke-width="1.895" stroke-linecap="round" stroke-linejoin="round" points="146.974987 75 142 70.0797207 148 66"></polyline>
                <path d="M157,66 L151,75" id="Stroke-97" stroke="#EC1C24" stroke-width="1.895" stroke-linecap="round" stroke-linejoin="round"></path>
                <polyline id="Stroke-99" stroke="#EC1C24" stroke-width="1.895" stroke-linecap="round" stroke-linejoin="round" points="228.076104 94 233 98.898201 227 103"></polyline>
                <polyline id="Stroke-101" stroke="#EC1C24" stroke-width="1.895" stroke-linecap="round" stroke-linejoin="round" points="213.974987 102 209 97.0797207 215 93"></polyline>
                <path d="M225,93 L219,102" id="Stroke-103" stroke="#EC1C24" stroke-width="1.895" stroke-linecap="round" stroke-linejoin="round"></path>
                <path d="M167,95.178 L176,95.822" id="Stroke-105" stroke="#EC1C24" stroke-width="1.895" stroke-linecap="round" stroke-linejoin="round"></path>
                <path d="M181,96 L201,98" id="Stroke-107" stroke="#EC1C24" stroke-width="1.895" stroke-linecap="round" stroke-linejoin="round"></path>
                <path d="M172,78.1695 L181,78.8305" id="Stroke-109" stroke="#EC1C24" stroke-width="1.895" stroke-linecap="round" stroke-linejoin="round"></path>
                <path d="M186,79.3345 L191,79.6655" id="Stroke-111" stroke="#EC1C24" stroke-width="1.895" stroke-linecap="round" stroke-linejoin="round"></path>
                <path d="M212,82.26 L219,82.74" id="Stroke-113" stroke="#EC1C24" stroke-width="1.895" stroke-linecap="round" stroke-linejoin="round"></path>
                <path d="M197,80.1115 L208,80.8885" id="Stroke-115" stroke="#EC1C24" stroke-width="1.895" stroke-linecap="round" stroke-linejoin="round"></path>
                <path d="M156,82.3345 L161,82.6655" id="Stroke-117" stroke="#EC1C24" stroke-width="1.895" stroke-linecap="round" stroke-linejoin="round"></path>
                <path d="M206,87.3345 L211,87.6655" id="Stroke-119" stroke="#EC1C24" stroke-width="1.895" stroke-linecap="round" stroke-linejoin="round"></path>
                <path d="M165,83.1345 L176,83.8655" id="Stroke-121" stroke="#EC1C24" stroke-width="1.895" stroke-linecap="round" stroke-linejoin="round"></path>
                <path d="M180,85.3345 L185,85.6655" id="Stroke-123" stroke="#EC1C24" stroke-width="1.895" stroke-linecap="round" stroke-linejoin="round"></path>
                <path d="M189,86.0845 L201,86.9155" id="Stroke-125" stroke="#EC1C24" stroke-width="1.895" stroke-linecap="round" stroke-linejoin="round"></path>
                <path d="M168,90.021 L182,90.979" id="Stroke-127" stroke="#EC1C24" stroke-width="1.895" stroke-linecap="round" stroke-linejoin="round"></path>
                <path d="M185,91.065 L198,91.935" id="Stroke-129" stroke="#EC1C24" stroke-width="1.895" stroke-linecap="round" stroke-linejoin="round"></path>
                <polygon id="Fill-131" fill="#EC1C24" points="220.092811 105 106 67.6438162 126.907189 3 241 40.3548074"></polygon>
                <polyline id="Stroke-133" stroke="#FFFFFF" stroke-width="1.895" stroke-linecap="round" stroke-linejoin="round" points="150.977247 30 154 35.9443337 148 39"></polyline>
                <polyline id="Stroke-135" stroke="#FFFFFF" stroke-width="1.895" stroke-linecap="round" stroke-linejoin="round" points="136.053091 34 133 28.0338157 139 25"></polyline>
                <path d="M147,29 L140,36" id="Stroke-137" stroke="#FFFFFF" stroke-width="1.895" stroke-linecap="round" stroke-linejoin="round"></path>
                <polyline id="Stroke-139" stroke="#FFFFFF" stroke-width="1.895" stroke-linecap="round" stroke-linejoin="round" points="210.977247 70 214 75.9443337 208 79"></polyline>
                <polyline id="Stroke-141" stroke="#FFFFFF" stroke-width="1.895" stroke-linecap="round" stroke-linejoin="round" points="196.053091 75 193 69.0351866 199 66"></polyline>
                <path d="M207,69 L200,76" id="Stroke-143" stroke="#FFFFFF" stroke-width="1.895" stroke-linecap="round" stroke-linejoin="round"></path>
                <path d="M151,59 L160,62" id="Stroke-145" stroke="#FFFFFF" stroke-width="1.895" stroke-linecap="round" stroke-linejoin="round"></path>
                <path d="M166,62 L185,69" id="Stroke-147" stroke="#FFFFFF" stroke-width="1.895" stroke-linecap="round" stroke-linejoin="round"></path>
                <path d="M160,44 L169,47" id="Stroke-149" stroke="#FFFFFF" stroke-width="1.895" stroke-linecap="round" stroke-linejoin="round"></path>
                <path d="M174,48 L179,50" id="Stroke-151" stroke="#FFFFFF" stroke-width="1.895" stroke-linecap="round" stroke-linejoin="round"></path>
                <path d="M198,56 L205,58" id="Stroke-153" stroke="#FFFFFF" stroke-width="1.895" stroke-linecap="round" stroke-linejoin="round"></path>
                <path d="M183,50 L194,54" id="Stroke-155" stroke="#FFFFFF" stroke-width="1.895" stroke-linecap="round" stroke-linejoin="round"></path>
                <path d="M143,44 L148,46" id="Stroke-157" stroke="#FFFFFF" stroke-width="1.895" stroke-linecap="round" stroke-linejoin="round"></path>
                <path d="M191,60 L196,62" id="Stroke-159" stroke="#FFFFFF" stroke-width="1.895" stroke-linecap="round" stroke-linejoin="round"></path>
                <path d="M152,47 L162,51" id="Stroke-161" stroke="#FFFFFF" stroke-width="1.895" stroke-linecap="round" stroke-linejoin="round"></path>
                <path d="M167,51 L172,53" id="Stroke-163" stroke="#FFFFFF" stroke-width="1.895" stroke-linecap="round" stroke-linejoin="round"></path>
                <path d="M175,54 L187,58" id="Stroke-165" stroke="#FFFFFF" stroke-width="1.895" stroke-linecap="round" stroke-linejoin="round"></path>
                <path d="M154,53 L167,58" id="Stroke-167" stroke="#FFFFFF" stroke-width="1.895" stroke-linecap="round" stroke-linejoin="round"></path>
                <path d="M170,59 L182,63" id="Stroke-169" stroke="#FFFFFF" stroke-width="1.895" stroke-linecap="round" stroke-linejoin="round"></path>
                <polygon id="Fill-171" fill="#EC1C24" points="140 107.063202 20.3213799 120 13 52.9381637 132.67862 40"></polygon>
                <polyline id="Stroke-173" stroke="#EC1C24" stroke-width="1.895" stroke-linecap="round" stroke-linejoin="round" points="44 68 50 71.9882921 45.1263941 77"></polyline>
                <polyline id="Stroke-175" stroke="#EC1C24" stroke-width="1.895" stroke-linecap="round" stroke-linejoin="round" points="34 79 28 74.9890734 32.8236531 70"></polyline>
                <path d="M42,69 L38,79" id="Stroke-177" stroke="#EC1C24" stroke-width="1.895" stroke-linecap="round" stroke-linejoin="round"></path>
                <polyline id="Stroke-179" stroke="#EC1C24" stroke-width="1.895" stroke-linecap="round" stroke-linejoin="round" points="117 80 123 83.986975 118.126394 89"></polyline>
                <polyline id="Stroke-181" stroke="#EC1C24" stroke-width="1.895" stroke-linecap="round" stroke-linejoin="round" points="105 91 99 86.9890734 103.823653 82"></polyline>
                <path d="M114,81 L110,91" id="Stroke-183" stroke="#EC1C24" stroke-width="1.895" stroke-linecap="round" stroke-linejoin="round"></path>
                <path d="M58,93.8735 L67,93.1265" id="Stroke-185" stroke="#EC1C24" stroke-width="1.895" stroke-linecap="round" stroke-linejoin="round"></path>
                <path d="M71,92 L91,90" id="Stroke-187" stroke="#EC1C24" stroke-width="1.895" stroke-linecap="round" stroke-linejoin="round"></path>
                <path d="M60,76.8845 L69,76.1155" id="Stroke-189" stroke="#EC1C24" stroke-width="1.895" stroke-linecap="round" stroke-linejoin="round"></path>
                <path d="M73,75.6925 L78,75.3075" id="Stroke-191" stroke="#EC1C24" stroke-width="1.895" stroke-linecap="round" stroke-linejoin="round"></path>
                <path d="M99,72.779 L106,72.221" id="Stroke-193" stroke="#EC1C24" stroke-width="1.895" stroke-linecap="round" stroke-linejoin="round"></path>
                <path d="M83,74.951 L94,74.049" id="Stroke-195" stroke="#EC1C24" stroke-width="1.895" stroke-linecap="round" stroke-linejoin="round"></path>
                <path d="M45,84.6925 L50,84.3075" id="Stroke-197" stroke="#EC1C24" stroke-width="1.895" stroke-linecap="round" stroke-linejoin="round"></path>
                <path d="M94,78.6925 L99,78.3075" id="Stroke-199" stroke="#EC1C24" stroke-width="1.895" stroke-linecap="round" stroke-linejoin="round"></path>
                <path d="M53,82.925 L64,82.075" id="Stroke-201" stroke="#EC1C24" stroke-width="1.895" stroke-linecap="round" stroke-linejoin="round"></path>
                <path d="M69,81.692 L74,81.308" id="Stroke-203" stroke="#EC1C24" stroke-width="1.895" stroke-linecap="round" stroke-linejoin="round"></path>
                <path d="M77,80.9825 L89,80.0175" id="Stroke-205" stroke="#EC1C24" stroke-width="1.895" stroke-linecap="round" stroke-linejoin="round"></path>
                <path d="M57,90 L71,88" id="Stroke-207" stroke="#EC1C24" stroke-width="1.895" stroke-linecap="round" stroke-linejoin="round"></path>
                <path d="M75,87 L88,86" id="Stroke-209" stroke="#EC1C24" stroke-width="1.895" stroke-linecap="round" stroke-linejoin="round"></path>
                <polygon id="Fill-211" fill="#FFFFFF" points="120.042223 111 0 95.190999 8.95639656 28 129 43.809001"></polygon>
                <polygon id="Stroke-213" stroke="#000000" stroke-width="2" points="120.042223 111 0 95.190999 8.95639656 28 129 43.809001"></polygon>
                <polyline id="Stroke-215" stroke="#EC1C24" stroke-width="1.895" stroke-linecap="round" stroke-linejoin="round" points="36.4508387 51 41 56.0739054 35 60"></polyline>
                <polyline id="Stroke-217" stroke="#EC1C24" stroke-width="1.895" stroke-linecap="round" stroke-linejoin="round" points="23.5959752 58 19 52.9037253 25 49"></polyline>
                <path d="M34,50 L28,58" id="Stroke-219" stroke="#EC1C24" stroke-width="1.895" stroke-linecap="round" stroke-linejoin="round"></path>
                <polyline id="Stroke-221" stroke="#EC1C24" stroke-width="1.895" stroke-linecap="round" stroke-linejoin="round" points="103.450839 80 108 85.0733284 102 89"></polyline>
                <polyline id="Stroke-223" stroke="#EC1C24" stroke-width="1.895" stroke-linecap="round" stroke-linejoin="round" points="90.5959752 87 86 81.9037253 92 78"></polyline>
                <path d="M101,79 L95,87" id="Stroke-225" stroke="#EC1C24" stroke-width="1.895" stroke-linecap="round" stroke-linejoin="round"></path>
                <path d="M43,78.0455 L52,78.9545" id="Stroke-227" stroke="#EC1C24" stroke-width="1.895" stroke-linecap="round" stroke-linejoin="round"></path>
                <path d="M58,80 L78,83" id="Stroke-229" stroke="#EC1C24" stroke-width="1.895" stroke-linecap="round" stroke-linejoin="round"></path>
                <path d="M50,62.0325 L59,62.9675" id="Stroke-231" stroke="#EC1C24" stroke-width="1.895" stroke-linecap="round" stroke-linejoin="round"></path>
                <path d="M63,63.2665 L68,63.7335" id="Stroke-233" stroke="#EC1C24" stroke-width="1.895" stroke-linecap="round" stroke-linejoin="round"></path>
                <path d="M89,67.161 L96,67.839" id="Stroke-235" stroke="#EC1C24" stroke-width="1.895" stroke-linecap="round" stroke-linejoin="round"></path>
                <path d="M73,64 L84,66" id="Stroke-237" stroke="#EC1C24" stroke-width="1.895" stroke-linecap="round" stroke-linejoin="round"></path>
                <path d="M32,65.266 L37,65.734" id="Stroke-239" stroke="#EC1C24" stroke-width="1.895" stroke-linecap="round" stroke-linejoin="round"></path>
                <path d="M82,72.2665 L87,72.7335" id="Stroke-241" stroke="#EC1C24" stroke-width="1.895" stroke-linecap="round" stroke-linejoin="round"></path>
                <path d="M42,66 L52,68" id="Stroke-243" stroke="#EC1C24" stroke-width="1.895" stroke-linecap="round" stroke-linejoin="round"></path>
                <path d="M57,69.266 L62,69.734" id="Stroke-245" stroke="#EC1C24" stroke-width="1.895" stroke-linecap="round" stroke-linejoin="round"></path>
                <path d="M66,70 L78,72" id="Stroke-247" stroke="#EC1C24" stroke-width="1.895" stroke-linecap="round" stroke-linejoin="round"></path>
                <path d="M44,73 L58,75" id="Stroke-249" stroke="#EC1C24" stroke-width="1.895" stroke-linecap="round" stroke-linejoin="round"></path>
                <path d="M61,76 L74,78" id="Stroke-251" stroke="#EC1C24" stroke-width="1.895" stroke-linecap="round" stroke-linejoin="round"></path>
                <path d="M190.374048,125.982063 L51.6836862,125.982063 C46.3362664,125.982063 42,121.634486 42,116.270036 L42,30.6609769 L54.4007313,30.6609769 L60.2709243,22.3866441 C60.8886222,21.5174045 61.8873942,21 62.9522007,21 L80.4651038,21 C81.5299103,21 82.5286824,21.5174045 83.1477559,22.3866441 L89.017949,30.6609769 L181.976659,30.692711 L181.976659,116.95025 C181.976659,121.947688 186.017146,126 191,126 L190.374048,125.982063 Z" id="Fill-253" fill="#FFFFFF"></path>
                <path d="M190.374048,125.982063 L51.6836862,125.982063 C46.3362664,125.982063 42,121.634486 42,116.270036 L42,30.6609769 L54.4007313,30.6609769 L60.2709243,22.3866441 C60.8886222,21.5174045 61.8873942,21 62.9522007,21 L80.4651038,21 C81.5299103,21 82.5286824,21.5174045 83.1477559,22.3866441 L89.017949,30.6609769 L181.976659,30.692711 L181.976659,116.95025 C181.976659,121.947688 186.017146,126 191,126 L190.374048,125.982063 Z" id="Stroke-255" stroke="#000000" stroke-width="2"></path>
            </g>
        </g>
    </g>
</svg>