<?xml version="1.0" encoding="UTF-8"?>
<svg width="145px" height="171px" viewBox="0 0 145 171" version="1.1" xmlns="http://www.w3.org/2000/svg" xmlns:xlink="http://www.w3.org/1999/xlink">
    <!-- Generator: Sketch 53.2 (72643) - https://sketchapp.com -->
    <title>Group 35</title>
    <desc>Created with Sketch.</desc>
    <defs>
        <polygon id="path-1" points="0 0.807383596 76.4102512 0.807383596 76.4102512 13 0 13"></polygon>
        <polygon id="path-3" points="0.262818182 0.40515 39.6975911 0.40515 39.6975911 36.703445 0.262818182 36.703445"></polygon>
    </defs>
    <g id="Web-Pages" stroke="none" stroke-width="1" fill="none" fill-rule="evenodd">
        <g id="CD-Page" transform="translate(-889.000000, -2239.000000)">
            <g id="Group-35" transform="translate(889.000000, 2239.000000)">
                <path d="M26,163 L26,160.534402 C26,159.554729 26.7905042,158.730559 27.8376897,158.616523 L42.6824278,157.013107 C43.9156143,156.880065 45,157.776803 45,158.930986 L45,161.508892 L26,163 Z" id="Fill-1" fill="#EC1C24"></path>
                <g id="Group-5" transform="translate(0.000000, 158.000000)">
                    <mask id="mask-2" fill="white">
                        <use xlink:href="#path-1"></use>
                    </mask>
                    <g id="Clip-4"></g>
                    <path d="M3.05397209,10.2142857 L73.6893209,10.2142857 L73.6893209,3.718 L3.12471628,9.82057143 C3.10294884,9.945 3.0811814,10.0768571 3.05397209,10.2142857 M75.049786,13 L1.35973953,13 C0.944344186,13 0.552530233,12.8068571 0.294948837,12.4725714 C0.0355534884,12.1382857 -0.058772093,11.7037143 0.0355534884,11.2877143 C0.216948837,10.5021429 0.409227907,9.54014286 0.481786047,9.01457143 C0.302204651,8.51128571 0.421925581,7.94114286 0.797413953,7.55671429 C1.0840186,7.26142857 1.50485581,7.10542857 1.9148093,7.12957143 L74.935507,0.813428571 C75.3164372,0.776285714 75.6901116,0.911857143 75.9712744,1.17742857 C76.2524372,1.43928571 76.4102512,1.81257143 76.4102512,2.20257143 L76.4102512,11.6071429 C76.4102512,12.376 75.8007628,13 75.049786,13" id="Fill-3" fill="#000000" mask="url(#mask-2)"></path>
                </g>
                <path d="M28.7396694,117.268353 L30.1749074,130.041006 C30.1839912,133.968126 31.2631448,134.281643 32.4658378,134.281643 C33.5740596,134.281643 34.6114278,133.848518 35.387183,133.065631 C36.1593046,132.286369 36.5771587,131.253394 36.5644414,130.153365 C36.5444571,128.593028 36.2210744,126.711925 35.8795241,124.720276 C35.454403,122.250195 35.0165645,119.696752 35.0147478,117.137872 C35.0111143,113.361168 35.9830792,109.805558 36.4499858,108.096617 C36.5553577,107.714235 36.635295,107.43515 36.6589128,107.286547 C37.1821388,104.167685 44.2456897,100.9564 45.5828227,100.755241 C46.4130806,100.639258 46.963558,101.065134 47.1888359,101.512757 C47.5122186,102.161538 47.3886791,102.569291 46.4276147,105.735271 C45.5937233,108.480812 44.3347107,112.629024 43.5080863,116.75549 C43.1120333,118.732642 43.4372328,120.088196 44.4764178,120.78047 C45.835352,121.690214 48.017277,121.342264 48.61499,120.943572 C48.8075663,120.729728 49.2036193,119.530026 49.4924836,118.652903 C50.6352237,115.191529 52.546452,109.399616 58.8723995,107.980634 C62.6349031,107.134319 70.3652038,101.837147 73.6426332,99.4232464 L74.1440581,88.7183569 L48.9056711,88.7183569 C43.5880237,88.7183569 43.2882588,88.9177031 39.6056925,91.369661 C39.1060844,91.704925 38.54834,92.0746216 37.9161086,92.4878118 L30.1730906,97.0890839 C29.9060274,97.264871 29.8497079,97.4497193 30.0368339,98.7962121 C30.1095041,99.336259 30.1839912,99.9034894 30.1839912,100.479781 L28.7396694,117.268353 Z M32.4658378,137 C27.4588558,137 27.4588558,131.876803 27.4588558,130.193234 L26,117.304598 L26.0127173,117.16868 L27.4643061,100.363798 C27.4588558,100.028534 27.3934526,99.58816 27.3371331,99.1659086 C27.1518239,97.8230403 26.8974779,95.9799943 28.7287689,94.7839173 L36.4736036,90.1826452 C37.0495155,89.8056997 37.5999929,89.4396276 38.092334,89.1098003 C42.098283,86.4421861 42.9321744,86 48.9056711,86 L77,86 L76.3041821,100.829543 L75.7918567,101.213737 C75.348568,101.547189 64.8277287,109.430424 59.4719293,110.631938 C54.6520732,111.713844 53.1659661,116.215443 52.0813622,119.502843 C51.4909162,121.291522 51.0657951,122.581835 50.1265318,123.205245 C48.7112781,124.147609 45.3466443,124.631476 42.9594258,123.040331 C41.8094186,122.271942 40.005379,120.363656 40.8356369,116.22088 C41.6895127,111.967557 42.9703263,107.743231 43.8187518,104.946948 C43.8896053,104.714981 43.9604588,104.47939 44.0313123,104.249236 C42.0655814,105.249591 39.5057709,106.902352 39.347713,107.73417 C39.3150114,107.931704 39.2187233,108.303212 39.078833,108.812451 C38.6428113,110.405408 37.7380664,113.723616 37.7398832,117.134248 C37.7416999,119.464786 38.1613708,121.904058 38.5646908,124.259967 C38.9244087,126.362163 39.265959,128.342939 39.2895768,130.120745 C39.3113779,131.952917 38.61556,133.676356 37.3274793,134.97573 C36.0357652,136.280542 34.3080294,137 32.4658378,137 L32.4658378,137 Z" id="Fill-6" fill="#000000"></path>
                <path d="M38.0243478,115 L36.0504348,113.207235 L37.0382609,114.103618 L36,113.274921 C36.0486957,113.198089 36.1043478,113.075522 36.1791304,112.927345 C36.8730435,111.537037 38.9808696,107.280136 44,108.105174 L43.6086957,110.818102 C40.8208696,110.37357 39.4991304,112.180969 38.4886957,114.202403 C38.3113043,114.559126 38.1947826,114.795113 38.0243478,115" id="Fill-8" fill="#000000"></path>
                <path d="M69.5,19 L68.5,19 C67.672,19 67,18.328 67,17.5 C67,16.672 67.672,16 68.5,16 L69.5,16 C70.328,16 71,16.672 71,17.5 C71,18.328 70.328,19 69.5,19" id="Fill-10" fill="#EC1C24"></path>
                <path d="M81.9457379,19 L78.3882124,19 C77.6219191,19 77,18.328 77,17.5 C77,16.672 77.6219191,16 78.3882124,16 L81.9457379,16 C82.7120312,16 83.3339503,16.672 83.3339503,17.5 C83.3339503,18.328 82.7120312,19 81.9457379,19 M94.6117876,19 L91.0542621,19 C90.2879688,19 89.6660497,18.328 89.6660497,17.5 C89.6660497,16.672 90.2879688,16 91.0542621,16 L94.6117876,16 C95.3780809,16 96,16.672 96,17.5 C96,18.328 95.3780809,19 94.6117876,19" id="Fill-12" fill="#EC1C24"></path>
                <path d="M107,19.6363636 C107,20.3890909 106.389091,21 105.636364,21 L104.272727,21 L104.272727,18.7272727 L102,18.7272727 L102,17.3636364 C102,16.6109091 102.610909,16 103.363636,16 L105.636364,16 C106.389091,16 107,16.6109091 107,17.3636364 L107,19.6363636 Z" id="Fill-14" fill="#EC1C24"></path>
                <path d="M106.5,35 L106.5,35 C105.672,35 105,34.3989267 105,33.6583184 L105,29.3416816 C105,28.6010733 105.672,28 106.5,28 C107.328,28 108,28.6010733 108,29.3416816 L108,33.6583184 C108,34.3989267 107.328,35 106.5,35" id="Fill-16" fill="#EC1C24"></path>
                <path d="M106.5,46 L106.5,46 C105.672,46 105,45.328 105,44.5 L105,43.5 C105,42.672 105.672,42 106.5,42 C107.328,42 108,42.672 108,43.5 L108,44.5 C108,45.328 107.328,46 106.5,46" id="Fill-18" fill="#EC1C24"></path>
                <g id="Group-22" transform="translate(35.000000, 0.000000)">
                    <mask id="mask-4" fill="white">
                        <use xlink:href="#path-3"></use>
                    </mask>
                    <g id="Clip-21"></g>
                    <path d="M19.9796364,3.179595 C18.8905455,3.179595 17.9141818,3.753095 17.3687273,4.713245 L3.40327273,29.327495 C2.85781818,30.287645 2.85781818,31.434645 3.40327273,32.394795 C3.94872727,33.356795 4.92327273,33.928445 6.01236364,33.928445 L33.9469091,33.928445 C35.036,33.928445 36.0123636,33.356795 36.5578182,32.394795 C37.1032727,31.432795 37.1032727,30.285795 36.5578182,29.327495 L22.5923636,4.713245 C22.0469091,3.753095 21.0705455,3.179595 19.9796364,3.179595 M33.9469091,36.703445 L6.01236364,36.703445 C3.93781818,36.703445 2.07781818,35.611945 1.04145455,33.782295 C0.00327272727,31.954495 0.00327272727,29.769645 1.04145455,27.939995 L15.0087273,3.325745 C16.0450909,1.497945 17.9032727,0.404595 19.9796364,0.404595 C19.9814545,0.404595 19.9796364,0.404595 19.9796364,0.404595 C22.0578182,0.404595 23.916,1.497945 24.9523636,3.325745 L38.9196364,27.939995 C39.9578182,29.767795 39.956,31.952645 38.9196364,33.782295 C37.8814545,35.610095 36.0214545,36.703445 33.9469091,36.703445" id="Fill-20" fill="#EC1C24" mask="url(#mask-4)"></path>
                </g>
                <path d="M55,23 C53.894,23 53,22.2098178 53,21.2322546 L53,11.7677454 C53,10.79195 53.894,10 55,10 C56.106,10 57,10.79195 57,11.7677454 L57,21.2322546 C57,22.2098178 56.106,23 55,23" id="Fill-23" fill="#EC1C24"></path>
                <path d="M55,31 C53.894,31 53,30.255 53,29.3333333 L53,27.6666667 C53,26.745 53.894,26 55,26 C56.106,26 57,26.745 57,27.6666667 L57,29.3333333 C57,30.255 56.106,31 55,31" id="Fill-25" fill="#EC1C24"></path>
                <path d="M101.056852,42.7406127 C101.00068,42.7406127 100.948131,42.757048 100.908267,42.7771356 C100.821291,42.8173108 100.718007,42.9031396 100.718007,43.0784496 L100.718007,147.928423 C100.718007,148.089124 100.812231,148.176779 100.890147,148.220606 C100.968063,148.262608 101.093092,148.299131 101.228992,148.20965 L101.924802,147.765896 C107.783012,144.02595 111.281993,137.619831 111.281993,130.631172 L111.281993,64.0736451 C111.281993,55.7957273 107.628992,48.0492178 101.259796,42.8173108 C101.189128,42.7607003 101.120272,42.7406127 101.056852,42.7406127 M101.051416,151 C100.545866,151 100.038505,150.873996 99.58188,150.620162 C98.6052095,150.079623 98,149.04785 98,147.928423 L98,43.0784496 C98,41.878672 98.6686297,40.8158553 99.7413364,40.3027084 C100.817667,39.7877353 102.055266,39.9374792 102.977576,40.6935035 C109.982786,46.4476882 114,54.9684834 114,64.0736451 L114,130.631172 C114,138.565775 110.028086,145.83566 103.378029,150.079623 L102.68222,150.523376 C102.18573,150.841125 101.620385,151 101.051416,151" id="Fill-27" fill="#000000"></path>
                <path d="M133.471906,170 L93,170 L93,167.233323 L133.471906,167.233323 C136.557028,167.233323 139.359028,165.645251 140.966433,162.983707 C142.570185,160.324009 142.687087,157.081463 141.273301,154.311097 L119.295688,111.267138 L121.732368,110 L143.708155,153.043959 C145.563977,156.677528 145.41237,160.932678 143.304477,164.426068 C141.196584,167.91577 137.521472,170 133.471906,170" id="Fill-29" fill="#000000"></path>
                <path d="M114.817303,77.6043544 C114.777837,84.8829178 115.024032,103.902585 115.264589,119.111688 L118.705682,113.370979 C119.671668,111.761297 120.180973,109.921397 120.180973,108.052029 L120.180973,87.2127212 C120.180973,84.4059067 119.066517,81.7685325 117.042456,79.7849766 L114.817303,77.6043544 Z M112.609065,129 L112.526374,124.080708 C111.69758,74.2266 111.968206,73.955864 112.511339,73.4162336 L112.926676,73.0018417 L114.105029,73 L119.034568,77.8308886 C121.592366,80.3356574 123,83.66921 123,87.2127212 L123,108.052029 C123,110.413142 122.357262,112.735579 121.135683,114.770703 L112.609065,129 Z" id="Fill-31" fill="#000000"></path>
                <path d="M82.240925,78.7561466 C79.203644,78.7561466 76.7330063,81.2477032 76.7330063,84.3125383 L76.7330063,109.687462 C76.7330063,112.752297 79.203644,115.243853 82.240925,115.243853 L97.2669937,115.243853 L97.2669937,78.7561466 L82.240925,78.7561466 Z M100,118 L82.240925,118 C77.6968465,118 74,114.271852 74,109.687462 L74,84.3125383 C74,79.7281477 77.6968465,76 82.240925,76 L100,76 L100,118 Z" id="Fill-33" fill="#000000"></path>
            </g>
        </g>
    </g>
</svg>