<?xml version="1.0" encoding="UTF-8"?>
<svg width="208px" height="172px" viewBox="0 0 208 172" version="1.1" xmlns="http://www.w3.org/2000/svg" xmlns:xlink="http://www.w3.org/1999/xlink">
    <!-- Generator: Sketch 53.2 (72643) - https://sketchapp.com -->
    <title>Group 52</title>
    <desc>Created with Sketch.</desc>
    <defs>
        <polygon id="path-1" points="0 172 208.471643 172 208.471643 0.0651515152 0 0.0651515152"></polygon>
    </defs>
    <g id="Page-1" stroke="none" stroke-width="1" fill="none" fill-rule="evenodd">
        <g id="Threat-Cryptocurrency-Mining" transform="translate(-902.000000, -538.000000)">
            <g id="Group-52" transform="translate(902.000000, 538.000000)">
                <polygon id="Fill-1" fill="#EEEEEE" points="79 169 85 169 85 110 79 110"></polygon>
                <polygon id="Fill-2" fill="#EEEEEE" points="77 108 83 108 83 41 77 41"></polygon>
                <polygon id="Fill-3" fill="#EEEEEE" points="122 15 122 23.7194098 103.508977 29 32 29"></polygon>
                <g id="Group-51">
                    <path d="M119.842854,61.0450152 C128.390889,61.0450152 134.243783,64.0786045 134.243783,73.5237769 C134.243783,83.2048427 129.679252,87.1678521 120.196522,87.1678521 L105.561919,87.1678521 L105.561919,61.0450152 L119.842854,61.0450152 Z M136.351582,110.61094 L136.351582,112.590872 C136.351582,123.669999 130.730783,128.567147 121.36489,128.567147 L105.558762,128.567147 L105.558762,95.3297644 L121.36489,95.3297644 C130.733941,95.3297644 136.351582,99.4107205 136.351582,110.61094 L136.351582,110.61094 Z M111.410076,34.5478939 C108.375477,34.5478939 105.920324,36.9964676 105.920324,40.0190486 L105.920324,52.1801405 L100.173215,52.1801405 C100.147953,52.1801405 100.125849,52.1832858 100.100587,52.1832858 L90.2799775,52.1832858 C87.2469565,52.1832858 84.7870676,54.6334321 84.7870676,57.6512952 C84.7870676,60.6707309 87.2469565,63.1224498 90.2799775,63.1224498 L95.7255212,63.1224498 L95.7255212,126.50072 L90.2831353,126.50072 C87.2485354,126.50072 84.7902253,128.950867 84.7902253,131.96873 C84.7902253,134.991311 87.2485354,137.436739 90.2831353,137.436739 C100.501621,137.436739 103.905678,137.430449 105.920324,137.430449 L105.920324,150.590156 C105.920324,153.612737 108.375477,156.058166 111.410076,156.058166 C114.443097,156.058166 116.899829,153.612737 116.899829,150.590156 L116.899829,137.430449 L122.20801,137.430449 L122.20801,150.590156 C122.20801,153.612737 124.664741,156.058166 127.697762,156.058166 C130.729204,156.058166 133.185936,153.612737 133.185936,150.590156 L133.185936,136.222675 C133.185936,136.074848 133.176462,135.931739 133.16541,135.787058 C140.938217,132.902868 146.18798,125.9849 146.18798,113.174315 C146.18798,102.54653 144.440164,95.3926693 134.126946,91.2488083 C140.215092,88.6838605 144.080181,81.9215825 144.080181,72.12257 C144.080181,61.7589859 139.68459,56.522152 133.185936,54.0735784 L133.185936,40.0190486 C133.185936,36.9964676 130.729204,34.5478939 127.697762,34.5478939 C124.664741,34.5478939 122.20801,36.9964676 122.20801,40.0190486 L122.20801,52.211593 C120.895964,52.1722774 120.539138,52.1801405 116.899829,52.1801405 L116.899829,40.0190486 C116.899829,36.9964676 114.443097,34.5478939 111.410076,34.5478939 L111.410076,34.5478939 Z" id="Fill-4" fill="#EC1C24"></path>
                    <path d="M159.394963,140.804983 C179.855618,132.724847 193.411849,113.01202 193.411849,90.8789274 C193.411849,75.6700925 187.033189,61.3592252 175.812117,51.1827832" id="Stroke-6" stroke="#0F222E" stroke-width="2" stroke-linecap="round" stroke-linejoin="round"></path>
                    <path d="M159.141238,155.113648 C187.396804,146.566444 206.892766,120.550545 206.892766,90.8782983 C206.892766,75.4618772 201.584585,60.5785752 191.893443,48.6549493" id="Stroke-8" stroke="#0F222E" stroke-width="2" stroke-linecap="round" stroke-linejoin="round"></path>
                    <path d="M171.845506,72.0824681 L158.366641,72.0824681 C156.877761,72.0824681 155.6715,73.2855246 155.6715,74.7669352 C155.6715,76.2499185 156.877761,77.4514023 158.366641,77.4514023 L166.455223,77.4514023 C167.944103,77.4514023 169.150365,78.6544587 169.150365,80.1358694 L169.150365,82.8234817 C169.150365,85.7894483 171.564466,88.1924159 174.540648,88.1924159 L179.934089,88.1924159 C181.422969,88.1924159 182.62923,86.9909321 182.62923,85.5079488 L182.62923,85.5063762 C182.62923,84.0249655 181.422969,82.8219091 179.934089,82.8219091 L177.237368,82.8219091 C175.748488,82.8219091 174.542227,81.6204253 174.542227,80.137442 L174.542227,74.7669352 C174.542227,73.2855246 173.335965,72.0824681 171.845506,72.0824681" id="Fill-10" fill="#EEEEEE"></path>
                    <path d="M158.366483,61.3414545 L163.758345,61.3414545 C165.247225,61.3414545 166.453487,62.544511 166.453487,64.0259216 L166.453487,64.0274943 C166.453487,65.5089049 165.247225,66.7119613 163.758345,66.7119613 L158.366483,66.7119613 C156.877603,66.7119613 155.671342,65.5089049 155.671342,64.0274943 L155.671342,64.0259216 C155.671342,62.544511 156.877603,61.3414545 158.366483,61.3414545" id="Fill-12" fill="#EEEEEE"></path>
                    <path d="M174.542227,106.988875 L174.542227,101.618368 C174.542227,100.136958 175.748488,98.9339013 177.237368,98.9339013 L179.934089,98.9339013 C181.422969,98.9339013 182.62923,97.7308448 182.62923,96.2494342 L182.62923,96.2478615 C182.62923,94.7664509 181.422969,93.5633945 179.934089,93.5633945 L174.540648,93.5633945 C171.564466,93.5633945 169.150365,95.9663621 169.150365,98.9323286 L169.150365,101.619941 C169.150365,103.101352 167.944103,104.304408 166.455223,104.304408 L158.366641,104.304408 C156.877761,104.304408 155.6715,105.507464 155.6715,106.988875 L155.6715,106.990448 C155.6715,108.471858 156.877761,109.674915 158.366641,109.674915 L171.845506,109.674915 C173.335965,109.674915 174.542227,108.470286 174.542227,106.988875" id="Fill-14" fill="#EEEEEE"></path>
                    <path d="M158.366483,115.044006 L163.758345,115.044006 C165.247225,115.044006 166.453487,116.247063 166.453487,117.728473 L166.453487,117.730046 C166.453487,119.211457 165.247225,120.414513 163.758345,120.414513 L158.366483,120.414513 C156.877603,120.414513 155.671342,119.211457 155.671342,117.730046 L155.671342,117.728473 C155.671342,116.247063 156.877603,115.044006 158.366483,115.044006" id="Fill-16" fill="#EEEEEE"></path>
                    <path d="M161.061625,82.8220664 L161.063204,82.8220664 C162.552084,82.8220664 163.758345,84.0251228 163.758345,85.5065334 L163.758345,96.2491196 C163.758345,97.7305303 162.552084,98.9335867 161.063204,98.9335867 L161.061625,98.9335867 C159.572744,98.9335867 158.366483,97.7305303 158.366483,96.2491196 L158.366483,85.5065334 C158.366483,84.0251228 159.572744,82.8220664 161.061625,82.8220664" id="Fill-18" fill="#EEEEEE"></path>
                    <path d="M158.366483,125.785177 L158.366483,125.785177 C159.855363,125.785177 161.061625,126.988234 161.061625,128.469644 L161.061625,128.471217 C161.061625,129.952627 159.855363,131.155684 158.366483,131.155684 C156.877603,131.155684 155.671342,129.952627 155.671342,128.471217 L155.671342,128.469644 C155.671342,126.988234 156.877603,125.785177 158.366483,125.785177" id="Fill-20" fill="#EEEEEE"></path>
                    <path d="M161.061625,50.6002837 L161.063204,50.6002837 C162.552084,50.6002837 163.758345,51.8033401 163.758345,53.2847508 L163.758345,53.2863234 C163.758345,54.7677341 162.552084,55.9707905 161.063204,55.9707905 L161.061625,55.9707905 C159.572744,55.9707905 158.366483,54.7677341 158.366483,53.2863234 L158.366483,53.2847508 C158.366483,51.8033401 159.572744,50.6002837 161.061625,50.6002837" id="Fill-22" fill="#EEEEEE"></path>
                    <path d="M32.6599995,51.1823114 C21.438927,61.360326 15.0602676,75.6696207 15.0602676,90.8784556 C15.0602676,113.011549 28.6149189,132.725948 49.0755743,140.804511" id="Stroke-24" stroke="#0F222E" stroke-width="2" stroke-linecap="round" stroke-linejoin="round"></path>
                    <path d="M16.5783569,48.6544775 C6.88563656,60.5781034 1.57903399,75.4614054 1.57903399,90.8793992 C1.57903399,120.551646 21.0749961,146.567544 49.3305628,155.113177" id="Stroke-26" stroke="#0F222E" stroke-width="2" stroke-linecap="round" stroke-linejoin="round"></path>
                    <path d="M36.6258204,72.0824681 C35.1353614,72.0824681 33.9291001,73.2855246 33.9291001,74.7669352 L33.9291001,80.137442 C33.9291001,81.6204253 32.7228387,82.8219091 31.2339586,82.8219091 L28.5372382,82.8219091 C27.048358,82.8219091 25.8420967,84.0249655 25.8420967,85.5063762 L25.8420967,85.5079488 C25.8420967,86.9909321 27.048358,88.1924159 28.5372382,88.1924159 L33.9306789,88.1924159 C36.9084393,88.1924159 39.3209619,85.7894483 39.3209619,82.8234817 L39.3209619,80.1358694 C39.3209619,78.6544587 40.5272233,77.4514023 42.0161035,77.4514023 L50.1046857,77.4514023 C51.5935659,77.4514023 52.8014061,76.2499185 52.8014061,74.7669352 C52.8014061,73.2855246 51.5935659,72.0824681 50.1046857,72.0824681 L36.6258204,72.0824681 Z" id="Fill-28" fill="#EEEEEE"></path>
                    <path d="M50.1048436,61.3414545 L44.7129817,61.3414545 C43.2256804,61.3414545 42.0178402,62.544511 42.0178402,64.0259216 L42.0178402,64.0274943 C42.0178402,65.5089049 43.2256804,66.7119613 44.7129817,66.7119613 L50.1048436,66.7119613 C51.5937238,66.7119613 52.801564,65.5089049 52.801564,64.0274943 L52.801564,64.0259216 C52.801564,62.544511 51.5937238,61.3414545 50.1048436,61.3414545" id="Fill-30" fill="#EEEEEE"></path>
                    <path d="M33.9289422,106.988875 C33.9289422,108.470286 35.1352035,109.674915 36.6256626,109.674915 L50.1045278,109.674915 C51.593408,109.674915 52.8012482,108.471858 52.8012482,106.990448 L52.8012482,106.988875 C52.8012482,105.507464 51.593408,104.304408 50.1045278,104.304408 L42.0159456,104.304408 C40.5270654,104.304408 39.3208041,103.101352 39.3208041,101.619941 L39.3208041,98.9323286 C39.3208041,95.9663621 36.9082814,93.5633945 33.9305211,93.5633945 L28.5370803,93.5633945 C27.0482001,93.5633945 25.8419388,94.7664509 25.8419388,96.2478615 L25.8419388,96.2494342 C25.8419388,97.7308448 27.0482001,98.9339013 28.5370803,98.9339013 L31.2338007,98.9339013 C32.7226808,98.9339013 33.9289422,100.136958 33.9289422,101.618368 L33.9289422,106.988875 Z" id="Fill-32" fill="#EEEEEE"></path>
                    <path d="M50.1048436,115.044006 L44.7129817,115.044006 C43.2256804,115.044006 42.0178402,116.247063 42.0178402,117.728473 L42.0178402,117.730046 C42.0178402,119.211457 43.2256804,120.414513 44.7129817,120.414513 L50.1048436,120.414513 C51.5937238,120.414513 52.801564,119.211457 52.801564,117.730046 L52.801564,117.728473 C52.801564,116.247063 51.5937238,115.044006 50.1048436,115.044006" id="Fill-34" fill="#EEEEEE"></path>
                    <path d="M47.4095442,82.8220664 L47.4079653,82.8220664 C45.9190852,82.8220664 44.7128238,84.0251228 44.7128238,85.5065334 L44.7128238,96.2491196 C44.7128238,97.7305303 45.9190852,98.9335867 47.4079653,98.9335867 L47.4095442,98.9335867 C48.8984244,98.9335867 50.1046857,97.7305303 50.1046857,96.2491196 L50.1046857,85.5065334 C50.1046857,84.0251228 48.8984244,82.8220664 47.4095442,82.8220664" id="Fill-36" fill="#EEEEEE"></path>
                    <path d="M50.1048436,125.785177 L50.1048436,125.785177 C48.6175423,125.785177 47.4097021,126.988234 47.4097021,128.469644 L47.4097021,128.471217 C47.4097021,129.952627 48.6175423,131.155684 50.1048436,131.155684 C51.5937238,131.155684 52.801564,129.952627 52.801564,128.471217 L52.801564,128.469644 C52.801564,126.988234 51.5937238,125.785177 50.1048436,125.785177" id="Fill-38" fill="#EEEEEE"></path>
                    <path d="M47.4095442,50.6002837 L47.4079653,50.6002837 C45.9190852,50.6002837 44.7128238,51.8033401 44.7128238,53.2847508 L44.7128238,53.2863234 C44.7128238,54.7677341 45.9190852,55.9707905 47.4079653,55.9707905 L47.4095442,55.9707905 C48.8984244,55.9707905 50.1046857,54.7677341 50.1046857,53.2863234 L50.1046857,53.2847508 C50.1046857,51.8033401 48.8984244,50.6002837 47.4095442,50.6002837" id="Fill-40" fill="#EEEEEE"></path>
                    <path d="M122.127961,13.7464979 L122.127961,23.680756 L103.396175,29.4978877 L12.9013124,29.4978877 L21.6593381,21.2573443 L61.0680856,13.0199462 C61.0680856,13.0199462 122.371108,13.5058866 122.127961,13.7464979 Z" id="Stroke-42" stroke="#0F222E" stroke-width="2" stroke-linecap="round" stroke-linejoin="round"></path>
                    <polygon id="Stroke-44" stroke="#0F222E" stroke-width="2" stroke-linecap="round" stroke-linejoin="round" points="85.296413 1.63856061 68.3613879 1.63856061 67.2167028 4.16104754 67.2167028 10.6559796 87.1010684 10.6559796 87.1010684 4.30415622"></polygon>
                    <polygon id="Stroke-46" stroke="#0F222E" stroke-width="2" stroke-linecap="round" stroke-linejoin="round" points="69.5910167 39.2923396 85.3418846 39.2923396 86.4044682 36.7698527 86.4044682 30.2749206 67.9142502 30.2749206 67.9142502 36.626744"></polygon>
                    <mask id="mask-2" fill="white">
                        <use xlink:href="#path-1"></use>
                    </mask>
                    <g id="Clip-49"></g>
                    <polygon id="Stroke-48" stroke="#0F222E" stroke-width="2" stroke-linecap="round" stroke-linejoin="round" mask="url(#mask-2)" points="72.1499012 108.618584 81.8852512 108.618584 81.8852512 39.3665674 72.1499012 39.3665674"></polygon>
                    <path d="M77.6256014,170.426748 L76.4114456,170.426748 C71.2753617,170.426748 67.1102865,166.279742 67.1102865,161.162427 L67.1102865,108.617955 L86.9267605,108.617955 L86.9267605,161.162427 C86.9267605,166.279742 82.7616853,170.426748 77.6256014,170.426748 Z" id="Stroke-50" stroke="#0F222E" stroke-width="2" stroke-linecap="round" stroke-linejoin="round" mask="url(#mask-2)"></path>
                </g>
            </g>
        </g>
    </g>
</svg>