<?xml version="1.0" encoding="UTF-8"?>
<svg width="143px" height="140px" viewBox="0 0 143 140" version="1.1" xmlns="http://www.w3.org/2000/svg" xmlns:xlink="http://www.w3.org/1999/xlink">
    <!-- Generator: Sketch 53.2 (72643) - https://sketchapp.com -->
    <title>Group 33</title>
    <desc>Created with Sketch.</desc>
    <defs>
        <polygon id="path-1" points="0 0.07752 142.256265 0.07752 142.256265 5.99952 0 5.99952"></polygon>
        <polygon id="path-3" points="0.563942804 0.795857143 5.36352152 0.795857143 5.36352152 8.42378722 0.563942804 8.42378722"></polygon>
    </defs>
    <g id="Web-Pages" stroke="none" stroke-width="1" fill="none" fill-rule="evenodd">
        <g id="CD-Page" transform="translate(-644.000000, -1443.000000)">
            <g id="Group-33" transform="translate(644.000000, 1443.000000)">
                <path d="M106.728886,58 L120.320716,58 C121.247218,58 122,58.7586541 122,59.6923823 L122,135 L20,135 L20,59.6923823 C20,58.7586541 20.7514358,58 21.6792839,58 L49.65074,58" id="Stroke-1" stroke="#231F20" stroke-width="4" stroke-linecap="round" stroke-linejoin="round"></path>
                <g id="Group-5" transform="translate(0.000000, 134.000000)">
                    <mask id="mask-2" fill="white">
                        <use xlink:href="#path-1"></use>
                    </mask>
                    <g id="Clip-4"></g>
                    <path d="M134.133595,5.99952 L8.12226509,5.99952 C4.9884066,5.99952 2.14999151,4.36152 0.873783962,1.81752 L-0.000404716981,0.07752 L142.256265,0.07752 L141.383425,1.81752 C140.107218,4.36152 137.266105,5.99952 134.133595,5.99952" id="Fill-3" fill="#231F20" mask="url(#mask-2)"></path>
                </g>
                <path d="M82.9316064,35.946041 C82.4471698,36.0914093 82.1647038,36.4731709 82.0798177,37.0858914 C81.9949315,37.6999705 82.1237243,38.4906653 82.4632689,39.4634101 C82.8042771,40.4375134 83.2023639,41.1521276 83.6589929,41.6045355 C84.1170855,42.0583019 84.5854229,42.2104631 85.071323,42.0650948 C85.5601501,41.9183679 85.8440797,41.5366064 85.9289659,40.9211687 C86.0109249,40.305731 85.8821321,39.5096019 85.5411239,38.5354985 C85.2015793,37.5641123 84.804956,36.8535738 84.3483271,36.4025246 C83.8916981,35.9514753 83.4204335,35.8006727 82.9316064,35.946041 M85.3596432,42.8924713 C84.5678602,43.1302232 83.8170568,42.9739862 83.1086964,42.4210433 C82.4017996,41.8640246 81.8354041,40.9836634 81.4124368,39.7745254 C80.9923967,38.5721802 80.892875,37.5505265 81.1153353,36.7163571 C81.3392591,35.8821876 81.8471125,35.3455477 82.6388955,35.1077958 C83.4306784,34.8686854 84.1814819,35.0276395 84.8942329,35.581941 C85.6040568,36.1376011 86.1704523,37.0152451 86.5890289,38.2162317 C87.009069,39.4185769 87.1071272,40.4375134 86.8832034,41.2771172 C86.6607431,42.1167209 86.1514261,42.6533609 85.3596432,42.8924713" id="Fill-6" fill="#EC1C24"></path>
                <path d="M92.3004391,61.8679376 C91.7440432,61.8307047 91.2867753,62.0753778 90.9238389,62.6006271 C90.5625013,63.1258763 90.3338674,63.8864905 90.2363382,64.8837992 C90.138809,65.8824378 90.218751,66.6656576 90.4729663,67.2361182 C90.7319782,67.8039193 91.1348856,68.1071012 91.6912815,68.1456638 C92.2508751,68.1815669 92.7113407,67.9355641 93.0726783,67.4103148 C93.4340159,66.882406 93.6642487,66.1178026 93.760179,65.1191641 C93.8577082,64.1218554 93.7777662,63.341295 93.5235508,62.7748237 C93.2661378,62.2083523 92.8600327,61.9038407 92.3004391,61.8679376 M91.6097408,68.9927113 C90.7031991,68.9315431 90.0156984,68.5273006 89.5520352,67.7786541 C89.0867731,67.0326672 88.9172962,66.0380179 89.0372091,64.7986956 C89.1555231,63.5633624 89.5168607,62.6072758 90.119623,61.9304356 C90.7207864,61.2549251 91.4754383,60.9464243 92.3835788,61.0075925 C93.2885215,61.0661013 93.9760222,61.474333 94.4428832,62.2229795 C94.9081453,62.9729557 95.0824187,63.9649454 94.9641046,65.1962893 C94.8441917,66.4276332 94.4812553,67.3823901 93.8752954,68.0632196 C93.2709343,68.744049 92.5162824,69.0525499 91.6097408,68.9927113" id="Fill-8" fill="#EC1C24"></path>
                <path d="M115.300717,29.8664731 C114.744245,29.8305641 114.286914,30.0752771 113.923928,30.6006121 C113.564139,31.1259471 113.335474,31.8866853 113.237931,32.8841568 C113.140389,33.8829582 113.220342,34.6663058 113.474592,35.2368595 C113.73364,35.8060832 114.136602,36.1079845 114.693075,36.1452235 C115.251146,36.1824624 115.711675,35.9377494 116.074662,35.4110845 C116.436049,34.8817596 116.666313,34.1170315 116.762257,33.1182301 C116.8598,32.1207586 116.779847,31.3400709 116.523997,30.7748371 C116.266549,30.2082733 115.858789,29.903712 115.300717,29.8664731 M114.611523,36.9924092 C113.703257,36.932561 113.017261,36.5282525 112.553534,35.7794839 C112.088208,35.0320453 111.917109,34.0398937 112.037038,32.7990392 C112.156968,31.5635046 112.516756,30.605932 113.119601,29.9303113 C113.722446,29.2546906 114.475603,28.9474694 115.385467,29.0073177 C116.290535,29.067166 116.976531,29.4728044 117.443456,30.2229029 C117.910381,30.9730014 118.08308,31.9638231 117.96315,33.1953679 C117.84482,34.4282426 117.483433,35.3831553 116.877389,36.0640958 C116.272945,36.7450363 115.518189,37.0535875 114.611523,36.9924092" id="Fill-10" fill="#EC1C24"></path>
                <g id="Group-14" transform="translate(125.000000, 0.000000)">
                    <mask id="mask-4" fill="white">
                        <use xlink:href="#path-3"></use>
                    </mask>
                    <g id="Clip-13"></g>
                    <path d="M3.69264,1.6731 C3.28944,1.55867143 2.91144,1.72452857 2.55864,2.17324286 C2.20704,2.61938571 1.91544,3.30981429 1.68264,4.24452857 C1.44984,5.18181429 1.38024,5.9391 1.47744,6.51767143 C1.57464,7.09624286 1.82424,7.4421 2.22864,7.55652857 C2.63544,7.67352857 3.01584,7.50638571 3.36744,7.05638571 C3.72024,6.60767143 4.01304,5.91338571 4.24584,4.9761 C4.47744,4.04267143 4.54704,3.28924286 4.44864,2.71324286 C4.35144,2.13595714 4.10064,1.7901 3.69264,1.6731 M2.03064,8.35238571 C1.36944,8.16467143 0.92904,7.68124286 0.70944,6.9021 C0.48624,6.12424286 0.51984,5.15481429 0.81024,3.99252857 C1.09824,2.8341 1.51824,1.97524286 2.07264,1.41981429 C2.62584,0.8631 3.23304,0.679242857 3.89424,0.866957143 C4.55304,1.05595714 4.99464,1.53938571 5.21784,2.3211 C5.43984,3.10024286 5.40864,4.06967143 5.12064,5.22424286 C4.83384,6.37752857 4.41264,7.2351 3.85584,7.79567143 C3.29904,8.35495714 2.68944,8.54138571 2.03064,8.35238571" id="Fill-12" fill="#EC1C24" mask="url(#mask-4)"></path>
                </g>
                <path d="M112.299581,8.86677235 C111.743168,8.82953353 111.285887,9.07424576 110.926137,9.59957907 C110.56319,10.1249124 110.334549,10.8856482 110.238616,11.8831165 C110.141083,12.8819148 110.219429,13.6652599 110.475251,14.2358118 C110.732672,14.8037037 111.135591,15.1069341 111.692004,15.1455029 C112.251615,15.1814117 112.712094,14.9353695 113.073443,14.4100362 C113.43639,13.882043 113.665031,13.1173173 113.760964,12.118519 C113.858496,11.1210507 113.780151,10.3403655 113.524329,9.77380353 C113.265309,9.20724153 112.859192,8.90268121 112.299581,8.86677235 M111.610461,15.9926859 C110.703892,15.9315079 110.01637,15.5272007 109.552693,14.7784345 C109.089016,14.0323282 108.917935,13.0375198 109.036252,11.7979992 C109.156169,10.5624685 109.517517,9.60622886 110.120298,8.92928037 C110.72148,8.25366183 111.476154,7.94644159 112.384322,8.00761965 C113.289292,8.06613779 113.978413,8.47310486 114.44209,9.22187107 C114.908965,9.97196724 115.083244,10.9641157 114.963327,12.1956566 C114.84501,13.4271975 114.482062,14.3821071 113.876084,15.0630455 C113.273303,15.7453138 112.51703,16.052534 111.610461,15.9926859" id="Fill-15" fill="#EC1C24"></path>
                <path d="M97.2991047,43.8725287 C97.2398884,43.8685262 97.1969565,43.8645238 97.1688288,43.8631897 C97.1392206,43.8618555 97.1140537,43.8578531 97.0903671,43.8525165 C96.9571304,43.8244996 96.8549822,43.7684656 96.7868835,43.6804123 C96.7187847,43.5950272 96.7025002,43.4936324 96.730628,43.3802304 C96.7557949,43.2855063 96.8135308,43.2107944 96.9053161,43.1547604 C96.9985818,43.1000606 97.1199753,43.0693754 97.2680161,43.0640388 L99.3346659,43 C99.3864802,43 99.4338532,43 99.4827067,43.0026683 C99.5300798,43.0080049 99.5759724,43.0133414 99.6248259,43.0240146 C99.7077287,43.0413584 99.7639842,43.0893875 99.7965532,43.1681019 C99.824681,43.2468162 99.8232006,43.3455427 99.7935924,43.4629472 L98.1414569,49.8468152 L99.1895859,50.0669486 C99.5789332,50.1483312 99.8157985,50.2297138 99.9061034,50.3070941 C99.9964083,50.3871426 100.021575,50.5058812 99.9816042,50.6619758 C99.9431136,50.8033948 99.8735345,50.9007871 99.7684255,50.9541528 C99.6618361,51.0061843 99.5226777,51.0141892 99.3479896,50.9768332 L95.4337904,50.1550019 C95.2591023,50.1189801 95.1362284,50.0549413 95.0681296,49.9655538 C94.9985504,49.8761663 94.9822659,49.7614301 95.0192761,49.618677 C95.0592472,49.4612482 95.1391892,49.36519 95.2576219,49.3305023 C95.3775349,49.2958147 95.6336455,49.3184951 96.0229929,49.4012119 L97.108132,49.6280159 L98.598903,43.8645238 L97.2991047,43.8725287 Z" id="Fill-17" fill="#EC1C24"></path>
                <path d="M120.299105,15.8729949 C120.239888,15.8689928 120.196957,15.8649906 120.168829,15.8636566 C120.139221,15.8609885 120.114054,15.8583203 120.090367,15.8529841 C119.95713,15.824969 119.854982,15.7676046 119.786883,15.6808911 C119.718785,15.5941776 119.7025,15.4941235 119.730628,15.3807289 C119.755795,15.286011 119.813531,15.2099699 119.905316,15.1552737 C119.998582,15.1005774 120.119975,15.0685601 120.268016,15.064558 L122.334666,15.0005234 C122.385,14.9991893 122.433853,15.0005234 122.482707,15.0031915 C122.53008,15.0071936 122.575972,15.0138639 122.624826,15.0245363 C122.707729,15.041879 122.763984,15.089905 122.796553,15.1686142 C122.824681,15.2473234 122.823201,15.3460434 122.793592,15.4634402 L121.141457,21.8468906 L122.189586,22.0670096 C122.578933,22.1483869 122.815799,22.2297642 122.906103,22.3071394 C122.996408,22.3871827 123.021575,22.5059135 122.981604,22.6619979 C122.943114,22.8034076 122.873534,22.9007936 122.768425,22.9541558 C122.661836,23.0061839 122.522678,23.0141882 122.34799,22.9768347 L118.43231,22.1537231 C118.259102,22.1177037 118.136228,22.0550031 118.06813,21.9656215 C117.99855,21.8762398 117.982266,21.7601771 118.019276,21.6201014 C118.059247,21.4613489 118.139189,21.365297 118.257622,21.3306116 C118.377535,21.2959261 118.633646,21.3199391 119.022993,21.4013164 L120.108132,21.6294398 L121.598903,15.8663247 L120.299105,15.8729949 Z" id="Fill-19" fill="#EC1C24"></path>
                <path d="M134.529574,18.7866685 C134.47633,18.7710921 134.437097,18.7594097 134.410475,18.7529196 C134.383853,18.7451314 134.361435,18.7373431 134.340417,18.7269589 C134.22272,18.6737394 134.144255,18.5984533 134.103621,18.5036968 C134.061586,18.4089402 134.067191,18.3102895 134.121836,18.2077447 C134.166673,18.1220743 134.238133,18.0623647 134.337615,18.0299138 C134.435696,17.9961649 134.554795,17.9909728 134.692108,18.0143374 L136.611698,18.364807 C136.660739,18.3725952 136.705576,18.3829795 136.749012,18.3959598 C136.789645,18.4089402 136.83168,18.4258146 136.875116,18.4426891 C136.946575,18.476438 136.987209,18.5348496 136.998418,18.6140298 C137.006825,18.695806 136.981604,18.7879665 136.925558,18.8944054 L133.886441,24.6161457 L134.799998,25.0328151 C135.139079,25.1872813 135.340846,25.3105947 135.403898,25.4027552 C135.468351,25.4962138 135.462747,25.613037 135.387084,25.7532248 C135.319828,25.8817303 135.232956,25.9583144 135.122265,25.9881692 C135.012974,26.0154279 134.881265,25.9959574 134.72994,25.9258635 L131.315312,24.370817 C131.163987,24.3007231 131.067307,24.2176488 131.023871,24.1189981 C130.981836,24.0203474 130.995848,23.9087164 131.061702,23.7815089 C131.137365,23.6400231 131.232644,23.564737 131.350341,23.5556508 C131.46944,23.5465645 131.697829,23.6192545 132.038311,23.7724227 L132.985495,24.2059665 L135.730368,19.0384874 L134.529574,18.7866685 Z" id="Fill-21" fill="#EC1C24"></path>
                <path d="M119.757568,47.797213 C119.715865,47.7678964 119.683285,47.7439101 119.663736,47.7279192 C119.641582,47.7132609 119.623337,47.69727 119.610305,47.6839443 C119.521686,47.5959944 119.474771,47.5000491 119.468254,47.3947757 C119.461738,47.2881698 119.498228,47.1948896 119.577724,47.1096049 C119.644188,47.0416436 119.726291,47.0043316 119.824032,47.0003338 C119.921773,46.9963361 120.027333,47.0283179 120.143319,47.0922814 L121.731936,47.9970991 C121.772336,48.0197529 121.806219,48.0437392 121.842709,48.0690581 C121.87529,48.094377 121.906567,48.1210285 121.939147,48.1543429 C121.992579,48.2063132 122.010824,48.2742745 121.993882,48.3555615 C121.975637,48.4368485 121.927418,48.5208007 121.845316,48.607418 L117.3779,53.2967457 L118.055571,53.9736933 C118.307091,54.2228846 118.446535,54.4027821 118.475206,54.5120531 C118.50127,54.6226568 118.46087,54.734593 118.351401,54.8505269 C118.252356,54.9544677 118.149402,55.0037729 118.043842,54.9997752 C117.938282,54.9957775 117.827509,54.9371442 117.714129,54.8238754 L115.179379,52.301313 C115.065999,52.1880442 115.007355,52.0774405 115.000839,51.9695021 C114.993019,51.8615636 115.039935,51.7549577 115.138979,51.6510169 C115.248449,51.535083 115.356616,51.4897754 115.46348,51.5137618 C115.572949,51.5417458 115.752793,51.6790009 116.004313,51.9308574 L116.708048,52.6304587 L120.741494,48.3955387 L119.757568,47.797213 Z" id="Fill-23" fill="#EC1C24"></path>
                <path d="M92.7136723,21.6353642 C92.6620205,21.6551829 92.6229327,21.6670742 92.5964088,21.6763229 C92.5684889,21.6855716 92.546153,21.6934991 92.5252131,21.6974629 C92.3967816,21.7212453 92.2851021,21.7080328 92.1901745,21.6551829 C92.0938509,21.6036542 92.0338232,21.5190944 92.0086953,21.405467 C91.9877554,21.3116584 92.0045073,21.2231348 92.0603471,21.138575 C92.1161868,21.0540151 92.2069264,20.9813464 92.3325659,20.920569 L94.0719745,20.0908253 C94.1152503,20.0683641 94.1571301,20.0525091 94.19901,20.0392966 C94.2422858,20.0234416 94.2855616,20.0128717 94.3302334,20.0049442 C94.4098051,19.9890892 94.4796048,20.0115504 94.5410285,20.0696853 C94.6010563,20.1291415 94.6443321,20.2176651 94.668064,20.3352562 L96.0542861,26.6917803 L97.0468379,26.4988781 C97.4139843,26.4262095 97.6540953,26.4090332 97.7657748,26.4486707 C97.8774543,26.4856656 97.951442,26.5807955 97.9849459,26.738024 C98.0170538,26.8807188 97.9975098,26.9943461 97.9291061,27.078906 C97.8620984,27.1674296 97.7462309,27.2255645 97.5801076,27.2585957 L93.8695554,27.9826396 C93.7034321,28.0143496 93.5708126,28.0024583 93.4730931,27.9482872 C93.3767695,27.8954372 93.3111577,27.7976649 93.2790499,27.6562913 C93.245546,27.4990628 93.2706739,27.3841143 93.3586215,27.3074819 C93.4451732,27.2295282 93.6727202,27.1568596 94.0412626,27.084191 L95.0715063,26.8833613 L93.8220916,21.1438599 L92.7136723,21.6353642 Z" id="Fill-25" fill="#EC1C24"></path>
                <path d="M135.806806,36.7240638 C135.771216,36.6889444 135.742471,36.6600963 135.724676,36.6425366 C135.706881,36.6237227 135.691824,36.6049087 135.679505,36.5911118 C135.608326,36.4920249 135.582318,36.392938 135.600113,36.2951054 C135.61517,36.1960185 135.672661,36.1169999 135.775323,36.0567952 C135.857453,36.0066246 135.949164,35.9890649 136.050458,36.0066246 C136.151751,36.0216758 136.253044,36.0718464 136.357075,36.1558821 L137.787502,37.3185851 C137.823092,37.3474332 137.854575,37.3775355 137.884689,37.4063836 C137.912066,37.4352317 137.939442,37.4690968 137.96545,37.5042162 C138.006515,37.5631666 138.01199,37.6308969 137.976401,37.7011357 C137.940811,37.773883 137.871001,37.8403591 137.76697,37.901818 L132.146556,41.2870774 L132.694088,42.0471616 C132.896674,42.3306253 132.999337,42.523782 133.003443,42.6303945 C133.008918,42.7382612 132.940477,42.832331 132.803594,42.9163667 C132.677662,42.9916226 132.561311,43.0167079 132.454542,42.9891141 C132.346405,42.9640288 132.24648,42.8875187 132.156138,42.7595837 L130.115213,39.9149122 C130.023501,39.7869773 129.986543,39.6740935 130.004337,39.5724981 C130.019395,39.4709027 130.090574,39.3831042 130.215137,39.3091026 C130.354758,39.2250669 130.475215,39.2062529 130.580615,39.2526607 C130.686015,39.2978142 130.839324,39.4633771 131.04191,39.7443323 L131.608606,40.5345188 L136.682857,37.4791309 L135.806806,36.7240638 Z" id="Fill-27" fill="#EC1C24"></path>
                <path d="M61,77 L61,60.7636704 C61,54.8198189 65.7004187,50 71.5,50 C77.298249,50 82,54.8198189 82,60.7636704" id="Stroke-29" stroke="#231F20" stroke-width="3" stroke-linecap="round" stroke-linejoin="round"></path>
                <path d="M67.0931166,100.330905 L68.3097514,90.9233129 C67.6017208,90.2254601 67.1734226,89.2592025 67.1734226,88.1855828 C67.1734226,86.065184 68.8866157,84.3473926 71.0013384,84.3473926 C73.1160612,84.3473926 74.8279159,86.065184 74.8279159,88.1855828 C74.8279159,89.2592025 74.3862333,90.2388804 73.6782027,90.9367331 L74.9095602,100.330905 L67.0931166,100.330905 Z M88.5214149,76 L53.481262,76 C51.5539197,76 50,77.5567485 50,79.4758436 L50,107.524156 C50,109.443252 51.5539197,111 53.481262,111 L88.5214149,111 C90.4474187,111 92,109.443252 92,107.524156 L92,79.4758436 C92,77.5567485 90.4474187,76 88.5214149,76 L88.5214149,76 Z" id="Fill-31" fill="#E22B2B"></path>
            </g>
        </g>
    </g>
</svg>