<?xml version="1.0" encoding="UTF-8"?>
<svg width="91px" height="84px" viewBox="0 0 91 84" version="1.1" xmlns="http://www.w3.org/2000/svg" xmlns:xlink="http://www.w3.org/1999/xlink">
    <!-- Generator: Sketch 53.2 (72643) - https://sketchapp.com -->
    <title>Icon-PII Harvesting</title>
    <desc>Created with Sketch.</desc>
    <defs>
        <polygon id="path-1" points="0 90 91 90 91 0 0 0"></polygon>
    </defs>
    <g id="Page-1" stroke="none" stroke-width="1" fill="none" fill-rule="evenodd">
        <g id="Home-Page" transform="translate(-593.000000, -1804.000000)">
            <g id="Icon-PII-Harvesting" transform="translate(593.000000, 1801.000000)">
                <path d="M74.1958455,50 C74.0532475,50 73.9084834,49.9831317 73.7640803,49.9476006 C68.5789272,48.6817603 65.7356308,46.2487773 65.6172202,46.145773 C64.8666853,45.4936517 64.7897907,44.3598866 65.4461026,43.6137335 C66.0998875,42.869375 67.2359786,42.7914937 67.9868746,43.4382315 C68.0410257,43.4838117 70.3781894,45.4254607 74.6247226,46.4626817 C75.5929452,46.6988379 76.1853588,47.6707391 75.9474547,48.6329499 C75.7449294,49.4519597 75.0073908,50 74.1958455,50" id="Fill-1" fill="#BFBFBF"></path>
                <path d="M21.58774,62 C20.9540136,62 20.355553,61.628621 20.110103,61.0211903 C19.7898896,60.2284128 20.1919197,59.3338828 21.0076176,59.0228016 C32.4989783,54.6433393 46.2544033,43.4738774 46.3919399,43.3615045 C47.0626954,42.8136862 48.0635388,42.897966 48.6281442,43.5499347 C49.1916917,44.2019035 49.1049378,45.1742038 48.4341823,45.722022 C47.8561759,46.1934403 34.1473017,57.3272716 22.1671571,61.8931086 C21.9767218,61.9653973 21.7806439,62 21.58774,62" id="Fill-3" fill="#BFBFBF"></path>
                <path d="M18.5663689,54 C17.8860654,54 17.2597266,53.5177078 17.061972,52.7758354 C16.821742,51.8774627 17.3011576,50.9392124 18.1329104,50.6803847 C24.3813273,48.7320294 32.4262469,42.3922564 32.5066717,42.3283019 C33.2043831,41.774531 34.1848,41.9381793 34.6965944,42.6920902 C35.2083887,43.446001 35.0572875,44.5057648 34.3595761,45.058407 C34.0124611,45.3337876 25.7795355,51.8199036 19.00122,53.9330359 C18.8563856,53.9785564 18.7101587,54 18.5663689,54" id="Fill-5" fill="#BFBFBF"></path>
                <path d="M67.7793403,56.8678356 C62.4799185,54.524071 58.4345748,52.1155346 55.7556993,49.7092446 C53.6793218,47.8447162 53.1216377,46.5915884 53,46.2520046 L55.9954181,45.0643974 C55.9954181,45.0643974 55.9893718,45.0423076 55.9708772,45 C55.9872378,45.0374403 57.7741032,48.7870893 69.0191915,53.7617859 C69.8340221,54.1219619 70.2170742,55.1096378 69.874568,55.9673957 C69.6174216,56.6121182 69.0238152,57 68.3985546,57 C68.1919127,57 67.9817142,56.9576924 67.7793403,56.8678356 Z" id="Fill-7" fill="#BFBFBF"></path>
                <path d="M25.5882983,71 C24.8909272,71 24.2518174,70.5279821 24.0576128,69.8087854 C23.8242141,68.9458214 24.3210249,68.052951 25.1670508,67.8151404 C25.3471315,67.7639751 40.1211597,63.4967173 48.2823441,53.578937 C48.8109338,52.9368486 49.7318168,52.8110973 50.4065896,53.2910422 C52.7027944,54.9211253 54.5915226,56.5728275 56.2574452,58.0299576 C59.6228347,60.9723224 62.2809663,63.2963799 66.8038154,64.4753437 C67.6540785,64.6969399 68.1671318,65.5800817 67.9503288,66.4473695 C67.7328197,67.3150177 66.8656078,67.8374802 66.0174632,67.6173253 C60.776057,66.251356 57.5769773,63.4541997 54.1900487,60.4923775 C52.8108428,59.2863899 51.3938552,58.0472529 49.7406443,56.795865 C40.8227681,66.6877023 26.6331192,70.7668736 26.0113113,70.941268 C25.8704246,70.9809031 25.7281256,71 25.5882983,71" id="Fill-9" fill="#BFBFBF"></path>
                <path d="M32.5768428,80 C31.9661492,80 31.3848697,79.6463469 31.1281963,79.0561168 C30.7850313,78.2649868 31.1544589,77.3484676 31.9542435,77.0086696 C36.9704052,74.8773987 43.9485603,71.160404 48.7055974,65.5570284 C48.9832809,65.2297001 49.3842237,65.0298394 49.8152809,65.0035145 C50.2484392,64.9744187 50.6689914,65.1271719 50.9848433,65.4174376 C55.5135706,69.5812614 57.409032,71.1191849 63.8790927,73.0499023 C64.7121432,73.2982561 65.18382,74.1680142 64.9323991,74.9923966 C64.6809783,75.816779 63.8031062,76.2823125 62.968655,76.0346514 C56.417005,74.0793411 53.8943921,72.2805942 50.025382,68.7838966 C44.9517926,74.1721707 38.161678,77.7641226 33.1980415,79.8732252 C32.995294,79.9594736 32.7844927,80 32.5768428,80" id="Fill-11" fill="#BFBFBF"></path>
                <path d="M40.6174001,87 C40.3274967,87 40.0347159,86.9266679 39.77035,86.7728742 C39.0089041,86.3301655 38.7718739,85.3894096 39.240539,84.6710265 C39.7689113,83.8606388 44.5548343,76.7963122 49.8119402,78.1787582 C52.2833123,78.8275437 55.0057421,80.0667206 57.1929658,81.0628151 C58.4881791,81.652188 60.0995526,82.3858486 60.5606643,82.4469587 C61.4494375,82.5396423 62.088232,83.2946914 61.9900389,84.1332577 C61.8914862,84.971145 61.0890366,85.5737584 60.2017021,85.4834512 C59.2726446,85.3866936 58.0490079,84.8445113 55.7866108,83.8148062 C53.7152046,82.8716738 51.1373668,81.6980205 48.9443882,81.1222277 C46.6341535,80.5182563 43.2646565,84.330168 41.9971386,86.2727899 C41.6910496,86.7416401 41.1605193,87 40.6174001,87" id="Fill-13" fill="#BFBFBF"></path>
                <path d="M15.399601,26.5550656 C15.9598334,26.6770922 16.4780221,26.670059 18.0711282,25.4406491 C18.7802655,24.8952216 19.8257523,23.9735158 20.7924072,22.69206 L21.2152969,22.130456 C24.8335083,17.2975669 33.3067169,5.98671462 45.5431878,6.60212289 C55.6340281,7.34096447 62.787765,14.9896101 66.2297433,28.724116 C66.3474656,29.1893646 66.4189399,29.4766724 66.4981223,29.6978677 C67.0222671,31.9435804 67.905185,34.7403472 69.1752554,35.6620529 C69.4912839,35.8906332 69.8553123,36 70.2165379,36 C70.7694126,36 71.3156305,35.7436385 71.6617903,35.2586968 C72.2188695,34.4839857 72.0710158,33.4149336 71.3415574,32.822735 C70.9897917,32.3666296 70.3276033,30.454644 69.9362465,28.7455673 C69.9127721,28.6453437 69.8798378,28.5451201 69.8388452,28.4491164 C69.8073124,28.3337713 69.7431958,28.0798714 69.6857361,27.8502362 C69.1395182,25.6741526 67.6914628,19.8924798 64.1769592,14.4529741 C59.6390417,7.43028659 53.4512589,3.58802902 45.7814355,3.0331066 C45.7677713,3.03169995 45.7558589,3.03169995 45.7432458,3.0302933 C31.6067497,2.30797983 22.3277033,14.6917525 18.3685875,19.9818019 L17.9520044,20.5367244 C16.8669264,21.9760764 15.5859947,22.8703525 15.1441854,23.1316373 C14.9945799,23.1893098 14.8512809,23.2701921 14.7153396,23.3718223 C14.1610634,23.7934649 13.8916333,24.5119101 14.0405381,25.1937825 C14.1883918,25.8735449 14.7209454,26.404906 15.399601,26.5550656" id="Fill-15" fill="#000000"></path>
                <path d="M59.9487101,33.0827785 C61.3180048,29.6828737 61.351202,26.1698397 60.0393777,23.444809 C58.8692662,21.0166096 56.6871759,19.2544183 53.7297707,18.3554136 C49.3891494,17.0354547 44.1279309,19.4292544 39.3061289,24.9176165 C39.2450889,24.9839336 32.3814815,32.1557575 25.1759074,36.538716 C25.1227205,36.570988 19.8465098,39.7151996 14.3372048,41.2057388 C13.3709168,41.4678156 12.8008533,42.4583167 13.064289,43.4193829 C13.3277247,44.3808038 14.3247112,44.9492869 15.29207,44.6857916 C21.2854114,43.0647459 26.8193466,39.7652034 27.0624357,39.6212208 C34.8791236,34.8637655 41.9693999,27.3695766 42.029369,27.3000678 C44.9578605,23.9700264 49.2870591,20.775811 52.6656759,21.8031944 C54.6542945,22.4071412 56.0346549,23.4852377 56.7653499,25.0034386 C57.6409703,26.8184707 57.5710063,29.277169 56.5783034,31.74296 C54.9959042,35.6769481 50.532489,40.3099258 43.8755609,45 L49.8924616,45 C54.2398651,41.4940587 58.2238843,37.3689212 59.9487101,33.0827785" id="Fill-17" fill="#000000"></path>
                <path d="M31.8618666,19.4591908 C31.0460341,20.3562175 30.3139764,21.3210776 29.5260689,22.241422 C28.4931995,23.4489987 27.3648905,24.5749633 26.1842664,25.6391005 C24.9735964,26.7325615 23.9926886,27.5147659 22.5625074,28.3358333 C21.047491,29.2038894 19.5024287,30.084311 17.9315623,30.8488505 C17.390384,31.1109985 16.9273249,31.2827019 16.3186318,31.4642977 C15.3822626,31.7458772 14.7997271,32.7149769 15.0637769,33.6766573 C15.3175757,34.6026545 16.3348919,35.2117423 17.274089,34.9312228 C19.1136004,34.3779562 20.778846,33.4339408 22.4380824,32.4899253 C23.8399852,31.6950021 25.2312835,30.9774514 26.5200726,29.9973994 C29.0297826,28.0888771 31.1913145,25.8613256 33.1782271,23.4228546 C33.9827482,22.4360899 34.8434727,21.4949008 35.7409591,20.5922213 C36.2319432,20.099369 36.7388339,19.6248881 37.2584499,19.1595931 C37.5274484,18.9172298 37.8024561,18.681226 38.0781707,18.4491084 C38.2192093,18.3303998 38.3616619,18.2131045 38.5048214,18.0972224 C38.5437042,18.0678985 38.8211862,17.8460266 38.8932962,17.7891455 C40.1456768,16.8317046 41.4775905,15.9799003 42.8805537,15.2595232 C44.2061048,14.5790689 45.5362511,14.102115 47.1498885,13.7664808 C47.6847042,13.6544849 47.8002922,13.6421194 48.2025528,13.6007834 C49.1770979,13.5000932 50,12.8595617 50,11.8039037 C50,10.899811 49.1781584,9.90668696 48.2025528,10.0070239 C41.7027575,10.6832386 36.1449871,14.743353 31.8618666,19.4591908" id="Fill-19" fill="#000000"></path>
                <path d="M51.6646566,29.7965033 C52.2419209,29.0017948 52.0556268,27.8977624 51.2464669,27.3295667 C50.4383676,26.7613711 49.3160073,26.9464783 48.7405105,27.7415347 C43.0495254,35.5932822 34.8995992,41.2487951 28,45 L34.9632291,45 C40.8624252,41.2244389 47.0196759,36.2077547 51.6646566,29.7965033" id="Fill-21" fill="#000000"></path>
                <path d="M65.4637405,38.3685447 C65.0915491,35.9709128 61.6580658,36.9901941 62.027804,39.3718591 C62.3919348,41.7100793 63.3609642,43.5306754 64.7123484,45 L71,45 C69.8553888,44.4630671 68.7237447,43.8585535 67.7676824,43.0156505 C66.3907144,41.8014247 65.7500685,40.2077069 65.4637405,38.3685447 Z" id="Fill-23" fill="#000000"></path>
                <mask id="mask-2" fill="white">
                    <use xlink:href="#path-1"></use>
                </mask>
                <g id="Clip-26"></g>
                <polygon id="Fill-25" fill="#EC1C24" mask="url(#mask-2)" points="10 47 81 47 81 44 10 44"></polygon>
                <polygon id="Fill-27" fill="#EC1C24" mask="url(#mask-2)" points="84 47 91 47 91 44 84 44"></polygon>
                <polygon id="Fill-28" fill="#EC1C24" mask="url(#mask-2)" points="0 47 7 47 7 44 0 44"></polygon>
            </g>
        </g>
    </g>
</svg>