<?xml version="1.0" encoding="UTF-8"?>
<svg width="79px" height="68px" viewBox="0 0 79 68" version="1.1" xmlns="http://www.w3.org/2000/svg" xmlns:xlink="http://www.w3.org/1999/xlink">
    <!-- Generator: Sketch 53.2 (72643) - https://sketchapp.com -->
    <title>Icon-Digital Skimming</title>
    <desc>Created with Sketch.</desc>
    <g id="Page-1" stroke="none" stroke-width="1" fill="none" fill-rule="evenodd">
        <g id="Home-Page" transform="translate(-396.000000, -1801.000000)">
            <g id="Icon-Digital-Skimming" transform="translate(396.000000, 1801.000000)">
                <polygon id="Fill-1" fill="#EC1C24" points="1 6 9 6 9 2 1 2"></polygon>
                <polygon id="Fill-2" fill="#EC1C24" points="1 66 9 66 9 62 1 62"></polygon>
                <polygon id="Fill-3" fill="#EC1C24" points="1 66 5 66 5 2 1 2"></polygon>
                <polygon id="Fill-4" fill="#EEEEEE" points="6 61 76 61 76 53 6 53"></polygon>
                <path d="M22.8000431,52.25 L31.1999569,52.25 L31.1999569,46.75 L22.8000431,46.75 L22.8000431,52.25 Z M20,55 L34,55 L34,44 L20,44 L20,55 Z" id="Fill-5" fill="#8A8A8A"></path>
                <path d="M38.8,52.25 L47.2,52.25 L47.2,46.75 L38.8,46.75 L38.8,52.25 Z M36,55 L50,55 L50,44 L36,44 L36,55 Z" id="Fill-6" fill="#8A8A8A"></path>
                <path d="M55.8000431,52.25 L64.2001723,52.25 L64.2001723,46.75 L55.8000431,46.75 L55.8000431,52.25 Z M53,55 L67,55 L67,44 L53,44 L53,55 Z" id="Fill-7" fill="#8A8A8A"></path>
                <path d="M7.66648434,52.25 L14.3333105,52.25 L14.3333105,46.75 L7.66648434,46.75 L7.66648434,52.25 Z M5,55 L17,55 L17,44 L5,44 L5,55 Z" id="Fill-8" fill="#8A8A8A"></path>
                <g id="Group-25" fill="#000000">
                    <path d="M7.16895781,3.01744026 L7.16895781,4.42979808 L4.35525918,4.42979808 L4.35525918,63.74383 L7.16895781,63.74383 L7.16895781,65.1559706 L2.94819342,65.1559706 L2.94819342,3.01744026 L7.16895781,3.01744026 Z M9.98287288,25.6132102 L9.98287288,28.0781559 C9.98287288,28.2024243 10.0053825,28.3210441 10.0205332,28.4377086 L7.16895781,28.4377086 L7.16895781,25.6132102 L9.98287288,25.6132102 Z M23.6942427,17.1399323 L18.78304,17.1399323 C17.032703,17.1399323 15.610703,18.5670633 15.610703,20.3239834 L15.610703,28.0781559 C15.610703,28.2758556 15.4494564,28.4377086 15.2524975,28.4377086 L13.1552099,28.4377086 C12.958251,28.4377086 12.7967879,28.2758556 12.7967879,28.0781559 L12.7967879,14.6749866 C12.7967879,14.4772869 12.958251,14.3154339 13.1552099,14.3154339 L23.6942427,14.3154339 C23.8912016,14.3154339 24.0524482,14.4772869 24.0524482,14.6749866 L24.0524482,16.7803796 C24.0524482,16.9780792 23.8912016,17.1399323 23.6942427,17.1399323 L23.6942427,17.1399323 Z M18.4246181,22.7889291 L18.4246181,20.3239834 C18.4246181,20.1262837 18.5860811,19.9644307 18.78304,19.9644307 L23.6942427,19.9644307 C23.8180455,19.9644307 23.9362208,19.9416192 24.0524482,19.9266288 L24.0524482,22.7889291 L18.4246181,22.7889291 Z M24.0524482,28.0781559 C24.0524482,28.2758556 23.8912016,28.4377086 23.6942427,28.4377086 L18.3871742,28.4377086 C18.4021085,28.3210441 18.4246181,28.2024243 18.4246181,28.0781559 L18.4246181,25.6132102 L24.0524482,25.6132102 L24.0524482,28.0781559 Z M7.16895781,14.3154339 L10.0205332,14.3154339 C10.0053825,14.4320984 9.98287288,14.5507182 9.98287288,14.6749866 L9.98287288,17.1399323 L7.16895781,17.1399323 L7.16895781,14.3154339 Z M7.16895781,22.7889291 L9.98287288,22.7889291 L9.98287288,19.9644307 L7.16895781,19.9644307 L7.16895781,22.7889291 Z M7.16895781,31.262207 L23.6942427,31.262207 C25.4443633,31.262207 26.8663633,29.8348588 26.8663633,28.0781559 L26.8663633,14.6749866 C26.8663633,12.9180665 25.4443633,11.4909355 23.6942427,11.4909355 L7.16895781,11.4909355 L7.16895781,7.25407923 L72.9878619,7.25407923 C74.7100619,7.25407923 76.1093359,8.65905048 76.1093359,10.3875105 L76.1093359,57.7859003 C76.1093359,59.5145776 74.7100619,60.9193316 72.9878619,60.9193316 L7.16895781,60.9193316 L7.16895781,31.262207 Z M0.134278356,0.192941853 L0.134278356,67.980469 L9.98287288,67.980469 L9.98287288,63.74383 L72.9878619,63.74383 C76.2632236,63.74383 78.923251,61.0735808 78.923251,57.7859003 L78.923251,10.3875105 C78.923251,7.09983003 76.2632236,4.42979808 72.9878619,4.42979808 L9.98287288,4.42979808 L9.98287288,0.192941853 L0.134278356,0.192941853 Z" id="Fill-9"></path>
                    <path d="M32.4941285,17.1399105 C32.4941285,17.9194121 33.124397,18.5520511 33.9009778,18.5520511 L46.5634874,18.5520511 C47.3402847,18.5520511 47.9705532,17.9194121 47.9705532,17.1399105 C47.9705532,16.3604089 47.3402847,15.7275527 46.5634874,15.7275527 L33.9009778,15.7275527 C33.124397,15.7275527 32.4941285,16.3604089 32.4941285,17.1399105" id="Fill-11"></path>
                    <path d="M50.7844466,17.1399105 C50.7844466,17.9194121 51.4147151,18.5520511 52.1912959,18.5520511 L64.8540219,18.5520511 C65.6306027,18.5520511 66.2608712,17.9194121 66.2608712,17.1399105 C66.2608712,16.3604089 65.6306027,15.7275527 64.8540219,15.7275527 L52.1912959,15.7275527 C51.4147151,15.7275527 50.7844466,16.3604089 50.7844466,17.1399105" id="Fill-13"></path>
                    <path d="M32.4941285,24.2010262 C32.4941285,24.9805278 33.124397,25.6131668 33.9009778,25.6131668 L35.3080436,25.6131668 C36.0846244,25.6131668 36.7148929,24.9805278 36.7148929,24.2010262 C36.7148929,23.4215246 36.0846244,22.7888856 35.3080436,22.7888856 L33.9009778,22.7888856 C33.124397,22.7888856 32.4941285,23.4215246 32.4941285,24.2010262" id="Fill-15"></path>
                    <path d="M39.5288079,24.2010262 C39.5288079,24.9805278 40.1590764,25.6131668 40.9356573,25.6131668 L43.7495723,25.6131668 C44.5263696,25.6131668 45.1566381,24.9805278 45.1566381,24.2010262 C45.1566381,23.4215246 44.5263696,22.7888856 43.7495723,22.7888856 L40.9356573,22.7888856 C40.1590764,22.7888856 39.5288079,23.4215246 39.5288079,24.2010262" id="Fill-17"></path>
                    <path d="M47.9705315,24.2010262 C47.9705315,24.9805278 48.6008,25.6131668 49.3773808,25.6131668 L50.7844466,25.6131668 C51.5610274,25.6131668 52.1912959,24.9805278 52.1912959,24.2010262 C52.1912959,23.4215246 51.5610274,22.7888856 50.7844466,22.7888856 L49.3773808,22.7888856 C48.6008,22.7888856 47.9705315,23.4215246 47.9705315,24.2010262" id="Fill-19"></path>
                    <path d="M55.005211,24.2010262 C55.005211,24.9805278 55.6354795,25.6131668 56.4122767,25.6131668 L59.2259753,25.6131668 C60.0027726,25.6131668 60.6330411,24.9805278 60.6330411,24.2010262 C60.6330411,23.4215246 60.0027726,22.7888856 59.2259753,22.7888856 L56.4122767,22.7888856 C55.6354795,22.7888856 55.005211,23.4215246 55.005211,24.2010262" id="Fill-21"></path>
                    <path d="M63.8578211,25.2009304 C64.1203608,25.4588089 64.4880896,25.6130581 64.8540868,25.6130581 C65.2345855,25.6130581 65.58738,25.4588089 65.8499197,25.2009304 C66.1070485,24.9371859 66.2609362,24.5682914 66.2609362,24.2009176 C66.2609362,23.8339783 66.1070485,23.4648665 65.8499197,23.201122 C65.58738,22.9430262 65.2345855,22.788777 64.8540868,22.788777 C64.4880896,22.788777 64.1203608,22.9430262 63.8578211,23.201122 C63.3362047,23.7379527 63.3230019,24.6491093 63.8578211,25.2009304" id="Fill-23"></path>
                </g>
            </g>
        </g>
    </g>
</svg>