<?xml version="1.0" encoding="UTF-8"?>
<svg width="76px" height="79px" viewBox="0 0 76 79" version="1.1" xmlns="http://www.w3.org/2000/svg" xmlns:xlink="http://www.w3.org/1999/xlink">
    <!-- Generator: Sketch 53.2 (72643) - https://sketchapp.com -->
    <title>Icon-Cryptocurrency</title>
    <desc>Created with Sketch.</desc>
    <g id="Page-1" stroke="none" stroke-width="1" fill="none" fill-rule="evenodd">
        <g id="Home-Page" transform="translate(-986.000000, -1807.000000)">
            <g id="Icon-Cryptocurrency" transform="translate(986.000000, 1807.000000)">
                <path d="M49.4221076,15.887787 C51.2321197,15.887787 52.471106,16.5616527 52.471106,18.6603683 C52.471106,20.811672 51.5046721,21.6922026 49.496956,21.6922026 L46.3982633,21.6922026 L46.3982633,15.887787 L49.4221076,15.887787 Z M52.9174355,26.9009935 L52.9174355,27.3414191 C52.9174355,29.8032814 51.7275301,30.8911183 49.7445079,30.8911183 L46.3976498,30.8911183 L46.3976498,23.5060124 L49.7445079,23.5060124 C51.7281437,23.5060124 52.9174355,24.4128371 52.9174355,26.9009935 L52.9174355,26.9009935 Z M47.6366361,10 C46.994443,10 46.4743387,10.5443193 46.4743387,11.2156197 L46.4743387,13.9181369 L45.2575922,13.9181369 C45.252224,13.9181369 45.2473159,13.9187782 45.2419477,13.9187782 L43.1629109,13.9187782 C42.5207178,13.9187782 42,14.4629371 42,15.1337565 C42,15.8044156 42.5207178,16.3493762 43.1629109,16.3493762 L44.3156988,16.3493762 L44.3156988,30.4320944 L43.1635244,30.4320944 C42.5213313,30.4320944 42.0006135,30.9762534 42.0006135,31.6470728 C42.0006135,32.3183732 42.5213313,32.8620512 43.1635244,32.8620512 C45.3270724,32.8620512 46.0477949,32.8607685 46.4743387,32.8607685 L46.4743387,35.7850216 C46.4743387,36.456322 46.994443,37 47.6366361,37 C48.2789825,37 48.7990868,36.456322 48.7990868,35.7850216 L48.7990868,32.8607685 L49.9230397,32.8607685 L49.9230397,35.7850216 C49.9230397,36.456322 50.4429906,37 51.0853371,37 C51.7269166,37 52.2470209,36.456322 52.2470209,35.7850216 L52.2470209,32.5922163 C52.2470209,32.559509 52.2451804,32.5276034 52.2428797,32.4956978 C53.8886241,31.8550204 55,30.3174587 55,27.4709655 C55,25.1093092 54.6297459,23.5198007 52.4465655,22.5990273 C53.7352462,22.0292156 54.5536704,20.5267662 54.5536704,18.3491684 C54.5536704,16.0461928 53.6232804,14.8825199 52.2470209,14.3390023 L52.2470209,11.2156197 C52.2470209,10.5443193 51.7269166,10 51.0853371,10 C50.4429906,10 49.9230397,10.5443193 49.9230397,11.2156197 L49.9230397,13.925031 C49.6449657,13.9162129 49.5695038,13.9181369 48.7990868,13.9181369 L48.7990868,11.2156197 C48.7990868,10.5443193 48.2789825,10 47.6366361,10 L47.6366361,10 Z" id="Fill-1" fill="#EC1C24"></path>
                <path d="M69.6965364,76.6569072 C35.5954947,76.6569072 37.7812517,76.6683475 37.5134832,76.6351089 C36.0508738,76.4630409 34.9142299,75.2322833 34.9142299,73.7448925 C34.9142299,72.25812 36.0508738,71.0273625 37.5134832,70.8552945 C37.7873695,70.8226743 35.6844371,70.8328777 69.6965364,70.8328777 C71.3258933,70.8328777 72.6512457,72.1390793 72.6512457,73.7448925 C72.6512457,75.3513241 71.3258933,76.6569072 69.6965364,76.6569072 L69.6965364,76.6569072 Z M33.4307575,76.6569072 L5.33231233,76.6569072 C3.702328,76.6569072 2.37760298,75.3513241 2.37760298,73.7448925 C2.37760298,72.1390793 3.702328,70.8328777 5.33231233,70.8328777 L33.4307575,70.8328777 C32.2370148,72.5968451 32.2388972,74.8947951 33.4307575,76.6569072 L33.4307575,76.6569072 Z M10.8837651,62.6669923 L28.5618244,62.6669923 C27.3699641,64.428486 27.3680817,66.7270545 28.5618244,68.4904034 L10.8837651,68.4904034 C9.25456508,68.4904034 7.92968319,67.182965 7.92968319,65.579007 C7.92968319,63.9731938 9.25456508,62.6669923 10.8837651,62.6669923 L10.8837651,62.6669923 Z M14.3078146,52.1476559 C12.6797126,52.1476559 11.3537327,50.8414544 11.3537327,49.2356412 C11.3537327,47.6987789 12.568809,46.4371017 14.1001253,46.3321294 L28.5568047,46.3321294 C27.3870624,48.0676506 27.3539638,50.3625087 28.5618244,52.1476559 L14.3078146,52.1476559 Z M7.82866213,43.988882 C6.19867779,43.988882 4.87395277,42.6832988 4.87395277,41.0787224 C4.87395277,39.4729093 6.19867779,38.1667077 7.82866213,38.1667077 L30.6329132,38.1667077 C32.6475305,40.5074815 35.2218422,42.5328746 38.2297288,43.9811521 C28.1285633,43.9811521 10.2514422,43.988882 7.82866213,43.988882 L7.82866213,43.988882 Z M3.7691525,32.9103634 C3.7691525,31.3051686 5.09450498,29.998967 6.72386185,29.998967 L26.081318,29.998967 C26.7277587,32.0546615 27.662831,34.0168239 28.8582993,35.8223781 L6.72386185,35.8223781 C5.09450498,35.8223781 3.7691525,34.5161766 3.7691525,32.9103634 L3.7691525,32.9103634 Z M25.4759759,27.6510817 L19.393692,27.6510817 C17.764492,27.6510817 16.4389826,26.345344 16.4389826,24.7396854 C16.4389826,23.1332538 17.764492,21.8278252 19.393692,21.8278252 L25.0635778,21.8278252 C24.9507919,23.770972 25.0886762,25.7233948 25.4759759,27.6510817 L25.4759759,27.6510817 Z M14.9017055,19.4796307 C13.2747016,19.4796307 11.9474667,18.1740476 11.9474667,16.567616 C11.9474667,14.9642764 13.2747016,13.6562196 14.9017055,13.6562196 L27.0855678,13.6562196 C26.2413203,15.5078442 25.6469588,17.4625859 25.320209,19.4796307 L14.9017055,19.4796307 Z M32.9998493,62.6669923 L64.8294857,62.6669923 C66.4586857,62.6669923 67.784195,63.9731938 67.784195,65.579007 C67.784195,67.182965 66.4586857,68.4904034 64.8294857,68.4904034 L32.9998493,68.4904034 C31.3700219,68.4904034 30.0452968,67.182965 30.0452968,65.579007 C30.0452968,63.9731938 31.3700219,62.6669923 32.9998493,62.6669923 L32.9998493,62.6669923 Z M34.4006539,60.3189524 L21.6530187,60.3189524 C20.0230344,60.3189524 18.6983094,59.011514 18.6983094,57.407556 C18.6983094,55.801279 20.0230344,54.4955413 21.6530187,54.4955413 L34.4006539,54.4955413 C33.2089504,56.257808 33.2089504,58.5568402 34.4006539,60.3189524 L34.4006539,60.3189524 Z M64.8294857,46.3242449 C66.4968039,46.3242449 67.8447449,47.6908944 67.7816852,49.3474158 C67.7216059,50.9235461 66.3570372,52.1476559 64.7571709,52.1476559 L63.8153534,52.1476559 C63.1577752,52.1476559 62.6247479,52.6729812 62.6247479,53.3216759 C62.6247479,53.9695976 63.1577752,54.4955413 63.8153534,54.4955413 L70.5953729,54.4955413 C72.1941411,54.4955413 73.5580824,55.7173321 73.6206715,57.2916072 C73.6862411,58.9481287 72.3368883,60.3189524 70.6683151,60.3189524 L38.8388356,60.3189524 C37.1702625,60.3189524 35.8210666,58.9481287 35.8860087,57.2916072 C35.9484409,55.7173321 37.3131665,54.4955413 38.9117779,54.4955413 L58.3158229,54.4955413 C58.9740285,54.4955413 59.5070558,53.9695976 59.5070558,53.3216759 C59.5070558,52.6729812 58.9740285,52.1476559 58.3158229,52.1476559 L33.0673013,52.1476559 C31.4876706,52.1476559 30.1359648,50.9536928 30.0495322,49.3993609 C29.9588642,47.7711309 31.2315101,46.4166947 32.8425137,46.3321294 C46.1851379,46.3321294 35.7162807,46.3242449 64.8294857,46.3242449 L64.8294857,46.3242449 Z M69.6965364,68.4904034 L69.2657851,68.4904034 C70.4593709,66.731847 70.4625082,64.4321964 69.2645301,62.6621997 L70.6683151,62.6621997 C73.6082792,62.6621997 76,60.3050385 76,57.407556 C76,54.5094551 73.6082792,52.1524485 70.6683151,52.1524485 L69.2645301,52.1524485 C71.6206426,48.6704296 69.0800569,43.9811521 64.8294857,43.9811521 L58.8237518,43.9811521 C68.5887557,39.3014597 73.8369884,28.6680297 71.5040919,18.169255 C71.3625997,17.5363293 70.7283944,17.1365379 70.0880714,17.2753673 C69.4466504,17.4131144 69.0408406,18.0381556 69.1818623,18.6710813 C70.646354,25.2643922 68.8215433,32.1778764 64.1082203,37.2374169 C55.1975034,46.8036544 39.6942206,46.0476684 31.7683021,35.8242333 C31.7664197,35.8242333 31.7664197,35.8223781 31.7664197,35.8223781 C30.3957333,34.057174 29.3221491,32.0891369 28.5837855,29.998967 C28.5825306,29.9972665 28.5808051,29.9960297 28.5825306,29.9941745 C27.618752,27.2729341 27.2664332,24.4473399 27.4471417,21.8278252 C27.4452593,21.8258155 27.4452593,21.8245787 27.4471417,21.8228781 C27.4709851,21.4538518 27.6518505,19.5600219 27.7320085,19.4796307 C30.6487565,3.29024487 50.6165744,-3.24694686 62.8318097,7.80621761 C64.9281538,9.70128433 66.584962,11.9441974 67.7584692,14.4703346 C68.0311006,15.0591998 68.7357382,15.3164514 69.3343351,15.0482233 C69.9299515,14.7795313 70.1928573,14.0844571 69.9202259,13.4949735 C62.0352492,-3.47992659 37.9748232,-4.70171744 28.3227621,11.3131269 L14.9017055,11.3131269 C11.963467,11.3131269 9.57002062,13.6707519 9.57002062,16.567616 C9.57002062,19.4657169 11.963467,21.8228781 14.9017055,21.8228781 L14.959275,21.8228781 C14.3929923,22.6592552 14.062164,23.6610526 14.062164,24.7396854 C14.062164,25.8169268 14.3929923,26.8201155 14.959275,27.6552559 L6.72386185,27.6552559 C3.78327035,27.6552559 1.39217698,30.0128809 1.39217698,32.9103634 C1.39217698,34.8272285 2.43940779,36.5084857 3.99895974,37.4269545 C3.06875022,38.3732511 2.49634979,39.6601279 2.49634979,41.0787224 C2.49634979,43.9751227 4.88807062,46.3321294 7.82866213,46.3321294 L9.86476998,46.3321294 C7.52418714,49.8062638 10.0584983,54.4907487 14.3078146,54.4907487 L17.2178174,54.4907487 C16.0309767,56.2451309 16.011996,58.5429264 17.2178174,60.3238995 L10.8837651,60.3238995 C6.62707614,60.3238995 4.09574545,65.0209069 6.4474657,68.4904034 L5.33231233,68.4904034 C2.39172083,68.4904034 0,70.84741 0,73.7448925 C0,76.6429934 2.39172083,79 5.33231233,79 L69.6965364,79 C72.6371279,79 75.0286918,76.6429934 75.0286918,73.7448925 C75.0286918,70.84741 72.6371279,68.4904034 69.6965364,68.4904034 L69.6965364,68.4904034 Z" id="Fill-3" fill="#000000"></path>
                <path d="M34.4243087,17.2054511 C33.790669,16.995997 33.1066316,17.34083 32.8973854,17.9749397 C29.4459389,28.4454116 36.3349565,39.2595991 46.9757337,40.8073566 C61.967461,42.9881063 72.4843172,26.1955357 63.9342481,13.6408993 C57.1168398,3.63068366 42.3351562,3.37557107 35.2360948,13.351463 C34.8491807,13.8953733 34.9758129,14.6511324 35.5195023,15.0390695 C36.0627132,15.4262085 36.8178815,15.2996101 37.2054336,14.7545823 C43.3343388,6.14253688 56.0696517,6.39014616 61.9369991,15.0041073 C69.2764066,25.7814168 60.2673354,40.2940982 47.3234142,38.4120442 C38.1535807,37.0780512 32.2176541,27.760056 35.1930335,18.7332531 C35.4024392,18.0991434 35.0579484,17.4149053 34.4243087,17.2054511" id="Fill-5" fill="#000000"></path>
            </g>
        </g>
    </g>
</svg>