<?xml version="1.0" encoding="UTF-8"?>
<svg width="278px" height="87px" viewBox="0 0 278 87" version="1.1" xmlns="http://www.w3.org/2000/svg" xmlns:xlink="http://www.w3.org/1999/xlink">
    <!-- Generator: Sketch 53.2 (72643) - https://sketchapp.com -->
    <title>Group 33</title>
    <desc>Created with Sketch.</desc>
    <g id="Web-Pages" stroke="none" stroke-width="1" fill="none" fill-rule="evenodd">
        <g id="CD-Page" transform="translate(-915.000000, -1496.000000)">
            <g id="Group-33" transform="translate(917.000000, 1498.000000)">
                <path d="M49.3074565,0 L62.3869266,0 C65.9582757,0 68.8519971,2.86749176 68.8519971,6.40215989 L68.8519971,20.8154059 C68.8519971,24.3513165 71.7482282,27.2175658 75.3195773,27.2175658 L83.6318109,27.2175658 C86.0436636,27.2175658 88,29.1544894 88,31.5436517 L88,55.9620586 C88,58.3512209 86.0436636,60.2869021 83.6318109,60.2869021 L23.5011337,60.2869021 C19.9297845,60.2869021 17.0348083,63.1531514 17.0348083,66.689062 L17.0348083,71.5990825 C17.0348083,75.1349931 14.139832,78 10.5684829,78 L0,78" id="Stroke-1" stroke="#282525" stroke-width="2.7" stroke-linecap="round" stroke-linejoin="round"></path>
                <path d="M110,41.5 L25,41.5" id="Stroke-3" stroke="#282525" stroke-width="2.7" stroke-linecap="round" stroke-linejoin="round"></path>
                <path d="M64,15.500616 C64,16.3285421 63.3655413,17 62.5832363,17 L60.4167637,17 C59.6344587,17 59,16.3285421 59,15.500616 C59,14.6714579 59.6344587,14 60.4167637,14 L62.5832363,14 C63.3655413,14 64,14.6714579 64,15.500616" id="Fill-5" fill="#EC1C24"></path>
                <path d="M36.8275401,56 L29.6832506,56 C27.6498281,56 26,54.4334344 26,52.5 C26,50.5677452 27.6498281,49 29.6832506,49 L36.8275401,49 C38.0279794,49 39,49.9248399 39,51.0643748 L39,53.9356252 C39,55.0763397 38.0279794,56 36.8275401,56" id="Fill-7" fill="#EC1C24"></path>
                <path d="M64,73 L60.4167637,73 C59.6344587,73 59,72.3282662 59,71.5 C59,70.6705012 59.6344587,70 60.4167637,70 L64,70 L64,73 Z" id="Fill-9" fill="#C2FBBC"></path>
                <path d="M7,53 L3.41676368,53 C2.63329453,53 2,52.3294988 2,51.5 C2,50.6717338 2.63329453,50 3.41676368,50 L7,50 L7,53 Z" id="Fill-11" fill="#C2FBBC"></path>
                <path d="M224.692544,83 L211.613073,83 C208.041724,83 205.148003,80.1337507 205.148003,76.5990825 L205.148003,62.1845941 C205.148003,58.6486835 202.251772,55.7836766 198.680423,55.7836766 L190.368189,55.7836766 C187.956336,55.7836766 186,53.8455106 186,51.4563483 L186,27.0379414 C186,24.6487791 187.956336,22.7130979 190.368189,22.7130979 L250.498866,22.7130979 C254.070215,22.7130979 256.965192,19.8468486 256.965192,16.310938 L256.965192,11.4009175 C256.965192,7.86500693 259.860168,5 263.431517,5 L274,5" id="Stroke-13" stroke="#282525" stroke-width="2.7" stroke-linecap="round" stroke-linejoin="round"></path>
                <path d="M164,41.5 L249,41.5" id="Stroke-15" stroke="#282525" stroke-width="2.7" stroke-linecap="round" stroke-linejoin="round"></path>
                <path d="M210,67.5 C210,66.6705012 210.634459,66 211.416764,66 L213.583236,66 C214.365541,66 215,66.6705012 215,67.5 C215,68.3282662 214.365541,69 213.583236,69 L211.416764,69 C210.634459,69 210,68.3282662 210,67.5" id="Fill-17" fill="#EC1C24"></path>
                <path d="M237.172667,26 L244.316398,26 C246.351256,26 248,27.5665656 248,29.5 C248,31.4322548 246.351256,33 244.316398,33 L237.172667,33 C235.972113,33 235,32.0751601 235,30.9356252 L235,28.0643748 C235,26.9236603 235.972113,26 237.172667,26" id="Fill-19" fill="#EC1C24"></path>
                <path d="M210,9 L213.583236,9 C214.365541,9 215,9.67145791 215,10.500616 C215,11.3285421 214.365541,12 213.583236,12 L210,12 L210,9 Z" id="Fill-21" fill="#C2FBBC"></path>
                <path d="M267,30 L270.583236,30 C271.365541,30 272,30.6717338 272,31.5 C272,32.3282662 271.365541,33 270.583236,33 L267,33 L267,30 Z" id="Fill-23" fill="#C2FBBC"></path>
                <path d="M156,41.5 C156,52.2707809 147.269803,61 136.50063,61 C125.731456,61 117,52.2707809 117,41.5 C117,30.7304786 125.731456,22 136.50063,22 C147.269803,22 156,30.7304786 156,41.5" id="Fill-25" fill="#EC1C24"></path>
                <path d="M163,41.5 C163,56.1368618 151.135604,68 136.5,68 C121.864396,68 110,56.1368618 110,41.5 C110,26.8643955 121.864396,15 136.5,15 C151.135604,15 163,26.8643955 163,41.5 Z" id="Stroke-27" stroke="#282525" stroke-width="2.7" stroke-linecap="round" stroke-linejoin="round"></path>
                <path d="M136.5,30 L136.5,43" id="Stroke-29" stroke="#000000" stroke-width="2.7" stroke-linecap="round" stroke-linejoin="round"></path>
                <path d="M136.5,49 L136.5,53" id="Stroke-31" stroke="#000000" stroke-width="2.7" stroke-linecap="round" stroke-linejoin="round"></path>
            </g>
        </g>
    </g>
</svg>