<?xml version="1.0" encoding="UTF-8"?>
<svg width="281px" height="214px" viewBox="0 0 281 214" version="1.1" xmlns="http://www.w3.org/2000/svg" xmlns:xlink="http://www.w3.org/1999/xlink">
    <!-- Generator: Sketch 53.2 (72643) - https://sketchapp.com -->
    <title>Group 118</title>
    <desc>Created with Sketch.</desc>
    <defs>
        <polygon id="path-1" points="0 0.00541762935 6.51685803 0.00541762935 6.51685803 6.51255813 0 6.51255813"></polygon>
    </defs>
    <g id="Web-Pages" stroke="none" stroke-width="1" fill="none" fill-rule="evenodd">
        <g id="CD-Page" transform="translate(-324.000000, -1921.000000)">
            <g id="Group-118" transform="translate(324.000000, 1921.000000)">
                <polyline id="Stroke-1" stroke="#000000" stroke-linecap="round" stroke-linejoin="round" points="171 72 171.170195 51.4946908 185 27"></polyline>
                <g id="Group-117">
                    <path d="M185.075874,23.017227 C186.876298,23.017227 188.334679,24.4732654 188.334679,26.2707972 C188.334679,28.0664528 186.876298,29.5243675 185.075874,29.5243675 C183.27545,29.5243675 181.817069,28.0664528 181.817069,26.2707972 C181.817069,24.4732654 183.27545,23.017227 185.075874,23.017227" id="Fill-2" fill="#000000"></path>
                    <polyline id="Stroke-4" stroke="#000000" stroke-width="1.5" stroke-linecap="round" stroke-linejoin="round" points="155.322647 72.6521862 155.322647 56.8703065 162.670933 45.4621709 162.670933 8.38760653"></polyline>
                    <path d="M162.750241,2.84659252 C164.550665,2.84659252 166.007167,4.30263088 166.007167,6.10016277 C166.007167,7.89581832 164.550665,9.35373302 162.750241,9.35373302 C160.949817,9.35373302 159.491437,7.89581832 159.491437,6.10016277 C159.491437,4.30263088 160.949817,2.84659252 162.750241,2.84659252" id="Fill-6" fill="#000000"></path>
                    <polyline id="Stroke-8" stroke="#000000" stroke-width="1.5" stroke-linecap="round" stroke-linejoin="round" points="146.468245 73.1250233 146.468245 61.7187641 137.898377 54.303476 137.898377 32.0576116"></polyline>
                    <path d="M137.827713,27.2463054 C139.628137,27.2463054 141.086518,28.7023438 141.086518,30.4998757 C141.086518,32.2955312 139.628137,33.7534459 137.827713,33.7534459 C136.02729,33.7534459 134.568909,32.2955312 134.568909,30.4998757 C134.568909,28.7023438 136.02729,27.2463054 137.827713,27.2463054" id="Fill-10" fill="#000000"></path>
                    <polyline id="Stroke-12" stroke="#000000" stroke-width="1.5" stroke-linecap="round" stroke-linejoin="round" points="127.197507 87.6702086 106.763259 87.6702086 88.4808752 72.8415087 88.4808752 51.166051"></polyline>
                    <path d="M88.297262,45.1392531 C90.097686,45.1392531 91.5560669,46.5952914 91.5560669,48.3928233 C91.5560669,50.1903552 90.097686,51.6463936 88.297262,51.6463936 C86.4968381,51.6463936 85.0403365,50.1903552 85.0403365,48.3928233 C85.0403365,46.5952914 86.4968381,45.1392531 88.297262,45.1392531" id="Fill-14" fill="#000000"></path>
                    <polyline id="Stroke-16" stroke="#000000" stroke-linecap="round" stroke-linejoin="round" points="127.901326 107.632007 92.4810864 107.632007 80.4851512 113.908358 62.7740917 113.908358"></polyline>
                    <path d="M60.5996757,110.530761 C62.4000997,110.530761 63.8584806,111.9868 63.8584806,113.784332 C63.8584806,115.579987 62.4000997,117.037902 60.5996757,117.037902 C58.7992518,117.037902 57.3427502,115.579987 57.3427502,113.784332 C57.3427502,111.9868 58.7992518,110.530761 60.5996757,110.530761" id="Fill-18" fill="#000000"></path>
                    <polyline id="Stroke-20" stroke="#000000" stroke-width="1.5" stroke-linecap="round" stroke-linejoin="round" points="127.329626 114.477639 117.045785 114.477639 105.621174 124.744961 81.0542205 124.744961"></polyline>
                    <path d="M78.8480434,120.942186 C80.6484673,120.942186 82.1068483,122.398225 82.1068483,124.19388 C82.1068483,125.991412 80.6484673,127.449327 78.8480434,127.449327 C77.0476195,127.449327 75.5892385,125.991412 75.5892385,124.19388 C75.5892385,122.398225 77.0476195,120.942186 78.8480434,120.942186" id="Fill-22" fill="#000000"></path>
                    <polyline id="Stroke-24" stroke="#000000" stroke-width="1.5" stroke-linecap="round" stroke-linejoin="round" points="142.564633 131.397705 142.587185 152.909921 132.81077 166.151239"></polyline>
                    <path d="M131.962053,165.43748 C133.762477,165.43748 135.220858,166.893518 135.220858,168.689174 C135.220858,170.486706 133.762477,171.944621 131.962053,171.944621 C130.161629,171.944621 128.703248,170.486706 128.703248,168.689174 C128.703248,166.893518 130.161629,165.43748 131.962053,165.43748" id="Fill-26" fill="#000000"></path>
                    <polyline id="Stroke-28" stroke="#000000" stroke-width="1.5" stroke-linecap="round" stroke-linejoin="round" points="146.182019 205.74216 146.182019 193.195088 158.179833 179.505325 158.179833 132.210347"></polyline>
                    <path d="M145.973598,205.128223 C147.774022,205.128223 149.232403,206.584261 149.232403,208.379916 C149.232403,210.177448 147.774022,211.635363 145.973598,211.635363 C144.173174,211.635363 142.714793,210.177448 142.714793,208.379916 C142.714793,206.584261 144.173174,205.128223 145.973598,205.128223" id="Fill-30" fill="#000000"></path>
                    <polyline id="Stroke-32" stroke="#000000" stroke-width="1.5" stroke-linecap="round" stroke-linejoin="round" points="165.035164 131.397705 165.035164 151.557081 176.461654 162.963341 189.028913 162.963341"></polyline>
                    <path d="M191.267227,160.231768 C193.067651,160.231768 194.526032,161.687806 194.526032,163.485338 C194.526032,165.280993 193.067651,166.738908 191.267227,166.738908 C189.466803,166.738908 188.008422,165.280993 188.008422,163.485338 C188.008422,161.687806 189.466803,160.231768 191.267227,160.231768" id="Fill-34" fill="#000000"></path>
                    <polyline id="Stroke-36" stroke="#000000" stroke-linecap="round" stroke-linejoin="round" points="205.320307 159.953319 205.320307 139.795819 193.893817 128.387683 181.326557 128.387683"></polyline>
                    <path d="M204.675123,164.647729 C202.874699,164.647729 201.416318,163.191691 201.416318,161.396035 C201.416318,159.598504 202.874699,158.140589 204.675123,158.140589 C206.475547,158.140589 207.933928,159.598504 207.933928,161.396035 C207.933928,163.191691 206.475547,164.647729 204.675123,164.647729" id="Fill-38" fill="#000000"></path>
                    <polyline id="Stroke-40" stroke="#000000" stroke-width="1.5" stroke-linecap="round" stroke-linejoin="round" points="263.61232 154.170257 243.420509 154.170257 231.995899 165.578393 231.995899 178.127342"></polyline>
                    <path d="M268.315411,154.815342 C268.315411,156.612874 266.85703,158.067036 265.056606,158.067036 C263.258061,158.067036 261.797801,156.612874 261.797801,154.815342 C261.797801,153.017811 263.258061,151.563649 265.056606,151.563649 C266.85703,151.563649 268.315411,153.017811 268.315411,154.815342" id="Fill-42" fill="#000000"></path>
                    <path d="M235.467071,180.098248 C235.467071,181.893903 234.00869,183.349942 232.208266,183.349942 C230.409721,183.349942 228.949461,181.893903 228.949461,180.098248 C228.949461,178.300716 230.409721,176.844677 232.208266,176.844677 C234.00869,176.844677 235.467071,178.300716 235.467071,180.098248" id="Fill-44" fill="#000000"></path>
                    <polyline id="Stroke-46" stroke="#000000" stroke-width="1.5" stroke-linecap="round" stroke-linejoin="round" points="60.6968385 150.520217 40.5050278 150.520217 29.0804171 161.928353 29.0804171 174.477302"></polyline>
                    <path d="M65.3989895,151.165302 C65.3989895,152.960958 63.9406085,154.416996 62.1401846,154.416996 C60.34164,154.416996 58.8832591,152.960958 58.8832591,151.165302 C58.8832591,149.36777 60.34164,147.911732 62.1401846,147.911732 C63.9406085,147.911732 65.3989895,149.36777 65.3989895,151.165302" id="Fill-48" fill="#000000"></path>
                    <path d="M32.5515894,176.448207 C32.5515894,178.243863 31.0932084,179.699901 29.2927845,179.699901 C27.4942399,179.699901 26.0339796,178.243863 26.0339796,176.448207 C26.0339796,174.650675 27.4942399,173.194637 29.2927845,173.194637 C31.0932084,173.194637 32.5515894,174.650675 32.5515894,176.448207" id="Fill-50" fill="#000000"></path>
                    <path d="M190.465306,201.58457 C192.26573,201.58457 193.724111,203.040609 193.724111,204.836264 C193.724111,206.633796 192.26573,208.091711 190.465306,208.091711 C188.664882,208.091711 187.206501,206.633796 187.206501,204.836264 C187.206501,203.040609 188.664882,201.58457 190.465306,201.58457" id="Fill-52" fill="#000000"></path>
                    <g id="Group-56" transform="translate(0.000000, 102.224799)">
                        <mask id="mask-2" fill="white">
                            <use xlink:href="#path-1"></use>
                        </mask>
                        <g id="Clip-55"></g>
                        <path d="M3.25805314,0.00541762935 C5.05847707,0.00541762935 6.51685803,1.46145599 6.51685803,3.25898788 C6.51685803,5.05464343 5.05847707,6.51255813 3.25805314,6.51255813 C1.45762922,6.51255813 -0.000751742765,5.05464343 -0.000751742765,3.25898788 C-0.000751742765,1.46145599 1.45762922,0.00541762935 3.25805314,0.00541762935" id="Fill-54" fill="#000000" mask="url(#mask-2)"></path>
                    </g>
                    <path d="M53.5648669,49.8100215 C55.3652909,49.8100215 56.8236718,51.2641835 56.8236718,53.0617154 C56.8236718,54.8592473 55.3652909,56.3152857 53.5648669,56.3152857 C51.764443,56.3152857 50.306062,54.8592473 50.306062,53.0617154 C50.306062,51.2641835 51.764443,49.8100215 53.5648669,49.8100215" id="Fill-57" fill="#000000"></path>
                    <polyline id="Stroke-59" stroke="#000000" stroke-width="1.5" stroke-linecap="round" stroke-linejoin="round" points="253.35385 64.780385 240.786591 64.780385 211.600178 35.3518983"></polyline>
                    <path d="M210.575552,31.0723464 C212.375976,31.0723464 213.834357,32.5283848 213.834357,34.3240403 C213.834357,36.1215722 212.375976,37.5794869 210.575552,37.5794869 C208.775128,37.5794869 207.316747,36.1215722 207.316747,34.3240403 C207.316747,32.5283848 208.775128,31.0723464 210.575552,31.0723464" id="Fill-61" fill="#000000"></path>
                    <path d="M255.328678,61.3153514 C257.129102,61.3153514 258.587483,62.7713898 258.587483,64.5670453 C258.587483,66.3645772 257.129102,67.8224919 255.328678,67.8224919 C253.528255,67.8224919 252.069874,66.3645772 252.069874,64.5670453 C252.069874,62.7713898 253.528255,61.3153514 255.328678,61.3153514" id="Fill-63" fill="#000000"></path>
                    <polyline id="Stroke-65" stroke="#000000" stroke-width="1.5" stroke-linecap="round" stroke-linejoin="round" points="34.9887394 116.903744 34.9887394 141.541939 23.4889544 152.04568"></polyline>
                    <path d="M19.2023293,153.069035 C19.2023293,151.271503 20.6607102,149.815464 22.4611341,149.815464 C24.2596787,149.815464 25.719939,151.271503 25.719939,153.069035 C25.719939,154.86469 24.2596787,156.320729 22.4611341,156.320729 C20.6607102,156.320729 19.2023293,154.86469 19.2023293,153.069035" id="Fill-67" fill="#000000"></path>
                    <path d="M31.5173792,114.932088 C31.5173792,113.136432 32.9757602,111.680394 34.7761841,111.680394 C36.5747287,111.680394 38.034989,113.136432 38.034989,114.932088 C38.034989,116.72962 36.5747287,118.185658 34.7761841,118.185658 C32.9757602,118.185658 31.5173792,116.72962 31.5173792,114.932088" id="Fill-69" fill="#000000"></path>
                    <polyline id="Stroke-71" stroke="#000000" stroke-width="1.5" stroke-linecap="round" stroke-linejoin="round" points="118.608282 61.6121881 109.720803 52.7389853 109.925653 11.3263273"></polyline>
                    <path d="M112.232376,7.57590268 C113.5047,8.8480599 113.5047,10.9064028 112.232376,12.1766837 C110.960051,13.4469646 108.896517,13.4469646 107.624193,12.1766837 C106.351868,10.9064028 106.351868,8.8480599 107.624193,7.57590268 C108.896517,6.30562179 110.960051,6.30562179 112.232376,7.57590268" id="Fill-73" fill="#000000"></path>
                    <path d="M122.458709,60.5548716 C123.731033,61.8270288 123.731033,63.8853717 122.458709,65.1556526 C121.186384,66.4278098 119.12285,66.4278098 117.850525,65.1556526 C116.578201,63.8853717 116.578201,61.8270288 117.850525,60.5548716 C119.12285,59.2845907 121.186384,59.2845907 122.458709,60.5548716" id="Fill-75" fill="#000000"></path>
                    <polyline id="Stroke-77" stroke="#000000" stroke-width="1.5" stroke-linecap="round" stroke-linejoin="round" points="189.023651 114.477639 201.59279 114.477639 215.302699 126.456181 263.863402 126.456181"></polyline>
                    <path d="M265.235708,123.870399 C267.036132,123.870399 268.494513,125.326438 268.494513,127.122093 C268.494513,128.919625 267.036132,130.37754 265.235708,130.37754 C263.435285,130.37754 261.978783,128.919625 261.978783,127.122093 C261.978783,125.326438 263.435285,123.870399 265.235708,123.870399" id="Fill-79" fill="#000000"></path>
                    <polyline id="Stroke-81" stroke="#000000" stroke-width="1.5" stroke-linecap="round" stroke-linejoin="round" points="188.833648 104.211067 200.260138 104.211067 207.685477 95.6549653 247.262854 95.6549653"></polyline>
                    <path d="M249.485006,92.6378137 C251.28543,92.6378137 252.743811,94.0938521 252.743811,95.8913839 C252.743811,97.6870395 251.28543,99.1449542 249.485006,99.1449542 C247.684582,99.1449542 246.226201,97.6870395 246.226201,95.8913839 C246.226201,94.0938521 247.684582,92.6378137 249.485006,92.6378137" id="Fill-83" fill="#000000"></path>
                    <polyline id="Stroke-85" stroke="#000000" stroke-width="1.5" stroke-linecap="round" stroke-linejoin="round" points="222.895113 77.0077298 211.468623 77.0077298 204.041404 85.5657078 189.023463 85.5657078"></polyline>
                    <path d="M225.115949,74.0174097 C226.916373,74.0174097 228.374754,75.4734481 228.374754,77.2691037 C228.374754,79.0666355 226.916373,80.5245502 225.115949,80.5245502 C223.315525,80.5245502 221.857144,79.0666355 221.857144,77.2691037 C221.857144,75.4734481 223.315525,74.0174097 225.115949,74.0174097" id="Fill-87" fill="#000000"></path>
                    <path d="M127.161799,97.9607972 L120.58405,97.9607972" id="Stroke-89" stroke="#E40000" stroke-width="1.5" stroke-linecap="round" stroke-linejoin="round"></path>
                    <path d="M106.858543,97.9607972 L46.2680758,97.9607972 L35.0144866,88.2132208" id="Stroke-91" stroke="#E40000" stroke-width="1.5" stroke-linecap="round" stroke-linejoin="round" stroke-dasharray="7.303,7.303"></path>
                    <path d="M29.8315961,83.7233314 L24.8625764,79.4190118" id="Stroke-93" stroke="#E40000" stroke-width="1.5" stroke-linecap="round" stroke-linejoin="round"></path>
                    <path d="M133.740488,126.246969 L128.634275,130.386171" id="Stroke-95" stroke="#000000" stroke-width="1.5" stroke-linecap="round" stroke-linejoin="round"></path>
                    <path d="M122.176993,135.623218 L112.490787,143.479446" id="Stroke-97" stroke="#000000" stroke-width="1.5" stroke-linecap="round" stroke-linejoin="round" stroke-dasharray="4.427,4.427"></path>
                    <polyline id="Stroke-99" stroke="#000000" stroke-width="1.5" stroke-linecap="round" stroke-linejoin="round" points="109.261864 146.096938 104.155652 150.236139 104.155652 156.803323"></polyline>
                    <path d="M104.156027,167.476872 L104.156027,197.691544 L108.655208,203.241752" id="Stroke-101" stroke="#000000" stroke-width="1.5" stroke-linecap="round" stroke-linejoin="round" stroke-dasharray="5.688,5.688"></path>
                    <path d="M112.015874,207.389398 L116.154218,212.49679" id="Stroke-103" stroke="#000000" stroke-width="1.5" stroke-linecap="round" stroke-linejoin="round"></path>
                    <path d="M270.7426,153.787297 L280.287854,147.8318 L280.287854,132.687875 L270.911742,128.092723" id="Stroke-105" stroke="#E40000" stroke-linecap="round" stroke-linejoin="round" stroke-dasharray="4"></path>
                    <path d="M62.1403725,151.165302 L79.6860487,124.511919" id="Stroke-107" stroke="#000000" stroke-width="1.5" stroke-linecap="round" stroke-linejoin="round" stroke-dasharray="7"></path>
                    <path d="M138.184603,28.9211248 L138.184603,0.843601606" id="Stroke-109" stroke="#000000" stroke-width="1.5" stroke-linecap="round" stroke-linejoin="round" stroke-dasharray="7"></path>
                    <path d="M149.991099,131.969425 L149.991099,172.503957" id="Stroke-111" stroke="#000000" stroke-width="1.5" stroke-linecap="round" stroke-linejoin="round" stroke-dasharray="7"></path>
                    <polygon id="Stroke-113" stroke="#000000" stroke-width="1.5" stroke-linecap="round" stroke-linejoin="round" points="128.079489 83.8351612 128.079489 120.534458 138.767392 131.203316 177.974536 131.203316 188.662439 120.534458 188.662439 83.8351612 177.974536 73.1644264 138.767392 73.1644264"></polygon>
                    <polygon id="Stroke-115" stroke="#000000" stroke-linecap="round" stroke-linejoin="round" points="136.849508 89.1470743 136.849508 115.220668 144.44211 122.802951 172.299818 122.802951 179.89242 115.220668 179.89242 89.1470743 172.299818 81.5666684 144.44211 81.5666684"></polygon>
                </g>
            </g>
        </g>
    </g>
</svg>