<?xml version="1.0" encoding="UTF-8"?>
<svg width="106px" height="106px" viewBox="0 0 106 106" version="1.1" xmlns="http://www.w3.org/2000/svg" xmlns:xlink="http://www.w3.org/1999/xlink">
    <!-- Generator: Sketch 53.2 (72643) - https://sketchapp.com -->
    <title>Group 41</title>
    <desc>Created with Sketch.</desc>
    <g id="Web-Pages" stroke="none" stroke-width="1" fill="none" fill-rule="evenodd">
        <g id="CD-Page" transform="translate(-327.000000, -1484.000000)">
            <g id="Group-41" transform="translate(328.000000, 1485.000000)">
                <path d="M77,51.5 C77,65.5838558 65.5832475,77 51.4996082,77 C37.4167525,77 26,65.5838558 26,51.5 C26,37.4161442 37.4167525,26 51.4996082,26 C65.5832475,26 77,37.4161442 77,51.5 Z" id="Stroke-1" stroke="#EC1C24" stroke-width="2" stroke-linecap="round" stroke-linejoin="round"></path>
                <path d="M51.5,26 L51.5,15" id="Stroke-3" stroke="#EC1C24" stroke-width="2" stroke-linecap="round" stroke-linejoin="round"></path>
                <path d="M59,7.5 C59,11.6419098 55.6419098,15 51.5,15 C47.3580902,15 44,11.6419098 44,7.5 C44,3.35809019 47.3580902,0 51.5,0 C55.6419098,0 59,3.35809019 59,7.5 Z" id="Stroke-5" stroke="#EC1C24" stroke-width="2" stroke-linecap="round" stroke-linejoin="round"></path>
                <path d="M77,51.5 L88,51.5" id="Stroke-7" stroke="#EC1C24" stroke-width="2" stroke-linecap="round" stroke-linejoin="round"></path>
                <path d="M96.5,59 C92.3580902,59 89,55.642088 89,51.4996021 C89,47.357912 92.3580902,44 96.5,44 C100.64191,44 104,47.357912 104,51.4996021 C104,55.642088 100.64191,59 96.5,59 Z" id="Stroke-9" stroke="#EC1C24" stroke-width="2" stroke-linecap="round" stroke-linejoin="round"></path>
                <path d="M52.5,77 L52.5,88" id="Stroke-11" stroke="#EC1C24" stroke-width="2" stroke-linecap="round" stroke-linejoin="round"></path>
                <path d="M45,96.5 C45,92.3580902 48.357912,89 52.4996021,89 C56.642088,89 60,92.3580902 60,96.5 C60,100.64191 56.642088,104 52.4996021,104 C48.357912,104 45,100.64191 45,96.5 Z" id="Stroke-13" stroke="#EC1C24" stroke-width="2" stroke-linecap="round" stroke-linejoin="round"></path>
                <path d="M26,51.5 L15,51.5" id="Stroke-15" stroke="#EC1C24" stroke-width="2" stroke-linecap="round" stroke-linejoin="round"></path>
                <path d="M7.49960214,44 C11.642088,44 15,47.357912 15,51.4996021 C15,55.642088 11.642088,59 7.49960214,59 C3.35791205,59 0,55.642088 0,51.4996021 C0,47.357912 3.35791205,44 7.49960214,44 Z" id="Stroke-17" stroke="#EC1C24" stroke-width="2" stroke-linecap="round" stroke-linejoin="round"></path>
                <path d="M25,25 L20,20" id="Stroke-19" stroke="#0F222E" stroke-width="2" stroke-linecap="round" stroke-linejoin="round"></path>
                <path d="M19.6824286,13.3180557 C21.4391905,15.0754634 21.4391905,17.9245366 19.6824286,19.6819443 C17.9249102,21.4393519 15.0749007,21.4393519 13.3181388,19.6819443 C11.5606204,17.9245366 11.5606204,15.0754634 13.3181388,13.3180557 C15.0749007,11.5606481 17.9249102,11.5606481 19.6824286,13.3180557 Z" id="Stroke-21" stroke="#0F222E" stroke-width="2" stroke-linecap="round" stroke-linejoin="round"></path>
                <path d="M78,25 L83,20" id="Stroke-23" stroke="#0F222E" stroke-width="2" stroke-linecap="round" stroke-linejoin="round"></path>
                <path d="M89.6824286,19.6824286 C87.9249102,21.4391905 85.0749007,21.4391905 83.3181388,19.6824286 C81.5606204,17.9249102 81.5606204,15.0749007 83.3181388,13.3181388 C85.0749007,11.5606204 87.9249102,11.5606204 89.6824286,13.3181388 C91.4391905,15.0749007 91.4391905,17.9249102 89.6824286,19.6824286 Z" id="Stroke-25" stroke="#0F222E" stroke-width="2" stroke-linecap="round" stroke-linejoin="round"></path>
                <path d="M78,77 L83,82" id="Stroke-27" stroke="#0F222E" stroke-width="2" stroke-linecap="round" stroke-linejoin="round"></path>
                <path d="M82.3180557,88.6824286 C80.5606481,86.9249102 80.5606481,84.0749007 82.3180557,82.3181388 C84.0754634,80.5606204 86.9245366,80.5606204 88.6819443,82.3181388 C90.4393519,84.0749007 90.4393519,86.9249102 88.6819443,88.6824286 C86.9245366,90.4391905 84.0754634,90.4391905 82.3180557,88.6824286 Z" id="Stroke-29" stroke="#0F222E" stroke-width="2" stroke-linecap="round" stroke-linejoin="round"></path>
                <path d="M25,77 L20,82" id="Stroke-31" stroke="#0F222E" stroke-width="2" stroke-linecap="round" stroke-linejoin="round"></path>
                <path d="M13.3175714,82.3175714 C15.0750898,80.5608095 17.9250993,80.5608095 19.6818612,82.3175714 C21.4393796,84.0750898 21.4393796,86.9250993 19.6818612,88.6818612 C17.9250993,90.4393796 15.0750898,90.4393796 13.3175714,88.6818612 C11.5608095,86.9250993 11.5608095,84.0750898 13.3175714,82.3175714 Z" id="Stroke-33" stroke="#0F222E" stroke-width="2" stroke-linecap="round" stroke-linejoin="round"></path>
                <path d="M36,48 C36,48 50.6334278,32.3441201 69,47.8594532" id="Stroke-35" stroke="#0F222E" stroke-width="4" stroke-linecap="round" stroke-linejoin="round"></path>
                <path d="M42,60 C42,60 50.9560364,64.5 63,60" id="Stroke-37" stroke="#0F222E" stroke-width="2" stroke-linecap="round" stroke-linejoin="round"></path>
                <path d="M48.298939,47.9268923 C47.2962865,47.9268923 46.4925729,47.1229561 46.4925729,46.1210178 C46.4925729,45.1270315 47.2962865,44.3246857 48.298939,44.3246857 C49.293634,44.3246857 50.0981432,45.1270315 50.0981432,46.1210178 C50.0981432,47.1229561 49.293634,47.9268923 48.298939,47.9268923 M51.9992042,41 C47.033687,41 43,43.043636 43,48.0135679 C43,52.9763431 47.033687,57 51.9992042,57 C56.972679,57 61,52.9763431 61,48.0135679 C61,43.043636 56.972679,41 51.9992042,41" id="Fill-39" fill="#0F222E"></path>
            </g>
        </g>
    </g>
</svg>