<?xml version="1.0" encoding="UTF-8"?>
<svg width="82px" height="89px" viewBox="0 0 82 89" version="1.1" xmlns="http://www.w3.org/2000/svg" xmlns:xlink="http://www.w3.org/1999/xlink">
    <!-- Generator: Sketch 53.2 (72643) - https://sketchapp.com -->
    <title>003-server</title>
    <desc>Created with Sketch.</desc>
    <defs>
        <polygon id="path-1" points="0.222005682 0 81.7779943 0 81.7779943 88.9860937 0.222005682 88.9860937"></polygon>
    </defs>
    <g id="Page-1" stroke="none" stroke-width="1" fill="none" fill-rule="evenodd">
        <g id="Home-Page" transform="translate(-788.000000, -1792.000000)">
            <g id="003-server" transform="translate(788.000000, 1792.000000)">
                <g id="Group-3">
                    <mask id="mask-2" fill="white">
                        <use xlink:href="#path-1"></use>
                    </mask>
                    <g id="Clip-2"></g>
                    <path d="M77.464608,15.6653906 C77.4382841,11.4265339 75.7447045,7.47924479 72.688108,4.54039062 C69.643392,1.61242969 65.5839261,0 61.2560966,0 C56.9291989,0 52.869733,1.61242969 49.8240852,4.54039062 C47.4873182,6.78833594 45.9484205,9.62752865 45.3415739,12.7346484 C45.1521818,12.6342917 44.9364659,12.577276 44.7072386,12.577276 L1.573375,12.577276 C0.827221591,12.577276 0.222005682,13.1791849 0.222005682,13.9215469 L0.222005682,21.101112 C0.222005682,21.843474 0.827221591,22.4446875 1.573375,22.4446875 C2.31952841,22.4446875 2.92474432,21.843474 2.92474432,21.101112 L2.92474432,19.8407422 L42.0736875,19.8407422 C41.7470852,20.6982943 41.5705057,21.6198151 41.5705057,22.5714661 C41.5705057,26.2561589 44.2576364,29.4049974 47.7848011,30.1255729 L47.7848011,33.3242422 C47.729358,33.3170573 47.672983,33.3124219 47.6147443,33.3124219 L2.92474432,33.3124219 L2.92474432,26.4779635 C2.92474432,25.7356016 2.31952841,25.1334609 1.573375,25.1334609 C0.827221591,25.1334609 0.222005682,25.7356016 0.222005682,26.4779635 L0.222005682,34.6559974 C0.222005682,35.3983594 0.827221591,36.0005 1.573375,36.0005 L5.74023295,36.0005 L5.74023295,39.1321875 L1.573375,39.1321875 C0.827221591,39.1321875 0.222005682,39.7343281 0.222005682,40.4766901 L0.222005682,61.2111406 C0.222005682,61.9535026 0.827221591,62.5554115 1.573375,62.5554115 L5.74023295,62.5554115 L5.74023295,65.576776 L1.573375,65.576776 C0.827221591,65.576776 0.222005682,66.1786849 0.222005682,66.9210469 L0.222005682,70.8857187 C0.222005682,70.9907109 0.23575,71.0929219 0.258346591,71.1907292 C0.23575,71.2894635 0.222005682,71.3907474 0.222005682,71.4966667 C0.222005682,72.2392604 0.827221591,72.8402422 1.573375,72.8402422 L49.6447102,72.8402422 C50.3908636,72.8402422 50.9951477,72.2392604 50.9951477,71.4966667 C50.9951477,70.7543047 50.3908636,70.1523958 49.6447102,70.1523958 L2.92474432,70.1523958 L2.92474432,68.2655495 L56.1001136,68.2655495 L56.1001136,86.3119219 L2.92474432,86.3119219 L2.92474432,76.2625703 C2.92474432,75.5202083 2.31952841,74.9180677 1.573375,74.9180677 C0.827221591,74.9180677 0.222005682,75.5202083 0.222005682,76.2625703 L0.222005682,87.6554974 C0.222005682,88.3978594 0.827221591,89 1.573375,89 L57.4505511,89 C58.1967045,89 58.8019205,88.3978594 58.8019205,87.6554974 L58.8019205,66.9210469 C58.8019205,66.1786849 58.1967045,65.576776 57.4505511,65.576776 L53.284625,65.576776 L53.284625,62.5554115 L57.4505511,62.5554115 C58.1967045,62.5554115 58.8019205,61.9535026 58.8019205,61.2111406 L58.8019205,56.220651 C58.8019205,55.4782891 58.1967045,54.8763802 57.4505511,54.8763802 C56.7053295,54.8763802 56.1001136,55.4782891 56.1001136,56.220651 L56.1001136,59.8675651 L2.92474432,59.8675651 L2.92474432,46.3958854 L49.6447102,46.3958854 C50.3908636,46.3958854 50.9951477,45.7937448 50.9951477,45.0513828 C50.9951477,44.3090208 50.3908636,43.7078073 49.6447102,43.7078073 L2.92474432,43.7078073 L2.92474432,41.8202656 L47.6147443,41.8202656 C47.71375,41.8202656 47.8092614,41.8093724 47.9022102,41.7894401 C48.113267,42.2592396 48.5854659,42.5869635 49.1361705,42.5869635 L56.1001136,42.5869635 L56.1001136,50.8437995 C56.1001136,51.5861615 56.7053295,52.1883021 57.4505511,52.1883021 C58.1967045,52.1883021 58.8019205,51.5861615 58.8019205,50.8437995 L58.8019205,42.5869635 L75.1879432,42.5869635 C75.9340966,42.5869635 76.5393125,41.9848229 76.5393125,41.2424609 L76.5393125,36.4712266 C76.5393125,35.7288646 75.9340966,35.1269557 75.1879432,35.1269557 C74.4417898,35.1269557 73.8365739,35.7288646 73.8365739,36.4712266 L73.8365739,39.8981901 L70.320358,39.8981901 L70.320358,34.4441589 C70.320358,33.7017969 69.715375,33.0996562 68.9689886,33.0996562 C68.2228352,33.0996562 67.6178523,33.7017969 67.6178523,34.4441589 L67.6178523,39.8981901 L65.4565,39.8981901 L65.4565,36.4712266 C65.4565,35.7288646 64.8524489,35.1269557 64.1062955,35.1269557 C63.3599091,35.1269557 62.7549261,35.7288646 62.7549261,36.4712266 L62.7549261,39.8981901 L60.5935739,39.8981901 L60.5935739,36.4712266 C60.5935739,35.7288646 59.9885909,35.1269557 59.2424375,35.1269557 C58.4960511,35.1269557 57.8910682,35.7288646 57.8910682,36.4712266 L57.8910682,39.8981901 L55.7306477,39.8981901 L55.7306477,33.6700443 C55.7306477,32.9276823 55.1256648,32.3257734 54.3795114,32.3257734 C53.633125,32.3257734 53.028142,32.9276823 53.028142,33.6700443 L53.028142,39.8981901 L50.4875398,39.8981901 L50.4875398,28.9333438 C50.4875398,28.2062786 49.9051534,27.6106276 49.1753068,27.5897682 C46.4716364,27.5128203 44.2723125,25.2611667 44.2723125,22.5714661 C44.2723125,20.6908776 45.3250341,18.9799453 47.0204773,18.1080234 C47.4691477,17.8771797 47.7503239,17.4164193 47.7503239,16.9139401 L47.7503239,15.7676016 C47.7503239,12.2249844 49.1543409,8.92410417 51.7021648,6.47335938 C54.2411364,4.03234896 57.6334205,2.68807813 61.2570284,2.68807813 C64.8797045,2.68807813 68.2719886,4.03234896 70.8109602,6.47335938 C73.3597159,8.92410417 74.7630341,12.2249844 74.7630341,15.7676016 L74.7630341,16.5563177 C74.7630341,17.1283281 75.1269091,17.638224 75.6701591,17.8254948 C77.7075795,18.5307734 79.0752557,20.4375521 79.0752557,22.5714661 C79.0752557,24.9913854 77.3371818,27.0673568 74.9412443,27.509112 C74.3015511,27.6268516 73.8365739,28.1828698 73.8365739,28.8311328 L73.8365739,31.094375 C73.8365739,31.836737 74.4417898,32.4388776 75.1879432,32.4388776 C75.9340966,32.4388776 76.5393125,31.836737 76.5393125,31.094375 L76.5393125,29.8641354 C79.63225,28.8112005 81.7779943,25.9031719 81.7779943,22.5714661 C81.7779943,19.6226458 80.0799886,16.9572812 77.464608,15.6653906 Z M8.44180682,65.576776 L50.5821193,65.576776 L50.5821193,62.6061693 L8.44180682,62.6061693 L8.44180682,65.576776 Z M47.6147443,36.0005 C47.672983,36.0005 47.729358,35.9951693 47.7848011,35.9886797 L47.7848011,39.0253411 C47.729358,39.0181563 47.6720511,39.0135208 47.6147443,39.0135208 L8.44180682,39.0135208 L8.44180682,36.0005 L47.6147443,36.0005 Z M45.0475852,16.1460833 C44.5371818,16.4828464 44.074767,16.8750026 43.6645341,17.3095729 C43.475142,17.2099115 43.260358,17.1519687 43.0311307,17.1519687 L2.92474432,17.1519687 L2.92474432,15.2651224 L44.7072386,15.2651224 C44.8300057,15.2651224 44.9483466,15.2479714 45.0622614,15.2171458 C45.0557386,15.400013 45.048517,15.5828802 45.048517,15.7676016 L45.048517,16.1460833 L45.0475852,16.1460833 Z" id="Fill-1" fill="#000000" mask="url(#mask-2)"></path>
                </g>
                <path d="M59.3884634,30 L63.6115366,30 C64.3781714,30 65,29.55228 65,29.0000862 C65,28.44772 64.3781714,28 63.6115366,28 L59.3884634,28 C58.6218286,28 58,28.44772 58,29.0000862 C58,29.55228 58.6218286,30 59.3884634,30 Z" id="Fill-4" fill="#000000"></path>
                <path d="M61,20.707552 C61,20.054544 60.8653732,19.4152126 60.6000574,18.8071423 C60.3876572,18.3204255 59.8580101,18 59.2675718,18 L50.7324282,18 C50.1410054,18 49.6123428,18.3204255 49.3999426,18.8071423 C49.1343807,19.4152126 49,20.054544 49,20.707552 C49,23.6256818 51.6917981,26 54.9998769,26 C58.3082019,26 61,23.6256818 61,20.707552 Z M54.9998769,23.4824021 C53.2657259,23.4824021 51.8542363,22.2373884 51.8542363,20.707552 C51.8542363,20.6439445 51.8571897,20.5812054 51.861866,20.5184663 L58.1388724,20.5184663 C58.1428103,20.5812054 58.1457637,20.6439445 58.1457637,20.707552 C58.1457637,22.2373884 56.7342741,23.4824021 54.9998769,23.4824021 Z" id="Fill-5" fill="#000000"></path>
                <path d="M75,20.707552 C75,20.054544 74.865387,19.4152126 74.5991141,18.8071423 C74.3874739,18.3204255 73.8578811,18 73.2677495,18 L64.7322505,18 C64.1418728,18 63.6122801,18.3204255 63.4008859,18.8071423 C63.134613,19.4152126 63,20.054544 63,20.707552 C63,23.6256818 65.6915221,26 69.0004922,26 C72.3082318,26 75,23.6256818 75,20.707552 Z M65.854928,20.707552 C65.854928,20.6439445 65.8568968,20.5812054 65.8618186,20.5184663 L72.1381814,20.5184663 C72.1428571,20.5812054 72.1448259,20.6439445 72.1448259,20.707552 C72.1448259,22.2373884 70.7347115,23.4824021 69.0004922,23.4824021 C67.2662729,23.4824021 65.854928,22.2373884 65.854928,20.707552 Z" id="Fill-6" fill="#000000"></path>
                <path d="M15.5929838,31 C16.3698624,31 17,30.4066185 17,29.6739274 L17,23.3269876 C17,22.5942965 16.3698624,22 15.5929838,22 L7.40604604,22 C6.6291674,22 6,22.5942965 6,23.3269876 L6,29.6739274 C6,30.4066185 6.6291674,31 7.40604604,31 L15.5929838,31 Z M8.81306227,28.3469398 L14.1859675,28.3469398 L14.1859675,24.6539752 L8.81306227,24.6539752 L8.81306227,28.3469398 Z" id="Fill-7" fill="#000000"></path>
                <path d="M27.5929527,31 C28.3698485,31 29,30.4066185 29,29.6739274 L29,23.3269876 C29,22.5942965 28.3698485,22 27.5929527,22 L19.4058345,22 C18.6299089,22 18,22.5942965 18,23.3269876 L18,29.6739274 C18,30.4066185 18.6299089,31 19.4058345,31 L27.5929527,31 Z M20.8128817,28.3469398 L26.1868757,28.3469398 L26.1868757,24.6539752 L20.8128817,24.6539752 L20.8128817,28.3469398 Z" id="Fill-8" fill="#EC1C24"></path>
                <path d="M40.5929838,31 C41.3698624,31 42,30.4066185 42,29.6739274 L42,23.3269876 C42,22.5942965 41.3698624,22 40.5929838,22 L32.4070162,22 C31.6301376,22 31,22.5942965 31,23.3269876 L31,29.6739274 C31,30.4066185 31.6301376,31 32.4070162,31 L40.5929838,31 Z M33.8140325,28.3469398 L39.1869377,28.3469398 L39.1869377,24.6539752 L33.8140325,24.6539752 L33.8140325,28.3469398 Z" id="Fill-9" fill="#EC1C24"></path>
                <path d="M15.5929838,84 C16.3698624,84 17,83.4057035 17,82.6730124 L17,76.3269876 C17,75.5942965 16.3698624,75 15.5929838,75 L7.40604604,75 C6.6291674,75 6,75.5942965 6,76.3269876 L6,82.6730124 C6,83.4057035 6.6291674,84 7.40604604,84 L15.5929838,84 Z M8.81306227,81.3460248 L14.1859675,81.3460248 L14.1859675,77.6530602 L8.81306227,77.6530602 L8.81306227,81.3460248 Z" id="Fill-10" fill="#000000"></path>
                <path d="M27.5929527,84 C28.3698485,84 29,83.4057035 29,82.6730124 L29,76.3269876 C29,75.5942965 28.3698485,75 27.5929527,75 L19.4058345,75 C18.6299089,75 18,75.5942965 18,76.3269876 L18,82.6730124 C18,83.4057035 18.6299089,84 19.4058345,84 L27.5929527,84 Z M20.8128817,81.3460248 L26.1868757,81.3460248 L26.1868757,77.6530602 L20.8128817,77.6530602 L20.8128817,81.3460248 Z" id="Fill-11" fill="#000000"></path>
                <path d="M40.5929838,84 C41.3698624,84 42,83.4057035 42,82.6730124 L42,76.3269876 C42,75.5942965 41.3698624,75 40.5929838,75 L32.4070162,75 C31.6301376,75 31,75.5942965 31,76.3269876 L31,82.6730124 C31,83.4057035 31.6301376,84 32.4070162,84 L40.5929838,84 Z M33.8140325,81.3460248 L39.1869377,81.3460248 L39.1869377,77.6530602 L33.8140325,77.6530602 L33.8140325,81.3460248 Z" id="Fill-12" fill="#000000"></path>
                <path d="M52.5938299,84 C53.3707771,84 54,83.4057035 54,82.6730124 L54,76.3269876 C54,75.5942965 53.3707771,75 52.5938299,75 L44.4061701,75 C43.6292229,75 43,75.5942965 43,76.3269876 L43,82.6730124 C43,83.4057035 43.6292229,84 44.4061701,84 L52.5938299,84 Z M45.8133104,81.3460248 L51.1866896,81.3460248 L51.1866896,77.6530602 L45.8133104,77.6530602 L45.8133104,81.3460248 Z" id="Fill-13" fill="#000000"></path>
                <path d="M7.40604604,49 C6.6291674,49 6,49.5931678 6,50.3258775 L6,56.6732074 C6,57.4059172 6.6291674,58 7.40604604,58 L15.5929838,58 C16.3698624,58 17,57.4059172 17,56.6732074 L17,50.3258775 C17,49.5931678 16.3698624,49 15.5929838,49 L7.40604604,49 Z M8.81306227,55.3461861 L14.1859675,55.3461861 L14.1859675,51.6528989 L8.81306227,51.6528989 L8.81306227,55.3461861 Z" id="Fill-14" fill="#000000"></path>
                <path d="M19.4068047,49 C18.6299089,49 18,49.5931678 18,50.3258775 L18,56.6732074 C18,57.4059172 18.6299089,58 19.4068047,58 L27.5929527,58 C28.3698485,58 29,57.4059172 29,56.6732074 L29,50.3258775 C29,49.5931678 28.3698485,49 27.5929527,49 L19.4068047,49 Z M20.8128817,55.3461861 L26.186148,55.3461861 L26.186148,51.6528989 L20.8128817,51.6528989 L20.8128817,55.3461861 Z" id="Fill-15" fill="#000000"></path>
                <path d="M32.4070162,49 C31.6301376,49 31,49.5931678 31,50.3258775 L31,56.6732074 C31,57.4059172 31.6301376,58 32.4070162,58 L40.5929838,58 C41.3698624,58 42,57.4059172 42,56.6732074 L42,50.3258775 C42,49.5931678 41.3698624,49 40.5929838,49 L32.4070162,49 Z M33.8140325,55.3461861 L39.1869377,55.3461861 L39.1869377,51.6528989 L33.8140325,51.6528989 L33.8140325,55.3461861 Z" id="Fill-16" fill="#000000"></path>
                <path d="M44.4070162,49 C43.6301376,49 43,49.5931678 43,50.3258775 L43,56.6732074 C43,57.4059172 43.6301376,58 44.4070162,58 L52.593954,58 C53.3698624,58 54,57.4059172 54,56.6732074 L54,50.3258775 C54,49.5931678 53.3698624,49 52.593954,49 L44.4070162,49 Z M45.8140325,55.3461861 L51.1869377,55.3461861 L51.1869377,51.6528989 L45.8140325,51.6528989 L45.8140325,55.3461861 Z" id="Fill-17" fill="#000000"></path>
            </g>
        </g>
    </g>
</svg>