<?xml version="1.0" encoding="UTF-8"?>
<svg width="79px" height="94px" viewBox="0 0 79 94" version="1.1" xmlns="http://www.w3.org/2000/svg" xmlns:xlink="http://www.w3.org/1999/xlink">
    <!-- Generator: Sketch 53.2 (72643) - https://sketchapp.com -->
    <title>Group 19</title>
    <desc>Created with Sketch.</desc>
    <g id="AWS-Microsite" stroke="none" stroke-width="1" fill="none" fill-rule="evenodd">
        <g id="R3-B---AWS-Budget" transform="translate(-697.000000, -1173.000000)">
            <g id="Section-3" transform="translate(0.000000, 993.000000)">
                <g id="Amazon-Cloudfront" transform="translate(660.000000, 180.000000)">
                    <g id="Group-19" transform="translate(37.000000, 0.000000)">
                        <polygon id="Fill-1" fill="#5E1F18" points="51.0164737 38.9306837 51 38.9474854 61.4123635 40 79 38.9682803 78.9654818 38.9474854 69.4263033 37"></polygon>
                        <polygon id="Fill-2" fill="#8C3123" points="51 39 69.8696349 37.596644 69.9993325 37.4167247 70 15.2533375 69.8702632 15 51 19.6718472"></polygon>
                        <polygon id="Fill-3" fill="#E05243" points="70 37.5769163 79 39 78.9997124 19.6771432 70.0005753 15"></polygon>
                        <polygon id="Fill-4" fill="#F2B0A9" points="51 54.8605956 51.269023 55.0118541 69.4137472 56 78.6719391 55.0118541 79 54.8673298 61.4125158 54"></polygon>
                        <polygon id="Fill-5" fill="#8C3123" points="51 55 69.941477 56.3385892 70 56.4133151 69.9856156 78.8827073 69.9389154 79 51 74.3582721"></polygon>
                        <polygon id="Fill-6" fill="#E05243" points="70.0023373 56.3308449 70 79 79 74.3463121 79 55"></polygon>
                        <polygon id="Fill-7" fill="#5E1F18" points="0.0604049313 38.7661923 0 38.8190168 17.707478 40 28 38.8183269 27.9016781 38.7553256 27.9016781 38.7549806 9.57649597 37"></polygon>
                        <polygon id="Fill-8" fill="#8C3123" points="0 19.6780769 0 39 8.74278664 37.6436595 9 37.4505262 9 15.2592043 8.74278664 15"></polygon>
                        <polygon id="Fill-9" fill="#E05243" points="26.999096 39 9 37.6442586 9 15 27 19.667892"></polygon>
                        <polygon id="Fill-10" fill="#F2B0A9" points="0 55.1882882 0.305566614 55.525151 9.56752907 57 27.5770205 55.525151 28 55.1882882 17.7077049 54"></polygon>
                        <polygon id="Fill-11" fill="#8C3123" points="0.000564670452 74.3463193 8.75394485 79 9 78.5966201 8.97621326 56.6086885 8.75362722 56.3193081 0 55"></polygon>
                        <polygon id="Fill-12" fill="#E05243" points="27 55 9 56.3193081 9.00026366 79 27 74.3566557"></polygon>
                        <polygon id="Fill-13" fill="#F2B0A9" points="59 57.8395439 40.0942114 56 21 57.8398447 21.2691972 58.0642216 40.0010864 61 58.7305359 58.0642216"></polygon>
                        <polygon id="Fill-14" fill="#8C3123" points="20 84.6301586 38.7853016 94 39 93.6381192 38.9758808 60.999859 38.7853016 60.7457229 20 58"></polygon>
                        <polygon id="Fill-15" fill="#E05243" points="39 60.7460007 39 94 58 84.6302369 57.9996569 58"></polygon>
                        <polygon id="Fill-16" fill="#5E1F18" points="40.094039 38 21 36.0843883 21.0492113 36.0551154 40 33 58.9424406 36.0622059 59 36.0843883"></polygon>
                        <polygon id="Fill-17" fill="#8C3123" points="38.9094862 0 20 9.37082193 20 36 38.9094862 33.2692168 39 33.1874489 38.9581194 0.0503389241"></polygon>
                        <polygon id="Fill-18" fill="#E05243" points="39 0 39 33.2692168 58 36 58 9.37082193"></polygon>
                    </g>
                </g>
            </g>
        </g>
    </g>
</svg>