<?xml version="1.0" encoding="UTF-8"?>
<svg width="123px" height="29px" viewBox="0 0 123 29" version="1.1" xmlns="http://www.w3.org/2000/svg" xmlns:xlink="http://www.w3.org/1999/xlink">
    <!-- Generator: Sketch 53.2 (72643) - https://sketchapp.com -->
    <title>Gartner Logo</title>
    <desc>Created with Sketch.</desc>
    <defs>
        <polygon id="path-1" points="6.45669291e-05 0.05945 24.796348 0.05945 24.796348 28.3409091 6.45669291e-05 28.3409091"></polygon>
    </defs>
    <g id="AWS-Microsite" stroke="none" stroke-width="1" fill="none" fill-rule="evenodd">
        <g id="R3-B---AWS-Budget" transform="translate(-781.000000, -2263.000000)">
            <g id="Section-6" transform="translate(0.000000, 2186.000000)">
                <g id="Gartner" transform="translate(781.000000, 56.000000)">
                    <g id="Gartner-Logo" transform="translate(0.000000, 21.000000)">
                        <g id="Group-16">
                            <path d="M123,8.7 L122.563936,12.9387148 L120.821035,12.9387148 C117.915524,12.9387148 116.462429,15.1993188 116.462429,17.3176885 L116.462429,27.0666667 L111.377953,27.0666667 L111.377953,8.7 L116.171946,8.7 L116.317526,10.960604 C117.334557,9.40656222 119.077457,8.7 121.256422,8.7 L123,8.7 Z" id="Fill-1" fill="#FFFFFF"></path>
                            <path d="M88.1338583,28.0333333 L83.2909593,28.0333333 L83.2909593,18.0031715 C83.2909593,15.9678699 83.1529592,13.3519245 80.2478647,13.3519245 C77.6187702,13.3519245 76.5121904,15.3865487 76.5121904,17.712511 L76.5121904,28.0333333 L71.6692913,28.0333333 L71.6692913,9.13565212 L76.2349005,9.13565212 L76.2349005,11.6072835 C77.2034803,10.0083114 79.001995,8.7 81.6310895,8.7 C86.6119885,8.7 88.1338583,12.3342737 88.1338583,16.1135389 L88.1338583,28.0333333 Z" id="Fill-3" fill="#FFFFFF"></path>
                            <path d="M69.7322835,23.2863574 L69.4556233,27.6022167 C68.2103303,27.8898513 67.2416974,28.0333333 65.9970492,28.0333333 C61.4305448,28.0333333 60.0472441,25.8757389 60.0472441,21.5605501 L60.0472441,3.86666667 L64.8897638,3.86666667 L64.8897638,9.04542966 L69.7322835,9.04542966 L69.4556233,13.3606185 L64.8897638,13.3606185 L64.8897638,21.128763 C64.8897638,22.8545703 65.3050764,23.8616265 67.1036897,23.8616265 C67.7956625,23.8616265 68.6256429,23.7181445 69.7322835,23.2863574" id="Fill-5" fill="#FFFFFF"></path>
                            <path d="M58.1102362,8.7 L57.6949537,12.9387148 L56.3111087,12.9387148 C53.6827059,12.9387148 52.2995057,15.1993188 52.2995057,17.3176885 L52.2995057,27.0666667 L47.4566929,27.0666667 L47.4566929,8.7 L52.0228657,8.7 L52.1608633,10.960604 C53.1294258,9.40656222 54.7899109,8.7 56.8650336,8.7 L58.1102362,8.7 Z" id="Fill-7" fill="#FFFFFF"></path>
                            <g id="Group-11">
                                <mask id="mask-2" fill="white">
                                    <use xlink:href="#path-1"></use>
                                </mask>
                                <g id="Clip-10"></g>
                                <path d="M24.796348,25.5128818 C21.4717969,27.3510864 18.1472457,28.3410409 13.8528992,28.3410409 C5.81819055,28.0582909 6.45669291e-05,22.9674727 6.45669291e-05,14.34195 C6.45669291e-05,5.71576818 5.81819055,0.201154545 13.8528992,0.05945 C17.8702535,0.05945 21.4717969,1.04940455 24.380537,3.59481364 L20.9178126,7.12951818 C19.1170409,5.71576818 16.6234661,4.72581364 13.5759071,4.86751818 C8.45058425,5.15026818 5.40237953,8.82667727 5.40237953,14.0592 C5.2642063,19.5738136 8.58875748,23.3919273 13.8528992,23.5329727 C16.346474,23.6746773 18.1472457,23.2502227 19.6710252,22.5430182 L19.6710252,16.8873591 L14.1298913,16.8873591 L14.5457024,12.2209955 L24.796348,12.2209955 L24.796348,25.5128818 Z" id="Fill-9" fill="#FFFFFF" mask="url(#mask-2)"></path>
                            </g>
                            <path d="M103.556145,16.2341627 C103.416034,13.959536 101.730129,12.3958543 99.3417086,12.5376458 C96.9539429,12.6800998 95.2686923,14.2444441 94.9878172,16.2341627 L103.556145,16.2341627 Z M108.472441,20.0724711 L94.9878172,20.0724711 C95.4088025,22.4888893 97.234818,23.9107794 99.4824735,23.9107794 C101.730129,24.0525709 102.994394,23.3422884 104.539535,21.6361527 L107.770581,24.195025 C105.52227,27.0381427 102.712865,28.0333333 99.6232385,28.0333333 C94.1445372,28.0333333 90.0708661,24.195025 90.0708661,18.3663354 C90.0708661,12.5376458 94.1445372,8.7 99.4824735,8.7 C105.241395,8.7 108.472441,12.2540629 108.472441,18.6505809 L108.472441,20.0724711 Z" id="Fill-12" fill="#FFFFFF"></path>
                            <path d="M39.8473409,19.50398 L39.1561117,19.50398 C36.9425019,19.50398 32.7925477,19.6457715 32.9305356,22.0628523 C32.9305356,25.6169151 39.8473409,24.4792705 39.8473409,20.3573792 L39.8473409,19.50398 Z M44.5511811,15.5238802 L44.5511811,27.6066338 L40.2625942,27.6066338 L40.1239615,25.7587066 C38.8794911,27.4648423 36.6652365,28.0333333 34.4522715,28.0333333 C31.2701671,28.0333333 28.0887075,26.3271976 28.0887075,22.4888893 C27.9500748,16.3766167 34.7288921,15.9499172 39.017479,15.9499172 L39.8473409,15.9499172 L39.8473409,15.6663342 C39.8473409,13.675953 38.6022257,12.5383084 36.11264,12.5383084 C34.3136388,12.5383084 32.653915,13.2492535 31.2701671,14.5286896 L28.503316,11.5431178 C30.9935465,9.41094509 33.6224096,8.7 36.5272486,8.7 C42.0609507,8.7 44.5511811,11.4013263 44.5511811,15.5238802 L44.5511811,15.5238802 Z" id="Fill-14" fill="#FFFFFF"></path>
                        </g>
                    </g>
                </g>
            </g>
        </g>
    </g>
</svg>