<?xml version="1.0" encoding="UTF-8"?>
<svg width="174px" height="147px" viewBox="0 0 174 147" version="1.1" xmlns="http://www.w3.org/2000/svg" xmlns:xlink="http://www.w3.org/1999/xlink">
    <!-- Generator: Sketch 53.2 (72643) - https://sketchapp.com -->
    <title>Group 66</title>
    <desc>Created with Sketch.</desc>
    <defs>
        <polygon id="path-1" points="0 147 173.607034 147 173.607034 0.389193833 0 0.389193833"></polygon>
    </defs>
    <g id="AWS-Microsite" stroke="none" stroke-width="1" fill="none" fill-rule="evenodd">
        <g id="R3-B---AWS-Budget" transform="translate(-1002.000000, -1841.000000)">
            <g id="Section-5" transform="translate(258.000000, 1749.000000)">
                <g id="Infrastructure-Abuse" transform="translate(679.000000, 92.000000)">
                    <g id="Group-66" transform="translate(65.000000, 0.000000)">
                        <polygon id="Fill-1" fill="#313F4B" points="128.214765 54 128 53.4296782 129.785235 53 130 53.5703218"></polygon>
                        <path d="M122.813591,56.5896867 L122.624766,55.9610379 L125.811176,55 L126,55.6286488 L122.813591,56.5896867 Z M116.440772,58.5124194 L116.251947,57.8837706 L119.438357,56.9220758 L119.627181,57.5507246 L116.440772,58.5124194 Z M110.067297,60.4344952 L109.878473,59.8058464 L113.064882,58.8448085 L113.253707,59.4734573 L110.067297,60.4344952 Z M103.694478,62.3559141 L103.505654,61.7272653 L106.692064,60.7662274 L106.880888,61.3948762 L103.694478,62.3559141 Z M97.3210038,64.2786468 L97.1321796,63.6499979 L100.318589,62.6889601 L100.508069,63.3176089 L97.3210038,64.2786468 Z M90.9475293,66.2007226 L90.7587051,65.5720737 L93.9457701,64.6110358 L94.1345944,65.2396847 L90.9475293,66.2007226 Z M84.5747105,68.1234553 L84.3858862,67.4948064 L87.5729513,66.5331116 L87.7617756,67.1617605 L84.5747105,68.1234553 Z M78.2018916,70.0448742 L78.0124117,69.4162253 L81.1994768,68.4551874 L81.388301,69.0844932 L78.2018916,70.0448742 Z M28.327372,70.8042452 L25,70.7897935 L25.0019669,70.1328981 L28.3299945,70.1473498 L28.327372,70.8042452 Z M34.9827716,70.8318348 L31.654744,70.8173831 L31.6573665,70.1604877 L34.9853942,70.1749394 L34.9827716,70.8318348 Z M41.6381712,70.8600813 L38.3107992,70.8456296 L38.3134218,70.1887342 L41.6407938,70.2031859 L41.6381712,70.8600813 Z M48.2942265,70.8876709 L44.9661988,70.8738761 L44.9688214,70.2169807 L48.296849,70.2307755 L48.2942265,70.8876709 Z M54.9496261,70.9159174 L51.6222541,70.9014657 L51.624221,70.2445703 L54.9522486,70.259022 L54.9496261,70.9159174 Z M61.6056813,70.943507 L58.2776537,70.9297122 L58.2802763,70.2728168 L61.6076483,70.2866117 L61.6056813,70.943507 Z M68.2604253,70.9717535 L64.9330533,70.9573018 L64.9356759,70.3004065 L68.2630479,70.3148582 L68.2604253,70.9717535 Z M74.9164806,71 L71.5884529,70.9855483 L71.5910755,70.328653 L74.9191031,70.3431047 L74.9164806,71 Z" id="Fill-2" fill="#313F4B"></path>
                        <polygon id="Fill-3" fill="#313F4B" points="20.9976303 71 19 70.989719 20.0154028 69 20.5260664 69.3481837 20.0349526 70.3098012 21 70.314599"></polygon>
                        <path d="M88.9484946,14.6256848 L88.7385196,14.016696 L91.7893709,13 L92,13.6089887 L88.9484946,14.6256848 Z M82.8461378,16.6590768 L82.6361628,16.0500881 L85.6870141,15.0333921 L85.8969891,15.6423808 L82.8461378,16.6590768 Z M76.743781,18.6918258 L76.5338061,18.0828371 L79.5846574,17.0661411 L79.7946324,17.6751298 L76.743781,18.6918258 Z M70.6414243,20.7245749 L70.4307952,20.1155861 L73.4823006,19.0995332 L73.6922756,19.7085219 L70.6414243,20.7245749 Z M64.5390675,22.7579669 L64.3290926,22.1489782 L67.3799439,21.1322822 L67.5899189,21.7412709 L64.5390675,22.7579669 Z M58.4367108,24.791359 L58.2267358,24.1817272 L61.2775871,23.1650312 L61.4882162,23.774663 L58.4367108,24.791359 Z M52.334354,26.8247511 L52.1243791,26.2151193 L55.1752304,25.1984233 L55.3852053,25.8080551 L52.334354,26.8247511 Z M46.4910318,28.8163435 L46.4413181,28.7874053 L46.4105741,28.7976945 L46.3987998,28.7629686 L45.9278279,28.4903063 L46.0854727,28.226647 L49.0728736,27.2318154 L49.2828486,27.8408041 L46.5257006,28.7597533 L46.4910318,28.8163435 Z M43.2158147,34.2715191 L42.6526108,33.9448388 L44.2905464,31.2175725 L44.8537503,31.5442528 L43.2158147,34.2715191 Z M39.9405976,39.7260515 L39.3767396,39.3993712 L41.0146752,36.672105 L41.5785332,36.9987853 L39.9405976,39.7260515 Z M36.6647264,45.1812271 L36.1015225,44.8545468 L37.7394581,42.1272805 L38.302662,42.4533178 L36.6647264,45.1812271 Z M33.3895093,50.6357595 L32.8263054,50.3090792 L34.464241,47.581813 L35.0274449,47.9084933 L33.3895093,50.6357595 Z M30.1142922,56.090292 L29.5504342,55.7642548 L31.1883698,53.0363454 L31.7522278,53.3630258 L30.1142922,56.090292 Z M26.838421,61.5454675 L26.2752171,61.2187872 L27.9131527,58.491521 L28.4763566,58.8182013 L26.838421,61.5454675 Z M23.5632039,67 L23,66.6739627 L24.6379356,63.9460534 L25.2011395,64.2727338 L23.5632039,67 Z" id="Fill-4" fill="#313F4B"></path>
                        <polygon id="Fill-5" fill="#313F4B" points="96.5087681 12 95.561815 10.8345324 94.210434 11.3345324 94 10.6532374 95.7630425 10 97 11.5223022"></polygon>
                        <path d="M100.167317,17.79598 L98,15.4244469 L98.4908993,15 L100.658217,17.3715331 L100.167317,17.79598 Z M104.501952,22.5396854 L102.334634,20.1681523 L102.825534,19.7437054 L104.992851,22.1152385 L104.501952,22.5396854 Z M108.836586,27.2833907 L106.669269,24.9112184 L107.160168,24.4867715 L109.327485,26.8589439 L108.836586,27.2833907 Z M113.17122,32.0264569 L111.003903,29.6549238 L111.494802,29.2304769 L113.66212,31.60201 L113.17122,32.0264569 Z M117.505198,36.7701623 L115.33788,34.3986292 L115.829437,33.9741823 L117.996097,36.3457154 L117.505198,36.7701623 Z M121.839832,41.5138677 L119.672515,39.1416954 L120.163414,38.7172485 L122.331388,41.0887816 L121.839832,41.5138677 Z M126.174466,46.2562946 L124.007149,43.8847615 L124.498048,43.4603146 L126.665366,45.8318477 L126.174466,46.2562946 Z M130.509101,51 L128.341783,48.6284669 L128.832683,48.20402 L131,50.5755531 L130.509101,51 Z" id="Fill-6" fill="#313F4B"></path>
                        <polygon id="Fill-7" fill="#313F4B" points="133.723232 55 133.349826 54.8368809 133.572864 53.4743941 133 52.4198103 133.288751 52 134 53.308746"></polygon>
                        <path d="M132.203022,62.0755823 L131.568331,61.9099938 L132.365966,59 L133,59.1655885 L132.203022,62.0755823 Z M130.60841,67.8962116 L129.973719,67.7312649 L130.770696,64.8206293 L131.405388,64.9862178 L130.60841,67.8962116 Z M129.013798,73.7174827 L128.379106,73.5518942 L129.176084,70.6412586 L129.810775,70.8068472 L129.013798,73.7174827 Z M127.418528,79.538112 L126.783837,79.3725235 L127.581472,76.461888 L128.216163,76.6274765 L127.418528,79.538112 Z M125.823916,85.3580995 L125.189225,85.1931528 L125.986859,82.2825173 L126.620894,82.4481058 L125.823916,85.3580995 Z M124.229304,91.1793707 L123.594612,91.0137822 L124.39159,88.1037884 L125.026281,88.2693769 L124.229304,91.1793707 Z M122.634691,97 L122,96.8344115 L122.796978,93.9237759 L123.431669,94.0893644 L122.634691,97 Z" id="Fill-8" fill="#313F4B"></path>
                        <polygon id="Fill-9" fill="#313F4B" points="120.15263 102 120 101.485101 121.161079 101.150604 121.473426 100 122 100.138523 121.608068 101.581745"></polygon>
                        <path d="M112.893182,104.52597 L112.71104,103.904303 L115.817858,103 L116,103.621019 L112.893182,104.52597 Z M106.679546,106.335224 L106.496754,105.713556 L109.604222,104.809254 L109.786364,105.430921 L106.679546,106.335224 Z M100.46591,108.144478 L100.283118,107.52281 L103.390586,106.618507 L103.572728,107.240175 L100.46591,108.144478 Z M94.2516232,109.953731 L94.0694814,109.332064 L97.1762995,108.427761 L97.3584412,109.049429 L94.2516232,109.953731 Z M88.0379871,111.762985 L87.8551948,111.141318 L90.9626634,110.237015 L91.1448052,110.858682 L88.0379871,111.762985 Z M81.8237005,113.572239 L81.6415588,112.950571 L84.7483768,112.046269 L84.9311691,112.667936 L81.8237005,113.572239 Z M75.6100644,115.381493 L75.4279227,114.759825 L78.5347407,113.855522 L78.7168825,114.47719 L75.6100644,115.381493 Z M69.3964284,117.190746 L69.2142866,116.569079 L72.3204541,115.664776 L72.5032464,116.286444 L69.3964284,117.190746 Z M63.1821418,119 L63,118.378332 L66.106818,117.47403 L66.2889598,118.095697 L63.1821418,119 Z" id="Fill-10" fill="#313F4B"></path>
                        <polygon id="Fill-11" fill="#313F4B" points="59.2066152 120 58 118.461484 58.5054024 118 59.4341786 119.184736 60.814774 118.750357 61 119.434379"></polygon>
                        <path d="M26.1669319,79.914159 L24,77.4086158 L24.4947244,77 L26.6623047,79.5055432 L26.1669319,79.914159 Z M30.5007958,84.9265125 L28.3338638,82.4203358 L28.8292367,82.0123535 L30.9961686,84.5185303 L30.5007958,84.9265125 Z M34.8346596,89.938866 L32.6677277,87.4326893 L33.1631005,87.024707 L35.3300324,89.5308838 L34.8346596,89.938866 Z M39.1685234,94.950586 L37.0015915,92.4450428 L37.4969643,92.0370605 L39.6638963,94.5426037 L39.1685234,94.950586 Z M43.5030357,99.9629395 L41.3361037,97.4567627 L41.8308282,97.0487805 L43.9977601,99.5549572 L43.5030357,99.9629395 Z M47.8368995,104.975927 L45.6699676,102.46975 L46.164692,102.061134 L48.3322723,104.567311 L47.8368995,104.975927 Z M52.1707633,109.987646 L50.0038314,107.482103 L50.4985559,107.073487 L52.6661362,109.579031 L52.1707633,109.987646 Z M56.5046272,115 L54.3376953,112.493823 L54.8324197,112.085207 L57,114.591384 L56.5046272,115 Z" id="Fill-12" fill="#313F4B"></path>
                        <polygon id="Fill-13" fill="#313F4B" points="20.6785865 75 20 74.2524462 20.3209928 74 21 74.7475538"></polygon>
                        <polygon id="Fill-14" fill="#313F4B" points="60.5634218 116 60 115.778771 60.4365782 114 61 114.221229"></polygon>
                        <path d="M92.8925908,21.2260293 L92.2707481,21.0041056 L93.3774958,18 L94,18.2219237 L92.8925908,21.2260293 Z M90.6777724,27.2355421 L90.0559298,27.0142692 L91.1633389,24.0095128 L91.7851816,24.2314365 L90.6777724,27.2355421 Z M88.4636156,33.2457057 L87.8411114,33.0231312 L88.9485206,30.0190256 L89.5710248,30.2416001 L88.4636156,33.2457057 Z M86.2487972,39.2552185 L85.6269545,39.0332948 L86.7337022,36.0278876 L87.3562064,36.2498113 L86.2487972,39.2552185 Z M84.0346404,45.2647313 L83.4121362,45.0434584 L84.5195453,42.0380512 L85.1420496,42.2593241 L84.0346404,45.2647313 Z M81.819822,51.2735933 L81.1979793,51.0523204 L82.3053885,48.0469132 L82.9272312,48.2688369 L81.819822,51.2735933 Z M79.6056651,57.2831061 L78.9831609,57.0611824 L80.0905701,54.0570768 L80.7124128,54.2790005 L79.6056651,57.2831061 Z M77.3908468,63.2939205 L76.7683426,63.0719968 L77.8757517,60.0672404 L78.498256,60.2885133 L77.3908468,63.2939205 Z M75.1760284,69.3027825 L74.5541857,69.0808588 L75.6615949,66.0761024 L76.2834376,66.2973753 L75.1760284,69.3027825 Z M73.1788549,75.3676136 L72.5470892,75.1749759 L73.5089608,72.1220601 L74.1407265,72.3153486 L73.1788549,75.3676136 Z M71.2544503,81.4734452 L70.6220231,81.2801567 L71.5845562,78.2272409 L72.2163219,78.4205294 L71.2544503,81.4734452 Z M69.3293842,87.578626 L68.6976185,87.3853376 L69.6601516,84.3330726 L70.2919172,84.526361 L69.3293842,87.578626 Z M67.4049796,93.6844576 L66.7732139,93.4911692 L67.7357469,90.4382534 L68.3675126,90.6315418 L67.4049796,93.6844576 Z M65.4805749,99.7896384 L64.8488092,99.59635 L65.8106808,96.5434342 L66.443108,96.7367226 L65.4805749,99.7896384 Z M63.5561703,105.89547 L62.9244046,105.702182 L63.8862762,102.648615 L64.5180419,102.841903 L63.5561703,105.89547 Z M61.6317657,112 L61,111.807362 L61.9618715,108.754447 L62.5936372,108.947735 L61.6317657,112 Z" id="Fill-15" fill="#313F4B"></path>
                        <polygon id="Fill-16" fill="#313F4B" points="95.5245536 16 95 15.7472119 95.4754464 14 96 14.2520446"></polygon>
                        <polygon id="Fill-17" fill="#313F4B" points="119.590015 99 118 98.3828624 118.409985 98 120 98.6171376"></polygon>
                        <path d="M50.73031,34.1222042 L49,31.3442263 L49.5575079,31 L51.2884745,33.7779779 L50.73031,34.1222042 Z M54.1915867,39.67816 L52.4606201,36.9001821 L53.0187846,36.5559558 L54.7490946,39.3339337 L54.1915867,39.67816 Z M57.6522068,45.234769 L55.9212401,42.4561379 L56.4794046,42.1112585 L58.2103713,44.8898896 L57.6522068,45.234769 Z M61.1128268,50.7907248 L59.3825168,48.0127469 L59.9406813,47.6678675 L61.6709914,50.4458454 L61.1128268,50.7907248 Z M64.5741036,56.3460275 L62.8431369,53.5680496 L63.4013014,53.2238233 L65.1316114,56.0018012 L64.5741036,56.3460275 Z M68.0347236,61.9026365 L66.3044136,59.1246586 L66.8619214,58.7804323 L68.5928881,61.5584102 L68.0347236,61.9026365 Z M71.4960003,67.4585923 L69.7650336,64.6806144 L70.3231982,64.3363881 L72.0535082,67.114366 L71.4960003,67.4585923 Z M75.9797031,72.215708 L73.4082063,70.5291952 L73.2256537,70.235917 L73.7844749,69.8929971 L73.9276277,70.1229167 L76.3356151,71.6670361 L75.9797031,72.215708 Z M81.5035619,75.7559479 L78.7416325,73.985828 L79.0975445,73.4371561 L81.8594739,75.207276 L81.5035619,75.7559479 Z M87.026764,79.296841 L84.2648346,77.5260679 L84.6207466,76.977396 L87.382676,78.7481691 L87.026764,79.296841 Z M92.5506228,82.8370809 L89.7886934,81.0669609 L90.1446054,80.5182891 L92.9065348,82.288409 L92.5506228,82.8370809 Z M98.073825,86.377974 L95.3118956,84.607854 L95.6678075,84.0591821 L98.4297369,85.8293021 L98.073825,86.377974 Z M103.597027,89.918867 L100.835754,88.1480939 L101.191666,87.599422 L103.952939,89.3701952 L103.597027,89.918867 Z M109.120229,93.4591069 L106.358957,91.688987 L106.714868,91.1403151 L109.476141,92.9104351 L109.120229,93.4591069 Z M114.644088,97 L111.882159,95.2298801 L112.238071,94.6812082 L115,96.4513281 L114.644088,97 Z" id="Fill-18" fill="#313F4B"></path>
                        <polygon id="Fill-19" fill="#313F4B" points="48.6077527 29 48 27.3974359 48.3922473 27 49 28.6025641"></polygon>
                        <g id="Group-65">
                            <path d="M139.333074,53.6053308 C139.333074,56.4073969 137.046962,58.6797449 134.226467,58.6797449 C131.405973,58.6797449 129.119861,56.4073969 129.119861,53.6053308 C129.119861,50.8026172 131.405973,48.5309167 134.226467,48.5309167 C137.046962,48.5309167 139.333074,50.8026172 139.333074,53.6053308" id="Fill-20" fill="#CDCDCD"></path>
                            <path d="M100.631629,10.3397339 C100.631629,13.1418 98.3455169,15.414148 95.5250225,15.414148 C92.7045281,15.414148 90.4184157,13.1418 90.4184157,10.3397339 C90.4184157,7.53702026 92.7045281,5.26531982 95.5250225,5.26531982 C98.3455169,5.26531982 100.631629,7.53702026 100.631629,10.3397339" id="Fill-22" fill="#10212F"></path>
                            <path d="M25.2318247,71.61037 C25.2318247,74.4130837 22.9457124,76.6847841 20.125218,76.6847841 C17.3047236,76.6847841 15.0186112,74.4130837 15.0186112,71.61037 C15.0186112,68.808304 17.3047236,66.5359559 20.125218,66.5359559 C22.9457124,66.5359559 25.2318247,68.808304 25.2318247,71.61037" id="Fill-24" fill="#10212F"></path>
                            <path d="M65.6640157,117.139961 C65.6640157,119.942027 63.3779034,122.214375 60.557409,122.214375 C57.7369146,122.214375 55.4508022,119.942027 55.4508022,117.139961 C55.4508022,114.337248 57.7369146,112.065547 60.557409,112.065547 C63.3779034,112.065547 65.6640157,114.337248 65.6640157,117.139961" id="Fill-26" fill="#10212F"></path>
                            <path d="M125.394371,100.132256 C125.394371,102.934969 123.108258,105.20667 120.287764,105.20667 C117.46727,105.20667 115.181157,102.934969 115.181157,100.132256 C115.181157,97.3301894 117.46727,95.0578414 120.287764,95.0578414 C123.108258,95.0578414 125.394371,97.3301894 125.394371,100.132256" id="Fill-28" fill="#10212F"></path>
                            <path d="M52.4050202,27.1780335 C52.4050202,29.9807471 50.1189079,32.2524476 47.2984135,32.2524476 C44.4779191,32.2524476 42.1918067,29.9807471 42.1918067,27.1780335 C42.1918067,24.3759674 44.4779191,22.1036194 47.2984135,22.1036194 C50.1189079,22.1036194 52.4050202,24.3759674 52.4050202,27.1780335" id="Fill-30" fill="#CDCDCD"></path>
                            <mask id="mask-2" fill="white">
                                <use xlink:href="#path-1"></use>
                            </mask>
                            <g id="Clip-33"></g>
                            <polygon id="Fill-32" fill="#EEEEEE" mask="url(#mask-2)" points="0.651685393 22.6153348 143.150517 22.6153348 143.150517 1.03677093 0.651685393 1.03677093"></polygon>
                            <path d="M1.30337079,123.920352 L142.522292,123.920352 L142.522292,1.68370044 L1.30337079,1.68370044 L1.30337079,123.920352 Z M143.173978,125.215507 L0.651685393,125.215507 C0.291955056,125.215507 0,124.92604 0,124.56793 L0,1.03677093 C0,0.678660793 0.291955056,0.389193833 0.651685393,0.389193833 L143.173978,0.389193833 C143.533708,0.389193833 143.825663,0.678660793 143.825663,1.03677093 L143.825663,124.56793 C143.825663,124.92604 143.533708,125.215507 143.173978,125.215507 L143.173978,125.215507 Z" id="Fill-34" fill="#000000" mask="url(#mask-2)"></path>
                            <path d="M135.099661,16.6181881 L36.1079978,16.6181881 C35.2673236,16.6181881 34.5863124,15.9408225 34.5863124,15.1060956 L34.5863124,8.86150969 C34.5863124,8.02613524 35.2673236,7.34941718 36.1079978,7.34941718 L135.099661,7.34941718 C135.940335,7.34941718 136.621346,8.02613524 136.621346,8.86150969 L136.621346,15.1060956 C136.621346,15.9408225 135.940335,16.6181881 135.099661,16.6181881" id="Fill-35" fill="#FFFFFF" mask="url(#mask-2)"></path>
                            <path d="M28.9754966,11.9839969 C28.9754966,14.2330322 27.1410022,16.0559617 24.8776989,16.0559617 C22.6143955,16.0559617 20.7799011,14.2330322 20.7799011,11.9839969 C20.7799011,9.73496167 22.6143955,7.91203216 24.8776989,7.91203216 C27.1410022,7.91203216 28.9754966,9.73496167 28.9754966,11.9839969" id="Fill-36" fill="#11212E" mask="url(#mask-2)"></path>
                            <path d="M14.5353213,11.9839969 C14.5353213,14.2330322 12.700827,16.0559617 10.4375236,16.0559617 C8.17422022,16.0559617 6.33972584,14.2330322 6.33972584,11.9839969 C6.33972584,9.73496167 8.17422022,7.91203216 10.4375236,7.91203216 C12.700827,7.91203216 14.5353213,9.73496167 14.5353213,11.9839969" id="Fill-37" fill="#8A8A8A" mask="url(#mask-2)"></path>
                            <path d="M0.651685393,22.61527 L143.173978,22.61527" id="Fill-38" fill="#FFFFFF" mask="url(#mask-2)"></path>
                            <path d="M143.174108,23.2628471 L0.65181573,23.2628471 C0.292085393,23.2628471 0.000130337079,22.9733802 0.000130337079,22.61527 C0.000130337079,22.2571599 0.292085393,21.967693 0.65181573,21.967693 L143.174108,21.967693 C143.533838,21.967693 143.825793,22.2571599 143.825793,22.61527 C143.825793,22.9733802 143.533838,23.2628471 143.174108,23.2628471" id="Fill-39" fill="#000000" mask="url(#mask-2)"></path>
                            <path d="M173.118596,116.735226 C173.118596,133.181741 159.701697,146.514058 143.150843,146.514058 C126.599989,146.514058 113.182438,133.181741 113.182438,116.735226 C113.182438,100.289358 126.599989,86.956393 143.150843,86.956393 C159.701697,86.956393 173.118596,100.289358 173.118596,116.735226" id="Fill-40" fill="#FFFFFF" mask="url(#mask-2)"></path>
                            <path d="M143.150582,87.4418815 C126.895593,87.4418815 113.671593,100.583163 113.671593,116.735031 C113.671593,132.887547 126.895593,146.028829 143.150582,146.028829 C159.405571,146.028829 172.629571,132.887547 172.629571,116.735031 C172.629571,100.583163 159.405571,87.4418815 143.150582,87.4418815 M143.150582,147.000194 C126.356649,147.000194 112.694065,133.423093 112.694065,116.735031 C112.694065,100.047617 126.356649,86.4705159 143.150582,86.4705159 C159.944515,86.4705159 173.607099,100.047617 173.607099,116.735031 C173.607099,133.423093 159.944515,147.000194 143.150582,147.000194" id="Fill-41" fill="#000000" mask="url(#mask-2)"></path>
                            <path d="M132.961937,118.614753 L152.417353,118.614753 L152.417353,112.948454 C152.417353,107.618894 148.053016,103.28207 142.689645,103.28207 C137.325622,103.28207 132.961937,107.618894 132.961937,112.948454 L132.961937,118.614753 Z M153.394881,119.586119 L131.984409,119.586119 L131.984409,112.948454 C131.984409,107.0827 136.786679,102.310705 142.689645,102.310705 C148.59196,102.310705 153.394881,107.0827 153.394881,112.948454 L153.394881,119.586119 Z" id="Fill-42" fill="#000000" mask="url(#mask-2)"></path>
                            <polygon id="Fill-43" fill="#000000" mask="url(#mask-2)" points="142.201011 102.796388 143.178539 102.796388 143.178539 99.1751366 142.201011 99.1751366"></polygon>
                            <path d="M142.689515,95.9944322 C141.942031,95.9944322 141.333357,96.5992692 141.333357,97.3420401 C141.333357,98.0854586 141.942031,98.689648 142.689515,98.689648 C143.436998,98.689648 144.045672,98.0854586 144.045672,97.3420401 C144.045672,96.5992692 143.436998,95.9944322 142.689515,95.9944322 M142.689515,99.6610137 C141.402436,99.6610137 140.355829,98.6210048 140.355829,97.3420401 C140.355829,96.0630753 141.402436,95.0230665 142.689515,95.0230665 C143.975942,95.0230665 145.0232,96.0630753 145.0232,97.3420401 C145.0232,98.6210048 143.975942,99.6610137 142.689515,99.6610137" id="Fill-44" fill="#000000" mask="url(#mask-2)"></path>
                            <polygon id="Fill-45" fill="#000000" mask="url(#mask-2)" points="145.54507 113.467033 144.744148 112.910765 147.191879 109.435866 147.992148 109.992782"></polygon>
                            <polygon id="Fill-46" fill="#000000" mask="url(#mask-2)" points="140.519011 113.467033 138.071281 109.992782 138.872202 109.435866 141.319933 112.910765"></polygon>
                            <polygon id="Fill-47" fill="#000000" mask="url(#mask-2)" points="150.946955 121.781146 135.401 121.781146 135.401 119.100177 136.378528 119.100177 136.378528 120.809781 149.969427 120.809781 149.969427 119.100177 150.946955 119.100177"></polygon>
                            <polygon id="Fill-48" fill="#000000" mask="url(#mask-2)" points="139.858202 123.496189 140.83573 123.496189 140.83573 121.295722 139.858202 121.295722"></polygon>
                            <polygon id="Fill-49" fill="#000000" mask="url(#mask-2)" points="145.307596 123.496189 146.285124 123.496189 146.285124 121.295722 145.307596 121.295722"></polygon>
                            <path d="M133.931124,133.086159 L152.416831,133.086159 L152.416831,123.981872 L133.931124,123.981872 L133.931124,133.086159 Z M132.953596,134.057524 L153.39436,134.057524 L153.39436,123.010507 L132.953596,123.010507 L132.953596,134.057524 Z" id="Fill-50" fill="#000000" mask="url(#mask-2)"></path>
                            <path d="M136.378854,129.250559 L138.483146,129.250559 L138.483146,127.008648 L136.378854,127.008648 L136.378854,129.250559 Z M135.401326,130.221925 L139.460674,130.221925 L139.460674,126.037282 L135.401326,126.037282 L135.401326,130.221925 Z" id="Fill-51" fill="#000000" mask="url(#mask-2)"></path>
                            <path d="M143.174108,138.447449 C139.789254,138.447449 137.035231,135.969819 137.035231,132.924264 L138.01276,132.924264 C138.01276,135.434273 140.328198,137.476084 143.174108,137.476084 C146.020018,137.476084 148.334804,135.434273 148.334804,132.924264 L149.312333,132.924264 C149.312333,135.969819 146.558962,138.447449 143.174108,138.447449" id="Fill-52" fill="#000000" mask="url(#mask-2)"></path>
                            <path d="M153.172461,130.229372 C152.99064,130.229372 152.883764,130.221601 152.867472,130.220306 L152.943067,129.251531 C153.175719,129.268368 158.690933,129.602518 161.312011,123.310011 L162.214596,123.682368 C160.703989,127.310095 158.253,128.896011 156.46282,129.587623 C154.99327,130.155548 153.731607,130.229372 153.172461,130.229372" id="Fill-53" fill="#000000" mask="url(#mask-2)"></path>
                            <path d="M162.933144,123.984463 C162.501076,123.984463 162.062492,123.911286 161.633683,123.755868 C159.659728,123.042238 158.637885,120.865084 159.356043,118.902925 L160.274267,119.23578 C159.740537,120.694123 160.500402,122.312419 161.967998,122.842784 C163.4382,123.377683 165.064807,122.620018 165.599189,121.161026 L166.517413,121.493233 C165.955009,123.028639 164.49002,123.984463 162.933144,123.984463" id="Fill-54" fill="#000000" mask="url(#mask-2)"></path>
                            <path d="M133.17582,130.229372 C132.616674,130.229372 131.355011,130.155548 129.885461,129.587623 C128.095281,128.896011 125.644292,127.310095 124.133685,123.682368 L125.03627,123.310011 C127.656697,129.603813 133.169955,129.26772 133.405213,129.251531 L133.480809,130.220306 C133.464517,130.221601 133.356989,130.229372 133.17582,130.229372" id="Fill-55" fill="#000000" mask="url(#mask-2)"></path>
                            <path d="M123.415137,123.984463 C121.858261,123.984463 120.393272,123.028639 119.830867,121.493233 L120.749092,121.161026 C121.283474,122.620018 122.912688,123.37574 124.380283,122.842784 C125.091272,122.586344 125.65889,122.06893 125.978867,121.387678 C126.298193,120.706427 126.332081,119.942286 126.073362,119.23578 L126.991587,118.902925 C127.339587,119.853568 127.29462,120.881273 126.864508,121.798242 C126.434396,122.714564 125.67062,123.410062 124.714598,123.755868 C124.285789,123.911286 123.847204,123.984463 123.415137,123.984463" id="Fill-56" fill="#000000" mask="url(#mask-2)"></path>
                            <path d="M168.187357,91.8566736 C168.187357,96.5619687 164.34893,100.37555 159.614436,100.37555 C154.87929,100.37555 151.040863,96.5619687 151.040863,91.8566736 C151.040863,87.1513784 154.87929,83.3377969 159.614436,83.3377969 C164.34893,83.3377969 168.187357,87.1513784 168.187357,91.8566736" id="Fill-57" fill="#FFFFFF" mask="url(#mask-2)"></path>
                            <path d="M159.61424,83.8232855 C155.156712,83.8232855 151.530083,87.427052 151.530083,91.8564793 C151.530083,96.2859066 155.156712,99.8903207 159.61424,99.8903207 C164.071769,99.8903207 167.698398,96.2859066 167.698398,91.8564793 C167.698398,87.427052 164.071769,83.8232855 159.61424,83.8232855 M159.61424,100.861686 C154.617769,100.861686 150.552555,96.8214529 150.552555,91.8564793 C150.552555,86.8915057 154.617769,82.8519198 159.61424,82.8519198 C164.610712,82.8519198 168.675926,86.8915057 168.675926,91.8564793 C168.675926,96.8214529 164.610712,100.861686 159.61424,100.861686" id="Fill-58" fill="#000000" mask="url(#mask-2)"></path>
                            <polygon id="Fill-59" fill="#E9212D" mask="url(#mask-2)" points="157.431355 95.6877396 155.733063 95.6877396 158.77513 91.7621273 155.923355 88.0256075 157.629467 88.0256075 159.614501 90.684559 161.599535 88.0256075 163.298479 88.0256075 160.45322 91.7621273 163.495939 95.6877396 161.790479 95.6877396 159.614501 92.834515"></polygon>
                            <path d="M72.4131303,101.078948 L72.4131303,101.078948 C86.9411528,101.078948 98.7190629,89.3759352 98.7190629,74.9388515 L98.7190629,45.3776048 C80.1812202,42.3955123 72.4131303,36.6055256 72.4131303,36.6055256 C72.4131303,36.6055256 64.6450404,42.3955123 46.1071978,45.3776048 L46.1071978,74.9388515 C46.1071978,89.3759352 57.8844562,101.078948 72.4131303,101.078948 Z" id="Fill-60" fill="#FFFFFF" mask="url(#mask-2)"></path>
                            <path d="M46.7587528,45.9273978 L46.7587528,74.9388515 C46.7587528,88.9958075 58.2668652,100.431371 72.413,100.431371 L72.413,100.431371 C86.5591348,100.431371 98.0672472,88.9958075 98.0672472,74.9388515 L98.0672472,45.9273978 C82.016236,43.2690938 74.1947079,38.5838736 72.413,37.3962172 C70.6312921,38.5838736 62.809764,43.2690938 46.7587528,45.9273978 M72.413,101.726526 C57.5487079,101.726526 45.455382,89.7094374 45.455382,74.9388515 L45.455382,45.3776048 C45.455382,45.0602921 45.687382,44.7889573 46.0027978,44.7384463 C64.1261685,41.8230542 71.9457416,36.1444507 72.0226404,36.0874639 C72.2539888,35.9165035 72.5726629,35.9152084 72.8033596,36.0874639 C72.8802584,36.1444507 80.6998315,41.8230542 98.8232022,44.7384463 C99.138618,44.7889573 99.370618,45.0602921 99.370618,45.3776048 L99.370618,74.9388515 C99.370618,89.7094374 87.2772921,101.726526 72.413,101.726526" id="Fill-61" fill="#000000" mask="url(#mask-2)"></path>
                            <path d="M72.3997708,47.9143586 C69.7265573,51.282407 57.3895011,67.2302881 57.3895011,74.6405128 C57.3895011,82.8647419 64.1227146,89.5561559 72.3997708,89.5561559 C80.676827,89.5561559 87.4106921,82.8647419 87.4106921,74.6405128 C87.4106921,67.2283454 75.073636,51.282407 72.3997708,47.9143586 M72.3997708,90.8513101 C63.4045573,90.8513101 56.0861303,83.5790194 56.0861303,74.6405128 C56.0861303,65.915059 71.2482427,47.2564203 71.8940629,46.4670238 C72.1417034,46.1633101 72.6578382,46.1633101 72.9054787,46.4670238 C73.5512989,47.2564203 88.7140629,65.915059 88.7140629,74.6405128 C88.7140629,83.5790194 81.395636,90.8513101 72.3997708,90.8513101" id="Fill-62" fill="#000000" mask="url(#mask-2)"></path>
                            <path d="M72.3997708,67.3208194 C70.5685348,69.6527445 64.4029393,77.7895507 64.4029393,81.6089604 C64.4029393,85.9911145 67.9904674,89.5560264 72.3997708,89.5560264 C76.8097258,89.5560264 80.3966022,85.9911145 80.3966022,81.6089604 C80.3966022,77.7895507 74.2310067,69.6527445 72.3997708,67.3208194 M72.3997708,90.8511806 C67.2716584,90.8511806 63.0995685,86.7053921 63.0995685,81.6089604 C63.0995685,76.6893172 71.5349843,66.3086564 71.8940629,65.8689515 C72.1417034,65.5652379 72.6578382,65.5652379 72.9054787,65.8689515 C73.2645573,66.3086564 81.699973,76.6893172 81.699973,81.6089604 C81.699973,86.7053921 77.5278831,90.8511806 72.3997708,90.8511806" id="Fill-63" fill="#000000" mask="url(#mask-2)"></path>
                            <path d="M72.3997708,78.0362128 C70.9067596,79.9627546 68.2752539,83.7180542 68.2752539,85.4574463 C68.2752539,87.7174903 70.1253888,89.5559617 72.3997708,89.5559617 C74.6741528,89.5559617 76.5242876,87.7174903 76.5242876,85.4574463 C76.5242876,83.716759 73.892782,79.962107 72.3997708,78.0362128 M72.3997708,90.8511159 C69.4072315,90.8511159 66.9718831,88.4317678 66.9718831,85.4574463 C66.9718831,82.6871115 71.3903101,77.1995432 71.8940629,76.5830498 C72.1417034,76.2793361 72.6578382,76.2793361 72.9054787,76.5830498 C73.4092315,77.1995432 77.8276584,82.6871115 77.8276584,85.4574463 C77.8276584,88.4317678 75.3923101,90.8511159 72.3997708,90.8511159" id="Fill-64" fill="#000000" mask="url(#mask-2)"></path>
                        </g>
                    </g>
                </g>
            </g>
        </g>
    </g>
</svg>