<?xml version="1.0" encoding="UTF-8"?>
<svg width="129px" height="37px" viewBox="0 0 129 37" version="1.1" xmlns="http://www.w3.org/2000/svg" xmlns:xlink="http://www.w3.org/1999/xlink">
    <!-- Generator: Sketch 55.2 (78181) - https://sketchapp.com -->
    <title>Group 18</title>
    <desc>Created with Sketch.</desc>
    <defs>
        <polygon id="path-1" points="0 0.0343617021 16.9590406 0.0343617021 16.9590406 16.933266 0 16.933266"></polygon>
        <polygon id="path-3" points="0 37 129 37 129 0 0 0"></polygon>
    </defs>
    <g id="BlackHat" stroke="none" stroke-width="1" fill="none" fill-rule="evenodd">
        <g id="Desktop-Copy-2" transform="translate(-100.000000, -355.000000)">
            <g id="Group-18" transform="translate(100.000000, 355.000000)">
                <path d="M81,21 L86.6182731,21 L86.6182731,26.6285324 L86.6642075,26.6285324 C87.2033421,25.8706079 88.8659484,24.8314156 91.5623535,24.8314156 C94.662652,24.8314156 97,26.1740951 97,29.4653705 L97,37 L91.3817269,37 L91.3817269,30.8729445 C91.3817269,29.3786095 90.5505153,28.729489 89.2239074,28.729489 C87.7415617,28.729489 86.6182731,29.5734691 86.6182731,31.5439316 L86.6182731,37 L81,37 L81,21 Z" id="Fill-1" fill="#C7C7C7"></path>
                <path d="M108.956903,31.0385167 C108.026086,31.2362952 106.453868,31.3685059 104.482779,31.5442494 C103.464867,31.6327481 102.978542,31.9623791 102.978542,32.7314583 C102.978542,33.5682551 103.663942,34.0951272 105.036545,34.0951272 C106.896917,34.0951272 108.956903,33.633823 108.956903,31.5668219 L108.956903,31.0385167 Z M97.9299152,28.1347187 C98.2622468,26.484235 98.9480075,25.4733071 100.320611,24.8353637 C101.671215,24.2194554 103.685761,24 106.609124,24 C112.254433,24 114.490774,25.2538517 114.490774,28.8389466 L114.490774,34.6454676 C114.490774,35.5709423 114.73619,36.1202078 115,36.5152275 L109.33143,36.5152275 C109.221614,36.1637406 109.155076,35.7680043 109.133798,35.3274812 C107.893551,36.4716947 106.010819,37 103.066178,37 C99.3470578,37 97,36.0100322 97,32.9299534 C97,30.7305625 98.5718579,29.3226442 102.667488,29.1461842 L107.339965,28.9274454 C108.446415,28.8609817 108.822925,28.5969187 108.822925,27.9374776 C108.822925,27.1458259 107.826291,26.7717664 106.254794,26.7717664 C104.992186,26.7717664 103.73012,26.9690075 103.464867,28.1347187 L97.9299152,28.1347187 Z" id="Fill-3" fill="#C7C7C7"></path>
                <path d="M115,24.8310433 L117.511767,24.8310433 L117.511767,21 L122.925184,21 L122.925184,24.8310433 L125.84782,24.8310433 L125.84782,28.2266643 L122.925184,28.2266643 L122.925184,32.4280649 C122.925184,33.5384274 123.380138,33.6038472 124.549792,33.6038472 C124.981645,33.6038472 125.479978,33.5825725 126,33.560234 L126,36.7383211 C125.04689,36.8691605 123.748333,37 122.059362,37 C118.768179,37 117.511767,36.368673 117.511767,33.1246343 L117.511767,28.2266643 L115,28.2266643 L115,24.8310433 Z" id="Fill-5" fill="#C7C7C7"></path>
                <path d="M37.0936831,18.9879279 C37.0936831,18.9879279 36.67986,17.9076723 36.1472969,17.4887867 C35.614027,17.0663193 36.3243467,17.0075787 36.3243467,17.0075787 C36.3243467,17.0075787 36.9763567,16.5881558 37.2120697,16.9459726 C37.2120697,16.9459726 35.9105236,14.6058366 36.2655068,13.5246856 C36.2655068,13.5246856 29.5135818,11.1256299 35.9105236,9.98412634 L36.3243467,6.5021287 C36.3243467,6.5021287 36.9763567,5.36134153 37.6857929,5.42151492 C37.6857929,5.42151492 42.1275884,5.24135292 42.7200516,5.36134153 L43.135465,5.48258374 C43.135465,5.48258374 43.1943049,5.24135292 44.3799382,5.42151492 C44.3799382,5.42151492 45.2669544,5.0015548 45.9772741,9.86270503 C45.9772741,9.86270503 53.2635292,11.0649192 45.6229977,13.5853962 C45.6229977,13.5853962 45.5046111,15.386658 44.7352747,16.5269079 C44.7352747,16.5269079 46.5108974,16.9459726 45.7408543,17.4271806 C45.7408543,17.4271806 45.0317714,18.0281981 44.9130314,18.9282917 C44.9130314,18.9282917 50.2757688,19.864561 51.1140168,21.4489479 C52.9182643,19.1881477 54,16.3105702 54,13.1761814 C54,5.89932028 48.178912,0 40.9999117,0 C33.8219715,0 28,5.89932028 28,13.1761814 C28,16.5695307 29.2681505,19.663804 31.3466309,22 C31.8657651,21.3533152 33.605165,19.5282348 37.0936831,18.9879279" id="Fill-7" fill="#C7C7C7"></path>
                <g id="Group-11" transform="translate(0.000000, 20.000000)">
                    <mask id="mask-2" fill="white">
                        <use xlink:href="#path-1"></use>
                    </mask>
                    <g id="Clip-10"></g>
                    <path d="M8.41370729,13.2024894 C10.5243635,13.2024894 11.3931344,12.0479362 11.3931344,10.4483085 C11.3931344,8.89461702 10.3922594,7.69611702 8.43637396,7.69611702 C6.32642604,7.69611702 5.43534271,8.73890426 5.43534271,10.4483085 C5.43534271,12.1808617 6.32642604,13.2024894 8.41370729,13.2024894 L8.41370729,13.2024894 Z M-5.3125e-05,0.0343617021 L5.43534271,0.0343617021 L5.43534271,5.67492553 L5.47890521,5.67492553 C6.41355104,4.52037234 7.97967604,3.96425532 10.1971135,3.96425532 C13.719301,3.96425532 16.9590406,5.94095745 16.9590406,10.4483085 C16.9590406,14.9571064 13.719301,16.933266 10.1971135,16.933266 C7.78364479,16.933266 6.28321771,16.3107766 5.30518646,15.1569468 L5.26162396,15.1569468 L5.26162396,16.4444255 L-5.3125e-05,16.4444255 L-5.3125e-05,0.0343617021 Z" id="Fill-9" fill="#C7C7C7" mask="url(#mask-2)"></path>
                </g>
                <mask id="mask-4" fill="white">
                    <use xlink:href="#path-3"></use>
                </mask>
                <g id="Clip-13"></g>
                <polygon id="Fill-12" fill="#C7C7C7" mask="url(#mask-4)" points="18 36 23 36 23 20 18 20"></polygon>
                <path d="M35.9561833,31.038681 C35.0259354,31.2369915 33.4539444,31.3691985 31.4845379,31.5454746 C30.4650338,31.6330752 29.9781818,31.9630553 29.9781818,32.7326508 C29.9781818,33.5685288 30.6655447,34.096103 32.0375657,34.096103 C33.8978813,34.096103 35.9561833,33.6344532 35.9561833,31.5669717 L35.9561833,31.038681 Z M24.9307889,28.1355005 C25.2618482,26.4855997 25.9488505,25.4736247 27.3219534,24.8356989 C28.6716153,24.2198076 30.6866416,24 33.6100977,24 C39.255417,24 41.4918708,25.2547128 41.4918708,28.839709 L41.4918708,34.6460699 C41.4918708,35.5704443 41.7342149,36.1207695 42,36.5157783 L36.3332231,36.5157783 C36.2217881,36.1637636 36.1548911,35.7685757 36.1336138,35.3280647 C34.8932231,36.4722467 33.0123516,37 30.0672577,37 C26.3466266,37 24,36.010597 24,32.930603 C24,30.7312727 25.5725319,29.3228558 29.6676784,29.146938 L34.3398347,28.9273096 C35.4462509,28.861206 35.8236514,28.5971503 35.8236514,27.9377274 C35.8236514,27.1460975 34.8266867,26.7720483 33.2552367,26.7720483 C31.9935687,26.7720483 30.7309992,26.9698214 30.4650338,28.1355005 L24.9307889,28.1355005 Z" id="Fill-14" fill="#C7C7C7" mask="url(#mask-4)"></path>
                <path d="M54.191481,29.3228558 C54.1254074,28.5756532 53.7701265,28.1136451 53.1494679,27.8055203 C52.6398347,27.5412854 51.8637408,27.4314712 51.154262,27.4314712 C48.6734332,27.4314712 47.8076163,28.7951025 47.8076163,30.4009343 C47.8076163,32.2484291 48.9148004,33.4368592 51.110935,33.4368592 C52.6625814,33.4368592 53.8150782,32.9967065 54.191481,31.4347646 L60,31.4347646 C59.4223074,36.4281777 54.9015014,37 51.0876468,37 C45.9900508,37 42,35.4608092 42,30.4673961 C42,25.5402657 45.9900508,24 51.0876468,24 C56.2982539,24 59.4006439,25.3199206 60,29.3228558 L54.191481,29.3228558 Z" id="Fill-15" fill="#C7C7C7" mask="url(#mask-4)"></path>
                <polygon id="Fill-16" fill="#C7C7C7" mask="url(#mask-4)" points="61 20 66.3397514 20 66.3397514 27.9893318 70.3757839 24.1565403 77.4657118 24.1565403 72.1478746 28.5733494 78 36 70.7808481 36 68.0057497 32.0164431 66.3397514 33.4026031 66.3397514 36 61 36"></polygon>
                <path d="M127.081913,21.4396265 L127.460354,21.4396265 C127.789646,21.4396265 128.0231,21.4114467 128.0231,21.1016329 C128.0231,20.8280269 127.846166,20.7477473 127.604849,20.7477473 L127.081913,20.7477473 L127.081913,21.4396265 Z M126.921199,20.6107804 L127.604849,20.6107804 C127.954456,20.6107804 128.183322,20.7156354 128.183322,21.1016329 C128.183322,21.4114467 128.007372,21.5318661 127.728866,21.5765933 L128.264417,22.3884004 L128.078473,22.3884004 L127.543906,21.5765933 L127.081913,21.5765933 L127.081913,22.3884004 L126.921199,22.3884004 L126.921199,20.6107804 Z M127.499672,22.8387854 C128.24017,22.8387854 128.838794,22.2402927 128.838794,21.4990989 C128.838794,20.7598711 128.24017,20.1602316 127.499672,20.1602316 C126.759993,20.1602316 126.16137,20.7598711 126.16137,21.4990989 C126.16137,22.2402927 126.759993,22.8387854 127.499672,22.8387854 L127.499672,22.8387854 Z M127.499672,20 C128.328309,20 129,20.6717274 129,21.4990989 C129,22.328928 128.328309,23 127.499672,23 C126.670872,23 126,22.328928 126,21.4990989 C126,20.6717274 126.670872,20 127.499672,20 L127.499672,20 Z" id="Fill-17" fill="#C7C7C7" mask="url(#mask-4)"></path>
            </g>
        </g>
    </g>
</svg>