<?xml version="1.0" encoding="utf-8"?>
<!-- Generator: Adobe Illustrator 23.0.3, SVG Export Plug-In . SVG Version: 6.00 Build 0)  -->
<svg version="1.1" id="Layer_1" xmlns="http://www.w3.org/2000/svg" xmlns:xlink="http://www.w3.org/1999/xlink" x="0px" y="0px"
	 viewBox="0 0 872 987" style="enable-background:new 0 0 872 987;" xml:space="preserve">
<style type="text/css">
	.st0{fill:#8C8689;}
	.st1{fill:#A7A7AB;}
	.st2{fill:#D7D8DA;}
	.st3{fill:#E5E6E7;}
	.st4{fill:#FFFFFF;}
	.st5{fill:url(#SVGID_1_);}
	.st6{fill:none;stroke:#FFFFFF;stroke-width:7.4237;stroke-linecap:round;stroke-miterlimit:10;}
	.st7{fill:url(#SVGID_2_);}
	.st8{fill:none;stroke:#FFFFFF;stroke-width:2.1521;stroke-miterlimit:10;}
	.st9{fill:#231F20;}
	.st10{fill:url(#SVGID_3_);}
	.st11{fill:#EC1C24;}
	.st12{fill:#211E1F;}
	.st13{opacity:0.43;fill:#87A73E;}
	.st14{fill:#67696A;}
	.st15{fill:#5B5C5E;}
	.st16{opacity:0.66;fill:#7D7D7D;}
	.st17{fill:url(#SVGID_4_);}
	.st18{fill:url(#SVGID_5_);}
	.st19{fill:#CC202F;}
	.st20{fill:#7D7D7D;}
	.st21{opacity:0.16;fill:#FFFFFF;}
	.st22{opacity:0.16;}
	.st23{fill:url(#SVGID_6_);}
	.st24{fill:url(#SVGID_7_);}
	.st25{fill:url(#SVGID_8_);}
	.st26{fill:url(#SVGID_9_);}
	.st27{fill:url(#SVGID_10_);}
	.st28{fill:url(#SVGID_11_);}
	.st29{fill:url(#SVGID_12_);}
	.st30{fill:url(#SVGID_13_);}
	.st31{fill:url(#SVGID_14_);}
	.st32{fill:url(#SVGID_15_);}
	.st33{fill:url(#SVGID_16_);}
	.st34{fill:url(#SVGID_17_);}
	.st35{fill:url(#SVGID_18_);}
	.st36{fill:url(#SVGID_19_);}
	.st37{fill:url(#SVGID_20_);}
	.st38{fill:url(#SVGID_21_);}
	.st39{fill:url(#SVGID_22_);}
	.st40{fill:url(#SVGID_23_);}
	.st41{fill:url(#SVGID_24_);}
	.st42{fill:url(#SVGID_25_);}
	.st43{fill:url(#SVGID_26_);}
	.st44{fill:url(#SVGID_27_);}
	.st45{fill:url(#SVGID_28_);}
	.st46{fill:url(#SVGID_29_);}
	.st47{fill:url(#SVGID_30_);}
	.st48{fill:url(#SVGID_31_);}
	.st49{fill:url(#SVGID_32_);}
	.st50{fill:url(#SVGID_33_);}
	.st51{fill:url(#SVGID_34_);}
	.st52{fill:url(#SVGID_35_);}
	.st53{fill:url(#SVGID_36_);}
	.st54{fill:url(#SVGID_37_);}
	.st55{fill:url(#SVGID_38_);}
	.st56{fill:url(#SVGID_39_);}
	.st57{fill:url(#SVGID_40_);}
	.st58{fill:url(#SVGID_41_);}
	.st59{fill:url(#SVGID_42_);}
	.st60{fill:url(#SVGID_43_);}
	.st61{fill:url(#SVGID_44_);}
	.st62{fill:url(#SVGID_45_);}
	.st63{fill:url(#SVGID_46_);}
	.st64{fill:url(#SVGID_47_);}
	.st65{fill:url(#SVGID_48_);}
	.st66{fill:url(#SVGID_49_);}
	.st67{fill:url(#SVGID_50_);}
	.st68{fill:url(#SVGID_51_);}
	.st69{fill:url(#SVGID_52_);}
	.st70{fill:url(#SVGID_53_);}
	.st71{fill:url(#SVGID_54_);}
	.st72{fill:url(#SVGID_55_);}
	.st73{fill:url(#SVGID_56_);}
	.st74{fill:url(#SVGID_57_);}
	.st75{fill:url(#SVGID_58_);}
	.st76{fill:url(#SVGID_59_);}
	.st77{fill:url(#SVGID_60_);}
	.st78{fill:url(#SVGID_61_);}
	.st79{fill:url(#SVGID_62_);}
	.st80{fill:url(#SVGID_63_);}
	.st81{fill:url(#SVGID_64_);}
	.st82{fill:url(#SVGID_65_);}
	.st83{fill:url(#SVGID_66_);}
	.st84{fill:url(#SVGID_67_);}
	.st85{fill:url(#SVGID_68_);}
	.st86{fill:url(#SVGID_69_);}
	.st87{fill:url(#SVGID_70_);}
	.st88{fill:url(#SVGID_71_);}
	.st89{fill:url(#SVGID_72_);}
	.st90{fill:url(#SVGID_73_);}
	.st91{fill:url(#SVGID_74_);}
	.st92{fill:url(#SVGID_75_);}
	.st93{fill:url(#SVGID_76_);}
	.st94{fill:url(#SVGID_77_);}
	.st95{fill:url(#SVGID_78_);}
	.st96{fill:url(#SVGID_79_);}
	.st97{fill:url(#SVGID_80_);}
	.st98{fill:url(#SVGID_81_);}
	.st99{fill:url(#SVGID_82_);}
	.st100{fill:url(#SVGID_83_);}
	.st101{fill:url(#SVGID_84_);}
	.st102{fill:url(#SVGID_85_);}
	.st103{fill:url(#SVGID_86_);}
	.st104{fill:url(#SVGID_87_);}
	.st105{fill:url(#SVGID_88_);}
	.st106{fill:url(#SVGID_89_);}
	.st107{fill:url(#SVGID_90_);}
	.st108{fill:url(#SVGID_91_);}
	.st109{fill:url(#SVGID_92_);}
	.st110{fill:url(#SVGID_93_);}
	.st111{fill:url(#SVGID_94_);}
	.st112{fill:url(#SVGID_95_);}
	.st113{fill:url(#SVGID_96_);}
	.st114{fill:url(#SVGID_97_);}
	.st115{fill:url(#SVGID_98_);}
	.st116{fill:url(#SVGID_99_);}
	.st117{fill:url(#SVGID_100_);}
	.st118{fill:url(#SVGID_101_);}
	.st119{fill:url(#SVGID_102_);}
	.st120{fill:url(#SVGID_103_);}
	.st121{fill:url(#SVGID_104_);}
	.st122{fill:url(#SVGID_105_);}
	.st123{fill:url(#SVGID_106_);}
	.st124{fill:url(#SVGID_107_);}
	.st125{fill:url(#SVGID_108_);}
	.st126{fill:url(#SVGID_109_);}
	.st127{fill:url(#SVGID_110_);}
	.st128{fill:url(#SVGID_111_);}
	.st129{fill:url(#SVGID_112_);}
	.st130{fill:url(#SVGID_113_);}
	.st131{fill:url(#SVGID_114_);}
	.st132{fill:url(#SVGID_115_);}
	.st133{fill:url(#SVGID_116_);}
	.st134{fill:url(#SVGID_117_);}
	.st135{fill:url(#SVGID_118_);}
	.st136{fill:url(#SVGID_119_);}
	.st137{fill:url(#SVGID_120_);}
	.st138{clip-path:url(#SVGID_122_);}
	.st139{stroke:#000000;stroke-width:0.5;stroke-miterlimit:10;}
	.st140{fill:#EC1C24;stroke:#EC1C24;stroke-miterlimit:10;}
	.st141{clip-path:url(#SVGID_124_);}
	.st142{fill:#E4E4E4;}
	.st143{fill:#E7222E;}
	.st144{fill:#606161;}
	.st145{fill:none;stroke:#EC1C24;stroke-linecap:round;stroke-linejoin:round;stroke-miterlimit:10;}
	.st146{clip-path:url(#SVGID_126_);fill:none;stroke:#EC1C24;stroke-linecap:round;stroke-linejoin:round;stroke-miterlimit:10;}
	.st147{clip-path:url(#SVGID_128_);fill:none;stroke:#EC1C24;stroke-linecap:round;stroke-linejoin:round;stroke-miterlimit:10;}
	.st148{clip-path:url(#SVGID_130_);}
	.st149{fill:none;}
	.st150{clip-path:url(#SVGID_132_);}
	.st151{clip-path:url(#SVGID_134_);}
	.st152{fill:#A5A3A3;}
	.st153{fill:#E3E5E5;}
	.st154{fill:#1A1A1C;}
	.st155{fill-rule:evenodd;clip-rule:evenodd;}
	.st156{clip-path:url(#SVGID_138_);}
	.st157{fill:#EAEAEE;}
	.st158{fill:#EEEFEF;}
	.st159{fill:#D2D2D2;}
	.st160{fill:#EA2127;}
	.st161{fill:none;stroke:#EAEAEE;stroke-width:1.2273;stroke-miterlimit:10;}
	.st162{fill:#A4A6AA;}
	.st163{fill:url(#SVGID_141_);}
	.st164{fill:url(#SVGID_142_);}
	.st165{fill:url(#SVGID_143_);}
	.st166{fill:url(#SVGID_144_);}
	.st167{opacity:0.44;fill:#505D64;}
	.st168{fill:url(#SVGID_145_);}
	.st169{fill:url(#SVGID_146_);}
	.st170{fill:url(#SVGID_147_);}
	.st171{fill:url(#SVGID_148_);}
	.st172{fill:#99AEB8;}
	.st173{fill:url(#SVGID_149_);}
	.st174{fill:#434345;}
	.st175{fill:url(#SVGID_150_);}
	.st176{fill:url(#SVGID_151_);}
	.st177{fill:url(#SVGID_152_);}
	.st178{fill:url(#SVGID_153_);}
	.st179{fill:url(#SVGID_154_);}
	.st180{opacity:0.25;fill:#4E0A32;}
	.st181{fill:url(#SVGID_155_);}
	.st182{fill:url(#SVGID_156_);}
	.st183{fill:url(#SVGID_157_);}
	.st184{fill-rule:evenodd;clip-rule:evenodd;fill:url(#SVGID_158_);}
	.st185{fill:url(#SVGID_159_);}
	.st186{fill:url(#SVGID_160_);}
	.st187{fill-rule:evenodd;clip-rule:evenodd;fill:url(#SVGID_161_);}
	.st188{fill:url(#SVGID_162_);}
	.st189{opacity:0.35;fill:#221F1F;}
	.st190{fill:url(#SVGID_163_);}
	.st191{fill:#221F1F;}
	.st192{fill:url(#SVGID_164_);}
	.st193{fill:url(#SVGID_165_);}
	.st194{fill:url(#SVGID_166_);}
	.st195{fill:url(#SVGID_167_);}
	.st196{fill:url(#SVGID_168_);}
	.st197{fill:url(#SVGID_169_);}
	.st198{opacity:0.31;fill:#FFFFFF;}
	.st199{opacity:0.4;fill:#FFFFFF;}
	.st200{fill:#101C20;}
	.st201{fill:url(#SVGID_170_);}
	.st202{fill:url(#SVGID_171_);}
	.st203{fill:url(#SVGID_172_);}
	.st204{fill:url(#SVGID_173_);}
	.st205{fill:url(#SVGID_174_);}
	.st206{fill:#8A9AA1;}
	.st207{fill:url(#SVGID_175_);}
	.st208{fill:url(#SVGID_176_);}
	.st209{fill:#4A4545;}
	.st210{fill:url(#SVGID_177_);}
	.st211{fill:url(#SVGID_178_);}
	.st212{fill-rule:evenodd;clip-rule:evenodd;fill:url(#SVGID_179_);}
	.st213{opacity:0.37;fill:#39393C;}
	.st214{fill:url(#SVGID_180_);}
	.st215{fill:url(#SVGID_181_);}
	.st216{fill:url(#SVGID_182_);}
	.st217{fill:url(#SVGID_183_);}
	.st218{fill:url(#SVGID_184_);}
	.st219{fill:url(#SVGID_185_);}
	.st220{fill:url(#SVGID_186_);}
	.st221{fill:url(#SVGID_187_);}
	.st222{fill:url(#SVGID_188_);}
	.st223{fill:url(#SVGID_189_);}
	.st224{fill-rule:evenodd;clip-rule:evenodd;fill:url(#SVGID_190_);}
	.st225{opacity:0.25;}
	.st226{opacity:0.45;}
	.st227{fill:#65767E;}
	.st228{fill:url(#SVGID_191_);}
	.st229{fill:url(#SVGID_192_);}
	.st230{fill:url(#SVGID_193_);}
	.st231{opacity:0.4;fill:#8A9AA1;}
	.st232{opacity:0.25;fill:#FFFFFF;}
	.st233{opacity:0.7;fill:#FFFFFF;}
	.st234{fill:#4D4D4F;}
	.st235{fill:url(#SVGID_194_);}
	.st236{opacity:0.77;fill:#221F1F;}
	.st237{fill:url(#SVGID_195_);}
	.st238{opacity:0.3;fill:#FFFFFF;}
	.st239{opacity:0.55;}
	.st240{fill:#5C090D;}
	.st241{fill:url(#SVGID_196_);}
	.st242{opacity:0.55;fill:#555F65;}
	.st243{opacity:0.25;fill:#52585D;}
	.st244{opacity:0.25;fill:#BBE5F5;}
	.st245{fill:#BBE5F5;}
	.st246{fill:url(#SVGID_197_);}
	.st247{fill-rule:evenodd;clip-rule:evenodd;fill:url(#SVGID_198_);}
	.st248{opacity:0.21;fill:#1E386A;}
	.st249{fill:url(#SVGID_199_);}
	.st250{fill:url(#SVGID_200_);}
	.st251{fill:url(#SVGID_201_);}
	.st252{fill:url(#SVGID_202_);}
	.st253{fill:url(#SVGID_203_);}
	.st254{fill:url(#SVGID_204_);}
	.st255{opacity:0.31;fill:#054E5E;}
	.st256{fill:#133750;}
	.st257{opacity:0.31;fill:#CCEBFB;}
	.st258{fill:#CCEBFB;}
	.st259{opacity:0.35;fill:#FFFFFF;}
	.st260{fill:#1A2855;}
	.st261{fill:url(#SVGID_205_);}
	.st262{fill:url(#SVGID_206_);}
	.st263{fill:url(#SVGID_207_);}
	.st264{fill:url(#SVGID_208_);}
	.st265{fill:url(#SVGID_209_);}
	.st266{fill:url(#SVGID_210_);}
	.st267{fill:url(#SVGID_211_);}
	.st268{fill:url(#SVGID_212_);}
	.st269{fill:url(#SVGID_213_);}
	.st270{fill:url(#SVGID_214_);}
	.st271{fill:url(#SVGID_215_);}
	.st272{fill:url(#SVGID_216_);}
	.st273{fill:url(#SVGID_217_);}
	.st274{fill:url(#SVGID_218_);}
	.st275{fill:url(#SVGID_219_);}
	.st276{fill:url(#SVGID_220_);}
	.st277{fill-rule:evenodd;clip-rule:evenodd;fill:url(#SVGID_221_);}
	.st278{fill:url(#SVGID_222_);}
	.st279{fill:url(#SVGID_223_);}
	.st280{fill-rule:evenodd;clip-rule:evenodd;fill:url(#SVGID_224_);}
	.st281{fill:url(#SVGID_225_);}
	.st282{fill:url(#SVGID_226_);}
	.st283{fill:url(#SVGID_227_);}
	.st284{fill:url(#SVGID_228_);}
	.st285{fill:url(#SVGID_229_);}
	.st286{fill:url(#SVGID_230_);}
	.st287{fill:url(#SVGID_231_);}
	.st288{fill:url(#SVGID_232_);}
	.st289{fill:url(#SVGID_233_);}
	.st290{fill:url(#SVGID_234_);}
	.st291{fill:url(#SVGID_235_);}
	.st292{fill:url(#SVGID_236_);}
	.st293{fill:url(#SVGID_237_);}
	.st294{fill:url(#SVGID_238_);}
	.st295{fill:url(#SVGID_239_);}
	.st296{fill:url(#SVGID_240_);}
	.st297{fill:url(#SVGID_241_);}
	.st298{fill-rule:evenodd;clip-rule:evenodd;fill:url(#SVGID_242_);}
	.st299{fill:url(#SVGID_243_);}
	.st300{fill:url(#SVGID_244_);}
	.st301{fill:url(#SVGID_245_);}
	.st302{fill:url(#SVGID_246_);}
	.st303{fill:url(#SVGID_247_);}
	.st304{fill:url(#SVGID_248_);}
	.st305{fill:url(#SVGID_249_);}
	.st306{fill:url(#SVGID_250_);}
	.st307{fill:url(#SVGID_251_);}
	.st308{fill:url(#SVGID_252_);}
	.st309{fill-rule:evenodd;clip-rule:evenodd;fill:url(#SVGID_253_);}
	.st310{fill:url(#SVGID_254_);}
	.st311{fill:url(#SVGID_255_);}
	.st312{fill:url(#SVGID_256_);}
	.st313{fill:url(#SVGID_257_);}
	.st314{fill:url(#SVGID_258_);}
	.st315{fill:url(#SVGID_259_);}
	.st316{fill-rule:evenodd;clip-rule:evenodd;fill:url(#SVGID_260_);}
	.st317{fill:url(#SVGID_261_);}
	.st318{fill:url(#SVGID_262_);}
	.st319{fill:url(#SVGID_263_);}
	.st320{fill:url(#SVGID_264_);}
	.st321{fill:url(#SVGID_265_);}
	.st322{fill:url(#SVGID_266_);}
	.st323{fill:url(#SVGID_267_);}
	.st324{fill:#B21217;}
	.st325{fill:#4A4C4C;}
	.st326{fill:url(#SVGID_268_);}
	.st327{fill:#070000;}
	.st328{fill:url(#SVGID_269_);}
</style>
<g>
	
		<linearGradient id="SVGID_1_" gradientUnits="userSpaceOnUse" x1="-5190.5132" y1="-246.062" x2="-5198.772" y2="-187.146" gradientTransform="matrix(-0.9955 -9.473650e-02 -9.473650e-02 0.9955 -5000.0361 -57.9888)">
		<stop  offset="0" style="stop-color:#B2B4B7"/>
		<stop  offset="1" style="stop-color:#50575D"/>
	</linearGradient>
	<path class="st5" d="M136.4,198c60-1.4,88.5-3.4,96.5-5.8c1.4-0.4,7.2-2.4,10.4,0.4c2.1,1.8,2.3,4.9,2.2,7.1
		c-4.9,11.3-9.9,22.6-14.8,33.9c-7.4-1.8-15.4-3.3-23.8-4.6c-24.8-3.6-47.1-3.4-65.7-1.6c-1.3-3.5-2.5-7.7-3.4-12.5
		C136.5,208.4,136.3,202.7,136.4,198z"/>
	
		<linearGradient id="SVGID_2_" gradientUnits="userSpaceOnUse" x1="-5154.9565" y1="-211.2963" x2="-5053.5347" y2="-211.2963" gradientTransform="matrix(-0.9955 -9.473650e-02 -9.473650e-02 0.9955 -5000.0361 -57.9888)">
		<stop  offset="0" style="stop-color:#B2B4B7"/>
		<stop  offset="1" style="stop-color:#50575D"/>
	</linearGradient>
	<path class="st7" d="M144.4,193c1.2,2,2.4,4.2,3.4,6.7c5.6,13.5,3.7,26.4,2,33.7c-5.6,2.5-12,4.7-19.1,6.3
		c-32.7,7.1-60.7-4.6-73.5-11c-1.7-2-4.6-6.2-5.8-12.1c-0.9-4.4-0.6-8.1-0.2-10.4c8.3-0.5,16.9-1.3,25.6-2.2
		C101.1,201.4,123.7,197.5,144.4,193z"/>
	<path class="st167" d="M54.9,218.8c3.8,1.2,7.8,2.2,12,3.1c32.6,6.5,61.6-2.2,80.4-10.5c0.3,2.4,0.6,5,0.8,7.8
		c0.3,4.5,0.2,8.6,0,12.3c-6.6,3.1-14.9,6-24.6,7.7c-30.4,5.2-55.3-5.7-66-11.3C56.6,224.9,55.8,221.8,54.9,218.8z"/>
	
		<linearGradient id="SVGID_3_" gradientUnits="userSpaceOnUse" x1="-5238.5547" y1="-182.4325" x2="-5245.7349" y2="-131.2139" gradientTransform="matrix(-0.9955 -9.473650e-02 -9.473650e-02 0.9955 -5000.0361 -57.9888)">
		<stop  offset="0" style="stop-color:#B2B4B7"/>
		<stop  offset="1" style="stop-color:#50575D"/>
	</linearGradient>
	<path class="st10" d="M185.3,264.7c52.2-1.2,77-3,83.9-5.1c1.2-0.4,6.2-2.1,9,0.4c1.8,1.6,2,4.3,1.9,6.2
		c-4.3,9.8-8.6,19.6-12.9,29.4c-6.5-1.5-13.4-2.9-20.7-4c-21.5-3.2-40.9-2.9-57.1-1.4c-1.1-3-2.2-6.7-3-10.8
		C185.3,273.8,185.2,268.7,185.3,264.7z"/>
	
		<linearGradient id="SVGID_4_" gradientUnits="userSpaceOnUse" x1="-5207.6436" y1="-152.209" x2="-5119.4731" y2="-152.209" gradientTransform="matrix(-0.9955 -9.473650e-02 -9.473650e-02 0.9955 -5000.0361 -57.9888)">
		<stop  offset="0" style="stop-color:#B2B4B7"/>
		<stop  offset="1" style="stop-color:#50575D"/>
	</linearGradient>
	<path class="st17" d="M192.2,260.4c1.1,1.7,2.1,3.7,3,5.8c4.9,11.7,3.3,23,1.7,29.3c-4.8,2.2-10.4,4.1-16.6,5.5
		c-28.4,6.2-52.8-4-63.9-9.6c-1.4-1.8-4-5.3-5-10.5c-0.8-3.8-0.5-7-0.1-9.1c7.2-0.5,14.7-1.1,22.3-1.9
		C154.6,267.6,174.2,264.3,192.2,260.4z"/>
	<path class="st167" d="M114.4,282.8c3.3,1,6.8,1.9,10.5,2.7c28.4,5.7,53.6-1.9,69.9-9.1c0.3,2.1,0.5,4.4,0.7,6.8
		c0.2,3.9,0.2,7.5,0,10.7c-5.8,2.7-13,5.2-21.4,6.7c-26.4,4.5-48.1-5-57.4-9.8C115.9,288,115.2,285.4,114.4,282.8z"/>
	
		<linearGradient id="SVGID_5_" gradientUnits="userSpaceOnUse" x1="-4916.3252" y1="55.6457" x2="-4921.5552" y2="92.9546" gradientTransform="matrix(-0.9939 0.1107 0.1107 0.9939 -4648.7324 787.3884)">
		<stop  offset="0" style="stop-color:#B2B4B7"/>
		<stop  offset="1" style="stop-color:#50575D"/>
	</linearGradient>
	<path class="st18" d="M211.3,311.3c37-8.6,54.4-13.6,59.1-16.1c0.8-0.4,4.1-2.4,6.5-1.1c1.5,0.8,2.1,2.8,2.3,4.1
		c-1.6,7.6-3.2,15.3-4.8,22.9c-4.8-0.1-10-0.1-15.4,0.2c-15.8,1-29.6,4-41,7.5c-1.2-2-2.6-4.4-3.7-7.3
		C212.7,317.8,211.8,314.2,211.3,311.3z"/>
	
		<linearGradient id="SVGID_6_" gradientUnits="userSpaceOnUse" x1="-4893.8086" y1="77.6613" x2="-4829.583" y2="77.6613" gradientTransform="matrix(-0.9939 0.1107 0.1107 0.9939 -4648.7324 787.3884)">
		<stop  offset="0" style="stop-color:#B2B4B7"/>
		<stop  offset="1" style="stop-color:#50575D"/>
	</linearGradient>
	<path class="st23" d="M215.6,307.2c1,1.1,2,2.3,3,3.7c5.2,7.6,5.7,15.9,5.6,20.6c-3.1,2.3-6.8,4.5-11,6.4c-19.3,8.6-38.2,5-47,2.7
		c-1.3-1.1-3.6-3.2-5.2-6.8c-1.1-2.6-1.4-4.9-1.5-6.4c5.1-1.4,10.3-3,15.6-4.7C189.8,318,203.3,312.7,215.6,307.2z"/>
	<path class="st167" d="M163.4,334.7c2.5,0.2,5.1,0.4,7.9,0.3c21.1-0.2,37.9-9.4,48.5-16.9c0.5,1.5,1,3,1.5,4.7
		c0.8,2.7,1.3,5.3,1.6,7.6c-3.7,2.8-8.5,5.7-14.3,7.9c-18.2,7.1-35,3.6-42.4,1.5C165.3,338.3,164.3,336.5,163.4,334.7z"/>
	<path class="st172" d="M488.4,433.4c-1.2,38.2,13.1,54.2,19.3,59.2c31.7,26,95.6-0.8,114.4-9.7c8.6-4.1,15.1-7.9,21.3-11.6
		c11.1-6.6,20.6-12.3,37.5-15.7c10.9-2.2,112.2,10.2,123.7,11l-0.7,7.2c-10.7-0.7-111.4-13.2-121.6-11.1
		c-15.6,3.2-24.3,8.3-35.2,14.8c-6.1,3.6-12.9,7.7-21.9,11.9c-14.7,6.9-55.5,24.2-89.9,20.9c-12-1.1-23.1-4.8-32.1-12.2
		c-8.7-7.2-23.1-25.1-21.9-65L488.4,433.4z"/>
	
		<linearGradient id="SVGID_7_" gradientUnits="userSpaceOnUse" x1="-5828.0811" y1="-101.7615" x2="-5656.4463" y2="-101.7615" gradientTransform="matrix(-0.9955 -9.473650e-02 -9.473650e-02 0.9955 -5000.0361 -57.9888)">
		<stop  offset="0" style="stop-color:#383F42"/>
		<stop  offset="1" style="stop-color:#879096"/>
	</linearGradient>
	<path class="st24" d="M640.4,378.3c0.9-7.7,1.9-15.5,2.8-23.2c22.9,4.7,138.5,24.4,165.8,33.6c0.9,0.3,1.8,0.6,2.7,0.9l-2.4,24.7
		c-6.8-3.2-104.2-19.4-111.9-22.2C676.1,384.4,656.5,380.4,640.4,378.3z"/>
	<path class="st174" d="M568.9,345c12.8,5.7,22.3,11.4,28.2,15.2c43.4,28,51.1,58.2,87.1,86c7.1,5.5,106.7,25.1,119.3,31.2
		l-2.4,25.1c-34.4-7.8-144.4-35.4-156.5-48.3c-16.5-17.6-24.2-36.8-52.3-64.4c-12.2-12-23.8-19.9-31.3-24.6
		C563.6,358.4,566.2,351.7,568.9,345z"/>
	
		<linearGradient id="SVGID_8_" gradientUnits="userSpaceOnUse" x1="-5828.0811" y1="-63.6124" x2="-5574.5479" y2="-63.6124" gradientTransform="matrix(-0.9955 -9.473650e-02 -9.473650e-02 0.9955 -5000.0361 -57.9888)">
		<stop  offset="0" style="stop-color:#383F42"/>
		<stop  offset="1" style="stop-color:#879096"/>
	</linearGradient>
	<path class="st25" d="M557.1,389.4c2.2-6.3,4.3-12.5,6.5-18.8c11.3,1,23.1,2.6,35.3,5c47.1,9.2,176.7,40.5,208.5,60.1l-3,31.6
		c-14.4-9.9-121.2-33.1-140.1-42.5C623.2,404.7,585.5,394.6,557.1,389.4z"/>
	
		<linearGradient id="SVGID_9_" gradientUnits="userSpaceOnUse" x1="-5828.0811" y1="-29.6483" x2="-5559.8623" y2="-29.6483" gradientTransform="matrix(-0.9955 -9.473650e-02 -9.473650e-02 0.9955 -5000.0361 -57.9888)">
		<stop  offset="0" style="stop-color:#383F42"/>
		<stop  offset="1" style="stop-color:#879096"/>
	</linearGradient>
	<path class="st26" d="M539.7,417.4c7.6-7.5,15.2-15,22.7-22.5c19.6,15.6,43.3,32.3,71.2,48.3c27.9,16,144.5,41.3,168.2,50.5
		l-1.6,17.1c-43.6-9.6-184.9-40.7-235.1-74.7C556.1,430,547.6,423.8,539.7,417.4z"/>
	
		<linearGradient id="SVGID_10_" gradientUnits="userSpaceOnUse" x1="-5715.7471" y1="-108.7036" x2="-5625.8975" y2="-108.7036" gradientTransform="matrix(-0.9955 -9.473650e-02 -9.473650e-02 0.9955 -5000.0361 -57.9888)">
		<stop  offset="0" style="stop-color:#B2B4B7"/>
		<stop  offset="1" style="stop-color:#50575D"/>
	</linearGradient>
	<polygon class="st27" points="620.2,340.3 701.8,359.4 687.6,401.5 609.6,380.2 	"/>
	<path class="st174" d="M558.6,328c5,1.7,11.5,3.3,19.3,3.8c4.1,0.3,7.9,0.2,11.2-0.1c-0.8,12-3.1,27.2-9,44.1
		c-10.4,29.7-26.9,50.1-38,61.8c-1.7-3.3-4.3-7.4-8.1-11.6c-5.6-6.2-11.6-9.8-15.7-11.9c9.5-11.8,20.8-28.6,29.7-50.5
		C553.2,350.5,556.5,338.4,558.6,328z"/>
	
		<linearGradient id="SVGID_11_" gradientUnits="userSpaceOnUse" x1="-5327.396" y1="-140.184" x2="-5249.4663" y2="-140.184" gradientTransform="matrix(-0.9955 -9.473650e-02 -9.473650e-02 0.9955 -5000.0361 -57.9888)">
		<stop  offset="0" style="stop-color:#323A3F"/>
		<stop  offset="1" style="stop-color:#9BA9B2"/>
	</linearGradient>
	<path class="st28" d="M316.8,305.8c-3.3,2.5-7,5-11.1,7.4c-15.7,8.8-31,11.4-41.7,12.1c-26.5-15.7-25.3-23.2-24.9-24.8
		c1.6-5.9,12.5-3.7,43.7-12.3c15.3-4.2,22-7.3,27.6-3.4C317,289.3,317.2,300.1,316.8,305.8z"/>
	
		<linearGradient id="SVGID_12_" gradientUnits="userSpaceOnUse" x1="-5316.6138" y1="-168.5037" x2="-5243.5361" y2="-168.5037" gradientTransform="matrix(-0.9955 -9.473650e-02 -9.473650e-02 0.9955 -5000.0361 -57.9888)">
		<stop  offset="0" style="stop-color:#323A3F"/>
		<stop  offset="1" style="stop-color:#9BA9B2"/>
	</linearGradient>
	<path class="st29" d="M307.9,285.7c-5.7,3.7-13.2,7.7-22.3,11.1c-10.9,4-20.7,5.8-28.3,6.5c-2.4-3.9-4.9-8.2-7.2-12.7
		c-5.9-11.5-10.1-22.4-13-32.1c9.3-0.5,19.2-1.4,29.5-2.8c15.6-2,29.9-4.8,42.9-8C309,260.4,308.4,273,307.9,285.7z"/>
	<path class="st180" d="M237.1,258.1c0.3,2.5,7.5,3.5,16.4,4.8c27.7,3.9,56.8-3.7,56.6-9.1c-0.1-2.5-6.6-4.1-12.7-5.6
		C267.9,240.9,236.5,252.8,237.1,258.1z"/>
	
		<linearGradient id="SVGID_13_" gradientUnits="userSpaceOnUse" x1="-5475.9478" y1="-186.4736" x2="-5426.0312" y2="-186.4736" gradientTransform="matrix(-0.9955 -9.473650e-02 -9.473650e-02 0.9955 -5000.0361 -57.9888)">
		<stop  offset="0" style="stop-color:#323A3F"/>
		<stop  offset="1" style="stop-color:#9BA9B2"/>
	</linearGradient>
	<path class="st30" d="M449.9,247.5c3.4,3.1,6.8,6.3,10.3,9.4c3.2,2.9,6.4,5.7,9.6,8.5c-10.7,10.9-21.3,21.8-32,32.7
		c-6.5-6-13-11.9-19.6-17.9C428.9,269.3,439.4,258.4,449.9,247.5z"/>
	
		<linearGradient id="SVGID_14_" gradientUnits="userSpaceOnUse" x1="-5732.6851" y1="-612.8718" x2="-5609.0923" y2="-612.8718" gradientTransform="matrix(-0.9259 -0.3778 -0.3778 0.9259 -5207.2266 -1356.0632)">
		<stop  offset="0" style="stop-color:#323A3F"/>
		<stop  offset="1" style="stop-color:#9BA9B2"/>
	</linearGradient>
	<path class="st31" d="M326.3,203.6c-9.9-0.4-20.6-1.4-31.9-3.1c-27.9-4.3-51.6-12.1-70.3-20.1c-1.9,3.9-3.7,8.6-4.8,14
		c-4.6,22.2,5.5,40.8,9.5,47.5c7.5,3.4,16,6.7,25.4,9.5c23,6.8,43.8,8.3,59.7,8c4.4-2.8,16.7-11.5,22.7-28.2
		c4.4-12,3.5-22.5,2.7-27.8C335,203.4,330.7,203.5,326.3,203.6z"/>
	<path class="st167" d="M287.4,218.4c-20.4,7.8-38.8,2.5-44.8,0.5c1.2,3.7,2.5,8.8,2.6,15c0.1,4.1-0.3,7.7-0.8,10.7
		c7.1,2.9,15,5.7,23.9,8.1c11.8,3.3,22.8,5.2,32.3,6.4c10.3-9.5,20.6-19.1,30.8-28.6l-0.4-15.9l-10.5-10.2
		c-3.9,0.1-7.8,0.1-11.6,0.2C304.6,208.7,297.5,214.5,287.4,218.4z"/>
	
		<linearGradient id="SVGID_15_" gradientUnits="userSpaceOnUse" x1="-5208.9443" y1="-343.7455" x2="-5217.542" y2="-282.4131" gradientTransform="matrix(-0.9955 -9.473650e-02 -9.473650e-02 0.9955 -5000.0361 -57.9888)">
		<stop  offset="0" style="stop-color:#B2B4B7"/>
		<stop  offset="1" style="stop-color:#50575D"/>
	</linearGradient>
	<path class="st32" d="M161.8,102.9c62.5-1.5,92.1-3.6,100.5-6.1c1.4-0.4,7.5-2.5,10.8,0.4c2.2,1.9,2.4,5.1,2.3,7.4
		c-5.1,11.7-10.3,23.5-15.4,35.2c-7.7-1.8-16-3.5-24.8-4.8c-25.8-3.8-49-3.5-68.4-1.7c-1.3-3.6-2.6-8-3.6-13
		C161.9,113.7,161.7,107.7,161.8,102.9z"/>
	
		<linearGradient id="SVGID_16_" gradientUnits="userSpaceOnUse" x1="-5305.2295" y1="-201.1205" x2="-5396.7749" y2="-217.5855" gradientTransform="matrix(-0.9955 -9.473650e-02 -9.473650e-02 0.9955 -5000.0361 -57.9888)">
		<stop  offset="0" style="stop-color:#383F42"/>
		<stop  offset="1" style="stop-color:#879096"/>
	</linearGradient>
	<path style="fill-rule:evenodd;clip-rule:evenodd;fill:url(#SVGID_16_);" d="M377.5,186c-4-2.2-8.5-5.1-13.2-8.9
		c-6.6-5.3-11.5-10.9-15-15.5c-5.5,2.3-21.5,9.8-28.2,26.6c-1.4,3.4-2.1,6.7-2.5,9.8c0.5,4.7,1,9.5,1.5,14.2
		c-2.2,3.2-4.4,6.6-6.6,10.2c-6.2,10.3-11.1,20.3-14.8,29.5c1.6,3.8,3.3,7.5,4.9,11.3c-1.2,3.2-2.2,6.7-3,10.5
		c-4.2,20.7,1.7,38.6,6.2,48.7c9.8-2.8,28.3-9.8,43.9-27.1c6.3-7,10.6-14,13.5-20C368.7,245.6,373.1,215.8,377.5,186z"/>
	
		<linearGradient id="SVGID_17_" gradientUnits="userSpaceOnUse" x1="-5578.1611" y1="-121.2826" x2="-5443.8013" y2="-121.2826" gradientTransform="matrix(-0.9955 -9.473650e-02 -9.473650e-02 0.9955 -5000.0361 -57.9888)">
		<stop  offset="0" style="stop-color:#323A3F"/>
		<stop  offset="1" style="stop-color:#9BA9B2"/>
	</linearGradient>
	<path class="st34" d="M465.3,252.7c7.2,7,15.5,14.4,25,21.6c17.9,13.6,35.2,23.2,50.1,30c2.5,0,6.4,0.1,11.2,0.5
		c6.8,0.5,10.2,0.8,11.5,1.5c8.7,4.6,3.2,42.6-14.5,76.4c-6.8,13-18.4,31.1-38.4,49.3c-25.6-7.2-51.2-14.5-76.8-21.7
		c6.4-12.2,18-38.4,16.6-73c-1-25.1-8.4-44.6-13.9-56.1C445.8,271.7,455.5,262.2,465.3,252.7z"/>
	
		<linearGradient id="SVGID_18_" gradientUnits="userSpaceOnUse" x1="-5502.2495" y1="-103.8117" x2="-5469.5586" y2="-103.8117" gradientTransform="matrix(-0.9955 -9.473650e-02 -9.473650e-02 0.9955 -5000.0361 -57.9888)">
		<stop  offset="0" style="stop-color:#B2B4B7"/>
		<stop  offset="1" style="stop-color:#50575D"/>
	</linearGradient>
	<path class="st35" d="M461.8,320.4c3.1,0.9,16.3,5.2,22.7,18.2c7.5,15.2,0.9,32.6-8.5,42.5c-9.1,9.6-20.6,11.9-24.9,12.5
		c4-10.6,8-24.5,9.9-41.2C462.6,340.3,462.5,329.4,461.8,320.4z"/>
	
		<linearGradient id="SVGID_19_" gradientUnits="userSpaceOnUse" x1="-5470.3569" y1="-212.6299" x2="-5340.9731" y2="-212.6299" gradientTransform="matrix(-0.9955 -9.473650e-02 -9.473650e-02 0.9955 -5000.0361 -57.9888)">
		<stop  offset="0" style="stop-color:#323A3F"/>
		<stop  offset="1" style="stop-color:#9BA9B2"/>
	</linearGradient>
	<path style="fill-rule:evenodd;clip-rule:evenodd;fill:url(#SVGID_19_);" d="M337.7,230c1.6-6.6,4.2-14.6,8.6-23.2
		c8.5-16.2,19.7-26.8,27.2-32.7c4.8,1,13.6,3.4,22.3,10.1c7.2,5.5,11.4,11.8,13.7,15.7c6,6.8,13,14,21.2,21.3
		c12.4,11,24.6,19.4,35.2,25.8c-7.8,6.9-15.7,14.1-23.7,21.8c-14,13.4-26.7,26.7-38.3,39.7c-16.7-6.9-33.4-13.9-50.2-20.8
		C348.4,268.4,343.1,249.2,337.7,230z"/>
	<path class="st167" d="M337.7,230c0,0,13.1,26.6,21.3,33.2c8.2,6.6,30.5-3,44-0.3c13.5,2.7,31.3,13.7,31.3,13.7l-5.2,5.2l-76.1,3.1
		L337.7,230z"/>
	
		<linearGradient id="SVGID_20_" gradientUnits="userSpaceOnUse" x1="-5828.0811" y1="-0.4405" x2="-5576.0576" y2="-0.4405" gradientTransform="matrix(-0.9955 -9.473650e-02 -9.473650e-02 0.9955 -5000.0361 -57.9888)">
		<stop  offset="0" style="stop-color:#C5DAE3"/>
		<stop  offset="1" style="stop-color:#515254"/>
	</linearGradient>
	<path class="st37" d="M553.3,445.9c3.8-3.9,7.6-7.7,11.5-11.6c10.8,6.8,22,13.5,33.8,20c38.6,21.6,166.2,51.2,201,63.9l-1.1,12
		c-16.5-2-125.9-19-146.8-26.1C605.7,488.4,573.1,463.8,553.3,445.9z"/>
	<path class="st189" d="M489.3,364.2c0,0,0.9,0.4,2.5,0.9c1.6,0.6,4,1.4,6.8,2.2c1.4,0.4,2.9,0.9,4.6,1.4c1.6,0.5,3.3,0.9,5.1,1.4
		c1.8,0.5,3.6,1,5.5,1.5c1.9,0.5,3.8,1,5.7,1.4c7.6,1.8,15.3,3.4,21.1,4.3c2.9,0.5,5.3,0.8,7.1,1c1.7,0.2,2.7,0.3,2.7,0.3
		s-0.9-0.4-2.5-1c-1.6-0.6-3.9-1.4-6.7-2.3c-5.6-1.9-13.1-4-20.7-5.8c-1.9-0.5-3.8-0.9-5.7-1.3c-1.9-0.4-3.7-0.8-5.5-1.2
		c-0.9-0.2-1.8-0.4-2.7-0.5c-0.9-0.2-1.7-0.3-2.6-0.5c-1.7-0.3-3.2-0.5-4.7-0.7c-2.9-0.4-5.4-0.7-7.1-0.9
		C490.2,364.3,489.3,364.2,489.3,364.2z"/>
	
		<linearGradient id="SVGID_21_" gradientUnits="userSpaceOnUse" x1="-5638.0825" y1="-116.191" x2="-5590.6362" y2="-116.191" gradientTransform="matrix(-0.9955 -9.473650e-02 -9.473650e-02 0.9955 -5000.0361 -57.9888)">
		<stop  offset="0" style="stop-color:#B2B4B7"/>
		<stop  offset="1" style="stop-color:#50575D"/>
	</linearGradient>
	<path class="st38" d="M587.1,327.5c13,2.3,26,4.6,39.1,6.9c-0.5,5.4-1.2,11.3-2.5,17.4c-2.9,14.6-7.4,27-11.9,37
		c-12.1-3.7-24.2-7.4-36.3-11.1c-0.4-6.9-0.3-16.8,2.7-28.2C580.6,340.3,584.1,332.9,587.1,327.5z"/>
	
		<ellipse transform="matrix(9.473650e-02 -0.9955 0.9955 9.473650e-02 32.9687 854.9719)" class="st191" cx="486.6" cy="409.4" rx="6.4" ry="22"/>
	
		<linearGradient id="SVGID_22_" gradientUnits="userSpaceOnUse" x1="-5635.4814" y1="-22.1481" x2="-5556.0972" y2="-22.1481" gradientTransform="matrix(-0.9955 -9.473650e-02 -9.473650e-02 0.9955 -5000.0361 -57.9888)">
		<stop  offset="0" style="stop-color:#383F42"/>
		<stop  offset="1" style="stop-color:#879096"/>
	</linearGradient>
	<path class="st39" d="M545.7,418.6c22,13.2,44,26.5,66,39.7c-0.6,2.6-1.7,5.9-3.6,9.3c-4.2,7.4-10,11.5-13.3,13.5
		c-20.4-13.5-40.8-26.9-61.1-40.4c0.2-2.6,0.8-7,3.2-11.7C539.8,423.5,543.6,420.2,545.7,418.6z"/>
	
		<linearGradient id="SVGID_23_" gradientUnits="userSpaceOnUse" x1="-5358.1445" y1="-296.7894" x2="-5248.8892" y2="-296.7894" gradientTransform="matrix(-0.9955 -9.473650e-02 -9.473650e-02 0.9955 -5000.0361 -57.9888)">
		<stop  offset="0" style="stop-color:#C5DAE3"/>
		<stop  offset="1" style="stop-color:#515254"/>
	</linearGradient>
	<path class="st40" d="M281.3,92.6c5,7.1,10.8,14.6,17.7,22.1c21.3,23.2,44.2,37.7,62.3,46.8c-5.6,3.6-11.8,8.2-18.2,13.9
		c-10.9,9.9-18.6,20.1-23.8,28.4c-9-4.2-20-10.3-31.3-19.2c-16.5-13.1-27.5-27.1-34.3-37.6c-0.4-5.5-0.5-16.6,5.2-29
		C265.8,103.4,276.7,95.6,281.3,92.6z"/>
	
		<linearGradient id="SVGID_24_" gradientUnits="userSpaceOnUse" x1="-5171.9292" y1="-307.5539" x2="-5066.3477" y2="-307.5539" gradientTransform="matrix(-0.9955 -9.473650e-02 -9.473650e-02 0.9955 -5000.0361 -57.9888)">
		<stop  offset="0" style="stop-color:#B2B4B7"/>
		<stop  offset="1" style="stop-color:#50575D"/>
	</linearGradient>
	<path class="st41" d="M170.1,97.7c1.3,2.1,2.5,4.4,3.5,7c5.8,14,3.9,27.5,2.1,35.1c-5.8,2.6-12.4,4.9-19.9,6.5
		c-34,7.4-63.2-4.8-76.5-11.5c-1.7-2.1-4.7-6.4-6-12.6c-0.9-4.5-0.6-8.4-0.2-10.8c8.7-0.6,17.6-1.3,26.7-2.3
		C125.1,106.4,148.5,102.4,170.1,97.7z"/>
	
		<linearGradient id="SVGID_25_" gradientUnits="userSpaceOnUse" x1="-5412.853" y1="-281.3153" x2="-5341.3726" y2="-281.3153" gradientTransform="matrix(-0.9955 -9.473650e-02 -9.473650e-02 0.9955 -5000.0361 -57.9888)">
		<stop  offset="0" style="stop-color:#323A3F"/>
		<stop  offset="1" style="stop-color:#9BA9B2"/>
	</linearGradient>
	<path class="st42" d="M344.8,159.2c1.1-2.4,3-5.7,6.1-9c3.3-3.6,6.7-5.8,9.1-7.2c5.2,1.7,11,4.2,16.9,7.6
		c20.3,11.8,31.4,28.7,36.8,38.8c-3.7,3.5-7.4,7.1-11,10.6c-7.1-1.2-18.9-4.1-31.3-12.2C356.4,178.1,348.4,165.8,344.8,159.2z"/>
	
		<linearGradient id="SVGID_26_" gradientUnits="userSpaceOnUse" x1="-5518.4673" y1="-23.7891" x2="-5497.2969" y2="-23.7891" gradientTransform="matrix(-0.9955 -9.473650e-02 -9.473650e-02 0.9955 -5000.0361 -57.9888)">
		<stop  offset="0" style="stop-color:#323A3F"/>
		<stop  offset="1" style="stop-color:#9BA9B2"/>
	</linearGradient>
	<polygon class="st43" points="475,442.7 495.7,442.5 495.7,437.5 474.9,437.7 	"/>
	
		<linearGradient id="SVGID_27_" gradientUnits="userSpaceOnUse" x1="-5520.1538" y1="-39.0732" x2="-5492.2812" y2="-39.0732" gradientTransform="matrix(-0.9955 -9.473650e-02 -9.473650e-02 0.9955 -5000.0361 -57.9888)">
		<stop  offset="0" style="stop-color:#323A3F"/>
		<stop  offset="1" style="stop-color:#9BA9B2"/>
	</linearGradient>
	<polygon class="st44" points="472.8,439.8 497.7,439.6 497.4,409.7 472.5,409.9 	"/>
	<g>
		<g>
			<g>
				<g>
					<polygon class="st4" points="485.1,418.7 483.5,421.2 486.7,421.2 					"/>
				</g>
			</g>
		</g>
	</g>
	<g>
		<path class="st4" d="M483.5,432.9c0,0.9,0.8,1.7,1.7,1.7c0.9,0,1.7-0.8,1.7-1.7c0-0.9-0.8-1.7-1.7-1.7
			C484.2,431.2,483.5,431.9,483.5,432.9z"/>
	</g>
	<g>
		<path class="st4" d="M486.9,425.9c0,0.7,0.6,1.3,1.3,1.3c0.7,0,1.3-0.6,1.3-1.3c0-0.7-0.6-1.3-1.3-1.3
			C487.5,424.6,486.9,425.2,486.9,425.9z"/>
	</g>
	<g>
		
			<rect x="484.9" y="420.5" transform="matrix(1 -8.775123e-03 8.775123e-03 1 -3.7255 4.2735)" class="st4" width="0.5" height="12.3"/>
	</g>
	<g>
		<path class="st4" d="M484.9,431.1l0.5,0c0-1.2,0.5-1.5,1.2-1.9c0.3-0.1,0.6-0.3,0.9-0.6c1.1-0.9,0.9-2.5,0.9-2.6l-0.5,0.1
			c0,0,0.2,1.4-0.7,2.1c-0.3,0.2-0.5,0.4-0.8,0.5C485.7,429.1,484.9,429.5,484.9,431.1z"/>
	</g>
	<g>
		<path class="st4" d="M484.9,428.7l0.5,0c0-1.6-0.8-1.9-1.5-2.3c-0.3-0.1-0.6-0.3-0.8-0.5c-0.9-0.7-0.7-2.1-0.7-2.1l-0.5-0.1
			c0,0.1-0.2,1.7,0.9,2.6c0.3,0.2,0.6,0.4,0.9,0.5C484.4,427.2,484.9,427.5,484.9,428.7z"/>
	</g>
	<g>
		
			<rect x="480.8" y="422.5" transform="matrix(-1 8.751163e-03 -8.751163e-03 -1 967.8228 843.392)" class="st4" width="2.5" height="2.5"/>
	</g>
	<path class="st198" d="M457.2,264.2c10.1,9.2,22.9,19.5,38.5,29.3c14.2,9,27.6,15.6,39.4,20.6c0.9-2.9,1.9-5.7,2.8-8.6
		c-10.9-5.3-23-12-35.7-20.7c-14.8-10.1-27.1-20.4-36.9-29.8C462.5,258.2,459.8,261.2,457.2,264.2z"/>
	<path class="st167" d="M407.5,200.1c6.1,7,13.2,14.5,21.6,22.1c11.5,10.5,22.7,18.8,32.8,25.4c-3.7,3.5-7.5,6.9-11.2,10.4
		c-8.6-4.3-20.4-11.4-32.1-22.9c-9.7-9.6-16.3-19.1-20.6-26.6C401.1,205.6,404.3,202.9,407.5,200.1z"/>
	<path class="st199" d="M353.6,151.2c3.5,2.8,8.6,6.5,15.1,10.3c10.8,6.3,27.8,14.1,29.4,11.6c1.6-2.5-12-15.7-27.4-24.3
		c-4.1-2.3-7.7-3.9-10.4-5C358.1,146.3,355.8,148.8,353.6,151.2z"/>
	<path class="st167" d="M76.9,124.5c4,1.2,8.1,2.3,12.5,3.2c34,6.8,64.1-2.3,83.7-10.9c0.4,2.5,0.7,5.2,0.8,8.1
		c0.3,4.7,0.2,9,0,12.8c-6.9,3.2-15.5,6.3-25.6,8c-31.7,5.4-57.5-6-68.7-11.8C78.7,130.8,77.8,127.7,76.9,124.5z"/>
	<path class="st200" d="M345.3,210.6c0,0,0.3,0.3,0.9,0.9c0.6,0.6,1.4,1.4,2.5,2.5c2.2,2.1,5.3,5.1,9.2,8.6c1.9,1.7,4.1,3.6,6.4,5.5
		c2.3,1.9,4.7,3.9,7.3,5.9c1.3,1,2.6,2,3.9,3c1.3,1,2.7,2.1,4,3.1c2.7,2,5.6,4.1,8.4,6.1c2.9,2,5.7,3.9,8.6,5.8
		c2.9,1.9,5.7,3.6,8.5,5.3c2.8,1.7,5.5,3.3,8.1,4.8c2.6,1.5,5.1,2.8,7.4,4.1c2.3,1.2,4.4,2.3,6.3,3.3c1.9,0.9,3.5,1.7,4.9,2.4
		c1.4,0.7,2.5,1.1,3.2,1.5c0.7,0.3,1.1,0.5,1.1,0.5s-0.4-0.2-1.1-0.6c-0.7-0.4-1.7-1-3-1.8c-1.3-0.8-2.9-1.7-4.7-2.8
		c-1.8-1.1-3.8-2.3-6-3.7c-1.1-0.7-2.3-1.4-3.4-2.1c-1.2-0.7-2.4-1.5-3.7-2.3c-2.5-1.6-5.1-3.3-7.9-5c-1.4-0.9-2.7-1.8-4.1-2.7
		c-1.4-0.9-2.8-1.9-4.2-2.8c-2.8-1.9-5.7-3.8-8.5-5.8c-2.8-2-5.7-4-8.4-6c-2.7-2-5.5-4-8-5.9c-2.6-2-5.1-3.8-7.4-5.6
		c-2.3-1.8-4.5-3.6-6.6-5.2c-4.1-3.2-7.4-5.9-9.8-7.9C346.7,211.7,345.3,210.6,345.3,210.6z"/>
	<path class="st200" d="M442.6,277.7l5.9,3.1c2,1,4,2.1,5.9,3.1l5.9,3.2c2,1.1,3.9,2.2,5.9,3.3c2,1.1,3.9,2.2,5.8,3.3l5.8,3.3
		l5.8,3.4l5.7,3.5c1.9,1.2,3.8,2.3,5.7,3.5c1.9,1.2,3.8,2.4,5.7,3.6l5.6,3.6c1.9,1.2,3.7,2.4,5.6,3.7c3.7,2.5,7.4,5,11.1,7.6
		l5.5,3.9c1.8,1.3,3.6,2.6,5.4,3.9l0.3,0.2l0.3,0c2.3-0.2,4.7-0.3,7-0.1c2.3,0.1,4.7,0.3,7,0.7c2.3,0.4,4.6,0.9,6.9,1.6
		c2.3,0.7,4.5,1.5,6.7,2.4c-2.1-1.1-4.2-2.1-6.5-2.9c-2.2-0.8-4.5-1.5-6.9-2c-1.2-0.3-2.3-0.5-3.5-0.7c-1.2-0.2-2.4-0.3-3.6-0.4
		c-2.4-0.2-4.8-0.3-7.2-0.2l0.6,0.2c-1.8-1.4-3.5-2.8-5.3-4.1c-1.8-1.4-3.6-2.7-5.4-4c-1.8-1.3-3.6-2.6-5.5-3.9
		c-1.8-1.3-3.7-2.6-5.5-3.8c-1.8-1.3-3.7-2.5-5.6-3.8c-1.9-1.2-3.7-2.5-5.6-3.7c-1.9-1.2-3.8-2.4-5.7-3.6c-1.9-1.2-3.8-2.3-5.8-3.5
		c-1.9-1.2-3.9-2.3-5.8-3.4l-5.9-3.3c-2-1.1-3.9-2.1-5.9-3.2c-2-1-4-2.1-6-3.1c-4-2-8-4-12.1-5.9c-2-0.9-4.1-1.9-6.1-2.8
		C446.8,279.4,444.7,278.5,442.6,277.7z"/>
	<path class="st189" d="M539.5,307.3c0,0-1.6,5.8-4,14.6c-0.6,2.2-1.3,4.5-2,7c-0.4,1.2-0.7,2.5-1.1,3.8c-0.4,1.3-0.8,2.6-1.2,4
		c-0.8,2.7-1.7,5.5-2.6,8.3c-0.9,2.8-1.9,5.7-2.9,8.5c-1,2.8-2,5.7-3,8.4c-1,2.8-2,5.5-3.1,8.1c-1,2.6-2,5.2-3,7.6
		c-1,2.4-1.9,4.7-2.8,6.7c-1.8,4.2-3.2,7.6-4.2,10.1c-1,2.4-1.6,3.8-1.6,3.8s0.2-0.3,0.6-0.9c0.4-0.6,1-1.5,1.7-2.6
		c0.7-1.1,1.5-2.5,2.5-4.1c0.9-1.6,2-3.4,3-5.4c0.5-1,1.1-2.1,1.7-3.1c0.6-1.1,1.1-2.2,1.7-3.4c1.1-2.3,2.3-4.8,3.5-7.4
		c1.1-2.6,2.3-5.3,3.4-8.1c1.1-2.8,2.1-5.6,3.1-8.5c1-2.9,1.9-5.8,2.8-8.6c0.5-1.4,0.8-2.9,1.2-4.3c0.4-1.4,0.8-2.8,1.1-4.2
		c0.2-0.7,0.4-1.4,0.5-2c0.2-0.7,0.3-1.4,0.5-2c0.3-1.3,0.6-2.6,0.9-3.9c0.6-2.5,1-5,1.4-7.2c0.8-4.5,1.3-8.2,1.6-10.9
		c0.2-1.3,0.2-2.4,0.3-3.1C539.5,307.7,539.5,307.3,539.5,307.3z"/>
	
		<linearGradient id="SVGID_28_" gradientUnits="userSpaceOnUse" x1="-5518.4673" y1="-173.5951" x2="-5478.728" y2="-173.5951" gradientTransform="matrix(-0.9955 -9.473650e-02 -9.473650e-02 0.9955 -5000.0361 -57.9888)">
		<stop  offset="0" style="stop-color:#323A3F"/>
		<stop  offset="1" style="stop-color:#9BA9B2"/>
	</linearGradient>
	<polygon class="st45" points="477.1,275.9 470.8,284.9 505.5,304.5 509.6,297.1 	"/>
	
		<linearGradient id="SVGID_29_" gradientUnits="userSpaceOnUse" x1="-5515.981" y1="-172.7469" x2="-5484.3838" y2="-172.7469" gradientTransform="matrix(-0.9955 -9.473650e-02 -9.473650e-02 0.9955 -5000.0361 -57.9888)">
		<stop  offset="0" style="stop-color:#323A3F"/>
		<stop  offset="1" style="stop-color:#9BA9B2"/>
	</linearGradient>
	<path class="st46" d="M478.5,281.7c4.8,2.8,9.6,5.6,14.4,8.4c4.7,2.8,9.4,5.5,14.1,8.3c-0.4,0.7-0.8,1.4-1.3,2.1
		c-9.7-5.3-19.5-10.6-29.2-15.9C477.2,283.7,477.8,282.7,478.5,281.7z"/>
	
		<linearGradient id="SVGID_30_" gradientUnits="userSpaceOnUse" x1="-5514.9326" y1="-169.7777" x2="-5483.1855" y2="-169.7777" gradientTransform="matrix(-0.9955 -9.473650e-02 -9.473650e-02 0.9955 -5000.0361 -57.9888)">
		<stop  offset="0" style="stop-color:#323A3F"/>
		<stop  offset="1" style="stop-color:#9BA9B2"/>
	</linearGradient>
	<path class="st47" d="M476.5,284.6c9.7,5.3,19.4,10.6,29.2,15.9l-2.6,2.6c-9.4-5.3-18.7-10.6-28.1-15.9
		C475.5,286.4,476,285.5,476.5,284.6z"/>
	<path class="st4" d="M477.1,275.9c-1.1,1.4-2.2,2.9-3.4,4.3c-1.1,1.4-2.2,2.9-3.3,4.4l-0.3,0.4l0.4,0.2c2.8,1.7,5.7,3.4,8.6,5
		c2.9,1.7,5.8,3.3,8.7,4.9c2.9,1.6,5.8,3.2,8.7,4.8c1.5,0.8,2.9,1.6,4.4,2.3c1.5,0.8,3,1.5,4.4,2.3c-1.4-0.9-2.8-1.8-4.2-2.7
		c-1.4-0.9-2.8-1.7-4.2-2.6c-2.8-1.7-5.7-3.4-8.6-5.1c-2.9-1.7-5.8-3.3-8.7-4.9c-2.9-1.6-5.8-3.2-8.7-4.8l0.1,0.6c1-1.5,2-3,3-4.6
		C475.2,279,476.2,277.5,477.1,275.9z"/>
</g>
<g>
	
		<linearGradient id="SVGID_31_" gradientUnits="userSpaceOnUse" x1="-2854.8801" y1="9227.291" x2="-2821.5017" y2="9227.291" gradientTransform="matrix(-7.788494e-02 -1.1144 0.9976 -6.971799e-02 -9068.0605 -1645.0614)">
		<stop  offset="0" style="stop-color:#EDEDEE"/>
		<stop  offset="1" style="stop-color:#50575D"/>
	</linearGradient>
	<path class="st48" d="M398.9,879.7c-2.9,7-9.8,9.2-11.1,9.6c-7.3,0.5-18.8,1.4-33,3.1c-23.6,2.8-34.7,5.2-37.8-0.5
		c-2.7-5,2.2-13.4,3.5-15.5c1.9-3.2,8.1-12.2,37.8-18.6c8-1.7,18.9-3.6,32.3-4.1C399.2,860.4,402.3,871.6,398.9,879.7z"/>
	
		<radialGradient id="SVGID_32_" cx="-2839.5693" cy="9259.667" r="13.3051" gradientTransform="matrix(-7.788494e-02 -1.1144 0.9976 -6.971799e-02 -9068.0605 -1645.0614)" gradientUnits="userSpaceOnUse">
		<stop  offset="0" style="stop-color:#B2B4B7"/>
		<stop  offset="1" style="stop-color:#50575D"/>
	</radialGradient>
	<path class="st49" d="M400.1,879.1c-0.9,1.5-5.8,8.7-12.7,7.9c-1.1-0.1-3.9-0.4-5.8-2.7c-4.5-5.4-1.3-18.7,6.2-24.9
		c3.1-2.5,9.3-5.8,13.1-3C405.6,860,404.6,871.9,400.1,879.1z"/>
	<path class="st206" d="M377.2,868.3c0,0-0.9,0-2.4,0.1c-1.6,0-3.8,0.1-6.4,0.3c-1.3,0.1-2.8,0.2-4.3,0.4c-1.5,0.1-3.1,0.4-4.7,0.6
		c-1.6,0.2-3.3,0.5-5,0.8c-1.7,0.3-3.4,0.6-5.2,1c-1.7,0.4-3.4,0.8-5.1,1.2c-1.7,0.5-3.3,0.9-4.9,1.4c-3.2,1-6.1,2-8.6,2.9
		c-2.5,1-4.6,1.8-6,2.4c-1.4,0.6-2.3,1-2.3,1s0.8-0.5,2.2-1.2c1.4-0.7,3.4-1.8,5.8-3c2.5-1.1,5.4-2.3,8.6-3.4
		c1.6-0.5,3.2-1.1,4.9-1.5c1.7-0.5,3.4-0.9,5.2-1.3c1.7-0.4,3.5-0.7,5.2-1c1.7-0.3,3.5-0.5,5.1-0.7c3.3-0.3,6.5-0.4,9.1-0.4
		c2.7,0,4.9,0.2,6.5,0.3C376.3,868.2,377.2,868.3,377.2,868.3z"/>
	<g>
		
			<linearGradient id="SVGID_33_" gradientUnits="userSpaceOnUse" x1="-8466.9873" y1="7559.0669" x2="-8366.2168" y2="7559.0669" gradientTransform="matrix(-0.4996 -0.8662 0.8662 -0.4996 -10048.9502 -2805.1318)">
			<stop  offset="0" style="stop-color:#323A3F"/>
			<stop  offset="1" style="stop-color:#BFCFD8"/>
		</linearGradient>
		<path class="st50" d="M774.4,627.7c0,0.1,0,0.1,0,0.2c0.1,2.6-2,4.9-4.6,5c-15.5,0.6-27.4,4.8-35.1,12.5
			c-10,9.9-10.4,22.7-10.9,39c-0.5,17.1-1.2,38.4-13.9,62.6c-5.3,10.1-15.1,28.8-36.2,36.7c-16.3,6.1-32.1,3.1-42.5-0.4
			c-2.5-0.9-3.8-3.6-3-6.1c0.9-2.5,3.6-3.8,6.1-3c8.9,3,22.4,5.6,36.1,0.5c17.7-6.6,26.1-22.6,31.1-32.1
			c11.7-22.3,12.3-41.5,12.8-58.5c0.5-17.6,1-32.8,13.7-45.5c9.5-9.5,23.5-14.6,41.5-15.3C772.1,623.2,774.3,625.2,774.4,627.7z"/>
	</g>
	
		<linearGradient id="SVGID_34_" gradientUnits="userSpaceOnUse" x1="-4540.9482" y1="9751.5557" x2="-4475.9277" y2="9526.1152" gradientTransform="matrix(6.971795e-02 0.9976 0.9976 -6.971795e-02 -8541.5225 5888.9639)">
		<stop  offset="0" style="stop-color:#889197"/>
		<stop  offset="1" style="stop-color:#3A4349"/>
	</linearGradient>
	<path class="st51" d="M631.2,783.9c5-3.5,10.3-6.9,15.8-10.2c42.8-25.3,86.5-34,121.9-36.3c-0.6-11.4-1.2-22.7-1.8-34.1
		c-12.6,6.9-26.8,13.8-42.4,20.1c-39.5,15.8-76,23-105.6,26.1C623.2,760.9,627.2,772.4,631.2,783.9z"/>
	<path class="st209" d="M443.1,650c4.4-0.2,8.8-0.3,13.2-0.5c0.2,10.7,0.4,21.3,0.6,32c-3.7,0.1-7.5,0.3-11.2,0.4
		C444.8,671.2,444,660.6,443.1,650z"/>
	
		<linearGradient id="SVGID_35_" gradientUnits="userSpaceOnUse" x1="-2983.1729" y1="9262.6553" x2="-2966.3845" y2="9459.3145" gradientTransform="matrix(-6.971795e-02 -0.9976 0.9976 -6.971795e-02 -9067.5967 -1638.4252)">
		<stop  offset="0" style="stop-color:#EDEDEE"/>
		<stop  offset="1" style="stop-color:#50575D"/>
	</linearGradient>
	<path class="st52" d="M456.9,647.4c-2.2,5.6-5,15-4.5,26.8c0.3,7.2,1.8,13.3,3.2,17.8c7.3,1.8,14.8,3.8,22.5,6
		c8.1,2.3,15.8,4.7,23.3,7.2c1.9-7.7,4.3-16.1,7.5-25c2.9-8.3,6.1-15.9,9.2-22.7c-8.3-1.4-16.7-2.9-25.1-4.3
		C480.9,651.3,468.9,649.3,456.9,647.4z"/>
	
		<linearGradient id="SVGID_36_" gradientUnits="userSpaceOnUse" x1="-3024.1365" y1="9377.9609" x2="-2995.1101" y2="9377.9609" gradientTransform="matrix(-6.971795e-02 -0.9976 0.9976 -6.971795e-02 -9067.5967 -1638.4252)">
		<stop  offset="0" style="stop-color:#A5B2BA"/>
		<stop  offset="1" style="stop-color:#56646C"/>
	</linearGradient>
	<path class="st53" d="M444.1,727.2c-1-2.5,14-10.6,19.9-13.8c40.4-22,85.9-23.1,86.9-18.5C552.4,702.1,446.6,733.5,444.1,727.2z"/>
	
		<linearGradient id="SVGID_37_" gradientUnits="userSpaceOnUse" x1="-3069.8181" y1="9270.0518" x2="-3053.03" y2="9466.7119" gradientTransform="matrix(-6.971795e-02 -0.9976 0.9976 -6.971795e-02 -9067.5967 -1638.4252)">
		<stop  offset="0" style="stop-color:#EDEDEE"/>
		<stop  offset="1" style="stop-color:#50575D"/>
	</linearGradient>
	<path style="fill-rule:evenodd;clip-rule:evenodd;fill:url(#SVGID_37_);" d="M516.7,653.2c5.4,0.9,11,1.7,16.6,2.4
		c18.3,2.4,35.9,3.8,52.4,4.4c1.2,3.1,3.9,9.1,9.8,14.5c5.3,4.8,10.7,6.9,13.8,7.9c7.4,11.1,14.9,23.8,21.9,38.1
		c16.9,34.4,25.3,66.7,29.7,92.5c-2.9,5.6-6.7,11.9-11.5,18.4c-3.8,5.1-7.5,9.5-11.1,13.2c-10.9-6.3-22.9-14.6-34.6-25.6
		c-40.8-38.3-53.9-85.7-58.5-109.3c-14.9-3.6-29.9-7.3-44.8-10.9c-0.5-5.3-0.9-16.3,4.4-28.4C508.3,662.3,513.2,656.6,516.7,653.2z"
		/>
	<path class="st213" d="M632.3,847.8c12.9-8.7-13.3-67.4-26.8-93.2c-4.9-9.4-35.5-67.6-50.9-62.7c-12.1,3.9-13.6,46.2-0.8,80.4
		C572,820.8,620.2,856,632.3,847.8z"/>
	<path class="st191" d="M464.6,677.3c3.3-0.2,6.2,2.3,6.4,5.6c0.2,3.3-2.3,6.2-5.6,6.4c-3.3,0.2-6.2-2.3-6.4-5.6
		C458.8,680.4,461.3,677.5,464.6,677.3z"/>
	
		<linearGradient id="SVGID_38_" gradientUnits="userSpaceOnUse" x1="-4586.9336" y1="9433.127" x2="-4594.9277" y2="9323.6055" gradientTransform="matrix(6.971795e-02 0.9976 0.9976 -6.971795e-02 -8541.5225 5888.9639)">
		<stop  offset="3.205128e-04" style="stop-color:#3D4E56"/>
		<stop  offset="0.9997" style="stop-color:#8D8C8E"/>
	</linearGradient>
	<path class="st55" d="M453.4,636.4c-1.2,3.7-2.5,9.6-2,17c0.4,6.3,2.1,11.3,3.4,14.6c5.5,2.1,12.7,4.2,21.2,5.3
		c9.2,1.2,17.2,1,23.3,0.4c2.2-3,5.1-7.8,7-14.1c2.3-7.4,2.3-13.8,2-17.8c-7.2-0.2-14.7-0.6-22.5-1.2
		C474.2,639.6,463.4,638.2,453.4,636.4z"/>
	
		<linearGradient id="SVGID_39_" gradientUnits="userSpaceOnUse" x1="-2986.6831" y1="9295.6318" x2="-2941.4998" y2="9295.6318" gradientTransform="matrix(-6.971795e-02 -0.9976 0.9976 -6.971795e-02 -9067.5967 -1638.4252)">
		<stop  offset="0" style="stop-color:#EDEDEE"/>
		<stop  offset="1" style="stop-color:#50575D"/>
	</linearGradient>
	<path class="st56" d="M449.6,668c-0.3,5.8-0.5,11.5-0.8,17.3c-5.3,2.9-12.8,5.9-22,6.7c-28.7,2.7-49.3-18-52.8-21.6
		c-0.1-2.3,0.1-5.7,1.3-9.7c1.6-4.8,4.1-8.2,5.7-10c7.7,0.7,16.3,1,25.7,0.6c16.1-0.7,30.2-3.2,41.6-6.1
		C448.8,652.8,449.2,660.4,449.6,668z"/>
	<path class="st206" d="M382.9,677.8c0.9-3.3,2.6-6.4,4.6-9.2c0.5-0.7,1.1-1.4,1.7-2c0.6-0.7,1.2-1.3,1.8-1.9
		c1.3-1.2,2.7-2.3,4.1-3.3l0.4-0.3l0.6,0.1c2.1,0.5,4.2,0.9,6.3,1.2c2.1,0.3,4.2,0.7,6.3,0.9c1.1,0.1,2.1,0.2,3.2,0.3
		c1.1,0.1,2.1,0.2,3.2,0.3c2.1,0.2,4.2,0.3,6.4,0.4c2.1,0.1,4.3,0.1,6.4,0.1c2.1,0,4.3-0.1,6.4-0.2c4.3-0.2,8.6-0.6,12.9-1
		c-4.1,1.4-8.4,2.3-12.7,3c-2.2,0.4-4.3,0.6-6.5,0.8c-2.2,0.2-4.4,0.2-6.6,0.3c-2.2,0-4.4-0.1-6.6-0.2c-1.1-0.1-2.2-0.1-3.3-0.3
		c-1.1-0.1-2.2-0.2-3.3-0.4c-2.2-0.3-4.3-0.7-6.5-1.1c-2.1-0.5-4.3-1-6.4-1.6l1-0.2c-1.4,0.8-2.8,1.7-4.1,2.8
		c-0.6,0.5-1.3,1-1.9,1.6c-0.6,0.5-1.2,1.1-1.8,1.7C386.6,672.1,384.6,674.8,382.9,677.8z"/>
	
		<linearGradient id="SVGID_40_" gradientUnits="userSpaceOnUse" x1="-3136.1021" y1="9189.7949" x2="-3097.8281" y2="9189.7949" gradientTransform="matrix(-6.971795e-02 -0.9976 0.9976 -6.971795e-02 -9067.5967 -1638.4252)">
		<stop  offset="0" style="stop-color:#EDEDEE"/>
		<stop  offset="1" style="stop-color:#50575D"/>
	</linearGradient>
	<path class="st57" d="M364.2,835.1c-3.4,7.3-11.3,9.6-12.9,10c-8.4,0.6-21.6,1.6-37.8,3.4c-27.1,3-39.8,5.7-43.3-0.2
		c-3.1-5.1,2.7-13.7,4.1-15.9c2.2-3.3,9.4-12.6,43.5-19.5c9.1-1.8,21.7-3.8,37-4.5C364.6,815.3,368.1,826.8,364.2,835.1z"/>
	
		<radialGradient id="SVGID_41_" cx="-3118.5457" cy="9226.9199" r="15.2566" gradientTransform="matrix(-6.971795e-02 -0.9976 0.9976 -6.971795e-02 -9067.5967 -1638.4252)" gradientUnits="userSpaceOnUse">
		<stop  offset="0" style="stop-color:#B2B4B7"/>
		<stop  offset="1" style="stop-color:#50575D"/>
	</radialGradient>
	<path class="st58" d="M365.5,834.5c-1.1,1.5-6.7,8.9-14.7,8.2c-1.2-0.1-4.4-0.4-6.6-2.7c-5.1-5.5-1.3-19.2,7.3-25.6
		c3.6-2.6,10.7-6.1,15-3.2C372.1,814.9,370.7,827.2,365.5,834.5z"/>
	
		<linearGradient id="SVGID_42_" gradientUnits="userSpaceOnUse" x1="-3181.1328" y1="9304.8252" x2="-3153.9854" y2="9304.8252" gradientTransform="matrix(-6.971795e-02 -0.9976 0.9976 -6.971795e-02 -9067.5967 -1638.4252)">
		<stop  offset="0" style="stop-color:#EDEDEE"/>
		<stop  offset="1" style="stop-color:#50575D"/>
	</linearGradient>
	<path class="st59" d="M402.7,880c1.4,1.5,3.6,3.6,6.8,5.1c8.1,3.9,16.4,1.7,21.3,0.5c8.9-2.2,21.2-4.3,38.5-5.5
		c-2.3-7.6-4.5-15.2-6.8-22.8c-6.9,0.1-16.4,0.9-26.9,4.3C419.9,866.6,409,874.6,402.7,880z"/>
	
		<linearGradient id="SVGID_43_" gradientUnits="userSpaceOnUse" x1="-3135.3618" y1="9267.0957" x2="-3082.8755" y2="9267.0957" gradientTransform="matrix(-6.971795e-02 -0.9976 0.9976 -6.971795e-02 -9067.5967 -1638.4252)">
		<stop  offset="0" style="stop-color:#EDEDEE"/>
		<stop  offset="1" style="stop-color:#50575D"/>
	</linearGradient>
	<path class="st60" d="M433.6,829.3c-10.3,1.4-21.2,3.3-32.8,5.9c-13.6,3-26.1,6.5-37.4,10.2c-1.7-2.8-3.3-6-4.7-9.7
		c-4.6-12.2-4.5-23.4-3.7-30.6c7.8-3.5,16.9-7,27.4-9.9c16.6-4.6,31.6-6.3,43.6-6.7C428.5,802.2,431,815.8,433.6,829.3z"/>
	
		<linearGradient id="SVGID_44_" gradientUnits="userSpaceOnUse" x1="-3180.1299" y1="9293.4004" x2="-3122.571" y2="9293.4004" gradientTransform="matrix(-6.971795e-02 -0.9976 0.9976 -6.971795e-02 -9067.5967 -1638.4252)">
		<stop  offset="0" style="stop-color:#EDEDEE"/>
		<stop  offset="1" style="stop-color:#50575D"/>
	</linearGradient>
	<path class="st61" d="M444.2,827c-6,2.2-12.3,4.8-18.7,7.7c-13.7,6.2-25.6,13.1-35.9,19.7c-0.4,0.8-7.1,14.9,0.6,26
		c2.8,4,6.5,6.2,8.9,7.4c5.6-3.1,11.5-6.2,17.8-9.3c15.2-7.4,29.8-13,43.3-17.4C454.9,849.8,449.6,838.4,444.2,827z"/>
	
		<linearGradient id="SVGID_45_" gradientUnits="userSpaceOnUse" x1="-3102.4519" y1="9197.6533" x2="-3055.3694" y2="9197.6533" gradientTransform="matrix(-6.971795e-02 -0.9976 0.9976 -6.971795e-02 -9067.5967 -1638.4252)">
		<stop  offset="0" style="stop-color:#EDEDEE"/>
		<stop  offset="1" style="stop-color:#50575D"/>
	</linearGradient>
	<path class="st62" d="M361.1,806.4c-3.9,5.2-9.9,6.7-12.3,7.1c-17.2-6.1-31.4-9.9-41-12.2c-16.9-4.1-25.5-5.1-27.2-10.5
		c-1.8-6,6.5-14.9,14.7-19.1c7.7-3.9,18.2-2.5,38.9,0.5c17.9,2.6,21,4.4,23.3,6.8C363.9,785.4,367.2,798,361.1,806.4z"/>
	
		<radialGradient id="SVGID_46_" cx="-4374.0688" cy="9231.9648" r="16.5823" gradientTransform="matrix(-6.971795e-02 -0.9976 0.9976 -6.971795e-02 -9157.5801 -2925.9509)" gradientUnits="userSpaceOnUse">
		<stop  offset="0" style="stop-color:#B2B4B7"/>
		<stop  offset="1" style="stop-color:#50575D"/>
	</radialGradient>
	<path class="st63" d="M371.4,780.7c-4.6-6.1-20.8-5-27.5,4.6c-5.6,8.2-3.8,21.6,3.1,24.9c7,3.4,17.1-4.7,21.5-11.9
		C369,797.5,375.7,786.4,371.4,780.7z"/>
	
		<linearGradient id="SVGID_47_" gradientUnits="userSpaceOnUse" x1="-3101.386" y1="9263.8311" x2="-3037.8313" y2="9263.8311" gradientTransform="matrix(-6.971795e-02 -0.9976 0.9976 -6.971795e-02 -9067.5967 -1638.4252)">
		<stop  offset="0" style="stop-color:#EDEDEE"/>
		<stop  offset="1" style="stop-color:#50575D"/>
	</linearGradient>
	<path class="st64" d="M423.6,743.5c-8.1,1.5-17.1,3.8-26.8,7.1c-16.7,5.7-30.3,13-40.7,19.7c-1.7,2.3-6.1,8.8-6,18
		c0.2,13.7,10.2,22.1,11.6,23.2c6.1-3,12.7-5.9,19.8-8.6c16.1-6.1,31.1-9.7,44-11.9C425,775.2,424.3,759.3,423.6,743.5z"/>
	
		<linearGradient id="SVGID_48_" gradientUnits="userSpaceOnUse" x1="-3055.6055" y1="9566.6191" x2="-3108.5352" y2="9330.8418" gradientTransform="matrix(-6.971795e-02 -0.9976 0.9976 -6.971795e-02 -9067.5967 -1638.4252)">
		<stop  offset="0" style="stop-color:#323A3F"/>
		<stop  offset="1" style="stop-color:#BFCFD8"/>
	</linearGradient>
	<path style="fill-rule:evenodd;clip-rule:evenodd;fill:url(#SVGID_48_);" d="M559.3,684.6c-6.6,2.7-13.4,5.3-20.3,7.8
		c-36.6,13.6-72,23.8-105.7,31.4c-19.8,19.2-28,43.4-20.3,61.3c1.6,3.8,4.7,8.8,10.6,13.7c-5,15.6-1.5,29,6.2,32.8
		c1.5,0.7,4.7,1.9,10.1,0.5c0.4,1.3,0.9,2.6,1.3,3.9c-4.2,11.6-1.1,22.9,6.2,27.3c4.3,2.7,9.2,2.3,11.9,1.8c1.1,4.4,3.6,11,9.6,14.8
		c8.3,5.3,18.6,2.4,23.6,1c17.7-4.8,42.7-9.9,75.8-16c1.9,1.8,3.8,3.7,5.7,5.5c22.8-5.5,46-11.6,68.8-17.1
		c-12.8-14.2-27.1-31.3-40-52.8C576.3,756.6,564.7,714.5,559.3,684.6z"/>
	<path class="st174" d="M559.3,684.6c2.2-1.1,7.8,4.6,10.8,9.9c3.4,5.8,3.9,11.4,4.7,21c0.4,5.6,0.5,10.2,0.4,13.3
		c4.7,7.7,9.4,15.7,14,24.1c14.3,26.2,25.4,51.5,34.1,75.1c1.8,0,10.3,0.3,16,6.9c5.7,6.7,6.1,17.1,3.4,18.5
		c-1.9,0.9-4.6-2.9-15.3-12.3c-7-6.1-10.6-8.7-13-10.8c-17.9-15.3-38.2-58.7-46.1-94c-1.6-7.4-1.2-7.1-4.9-24.2
		C559.2,692.8,557.2,685.7,559.3,684.6z"/>
	<path class="st189" d="M439.8,832.1c0,0,34.1-12.8,33-9c-1.1,3.8-31.7,12.9-31.7,12.9L439.8,832.1z"/>
	<g class="st225">
		<path class="st200" d="M469,875.8c3.8-1.2,7.5-2.4,11.3-3.6c1.9-0.6,3.8-1.2,5.7-1.7l5.7-1.7l11.4-3.3l11.4-3.2l-0.7,1.7
			c-5-7.5-9.6-15.2-13.9-23c-2.1-3.9-4.2-7.9-6.2-12c-1-2-1.9-4.1-2.9-6.1c-0.9-2-1.9-4.1-2.7-6.2c-3.6-8.2-6.7-16.7-9.5-25.2
			c-1.4-4.3-2.7-8.6-3.9-12.9c-1.2-4.3-2.3-8.7-3.3-13l1.4,1c-9.6,1-19.2,2.6-28.6,5.1c-4.7,1.2-9.4,2.6-14,4.1
			c-4.6,1.6-9.2,3.3-13.7,5.2c4.3-2.2,8.8-4.2,13.3-6c4.5-1.8,9.2-3.5,13.8-4.9c4.7-1.4,9.4-2.6,14.2-3.6c4.8-1,9.6-1.8,14.5-2.4
			l1.1-0.1l0.3,1.1c1.1,4.3,2.3,8.6,3.6,12.9c1.3,4.3,2.6,8.5,4.1,12.7c2.8,8.4,6.1,16.7,9.5,24.9c0.9,2.1,1.8,4.1,2.7,6.1
			c0.9,2,1.8,4.1,2.8,6.1c1.9,4,3.9,8,5.9,11.9c4.1,7.9,8.5,15.6,13.2,23.2l0.9,1.4l-1.5,0.4l-11.5,2.8l-11.5,2.8l-5.8,1.3
			c-1.9,0.4-3.8,0.9-5.7,1.4C476.7,873.9,472.9,874.8,469,875.8z"/>
	</g>
	<g class="st226">
		<path class="st200" d="M499.4,706.9c-0.7,1.4-1.3,2.9-1.8,4.5c-0.2,0.8-0.4,1.6-0.5,2.4c-0.1,0.8-0.1,1.6-0.1,2.4
			c0,0.8,0.1,1.6,0.2,2.4c0.1,0.8,0.2,1.6,0.5,2.3c0.2,0.8,0.5,1.5,0.7,2.3c0.3,0.7,0.6,1.5,1,2.2c0.7,1.4,1.6,2.7,2.5,4
			c0.5,0.6,1,1.2,1.5,1.8c0.5,0.6,1.1,1.2,1.6,1.7c1.1,1.1,2.4,2.1,3.6,3.1c0.6,0.5,1.3,0.9,2,1.4c0.7,0.4,1.4,0.8,2,1.2l-0.7,0
			l6.3-2.6l6.3-2.6l3.1-1.3l3.2-1.2c2.1-0.8,4.3-1.5,6.4-2.2c4.3-1.4,8.6-2.7,13-3.9c2.2-0.6,4.4-1.1,6.6-1.6c2.2-0.5,4.4-1,6.6-1.4
			l-6.5,1.9l-6.5,2c-4.3,1.3-8.6,2.8-12.8,4.3c-2.1,0.7-4.2,1.5-6.3,2.3l-3.2,1.2l-3.1,1.3l-6.2,2.6l-6.3,2.5l-0.4,0.2l-0.3-0.2
			c-0.7-0.4-1.4-0.9-2.1-1.3c-0.7-0.5-1.4-0.9-2-1.4c-1.3-1-2.6-2.1-3.7-3.2c-1.2-1.2-2.2-2.4-3.2-3.8c-0.9-1.4-1.8-2.8-2.5-4.3
			c-0.4-0.7-0.7-1.5-0.9-2.3c-0.3-0.8-0.5-1.6-0.7-2.4c-0.2-0.8-0.3-1.6-0.4-2.4c0-0.8-0.1-1.7,0-2.5c0-0.8,0.1-1.7,0.3-2.4
			c0.2-0.8,0.4-1.6,0.6-2.4C497.8,709.8,498.6,708.3,499.4,706.9z"/>
	</g>
	<g class="st226">
		<path class="st200" d="M511.3,739.2c0.3,2.1,0.4,4.1,0.4,6.2c0,2.1-0.1,4.2-0.3,6.2c-0.2,2.1-0.5,4.2-0.9,6.2
			c-0.4,2.1-0.9,4.1-1.5,6.1l-0.2,0.7l-0.7,0.3c-2.4,1-4.8,2-7.3,2.9c-2.4,1-4.9,1.8-7.4,2.7l-3.7,1.3c-1.2,0.4-2.5,0.8-3.7,1.2
			c-2.5,0.8-5,1.5-7.6,2.1c2.3-1.3,4.6-2.5,7-3.7c1.2-0.6,2.3-1.2,3.5-1.7l3.6-1.7c2.4-1,4.8-2.1,7.2-3.1c2.4-1,4.8-2,7.3-2.9
			l-0.9,1c0.6-1.9,1.1-3.9,1.7-5.8c0.5-2,1-3.9,1.4-5.9l0.6-3l0.5-3L511.3,739.2z"/>
	</g>
	<g class="st226">
		<path class="st200" d="M517.5,857.9c2.6-1.3,5.3-2.5,8-3.6c2.7-1.1,5.4-2.1,8.2-3l1-0.4l1.1-0.3l2.1-0.6c1.4-0.4,2.8-0.8,4.2-1.1
			c1.4-0.4,2.8-0.7,4.2-1.1c1.4-0.3,2.8-0.7,4.3-1l0.4-0.1l0.2,0c1.9,0.5,3.8,1,5.7,1.5c1.9,0.6,3.8,1.1,5.7,1.8c-2,0-4-0.1-6-0.3
			c-2-0.2-3.9-0.4-5.9-0.6l0.6,0c-1.4,0.5-2.8,0.9-4.2,1.4c-1.4,0.5-2.8,0.9-4.2,1.3c-1.4,0.4-2.8,0.8-4.2,1.2l-2.1,0.5l-1,0.3
			l-1.1,0.3c-2.8,0.8-5.6,1.5-8.5,2.1C523.3,857,520.4,857.6,517.5,857.9z"/>
	</g>
	<g class="st226">
		<path class="st200" d="M567,863c-0.6-2.1-1.2-4.2-1.8-6.2c-0.6-2.1-1.1-4.2-1.7-6.3l-0.1-0.5l0.5-0.2l6.1-2.1l6.1-2l6.1-2l3.1-1
			l3.1-0.9l6.2-1.7l6.2-1.6c2.1-0.5,4.1-1.1,6.2-1.5c2.1-0.5,4.2-1,6.3-1.4c-2,0.7-4.1,1.4-6.1,2c-2,0.7-4.1,1.3-6.1,1.9l-6.1,1.9
			l-6.2,1.8l-3.1,0.9l-3,1l-6.1,1.9l-6.1,1.9l-6.2,1.8l0.3-0.6c0.4,2.1,0.9,4.2,1.3,6.4C566.2,858.8,566.6,860.9,567,863z"/>
	</g>
	<path class="st167" d="M436.3,728.5c-3,4.1-7,10.8-9.3,19.9c-1.4,5.6-1.7,10.6-1.7,14.5c8.2-3.2,20.3-6.9,35.2-7.8
		c13-0.8,64.3-1.6,90.7,36.4c13.2,18.9,14.7,39.7,14.3,51.9c12.4-3.9,24.7-7.8,37.1-11.7c-6.9-9.9-14.1-21.7-20.6-35.4
		c-12.3-25.5-18.5-49.2-21.8-67.9c-2-3.7-4.1-8.4-5.8-14c-2.3-7.6-2.9-14.4-3-19.6C513.1,706,474.7,717.2,436.3,728.5z"/>
	<path class="st227" d="M574.5,758.2c0,0,2,4.8,5.1,12c0.8,1.8,1.6,3.7,2.5,5.7c0.9,2,1.9,4.1,2.9,6.3c1,2.2,2.2,4.4,3.3,6.6
		c0.6,1.1,1.1,2.2,1.8,3.4c0.6,1.2,1.2,2.3,1.8,3.4c1.2,2.2,2.5,4.5,3.7,6.7c1.3,2.2,2.5,4.3,3.8,6.4c1.3,2,2.5,4,3.7,5.9
		c1.2,1.9,2.4,3.6,3.4,5.2c4.4,6.4,7.3,10.7,7.3,10.7s-1-0.8-2.7-2.3c-1.7-1.5-4.1-3.8-6.7-6.7c-1.3-1.5-2.8-3-4.2-4.8
		c-1.4-1.7-2.9-3.6-4.3-5.6c-1.4-2-2.9-4.1-4.3-6.3c-1.4-2.2-2.7-4.5-4-6.8c-0.6-1.2-1.2-2.3-1.8-3.5c-0.6-1.1-1.2-2.4-1.7-3.5
		c-1.1-2.3-2.1-4.7-3-7c-0.9-2.3-1.7-4.5-2.4-6.7c-0.7-2.1-1.3-4.2-1.8-6.1c-1-3.8-1.6-7-2-9.3C574.6,759.5,574.5,758.2,574.5,758.2
		z"/>
	
		<linearGradient id="SVGID_49_" gradientUnits="userSpaceOnUse" x1="-2983.2803" y1="9669.0254" x2="-3028.9341" y2="9444.6299" gradientTransform="matrix(-6.971795e-02 -0.9976 0.9976 -6.971795e-02 -9067.5967 -1638.4252)">
		<stop  offset="0" style="stop-color:#383F42"/>
		<stop  offset="1" style="stop-color:#879096"/>
	</linearGradient>
	<path class="st66" d="M587.5,690.6c0.6,6.1,2,13.9,5.3,22.6c4.9,12.9,11.8,22,16.9,27.7c12.6-3.7,25.1-7.5,37.7-11.2
		c0.8-3.6,1.6-7.2,2.4-10.9c10.3-4,21.2-7.8,32.9-11.4c30.9-9.4,59.6-14.5,84.8-17.1c-1.1-15.8-2.2-31.5-3.3-47.3
		c-23.3,13.1-52.8,26.6-88.3,36.1c-13.1,3.5-25.6,6.1-37.4,8c-1.8-3.3-3.7-6.5-5.5-9.8C617.9,681.7,602.7,686.2,587.5,690.6z"/>
	
		<linearGradient id="SVGID_50_" gradientUnits="userSpaceOnUse" x1="-4473.252" y1="9294.2305" x2="-4454.0073" y2="9229.3369" gradientTransform="matrix(6.971795e-02 0.9976 0.9976 -6.971795e-02 -8541.5225 5888.9639)">
		<stop  offset="3.205128e-04" style="stop-color:#31373C"/>
		<stop  offset="0.9997" style="stop-color:#AFBEC6"/>
	</linearGradient>
	<path class="st67" d="M362.8,814.4c16-5.7,32.1-11.3,48.1-17c-1.7-2.6-3.5-5.7-5.1-9.3c-2.7-6.1-4-11.7-4.7-16.1
		c-6.9,1-15.2,2.8-24.4,6.1c-9.3,3.3-16.9,7.2-22.9,10.8c-0.3,0.6-4.8,10.8,0.9,19.2C357.3,811.9,360.9,813.7,362.8,814.4z"/>
	<path class="st206" d="M339.4,823.6c0,0-1,0-2.8,0.1c-1.8,0-4.3,0.2-7.4,0.4c-1.5,0.1-3.2,0.2-4.9,0.4c-1.7,0.2-3.5,0.4-5.4,0.6
		c-1.9,0.2-3.8,0.5-5.8,0.9c-2,0.3-4,0.7-5.9,1.1c-2,0.4-4,0.8-5.9,1.3c-1.9,0.5-3.8,1-5.7,1.5c-3.7,1-7,2.1-9.9,3.1
		c-2.9,1-5.3,1.9-6.9,2.5c-1.7,0.6-2.6,1-2.6,1s0.9-0.5,2.5-1.3c1.6-0.8,3.9-1.9,6.7-3.1c2.8-1.2,6.2-2.5,9.8-3.6
		c1.8-0.6,3.7-1.1,5.7-1.6c1.9-0.5,3.9-1,5.9-1.4c2-0.4,4-0.8,6-1.1c2-0.3,4-0.5,5.9-0.7c3.8-0.4,7.4-0.5,10.5-0.5
		c3.1,0,5.6,0.1,7.4,0.2C338.4,823.5,339.4,823.6,339.4,823.6z"/>
	<path class="st206" d="M340.3,785.1c0,0-0.7-0.3-2-0.8c-1.3-0.5-3.1-1.2-5.3-2c-2.2-0.8-4.8-1.6-7.6-2.3c-1.4-0.4-2.9-0.7-4.4-1
		c-1.5-0.3-3-0.6-4.5-0.8c-6.1-0.9-12.3-1.1-17-0.9c-2.3,0.1-4.3,0.2-5.6,0.3c-1.4,0.1-2.1,0.2-2.1,0.2s0.8-0.2,2.1-0.5
		c1.3-0.3,3.3-0.7,5.6-0.9c1.2-0.1,2.4-0.3,3.8-0.3c1.4-0.1,2.8-0.1,4.3-0.1c1.5,0,3,0,4.6,0.2c1.6,0.1,3.1,0.3,4.7,0.5
		c1.6,0.2,3.1,0.5,4.6,0.9c1.5,0.3,3,0.8,4.4,1.2c2.9,0.9,5.4,1.9,7.6,2.8C337.7,783.4,340.3,785.1,340.3,785.1z"/>
	<path class="st206" d="M398.8,883.2c0,0,0.7-0.4,1.8-1c1.2-0.6,2.8-1.6,4.8-2.7c2-1.1,4.4-2.3,6.9-3.5c2.5-1.3,5.3-2.6,8-3.9
		c5.5-2.6,11-5,15.2-6.8c2.1-0.9,3.9-1.6,5.1-2.1c1.2-0.5,2-0.7,2-0.7s-0.7,0.4-1.8,1c-1.2,0.6-2.8,1.6-4.8,2.6
		c-4,2.1-9.5,4.8-14.9,7.4c-5.5,2.6-11,5-15.2,6.8c-2.1,0.9-3.9,1.6-5.1,2.1C399.5,882.9,398.8,883.2,398.8,883.2z"/>
	<path class="st206" d="M365.2,838.3c0,0,0.8-0.3,2.2-0.9c1.4-0.5,3.4-1.3,5.9-2.2c2.4-0.9,5.3-1.9,8.4-2.8c3.1-1,6.4-1.9,9.8-2.8
		c3.4-0.8,6.7-1.7,9.9-2.3c3.2-0.7,6.2-1.2,8.7-1.6c2.6-0.5,4.7-0.7,6.2-0.9c1.5-0.2,2.4-0.3,2.4-0.3s-0.8,0.2-2.3,0.6
		c-1.5,0.4-3.6,0.9-6.1,1.5c-2.5,0.6-5.5,1.3-8.6,2.1c-3.1,0.8-6.5,1.6-9.8,2.5c-3.3,0.9-6.7,1.7-9.8,2.6c-1.6,0.4-3.1,0.8-4.5,1.2
		c-1.4,0.4-2.8,0.8-4,1.1c-2.5,0.7-4.6,1.2-6.1,1.6C366.1,838.1,365.2,838.3,365.2,838.3z"/>
	<path class="st206" d="M417.6,884.6c0,0,0.6-0.2,1.8-0.5c1.1-0.3,2.8-0.8,4.7-1.3c2-0.5,4.3-1,6.7-1.6c2.5-0.6,5.1-1,7.8-1.5
		c5.3-0.9,10.7-1.6,14.7-1.9c4-0.3,6.7-0.4,6.7-0.4s-0.7,0.1-1.8,0.4c-1.2,0.2-2.8,0.6-4.8,0.9c-4,0.8-9.3,1.7-14.6,2.6
		c-2.7,0.4-5.3,0.9-7.8,1.3c-2.5,0.4-4.8,0.8-6.8,1.1c-2,0.3-3.7,0.5-4.8,0.7C418.3,884.5,417.6,884.6,417.6,884.6z"/>
	
		<linearGradient id="SVGID_51_" gradientUnits="userSpaceOnUse" x1="-4424.2275" y1="9580.6855" x2="-4380.5938" y2="9580.6855" gradientTransform="matrix(-6.971795e-02 -0.9976 0.9976 -6.971795e-02 -9157.5801 -2925.9509)">
		<stop  offset="0" style="stop-color:#383F42"/>
		<stop  offset="1" style="stop-color:#879096"/>
	</linearGradient>
	<path class="st68" d="M641.9,822.1c-1.7-3.3-4.2-8.9-4.9-16.2c-0.9-9.1,1.4-16.3,2.9-20c16.1,0.1,33.4-0.5,51.7-2
		c30.6-2.5,58.2-7.2,82.5-12.7c1.2,12.2,2.4,24.4,3.6,36.6c-16.4,3.8-34.4,7.1-53.8,9.6C693.8,821.4,666.2,822.5,641.9,822.1z"/>
	<path class="st209" d="M644,727.8c0,0-0.6-0.5-1.5-1.5c-0.9-1-2.1-2.5-3.5-4.4c-0.7-1-1.4-2-2-3.2c-0.6-1.2-1.4-2.3-2-3.7
		c-0.7-1.3-1.3-2.7-1.9-4.1c-0.5-1.4-1.1-2.9-1.6-4.4c-0.4-1.5-0.8-3-1.2-4.5c-0.4-1.5-0.6-3-0.8-4.4c-0.2-1.4-0.4-2.8-0.5-4.2
		c-0.1-1.3-0.1-2.6-0.2-3.8c0-2.3,0.1-4.3,0.3-5.6c0.2-1.3,0.3-2.1,0.3-2.1s0.5,3,1.3,7.5c0.4,2.2,0.9,4.8,1.6,7.6
		c0.3,1.4,0.7,2.8,1.1,4.2c0.4,1.4,0.8,2.9,1.2,4.3c0.4,1.4,0.9,2.9,1.4,4.2c0.5,1.4,1,2.8,1.5,4c0.5,1.3,1.1,2.6,1.6,3.8
		c0.5,1.2,1,2.3,1.5,3.3c1,2.1,1.8,3.8,2.4,5C643.7,727.1,644,727.8,644,727.8z"/>
	<path class="st4" d="M592.3,698.6c0,0,0.5-0.2,1.4-0.5c0.9-0.3,2.2-0.7,3.7-1.1c3.1-0.8,7.2-1.9,11.3-3c4.1-1,8.3-2,11.4-2.7
		c1.6-0.4,2.9-0.6,3.8-0.8c0.9-0.2,1.4-0.3,1.4-0.3s-2,0.9-5,1.9c-3,1.1-7.1,2.3-11.3,3.4c-2.1,0.5-4.2,1-6.1,1.4
		c-2,0.4-3.8,0.7-5.4,0.9c-1.6,0.2-2.9,0.4-3.8,0.5C592.8,698.5,592.3,698.6,592.3,698.6z"/>
	<g>
		<path class="st172" d="M785.9,825.4c0.1,1.3-0.3,2.6-1.3,3.6c-10.4,11.2-20.2,16-29.1,14.4c-10.9-2-15.7-12.4-21.7-25.6
			c-2.2-4.9-4.8-10.4-7.9-16.2c-7.6-14.1-25.4-47.2-52.3-57c-11.2-4.1-30.5-5.9-58.1,8.4c-2.4,1.2-5.2,0.3-6.5-2.1
			c-1.2-2.4-0.3-5.2,2.1-6.5c30.7-15.9,52.7-13.6,65.7-8.9c30.4,11,49.4,46.4,57.5,61.4c3.3,6.1,5.9,11.7,8.2,16.7
			c5.8,12.5,9,19.1,14.7,20.1c5.4,1,12.5-3,20.4-11.5c1.8-1.9,4.8-2.1,6.8-0.3C785.3,823.1,785.8,824.3,785.9,825.4z"/>
	</g>
	<path class="st231" d="M582.2,662.8c-6.4,2.5-14.5,4.9-24,6.1c-18.8,2.4-34.3-0.8-43.9-3.7c1.5-2.8,3.1-5.6,4.6-8.3
		C539.9,658.8,561.1,660.8,582.2,662.8z"/>
	<path class="st232" d="M455.1,647.9c3.3,5,13.2,3.5,21.8,2.3c5.6-0.8,13.6-2.5,22.8-6.6c-7.9-0.1-16.4-0.6-25.6-1.6
		c-6.8-0.8-13.2-1.7-19.2-2.9C454,641.7,453.4,645.3,455.1,647.9z"/>
	<path class="st233" d="M376.7,669.6c0.9,0.5,3.5-2.3,4.7-4.7c2.4-4.6,1.4-10.3,0.2-10.4C379.7,654.1,374.9,668.6,376.7,669.6z"/>
	<path class="st234" d="M405.7,764.4c2.5,0.1,5.3,0.2,8.4-0.3c7.3-1,13.1-3.5,17-5.6c2.2-5,4.4-11.6,5.9-19.4
		c1.2-6.4,1.9-12.3,1.8-17.1c-4.5,3.8-9.7,8.6-14.4,14.2C415.7,746.3,409.8,756.2,405.7,764.4z"/>
	
		<linearGradient id="SVGID_52_" gradientUnits="userSpaceOnUse" x1="-4515.9331" y1="9323.7861" x2="-4506.8726" y2="9282.4824" gradientTransform="matrix(6.971795e-02 0.9976 0.9976 -6.971795e-02 -8541.5225 5888.9639)">
		<stop  offset="0" style="stop-color:#B2B4B7"/>
		<stop  offset="1" style="stop-color:#50575D"/>
	</linearGradient>
	<path class="st69" d="M405.7,764.4c2.6-1.4,6.1-3.1,10.4-4.2c5.2-1.4,9.7-1.6,13-1.4c-0.2-4.1,0-9.1,1.1-14.8
		c1.9-9.7,5.6-17.2,8.6-22c-2.1-1-7.2-3-13.8-2.1c-4.8,0.6-8.3,2.5-10.2,3.8c-2.7,3.9-6.6,10.7-8.6,20
		C404.4,752.4,405,759.8,405.7,764.4z"/>
	<path class="st4" d="M406.7,759c1,0.7,3.2-1.1,5.7-3.1c2.4-2,5.2-4.2,4.7-5.7c-0.6-1.5-4.7-2.2-7.5-0.5
		C405.8,751.9,405.2,758,406.7,759z"/>
	<g>
		<path class="st236" d="M493.7,673.2c3.3-0.2,5.8-2.8,5.6-5.6c-0.2-2.9-3.1-5-6.4-4.8c-3.3,0.2-5.8,2.8-5.6,5.6
			C487.5,671.3,490.4,673.4,493.7,673.2z"/>
	</g>
	<linearGradient id="SVGID_53_" gradientUnits="userSpaceOnUse" x1="759.8408" y1="934.2953" x2="809.5027" y2="569.2149">
		<stop  offset="0" style="stop-color:#323A3F"/>
		<stop  offset="1" style="stop-color:#9BA9B2"/>
	</linearGradient>
	<path class="st70" d="M832.1,815l3.2,9.1c-1.4-2.9-2.8-5.8-4-8.8c-1.3-2.9-2.5-5.9-3.7-8.9c-0.6-1.5-1.2-3-1.7-4.5v26.8
		c-10.6,1.7-19.6,3.1-26.2,4.1c-4.4,0.7-7.8,1.2-9.9,1.4c-1.6-1.7-3.3-3.5-5-5.4c-2-2.3-4.1-4.7-6.1-7.2c-3-3.7-6.1-7.7-9.1-12
		c-5.8-8.3-11.4-17.7-16.4-28.2c-0.9-1.8-1.7-3.6-2.5-5.4c-5.2-11.9-8.9-23.7-11.5-35.3c-1.7-7.4-2.9-14.8-3.7-21.9
		c-0.9-8.2-1.4-16.1-1.4-23.8c0-14.1,1.2-27.1,3-38.2c0.9-5.9,2-11.2,3.1-16c1.1-4.7,2.2-8.9,3.2-12.4c0.6-2.2,1.2-4.2,1.8-5.9
		c18.1-4.8,36.2-9.5,54.3-14.3c5.2-1.4,10.5-2.8,15.8-4.2c0.3-0.1,0.8-0.2,1.4-0.3c1.8-0.4,4.9-1,9-1.8v193.2c0.1,0.5,0.3,1,0.4,1.5
		c0.9,3.1,1.8,6.1,2.8,9.2C830,808.9,831,811.9,832.1,815z"/>
	<path class="st238" d="M786.6,823.2c6.4-4.3,16.5-12.1,24.7-25c1.1-1.7,17.2-27.4,13.1-53c-4.9-31.4-39.3-58.9-84.5-63
		c-0.4,16.2,0.9,38,7.6,62.8C757.3,781.4,774.5,807.7,786.6,823.2z"/>
	<g class="st239">
		<path class="st4" d="M825.3,737.8c0.2,0,0.3-0.1,0.5-0.1v3.2c-0.7,0.2-1.4,0.3-2.2,0.5c-3.3,0.8-6.7,1.6-10,2.3
			c-4.2,0.9-8.3,1.8-12.4,2.6c-0.5,0.1-1.1,0.2-1.6,0.3c-3.5,0.7-7.1,1.4-10.5,2c-3.9,0.7-7.7,1.4-11.4,1.9c-3.6,0.5-7,1-10.2,1.5
			c-6.3,0.9-11.6,1.5-15.3,2c-0.8,0.1-1.5,0.2-2.1,0.3c-2.4,0.3-3.7,0.4-3.7,0.4s1.3-0.3,3.5-0.8c0.6-0.1,1.4-0.3,2.2-0.5
			c3.6-0.8,8.8-1.9,15.1-3.2c3.1-0.6,6.5-1.3,10.1-2c3.6-0.8,7.3-1.5,11.2-2.4c3.6-0.8,7.3-1.5,11-2.4c0.3-0.1,0.7-0.1,1-0.2
			c4.1-0.9,8.2-1.8,12.4-2.7c3.3-0.7,6.6-1.5,9.9-2.2C823.7,738.1,824.5,737.9,825.3,737.8z"/>
	</g>
	<g>
		
			<ellipse transform="matrix(0.7468 -0.6651 0.6651 0.7468 -231.7809 671.6152)" class="st240" cx="766.1" cy="640.2" rx="21.9" ry="17.4"/>
		
			<radialGradient id="SVGID_54_" cx="-4588.3643" cy="9649.8076" r="19.7996" gradientTransform="matrix(6.971795e-02 0.9976 0.9976 -6.971795e-02 -8541.5225 5888.9639)" gradientUnits="userSpaceOnUse">
			<stop  offset="0" style="stop-color:#B2B4B7"/>
			<stop  offset="1" style="stop-color:#50575D"/>
		</radialGradient>
		<path class="st71" d="M768.6,656.9c10.9-4.3,18.1-15.9,16-25.7c-2-9.9-12.5-14.4-23.4-10c-10.9,4.3-18.1,15.9-16,25.7
			C747.2,656.7,757.7,661.2,768.6,656.9z"/>
		<path class="st242" d="M752.7,654.1c0.4,0.5,3.1-7.1,9.7-15.6c7.6-9.9,14.2-13.2,13.9-14c-0.3-0.8-7.7,1.2-14.1,8.9
			C755.3,641.8,752.2,653.5,752.7,654.1z"/>
		<path class="st243" d="M783.3,632.5c0.7,4.3-0.9,8-2,10.3c-4.3,9.6-13.6,15.6-16.6,11.5c-3.9-5.5,1.4-31.3,9.4-32
			C777.6,622,782.4,626.6,783.3,632.5z"/>
		<path class="st244" d="M750.4,652.1c0.6,0.1,2.8,0.5,7-7.7c0.6-1.1,8.4-16.2,5.9-20.4c-1.7-2.9-7.8,0.9-11.5,5.3
			c-0.8,1-7.5,9-5.7,16.8C746.7,648.8,748.4,651.6,750.4,652.1z"/>
		<path class="st245" d="M748.5,645.7c0.6,0.2,1.3-2.5,1.7-3.9c0.6-2.5,1.4-7.1,0.7-7.7c-0.6-0.5-2.5,2-3.1,5.3
			C747.4,642.1,747.9,645.5,748.5,645.7z"/>
	</g>
	<path class="st167" d="M825.8,601.9v17.8c-3.6-5.7-7.1-10.9-10.4-15.7c0.3-0.1,0.8-0.2,1.4-0.3
		C818.6,603.3,821.7,602.7,825.8,601.9z"/>
	<path class="st4" d="M794.9,828.2c-2.5,1.3-9.1-6-12.9-12.7c-3.7-6.5-6.9-16.6-4.5-18.1c2.9-1.7,14.2,8,17.5,20.4
		C795.1,818.2,797.4,827,794.9,828.2z"/>
	<g class="st226">
		<path class="st200" d="M814.5,751.7c0.5-0.1,0.9-0.3,1.4-0.4c-0.1-0.5-0.2-0.9-0.2-1.4L814.5,751.7z"/>
		<path class="st200" d="M832.1,815l3.2,9.1c-1.4-2.9-2.8-5.8-4-8.8c-1.3-2.9-2.5-5.9-3.7-8.9c-0.6-1.5-1.2-3-1.7-4.5
			c-1.7-4.5-3.2-9.1-4.6-13.7c-0.6-2.1-1.3-4.2-1.8-6.3c-0.1-0.2-0.1-0.4-0.2-0.6c-0.2-0.7-0.4-1.4-0.6-2.1c0-0.1-0.1-0.2-0.1-0.3
			c-0.8-3.1-1.6-6.2-2.3-9.4c-1.4-6.3-2.7-12.6-3.7-19l-0.2-1.4l1.4-0.3c3.6-1,7.2-1.9,10.8-2.8c0.4-0.1,0.9-0.2,1.3-0.3v3.1
			c-0.3,0.1-0.6,0.2-0.9,0.3c-3,0.8-6,1.6-9,2.4c-0.1-0.5-0.2-0.9-0.2-1.4l-1.1,1.8c0.5-0.1,0.9-0.2,1.4-0.4c1,5.8,2,11.7,3.3,17.4
			c0.6,2.8,1.2,5.5,1.9,8.2c0.1,0.4,0.2,0.7,0.2,1.1c0,0.1,0,0.1,0.1,0.2c0.2,0.7,0.4,1.5,0.6,2.2c0.6,2.3,1.2,4.6,1.8,6.9
			c0.7,2.6,1.4,5.1,2.1,7.7c0.1,0.5,0.3,1,0.4,1.5c0.9,3.1,1.8,6.1,2.8,9.2C830,808.9,831,811.9,832.1,815z"/>
	</g>
	<g class="st226">
		<path class="st200" d="M819.2,729.2l6.6-1.4v2.8l-5.4,1.3l-10.4,2.5l-1.4,0.3l-0.4-1.4c-1.5-4.7-2.9-9.4-4.2-14.2
			c-1.2-4.2-2.2-8.5-3.1-12.8c-0.1-0.5-0.2-1.1-0.3-1.6c-0.3-1.6-0.7-3.3-1-4.9c-0.1-0.4-0.2-0.8-0.2-1.2c-0.1-0.8-0.3-1.5-0.4-2.3
			c-0.4-2-0.7-4.1-1-6.1c-0.4-2.4-0.7-4.9-1-7.3c-0.3-2.4-0.6-4.9-0.8-7.3c-0.3-2.4-0.5-4.9-0.6-7.4c-0.2-2.5-0.3-4.9-0.4-7.4
			c-0.2-4.9-0.3-9.8-0.3-14.7c0-2.5,0.1-4.9,0.2-7.4c0.1-2.5,0.2-4.9,0.4-7.4c0.2-2.5,0.4-4.9,0.6-7.3c0.2-2.4,0.5-4.9,0.8-7.3
			l-0.2,7.4c-0.1,2.5-0.1,4.9-0.1,7.3c0,2.4,0,4.9,0.1,7.3c0,2.4,0.1,4.9,0.2,7.3c0.1,2.5,0.2,4.9,0.3,7.3c0.2,2.4,0.3,4.9,0.5,7.3
			c0.2,2.4,0.4,4.9,0.6,7.3c0.3,2.4,0.5,4.9,0.8,7.3c0.2,2,0.5,3.9,0.8,5.9c0.1,0.5,0.1,0.9,0.2,1.4c0.4,2.4,0.7,4.8,1.1,7.2
			c0.3,1.9,0.7,3.9,1,5.8c0.1,0.8,0.3,1.6,0.4,2.4c0.4,2.1,0.8,4.1,1.3,6.2c0.4,2,0.9,4,1.4,6c1.6,7,3.5,14,5.7,20.9l-1.4,0.3l1.8,1
			c-0.1-0.4-0.3-0.9-0.4-1.3L819.2,729.2z"/>
		<path class="st200" d="M811.1,732.4c-0.1-0.4-0.3-0.9-0.4-1.3l-1.4,0.3L811.1,732.4z"/>
	</g>
	<g class="st239">
		<path class="st4" d="M821.3,778.3c1.5-0.4,3-0.9,4.5-1.3v2.5c-1.3,0.4-2.6,0.7-3.9,1c-0.8,0.2-1.5,0.4-2.3,0.6
			c-0.1,0-0.3,0.1-0.4,0.1c-4.4,1.1-8.8,2.1-13.2,3.1c-2.1,0.4-4.2,0.9-6.4,1.3c-1.4,0.3-2.8,0.6-4.2,0.8c-3.5,0.7-7.1,1.3-10.6,1.8
			c-3,0.5-6,0.9-9,1.3c-3.4,0.5-6.8,0.9-10.2,1.2c-0.7,0.1-1.4,0.1-2.2,0.2c0.7-0.1,1.4-0.2,2.1-0.4c3.4-0.6,6.8-1.2,10.2-1.8
			c2.9-0.5,5.9-1.1,8.8-1.7c5-1,10-2.1,15-3.3c2-0.5,4-0.9,6-1.4c4.4-1.1,8.7-2.2,13-3.4c0.6-0.2,1.3-0.4,1.9-0.5
			C820.8,778.5,821.1,778.4,821.3,778.3z"/>
		<path class="st4" d="M806.6,694.3c6.4-1.7,12.8-3.2,19.2-4.6v2.9c-6.2,1.3-12.4,2.8-18.6,4.2c-1.6,0.4-3.2,0.8-4.8,1.1
			c-0.9,0.2-1.9,0.4-2.8,0.7c-0.1,0-0.2,0-0.2,0.1c-2.2,0.5-4.4,1.1-6.5,1.6c-2.7,0.7-5.3,1.3-8,2l-5.6,1.5c-1.9,0.5-3.7,1-5.5,1.6
			l-6.4,1.9l-4.7,1.4c-4.4,1.3-8.8,2.6-13.2,3.8c-2.7,0.8-5.3,1.5-8,2.3c-0.3,0.1-0.6,0.2-1,0.3c0.3-0.1,0.6-0.2,1-0.3
			c3.9-1.4,7.8-2.7,11.6-4c3.1-1.1,6.2-2.1,9.2-3.1l4.9-1.7l6-2c1.8-0.6,3.7-1.2,5.5-1.8l5.5-1.6c2-0.6,4-1.2,6.1-1.7
			c2.8-0.8,5.7-1.6,8.5-2.4c0.2-0.1,0.4-0.1,0.7-0.2c0.8-0.2,1.6-0.4,2.4-0.6C803.5,695.1,805.1,694.7,806.6,694.3z"/>
	</g>
</g>
<g>
	
		<linearGradient id="SVGID_55_" gradientUnits="userSpaceOnUse" x1="-5267.7407" y1="91.7515" x2="-5244.5791" y2="-87.1498" gradientTransform="matrix(-0.9999 -1.054523e-02 -1.054523e-02 0.9999 -4879.2363 302.2926)">
		<stop  offset="0" style="stop-color:#323A3F"/>
		<stop  offset="1" style="stop-color:#9BA9B2"/>
	</linearGradient>
	<path style="fill-rule:evenodd;clip-rule:evenodd;fill:url(#SVGID_55_);" d="M279.4,348.1c6.2-3.9,15.3-9.8,25.9-17.7
		c37-27.3,40.3-39.1,59.8-47.9c3.2-1.4,39.6-17.1,71.3,1.9c27.5,16.5,36.1,50,34,74.6c-0.8,8.6-4.9,40.3-29.3,55.4
		c-13.1,8.1-25.4,7.3-66.5,3.5c-34.9-3.2-63.5-6.1-83.2-8.1C287.4,389.3,283.4,368.7,279.4,348.1z"/>
	<path class="st248" d="M307,407.7c8.6-1,17.3-2.1,26-3.3c25.7-3.5,50.7-7.5,74.8-12c11.3,0.7,22.6,1.3,33.9,2
		c2.4-3.6,5.8-9.7,7.4-17.9c2.4-12.7-1.1-22.9-2.9-27.2C399.8,368.7,353.4,388.2,307,407.7z"/>
	
		<linearGradient id="SVGID_56_" gradientUnits="userSpaceOnUse" x1="-5141.5039" y1="32.8956" x2="-5097.1753" y2="32.8956" gradientTransform="matrix(-0.9999 -1.054523e-02 -1.054523e-02 0.9999 -4879.2363 302.2926)">
		<stop  offset="0" style="stop-color:#383F42"/>
		<stop  offset="1" style="stop-color:#879096"/>
	</linearGradient>
	<path class="st73" d="M217.5,366.2c10.1-1.3,20.3-2.6,30.4-3.9c-0.4,6.1-0.3,15.6,3.2,26.6c2.9,9.2,7.1,16.1,10.3,20.7
		c-11.1,2.1-22.3,4.3-33.4,6.4C224.5,399.4,221,382.8,217.5,366.2z"/>
	
		<linearGradient id="SVGID_57_" gradientUnits="userSpaceOnUse" x1="-5094.0503" y1="14.9679" x2="-5020.3174" y2="14.9679" gradientTransform="matrix(-0.9999 -1.054523e-02 -1.054523e-02 0.9999 -4879.2363 302.2926)">
		<stop  offset="0" style="stop-color:#383F42"/>
		<stop  offset="1" style="stop-color:#879096"/>
	</linearGradient>
	<path class="st74" d="M214.5,362.7c-1.5-1.8-4-4.1-7.1-4.2c-2.7-0.1-4.4,1.4-7.4,3.1c-1.9,1.1-5.3,2.2-12,4.4
		c-12.1,3.9-18.4,1.3-28.3,4.2c-4.9,1.4-11.8,4.6-19.2,12.3c8.2,0.7,19.2,0.7,31.7-1.9C191.6,376.6,205.9,368.5,214.5,362.7z"/>
	
		<linearGradient id="SVGID_58_" gradientUnits="userSpaceOnUse" x1="-5106.8066" y1="73.671" x2="-5031.8271" y2="73.671" gradientTransform="matrix(-0.9999 -1.054523e-02 -1.054523e-02 0.9999 -4879.2363 302.2926)">
		<stop  offset="0" style="stop-color:#383F42"/>
		<stop  offset="1" style="stop-color:#879096"/>
	</linearGradient>
	<path class="st75" d="M226.6,421.2c-0.6,2.3-1.8,5.4-4.5,6.9c-2.4,1.3-4.6,0.7-8,0.4c-2.2-0.1-5.7,0.3-12.7,1.3
		c-12.6,1.7-17.1,6.9-27.3,8.6c-5.1,0.9-12.6,1-22.6-2.6c7.1-4.2,17-9,29.4-12.2C200,418.6,216.4,419.7,226.6,421.2z"/>
	
		<linearGradient id="SVGID_59_" gradientUnits="userSpaceOnUse" x1="-5148.4888" y1="38.0709" x2="-5040.4302" y2="38.0709" gradientTransform="matrix(0.8868 -0.4621 0.4621 0.8868 4684.959 -1987.2781)">
		<stop  offset="0" style="stop-color:#B2B4B7"/>
		<stop  offset="1" style="stop-color:#50575D"/>
	</linearGradient>
	<path class="st76" d="M218.7,356.6c-6.6,4.3-14.4,8.7-23.5,12.6c-24.8,10.6-47.8,12.6-63.4,12.4c-1.4,5.3-3.8,17.5,0.3,32.1
		c4.4,15.4,13.6,24.8,17.6,28.5c10.4-4.4,22.6-8.7,36.5-12.2c16.9-4.3,32.3-6.5,45.4-7.5c2.3-4.6,7.3-16.4,5.3-31.7
		C234.3,371.4,222.1,359.7,218.7,356.6z"/>
	
		<linearGradient id="SVGID_60_" gradientUnits="userSpaceOnUse" x1="-5057.1567" y1="49.6006" x2="-5037.167" y2="49.6006" gradientTransform="matrix(0.8868 -0.4621 0.4621 0.8868 4684.959 -1987.2781)">
		<stop  offset="3.205128e-04" style="stop-color:#31373C"/>
		<stop  offset="0.9997" style="stop-color:#AFBEC6"/>
	</linearGradient>
	<path class="st77" d="M225,371.7c3.7-2,14.6,5.2,16.7,16.1c2,10.3-4.3,20.8-8.5,20.6C226,408,218.7,375.1,225,371.7z"/>
	<path class="st232" d="M134.1,385.2c-0.3,1.6-0.6,3.5-0.7,5.7c-0.1,2.3,0,4.3,0.2,6c5.7,1,11.8,1.8,18.2,2.3c28,2,52.1-3.1,70-8.9
		c-1.6-8.2-3.3-16.4-4.9-24.6c-11.8,5.8-27.7,12-47.1,15.9C156.4,384.1,144.3,385.1,134.1,385.2z"/>
	
		<linearGradient id="SVGID_61_" gradientUnits="userSpaceOnUse" x1="-5330.7051" y1="6.3466" x2="-5123.2407" y2="6.3466" gradientTransform="matrix(-0.9999 -1.054523e-02 -1.054523e-02 0.9999 -4879.2363 302.2926)">
		<stop  offset="0" style="stop-color:#323A3F"/>
		<stop  offset="1" style="stop-color:#9BA9B2"/>
	</linearGradient>
	<path class="st78" d="M450.7,351.7c-3.5-27.1-26.4-40.3-28.9-41.6c-10.6,6.1-21.3,12.2-31.9,18.2c-48.2,8.9-96.4,17.8-144.6,26.6
		c-1.4,6.2-3,17.8,0.3,31.8c3.7,15.5,11.6,25.8,15.8,30.7c48.4-9.3,96.8-18.5,145.3-27.8c11.2,0.7,22.3,1.4,33.5,2.2
		C442.6,388.3,453.5,372.8,450.7,351.7L450.7,351.7z"/>
	
		<ellipse transform="matrix(0.9909 -0.1344 0.1344 0.9909 -43.7944 58.826)" class="st255" cx="414" cy="353.9" rx="25.9" ry="25.9"/>
	
		<ellipse transform="matrix(0.9909 -0.1345 0.1345 0.9909 -43.9013 58.8383)" class="st167" cx="413.5" cy="354.3" rx="24" ry="24"/>
	<path class="st256" d="M407.6,368.8c1.6-2,3.2-4.4,4.7-7.2c4.8-8.5,6.8-16.9,7.7-22.8c0.8,0.3,1.5,0.6,2.3,0.9
		c-0.3,3.8-1.2,9.6-3.8,16.1c-2.8,6.8-6.3,11.5-8.7,14.2C409.1,369.6,408.4,369.2,407.6,368.8z"/>
	<path class="st257" d="M391.9,349.2c3.8-0.5,7.9-0.8,12.3-0.8c12.4-0.1,23.1,1.8,31.5,4.2c-0.2-2.1-0.9-7.6-5.2-12.5
		c-4.7-5.4-11.4-7.6-17.1-7.4C404.1,332.9,395.5,339.5,391.9,349.2z"/>
	<path class="st258" d="M395.4,343.6c-0.8-1,2.5-5.8,7.2-8.1c3.8-1.9,8.9-2.4,9.4-1.3C412.8,336.2,396.9,345.3,395.4,343.6z"/>
	<polygon class="st259" points="248,358.1 247.9,370.4 389.4,342.2 389.5,333.1 	"/>
	<path class="st260" d="M403,377.6c0,0-0.2-0.2-0.7-0.5c-0.4-0.3-1-0.8-1.7-1.3c-0.7-0.5-1.5-1.2-2.3-1.9c-0.4-0.4-0.8-0.8-1.2-1.2
		c-0.4-0.4-0.8-0.8-1.2-1.3c-0.4-0.4-0.8-0.9-1.2-1.3c-0.4-0.4-0.7-0.9-1.1-1.3c-0.7-0.9-1.3-1.7-1.8-2.4c-0.5-0.7-0.9-1.4-1.2-1.8
		c-0.3-0.4-0.5-0.7-0.5-0.7s0.1,0.3,0.2,0.8c0.2,0.5,0.4,1.2,0.8,2c0.4,0.8,0.9,1.8,1.5,2.7c0.3,0.5,0.7,1,1,1.4
		c0.4,0.5,0.8,0.9,1.2,1.4c0.4,0.5,0.9,0.9,1.3,1.3c0.4,0.4,0.9,0.8,1.4,1.1c0.9,0.7,1.8,1.3,2.6,1.7c0.8,0.4,1.5,0.7,2,0.9
		C402.8,377.5,403,377.6,403,377.6z"/>
	
		<linearGradient id="SVGID_62_" gradientUnits="userSpaceOnUse" x1="-5278.9746" y1="38.9682" x2="-5132.3193" y2="38.9682" gradientTransform="matrix(-0.9999 -1.054523e-02 -1.054523e-02 0.9999 -4879.2363 302.2926)">
		<stop  offset="3.205128e-04" style="stop-color:#31373C"/>
		<stop  offset="0.9997" style="stop-color:#AFBEC6"/>
	</linearGradient>
	<polygon class="st79" points="252.4,396.4 261.4,414.3 399.1,389.1 387.6,378 	"/>
</g>
</svg>
