<?xml version="1.0" encoding="utf-8"?>
<!-- Generator: Adobe Illustrator 23.0.3, SVG Export Plug-In . SVG Version: 6.00 Build 0)  -->
<svg version="1.1" id="Layer_1" xmlns="http://www.w3.org/2000/svg" xmlns:xlink="http://www.w3.org/1999/xlink" x="0px" y="0px"
	 viewBox="0 0 3821 2663" style="enable-background:new 0 0 3821 2663;" xml:space="preserve">
<style type="text/css">
	.st0{fill:#8C8689;}
	.st1{fill:#A7A7AB;}
	.st2{fill:#D7D8DA;}
	.st3{fill:#E5E6E7;}
	.st4{fill:#FFFFFF;}
	.st5{fill:url(#SVGID_1_);}
	.st6{fill:none;stroke:#FFFFFF;stroke-width:7.4237;stroke-linecap:round;stroke-miterlimit:10;}
	.st7{fill:url(#SVGID_2_);}
	.st8{fill:none;stroke:#FFFFFF;stroke-width:2.1521;stroke-miterlimit:10;}
	.st9{fill:#231F20;}
	.st10{fill:url(#SVGID_3_);}
	.st11{fill:#EC1C24;}
	.st12{fill:#211E1F;}
	.st13{opacity:0.43;fill:#87A73E;}
	.st14{fill:#67696A;}
	.st15{fill:#5B5C5E;}
	.st16{opacity:0.66;fill:#7D7D7D;}
	.st17{fill:url(#SVGID_4_);}
	.st18{fill:url(#SVGID_5_);}
	.st19{fill:#CC202F;}
	.st20{fill:#7D7D7D;}
	.st21{opacity:0.16;fill:#FFFFFF;}
	.st22{opacity:0.16;}
	.st23{fill:url(#SVGID_6_);}
	.st24{fill:url(#SVGID_7_);}
	.st25{fill:url(#SVGID_8_);}
	.st26{fill:url(#SVGID_9_);}
	.st27{fill:url(#SVGID_10_);}
	.st28{fill:url(#SVGID_11_);}
	.st29{fill:url(#SVGID_12_);}
	.st30{fill:url(#SVGID_13_);}
	.st31{fill:url(#SVGID_14_);}
	.st32{fill:url(#SVGID_15_);}
	.st33{fill:url(#SVGID_16_);}
	.st34{fill:url(#SVGID_17_);}
	.st35{fill:url(#SVGID_18_);}
	.st36{fill:url(#SVGID_19_);}
	.st37{fill:url(#SVGID_20_);}
	.st38{fill:url(#SVGID_21_);}
	.st39{fill:url(#SVGID_22_);}
	.st40{fill:url(#SVGID_23_);}
	.st41{fill:url(#SVGID_24_);}
	.st42{fill:url(#SVGID_25_);}
	.st43{fill:url(#SVGID_26_);}
	.st44{fill:url(#SVGID_27_);}
	.st45{fill:url(#SVGID_28_);}
	.st46{fill:url(#SVGID_29_);}
	.st47{fill:url(#SVGID_30_);}
	.st48{fill:url(#SVGID_31_);}
	.st49{fill:url(#SVGID_32_);}
	.st50{fill:url(#SVGID_33_);}
	.st51{fill:url(#SVGID_34_);}
	.st52{fill:url(#SVGID_35_);}
	.st53{fill:url(#SVGID_36_);}
	.st54{fill:url(#SVGID_37_);}
	.st55{fill:url(#SVGID_38_);}
	.st56{fill:url(#SVGID_39_);}
	.st57{fill:url(#SVGID_40_);}
	.st58{fill:url(#SVGID_41_);}
	.st59{fill:url(#SVGID_42_);}
	.st60{fill:url(#SVGID_43_);}
	.st61{fill:url(#SVGID_44_);}
	.st62{fill:url(#SVGID_45_);}
	.st63{fill:url(#SVGID_46_);}
	.st64{fill:url(#SVGID_47_);}
	.st65{fill:url(#SVGID_48_);}
	.st66{fill:url(#SVGID_49_);}
	.st67{fill:url(#SVGID_50_);}
	.st68{fill:url(#SVGID_51_);}
	.st69{fill:url(#SVGID_52_);}
	.st70{fill:url(#SVGID_53_);}
	.st71{fill:url(#SVGID_54_);}
	.st72{fill:url(#SVGID_55_);}
	.st73{fill:url(#SVGID_56_);}
	.st74{fill:url(#SVGID_57_);}
	.st75{fill:url(#SVGID_58_);}
	.st76{fill:url(#SVGID_59_);}
	.st77{fill:url(#SVGID_60_);}
	.st78{fill:url(#SVGID_61_);}
	.st79{fill:url(#SVGID_62_);}
	.st80{fill:url(#SVGID_63_);}
	.st81{fill:url(#SVGID_64_);}
	.st82{fill:url(#SVGID_65_);}
	.st83{fill:url(#SVGID_66_);}
	.st84{fill:url(#SVGID_67_);}
	.st85{fill:url(#SVGID_68_);}
	.st86{fill:url(#SVGID_69_);}
	.st87{fill:url(#SVGID_70_);}
	.st88{fill:url(#SVGID_71_);}
	.st89{fill:url(#SVGID_72_);}
	.st90{fill:url(#SVGID_73_);}
	.st91{fill:url(#SVGID_74_);}
	.st92{fill:url(#SVGID_75_);}
	.st93{fill:url(#SVGID_76_);}
	.st94{fill:url(#SVGID_77_);}
	.st95{fill:url(#SVGID_78_);}
	.st96{fill:url(#SVGID_79_);}
	.st97{fill:url(#SVGID_80_);}
	.st98{fill:url(#SVGID_81_);}
	.st99{fill:url(#SVGID_82_);}
	.st100{fill:url(#SVGID_83_);}
	.st101{fill:url(#SVGID_84_);}
	.st102{fill:url(#SVGID_85_);}
	.st103{fill:url(#SVGID_86_);}
	.st104{fill:url(#SVGID_87_);}
	.st105{fill:url(#SVGID_88_);}
	.st106{fill:url(#SVGID_89_);}
	.st107{fill:url(#SVGID_90_);}
	.st108{fill:url(#SVGID_91_);}
	.st109{fill:url(#SVGID_92_);}
	.st110{fill:url(#SVGID_93_);}
	.st111{fill:url(#SVGID_94_);}
	.st112{fill:url(#SVGID_95_);}
	.st113{fill:url(#SVGID_96_);}
	.st114{fill:url(#SVGID_97_);}
	.st115{fill:url(#SVGID_98_);}
	.st116{fill:url(#SVGID_99_);}
	.st117{fill:url(#SVGID_100_);}
	.st118{fill:url(#SVGID_101_);}
	.st119{fill:url(#SVGID_102_);}
	.st120{fill:url(#SVGID_103_);}
	.st121{fill:url(#SVGID_104_);}
	.st122{fill:url(#SVGID_105_);}
	.st123{fill:url(#SVGID_106_);}
	.st124{fill:url(#SVGID_107_);}
	.st125{fill:url(#SVGID_108_);}
	.st126{fill:url(#SVGID_109_);}
	.st127{fill:url(#SVGID_110_);}
	.st128{fill:url(#SVGID_111_);}
	.st129{fill:url(#SVGID_112_);}
	.st130{fill:url(#SVGID_113_);}
	.st131{fill:url(#SVGID_114_);}
	.st132{fill:url(#SVGID_115_);}
	.st133{fill:url(#SVGID_116_);}
	.st134{fill:url(#SVGID_117_);}
	.st135{fill:url(#SVGID_118_);}
	.st136{fill:url(#SVGID_119_);}
	.st137{fill:url(#SVGID_120_);}
	.st138{clip-path:url(#SVGID_122_);}
	.st139{stroke:#000000;stroke-width:0.5;stroke-miterlimit:10;}
	.st140{fill:#EC1C24;stroke:#EC1C24;stroke-miterlimit:10;}
	.st141{clip-path:url(#SVGID_124_);}
	.st142{fill:#E4E4E4;}
	.st143{fill:#E7222E;}
	.st144{fill:#606161;}
	.st145{fill:none;stroke:#EC1C24;stroke-linecap:round;stroke-linejoin:round;stroke-miterlimit:10;}
	.st146{clip-path:url(#SVGID_126_);fill:none;stroke:#EC1C24;stroke-linecap:round;stroke-linejoin:round;stroke-miterlimit:10;}
	.st147{clip-path:url(#SVGID_128_);fill:none;stroke:#EC1C24;stroke-linecap:round;stroke-linejoin:round;stroke-miterlimit:10;}
	.st148{clip-path:url(#SVGID_130_);}
	.st149{fill:none;}
	.st150{clip-path:url(#SVGID_132_);}
	.st151{clip-path:url(#SVGID_134_);}
	.st152{fill:#A5A3A3;}
	.st153{fill:#E3E5E5;}
	.st154{fill:#1A1A1C;}
	.st155{fill-rule:evenodd;clip-rule:evenodd;}
	.st156{clip-path:url(#SVGID_138_);}
	.st157{fill:#EAEAEE;}
	.st158{fill:#EEEFEF;}
	.st159{fill:#D2D2D2;}
	.st160{fill:#EA2127;}
	.st161{fill:none;stroke:#EAEAEE;stroke-width:1.2273;stroke-miterlimit:10;}
	.st162{fill:#A4A6AA;}
	.st163{fill:url(#SVGID_141_);}
	.st164{fill:url(#SVGID_142_);}
	.st165{fill:url(#SVGID_143_);}
	.st166{fill:#B21217;}
	.st167{fill:#4A4C4C;}
	.st168{fill:url(#SVGID_144_);}
	.st169{fill:#070000;}
	.st170{fill:url(#SVGID_145_);}
</style>
<g>
	
		<linearGradient id="SVGID_1_" gradientUnits="userSpaceOnUse" x1="1512.0336" y1="1838.2747" x2="2216.4854" y2="2761.5852" gradientTransform="matrix(-1 0 0 1 4141.0605 0)">
		<stop  offset="0" style="stop-color:#FFFCE8"/>
		<stop  offset="0.8158" style="stop-color:#FFFCE8;stop-opacity:0"/>
	</linearGradient>
	<polygon class="st5" points="2711.9,2663 3169,1840.5 3175.9,1813.1 3807,1734.4 3189,1797 3008.8,1735.7 3008.8,1735.7 2987,1735 
		901,2663 	"/>
</g>
<g>
	
		<image style="overflow:visible;" width="26" height="298" xlink:href="FE20E15541C7E944.jpg"  transform="matrix(-6.2756 0 0 -5.2883 3149.5159 1734.4246)">
	</image>
	
		<linearGradient id="SVGID_2_" gradientUnits="userSpaceOnUse" x1="-405.834" y1="131.187" x2="-233.5559" y2="1732.3595" gradientTransform="matrix(-1 0 0 1 2770.8147 0)">
		<stop  offset="0" style="stop-color:#0A0405"/>
		<stop  offset="8.494133e-02" style="stop-color:#292322"/>
		<stop  offset="0.2765" style="stop-color:#69645D"/>
		<stop  offset="0.4592" style="stop-color:#9F9A8F"/>
		<stop  offset="0.6279" style="stop-color:#C8C5B5"/>
		<stop  offset="0.7794" style="stop-color:#E6E3D1"/>
		<stop  offset="0.9085" style="stop-color:#F8F5E2"/>
		<stop  offset="1" style="stop-color:#FFFCE8"/>
	</linearGradient>
	<polygon class="st7" points="3009.5,1734.4 3162.6,1788.7 3162.6,157.4 3009.5,157.4 	"/>
</g>
<linearGradient id="SVGID_3_" gradientUnits="userSpaceOnUse" x1="3189.0635" y1="-23.623" x2="3162.0396" y2="1820.7568">
	<stop  offset="3.637566e-03" style="stop-color:#EA2127"/>
	<stop  offset="1" style="stop-color:#000000"/>
</linearGradient>
<polygon class="st10" points="3188.8,-27.6 3188.8,1796.8 3162.6,1788.7 3162.6,-20.6 "/>
<circle class="st144" cx="3175" cy="477.7" r="10.1"/>
<g>
	<path class="st166" d="M2921.6,1381.8l-31.9-4.7c-9.9-1.5-17.3-10-17.3-20v-118.6c0-10,7.4-18.5,17.3-20l31.9-4.7
		c7.8-1.1,14.8,4.9,14.8,12.8V1369C2936.4,1376.9,2929.4,1382.9,2921.6,1381.8z"/>
	<path class="st11" d="M2925,1381.8l-31.9-4.7c-9.9-1.5-17.3-10-17.3-20v-118.6c0-10,7.4-18.5,17.3-20l31.9-4.7
		c7.8-1.1,14.8,4.9,14.8,12.8V1369C2939.8,1376.9,2932.8,1382.9,2925,1381.8z"/>
	<circle class="st144" cx="2922.2" cy="1232.2" r="8.5"/>
	<circle class="st144" cx="2891.1" cy="1266.6" r="8.5"/>
	<circle class="st144" cx="2891.1" cy="1324.6" r="8.5"/>
	<circle class="st144" cx="2924.6" cy="1364.2" r="8.5"/>
	<g>
		<polygon class="st167" points="2927.8,1368.4 2926,1369.3 2923.4,1364.8 2921.5,1360.1 2923.3,1359.2 2925.9,1363.6 		"/>
		<polygon class="st167" points="2928.8,1361.1 2929.7,1362.9 2925.3,1365.5 2920.5,1367.4 2919.6,1365.6 2924,1363 		"/>
	</g>
	<g>
		<polygon class="st167" points="2894.2,1328.8 2892.4,1329.7 2889.8,1325.3 2887.9,1320.5 2889.7,1319.6 2892.3,1324 		"/>
		<polygon class="st167" points="2895.2,1321.5 2896.1,1323.3 2891.7,1325.9 2886.9,1327.8 2886,1326 2890.5,1323.4 		"/>
	</g>
	<g>
		<polygon class="st167" points="2894.2,1270.8 2892.4,1271.7 2889.8,1267.2 2887.9,1262.5 2889.7,1261.6 2892.3,1266 		"/>
		<polygon class="st167" points="2895.2,1263.5 2896.1,1265.3 2891.7,1267.9 2886.9,1269.8 2886,1268 2890.5,1265.4 		"/>
	</g>
	<g>
		<polygon class="st167" points="2925.4,1236.3 2923.6,1237.2 2921,1232.8 2919.1,1228 2920.9,1227.1 2923.5,1231.6 		"/>
		<polygon class="st167" points="2926.4,1229 2927.3,1230.8 2922.8,1233.4 2918.1,1235.3 2917.2,1233.5 2921.6,1230.9 		"/>
	</g>
</g>
<g>
	<path class="st166" d="M3250.2,1516l39.3-5.8c12.2-1.8,21.3-12.3,21.3-24.7v-146.3c0-12.4-9.1-22.9-21.3-24.7l-39.3-5.8
		c-9.6-1.4-18.2,6-18.2,15.8v175.6C3231.9,1509.9,3240.6,1517.4,3250.2,1516z"/>
	<path class="st11" d="M3246,1516l39.3-5.8c12.2-1.8,21.3-12.3,21.3-24.7v-146.3c0-12.4-9.1-22.9-21.3-24.7l-39.3-5.8
		c-9.6-1.4-18.2,6-18.2,15.8v175.6C3227.8,1509.9,3236.4,1517.4,3246,1516z"/>
	<circle class="st144" cx="3249.4" cy="1331.5" r="10.4"/>
	<circle class="st144" cx="3287.8" cy="1374" r="10.4"/>
	<circle class="st144" cx="3287.8" cy="1445.5" r="10.4"/>
	<circle class="st144" cx="3246.4" cy="1494.3" r="10.4"/>
	<g>
		<polygon class="st167" points="3242.5,1499.4 3244.7,1500.6 3247.9,1495.1 3250.3,1489.2 3248,1488.1 3244.9,1493.6 		"/>
		<polygon class="st167" points="3241.3,1490.4 3240.2,1492.7 3245.6,1495.9 3251.5,1498.2 3252.6,1496 3247.1,1492.8 		"/>
	</g>
	<g>
		<polygon class="st167" points="3283.9,1450.6 3286.1,1451.7 3289.3,1446.3 3291.7,1440.4 3289.5,1439.3 3286.3,1444.8 		"/>
		<polygon class="st167" points="3282.7,1441.6 3281.6,1443.9 3287.1,1447 3292.9,1449.4 3294,1447.2 3288.5,1444 		"/>
	</g>
	<g>
		<polygon class="st167" points="3283.9,1379.1 3286.1,1380.2 3289.3,1374.7 3291.7,1368.8 3289.5,1367.7 3286.3,1373.2 		"/>
		<polygon class="st167" points="3282.7,1370.1 3281.6,1372.3 3287.1,1375.5 3292.9,1377.9 3294,1375.6 3288.5,1372.4 		"/>
	</g>
	<g>
		<polygon class="st167" points="3245.5,1336.6 3247.7,1337.7 3250.9,1332.2 3253.3,1326.4 3251,1325.2 3247.8,1330.7 		"/>
		<polygon class="st167" points="3244.3,1327.6 3243.1,1329.8 3248.6,1333 3254.5,1335.4 3255.6,1333.1 3250.1,1330 		"/>
	</g>
</g>
<path class="st167" d="M3233.2,1422.4c49.6-0.4,66.3-5.1,66.3-13.5c0-7-13.5-12.8-66.3-12.8c0,0-26,1.3-26,12.1
	C3207.1,1417.1,3221.9,1422.5,3233.2,1422.4z"/>
<path class="st144" d="M3159.2,1403.3c43.7,6,65,2.7,65,2.7s74-15.2,74,2.3c0,11.6-28.7,17.9-139,5.6V1403.3z"/>
<g>
	<path class="st144" d="M2953.2,1281.6l-39.1-15.6h-26C2888.1,1266,2885.1,1284.9,2953.2,1281.6z"/>
	<path class="st144" d="M2953.2,1330.6l-42.1-15.6h-23C2888.1,1315.1,2885.1,1333.9,2953.2,1330.6z"/>
	
		<linearGradient id="SVGID_4_" gradientUnits="userSpaceOnUse" x1="-411.3009" y1="1352.9915" x2="-116.93" y2="1352.9915" gradientTransform="matrix(-1 0 0 1 2770.8147 0)">
		<stop  offset="0" style="stop-color:#FFFFFF"/>
		<stop  offset="8.798363e-02" style="stop-color:#D7E0E9"/>
		<stop  offset="1" style="stop-color:#000000"/>
	</linearGradient>
	<path class="st17" d="M2887.7,1330.4c7.9,4,18.2,6.3,27.1,7.9c15.2,2.7,30.1,3.7,34,3.9c3.4,1.3,5.7,4.6,5.7,8.4
		c0,8.9,5.6,16.9,13.8,20.1l175.6,67.4c3.3,1.3,6.7,1.9,10.1,1.9c5.6,0,11.2-1.7,15.9-4.9c7.6-5.2,12.2-13.9,12.2-23.2
		c0-11.6-7.2-22.1-18-26.2l-191.3-73.4c-3.5-1.3-5.8-4.7-5.8-8.4v-2.1c0-9.5-6.1-17.8-15.2-20.6c-0.5-0.2-1-0.2-1.6-0.3
		c-0.2,0-16.9-0.8-33.4-3.8c-23.9-4.3-28.8-9.8-28.8-11.1l-0.4,15.5c7.9,4,18.2,6.3,27.1,7.9c15.2,2.7,30.1,3.7,34,3.9
		c3.4,1.3,5.7,4.6,5.7,8.4v2.1c0,8.9,5.6,16.9,13.8,20.1l191.3,73.4c6,2.3,10,8.1,10,14.5c0,5.2-2.5,9.9-6.8,12.8
		c-4.3,3-9.5,3.6-14.4,1.7l-175.6-67.4c-3.5-1.3-5.8-4.7-5.8-8.4c0-9.5-6.1-17.8-15.2-20.6c-0.5-0.2-1-0.2-1.6-0.3
		c-0.2,0-16.9-0.8-33.4-3.8c-23.9-4.3-28.8-9.8-28.8-11.1L2887.7,1330.4z"/>
</g>
<path class="st169" d="M3329.2,554.7c0,12.3-9.1,22.8-21.3,24.6l-39.4,5.8c-1.5,0.2-3,0.2-4.4,0c-9.5,1.3-18-6.2-18-15.8v-14.6
	H3329.2z"/>
<circle class="st144" cx="3154.9" cy="1412.4" r="17.4"/>
<circle class="st144" cx="3173.4" cy="481.6" r="17.4"/>
<g>
	<path class="st166" d="M2934,450.3l-28.7-4.2c-8.9-1.3-15.6-9-15.6-18V321.3c0-9,6.6-16.7,15.6-18l28.7-4.2c7-1,13.3,4.4,13.3,11.5
		v128.3C2947.3,445.9,2941,451.4,2934,450.3z"/>
	<path class="st11" d="M2937,450.3l-28.7-4.2c-8.9-1.3-15.6-9-15.6-18V321.3c0-9,6.6-16.7,15.6-18l28.7-4.2c7-1,13.3,4.4,13.3,11.5
		v128.3C2950.3,445.9,2944,451.4,2937,450.3z"/>
	<circle class="st144" cx="2934.5" cy="315.6" r="7.6"/>
	<circle class="st144" cx="2906.5" cy="346.6" r="7.6"/>
	<circle class="st144" cx="2906.5" cy="398.9" r="7.6"/>
	<circle class="st144" cx="2936.7" cy="434.5" r="7.6"/>
	<g>
		<polygon class="st167" points="2939.6,438.3 2937.9,439.1 2935.6,435.1 2933.9,430.8 2935.5,430 2937.8,434 		"/>
		<polygon class="st167" points="2940.5,431.7 2941.3,433.3 2937.3,435.6 2933,437.4 2932.2,435.7 2936.2,433.4 		"/>
	</g>
	<g>
		<polygon class="st167" points="2909.3,402.6 2907.7,403.4 2905.3,399.4 2903.6,395.1 2905.3,394.3 2907.6,398.3 		"/>
		<polygon class="st167" points="2910.2,396 2911,397.7 2907,400 2902.7,401.7 2901.9,400.1 2905.9,397.8 		"/>
	</g>
	<g>
		<polygon class="st167" points="2909.3,350.3 2907.7,351.2 2905.3,347.2 2903.6,342.9 2905.3,342.1 2907.6,346.1 		"/>
		<polygon class="st167" points="2910.2,343.7 2911,345.4 2907,347.7 2902.7,349.5 2901.9,347.8 2905.9,345.5 		"/>
	</g>
	<g>
		<polygon class="st167" points="2937.4,319.3 2935.8,320.1 2933.4,316.1 2931.7,311.8 2933.3,311 2935.7,315 		"/>
		<polygon class="st167" points="2938.3,312.7 2939.1,314.4 2935.1,316.7 2930.8,318.4 2930,316.8 2934,314.5 		"/>
	</g>
</g>
<g>
	<path class="st166" d="M3329.2,408.4v146.3c0,12.3-9.1,22.8-21.3,24.6l-39.4,5.8c-1.5,0.2-3,0.2-4.4,0c-7.7-1-13.8-7.6-13.8-15.8
		V393.8c0-8.2,6.1-14.8,13.8-15.8c1.4-0.2,2.9-0.2,4.4,0l39.4,5.8C3320.1,385.6,3329.2,396.1,3329.2,408.4z"/>
	<path class="st11" d="M3325,408.4v146.3c0,12.3-9.1,22.8-21.3,24.6l-39.3,5.8c-0.1,0-0.2,0-0.2,0c-9.5,1.3-18-6.2-18-15.8V393.8
		c0-9.6,8.5-17,18-15.8c0.1,0,0.1,0,0.2,0l39.3,5.8C3315.9,385.6,3325,396.1,3325,408.4z"/>
	<circle class="st144" cx="3267.7" cy="400.6" r="10.4"/>
	<circle class="st144" cx="3306.1" cy="443.1" r="10.4"/>
	<circle class="st144" cx="3306.1" cy="514.7" r="10.4"/>
	<circle class="st144" cx="3264.7" cy="563.5" r="10.4"/>
	<g>
		<polygon class="st167" points="3260.8,568.6 3263.1,569.7 3266.3,564.2 3268.6,558.4 3266.4,557.3 3263.2,562.7 		"/>
		<polygon class="st167" points="3259.6,559.6 3258.5,561.8 3264,565 3269.8,567.4 3271,565.2 3265.5,562 		"/>
	</g>
	<g>
		<polygon class="st167" points="3302.2,519.8 3304.5,520.9 3307.7,515.4 3310,509.6 3307.8,508.4 3304.6,513.9 		"/>
		<polygon class="st167" points="3301,510.8 3299.9,513 3305.4,516.2 3311.3,518.6 3312.4,516.3 3306.9,513.2 		"/>
	</g>
	<g>
		<polygon class="st167" points="3302.2,448.3 3304.5,449.4 3307.7,443.9 3310,438 3307.8,436.9 3304.6,442.4 		"/>
		<polygon class="st167" points="3301,439.2 3299.9,441.5 3305.4,444.7 3311.3,447.1 3312.4,444.8 3306.9,441.6 		"/>
	</g>
	<g>
		<polygon class="st167" points="3263.8,405.8 3266,406.9 3269.2,401.4 3271.6,395.5 3269.4,394.4 3266.2,399.9 		"/>
		<polygon class="st167" points="3262.6,396.7 3261.5,399 3267,402.2 3272.8,404.6 3273.9,402.3 3268.5,399.1 		"/>
	</g>
</g>
<path class="st167" d="M3251.5,491.6c49.6-0.4,66.3-5.1,66.3-13.5c0-7-13.5-12.8-66.3-12.8c0,0-26,1.3-26,12.1
	C3225.5,486.3,3240.2,491.7,3251.5,491.6z"/>
<path class="st144" d="M3177.5,472.4c43.7,6,65,2.7,65,2.7s74-15.2,74,2.3c0,11.6-28.7,17.9-139,5.6V472.4z"/>
<g>
	<path class="st144" d="M2971.5,350.8l-39.1-15.6h-26C2906.5,335.2,2903.4,354,2971.5,350.8z"/>
	<path class="st144" d="M2971.5,399.8l-42.1-15.6h-23C2906.5,384.2,2903.4,403.1,2971.5,399.8z"/>
	
		<linearGradient id="SVGID_5_" gradientUnits="userSpaceOnUse" x1="-429.6317" y1="422.1592" x2="-135.2608" y2="422.1592" gradientTransform="matrix(-1 0 0 1 2770.8147 0)">
		<stop  offset="0" style="stop-color:#FFFFFF"/>
		<stop  offset="8.798363e-02" style="stop-color:#D7E0E9"/>
		<stop  offset="1" style="stop-color:#000000"/>
	</linearGradient>
	<path class="st18" d="M2906.1,399.6c7.9,4,18.2,6.3,27.1,7.9c15.2,2.7,30.1,3.7,34,3.9c3.4,1.3,5.7,4.6,5.7,8.4
		c0,8.9,5.6,16.9,13.8,20.1l175.6,67.4c3.3,1.3,6.7,1.9,10.1,1.9c5.6,0,11.2-1.7,15.9-4.9c7.6-5.2,12.2-13.9,12.2-23.2
		c0-11.6-7.2-22.1-18-26.2l-191.3-73.4c-3.5-1.3-5.8-4.7-5.8-8.4v-2.1c0-9.5-6.1-17.8-15.2-20.6c-0.5-0.2-1-0.2-1.6-0.3
		c-0.2,0-16.9-0.8-33.4-3.8c-23.9-4.3-28.8-9.8-28.8-11.1l-0.4,15.5c7.9,4,18.2,6.3,27.1,7.9c15.2,2.7,30.1,3.7,34,3.9
		c3.4,1.3,5.7,4.6,5.7,8.4v2.1c0,8.9,5.6,16.9,13.8,20.1l191.3,73.4c6,2.3,10,8.1,10,14.5c0,5.2-2.5,9.9-6.8,12.8
		c-4.3,3-9.5,3.6-14.4,1.7l-175.6-67.4c-3.5-1.3-5.8-4.7-5.8-8.4c0-9.5-6.1-17.8-15.2-20.6c-0.5-0.2-1-0.2-1.6-0.3
		c-0.2,0-16.9-0.8-33.4-3.8c-23.9-4.3-28.8-9.8-28.8-11.1L2906.1,399.6z"/>
</g>
</svg>
