<?xml version="1.0" encoding="UTF-8"?>
<svg width="500px" height="500px" viewBox="0 0 500 500" version="1.1" xmlns="http://www.w3.org/2000/svg" xmlns:xlink="http://www.w3.org/1999/xlink">
    <!-- Generator: Sketch 55.2 (78181) - https://sketchapp.com -->
    <title>Bot Defender Shield</title>
    <desc>Created with Sketch.</desc>
    <g id="Bot-Defender-Shield" stroke="none" stroke-width="1" fill="none" fill-rule="evenodd" stroke-linecap="round" stroke-linejoin="round">
        <path d="M151.206591,374.341626 C179.272608,427.593699 235.184597,463.903063 299.574517,463.903063 C392.134248,463.903063 467.165174,388.889445 467.165174,296.356186 L467.165174,106.890042 C349.063706,87.7765742 299.574517,50.6702974 299.574517,50.6702974 C299.574517,50.6702974 250.085327,87.7765742 131.988012,106.890042 L131.988012,149.504152" id="Stroke-3" stroke="#000000" stroke-width="2"></path>
        <polygon id="Stroke-5" stroke="#E02020" stroke-width="2" points="245.394366 346.126761 33 346.126761 33 308.76276 33 170.492958 245.394366 170.492958"></polygon>
        <polyline id="Stroke-7" stroke="#E02020" stroke-width="2" points="33 310.387324 89.6729426 310.387324 105.140097 285.880282 163.474663 285.880282 184.464029 310.387324 245.394366 310.387324"></polyline>
        <polygon id="Stroke-9" stroke="#E02020" stroke-width="2" points="100.394366 242.992958 57.5070423 242.992958 57.5070423 218.485915 100.394366 226.547332"></polygon>
        <polygon id="Stroke-11" stroke="#E02020" stroke-width="2" points="221.908451 242.992958 179.021127 242.992958 179.021127 226.547332 221.908451 218.485915"></polygon>
    </g>
</svg>