<?xml version="1.0" encoding="UTF-8"?>
<svg width="500px" height="500px" viewBox="0 0 500 500" version="1.1" xmlns="http://www.w3.org/2000/svg" xmlns:xlink="http://www.w3.org/1999/xlink">
    <!-- Generator: Sketch 55.2 (78181) - https://sketchapp.com -->
    <title>Bot Defender Shield</title>
    <desc>Created with Sketch.</desc>
    <g id="Bot-Defender-Shield" stroke="none" stroke-width="1" fill="none" fill-rule="evenodd" stroke-linecap="round" stroke-linejoin="round">
        <path d="M145.206591,381.342007 C173.272608,434.59408 229.184597,470.903444 293.574517,470.903444 C386.134248,470.903444 461.165174,395.889826 461.165174,303.356567 L461.165174,113.890423 C343.063706,94.7769552 293.574517,57.6706784 293.574517,57.6706784 C293.574517,57.6706784 244.085327,94.7769552 125.988012,113.890423 L125.988012,156.504533" id="Stroke-3" stroke="#000000" stroke-width="4"></path>
        <polygon id="Stroke-5" stroke="#E02020" stroke-width="4" points="239.394366 353.127142 27 353.127142 27 315.763141 27 177.493339 239.394366 177.493339"></polygon>
        <polyline id="Stroke-7" stroke="#E02020" stroke-width="4" points="27 317.387705 83.6729426 317.387705 99.1400968 292.880663 157.474663 292.880663 178.464029 317.387705 239.394366 317.387705"></polyline>
        <polygon id="Stroke-9" stroke="#E02020" stroke-width="4" points="94.3943662 249.993339 51.5070423 249.993339 51.5070423 225.486296 94.3943662 233.547713"></polygon>
        <polygon id="Stroke-11" stroke="#E02020" stroke-width="4" points="215.908451 249.993339 173.021127 249.993339 173.021127 233.547713 215.908451 225.486296"></polygon>
    </g>
</svg>