<?xml version="1.0" encoding="UTF-8"?>
<svg width="500px" height="500px" viewBox="0 0 500 500" version="1.1" xmlns="http://www.w3.org/2000/svg" xmlns:xlink="http://www.w3.org/1999/xlink">
    <!-- Generator: Sketch 55.2 (78181) - https://sketchapp.com -->
    <title>Code Defender Shield</title>
    <desc>Created with Sketch.</desc>
    <g id="Code-Defender-Shield" stroke="none" stroke-width="1" fill="none" fill-rule="evenodd">
        <path d="M160.195887,308.905139 C171.215846,383.082029 235.42241,439.999619 312.979196,439.999619 C398.28439,439.999619 467.43463,371.141489 467.43463,286.205159 L467.43463,112.286279 C358.58958,94.737419 312.979196,60.676019 312.979196,60.676019 C312.979196,60.676019 267.368811,94.737419 158.523761,112.286279 L158.523761,168.643799" id="Stroke-3" stroke="#000000" stroke-width="2" stroke-linecap="round" stroke-linejoin="round"></path>
        <path d="M102.295082,200.44175 L221.98586,200.44175" id="Fill-5" fill="#FAFAFA"></path>
        <path d="M102.295082,200.44175 L221.98586,200.44175" id="Stroke-7" stroke="#E02020" stroke-width="2" stroke-linecap="round" stroke-linejoin="round"></path>
        <path d="M207.270601,239.3686 L345.117299,239.3686" id="Fill-9" fill="#FAFAFA"></path>
        <path d="M207.270601,239.3686 L345.117299,239.3686" id="Stroke-11" stroke="#E02020" stroke-width="2" stroke-linecap="round" stroke-linejoin="round"></path>
        <path d="M101.394977,239.3686 L165.971014,239.3686" id="Fill-13" fill="#FAFAFA"></path>
        <path d="M101.394977,239.3686 L165.971014,239.3686" id="Stroke-15" stroke="#E02020" stroke-width="2" stroke-linecap="round" stroke-linejoin="round"></path>
        <path d="M239.472265,280.338 L359.476974,280.338" id="Fill-17" fill="#FAFAFA"></path>
        <path d="M239.472265,280.338 L359.476974,280.338" id="Stroke-19" stroke="#E02020" stroke-width="2" stroke-linecap="round" stroke-linejoin="round"></path>
        <path d="M120.779718,280.338 L202.594279,280.338" id="Fill-21" fill="#FAFAFA"></path>
        <path d="M120.779718,280.338 L202.594279,280.338" id="Stroke-23" stroke="#E02020" stroke-width="2" stroke-linecap="round" stroke-linejoin="round"></path>
        <polyline id="Stroke-27" stroke="#E02020" stroke-width="2" stroke-linecap="round" stroke-linejoin="round" points="61.6369559 218.188373 33.7632059 190.427245 61.6369559 162.669851"></polyline>
        <polyline id="Stroke-31" stroke="#E02020" stroke-width="2" stroke-linecap="round" stroke-linejoin="round" points="400.587532 255.119044 430.710742 282.760512 400.587532 310.398262"></polyline>
        <path d="M252.821203,200.44175 L313.719556,200.44175" id="Fill-33" fill="#FAFAFA"></path>
        <path d="M252.821203,200.44175 L313.719556,200.44175" id="Stroke-35" stroke="#E02020" stroke-width="2" stroke-linecap="round" stroke-linejoin="round"></path>
    </g>
</svg>