<?xml version="1.0" encoding="UTF-8"?>
<svg width="500px" height="500px" viewBox="0 0 500 500" version="1.1" xmlns="http://www.w3.org/2000/svg" xmlns:xlink="http://www.w3.org/1999/xlink">
    <!-- Generator: Sketch 55.2 (78181) - https://sketchapp.com -->
    <title>Code Defender Shield</title>
    <desc>Created with Sketch.</desc>
    <g id="Code-Defender-Shield" stroke="none" stroke-width="1" fill="none" fill-rule="evenodd">
        <path d="M141.177607,310.487746 C152.664502,387.730163 219.591619,447 300.43463,447 C389.354365,447 461.43463,375.296153 461.43463,286.849638 L461.43463,105.74317 C347.977612,87.4690639 300.43463,52 300.43463,52 C300.43463,52 252.891648,87.4690639 139.43463,105.74317 L139.43463,164.429791" id="Stroke-3" stroke="#000000" stroke-width="4" stroke-linecap="round" stroke-linejoin="round"></path>
        <path d="M81.4346302,197.5 L205.43463,197.5" id="Fill-5" fill="#FAFAFA"></path>
        <path d="M81.4346302,197.5 L205.43463,197.5" id="Stroke-7" stroke="#E02020" stroke-width="4" stroke-linecap="round" stroke-linejoin="round"></path>
        <path d="M190.43463,238.5 L334.43463,238.5" id="Fill-9" fill="#FAFAFA"></path>
        <path d="M190.43463,238.5 L334.43463,238.5" id="Stroke-11" stroke="#E02020" stroke-width="4" stroke-linecap="round" stroke-linejoin="round"></path>
        <path d="M80.4346302,238.5 L147.43463,238.5" id="Fill-13" fill="#FAFAFA"></path>
        <path d="M80.4346302,238.5 L147.43463,238.5" id="Stroke-15" stroke="#E02020" stroke-width="4" stroke-linecap="round" stroke-linejoin="round"></path>
        <path d="M224.43463,280.5 L349.43463,280.5" id="Fill-17" fill="#FAFAFA"></path>
        <path d="M224.43463,280.5 L349.43463,280.5" id="Stroke-19" stroke="#E02020" stroke-width="4" stroke-linecap="round" stroke-linejoin="round"></path>
        <path d="M100.43463,280.5 L185.43463,280.5" id="Fill-21" fill="#FAFAFA"></path>
        <path d="M100.43463,280.5 L185.43463,280.5" id="Stroke-23" stroke="#E02020" stroke-width="4" stroke-linecap="round" stroke-linejoin="round"></path>
        <polyline id="Stroke-27" stroke="#E02020" stroke-width="4" stroke-linecap="round" stroke-linejoin="round" points="38.4346302 216 9.43463018 186.998049 38.4346302 158"></polyline>
        <polyline id="Stroke-31" stroke="#E02020" stroke-width="4" stroke-linecap="round" stroke-linejoin="round" points="391.43463 254 423.43463 283.001951 391.43463 312"></polyline>
        <path d="M238.43463,197.5 L301.43463,197.5" id="Fill-33" fill="#FAFAFA"></path>
        <path d="M238.43463,197.5 L301.43463,197.5" id="Stroke-35" stroke="#E02020" stroke-width="4" stroke-linecap="round" stroke-linejoin="round"></path>
    </g>
</svg>