<?xml version="1.0" encoding="UTF-8"?>
<svg width="500px" height="500px" viewBox="0 0 500 500" version="1.1" xmlns="http://www.w3.org/2000/svg" xmlns:xlink="http://www.w3.org/1999/xlink">
    <!-- Generator: Sketch 55.2 (78181) - https://sketchapp.com -->
    <title>data-leak</title>
    <desc>Created with Sketch.</desc>
    <defs>
        <polygon id="path-1" points="0 0.1938 360.792796 0.1938 360.792796 14.9988 0 14.9988"></polygon>
        <polygon id="path-3" points="0.595175913 0.32297619 12.9823239 0.32297619 12.9823239 19.3928014 0.595175913 19.3928014"></polygon>
    </defs>
    <g id="data-leak" stroke="none" stroke-width="1" fill="none" fill-rule="evenodd">
        <path d="M339.373064,199 L373.7524,199 C376.095903,199 378,200.921267 378,203.285903 L378,394 L120,394 L120,203.285903 C120,200.921267 121.90069,199 124.2476,199 L194.998931,199" id="Stroke-1" stroke="#0F222E" stroke-width="4" stroke-linecap="round" stroke-linejoin="round"></path>
        <g id="Group-5" transform="translate(20.000000, 413.000000)">
            <mask id="mask-2" fill="white">
                <use xlink:href="#path-1"></use>
            </mask>
            <g id="Clip-4"></g>
        </g>
        <path d="M230.829016,165.365103 C229.617925,165.728523 228.91176,166.682927 228.699544,168.214728 C228.487329,169.749926 228.809311,171.726663 229.658172,174.158525 C230.510693,176.593784 231.50591,178.380319 232.647482,179.511339 C233.792714,180.645755 234.963557,181.026158 236.178307,180.662737 C237.400375,180.29592 238.110199,179.341516 238.322415,177.802922 C238.527312,176.264327 238.20533,174.274005 237.35281,171.838746 C236.503948,169.410281 235.51239,167.633935 234.370818,166.506311 C233.229245,165.378688 232.051084,165.001682 230.829016,165.365103 M236.899108,182.731178 C234.919651,183.325558 233.042642,182.934966 231.271741,181.552608 C229.504499,180.160062 228.08851,177.959159 227.031092,174.936313 C225.980992,171.930451 225.732188,169.376316 226.288338,167.290893 C226.848148,165.205469 228.117781,163.863869 230.097239,163.26949 C232.076696,162.671713 233.953705,163.069099 235.735582,164.454852 C237.510142,165.844003 238.926131,168.038113 239.972572,171.040579 C241.022673,174.046442 241.267818,176.593784 240.708008,178.692793 C240.151858,180.791802 238.878565,182.133402 236.899108,182.731178" id="Fill-6" fill="#EC1C24"></path>
        <path d="M254.251098,229.169844 C252.860108,229.076762 251.716938,229.688444 250.809597,231.001568 C249.906253,232.314691 249.334668,234.216226 249.090845,236.709498 C248.847023,239.206094 249.046877,241.164144 249.682416,242.590295 C250.329946,244.009798 251.337214,244.767753 252.728204,244.864159 C254.127188,244.953917 255.278352,244.33891 256.181696,243.025787 C257.08504,241.706015 257.660622,239.794507 257.900447,237.29791 C258.14427,234.804638 257.944416,232.853238 257.308877,231.437059 C256.665344,230.020881 255.650082,229.259602 254.251098,229.169844 M252.524352,246.981778 C250.257998,246.828858 248.539246,245.818251 247.380088,243.946635 C246.216933,242.081668 245.79324,239.595045 246.093023,236.496739 C246.388808,233.408406 247.292152,231.018189 248.799057,229.326089 C250.301966,227.637313 252.188596,226.866061 254.458947,227.018981 C256.721304,227.165253 258.440056,228.185833 259.607208,230.057449 C260.770363,231.932389 261.206047,234.412364 260.910262,237.490723 C260.610479,240.569083 259.703138,242.955975 258.188238,244.658049 C256.677336,246.360123 254.790706,247.131375 252.524352,246.981778" id="Fill-8" fill="#EC1C24"></path>
        <path d="M312.251793,149.166183 C310.860612,149.07641 309.717285,149.688193 308.809819,151.00153 C307.910348,152.314868 307.338685,154.216713 307.094828,156.710392 C306.850972,159.207395 307.050854,161.165764 307.68648,162.592149 C308.334099,164.015208 309.341506,164.769961 310.732687,164.863059 C312.127866,164.956156 313.279188,164.344374 314.186654,163.027711 C315.090123,161.704399 315.665784,159.792579 315.905643,157.295575 C316.149499,154.801897 315.949617,152.850177 315.309993,151.437093 C314.666372,150.020683 313.646972,149.25928 312.251793,149.166183 M310.528807,166.981023 C308.258144,166.831402 306.543153,165.820631 305.383835,163.94871 C304.22052,162.080113 303.792772,159.599734 304.092595,156.497598 C304.392419,153.408761 305.29189,151.01483 306.799002,149.325778 C308.306115,147.636727 310.189007,146.868673 312.463668,147.018294 C314.726337,147.167915 316.441327,148.182011 317.60864,150.057257 C318.775953,151.932504 319.207699,154.409558 318.907875,157.48842 C318.61205,160.570606 317.708581,162.957888 316.193473,164.660239 C314.682363,166.362591 312.795473,167.133969 310.528807,166.981023" id="Fill-10" fill="#EC1C24"></path>
        <g id="Group-14" transform="translate(338.000000, 75.000000)">
            <mask id="mask-4" fill="white">
                <use xlink:href="#path-3"></use>
            </mask>
            <g id="Clip-13"></g>
            <path d="M8.66997529,2.51608333 C7.62936353,2.2300119 6.65379,2.64465476 5.74325471,3.76644048 C4.83581647,4.88179762 4.08323118,6.60786905 3.48240176,8.94465476 C2.88157235,11.287869 2.70194294,13.1810833 2.95280471,14.6275119 C3.20366647,16.0739405 3.84785471,16.9385833 4.89156353,17.2246548 C5.94146647,17.5171548 6.92323412,17.0992976 7.83067235,15.9742976 C8.74120765,14.8525119 9.49689,13.1167976 10.0977194,10.7735833 C10.6954518,8.4400119 10.8750812,6.55644048 10.6211224,5.11644048 C10.3702606,3.67322619 9.72297529,2.80858333 8.66997529,2.51608333 M4.38054882,19.2142976 C2.67406941,18.7450119 1.53744882,17.5364405 0.970687059,15.5885833 C0.394634118,13.6439405 0.481351765,11.220369 1.23084,8.31465476 C1.97413412,5.41858333 3.05810471,3.27144048 4.48894588,1.88286905 C5.91669,0.491083333 7.48380176,0.0314404762 9.19028118,0.50072619 C10.8905665,0.97322619 12.0302841,2.18179762 12.6063371,4.13608333 C13.1792929,6.08394048 13.0987694,8.5075119 12.3554753,11.3939405 C11.6152782,14.2771548 10.5282106,16.4210833 9.09117529,17.8225119 C7.65414,19.2207262 6.08083412,19.6867976 4.38054882,19.2142976" id="Fill-12" fill="#EC1C24" mask="url(#mask-4)"></path>
        </g>
        <path d="M304.248953,95.1669309 C302.857921,95.0738338 301.714717,95.6856144 300.815343,96.9989477 C299.907974,98.3122809 299.336372,100.214121 299.096539,102.707791 C298.852709,105.204787 299.048572,107.16315 299.688127,108.589529 C300.331679,110.009259 301.338978,110.767335 302.73001,110.863757 C304.129036,110.953529 305.280235,110.338424 306.183606,109.025091 C307.090975,107.705107 307.662577,105.793293 307.90241,103.296298 C308.14624,100.802627 307.950377,98.8509138 307.310822,97.4345088 C306.663273,96.0181038 305.647979,95.256703 304.248953,95.1669309 M302.526152,112.981715 C300.259729,112.82877 298.540926,111.818002 297.381733,109.946086 C296.222539,108.080821 295.794837,105.5938 296.090631,102.494998 C296.390422,99.4061712 297.293794,97.0155721 298.800745,95.3232009 C300.303699,93.6341546 302.190386,92.866104 304.460805,93.0190491 C306.723231,93.1653445 308.446032,94.1827621 309.605225,96.0546777 C310.772413,97.9299181 311.208109,100.410289 310.908318,103.489141 C310.612524,106.567994 309.705155,108.955268 308.19021,110.657614 C306.683259,112.363284 304.792575,113.131335 302.526152,112.981715" id="Fill-15" fill="#EC1C24"></path>
        <path d="M266.977672,184.181322 C266.82371,184.171316 266.712087,184.16131 266.638955,184.157974 C266.561974,184.154639 266.49654,184.144633 266.434955,184.131291 C266.088539,184.061249 265.822954,183.921164 265.645897,183.701031 C265.46884,183.487568 265.426501,183.234081 265.499633,182.950576 C265.565067,182.713766 265.71518,182.526986 265.953822,182.386901 C266.196313,182.250152 266.511936,182.173438 266.896842,182.160097 L272.270131,182 C272.404848,182 272.528018,182 272.655037,182.006671 C272.778207,182.020012 272.897528,182.033354 273.024547,182.060036 C273.240095,182.103396 273.386359,182.223469 273.471038,182.420255 C273.544171,182.617041 273.540321,182.863857 273.46334,183.157368 L269.167788,199.117038 L271.892923,199.667371 C272.905226,199.870828 273.521076,200.074285 273.755869,200.267735 C273.990662,200.467856 274.056096,200.764703 273.952171,201.154939 C273.852095,201.508487 273.67119,201.751968 273.397906,201.885382 C273.120774,202.015461 272.758962,202.035473 272.304773,201.942083 L262.127855,199.887505 C261.673666,199.79745 261.354194,199.637353 261.177137,199.413884 C260.996231,199.190416 260.953891,198.903575 261.050118,198.546692 C261.154043,198.153121 261.361892,197.912975 261.669817,197.826256 C261.981591,197.739537 262.647478,197.796238 263.659781,198.00303 L266.481143,198.57004 L270.357148,184.16131 L266.977672,184.181322 Z" id="Fill-17" fill="#EC1C24"></path>
        <path d="M325.977672,113.182487 C325.82371,113.172482 325.712087,113.162477 325.638955,113.159141 C325.561974,113.152471 325.49654,113.145801 325.434955,113.13246 C325.088539,113.062422 324.822954,112.919012 324.645897,112.702228 C324.46884,112.485444 324.426501,112.235309 324.499633,111.951822 C324.565067,111.715028 324.71518,111.524925 324.953822,111.388184 C325.196313,111.251444 325.511936,111.1714 325.896842,111.161395 L331.270131,111.001308 C331.400999,110.997973 331.528018,111.001308 331.655037,111.007979 C331.778207,111.017984 331.897528,111.03466 332.024547,111.061341 C332.240095,111.104698 332.386359,111.224763 332.471038,111.421536 C332.544171,111.618309 332.540321,111.865109 332.46334,112.158601 L328.167788,128.117227 L330.892923,128.667524 C331.905226,128.870967 332.521076,129.074411 332.755869,129.267848 C332.990662,129.467957 333.056096,129.764784 332.952171,130.154995 C332.852095,130.508519 332.67119,130.751984 332.397906,130.885389 C332.120774,131.01546 331.758962,131.035471 331.304773,130.942087 L321.124006,128.884308 C320.673666,128.794259 320.354194,128.637508 320.177137,128.414054 C319.996231,128.1906 319.953891,127.900443 320.050118,127.550253 C320.154043,127.153372 320.361892,126.913242 320.669817,126.826529 C320.981591,126.739815 321.647478,126.799848 322.659781,127.003291 L325.481143,127.573599 L329.357148,113.165812 L325.977672,113.182487 Z" id="Fill-19" fill="#EC1C24"></path>
        <path d="M361.823935,120.966671 C361.690825,120.92773 361.592743,120.898524 361.526188,120.882299 C361.459633,120.862828 361.403587,120.843358 361.351043,120.817397 C361.0568,120.684349 360.860637,120.496133 360.759053,120.259242 C360.653966,120.02235 360.667978,119.775724 360.804591,119.519362 C360.916684,119.305186 361.095331,119.155912 361.344037,119.074785 C361.58924,118.990412 361.886987,118.977432 362.230271,119.035843 L367.029245,119.912017 C367.151846,119.931488 367.263939,119.957449 367.372529,119.9899 C367.474113,120.02235 367.5792,120.064537 367.68779,120.106723 C367.866438,120.191095 367.968022,120.337124 367.996045,120.535074 C368.017063,120.739515 367.954011,120.969916 367.813895,121.236014 L360.216103,135.540364 L362.5,136.582038 C363.347696,136.968203 363.852114,137.276487 364.009745,137.506888 C364.170878,137.740534 364.156866,138.032592 363.96771,138.383062 C363.799571,138.704326 363.582391,138.895786 363.305662,138.970423 C363.032435,139.03857 362.703163,138.989894 362.32485,138.814659 L353.788281,134.927043 C353.409968,134.751808 353.168268,134.544122 353.059678,134.297495 C352.954591,134.050869 352.98962,133.771791 353.154256,133.453772 C353.343413,133.100058 353.58161,132.911843 353.875853,132.889127 C354.1736,132.866411 354.744573,133.048136 355.595778,133.431057 L357.963738,134.514916 L364.82592,121.596218 L361.823935,120.966671 Z" id="Fill-21" fill="#EC1C24"></path>
        <path d="M323.233746,193.993033 C323.12651,193.919741 323.042732,193.859775 322.992465,193.819798 C322.935496,193.783152 322.88858,193.743175 322.855069,193.709861 C322.627193,193.489986 322.506553,193.250123 322.489797,192.986939 C322.473042,192.720425 322.566873,192.487224 322.771291,192.274012 C322.942198,192.104109 323.153319,192.010829 323.404653,192.000835 C323.655987,191.99084 323.927428,192.070795 324.225678,192.230704 L328.310693,194.492748 C328.414578,194.549382 328.501707,194.609348 328.595538,194.672645 C328.679316,194.735943 328.759743,194.802571 328.843521,194.885857 C328.980917,195.015783 329.027833,195.185686 328.984268,195.388904 C328.937353,195.592121 328.813361,195.802002 328.602241,196.018545 L317.1146,207.741864 L318.857183,209.434233 C319.503949,210.057211 319.862519,210.506955 319.936244,210.780133 C320.003266,211.056642 319.899381,211.336482 319.617887,211.626317 C319.363202,211.886169 319.098463,212.009432 318.827023,211.999438 C318.555582,211.989444 318.270737,211.842861 317.979189,211.559689 L311.46126,205.253282 C311.169713,204.97011 311.018912,204.693601 311.002157,204.423755 C310.98205,204.153909 311.10269,203.887394 311.357375,203.627542 C311.63887,203.337707 311.917013,203.224439 312.191804,203.284404 C312.473299,203.354365 312.935753,203.697502 313.582519,204.327144 L315.392124,206.076147 L325.763842,195.488847 L323.233746,193.993033 Z" id="Fill-23" fill="#EC1C24"></path>
        <path d="M255.784181,128.088411 C255.655051,128.137957 255.557332,128.167685 255.491022,128.190807 C255.421222,128.213929 255.365382,128.233748 255.313033,128.243657 C254.991954,128.303113 254.712755,128.270082 254.475436,128.137957 C254.234627,128.009136 254.084558,127.797736 254.021738,127.513668 C253.969388,127.279146 254.011268,127.057837 254.150868,126.846437 C254.290467,126.635038 254.517316,126.453366 254.831415,126.301423 L259.179936,124.227063 C259.288126,124.17091 259.392825,124.131273 259.497525,124.098242 C259.605714,124.058604 259.713904,124.032179 259.825584,124.01236 C260.024513,123.972723 260.199012,124.028876 260.352571,124.174213 C260.502641,124.322854 260.61083,124.544163 260.67016,124.83814 L264.135715,140.729451 L266.617095,140.247195 C267.534961,140.065524 268.135238,140.022583 268.414437,140.121677 C268.693636,140.214164 268.878605,140.451989 268.962365,140.84506 C269.042634,141.201797 268.993775,141.485865 268.822765,141.697265 C268.655246,141.918574 268.365577,142.063911 267.950269,142.146489 L258.673888,143.956599 C258.25858,144.035874 257.927032,144.006146 257.682733,143.870718 C257.441924,143.738593 257.277894,143.494162 257.197625,143.140728 C257.113865,142.747657 257.176685,142.460286 257.396554,142.268705 C257.612933,142.073821 258.181801,141.892149 259.103157,141.710477 L261.678766,141.208403 L258.555229,126.85965 L255.784181,128.088411 Z" id="Fill-25" fill="#EC1C24"></path>
        <path d="M364.517015,166.861878 C364.428041,166.771571 364.356177,166.697391 364.31169,166.652237 C364.267203,166.603858 364.229561,166.55548 364.198762,166.520002 C364.020814,166.265207 363.955795,166.010412 364.000282,165.758842 C364.037924,165.504048 364.181652,165.300857 364.438307,165.146045 C364.643632,165.017035 364.87291,164.971881 365.126144,165.017035 C365.379377,165.055738 365.632611,165.184748 365.892688,165.40084 L369.468756,168.390647 C369.55773,168.464828 369.636437,168.542234 369.711723,168.616415 C369.780164,168.690596 369.848606,168.777678 369.913625,168.867985 C370.016287,169.019571 370.029976,169.193735 369.941002,169.374349 C369.852028,169.561414 369.677502,169.732352 369.417425,169.890389 L355.366389,178.595342 L356.735219,180.549844 C357.241686,181.278751 357.498341,181.775439 357.508608,182.049586 C357.522296,182.326957 357.351192,182.568851 357.008985,182.784943 C356.694154,182.978458 356.403278,183.042963 356.136356,182.972008 C355.866012,182.907503 355.616201,182.710762 355.390344,182.381787 L350.288032,175.066917 C350.058753,174.737942 349.966357,174.447669 350.010844,174.186424 C350.048487,173.925178 350.226434,173.699411 350.537843,173.509121 C350.886895,173.293029 351.188037,173.24465 351.451537,173.363985 C351.715036,173.480094 352.098309,173.905827 352.604776,174.628283 L354.021514,176.660191 L366.707142,168.80348 L364.517015,166.861878 Z" id="Fill-27" fill="#EC1C24"></path>
        <path d="M225,266 L225,224.507158 C225,209.317315 236.862962,197 251.5,197 C266.133676,197 278,209.317315 278,224.507158" id="Stroke-29" stroke="#0F222E" stroke-width="4" stroke-linecap="round" stroke-linejoin="round"></path>
        <path d="M240.139771,325.870015 L243.210325,301.947853 C241.423391,300.173313 240.342447,297.716258 240.342447,294.986196 C240.342447,289.594325 244.666221,285.226227 250.003378,285.226227 C255.340535,285.226227 259.660931,289.594325 259.660931,294.986196 C259.660931,297.716258 258.546208,300.207439 256.759273,301.981979 L259.866985,325.870015 L240.139771,325.870015 Z M294.220714,264 L205.786042,264 C200.921797,264 197,267.958589 197,272.838574 L197,344.161426 C197,349.041411 200.921797,353 205.786042,353 L294.220714,353 C299.081581,353 303,349.041411 303,344.161426 L303,272.838574 C303,267.958589 299.081581,264 294.220714,264 L294.220714,264 Z" id="Fill-31" fill="#E22B2B"></path>
        <path d="M90.5555292,406 C82.6248708,406 75.4418724,401.851064 72.2122543,395.407295 L70,391 L430,391 L427.79116,395.407295 C424.561542,401.851064 417.371715,406 409.444471,406 L90.5555292,406 Z" id="Fill-3" fill="#0F222E"></path>
    </g>
</svg>