<?xml version="1.0" encoding="UTF-8"?>
<svg width="500px" height="500px" viewBox="0 0 500 500" version="1.1" xmlns="http://www.w3.org/2000/svg" xmlns:xlink="http://www.w3.org/1999/xlink">
    <!-- Generator: Sketch 55.2 (78181) - https://sketchapp.com -->
    <title>data-leak</title>
    <desc>Created with Sketch.</desc>
    <defs>
        <polygon id="path-1" points="0 0.2584 481.723346 0.2584 481.723346 19.9984 0 19.9984"></polygon>
        <polygon id="path-3" points="0.778306963 0.436017857 16.9768851 0.436017857 16.9768851 26.1802819 0.778306963 26.1802819"></polygon>
    </defs>
    <g id="data-leak" stroke="none" stroke-width="1" fill="none" fill-rule="evenodd">
        <g id="Group-33" transform="translate(0.000000, 14.000000)">
            <path d="M360.347702,194 L406.320069,194 C409.453824,194 412,196.571542 412,199.736516 L412,455 L67,455 L67,199.736516 C67,196.571542 69.541621,194 72.6799308,194 L167.289268,194" id="Stroke-1" stroke="#0F222E" stroke-width="4" stroke-linecap="round" stroke-linejoin="round"></path>
            <g id="Group-5" transform="translate(0.000000, 452.000000)">
                <mask id="mask-2" fill="white">
                    <use xlink:href="#path-1"></use>
                </mask>
                <g id="Clip-4"></g>
            </g>
            <path d="M281.438688,120.192888 C279.823899,120.683506 278.882346,121.971952 278.599392,124.039883 C278.316438,126.1124 278.745748,128.780995 279.877563,132.064009 C281.014257,135.351608 282.341213,137.763431 283.86331,139.290307 C285.390285,140.821769 286.95141,141.335313 288.571077,140.844695 C290.2005,140.349492 291.146932,139.061046 291.429886,136.983944 C291.703083,134.906842 291.273774,132.219906 290.13708,128.932307 C289.005264,125.653879 287.683187,123.255812 286.16109,121.73352 C284.638994,120.211229 283.068112,119.70227 281.438688,120.192888 M289.532144,143.637091 C286.892867,144.439503 284.390189,143.912204 282.028988,142.046021 C279.672665,140.166083 277.78468,137.194864 276.374789,133.114023 C274.974656,129.056108 274.642917,125.608027 275.384451,122.792705 C276.130864,119.977383 277.823708,118.166224 280.462985,117.363811 C283.102261,116.556813 285.60494,117.093283 287.980776,118.964051 C290.346856,120.839404 292.234841,123.801452 293.630096,127.854782 C295.03023,131.912697 295.357091,135.351608 294.610678,138.18527 C293.869144,141.018933 292.17142,142.830093 289.532144,143.637091" id="Fill-6" fill="#EC1C24"></path>
            <path d="M313.001464,206.929289 C311.146811,206.803628 309.622584,207.6294 308.412796,209.402116 C307.208338,211.174833 306.446225,213.741905 306.121127,217.107822 C305.79603,220.478227 306.062503,223.121594 306.909888,225.046899 C307.773261,226.963228 309.116285,227.986466 310.970938,228.116615 C312.83625,228.237788 314.371136,227.407529 315.575594,225.634812 C316.780053,223.85312 317.547496,221.272584 317.867263,217.902179 C318.192361,214.536262 317.925887,211.901871 317.078503,209.99003 C316.220459,208.078189 314.866776,207.050462 313.001464,206.929289 M310.699136,230.975401 C307.67733,230.768958 305.385661,229.404639 303.840117,226.877958 C302.289244,224.360252 301.724321,221.00331 302.12403,216.820598 C302.51841,212.651348 303.722869,209.424556 305.732077,207.14022 C307.735955,204.860372 310.251461,203.819182 313.278596,204.025625 C316.295072,204.223092 318.586741,205.600874 320.142944,208.127556 C321.693818,210.658725 322.274729,214.006691 321.880349,218.162476 C321.480639,222.318262 320.270851,225.540567 318.250985,227.838366 C316.236448,230.136165 313.720941,231.177356 310.699136,230.975401" id="Fill-8" fill="#EC1C24"></path>
            <path d="M390.002391,98.9243467 C388.147483,98.8031539 386.623046,99.6290603 385.413092,101.402066 C384.213798,103.175071 383.45158,105.742563 383.126438,109.109029 C382.801296,112.479984 383.067806,115.123782 383.915307,117.049401 C384.778799,118.970531 386.122008,119.989448 387.976916,120.115129 C389.837155,120.240811 391.372251,119.414904 392.582206,117.63741 C393.78683,115.850939 394.554378,113.269981 394.87419,109.899027 C395.199332,106.53256 394.932822,103.897739 394.079991,101.990075 C393.221829,100.077922 391.862629,99.0500281 390.002391,98.9243467 M387.705076,122.974381 C384.677525,122.772393 382.390871,121.407852 380.845114,118.880758 C379.294027,116.358153 378.723696,113.009641 379.123461,108.821757 C379.523225,104.651828 380.722519,101.42002 382.732003,99.1398006 C384.741487,96.8595808 387.25201,95.8227092 390.284891,96.0246972 C393.301782,96.2266852 395.588436,97.5957147 397.144854,100.127297 C398.701271,102.65888 399.276932,106.002903 398.877167,110.159367 C398.482733,114.320319 397.278108,117.543149 395.257964,119.841323 C393.24315,122.139498 390.727297,123.180858 387.705076,122.974381" id="Fill-10" fill="#EC1C24"></path>
            <g id="Group-14" transform="translate(425.000000, 0.000000)">
                <mask id="mask-4" fill="white">
                    <use xlink:href="#path-3"></use>
                </mask>
                <g id="Clip-13"></g>
                <path d="M11.33766,3.3967125 C9.97686,3.01051607 8.70111,3.57028393 7.51041,5.08469464 C6.32376,6.59042679 5.33961,8.92062321 4.55391,12.0752839 C3.76821,15.2386232 3.53331,17.7944625 3.86136,19.7471411 C4.18941,21.6998196 5.03181,22.8670875 6.39666,23.2532839 C7.76961,23.6481589 9.05346,23.0840518 10.24011,21.5653018 C11.43081,20.0508911 12.41901,17.7076768 13.20471,14.5443375 C13.98636,11.3940161 14.22126,8.85119464 13.88916,6.90719464 C13.56111,4.95885536 12.71466,3.7915875 11.33766,3.3967125 M5.72841,25.9393018 C3.49686,25.3057661 2.01051,23.6741946 1.26936,21.0445875 C0.51606,18.4193196 0.62946,15.1474982 1.60956,11.2247839 C2.58156,7.3150875 3.99906,4.41644464 5.87016,2.54187321 C7.73721,0.6629625 9.78651,0.0424446429 12.01806,0.675980357 C14.24151,1.31385536 15.73191,2.94542679 16.48521,5.5837125 C17.23446,8.21331964 17.12916,11.4851411 16.15716,15.3818196 C15.18921,19.2741589 13.76766,22.1684625 11.88846,24.0603911 C10.00926,25.9479804 7.95186,26.5771768 5.72841,25.9393018" id="Fill-12" fill="#EC1C24" mask="url(#mask-4)"></path>
            </g>
            <path d="M379.998604,27.9253567 C378.143895,27.7996757 376.619622,28.6255794 375.420457,30.3985794 C374.210632,32.1715793 373.448496,34.7390627 373.128719,38.1055182 C372.803612,41.4764624 373.064763,44.1202521 373.917503,46.0458647 C374.775572,47.9625 376.118638,48.9859025 377.973347,49.1160721 C379.838715,49.2372645 381.373647,48.4068722 382.578142,46.6338723 C383.787966,44.8518951 384.550103,42.2709459 384.86988,38.9000017 C385.194987,35.5335462 384.933836,32.8987337 384.081096,30.9865869 C383.217697,29.0744402 381.863972,28.0465491 379.998604,27.9253567 M377.701536,51.975315 C374.679639,51.7688391 372.387901,50.4043025 370.84231,47.8772165 C369.296719,45.3591078 368.726449,42.0016294 369.120842,37.8182474 C369.520563,33.6483311 370.725058,30.4210224 372.734327,28.1363212 C374.738265,25.8561087 377.253848,24.8192404 380.281074,25.0257163 C383.297641,25.223215 385.594709,26.5967289 387.1403,29.1238149 C388.69655,31.6553894 389.277479,35.0038905 388.877757,39.160341 C388.483365,43.3167914 387.27354,46.5396115 385.253613,48.8377785 C383.244345,51.1404341 380.723433,52.1773024 377.701536,51.975315" id="Fill-15" fill="#EC1C24"></path>
            <path d="M329.816956,145.944784 C329.61562,145.931276 329.469652,145.917768 329.374018,145.913265 C329.27335,145.908762 329.187782,145.895254 329.107248,145.877243 C328.654243,145.782686 328.30694,145.593571 328.075404,145.296391 C327.843868,145.008217 327.788501,144.666009 327.884135,144.283278 C327.969703,143.963584 328.166005,143.711431 328.478075,143.522316 C328.795178,143.337705 329.207916,143.234142 329.711255,143.216131 L336.737864,143 C336.914033,143 337.075101,143 337.241203,143.009005 C337.402271,143.027016 337.558306,143.045027 337.724408,143.081049 C338.006278,143.139585 338.197546,143.301683 338.308281,143.567344 C338.403915,143.833005 338.398882,144.166207 338.298214,144.562447 L332.680954,166.108001 L336.244592,166.850951 C337.568373,167.125618 338.373715,167.400284 338.680752,167.661442 C338.987788,167.931606 339.073356,168.332349 338.937454,168.859168 C338.806586,169.336457 338.570017,169.665157 338.212647,169.845266 C337.850243,170.020872 337.377104,170.047888 336.783165,169.921812 L323.474887,167.148131 C322.880948,167.026558 322.463177,166.810427 322.231641,166.508744 C321.995071,166.207061 321.939704,165.819827 322.065539,165.338035 C322.20144,164.806713 322.473243,164.482516 322.875914,164.365445 C323.283619,164.248374 324.154395,164.324921 325.478176,164.60409 L329.167649,165.369554 L334.23627,145.917768 L329.816956,145.944784 Z" id="Fill-17" fill="#EC1C24"></path>
            <path d="M407.816956,50.9463579 C407.61562,50.9328506 407.469652,50.9193433 407.374018,50.9148409 C407.27335,50.905836 407.187782,50.8968312 407.107248,50.8788214 C406.654243,50.7842703 406.30694,50.5906657 406.075404,50.2980075 C405.843868,50.0053493 405.788501,49.6676668 405.884135,49.2849599 C405.969703,48.9652871 406.166005,48.7086484 406.478075,48.5240486 C406.795178,48.3394489 407.207916,48.2313904 407.711255,48.2178831 L414.737864,48.0017663 C414.908999,47.9972639 415.075101,48.0017663 415.241203,48.0107712 C415.402271,48.0242785 415.558306,48.0467907 415.724408,48.0828101 C416.006278,48.1413418 416.197546,48.3034294 416.308281,48.569073 C416.403915,48.8347166 416.398882,49.1678966 416.298214,49.5641108 L410.680954,71.1082558 L414.244592,71.8511574 C415.568373,72.1258059 416.373715,72.4004543 416.680752,72.6615955 C416.987788,72.9317415 417.073356,73.3324581 416.937454,73.8592428 C416.806586,74.3365008 416.570017,74.6651784 416.212647,74.8452758 C415.850243,75.0208707 415.377104,75.0478853 414.783165,74.9218172 L401.469854,72.1438156 C400.880948,72.0222499 400.463177,71.8106355 400.231641,71.5089724 C399.995071,71.2073094 399.939704,70.8155977 400.065539,70.3428421 C400.20144,69.8070525 400.473243,69.4828773 400.875914,69.365814 C401.283619,69.2487507 402.154395,69.3297946 403.478176,69.604443 L407.167649,70.3743592 L412.23627,50.9238458 L407.816956,50.9463579 Z" id="Fill-19" fill="#EC1C24"></path>
            <path d="M455.765246,60.6550061 C455.587766,60.6024357 455.456991,60.5630079 455.368251,60.5411035 C455.279511,60.5148183 455.204782,60.4885331 455.134724,60.4534861 C454.742399,60.2738705 454.480849,60.01978 454.345404,59.6999766 C454.205288,59.3801731 454.22397,59.047227 454.406121,58.7011383 C454.555578,58.4120009 454.793775,58.2104809 455.125383,58.1009591 C455.452321,57.9870565 455.849316,57.969533 456.307028,58.0483887 L462.70566,59.2312235 C462.869129,59.2575087 463.018586,59.2925557 463.163372,59.3363644 C463.298818,59.3801731 463.438934,59.4371244 463.58372,59.4940757 C463.821918,59.6079783 463.957363,59.8051174 463.994727,60.0723505 C464.02275,60.3483453 463.938681,60.659387 463.751859,61.0186183 L453.621471,80.3294918 L456.666659,81.735751 C457.796929,82.2570745 458.469486,82.6732571 458.67966,82.9842988 C458.894504,83.2997214 458.875822,83.6939997 458.623613,84.1671336 C458.399428,84.6008397 458.109854,84.859311 457.740882,84.960071 C457.376581,85.0520693 456.93755,84.9863563 456.433133,84.7497893 L445.051041,79.5015074 C444.546624,79.2649405 444.224357,78.9845648 444.07957,78.6516187 C443.939454,78.3186726 443.98616,77.9419178 444.205675,77.5125926 C444.457883,77.0350778 444.77548,76.7809874 445.167805,76.7503213 C445.5648,76.7196552 446.326097,76.9649839 447.461037,77.4819265 L450.618318,78.945137 L459.767894,61.5048949 L455.765246,60.6550061 Z" id="Fill-21" fill="#EC1C24"></path>
            <path d="M405.311661,159.690594 C405.16868,159.59165 405.056976,159.510697 404.989954,159.456727 C404.913995,159.407256 404.851441,159.353286 404.806759,159.308312 C404.502924,159.011481 404.34207,158.687666 404.31973,158.332368 C404.297389,157.972573 404.422497,157.657752 404.695055,157.369917 C404.922931,157.140547 405.204425,157.014619 405.539537,157.001127 C405.874649,156.987634 406.23657,157.095573 406.634237,157.31145 L412.080924,160.36521 C412.219437,160.441666 412.335609,160.52262 412.460718,160.608071 C412.572422,160.693523 412.679658,160.783471 412.791362,160.895907 C412.974556,161.071307 413.037111,161.300677 412.979024,161.57502 C412.91647,161.849364 412.751148,162.132702 412.469654,162.425036 L397.1528,178.251517 L399.476244,180.536215 C400.338599,181.377235 400.816692,181.984389 400.914991,182.353179 C401.004355,182.726467 400.865842,183.104251 400.490516,183.495528 C400.150936,183.846328 399.797951,184.012734 399.43603,183.999241 C399.074109,183.985749 398.694316,183.787862 398.305586,183.40558 L389.615014,174.891931 C389.226284,174.509649 389.025216,174.136362 389.002876,173.772069 C388.976067,173.407777 389.13692,173.047982 389.476501,172.697182 C389.851826,172.305905 390.222683,172.152992 390.589073,172.233946 C390.964398,172.328392 391.581004,172.791628 392.443359,173.641644 L394.856166,176.002798 L408.685122,161.709943 L405.311661,159.690594 Z" id="Fill-23" fill="#EC1C24"></path>
            <path d="M314.378908,71.5193542 C314.206735,71.5862424 314.076442,71.6263753 313.988029,71.6575898 C313.894963,71.6888042 313.82051,71.7155595 313.75071,71.7289371 C313.322605,71.809203 312.95034,71.7646108 312.633915,71.5862424 C312.312836,71.4123331 312.112744,71.1269435 312.028984,70.7434513 C311.959185,70.4268472 312.015024,70.12808 312.201157,69.8426905 C312.387289,69.5573009 312.689755,69.3120442 313.108553,69.1069205 L318.906582,66.3065353 C319.050834,66.2307287 319.190434,66.1772182 319.330033,66.1326261 C319.474286,66.0791155 319.618539,66.0434418 319.767445,66.0166866 C320.032684,65.963176 320.265349,66.0389826 320.470095,66.235188 C320.670188,66.4358525 320.81444,66.7346197 320.893547,67.1314896 L325.514287,88.5847585 L328.822793,87.9337136 C330.046614,87.6884569 330.846984,87.6304872 331.219249,87.7642635 C331.591514,87.8891214 331.83814,88.2101847 331.94982,88.7408309 C332.056846,89.2224258 331.991699,89.6059181 331.763687,89.8913076 C331.540328,90.1900748 331.154103,90.3862802 330.600359,90.4977605 L318.231851,92.9414087 C317.678107,93.0484297 317.236042,93.0082968 316.91031,92.8254691 C316.589232,92.6471007 316.370526,92.317119 316.2635,91.8399833 C316.15182,91.3093371 316.23558,90.9213856 316.528738,90.6627513 C316.817244,90.3996578 317.575734,90.1544011 318.804209,89.9091445 L322.238354,89.2313443 L318.073639,69.8605273 L314.378908,71.5193542 Z" id="Fill-25" fill="#EC1C24"></path>
            <path d="M459.59797,122.482504 C459.477855,122.362095 459.380839,122.263187 459.320782,122.202983 C459.260725,122.138478 459.209907,122.073973 459.168329,122.026669 C458.928099,121.686943 458.840323,121.347216 458.90038,121.01179 C458.951198,120.672064 459.14523,120.401142 459.491715,120.194726 C459.768903,120.022713 460.078429,119.962508 460.420294,120.022713 C460.76216,120.074317 461.104025,120.24633 461.455129,120.534453 L466.28282,124.520863 C466.402935,124.619771 466.50919,124.722979 466.610826,124.821887 C466.703222,124.920794 466.795618,125.036903 466.883394,125.157313 C467.021988,125.359428 467.040467,125.591647 466.920353,125.832465 C466.800238,126.081885 466.564628,126.309802 466.213523,126.520519 L447.244626,138.127123 L449.092545,140.733125 C449.776276,141.705001 450.122761,142.367253 450.13662,142.732781 C450.155099,143.10261 449.924109,143.425135 449.462129,143.713257 C449.037108,143.971278 448.644425,144.057284 448.28408,143.962677 C447.919116,143.87667 447.581871,143.61435 447.276964,143.175716 L440.388843,133.422556 C440.079316,132.983922 439.954582,132.596892 440.014639,132.248565 C440.065457,131.900238 440.305686,131.599214 440.726088,131.345495 C441.197308,131.057372 441.60385,130.992867 441.959575,131.151979 C442.315299,131.306792 442.832717,131.874436 443.516447,132.837711 L445.429044,135.546922 L462.554642,125.071306 L459.59797,122.482504 Z" id="Fill-27" fill="#EC1C24"></path>
            <path d="M207,259 L207,203.67621 C207,183.423087 222.891892,167 242.5,167 C262.103604,167 278,183.423087 278,203.67621" id="Stroke-29" stroke="#0F222E" stroke-width="4" stroke-linecap="round" stroke-linejoin="round"></path>
            <path d="M226.791013,338.725077 L230.904398,306.739264 C228.51058,304.366564 227.062524,301.081288 227.062524,297.430982 C227.062524,290.221626 232.854748,284.381135 240.004525,284.381135 C247.154302,284.381135 252.942001,290.221626 252.942001,297.430982 C252.942001,301.081288 251.448693,304.412193 249.054876,306.784893 L253.218037,338.725077 L226.791013,338.725077 Z M299.239069,256 L180.769981,256 C174.253728,256 169,261.292945 169,267.817868 L169,363.182132 C169,369.707055 174.253728,375 180.769981,375 L299.239069,375 C305.750797,375 311,369.707055 311,363.182132 L311,267.817868 C311,261.292945 305.750797,256 299.239069,256 L299.239069,256 Z" id="Fill-31" fill="#E22B2B"></path>
        </g>
        <path d="M27.5044808,485.9984 C16.8922748,485.9984 7.28053069,480.5384 2.9589005,472.0584 L-0.00137049583,466.2584 L481.723346,466.2584 L478.767643,472.0584 C474.446013,480.5384 464.825132,485.9984 454.217495,485.9984 L27.5044808,485.9984 Z" id="Fill-3" fill="#0F222E"></path>
    </g>
</svg>