<?xml version="1.0" encoding="UTF-8"?>
<svg width="500px" height="500px" viewBox="0 0 500 500" version="1.1" xmlns="http://www.w3.org/2000/svg" xmlns:xlink="http://www.w3.org/1999/xlink">
    <!-- Generator: Sketch 55.2 (78181) - https://sketchapp.com -->
    <title>Artboard</title>
    <desc>Created with Sketch.</desc>
    <g id="Artboard" stroke="none" stroke-width="1" fill="none" fill-rule="evenodd">
        <g id="Group-55" transform="translate(0.000000, 66.000000)">
            <path d="M376,0 L289.690481,0 C268.714145,0 269.272492,1.46098042 251.716307,12.8915168 L226.814025,27.6670441 C221.821744,30.9160901 224.692306,36.4569128 224.692306,42.3967795 L220,96.6950979 L224.692306,138.400637 C224.692306,148.121609 226.726441,156 236.485473,156 C246.334278,156 254.284704,148.025664 254.157707,138.21965 C254.011004,126.551432 249.156668,110.899316 249.14572,96.2088313 C249.136962,81.5161656 253.967212,67.7807691 254.41389,65.107393 C255.707941,57.372919 279.550459,46.4133853 280.19858,47.7021009" id="Stroke-1" stroke="#EC1C24" stroke-width="1.383" stroke-linecap="round" stroke-linejoin="round"></path>
            <path d="M255,64 C256.303071,56.4884186 280.311777,45.8498345 280.964415,47.101059 C281.288529,47.7234956 279.359278,53.4397497 276.779594,61.7219669" id="Stroke-3" stroke="#EC1C24" stroke-width="1.383" stroke-linecap="round" stroke-linejoin="round"></path>
            <path d="M262,74 C262.939937,72.8590955 265.683878,63.9817085 274,63" id="Stroke-5" stroke="#EC1C24" stroke-width="1.383" stroke-linecap="round" stroke-linejoin="round"></path>
            <path d="M311.401542,76.7833669 C297.310401,87.8310038 296.419001,109.282705 291.672188,112.426394 C285.831983,116.296558 263.762155,116.940131 268.306976,94.3692675 C270.594756,83.0074798 273.866149,71.6478737 276.472286,63 L276.090257,65.7444564 L143.754722,157.027083 C139.787335,159.762813 138.812503,165.181915 141.559156,169.110982 L205.243739,260.269257 C207.990392,264.200505 213.439786,265.18659 217.407173,262.45086 L361.245278,163.238107 C365.212665,160.500195 366.187497,155.083275 363.440844,151.152027 L311.456432,76.7419164 L311.401542,76.7833669 Z" id="Fill-7" stroke="#979797" fill="#FFFFFF"></path>
            <path d="M311.401542,76.7833669 C297.310401,87.8310038 296.419001,109.282705 291.672188,112.426394 C285.831983,116.296558 263.762155,116.940131 268.306976,94.3692675 C270.594756,83.0074798 273.866149,71.6478737 276.472286,63 L276.090257,65.7444564 L143.754722,157.027083 C139.787335,159.762813 138.812503,165.181915 141.559156,169.110982 L205.243739,260.269257 C207.990392,264.200505 213.439786,265.18659 217.407173,262.45086 L361.245278,163.238107 C365.212665,160.500195 366.187497,155.083275 363.440844,151.152027 L311.456432,76.7419164 L311.401542,76.7833669 Z" id="Stroke-9" stroke="#0F222E" stroke-width="1.195" stroke-linecap="round" stroke-linejoin="round"></path>
            <path d="M363.901747,98 L410.270742,98 C413.436681,98 416,100.573994 416,103.748222 L416,325 L68,325 L68,103.748222 C68,100.573994 70.5633188,98 73.7292576,98 L169.161572,98" id="Stroke-11" stroke="#0F222E" stroke-width="2" stroke-linecap="round" stroke-linejoin="round"></path>
            <path d="M355.698942,115 L395.24832,115 C398.426649,115 401,117.556385 401,120.708896 L401,306 L84,306 L84,120.708896 C84,117.556385 86.5755428,115 89.7516803,115 L178.53886,115" id="Stroke-13" stroke="#0F222E" stroke-width="2" stroke-linecap="round" stroke-linejoin="round"></path>
            <path d="M472.242306,348 L27.7576937,348 C17.0525006,348 7.34640042,341.637073 2.98194183,331.754935 L0,325 L500,325 L497.018058,331.754935 C492.6536,341.637073 482.947499,348 472.242306,348 Z" id="Stroke-15" stroke="#0F222E" stroke-width="2" stroke-linecap="round" stroke-linejoin="round"></path>
            <path d="M201.110276,180.770284 L178.475014,196 L163,174.391751 L185.635262,159.164188 C188.68586,157.111178 192.875437,157.845011 194.993538,160.801861 L202.799872,171.699597 C204.915753,174.656448 204.160874,178.717275 201.110276,180.770284 Z" id="Stroke-17" stroke="#EC1C24" stroke-width="2" stroke-linecap="round" stroke-linejoin="round"></path>
            <path d="M172,167 L187,190" id="Stroke-19" stroke="#EC1C24" stroke-width="2" stroke-linecap="round" stroke-linejoin="round"></path>
            <path d="M169,181 L177,176" id="Stroke-21" stroke="#EC1C24" stroke-width="2" stroke-linecap="round" stroke-linejoin="round"></path>
            <path d="M174,189 L182,184" id="Stroke-23" stroke="#EC1C24" stroke-width="2" stroke-linecap="round" stroke-linejoin="round"></path>
            <path d="M195.707489,186 L188.021913,175.053636 C186.21981,172.485971 186.863749,168.96087 189.460353,167.17656 L197,162" id="Stroke-25" stroke="#EC1C24" stroke-width="2" stroke-linecap="round" stroke-linejoin="round"></path>
            <path d="M190,179 L201,170" id="Stroke-27" stroke="#EC1C24" stroke-width="2" stroke-linecap="round" stroke-linejoin="round"></path>
            <path d="M261.834233,202.735071 L249.93182,210.423099 C248.360062,211.43898 246.19661,211.078437 245.104603,209.615061 L240.620066,203.617338 C239.52806,202.160325 239.91643,200.154014 241.485904,199.142376 L253.395171,191.450106 C254.626534,190.656913 256.314803,190.938984 257.169218,192.084235 L262.515024,199.231451 C263.369439,200.374581 263.065596,201.941879 261.834233,202.735071 Z" id="Stroke-29" stroke="#0F222E" stroke-width="2" stroke-linecap="round" stroke-linejoin="round"></path>
            <path d="M285.405518,185.519712 L272.92792,193.398131 C271.24499,194.458845 268.934908,194.081337 267.766332,192.55079 L263.662779,187.175411 C262.494202,185.644863 262.911551,183.5419 264.594482,182.481186 L277.07208,174.602766 C278.75501,173.540001 281.067348,173.91956 282.235924,175.450107 L286.337221,180.825487 C287.505798,182.356034 287.088449,184.456946 285.405518,185.519712 Z" id="Stroke-31" stroke="#0F222E" stroke-width="2" stroke-linecap="round" stroke-linejoin="round"></path>
            <path d="M310.405518,168.520757 L297.92792,176.397226 C296.24499,177.460005 293.934908,177.080441 292.766332,175.549874 L288.662779,170.176477 C287.494202,168.645911 287.911551,166.54292 289.594482,165.48014 L302.07208,157.603672 C303.75501,156.53884 306.067348,156.920456 307.233668,158.451023 L311.337221,163.82442 C312.505798,165.354987 312.088449,167.455926 310.405518,168.520757 Z" id="Stroke-33" stroke="#0F222E" stroke-width="2" stroke-linecap="round" stroke-linejoin="round"></path>
            <path d="M336.405518,151.520757 L323.92792,159.397226 C322.24499,160.460005 319.934908,160.080441 318.766332,158.549874 L314.662779,153.176477 C313.494202,151.645911 313.911551,149.54292 315.594482,148.48014 L328.07208,140.603672 C329.75501,139.53884 332.067348,139.920456 333.233668,141.451023 L337.337221,146.82442 C338.505798,148.354987 338.088449,150.455926 336.405518,151.520757 Z" id="Stroke-35" stroke="#0F222E" stroke-width="2" stroke-linecap="round" stroke-linejoin="round"></path>
            <path d="M250,158 L275,141" id="Stroke-37" stroke="#0F222E" stroke-width="2" stroke-linecap="round" stroke-linejoin="round"></path>
            <path d="M257,166 L271,156" id="Stroke-39" stroke="#0F222E" stroke-width="2" stroke-linecap="round" stroke-linejoin="round"></path>
            <path d="M275,153 L286,145" id="Stroke-41" stroke="#0F222E" stroke-width="2" stroke-linecap="round" stroke-linejoin="round"></path>
            <path d="M292,139 L300,134" id="Stroke-43" stroke="#0F222E" stroke-width="2" stroke-linecap="round" stroke-linejoin="round"></path>
            <path d="M305,131 L313,126" id="Stroke-45" stroke="#0F222E" stroke-width="2" stroke-linecap="round" stroke-linejoin="round"></path>
            <path d="M283,136 L308,119" id="Stroke-47" stroke="#0F222E" stroke-width="2" stroke-linecap="round" stroke-linejoin="round"></path>
            <path d="M323,71 C339.600278,67.3598059 374.098312,42 374.098312,42 C374.098312,42 386.705508,44.8042503 397,45.9174204" id="Stroke-49" stroke="#EC1C24" stroke-width="1.383" stroke-linecap="round" stroke-linejoin="round"></path>
            <path d="M311,77 C314.239134,74.4735801 318.180336,72.494407 323.029196,71.4150547 C339.622924,67.7227613 374.107347,42 374.107347,42 C374.107347,42 386.70957,44.8443854 397,45.9734874" id="Stroke-51" stroke="#EC1C24" stroke-width="1.383" stroke-linecap="round" stroke-linejoin="round"></path>
            <path d="M280.762938,47 C281.401549,48.2998959 273.084456,71.0173328 268.603357,93.7369654 C264.122259,116.456598 285.882648,115.808846 291.640968,111.911354 C297.401453,108.018254 297.401453,76.8429441 323,71" id="Stroke-53" stroke="#EC1C24" stroke-width="1.383" stroke-linecap="round" stroke-linejoin="round"></path>
        </g>
    </g>
</svg>