<?xml version="1.0" encoding="UTF-8"?>
<svg width="500px" height="500px" viewBox="0 0 500 500" version="1.1" xmlns="http://www.w3.org/2000/svg" xmlns:xlink="http://www.w3.org/1999/xlink">
    <!-- Generator: Sketch 55.2 (78181) - https://sketchapp.com -->
    <title>Artboard Copy 5</title>
    <desc>Created with Sketch.</desc>
    <g id="Artboard-Copy-5" stroke="none" stroke-width="1" fill="none" fill-rule="evenodd">
        <g id="Group-65" transform="translate(1.000000, 158.000000)">
            <path d="M466.213846,29 L299.789327,29 C296.592426,29 294,31.5877828 294,34.7757919 L294,155 L472,155 L472,34.7757919 C472,31.5877828 469.410748,29 466.213846,29 Z" id="Stroke-1" stroke="#606060" stroke-width="1.567"></path>
            <path d="M461.45308,36 L304.54692,36 C303.139746,36 302,37.1359927 302,38.5385313 L302,144.907752 C302,146.614914 303.388071,148 305.100875,148 L460.897534,148 C462.611929,148 464,146.614914 464,144.907752 L464,38.5385313 C464,37.1359927 462.860254,36 461.45308,36 Z" id="Stroke-3" stroke="#606060" stroke-width="1.567"></path>
            <path d="M493.960102,167 L270.039898,167 C268.839471,167 267.788501,166.149697 267.472097,164.921834 L266.095183,159.563023 C265.634092,157.76882 266.906068,156 268.661394,156 L495.338606,156 C497.093932,156 498.365908,157.76882 497.904817,159.563023 L496.527903,164.921834 C496.213089,166.149697 495.160529,167 493.960102,167 Z" id="Stroke-5" stroke="#606060" stroke-width="1.567"></path>
            <path d="M302,48 L462,48" id="Stroke-7" stroke="#606060" stroke-width="1.567"></path>
            <path d="M311,42 C311,43.1041667 310.104167,44 309,44 C307.895833,44 307,43.1041667 307,42 C307,40.8974359 307.895833,40 309,40 C310.104167,40 311,40.8974359 311,42" id="Fill-9" fill="#0F222E"></path>
            <path d="M318,42 C318,43.1041667 317.104167,44 316,44 C314.895833,44 314,43.1041667 314,42 C314,40.8974359 314.895833,40 316,40 C317.104167,40 318,40.8974359 318,42" id="Fill-11" fill="#0F222E"></path>
            <path d="M325,42 C325,43.1041667 324.104167,44 323,44 C321.895833,44 321,43.1041667 321,42 C321,40.8974359 321.895833,40 323,40 C324.104167,40 325,40.8974359 325,42" id="Fill-13" fill="#0F222E"></path>
            <path d="M200.212259,31 L33.7877408,31 C30.590839,31 28,33.5862316 28,36.7758645 L28,157 L206,157 L206,36.7758645 C206,33.5862316 203.409161,31 200.212259,31 Z" id="Stroke-15" stroke="#606060" stroke-width="1.567"></path>
            <path d="M195.45308,38 L38.5469195,38 C37.1397465,38 36,39.1375793 36,40.5385313 L36,146.909338 C36,148.6165 37.3880711,150 39.1008745,150 L194.897534,150 C196.611929,150 198,148.6165 198,146.909338 L198,40.5385313 C198,39.1375793 196.858662,38 195.45308,38 Z" id="Stroke-17" stroke="#606060" stroke-width="1.567"></path>
            <path d="M227.960211,169 L4.03978854,169 C2.83936876,169 1.78840522,168.148234 1.47359315,166.920548 L0.0950978479,161.564095 C-0.365990544,159.770151 0.907567394,158 2.66288321,158 L229.337117,158 C231.092433,158 232.365991,159.770151 231.904902,161.564095 L230.526407,166.920548 C230.211595,168.148234 229.160631,169 227.960211,169 Z" id="Stroke-19" stroke="#606060" stroke-width="1.567"></path>
            <path d="M36,50 L196,50" id="Stroke-21" stroke="#606060" stroke-width="1.567"></path>
            <path d="M46,44 C46,45.1025641 45.1041667,46 44,46 C42.8958333,46 42,45.1025641 42,44 C42,42.8958333 42.8958333,42 44,42 C45.1041667,42 46,42.8958333 46,44" id="Fill-23" fill="#606060"></path>
            <path d="M52,44 C52,45.1025641 51.1041667,46 50,46 C48.8958333,46 48,45.1025641 48,44 C48,42.8958333 48.8958333,42 50,42 C51.1041667,42 52,42.8958333 52,44" id="Fill-25" fill="#606060"></path>
            <path d="M59,44 C59,45.1025641 58.1041667,46 57,46 C55.8958333,46 55,45.1025641 55,44 C55,42.8958333 55.8958333,42 57,42 C58.1041667,42 59,42.8958333 59,44" id="Fill-27" fill="#606060"></path>
            <path d="M362.201869,0 L135.799721,0 C132.596202,0 130,2.59968161 130,5.80590252 L130,169 L368,169 L368,5.80590252 C368,2.59968161 365.405388,0 362.201869,0" id="Fill-29" fill="#FFFFFF"></path>
            <path d="M362.201869,0 L135.799721,0 C132.596202,0 130,2.59968161 130,5.80590252 L130,169 L368,169 L368,5.80590252 C368,2.59968161 365.405388,0 362.201869,0 Z" id="Stroke-31" stroke="#0F222E" stroke-width="1.567" stroke-linecap="round" stroke-linejoin="round"></path>
            <path d="M354.454969,11 L143.545031,11 C142.138902,11 141,12.1418167 141,13.5495796 L141,157.897826 C141,159.611347 142.388633,161 144.100166,161 L353.899834,161 C355.612958,161 357,159.611347 357,157.897826 L357,13.5495796 C357,12.1418167 355.861098,11 354.454969,11" id="Fill-33" fill="#FFFFFF"></path>
            <path d="M354.454969,11 L143.545031,11 C142.138902,11 141,12.1418167 141,13.5495796 L141,157.897826 C141,159.611347 142.388633,161 144.100166,161 L353.899834,161 C355.612958,161 357,159.611347 357,157.897826 L357,13.5495796 C357,12.1418167 355.861098,11 354.454969,11 Z" id="Stroke-35" stroke="#0F222E" stroke-width="1.567" stroke-linecap="round" stroke-linejoin="round"></path>
            <path d="M396.618654,184 L98.3814266,184 C96.7832568,184 95.3818824,182.83917 94.9628984,181.166018 L93.1266695,173.857328 C92.5124771,171.41083 94.2090447,169 96.5467848,169 L398.453295,169 C400.789448,169 402.487603,171.41083 401.873411,173.857328 L400.037182,181.166018 C399.618198,182.83917 398.216823,184 396.618654,184" id="Fill-37" fill="#FFFFFF"></path>
            <path d="M396.618654,184 L98.3814266,184 C96.7832568,184 95.3818824,182.83917 94.9628984,181.166018 L93.1266695,173.857328 C92.5124771,171.41083 94.2090447,169 96.5467848,169 L398.453295,169 C400.789448,169 402.487603,171.41083 401.873411,173.857328 L400.037182,181.166018 C399.618198,182.83917 398.216823,184 396.618654,184 Z" id="Stroke-39" stroke="#0F222E" stroke-width="1.567" stroke-linecap="round" stroke-linejoin="round"></path>
            <g id="Group-44" transform="translate(141.000000, 26.000000)">
                <path d="M0.498070588,0.8636 L214.500071,0.8636" id="Fill-41" fill="#FFFFFF"></path>
                <path d="M0.498070588,0.8636 L214.500071,0.8636" id="Stroke-43" stroke="#0F222E" stroke-width="1.567" stroke-linecap="round" stroke-linejoin="round"></path>
            </g>
            <path d="M153,18.5 C153,19.8813814 151.881381,21 150.5,21 C149.118619,21 148,19.8813814 148,18.5 C148,17.1186186 149.118619,16 150.5,16 C151.881381,16 153,17.1186186 153,18.5" id="Fill-45" fill="#0F222E"></path>
            <path d="M162,18.5 C162,19.8813814 160.881381,21 159.5,21 C158.118619,21 157,19.8813814 157,18.5 C157,17.1186186 158.118619,16 159.5,16 C160.881381,16 162,17.1186186 162,18.5" id="Fill-47" fill="#0F222E"></path>
            <path d="M171,18.5 C171,19.8813814 169.880216,21 168.499249,21 C167.119784,21 166,19.8813814 166,18.5 C166,17.1186186 167.119784,16 168.499249,16 C169.880216,16 171,17.1186186 171,18.5" id="Fill-49" fill="#0F222E"></path>
            <path d="M276.546039,88.3102384 C276.925442,97.9861288 272.691937,104.878544 264.168017,109.391511 C265.001123,110.863894 265.777318,112.234073 266.618328,113.719232 C275.471064,109.006647 280.558225,101.94815 281.448241,92.0486869 C281.829225,87.8074498 281.149461,87.3376988 276.90331,88.1202019 C276.811621,88.1377683 276.732578,88.2096308 276.546039,88.3102384 M270.837605,69.4391381 C262.00542,62.7367594 249.146821,63.2988841 241.482882,69.3145763 C242.240107,70.6671888 243.009978,72.0437555 243.773527,73.4075466 C254.817315,68.1951178 258.887992,68.2206689 268.338288,73.570435 C269.154004,72.2210164 269.974463,70.8636131 270.837605,69.4391381 M247.746192,109.254173 C243.572759,107.238829 240.384194,104.425011 238.174172,100.546032 C235.96573,96.6750368 235.210086,92.4734743 235.589489,87.7800526 C234.247351,87.7800526 233.064878,87.8183793 231.887148,87.767277 C230.820077,87.7209656 230.56398,88.2240033 230.532363,89.222094 C230.337919,95.4102563 232.054718,100.985192 235.757058,105.902186 C238.237405,109.191893 241.334282,111.745408 245.259522,113.524405 C246.103693,112.074379 246.90044,110.7042 247.746192,109.254173 M247.77939,93.5242641 C248.108206,93.3597788 248.369045,93.2160537 248.640951,93.0946859 C249.98625,92.4910407 250.784577,91.7660276 250.613846,89.9582857 C250.417821,87.9094052 251.624007,86.227822 253.49889,85.4022013 C254.660811,84.887985 254.913746,84.2012986 254.804668,83.0994065 C254.750919,82.5644299 254.795183,82.0198716 254.795183,81.4769103 C254.252953,81.3699149 253.864065,81.2836799 253.472015,81.2182052 C245.732195,79.9374552 239.737628,73.9377324 238.651587,66.3825851 C237.491246,58.3052368 241.437037,50.9049932 248.776903,47.4092803 C249.407661,47.1074577 250.092167,46.9094365 250.694469,46.5628994 C250.934758,46.4255621 251.212987,45.9321061 251.133944,45.7500543 C251.007477,45.4562164 250.624912,45.1799449 250.299258,45.1000977 C249.994155,45.0266382 249.624237,45.2038991 249.285936,45.2901342 C236.97431,48.4217435 228.472522,60.2024076 229.261364,73.0578157 C229.313531,73.9025996 229.341987,74.4886785 228.369767,74.9757467 C218.952669,79.7043012 213.699519,87.3999797 213.02924,98.0005013 C212.84112,100.959641 213.606249,103.984255 214.023592,106.965751 C214.07576,107.344227 214.684386,107.641259 215.035333,107.978214 C215.226616,107.574187 215.51591,107.184533 215.583887,106.759745 C215.651863,106.32857 215.498521,105.862262 215.451096,105.410327 C214.13267,93.2000843 225.171716,83.3118002 237.007507,86.0952755 C241.539792,87.1620348 245.084048,89.7043715 247.77939,93.5242641 M264.201215,93.5146825 C264.39724,93.353391 264.493671,93.3038857 264.549001,93.2256354 C269.53815,86.2741334 278.367173,84.1342269 285.688069,87.2498668 C294.298936,90.9132589 297.718305,99.7140234 296.320837,106.782102 C296.229148,107.246813 296.629102,107.808938 296.801414,108.326348 C297.180817,107.95426 297.613969,107.622096 297.923815,107.197308 C298.118259,106.932215 298.140391,106.532979 298.222595,106.189636 C301.183519,93.8995462 295.501959,81.3363791 284.322219,75.6001523 C283.263052,75.0571909 282.945302,74.5158265 283.021183,73.3181177 C283.830576,60.2854487 275.850467,48.9343629 263.434505,45.3939356 C262.743675,45.1975113 261.750904,44.4980494 261.363597,45.6302835 C260.960481,46.8120228 262.218834,46.7832778 262.8654,47.0547585 C275.475806,52.3454376 277.755386,69.1772391 267.004054,77.6889565 C264.171179,79.9310674 260.919379,81.0856587 257.335602,81.45615 C257.305566,81.8841313 257.305566,82.2338622 257.25656,82.5772054 C257.054211,83.9952927 257.383027,84.9055514 258.872184,85.6034164 C260.642731,86.430634 261.665538,88.1697072 261.453705,90.1978275 C261.303525,91.6302873 261.793587,92.3425248 262.982383,92.8359808 C263.393403,93.0068539 263.766482,93.2687529 264.201215,93.5146825 M249.047228,95.7328392 C249.230606,96.2167136 249.33178,96.5009698 249.442439,96.7804352 C252.300608,104.024178 250.395689,111.93225 244.571854,117.005745 C238.795444,122.037719 230.661993,122.76912 224.042992,118.816681 C223.145072,118.280107 222.365715,117.540722 221.469375,116.999357 C221.113685,116.78377 220.590425,116.850841 220.143046,116.790157 C220.177824,117.238899 220.143046,117.709998 220.267933,118.133188 C220.343813,118.388699 220.663144,118.572348 220.876558,118.786339 C229.933223,127.872956 243.949001,129.276671 254.763566,122.122357 C255.582444,121.579396 256.058279,121.633692 256.840797,122.14152 C266.219955,128.222687 275.864694,128.628311 285.612189,123.17155 C287.721037,121.989811 289.512135,120.214008 291.383856,118.629838 C291.681055,118.377521 291.630468,117.702013 291.741127,117.22293 C291.263712,117.259659 290.775231,117.251675 290.308881,117.352282 C290.092305,117.398593 289.926316,117.662089 289.728711,117.815396 C283.979175,122.278858 276.207738,122.812237 269.991852,119.171203 C263.693763,115.480662 260.279137,108.388629 261.395214,101.068233 C261.671862,99.2557001 262.308942,97.4958666 262.80849,95.6098745 C261.95009,95.1196123 261.01423,94.5846357 260.136861,94.081598 C257.213877,96.2773975 255.297892,96.3476631 252.469759,94.5303396 C252.177303,94.3403031 251.638234,94.3035734 251.320484,94.4441045 C250.555355,94.7810599 249.851879,95.2633374 249.047228,95.7328392" id="Fill-51" fill="#EC1C24"></path>
            <path d="M249.066437,95.6553426 C249.875604,95.1846746 250.58144,94.6995984 251.350864,94.361806 C251.671988,94.2209258 252.212493,94.2593477 252.506591,94.4482553 C255.350599,96.2716936 257.27893,96.2012535 260.218322,94 C261.099026,94.5026862 262.04014,95.0389916 262.903358,95.5320724 C262.402597,97.422749 261.76035,99.1853527 261.483738,101.003988 C260.359807,108.342567 263.795191,115.450615 270.128635,119.151922 C276.379413,122.802001 284.194476,122.267296 289.974697,117.791147 C290.173412,117.63746 290.341922,117.37331 290.559714,117.326883 C291.028681,117.227627 291.518315,117.23403 292,117.19881 C291.88872,117.679084 291.939591,118.356269 291.639134,118.609213 C289.758495,120.195717 287.957343,121.97593 285.836656,123.162206 C276.034444,128.632521 266.333974,128.225889 256.903756,122.128017 C256.116844,121.620528 255.638339,121.566097 254.813274,122.108806 C243.938001,129.282491 229.843545,127.87529 220.73763,118.766103 C220.523018,118.551581 220.201894,118.367476 220.125588,118.109729 C220,117.687088 220.033384,117.214819 220,116.764963 C220.448301,116.825798 220.974498,116.758559 221.333775,116.973082 C222.233556,117.515791 223.017288,118.257013 223.921839,118.794919 C230.576406,122.758776 238.757104,122.025559 244.56594,116.979485 C250.422468,111.89499 252.33808,103.965675 249.463867,96.7039397 C249.352587,96.4237802 249.249255,96.1404188 249.066437,95.6553426" id="Fill-53" fill="#EC1C24"></path>
            <path d="M264.03338,93.264437 C263.596551,93.0213598 263.220083,92.7608064 262.80867,92.5892225 C261.61414,92.0998906 261.121714,91.3897239 261.272619,89.9646241 C261.485474,87.9469244 260.457734,86.2167866 258.678647,85.3938193 C257.182308,84.6995399 256.851907,83.7939582 257.053642,82.3831571 C257.104473,82.0431667 257.104473,81.693644 257.133066,81.2678617 C260.735716,80.899274 264.001611,79.750615 266.848149,77.5200241 C277.651334,69.0520402 275.362349,52.3083099 262.689534,47.0432257 C262.041438,46.7731399 260.775428,46.8017372 261.180488,45.6276584 C261.569663,44.5012418 262.567222,45.1955212 263.262972,45.3909362 C275.737228,48.9131726 283.757413,60.2059362 282.942528,73.1732316 C282.866282,74.3647866 283.187153,74.9017807 284.251427,75.4419523 C295.485088,81.1487062 301.19405,93.6473233 298.218845,105.874266 C298.136245,106.215845 298.114006,106.61303 297.918624,106.876761 C297.607284,107.299366 297.170455,107.629824 296.789222,108 C296.617667,107.485248 296.215784,106.927601 296.306327,106.465277 C297.710535,99.4319255 294.276262,90.6763796 285.623866,87.0318102 C278.267661,83.9321785 269.396055,86.0610901 264.382843,92.9768751 C264.327247,93.0547233 264.23035,93.1039743 264.03338,93.264437" id="Fill-55" fill="#EC1C24"></path>
            <path d="M247.921989,93.5205984 C245.215508,89.6944021 241.658192,87.1494697 237.107178,86.08095 C225.220886,83.2912819 214.13622,93.1958836 215.460094,105.426275 C215.507715,105.880556 215.663278,106.347633 215.593434,106.777921 C215.525177,107.205009 215.234686,107.593707 215.042613,108 C214.690215,107.662489 214.080662,107.363367 214.026691,106.984266 C213.607623,103.999449 212.839332,100.968245 213.029817,98.0058218 C213.701278,87.3862076 218.977725,79.6794294 228.43374,74.9430719 C229.408391,74.4536003 229.379818,73.8665543 229.327434,73.0219758 C228.535333,60.1453538 237.072255,48.3452493 249.434761,45.2068726 C249.77446,45.1204952 250.145906,44.9429418 250.453858,45.0181221 C250.779271,45.0981011 251.163416,45.3732289 251.290407,45.6675517 C251.369775,45.8499039 251.090397,46.3457738 250.850703,46.4833377 C250.244324,46.8304467 249.556989,47.0287946 248.923625,47.3295157 C241.553425,50.8325968 237.591328,58.2434527 238.758051,66.3341302 C239.846993,73.901745 245.866333,79.9113685 253.639727,81.194232 C254.033397,81.2598148 254.423892,81.3477917 254.966776,81.453364 C254.966776,81.9972213 254.922329,82.5442778 254.9763,83.0801372 C255.087416,84.1822481 254.833436,84.8716673 253.665125,85.3851326 C251.784081,86.2137152 250.571324,87.8964738 250.768159,89.950335 C250.939596,91.7594604 250.13797,92.4872695 248.78711,93.0903113 C248.514081,93.213479 248.252164,93.3558416 247.921989,93.5205984" id="Fill-57" fill="#EC1C24"></path>
            <path d="M248,108.689994 C247.165548,110.153526 246.379448,111.536468 245.546556,113 C241.672204,111.204433 238.616707,108.627133 236.171061,105.305173 C232.51819,100.343991 230.822771,94.7171288 231.014617,88.4713273 C231.047371,87.46394 231.300046,86.9562167 232.352859,87.0029595 C233.514853,87.0545377 234.681526,87.0158541 236.005731,87.0158541 C235.629837,91.7529923 236.376945,95.99369 238.554318,99.900741 C240.73637,103.815851 243.880772,106.654266 248,108.689994" id="Fill-59" fill="#142633"></path>
            <path d="M271,68.8518644 C270.117837,70.2837489 269.280913,71.6450813 268.445605,73 C258.787053,67.628429 254.62667,67.6043772 243.339509,72.8364477 C242.559134,71.4687014 241.772296,70.086524 241,68.7283984 C248.831215,62.6865836 261.97318,62.1237713 271,68.8518644" id="Fill-61" fill="#142633"></path>
            <path d="M276.113219,87.5045003 C276.295768,87.4035503 276.373119,87.3314431 276.462847,87.3138169 C280.61816,86.5286497 281.283382,87 280.910549,91.2556766 C280.039572,101.188842 275.061241,108.271371 266.397891,113 C265.574873,111.509785 264.815283,110.134941 264,108.657545 C272.341568,104.129213 276.484505,97.2133328 276.113219,87.5045003" id="Fill-63" fill="#142633"></path>
        </g>
    </g>
</svg>