<?xml version="1.0" encoding="UTF-8"?>
<svg width="500px" height="500px" viewBox="0 0 500 500" version="1.1" xmlns="http://www.w3.org/2000/svg" xmlns:xlink="http://www.w3.org/1999/xlink">
    <!-- Generator: Sketch 55.2 (78181) - https://sketchapp.com -->
    <title>detect-infected-users</title>
    <desc>Created with Sketch.</desc>
    <g id="detect-infected-users" stroke="none" stroke-width="1" fill="none" fill-rule="evenodd">
        <path d="M215.919621,288 L41.0803793,288 C37.7218365,288 35,290.709385 35,294.050906 L35,420 L222,420 L222,294.050906 C222,290.709385 219.278164,288 215.919621,288 Z" id="Stroke-15" stroke="#B4B4B4" stroke-width="4"></path>
        <path d="M465.919621,83 L291.080379,83 C287.721836,83 285,85.7093855 285,89.0509056 L285,215 L472,215 L472,89.0509056 C472,85.7093855 469.278164,83 465.919621,83 Z" id="Stroke-15-Copy" stroke="#B4B4B4" stroke-width="4"></path>
        <path d="M211.327307,295 L46.6726933,295 C45.1960303,295 44,296.198521 44,297.674524 L44,409.743767 C44,411.542384 45.4566179,413 47.2540041,413 L210.744325,413 C212.543382,413 214,411.542384 214,409.743767 L214,297.674524 C214,296.198521 212.802299,295 211.327307,295 Z" id="Stroke-17" stroke="#B4B4B4" stroke-width="4"></path>
        <path d="M461.327307,90 L296.672693,90 C295.19603,90 294,91.1985211 294,92.674524 L294,204.743767 C294,206.542384 295.456618,208 297.254004,208 L460.744325,208 C462.543382,208 464,206.542384 464,204.743767 L464,92.674524 C464,91.1985211 462.802299,90 461.327307,90 Z" id="Stroke-17-Copy" stroke="#B4B4B4" stroke-width="4"></path>
        <path d="M245.751257,432 L10.2487431,432 C8.98623266,432 7.88090894,431.0708 7.54981348,429.731507 L6.1000167,423.888104 C5.61507891,421.931074 6.95451054,420 8.80061854,420 L247.199381,420 C249.045489,420 250.384921,421.931074 249.899983,423.888104 L248.450187,429.731507 C248.119091,431.0708 247.013767,432 245.751257,432 Z" id="Stroke-19" stroke="#B4B4B4" stroke-width="4"></path>
        <path d="M495.751257,227 L260.248743,227 C258.986233,227 257.880909,226.0708 257.549813,224.731507 L256.100017,218.888104 C255.615079,216.931074 256.954511,215 258.800619,215 L497.199381,215 C499.045489,215 500.384921,216.931074 499.899983,218.888104 L498.450187,224.731507 C498.119091,226.0708 497.013767,227 495.751257,227 Z" id="Stroke-19-Copy" stroke="#B4B4B4" stroke-width="4"></path>
        <path d="M44,308 L212,308" id="Stroke-21" stroke="#B4B4B4" stroke-width="4"></path>
        <path d="M294,103 L462,103" id="Stroke-21-Copy" stroke="#B4B4B4" stroke-width="4"></path>
        <path d="M54,302 C54,303.102564 53.1041667,304 52,304 C50.8958333,304 50,303.102564 50,302 C50,300.895833 50.8958333,300 52,300 C53.1041667,300 54,300.895833 54,302" id="Fill-23" fill="#606060"></path>
        <path d="M304,97 C304,98.1025641 303.104167,99 302,99 C300.895833,99 300,98.1025641 300,97 C300,95.8958333 300.895833,95 302,95 C303.104167,95 304,95.8958333 304,97" id="Fill-23-Copy" fill="#606060"></path>
        <path d="M61,302 C61,303.102564 59.8802083,304 58.5,304 C57.1197917,304 56,303.102564 56,302 C56,300.895833 57.1197917,300 58.5,300 C59.8802083,300 61,300.895833 61,302" id="Fill-25" fill="#606060"></path>
        <path d="M311,97 C311,98.1025641 309.880208,99 308.5,99 C307.119792,99 306,98.1025641 306,97 C306,95.8958333 307.119792,95 308.5,95 C309.880208,95 311,95.8958333 311,97" id="Fill-25-Copy" fill="#606060"></path>
        <path d="M68,302 C68,303.102564 67.1041667,304 66,304 C64.8958333,304 64,303.102564 64,302 C64,300.895833 64.8958333,300 66,300 C67.1041667,300 68,300.895833 68,302" id="Fill-27" fill="#606060"></path>
        <path d="M318,97 C318,98.1025641 317.104167,99 316,99 C314.895833,99 314,98.1025641 314,97 C314,95.8958333 314.895833,95 316,95 C317.104167,95 318,95.8958333 318,97" id="Fill-27-Copy" fill="#606060"></path>
        <path d="M371.909526,189 L134.092144,189 C130.727103,189 128,191.738126 128,195.115093 L128,367 L378,367 L378,195.115093 C378,191.738126 375.274567,189 371.909526,189" id="Fill-29" fill="#FFFFFF"></path>
        <path d="M371.909526,189 L134.092144,189 C130.727103,189 128,191.738126 128,195.115093 L128,367 L378,367 L378,195.115093 C378,191.738126 375.274567,189 371.909526,189 Z" id="Stroke-31" stroke="#0F222E" stroke-width="4" stroke-linecap="round" stroke-linejoin="round"></path>
        <path d="M142.67464,201 C141.196901,201 140,202.195101 140,203.66856 L140,354.753058 C140,356.546543 141.45935,358 143.258045,358 L363.741955,358 C365.542321,358 367,356.546543 367,354.753058 L367,203.66856 C367,202.195101 365.803099,201 364.32536,201 L142.67464,201 Z" id="Fill-33" fill="#FFFFFF"></path>
        <path d="M364.32536,201 L142.67464,201 C141.196901,201 140,202.195101 140,203.66856 L140,354.753058 C140,356.546543 141.45935,358 143.258045,358 L363.741955,358 C365.542321,358 367,356.546543 367,354.753058 L367,203.66856 C367,202.195101 365.803099,201 364.32536,201 Z" id="Stroke-35" stroke="#0F222E" stroke-width="4" stroke-linecap="round" stroke-linejoin="round"></path>
        <path d="M408.340008,382 L94.6600766,382 C92.9791536,382 91.5052161,380.83917 91.0645372,379.166018 L89.1332284,371.857328 C88.4872332,369.41083 90.271649,367 92.730437,367 L410.269647,367 C412.726766,367 414.512851,369.41083 413.866856,371.857328 L411.935547,379.166018 C411.494868,380.83917 410.020931,382 408.340008,382" id="Fill-37" fill="#FFFFFF"></path>
        <path d="M408.340008,382 L94.6600766,382 C92.9791536,382 91.5052161,380.83917 91.0645372,379.166018 L89.1332284,371.857328 C88.4872332,369.41083 90.271649,367 92.730437,367 L410.269647,367 C412.726766,367 414.512851,369.41083 413.866856,371.857328 L411.935547,379.166018 C411.494868,380.83917 410.020931,382 408.340008,382 Z" id="Stroke-39" stroke="#0F222E" stroke-width="4" stroke-linecap="round" stroke-linejoin="round"></path>
        <path d="M140,217 L365,217" id="Fill-41" fill="#FFFFFF"></path>
        <path d="M140,217 L365,217" id="Stroke-43" stroke="#0F222E" stroke-width="4" stroke-linecap="round" stroke-linejoin="round"></path>
        <path d="M152,208.5 C152,209.881381 150.881381,211 149.5,211 C148.118619,211 147,209.881381 147,208.5 C147,207.118619 148.118619,206 149.5,206 C150.881381,206 152,207.118619 152,208.5" id="Fill-45" fill="#0F222E"></path>
        <path d="M162,208.5 C162,209.881381 160.657658,211 159,211 C157.342342,211 156,209.881381 156,208.5 C156,207.118619 157.342342,206 159,206 C160.657658,206 162,207.118619 162,208.5" id="Fill-47" fill="#0F222E"></path>
        <path d="M171,208.5 C171,209.881381 169.880216,211 168.499249,211 C167.119784,211 166,209.881381 166,208.5 C166,207.118619 167.119784,206 168.499249,206 C169.880216,206 171,207.118619 171,208.5" id="Fill-49" fill="#0F222E"></path>
        <path d="M281.825761,281.523904 C282.218888,291.606153 277.832248,298.788029 269,303.490527 C269.863241,305.024746 270.667513,306.452469 271.538944,308 C280.711902,303.0895 285.983077,295.734567 286.905287,285.419356 C287.300051,281 286.595699,280.510521 282.195955,281.325887 C282.10095,281.344191 282.019048,281.419071 281.825761,281.523904 M276,261.852234 C266.672788,255.123137 253.093489,255.687502 245,261.727176 C245.799666,263.08518 246.612688,264.467234 247.419032,265.836462 C259.081803,260.603254 263.380634,260.628907 273.360601,266 C274.222037,264.645202 275.088481,263.282387 276,261.852234 M252,303.524225 C247.639719,301.411873 244.308397,298.462615 241.99943,294.396923 C239.692115,290.339601 238.902639,285.9358 239.299029,281.016464 C237.896802,281.016464 236.661389,281.056635 235.430931,281.003073 C234.316086,280.954533 234.048523,281.481784 234.015491,282.527917 C233.812341,289.013941 235.606002,294.857222 239.474101,300.010892 C242.065495,303.458946 245.301022,306.135373 249.401999,308 C250.283965,306.480178 251.116382,305.044047 252,303.524225 M251.585632,286.832617 C251.931524,286.660013 252.20591,286.509193 252.491937,286.381835 C253.907104,285.748394 254.746891,284.987595 254.567293,283.090625 C254.361088,280.940614 255.629916,279.176029 257.602169,278.309657 C258.824434,277.770059 259.090506,277.049479 258.975762,275.893198 C258.919222,275.331816 258.965785,274.760378 258.965785,274.190617 C258.395394,274.078341 257.98631,273.987849 257.573899,273.919142 C249.432117,272.575176 243.126227,266.279313 241.983783,258.35125 C240.763181,249.875212 244.913893,242.109699 252.63495,238.441442 C253.298466,238.124721 254.018521,237.916926 254.652103,237.553284 C254.904871,237.409168 255.19755,236.891355 255.114402,236.700318 C254.981367,236.391976 254.578934,236.102068 254.236367,236.01828 C253.915418,235.941194 253.526289,236.127205 253.170419,236.217696 C240.219398,239.503879 231.276075,251.866025 232.105885,265.355964 C232.160763,266.242446 232.190696,266.857453 231.167984,267.368562 C221.261816,272.330514 215.735848,280.406043 215.030759,291.529797 C214.832868,294.634996 215.637734,297.808902 216.076752,300.937563 C216.131629,301.33472 216.771863,301.646413 217.141037,302 C217.342253,301.57603 217.646572,301.167143 217.718079,300.721388 C217.789586,300.268931 217.62828,299.779606 217.578392,299.305364 C216.191495,286.492436 227.803845,276.116075 240.254319,279.03694 C245.021985,280.156354 248.750309,282.824178 251.585632,286.832617 M269.367517,286.562983 C269.573872,286.394881 269.675385,286.343286 269.73363,286.261732 C274.985678,279.016736 284.279941,276.786482 291.986606,280.033665 C301.051216,283.851726 304.650767,293.024061 303.179661,300.390556 C303.08314,300.874887 303.504169,301.460745 303.685561,302 C304.084957,301.612202 304.540933,301.266014 304.867106,300.823291 C305.071796,300.547006 305.095094,300.130914 305.18163,299.773075 C308.298577,286.964095 302.317632,273.870509 290.548783,267.892097 C289.433805,267.326212 289.099311,266.761991 289.17919,265.513715 C290.031233,251.930804 281.630618,240.100473 268.560406,236.410568 C267.833174,236.20585 266.788089,235.476857 266.380373,236.656894 C265.956016,237.888527 267.280677,237.858568 267.961313,238.141511 C281.236215,243.655564 283.635916,261.198007 272.31805,270.069091 C269.335899,272.405864 265.912748,273.609203 262.140126,273.995336 C262.108507,274.441387 262.108507,274.805884 262.056919,275.163723 C261.843908,276.641682 262.19005,277.590372 263.757677,278.317701 C265.621522,279.179844 266.698225,280.992341 266.47523,283.106089 C266.317136,284.599028 266.833021,285.341336 268.08446,285.855626 C268.517138,286.033713 268.909877,286.30667 269.367517,286.562983 M252.681239,288.755658 C252.875891,289.27013 252.983286,289.572361 253.100748,289.869498 C256.13464,297.5713 254.112605,305.97944 247.930715,311.373757 C241.799165,316.723929 233.165662,317.50158 226.139719,313.299208 C225.186593,312.728704 224.359321,311.942563 223.407874,311.366966 C223.030315,311.137745 222.474885,311.209058 222,311.144537 C222.036917,311.621655 222,312.122544 222.132565,312.572495 C222.213111,312.844163 222.552074,313.039425 222.778609,313.266947 C232.392087,322.928158 247.269568,324.420637 258.749023,316.813919 C259.618246,316.236623 260.123336,316.294353 260.953964,316.834294 C270.909761,323.300004 281.147469,323.731278 291.494248,317.929458 C293.73275,316.672991 295.633967,314.784895 297.620764,313.10055 C297.936235,312.832278 297.882537,312.114054 298,311.604676 C297.493233,311.643728 296.974719,311.635238 296.479698,311.742208 C296.249807,311.791448 296.073613,312.071606 295.863858,312.234607 C289.760835,316.980316 281.511603,317.547424 274.913559,313.676148 C268.228257,309.752236 264.603696,302.211738 265.788391,294.428435 C266.082047,292.501287 266.758296,290.63017 267.288556,288.624917 C266.377382,288.103653 265.383984,287.534847 264.452673,287 C261.349981,289.334651 259.3162,289.40936 256.31419,287.477118 C256.003754,287.275064 255.431543,287.236012 255.094257,287.38543 C254.282087,287.743692 253.53536,288.256467 252.681239,288.755658" id="Fill-51" fill="#EC1C24"></path>
        <path d="M253.277539,289.705505 C254.120421,289.220574 254.855667,288.720798 255.65715,288.37277 C255.991654,288.227621 256.55468,288.267207 256.861032,288.461839 C259.823541,290.340533 261.832218,290.267958 264.894085,288 C265.811486,288.517919 266.791813,289.070476 267.690998,289.578499 C267.169371,291.526469 266.500364,293.342485 266.212228,295.21623 C265.041465,302.77719 268.619991,310.100633 275.217328,313.914102 C281.728555,317.674789 289.869246,317.123881 295.890309,312.512091 C296.097304,312.353747 296.272836,312.081592 296.499702,312.033758 C296.98821,311.931494 297.498245,311.938092 298,311.901804 C297.884083,312.396632 297.937074,313.094338 297.624098,313.354947 C295.665099,314.989526 293.788898,316.823686 291.57985,318.045909 C281.369212,323.681991 271.264556,323.263038 261.441412,316.980381 C260.621713,316.457514 260.12327,316.401433 259.263827,316.960588 C247.935418,324.351657 233.253693,322.901814 223.768365,313.516591 C223.54481,313.295568 223.210307,313.105884 223.130821,312.840327 C223,312.404879 223.034775,311.918299 223,311.454811 C223.46698,311.517489 224.015102,311.448213 224.389349,311.669236 C225.326621,312.22839 226.143009,312.992074 227.085249,313.54628 C234.017089,317.630254 242.53865,316.874818 248.589521,311.675833 C254.690071,306.437262 256.6855,298.267665 253.691528,290.785877 C253.575611,290.497228 253.467974,290.20528 253.277539,289.705505" id="Fill-53" fill="#EC1C24"></path>
        <path d="M269.368303,286.562744 C268.910672,286.308091 268.516278,286.035131 268.085273,285.855376 C266.833861,285.342743 266.317986,284.598758 266.476077,283.105797 C266.699068,280.992016 265.622388,279.179491 263.758583,278.317334 C262.19099,277.589994 261.844855,276.64129 262.056197,275.163307 C262.109448,274.807127 262.109448,274.44096 262.139402,273.994903 C265.913607,273.608763 269.335021,272.405406 272.317108,270.068597 C283.634731,261.197375 281.236746,243.656325 267.960464,238.140522 C267.281507,237.857575 265.95521,237.887534 266.379558,236.657547 C266.787266,235.477491 267.832328,236.204832 268.561209,236.409552 C281.629477,240.099514 290.031576,251.930028 289.177887,265.514814 C289.098009,266.76311 289.43416,267.325675 290.549115,267.891569 C302.317711,273.870073 308.298528,286.963863 305.181647,299.773041 C305.095113,300.130885 305.071816,300.546984 304.86713,300.823273 C304.540964,301.266002 304.083334,301.612196 303.683947,302 C303.504223,301.460736 303.083203,300.876534 303.178057,300.392195 C304.649132,293.023922 301.051322,283.851445 291.986907,280.033325 C284.280406,276.786092 274.986343,279.01638 269.734407,286.261488 C269.676163,286.343043 269.574653,286.39464 269.368303,286.562744" id="Fill-55" fill="#EC1C24"></path>
        <path d="M251.584941,286.831103 C248.74958,282.822707 245.022868,280.156587 240.255138,279.037186 C227.802833,276.114676 216.190326,286.490926 217.577241,299.303717 C217.62713,299.77963 217.790101,300.268949 217.716931,300.719726 C217.645423,301.167152 217.3411,301.574359 217.139881,302 C216.770702,301.646417 216.132122,301.333051 216.075581,300.935898 C215.636557,297.808947 214.831681,294.633399 215.031237,291.529909 C215.734673,280.404598 221.262379,272.330831 231.16868,267.368932 C232.189743,266.856153 232.159809,266.241152 232.104931,265.356356 C231.27511,251.866561 240.218553,239.504547 253.169749,236.216724 C253.525625,236.126233 253.914759,235.940225 254.237375,236.018985 C254.578283,236.102773 254.980722,236.391002 255.113759,236.69934 C255.196908,236.890376 254.904225,237.409858 254.653117,237.553973 C254.017863,237.917611 253.297798,238.125404 252.634274,238.440445 C244.913112,242.110339 240.762344,249.874093 241.984625,258.350041 C243.125422,266.278019 249.431397,272.573815 257.574952,273.917767 C257.987368,273.986473 258.396458,274.078639 258.965194,274.189238 C258.965194,274.758994 258.91863,275.332101 258.975171,275.893477 C259.091579,277.048069 258.825504,277.770318 257.60156,278.308234 C255.630942,279.176273 254.360435,280.939163 254.566643,283.090827 C254.746243,284.986101 253.906444,285.748568 252.491258,286.380326 C252.205228,286.509359 251.930838,286.658501 251.584941,286.831103" id="Fill-57" fill="#EC1C24"></path>
        <path d="M252,303.358455 C251.116463,304.934567 250.284121,306.423888 249.402236,308 C245.299981,306.066312 242.064748,303.290759 239.475241,299.713263 C235.607495,294.370452 233.812346,288.310754 234.015477,281.584506 C234.050158,280.499628 234.317696,279.952849 235.432439,280.003187 C236.662785,280.058733 237.898086,280.017074 239.300185,280.017074 C238.902181,285.118607 239.693235,289.685512 241.998689,293.893106 C244.309098,298.109378 247.638464,301.166132 252,303.358455" id="Fill-59" fill="#142633"></path>
        <path d="M276,261.39096 C275.088432,262.981943 274.223611,264.494535 273.360459,266 C263.379955,260.031588 259.080892,260.004864 247.417492,265.818275 C246.611105,264.298557 245.79804,262.762804 245,261.253776 C253.092255,254.540648 266.672286,253.915301 276,261.39096" id="Fill-61" fill="#142633"></path>
        <path d="M281.825761,280.543308 C282.019048,280.434593 282.10095,280.356939 282.195955,280.337957 C286.595699,279.492392 287.300051,280 286.905287,284.583036 C285.983077,295.280292 280.711902,302.90763 271.538944,308 C270.667513,306.395153 269.863241,304.914552 269,303.32351 C277.832248,298.446845 282.218888,290.998974 281.825761,280.543308" id="Fill-63" fill="#142633"></path>
    </g>
</svg>