<?xml version="1.0" encoding="UTF-8"?>
<svg width="500px" height="500px" viewBox="0 0 500 500" version="1.1" xmlns="http://www.w3.org/2000/svg" xmlns:xlink="http://www.w3.org/1999/xlink">
    <!-- Generator: Sketch 55.2 (78181) - https://sketchapp.com -->
    <title>detect-digital-skimmers</title>
    <desc>Created with Sketch.</desc>
    <g id="detect-digital-skimmers" stroke="none" stroke-width="1" fill="none" fill-rule="evenodd">
        <path d="M376,66 L289.690481,66 C268.714145,66 269.272492,67.4609804 251.716307,78.8915168 L226.814025,93.6670441 C221.821744,96.9160901 224.692306,102.456913 224.692306,108.396779 L220,162.695098 L224.692306,204.400637 C224.692306,214.121609 226.726441,222 236.485473,222 C246.334278,222 254.284704,214.025664 254.157707,204.21965 C254.011004,192.551432 249.156668,176.899316 249.14572,162.208831 C249.136962,147.516166 253.967212,133.780769 254.41389,131.107393 C255.707941,123.372919 279.550459,112.413385 280.19858,113.702101" id="Stroke-1" stroke="#EC1C24" stroke-width="4" stroke-linecap="round" stroke-linejoin="round"></path>
        <path d="M255,130 C256.303071,122.488419 280.311777,111.849834 280.964415,113.101059 C281.288529,113.723496 279.359278,119.43975 276.779594,127.721967" id="Stroke-3" stroke="#EC1C24" stroke-width="4" stroke-linecap="round" stroke-linejoin="round"></path>
        <path d="M262,140 C262.939937,138.859095 265.683878,129.981709 274,129" id="Stroke-5" stroke="#EC1C24" stroke-width="4" stroke-linecap="round" stroke-linejoin="round"></path>
        <path d="M311.401542,142.783367 C297.310401,153.831004 296.419001,175.282705 291.672188,178.426394 C285.831983,182.296558 263.762155,182.940131 268.306976,160.369268 C270.594756,149.00748 273.866149,137.647874 276.472286,129 L276.090257,131.744456 L143.754722,223.027083 C139.787335,225.762813 138.812503,231.181915 141.559156,235.110982 L205.243739,326.269257 C207.990392,330.200505 213.439786,331.18659 217.407173,328.45086 L361.245278,229.238107 C365.212665,226.500195 366.187497,221.083275 363.440844,217.152027 L311.456432,142.741916 L311.401542,142.783367 Z" id="Fill-7" stroke="#979797" stroke-width="4" fill="#FFFFFF"></path>
        <path d="M311.401542,142.783367 C297.310401,153.831004 296.419001,175.282705 291.672188,178.426394 C285.831983,182.296558 263.762155,182.940131 268.306976,160.369268 C270.594756,149.00748 273.866149,137.647874 276.472286,129 L276.090257,131.744456 L143.754722,223.027083 C139.787335,225.762813 138.812503,231.181915 141.559156,235.110982 L205.243739,326.269257 C207.990392,330.200505 213.439786,331.18659 217.407173,328.45086 L361.245278,229.238107 C365.212665,226.500195 366.187497,221.083275 363.440844,217.152027 L311.456432,142.741916 L311.401542,142.783367 Z" id="Stroke-9" stroke="#0F222E" stroke-width="4" stroke-linecap="round" stroke-linejoin="round"></path>
        <path d="M363.901747,164 L410.270742,164 C413.436681,164 416,166.573994 416,169.748222 L416,391 L68,391 L68,169.748222 C68,166.573994 70.5633188,164 73.7292576,164 L169.161572,164" id="Stroke-11" stroke="#0F222E" stroke-width="4" stroke-linecap="round" stroke-linejoin="round"></path>
        <path d="M355.698942,181 L395.24832,181 C398.426649,181 401,183.556385 401,186.708896 L401,372 L84,372 L84,186.708896 C84,183.556385 86.5755428,181 89.7516803,181 L178.53886,181" id="Stroke-13" stroke="#0F222E" stroke-width="4" stroke-linecap="round" stroke-linejoin="round"></path>
        <path d="M472.242306,414 L27.7576937,414 C17.0525006,414 7.34640042,407.637073 2.98194183,397.754935 L0,391 L500,391 L497.018058,397.754935 C492.6536,407.637073 482.947499,414 472.242306,414 Z" id="Stroke-15" stroke="#0F222E" stroke-width="4" stroke-linecap="round" stroke-linejoin="round"></path>
        <path d="M201.110276,246.770284 L178.475014,262 L163,240.391751 L185.635262,225.164188 C188.68586,223.111178 192.875437,223.845011 194.993538,226.801861 L202.799872,237.699597 C204.915753,240.656448 204.160874,244.717275 201.110276,246.770284 Z" id="Stroke-17" stroke="#EC1C24" stroke-width="4" stroke-linecap="round" stroke-linejoin="round"></path>
        <path d="M172,233 L187,256" id="Stroke-19" stroke="#EC1C24" stroke-width="4" stroke-linecap="round" stroke-linejoin="round"></path>
        <path d="M169,247 L177,242" id="Stroke-21" stroke="#EC1C24" stroke-width="4" stroke-linecap="round" stroke-linejoin="round"></path>
        <path d="M174,255 L182,250" id="Stroke-23" stroke="#EC1C24" stroke-width="4" stroke-linecap="round" stroke-linejoin="round"></path>
        <path d="M195.707489,252 L188.021913,241.053636 C186.21981,238.485971 186.863749,234.96087 189.460353,233.17656 L197,228" id="Stroke-25" stroke="#EC1C24" stroke-width="4" stroke-linecap="round" stroke-linejoin="round"></path>
        <path d="M190,245 L201,236" id="Stroke-27" stroke="#EC1C24" stroke-width="4" stroke-linecap="round" stroke-linejoin="round"></path>
        <path d="M261.834233,268.735071 L249.93182,276.423099 C248.360062,277.43898 246.19661,277.078437 245.104603,275.615061 L240.620066,269.617338 C239.52806,268.160325 239.91643,266.154014 241.485904,265.142376 L253.395171,257.450106 C254.626534,256.656913 256.314803,256.938984 257.169218,258.084235 L262.515024,265.231451 C263.369439,266.374581 263.065596,267.941879 261.834233,268.735071 Z" id="Stroke-29" stroke="#0F222E" stroke-width="4" stroke-linecap="round" stroke-linejoin="round"></path>
        <path d="M285.405518,251.519712 L272.92792,259.398131 C271.24499,260.458845 268.934908,260.081337 267.766332,258.55079 L263.662779,253.175411 C262.494202,251.644863 262.911551,249.5419 264.594482,248.481186 L277.07208,240.602766 C278.75501,239.540001 281.067348,239.91956 282.235924,241.450107 L286.337221,246.825487 C287.505798,248.356034 287.088449,250.456946 285.405518,251.519712 Z" id="Stroke-31" stroke="#0F222E" stroke-width="4" stroke-linecap="round" stroke-linejoin="round"></path>
        <path d="M310.405518,234.520757 L297.92792,242.397226 C296.24499,243.460005 293.934908,243.080441 292.766332,241.549874 L288.662779,236.176477 C287.494202,234.645911 287.911551,232.54292 289.594482,231.48014 L302.07208,223.603672 C303.75501,222.53884 306.067348,222.920456 307.233668,224.451023 L311.337221,229.82442 C312.505798,231.354987 312.088449,233.455926 310.405518,234.520757 Z" id="Stroke-33" stroke="#0F222E" stroke-width="4" stroke-linecap="round" stroke-linejoin="round"></path>
        <path d="M336.405518,217.520757 L323.92792,225.397226 C322.24499,226.460005 319.934908,226.080441 318.766332,224.549874 L314.662779,219.176477 C313.494202,217.645911 313.911551,215.54292 315.594482,214.48014 L328.07208,206.603672 C329.75501,205.53884 332.067348,205.920456 333.233668,207.451023 L337.337221,212.82442 C338.505798,214.354987 338.088449,216.455926 336.405518,217.520757 Z" id="Stroke-35" stroke="#0F222E" stroke-width="4" stroke-linecap="round" stroke-linejoin="round"></path>
        <path d="M250,224 L275,207" id="Stroke-37" stroke="#0F222E" stroke-width="4" stroke-linecap="round" stroke-linejoin="round"></path>
        <path d="M257,232 L271,222" id="Stroke-39" stroke="#0F222E" stroke-width="4" stroke-linecap="round" stroke-linejoin="round"></path>
        <path d="M275,219 L286,211" id="Stroke-41" stroke="#0F222E" stroke-width="4" stroke-linecap="round" stroke-linejoin="round"></path>
        <path d="M292,205 L300,200" id="Stroke-43" stroke="#0F222E" stroke-width="4" stroke-linecap="round" stroke-linejoin="round"></path>
        <path d="M305,197 L313,192" id="Stroke-45" stroke="#0F222E" stroke-width="4" stroke-linecap="round" stroke-linejoin="round"></path>
        <path d="M283,202 L308,185" id="Stroke-47" stroke="#0F222E" stroke-width="4" stroke-linecap="round" stroke-linejoin="round"></path>
        <path d="M323,137 C339.600278,133.359806 374.098312,108 374.098312,108 C374.098312,108 386.705508,110.80425 397,111.91742" id="Stroke-49" stroke="#EC1C24" stroke-width="4" stroke-linecap="round" stroke-linejoin="round"></path>
        <path d="M311,143 C314.239134,140.47358 318.180336,138.494407 323.029196,137.415055 C339.622924,133.722761 374.107347,108 374.107347,108 C374.107347,108 386.70957,110.844385 397,111.973487" id="Stroke-51" stroke="#EC1C24" stroke-width="4" stroke-linecap="round" stroke-linejoin="round"></path>
        <path d="M280.762938,113 C281.401549,114.299896 273.084456,137.017333 268.603357,159.736965 C264.122259,182.456598 285.882648,181.808846 291.640968,177.911354 C297.401453,174.018254 297.401453,142.842944 323,137" id="Stroke-53" stroke="#EC1C24" stroke-width="4" stroke-linecap="round" stroke-linejoin="round"></path>
    </g>
</svg>