<?xml version="1.0" encoding="UTF-8"?>
<svg width="500px" height="500px" viewBox="0 0 500 500" version="1.1" xmlns="http://www.w3.org/2000/svg" xmlns:xlink="http://www.w3.org/1999/xlink">
    <!-- Generator: Sketch 55.2 (78181) - https://sketchapp.com -->
    <title>Artboard Copy 8</title>
    <desc>Created with Sketch.</desc>
    <g id="Artboard-Copy-8" stroke="none" stroke-width="1" fill="none" fill-rule="evenodd">
        <g id="Group-33" transform="translate(0.000000, 176.000000)">
            <path d="M89.0896089,0 L112.721833,0 C119.174612,0 124.40304,5.11001736 124.40304,11.4089772 L124.40304,37.0941208 C124.40304,43.3952948 129.636003,48.5030981 136.088782,48.5030981 L151.107476,48.5030981 C155.465256,48.5030981 159,51.9547952 159,56.212405 L159,99.7272582 C159,103.984868 155.465256,107.434351 151.107476,107.434351 L42.4622756,107.434351 C36.0094971,107.434351 30.7788013,112.542154 30.7788013,118.843328 L30.7788013,127.593237 C30.7788013,133.894411 25.5481056,139 19.095327,139 L0,139" id="Stroke-1" stroke="#112430" stroke-width="2.7" stroke-linecap="round" stroke-linejoin="round"></path>
            <path d="M197,75 L44,75" id="Stroke-3" stroke="#112430" stroke-width="2.7" stroke-linecap="round" stroke-linejoin="round"></path>
            <path d="M115,28.001232 C115,29.6570842 113.731083,31 112.166473,31 L107.833527,31 C106.268917,31 105,29.6570842 105,28.001232 C105,26.3429158 106.268917,25 107.833527,25 L112.166473,25 C113.731083,25 115,26.3429158 115,28.001232" id="Fill-5" fill="#EC1C24"></path>
            <path d="M65.1564171,101 L52.5165202,101 C48.9189267,101 46,98.090664 46,94.5 C46,90.9115268 48.9189267,88 52.5165202,88 L65.1564171,88 C67.2802712,88 69,89.7175598 69,91.8338389 L69,97.1661611 C69,99.2846309 67.2802712,101 65.1564171,101" id="Fill-7" fill="#EC1C24"></path>
            <path d="M115,132 L107.833527,132 C106.268917,132 105,130.656532 105,129 C105,127.341002 106.268917,126 107.833527,126 L115,126 L115,132 Z" id="Fill-9" fill="#C2FBBC"></path>
            <path d="M14,96 L6.83352736,96 C5.26658906,96 4,94.6589975 4,93 C4,91.3434675 5.26658906,90 6.83352736,90 L14,90 L14,96 Z" id="Fill-11" fill="#C2FBBC"></path>
            <path d="M401.910391,149 L378.278167,149 C371.825388,149 366.59696,143.892197 366.59696,137.593237 L366.59696,111.905879 C366.59696,105.604705 361.363997,100.499116 354.911218,100.499116 L339.892524,100.499116 C335.534744,100.499116 332,97.0452048 332,92.787595 L332,49.2727418 C332,45.015132 335.534744,41.5656488 339.892524,41.5656488 L448.537724,41.5656488 C454.990503,41.5656488 460.221199,36.4578455 460.221199,30.1566716 L460.221199,21.4067632 C460.221199,15.1055893 465.451894,10 471.904673,10 L491,10" id="Stroke-13" stroke="#112430" stroke-width="2.7" stroke-linecap="round" stroke-linejoin="round"></path>
            <path d="M294,75 L447,75" id="Stroke-15" stroke="#112430" stroke-width="2.7" stroke-linecap="round" stroke-linejoin="round"></path>
            <path d="M376,121 C376,119.341002 377.268917,118 378.833527,118 L383.166473,118 C384.731083,118 386,119.341002 386,121 C386,122.656532 384.731083,124 383.166473,124 L378.833527,124 C377.268917,124 376,122.656532 376,121" id="Fill-17" fill="#EC1C24"></path>
            <path d="M425.84395,46 L438.482857,46 C442.082991,46 445,48.909336 445,52.5 C445,56.0884732 442.082991,59 438.482857,59 L425.84395,59 C423.719893,59 422,57.2824402 422,55.1661611 L422,49.8338389 C422,47.7153691 423.719893,46 425.84395,46" id="Fill-19" fill="#EC1C24"></path>
            <path d="M376,15 L383.166473,15 C384.731083,15 386,16.3429158 386,18.001232 C386,19.6570842 384.731083,21 383.166473,21 L376,21 L376,15 Z" id="Fill-21" fill="#C2FBBC"></path>
            <path d="M477,53 L484.166473,53 C485.731083,53 487,54.3434675 487,56 C487,57.6565325 485.731083,59 484.166473,59 L477,59 L477,53 Z" id="Fill-23" fill="#C2FBBC"></path>
            <path d="M281,75.5 C281,95.1083446 265.106565,111 245.501146,111 C225.895728,111 210,95.1083446 210,75.5 C210,55.8939482 225.895728,40 245.501146,40 C265.106565,40 281,55.8939482 281,75.5" id="Fill-25" fill="#EC1C24"></path>
            <path d="M293,75 C293,101.512052 271.509774,123 245,123 C218.490226,123 197,101.512052 197,75 C197,48.4902258 218.490226,27 245,27 C271.509774,27 293,48.4902258 293,75 Z" id="Stroke-27" stroke="#282525" stroke-width="2.7" stroke-linecap="round" stroke-linejoin="round"></path>
            <path d="M246,53 L246,76" id="Stroke-29" stroke="#000000" stroke-width="2.7" stroke-linecap="round" stroke-linejoin="round"></path>
            <path d="M246,88 L246,96" id="Stroke-31" stroke="#000000" stroke-width="2.7" stroke-linecap="round" stroke-linejoin="round"></path>
        </g>
    </g>
</svg>