<?xml version="1.0" encoding="UTF-8"?>
<svg width="500px" height="500px" viewBox="0 0 500 500" version="1.1" xmlns="http://www.w3.org/2000/svg" xmlns:xlink="http://www.w3.org/1999/xlink">
    <!-- Generator: Sketch 55.2 (78181) - https://sketchapp.com -->
    <title>monitor</title>
    <desc>Created with Sketch.</desc>
    <defs>
        <polygon id="path-1" points="0 0.0389 9.8728 0.0389 9.8728 5.6329 0 5.6329"></polygon>
    </defs>
    <g id="monitor" stroke="none" stroke-width="1" fill="none" fill-rule="evenodd">
        <g id="Group-36" transform="translate(6.000000, 98.000000)">
            <path d="M53.5789,0.1034 L112.4049,0.1034 C118.9459,0.1034 124.2499,5.4064 124.2499,11.9484 L124.2499,38.6154 C124.2499,45.1574 129.5529,50.4594 136.0939,50.4594 L151.3219,50.4594 C155.7419,50.4594 159.3249,54.0424 159.3249,58.4624 L159.3249,263.8174 C159.3249,268.2374 155.7419,271.8204 151.3219,271.8204 L51.1729,271.8204 C44.6319,271.8204 39.3289,277.1244 39.3289,283.6654 L39.3289,292.7494 C39.3289,299.2904 34.0249,304.5934 27.4839,304.5934 L8.1239,304.5934" id="Stroke-1" stroke="#282525" stroke-width="4" stroke-linecap="round" stroke-linejoin="round"></path>
            <path d="M182.5506,151.8983 L118.2006,151.8983 C97.0926,151.8983 77.8176,163.8903 68.4896,182.8273 C57.9626,204.1983 36.2076,217.7333 12.3836,217.7333 L8.1236,217.7333" id="Stroke-3" stroke="#282525" stroke-width="4" stroke-linecap="round" stroke-linejoin="round"></path>
            <path d="M114.3377,31.7264 L106.8987,31.7264 C106.2267,31.7264 105.6817,31.1824 105.6817,30.5094 L105.6817,27.3494 C105.6817,26.6764 106.2267,26.1324 106.8987,26.1324 L114.3377,26.1324 C115.0097,26.1324 115.5547,26.6764 115.5547,27.3494 L115.5547,30.5094 C115.5547,31.1824 115.0097,31.7264 114.3377,31.7264" id="Fill-5" fill="#EC1C24"></path>
            <path d="M59.7039779,125 L46.8389648,125 C45.7500953,125 44.8673,124.123754 44.8673,123.042302 L44.8673,117.957698 C44.8673,116.876246 45.7500953,116 46.8389648,116 L59.7039779,116 C60.3467964,116 60.8673,116.517302 60.8673,117.154692 L60.8673,123.845308 C60.8673,124.482698 60.3467964,125 59.7039779,125" id="Fill-7" fill="#EC1C24"></path>
            <path d="M114.9764,210.6551 L106.3204,210.6551 C105.6484,210.6551 105.1034,210.1101 105.1034,209.4381 L105.1034,206.2781 C105.1034,205.6051 105.6484,205.0601 106.3204,205.0601 L114.9764,205.0601 L114.9764,210.6551 Z" id="Fill-9" fill="#EEEEEE"></path>
            <g id="Group-13" transform="translate(0.000000, 167.697000)">
                <mask id="mask-2" fill="white">
                    <use xlink:href="#path-1"></use>
                </mask>
                <g id="Clip-12"></g>
                <path d="M9.8728,5.6329 L1.2168,5.6329 C0.5448,5.6329 -0.0002,5.0879 -0.0002,4.4159 L-0.0002,1.2559 C-0.0002,0.5829 0.5448,0.0389 1.2168,0.0389 L9.8728,0.0389 L9.8728,5.6329 Z" id="Fill-11" fill="#EEEEEE" mask="url(#mask-2)"></path>
            </g>
            <path d="M440.8611,280.6854 L416.9041,280.6854 C410.3621,280.6854 405.0591,275.3814 405.0591,268.8404 L405.0591,242.1724 C405.0591,235.6314 399.7561,230.3294 393.2151,230.3294 L346.4061,230.3294 C341.9861,230.3294 338.4031,226.7454 338.4031,222.3264 L338.4031,48.8164 C338.4031,44.3964 341.9861,40.8134 346.4061,40.8134 L444.5541,40.8134 C451.0961,40.8134 456.3991,35.5104 456.3991,28.9684 L456.3991,19.8844 C456.3991,13.3424 461.7031,8.0394 468.2441,8.0394 L487.6041,8.0394" id="Stroke-14" stroke="#282525" stroke-width="4" stroke-linecap="round" stroke-linejoin="round"></path>
            <path d="M314.2195,151.579 L371.4245,151.579 C383.8015,151.579 393.8345,141.546 393.8345,129.169 L393.8345,108.475 C393.8345,96.098 403.8675,86.064 416.2445,86.064 L440.8615,86.064" id="Stroke-16" stroke="#282525" stroke-width="4" stroke-linecap="round" stroke-linejoin="round"></path>
            <path d="M414.9715,249.0614 L422.4095,249.0614 C423.0815,249.0614 423.6265,249.6064 423.6265,250.2784 L423.6265,253.4394 C423.6265,254.1114 423.0815,254.6564 422.4095,254.6564 L414.9715,254.6564 C414.2985,254.6564 413.7545,254.1114 413.7545,253.4394 L413.7545,250.2784 C413.7545,249.6064 414.2985,249.0614 414.9715,249.0614" id="Fill-18" fill="#EC1C24"></path>
            <path d="M433.028335,54 C434.117205,54 435,54.8763106 435,55.9578415 L435,61.0421585 C435,62.1236894 434.117205,63 433.028335,63 L420.163322,63 C419.520504,63 419,62.48266 419,61.8452233 L419,55.1541169 C419,54.5166801 419.520504,54 420.163322,54 L433.028335,54 Z" id="Fill-20" fill="#EC1C24"></path>
            <path d="M95.3963,280.6854 L114.7503,280.6854 C116.3883,280.6854 117.7163,282.0134 117.7163,283.6524 L117.7163,291.3574 C117.7163,292.9964 116.3883,294.3244 114.7503,294.3244 L95.3963,294.3244 C94.4303,294.3244 93.6463,293.5404 93.6463,292.5744 L93.6463,282.4344 C93.6463,281.4684 94.4303,280.6854 95.3963,280.6854" id="Fill-22" fill="#EEEEEE"></path>
            <path d="M370.7517,16.3632 L379.4067,16.3632 C380.0797,16.3632 380.6237,16.9082 380.6237,17.5802 L380.6237,20.7412 C380.6237,21.4132 380.0797,21.9582 379.4067,21.9582 L370.7517,21.9582 L370.7517,16.3632 Z" id="Fill-24" fill="#EEEEEE"></path>
            <path d="M475.8553,53.6883 L484.5103,53.6883 C485.1833,53.6883 485.7283,54.2333 485.7283,54.9053 L485.7283,58.0663 C485.7283,58.7383 485.1833,59.2833 484.5103,59.2833 L475.8553,59.2833 L475.8553,53.6883 Z" id="Fill-26" fill="#EEEEEE"></path>
            <path d="M296.7508,151.8983 C296.7508,178.6103 275.0968,200.2643 248.3858,200.2643 C221.6738,200.2643 200.0208,178.6103 200.0208,151.8983 C200.0208,125.1873 221.6738,103.5333 248.3858,103.5333 C275.0968,103.5333 296.7508,125.1873 296.7508,151.8983" id="Fill-28" fill="#EC1C24"></path>
            <path d="M314.2195,151.8983 C314.2195,188.2583 284.7445,217.7333 248.3855,217.7333 C212.0265,217.7333 182.5505,188.2583 182.5505,151.8983 C182.5505,115.5393 212.0265,86.0643 248.3855,86.0643 C284.7445,86.0643 314.2195,115.5393 314.2195,151.8983 Z" id="Stroke-30" stroke="#282525" stroke-width="4" stroke-linecap="round" stroke-linejoin="round"></path>
            <path d="M248.1268,160.6053 C245.2628,160.6053 242.9448,158.2883 242.9448,155.4233 L242.9448,127.6813 C242.9448,124.8173 245.2628,122.5003 248.1268,122.5003 C250.9908,122.5003 253.3088,124.8173 253.3088,127.6813 L253.3088,155.4233 C253.3088,158.2883 250.9908,160.6053 248.1268,160.6053" id="Fill-32" fill="#FFFFFF"></path>
            <path d="M248.1268,183.3065 C245.2628,183.3065 242.9448,180.9895 242.9448,178.1245 L242.9448,172.9435 C242.9448,170.0785 245.2628,167.7605 248.1268,167.7605 C250.9908,167.7605 253.3088,170.0785 253.3088,172.9435 L253.3088,178.1245 C253.3088,180.9895 250.9908,183.3065 248.1268,183.3065" id="Fill-34" fill="#FFFFFF"></path>
        </g>
    </g>
</svg>