<?xml version="1.0" encoding="UTF-8"?>
<svg width="500px" height="500px" viewBox="0 0 500 500" version="1.1" xmlns="http://www.w3.org/2000/svg" xmlns:xlink="http://www.w3.org/1999/xlink">
    <!-- Generator: Sketch 55.2 (78181) - https://sketchapp.com -->
    <title>ope-nsource</title>
    <desc>Created with Sketch.</desc>
    <g id="ope-nsource" stroke="none" stroke-width="1" fill="none" fill-rule="evenodd">
        <polyline id="Stroke-1" stroke="#0F222E" stroke-width="4" stroke-linecap="round" stroke-linejoin="round" points="305 189 305.303919 152.546117 330 109"></polyline>
        <path d="M330.798585,100 C334.002186,100 336.59717,102.590791 336.59717,105.789217 C336.59717,108.984303 334.002186,111.578433 330.798585,111.578433 C327.594984,111.578433 325,108.984303 325,105.789217 C325,102.590791 327.594984,100 330.798585,100" id="Fill-2" fill="#0F222E"></path>
        <polyline id="Stroke-4" stroke="#0F222E" stroke-width="4" stroke-linecap="round" stroke-linejoin="round" points="265.374817 189.273139 265.374817 161.191766 278.450058 140.892783 278.450058 74.9244267"></polyline>
        <path d="M278.591177,65.0650637 C281.794778,65.0650637 284.386418,67.6558549 284.386418,70.8542802 C284.386418,74.0493669 281.794778,76.6434968 278.591177,76.6434968 C275.387576,76.6434968 272.792592,74.0493669 272.792592,70.8542802 C272.792592,67.6558549 275.387576,65.0650637 278.591177,65.0650637" id="Fill-6" fill="#0F222E"></path>
        <polyline id="Stroke-8" stroke="#0F222E" stroke-width="4" stroke-linecap="round" stroke-linejoin="round" points="249.619653 190.114478 249.619653 169.818834 234.370778 156.624495 234.370778 117.041478"></polyline>
        <path d="M234.245042,108.480515 C237.448643,108.480515 240.043627,111.071307 240.043627,114.269732 C240.043627,117.464818 237.448643,120.058948 234.245042,120.058948 C231.041441,120.058948 228.446457,117.464818 228.446457,114.269732 C228.446457,111.071307 231.041441,108.480515 234.245042,108.480515" id="Fill-10" fill="#0F222E"></path>
        <polyline id="Stroke-12" stroke="#0F222E" stroke-width="4" stroke-linecap="round" stroke-linejoin="round" points="215.330084 215.995348 178.970212 215.995348 146.43928 189.610008 146.43928 151.041941"></polyline>
        <path d="M146.112566,140.318202 C149.316167,140.318202 151.911151,142.908993 151.911151,146.107418 C151.911151,149.305843 149.316167,151.896635 146.112566,151.896635 C142.908965,151.896635 140.317325,149.305843 140.317325,146.107418 C140.317325,142.908993 142.908965,140.318202 146.112566,140.318202" id="Fill-14" fill="#0F222E"></path>
        <polyline id="Stroke-16" stroke="#0F222E" stroke-width="4" stroke-linecap="round" stroke-linejoin="round" points="216.582431 251.514228 153.557093 251.514228 132.212013 262.682007 100.697672 262.682007"></polyline>
        <path d="M96.8286045,256.672106 C100.032206,256.672106 102.62719,259.262897 102.62719,262.461322 C102.62719,265.656409 100.032206,268.250539 96.8286045,268.250539 C93.6250032,268.250539 91.0333633,265.656409 91.0333633,262.461322 C91.0333633,259.262897 93.6250032,256.672106 96.8286045,256.672106" id="Fill-18" fill="#0F222E"></path>
        <polyline id="Stroke-20" stroke="#0F222E" stroke-width="4" stroke-linecap="round" stroke-linejoin="round" points="215.56517 263.694953 197.266521 263.694953 176.938032 281.964038 133.224592 281.964038"></polyline>
        <path d="M129.29901,275.197599 C132.502611,275.197599 135.097595,277.78839 135.097595,280.983477 C135.097595,284.181902 132.502611,286.776032 129.29901,286.776032 C126.095408,286.776032 123.500424,284.181902 123.500424,280.983477 C123.500424,277.78839 126.095408,275.197599 129.29901,275.197599" id="Fill-22" fill="#0F222E"></path>
        <polyline id="Stroke-24" stroke="#0F222E" stroke-width="4" stroke-linecap="round" stroke-linejoin="round" points="242.673723 293.80155 242.713852 332.079155 225.318096 355.639998"></polyline>
        <path d="M223.807923,354.369976 C227.011524,354.369976 229.606508,356.960767 229.606508,360.155854 C229.606508,363.354279 227.011524,365.948409 223.807923,365.948409 C220.604322,365.948409 218.009338,363.354279 218.009338,360.155854 C218.009338,356.960767 220.604322,354.369976 223.807923,354.369976" id="Fill-26" fill="#0F222E"></path>
        <polyline id="Stroke-28" stroke="#0F222E" stroke-width="4" stroke-linecap="round" stroke-linejoin="round" points="249.110354 426.085816 249.110354 403.760273 270.458778 379.401494 270.458778 295.247519"></polyline>
        <path d="M248.739498,424.99341 C251.9431,424.99341 254.538084,427.584201 254.538084,430.779288 C254.538084,433.977713 251.9431,436.571843 248.739498,436.571843 C245.535897,436.571843 242.940913,433.977713 242.940913,430.779288 C242.940913,427.584201 245.535897,424.99341 248.739498,424.99341" id="Fill-30" fill="#0F222E"></path>
        <polyline id="Stroke-32" stroke="#0F222E" stroke-width="4" stroke-linecap="round" stroke-linejoin="round" points="282.656875 293.80155 282.656875 329.67199 302.988707 349.967634 325.350379 349.967634"></polyline>
        <path d="M329.333145,345.10723 C332.536746,345.10723 335.13173,347.698021 335.13173,350.896446 C335.13173,354.091533 332.536746,356.685663 329.333145,356.685663 C326.129543,356.685663 323.534559,354.091533 323.534559,350.896446 C323.534559,347.698021 326.129543,345.10723 329.333145,345.10723" id="Fill-34" fill="#0F222E"></path>
        <polyline id="Stroke-36" stroke="#0F222E" stroke-width="4" stroke-linecap="round" stroke-linejoin="round" points="354.338624 344.611774 354.338624 308.744673 334.006791 288.44569 311.645119 288.44569"></polyline>
        <path d="M353.190611,352.964739 C349.98701,352.964739 347.392026,350.373948 347.392026,347.178861 C347.392026,343.980436 349.98701,341.386306 353.190611,341.386306 C356.394212,341.386306 358.989196,343.980436 358.989196,347.178861 C358.989196,350.373948 356.394212,352.964739 353.190611,352.964739" id="Fill-38" fill="#0F222E"></path>
        <polyline id="Stroke-40" stroke="#0F222E" stroke-width="4" stroke-linecap="round" stroke-linejoin="round" points="458.061068 334.321726 422.132579 334.321726 401.80409 354.620709 401.80409 376.94959"></polyline>
        <path d="M466.429556,335.469553 C466.429556,338.667978 463.834572,341.255431 460.630971,341.255431 C457.430714,341.255431 454.832386,338.667978 454.832386,335.469553 C454.832386,332.271128 457.430714,329.683675 460.630971,329.683675 C463.834572,329.683675 466.429556,332.271128 466.429556,335.469553" id="Fill-42" fill="#0F222E"></path>
        <path d="M407.980553,380.456506 C407.980553,383.651593 405.385569,386.242384 402.181968,386.242384 C398.981711,386.242384 396.383383,383.651593 396.383383,380.456506 C396.383383,377.258081 398.981711,374.66729 402.181968,374.66729 C405.385569,374.66729 407.980553,377.258081 407.980553,380.456506" id="Fill-44" fill="#0F222E"></path>
        <polyline id="Stroke-46" stroke="#0F222E" stroke-width="4" stroke-linecap="round" stroke-linejoin="round" points="97.001492 327.827053 61.0730032 327.827053 40.7445145 348.126036 40.7445145 370.454917"></polyline>
        <path d="M105.368309,328.97488 C105.368309,332.169967 102.773325,334.760758 99.5697235,334.760758 C96.3694662,334.760758 93.7744823,332.169967 93.7744823,328.97488 C93.7744823,325.776455 96.3694662,323.185663 99.5697235,323.185663 C102.773325,323.185663 105.368309,325.776455 105.368309,328.97488" id="Fill-48" fill="#0F222E"></path>
        <path d="M46.9209775,373.961833 C46.9209775,377.15692 44.3259936,379.747711 41.1223923,379.747711 C37.922135,379.747711 35.3238071,377.15692 35.3238071,373.961833 C35.3238071,370.763408 37.922135,368.172617 41.1223923,368.172617 C44.3259936,368.172617 46.9209775,370.763408 46.9209775,373.961833" id="Fill-50" fill="#0F222E"></path>
        <polyline id="Stroke-59" stroke="#0F222E" stroke-width="4" stroke-linecap="round" stroke-linejoin="round" points="439.807563 175.266507 417.445891 175.266507 365.512772 122.903143"></polyline>
        <path d="M363.689595,115.288353 C366.893196,115.288353 369.48818,117.879145 369.48818,121.074231 C369.48818,124.272657 366.893196,126.866787 363.689595,126.866787 C360.485994,126.866787 357.89101,124.272657 357.89101,121.074231 C357.89101,117.879145 360.485994,115.288353 363.689595,115.288353" id="Fill-61" fill="#0F222E"></path>
        <path d="M443.321492,169.101024 C446.525093,169.101024 449.120077,171.691816 449.120077,174.886902 C449.120077,178.085328 446.525093,180.679457 443.321492,180.679457 C440.117891,180.679457 437.522907,178.085328 437.522907,174.886902 C437.522907,171.691816 440.117891,169.101024 443.321492,169.101024" id="Fill-63" fill="#0F222E"></path>
        <polyline id="Stroke-65" stroke="#0F222E" stroke-width="4" stroke-linecap="round" stroke-linejoin="round" points="51.2575434 268.011826 51.2575434 311.851619 30.7952926 330.541374"></polyline>
        <path d="M23.1678457,332.362273 C23.1678457,329.163848 25.7628296,326.573056 28.9664309,326.573056 C32.1666881,326.573056 34.7650161,329.163848 34.7650161,332.362273 C34.7650161,335.557359 32.1666881,338.148151 28.9664309,338.148151 C25.7628296,338.148151 23.1678457,335.557359 23.1678457,332.362273" id="Fill-67" fill="#0F222E"></path>
        <path d="M45.080746,264.503574 C45.080746,261.308487 47.6757299,258.717696 50.8793312,258.717696 C54.0795884,258.717696 56.6779164,261.308487 56.6779164,264.503574 C56.6779164,267.701999 54.0795884,270.29279 50.8793312,270.29279 C47.6757299,270.29279 45.080746,267.701999 45.080746,264.503574" id="Fill-69" fill="#0F222E"></path>
        <polyline id="Stroke-71" stroke="#0F222E" stroke-width="4" stroke-linecap="round" stroke-linejoin="round" points="200.046765 169.629199 184.232746 153.84073 184.597248 80.153418"></polyline>
        <path d="M188.701736,73.4801273 C190.965659,75.743731 190.965659,79.4062284 188.701736,81.6664935 C186.437814,83.9267585 182.766045,83.9267585 180.502122,81.6664935 C178.238199,79.4062284 178.238199,75.743731 180.502122,73.4801273 C182.766045,71.2198622 186.437814,71.2198622 188.701736,73.4801273" id="Fill-73" fill="#0F222E"></path>
        <path d="M206.898058,167.74787 C209.161981,170.011474 209.161981,173.673971 206.898058,175.934236 C204.634135,178.19784 200.962367,178.19784 198.698444,175.934236 C196.434521,173.673971 196.434521,170.011474 198.698444,167.74787 C200.962367,165.487605 204.634135,165.487605 206.898058,167.74787" id="Fill-75" fill="#0F222E"></path>
        <polyline id="Stroke-77" stroke="#0F222E" stroke-width="4" stroke-linecap="round" stroke-linejoin="round" points="325.341016 263.694953 347.706032 263.694953 372.100887 285.008885 458.507833 285.008885"></polyline>
        <path d="M460.949659,280.407894 C464.15326,280.407894 466.748244,282.998685 466.748244,286.193772 C466.748244,289.392197 464.15326,291.986327 460.949659,291.986327 C457.746058,291.986327 455.154418,289.392197 455.154418,286.193772 C455.154418,282.998685 457.746058,280.407894 460.949659,280.407894" id="Fill-79" fill="#0F222E"></path>
        <polyline id="Stroke-81" stroke="#0F222E" stroke-width="4" stroke-linecap="round" stroke-linejoin="round" points="325.002932 245.427204 345.334765 245.427204 358.547113 230.202967 428.969492 230.202967"></polyline>
        <path d="M432.923498,224.83442 C436.1271,224.83442 438.722084,227.425211 438.722084,230.623636 C438.722084,233.818723 436.1271,236.412853 432.923498,236.412853 C429.719897,236.412853 427.124913,233.818723 427.124913,230.623636 C427.124913,227.425211 429.719897,224.83442 432.923498,224.83442" id="Fill-83" fill="#0F222E"></path>
        <polyline id="Stroke-85" stroke="#0F222E" stroke-width="4" stroke-linecap="round" stroke-linejoin="round" points="385.610521 197.023144 365.278688 197.023144 352.062997 212.25072 325.340682 212.25072"></polyline>
        <path d="M389.562186,191.702339 C392.765788,191.702339 395.360772,194.293131 395.360772,197.488217 C395.360772,200.686643 392.765788,203.280773 389.562186,203.280773 C386.358585,203.280773 383.763601,200.686643 383.763601,197.488217 C383.763601,194.293131 386.358585,191.702339 389.562186,191.702339" id="Fill-87" fill="#0F222E"></path>
        <path d="M215.266547,234.305832 L203.562367,234.305832" id="Stroke-89" stroke="#0F222E" stroke-width="4" stroke-linecap="round" stroke-linejoin="round"></path>
        <path d="M190.900296,234.305832 L83.0880772,234.305832 L63.0638971,216.961553" id="Stroke-91" stroke="#E40000" stroke-width="4" stroke-linecap="round" stroke-linejoin="round" stroke-dasharray="7.303,7.303"></path>
        <path d="M53.841672,208.972501 L45,201.313641" id="Stroke-93" stroke="#E40000" stroke-width="4" stroke-linecap="round" stroke-linejoin="round"></path>
        <path d="M226.972399,284.636626 L217.886611,292.001685" id="Stroke-95" stroke="#2F2F2F" stroke-width="4" stroke-linecap="round" stroke-linejoin="round"></path>
        <path d="M206.396785,301.320187 L189.161543,315.299108" id="Stroke-97" stroke="#0F222E" stroke-width="4" stroke-linecap="round" stroke-linejoin="round" stroke-dasharray="4.427,4.427"></path>
        <polyline id="Stroke-99" stroke="#0F222E" stroke-width="4" stroke-linecap="round" stroke-linejoin="round" points="183.416129 319.956523 174.330341 327.321581 174.330341 339.006851"></polyline>
        <path d="M174.33101,349 L174.33101,402.762257 L182.336669,412.63798" id="Stroke-101" stroke="#0F222E" stroke-width="4" stroke-linecap="round" stroke-linejoin="round" stroke-dasharray="5.688,5.688"></path>
        <path d="M185,417 L192.363601,426.087801" id="Stroke-103" stroke="#0F222E" stroke-width="4" stroke-linecap="round" stroke-linejoin="round"></path>
        <path d="M470.748399,333.640307 L487.732836,323.043437 L487.732836,296.097205 L471.049363,287.920855" id="Stroke-105" stroke="#E40000" stroke-width="4" stroke-linecap="round" stroke-linejoin="round" stroke-dasharray="4"></path>
        <path d="M99.5700579,328.97488 L130.790122,281.549378" id="Stroke-107" stroke="#0F222E" stroke-width="4" stroke-linecap="round" stroke-linejoin="round" stroke-dasharray="7"></path>
        <path d="M234.880077,111.460593 L234.880077,61.5010564" id="Stroke-109" stroke="#2F2F2F" stroke-width="4" stroke-linecap="round" stroke-linejoin="round" stroke-dasharray="7"></path>
        <path d="M255.888077,294.818836 L255.888077,366.94366" id="Stroke-111" stroke="#0F222E" stroke-width="4" stroke-linecap="round" stroke-linejoin="round" stroke-dasharray="7"></path>
        <polygon id="Stroke-113" stroke="#0F222E" stroke-width="4" stroke-linecap="round" stroke-linejoin="round" points="216.899447 209.171484 216.899447 274.472111 235.917068 293.455666 305.680669 293.455666 324.698289 274.472111 324.698289 209.171484 305.680669 190.18459 235.917068 190.18459"></polygon>
        <polygon id="Stroke-115" stroke="#0F222E" stroke-width="4" stroke-linecap="round" stroke-linejoin="round" points="232.504463 218.623198 232.504463 265.017058 246.014431 278.508537 295.583305 278.508537 309.093273 265.017058 309.093273 218.623198 295.583305 205.135058 246.014431 205.135058"></polygon>
    </g>
</svg>