<?xml version="1.0" encoding="UTF-8"?>
<svg width="500px" height="500px" viewBox="0 0 500 500" version="1.1" xmlns="http://www.w3.org/2000/svg" xmlns:xlink="http://www.w3.org/1999/xlink">
    <!-- Generator: Sketch 55.2 (78181) - https://sketchapp.com -->
    <title>Artboard Copy 9</title>
    <desc>Created with Sketch.</desc>
    <defs>
        <polygon id="path-1" points="0 0.00963981936 11.5958328 0.00963981936 11.5958328 11.5880729 0 11.5880729"></polygon>
    </defs>
    <g id="Artboard-Copy-9" stroke="none" stroke-width="1" fill="none" fill-rule="evenodd">
        <g id="Group-118" transform="translate(0.000000, 61.000000)">
            <polyline id="Stroke-1" stroke="#000000" stroke-linecap="round" stroke-linejoin="round" points="305 128 305.303919 91.546117 330 48"></polyline>
            <g id="Group-117">
                <path d="M329.316502,39.9555354 C332.520103,39.9555354 335.115087,42.5463266 335.115087,45.7447519 C335.115087,48.9398385 332.520103,51.5339685 329.316502,51.5339685 C326.1129,51.5339685 323.517916,48.9398385 323.517916,45.7447519 C323.517916,42.5463266 326.1129,39.9555354 329.316502,39.9555354" id="Fill-2" fill="#000000"></path>
                <polyline id="Stroke-4" stroke="#000000" stroke-width="1.5" stroke-linecap="round" stroke-linejoin="round" points="276.374817 128.273139 276.374817 100.191766 289.450058 79.8927829 289.450058 13.9244267"></polyline>
                <path d="M289.591177,4.06506368 C292.794778,4.06506368 295.386418,6.65585494 295.386418,9.85428023 C295.386418,13.0493669 292.794778,15.6434968 289.591177,15.6434968 C286.387576,15.6434968 283.792592,13.0493669 283.792592,9.85428023 C283.792592,6.65585494 286.387576,4.06506368 289.591177,4.06506368" id="Fill-6" fill="#000000"></path>
                <polyline id="Stroke-8" stroke="#000000" stroke-width="1.5" stroke-linecap="round" stroke-linejoin="round" points="260.619653 129.114478 260.619653 108.818834 245.370778 95.6244948 245.370778 56.0414778"></polyline>
                <path d="M245.245042,47.4805153 C248.448643,47.4805153 251.043627,50.0713065 251.043627,53.2697318 C251.043627,56.4648185 248.448643,59.0589484 245.245042,59.0589484 C242.041441,59.0589484 239.446457,56.4648185 239.446457,53.2697318 C239.446457,50.0713065 242.041441,47.4805153 245.245042,47.4805153" id="Fill-10" fill="#000000"></path>
                <polyline id="Stroke-12" stroke="#000000" stroke-width="1.5" stroke-linecap="round" stroke-linejoin="round" points="226.330084 154.995348 189.970212 154.995348 157.43928 128.610008 157.43928 90.0419406"></polyline>
                <path d="M157.112566,79.3182015 C160.316167,79.3182015 162.911151,81.9089928 162.911151,85.1074181 C162.911151,88.3058433 160.316167,90.8966346 157.112566,90.8966346 C153.908965,90.8966346 151.317325,88.3058433 151.317325,85.1074181 C151.317325,81.9089928 153.908965,79.3182015 157.112566,79.3182015" id="Fill-14" fill="#000000"></path>
                <polyline id="Stroke-16" stroke="#000000" stroke-linecap="round" stroke-linejoin="round" points="227.582431 190.514228 164.557093 190.514228 143.212013 201.682007 111.697672 201.682007"></polyline>
                <path d="M107.828605,195.672106 C111.032206,195.672106 113.62719,198.262897 113.62719,201.461322 C113.62719,204.656409 111.032206,207.250539 107.828605,207.250539 C104.625003,207.250539 102.033363,204.656409 102.033363,201.461322 C102.033363,198.262897 104.625003,195.672106 107.828605,195.672106" id="Fill-18" fill="#000000"></path>
                <polyline id="Stroke-20" stroke="#000000" stroke-width="1.5" stroke-linecap="round" stroke-linejoin="round" points="226.56517 202.694953 208.266521 202.694953 187.938032 220.964038 144.224592 220.964038"></polyline>
                <path d="M140.29901,214.197599 C143.502611,214.197599 146.097595,216.78839 146.097595,219.983477 C146.097595,223.181902 143.502611,225.776032 140.29901,225.776032 C137.095408,225.776032 134.500424,223.181902 134.500424,219.983477 C134.500424,216.78839 137.095408,214.197599 140.29901,214.197599" id="Fill-22" fill="#000000"></path>
                <polyline id="Stroke-24" stroke="#000000" stroke-width="1.5" stroke-linecap="round" stroke-linejoin="round" points="253.673723 232.80155 253.713852 271.079155 236.318096 294.639998"></polyline>
                <path d="M234.807923,293.369976 C238.011524,293.369976 240.606508,295.960767 240.606508,299.155854 C240.606508,302.354279 238.011524,304.948409 234.807923,304.948409 C231.604322,304.948409 229.009338,302.354279 229.009338,299.155854 C229.009338,295.960767 231.604322,293.369976 234.807923,293.369976" id="Fill-26" fill="#000000"></path>
                <polyline id="Stroke-28" stroke="#000000" stroke-width="1.5" stroke-linecap="round" stroke-linejoin="round" points="260.110354 365.085816 260.110354 342.760273 281.458778 318.401494 281.458778 234.247519"></polyline>
                <path d="M259.739498,363.99341 C262.9431,363.99341 265.538084,366.584201 265.538084,369.779288 C265.538084,372.977713 262.9431,375.571843 259.739498,375.571843 C256.535897,375.571843 253.940913,372.977713 253.940913,369.779288 C253.940913,366.584201 256.535897,363.99341 259.739498,363.99341" id="Fill-30" fill="#000000"></path>
                <polyline id="Stroke-32" stroke="#000000" stroke-width="1.5" stroke-linecap="round" stroke-linejoin="round" points="293.656875 232.80155 293.656875 268.67199 313.988707 288.967634 336.350379 288.967634"></polyline>
                <path d="M340.333145,284.10723 C343.536746,284.10723 346.13173,286.698021 346.13173,289.896446 C346.13173,293.091533 343.536746,295.685663 340.333145,295.685663 C337.129543,295.685663 334.534559,293.091533 334.534559,289.896446 C334.534559,286.698021 337.129543,284.10723 340.333145,284.10723" id="Fill-34" fill="#000000"></path>
                <polyline id="Stroke-36" stroke="#000000" stroke-linecap="round" stroke-linejoin="round" points="365.338624 283.611774 365.338624 247.744673 345.006791 227.44569 322.645119 227.44569"></polyline>
                <path d="M364.190611,291.964739 C360.98701,291.964739 358.392026,289.373948 358.392026,286.178861 C358.392026,282.980436 360.98701,280.386306 364.190611,280.386306 C367.394212,280.386306 369.989196,282.980436 369.989196,286.178861 C369.989196,289.373948 367.394212,291.964739 364.190611,291.964739" id="Fill-38" fill="#000000"></path>
                <polyline id="Stroke-40" stroke="#000000" stroke-width="1.5" stroke-linecap="round" stroke-linejoin="round" points="469.061068 273.321726 433.132579 273.321726 412.80409 293.620709 412.80409 315.94959"></polyline>
                <path d="M477.429556,274.469553 C477.429556,277.667978 474.834572,280.255431 471.630971,280.255431 C468.430714,280.255431 465.832386,277.667978 465.832386,274.469553 C465.832386,271.271128 468.430714,268.683675 471.630971,268.683675 C474.834572,268.683675 477.429556,271.271128 477.429556,274.469553" id="Fill-42" fill="#000000"></path>
                <path d="M418.980553,319.456506 C418.980553,322.651593 416.385569,325.242384 413.181968,325.242384 C409.981711,325.242384 407.383383,322.651593 407.383383,319.456506 C407.383383,316.258081 409.981711,313.66729 413.181968,313.66729 C416.385569,313.66729 418.980553,316.258081 418.980553,319.456506" id="Fill-44" fill="#000000"></path>
                <polyline id="Stroke-46" stroke="#000000" stroke-width="1.5" stroke-linecap="round" stroke-linejoin="round" points="108.001492 266.827053 72.0730032 266.827053 51.7445145 287.126036 51.7445145 309.454917"></polyline>
                <path d="M116.368309,267.97488 C116.368309,271.169967 113.773325,273.760758 110.569723,273.760758 C107.369466,273.760758 104.774482,271.169967 104.774482,267.97488 C104.774482,264.776455 107.369466,262.185663 110.569723,262.185663 C113.773325,262.185663 116.368309,264.776455 116.368309,267.97488" id="Fill-48" fill="#000000"></path>
                <path d="M57.9209775,312.961833 C57.9209775,316.15692 55.3259936,318.747711 52.1223923,318.747711 C48.922135,318.747711 46.3238071,316.15692 46.3238071,312.961833 C46.3238071,309.763408 48.922135,307.172617 52.1223923,307.172617 C55.3259936,307.172617 57.9209775,309.763408 57.9209775,312.961833" id="Fill-50" fill="#000000"></path>
                <path d="M338.906238,357.688038 C342.109839,357.688038 344.704823,360.27883 344.704823,363.473916 C344.704823,366.672342 342.109839,369.266472 338.906238,369.266472 C335.702637,369.266472 333.107653,366.672342 333.107653,363.473916 C333.107653,360.27883 335.702637,357.688038 338.906238,357.688038" id="Fill-52" fill="#000000"></path>
                <g id="Group-56" transform="translate(0.000000, 180.892953)">
                    <mask id="mask-2" fill="white">
                        <use xlink:href="#path-1"></use>
                    </mask>
                    <g id="Clip-55"></g>
                    <path d="M5.79724759,0.00963981936 C9.00084887,0.00963981936 11.5958328,2.60043108 11.5958328,5.79885637 C11.5958328,8.99394301 9.00084887,11.5880729 5.79724759,11.5880729 C2.5936463,11.5880729 -0.00133762058,8.99394301 -0.00133762058,5.79885637 C-0.00133762058,2.60043108 2.5936463,0.00963981936 5.79724759,0.00963981936" id="Fill-54" fill="#000000" mask="url(#mask-2)"></path>
                </g>
                <path d="M95.3111511,87.6290993 C98.5147524,87.6290993 101.109736,90.2165519 101.109736,93.4149772 C101.109736,96.6134025 98.5147524,99.2041937 95.3111511,99.2041937 C92.1075498,99.2041937 89.5125659,96.6134025 89.5125659,93.4149772 C89.5125659,90.2165519 92.1075498,87.6290993 95.3111511,87.6290993" id="Fill-57" fill="#000000"></path>
                <polyline id="Stroke-59" stroke="#000000" stroke-width="1.5" stroke-linecap="round" stroke-linejoin="round" points="450.807563 114.266507 428.445891 114.266507 376.512772 61.9031431"></polyline>
                <path d="M374.689595,54.2883535 C377.893196,54.2883535 380.48818,56.8791447 380.48818,60.0742314 C380.48818,63.2726567 377.893196,65.8667866 374.689595,65.8667866 C371.485994,65.8667866 368.89101,63.2726567 368.89101,60.0742314 C368.89101,56.8791447 371.485994,54.2883535 374.689595,54.2883535" id="Fill-61" fill="#000000"></path>
                <path d="M454.321492,108.101024 C457.525093,108.101024 460.120077,110.691816 460.120077,113.886902 C460.120077,117.085328 457.525093,119.679457 454.321492,119.679457 C451.117891,119.679457 448.522907,117.085328 448.522907,113.886902 C448.522907,110.691816 451.117891,108.101024 454.321492,108.101024" id="Fill-63" fill="#000000"></path>
                <polyline id="Stroke-65" stroke="#000000" stroke-width="1.5" stroke-linecap="round" stroke-linejoin="round" points="62.2575434 207.011826 62.2575434 250.851619 41.7952926 269.541374"></polyline>
                <path d="M34.1678457,271.362273 C34.1678457,268.163848 36.7628296,265.573056 39.9664309,265.573056 C43.1666881,265.573056 45.7650161,268.163848 45.7650161,271.362273 C45.7650161,274.557359 43.1666881,277.148151 39.9664309,277.148151 C36.7628296,277.148151 34.1678457,274.557359 34.1678457,271.362273" id="Fill-67" fill="#000000"></path>
                <path d="M56.080746,203.503574 C56.080746,200.308487 58.6757299,197.717696 61.8793312,197.717696 C65.0795884,197.717696 67.6779164,200.308487 67.6779164,203.503574 C67.6779164,206.701999 65.0795884,209.29279 61.8793312,209.29279 C58.6757299,209.29279 56.080746,206.701999 56.080746,203.503574" id="Fill-69" fill="#000000"></path>
                <polyline id="Stroke-71" stroke="#000000" stroke-width="1.5" stroke-linecap="round" stroke-linejoin="round" points="211.046765 108.629199 195.232746 92.8407296 195.597248 19.153418"></polyline>
                <path d="M199.701736,12.4801273 C201.965659,14.743731 201.965659,18.4062284 199.701736,20.6664935 C197.437814,22.9267585 193.766045,22.9267585 191.502122,20.6664935 C189.238199,18.4062284 189.238199,14.743731 191.502122,12.4801273 C193.766045,10.2198622 197.437814,10.2198622 199.701736,12.4801273" id="Fill-73" fill="#000000"></path>
                <path d="M217.898058,106.74787 C220.161981,109.011474 220.161981,112.673971 217.898058,114.934236 C215.634135,117.19784 211.962367,117.19784 209.698444,114.934236 C207.434521,112.673971 207.434521,109.011474 209.698444,106.74787 C211.962367,104.487605 215.634135,104.487605 217.898058,106.74787" id="Fill-75" fill="#000000"></path>
                <polyline id="Stroke-77" stroke="#000000" stroke-width="1.5" stroke-linecap="round" stroke-linejoin="round" points="336.341016 202.694953 358.706032 202.694953 383.100887 224.008885 469.507833 224.008885"></polyline>
                <path d="M471.949659,219.407894 C475.15326,219.407894 477.748244,221.998685 477.748244,225.193772 C477.748244,228.392197 475.15326,230.986327 471.949659,230.986327 C468.746058,230.986327 466.154418,228.392197 466.154418,225.193772 C466.154418,221.998685 468.746058,219.407894 471.949659,219.407894" id="Fill-79" fill="#000000"></path>
                <polyline id="Stroke-81" stroke="#000000" stroke-width="1.5" stroke-linecap="round" stroke-linejoin="round" points="336.002932 184.427204 356.334765 184.427204 369.547113 169.202967 439.969492 169.202967"></polyline>
                <path d="M443.923498,163.83442 C447.1271,163.83442 449.722084,166.425211 449.722084,169.623636 C449.722084,172.818723 447.1271,175.412853 443.923498,175.412853 C440.719897,175.412853 438.124913,172.818723 438.124913,169.623636 C438.124913,166.425211 440.719897,163.83442 443.923498,163.83442" id="Fill-83" fill="#000000"></path>
                <polyline id="Stroke-85" stroke="#000000" stroke-width="1.5" stroke-linecap="round" stroke-linejoin="round" points="396.610521 136.023144 376.278688 136.023144 363.062997 151.25072 336.340682 151.25072"></polyline>
                <path d="M400.562186,130.702339 C403.765788,130.702339 406.360772,133.293131 406.360772,136.488217 C406.360772,139.686643 403.765788,142.280773 400.562186,142.280773 C397.358585,142.280773 394.763601,139.686643 394.763601,136.488217 C394.763601,133.293131 397.358585,130.702339 400.562186,130.702339" id="Fill-87" fill="#000000"></path>
                <path d="M226.266547,173.305832 L214.562367,173.305832" id="Stroke-89" stroke="#E40000" stroke-width="1.5" stroke-linecap="round" stroke-linejoin="round"></path>
                <path d="M190.139756,173.305832 L82.327537,173.305832 L62.3033569,155.961553" id="Stroke-91" stroke="#E40000" stroke-width="1.5" stroke-linecap="round" stroke-linejoin="round" stroke-dasharray="7.303,7.303"></path>
                <path d="M53.0811318,147.972501 L44.2394598,140.313641" id="Stroke-93" stroke="#E40000" stroke-width="1.5" stroke-linecap="round" stroke-linejoin="round"></path>
                <path d="M237.972399,223.636626 L228.886611,231.001685" id="Stroke-95" stroke="#000000" stroke-width="1.5" stroke-linecap="round" stroke-linejoin="round"></path>
                <path d="M217.396785,240.320187 L200.161543,254.299108" id="Stroke-97" stroke="#000000" stroke-width="1.5" stroke-linecap="round" stroke-linejoin="round" stroke-dasharray="4.427,4.427"></path>
                <polyline id="Stroke-99" stroke="#000000" stroke-width="1.5" stroke-linecap="round" stroke-linejoin="round" points="194.416129 258.956523 185.330341 266.321581 185.330341 278.006851"></polyline>
                <path d="M185.33101,296.998753 L185.33101,350.761011 L193.336669,360.636733" id="Stroke-101" stroke="#000000" stroke-width="1.5" stroke-linecap="round" stroke-linejoin="round" stroke-dasharray="5.688,5.688"></path>
                <path d="M199.316502,368.016815 L206.680103,377.104617" id="Stroke-103" stroke="#000000" stroke-width="1.5" stroke-linecap="round" stroke-linejoin="round"></path>
                <path d="M481.748399,272.640307 L498.732836,262.043437 L498.732836,235.097205 L482.049363,226.920855" id="Stroke-105" stroke="#E40000" stroke-linecap="round" stroke-linejoin="round" stroke-dasharray="4"></path>
                <path d="M110.570058,267.97488 L141.790122,220.549378" id="Stroke-107" stroke="#000000" stroke-width="1.5" stroke-linecap="round" stroke-linejoin="round" stroke-dasharray="7"></path>
                <path d="M245.880077,50.460593 L245.880077,0.501056378" id="Stroke-109" stroke="#000000" stroke-width="1.5" stroke-linecap="round" stroke-linejoin="round" stroke-dasharray="7"></path>
                <path d="M266.888077,233.818836 L266.888077,305.94366" id="Stroke-111" stroke="#000000" stroke-width="1.5" stroke-linecap="round" stroke-linejoin="round" stroke-dasharray="7"></path>
                <polygon id="Stroke-113" stroke="#000000" stroke-width="1.5" stroke-linecap="round" stroke-linejoin="round" points="227.899447 148.171484 227.899447 213.472111 246.917068 232.455666 316.680669 232.455666 335.698289 213.472111 335.698289 148.171484 316.680669 129.18459 246.917068 129.18459"></polygon>
                <polygon id="Stroke-115" stroke="#000000" stroke-linecap="round" stroke-linejoin="round" points="243.504463 157.623198 243.504463 204.017058 257.014431 217.508537 306.583305 217.508537 320.093273 204.017058 320.093273 157.623198 306.583305 144.135058 257.014431 144.135058"></polygon>
            </g>
        </g>
    </g>
</svg>