<?xml version="1.0" encoding="UTF-8"?>
<svg width="500px" height="500px" viewBox="0 0 500 500" version="1.1" xmlns="http://www.w3.org/2000/svg" xmlns:xlink="http://www.w3.org/1999/xlink">
    <!-- Generator: Sketch 55.2 (78181) - https://sketchapp.com -->
    <title>Artboard Copy 3</title>
    <desc>Created with Sketch.</desc>
    <g id="Artboard-Copy-3" stroke="none" stroke-width="1" fill="none" fill-rule="evenodd">
        <g id="Group-37" transform="translate(0.000000, 60.000000)">
            <path d="M363.901747,100 L410.270742,100 C413.436681,100 416,102.562655 416,105.722899 L416,326 L68,326 L68,105.722899 C68,102.562655 70.5633188,100 73.7292576,100 L188.30131,100" id="Stroke-1" stroke="#231F20" stroke-width="2" stroke-linecap="round" stroke-linejoin="round"></path>
            <path d="M472.240237,348 L27.759763,348 C17.0524259,348 7.34636823,341.911603 2.98192877,332.459124 L0,326 L500,326 L497.01588,332.459124 C492.651441,341.911603 482.947574,348 472.240237,348 Z" id="Stroke-5" stroke="#231F20" stroke-width="2" fill="#231F20" stroke-linecap="round" stroke-linejoin="round"></path>
            <path d="M154.97914,0 L241.3002,0 C262.279341,0 261.718729,1.47034568 279.277262,12.9741547 L304.185064,27.8443969 C309.175822,31.1142701 306.307067,36.690611 306.307067,42.6685537 L311,97.3149383 L306.307067,139.287821 C306.307067,149.071106 304.27266,157 294.510133,157 C284.6622,157 276.710712,148.974546 276.837725,139.105674 C276.984448,127.362659 281.839433,111.61021 281.850382,96.82336 C281.859142,82.0387051 277.026056,68.2152612 276.579319,65.524748 C275.287284,57.7406941 251.439388,46.710907 250.793371,48.0078836 C250.145164,49.3070547 258.560909,72.0118254 263.09179,94.7187906 C267.622671,117.425756 245.614283,116.778365 239.786987,112.883046 C233.959691,108.992116 233.959691,77.2041207 208.064249,71.3644344 C191.449558,67.6183447 156.921572,41.5208063 156.921572,41.5208063 C156.921572,41.5208063 144.305619,44.4044394 134,45.5521869" id="Stroke-7" stroke="#EC1C24" stroke-width="2" stroke-linecap="round" stroke-linejoin="round"></path>
            <path d="M266,76 C264.91766,74.5927086 261.473656,62.2406154 250,64.212738" id="Stroke-9" stroke="#EC1C24" stroke-width="2" stroke-linecap="round" stroke-linejoin="round"></path>
            <path d="M216.279238,58.6786751 L137.980518,203.37064 C135.765716,207.610913 137.427914,212.850819 141.708402,215.05698 L296.952839,295.025436 C301.233327,297.231597 306.507186,295.563365 308.719795,291.320914 L387.018515,146.631127 C389.23551,142.390854 387.571119,137.14877 383.290631,134.944787 L228.046194,54.9741531 C223.765706,52.7679916 218.496232,54.4384021 216.279238,58.6786751" id="Fill-11" fill="#FFFFFF"></path>
            <path d="M216.279238,58.6786751 L137.980518,203.37064 C135.765716,207.610913 137.427914,212.850819 141.708402,215.05698 L296.952839,295.025436 C301.233327,297.231597 306.507186,295.563365 308.719795,291.320914 L387.018515,146.631127 C389.23551,142.390854 387.571119,137.14877 383.290631,134.944787 L228.046194,54.9741531 C223.765706,52.7679916 218.496232,54.4384021 216.279238,58.6786751 Z" id="Stroke-13" stroke="#0F222E" stroke-width="2" stroke-linecap="round" stroke-linejoin="round"></path>
            <path d="M244.628332,85.8383944 C241.778052,89.9072749 242.765897,95.5198131 246.838925,98.3722242 C250.907758,101.222538 256.520231,100.232583 259.370511,96.1616056 C262.222889,92.0906278 261.232946,86.4801869 257.164113,83.6277758 C253.091085,80.7774622 247.478613,81.7674166 244.628332,85.8383944 Z" id="Stroke-15" stroke="#0F222E" stroke-width="2" stroke-linecap="round" stroke-linejoin="round"></path>
            <path d="M232.628153,76.8379472 C229.778186,80.9084508 230.765923,86.518238 234.838503,89.3724138 C238.908987,92.2223954 244.520843,91.2325563 247.370811,87.1620528 C250.222875,83.0894521 249.233041,77.4796649 245.162558,74.6275862 C241.089977,71.7776046 235.478121,72.7674437 232.628153,76.8379472 Z" id="Stroke-17" stroke="#0F222E" stroke-width="2" stroke-linecap="round" stroke-linejoin="round"></path>
            <polygon id="Fill-19" fill="#FFFFFF" points="226 114.561883 325.404669 166 336 146.438117 236.595331 95"></polygon>
            <polygon id="Stroke-21" stroke="#0F222E" stroke-width="2" stroke-linecap="round" stroke-linejoin="round" points="226 114.561883 325.404669 166 336 146.438117 236.595331 95"></polygon>
            <polygon id="Fill-23" fill="#FFFFFF" points="211 147.561883 310.402681 199 321 179.440268 221.595119 128"></polygon>
            <polygon id="Stroke-25" stroke="#0F222E" stroke-width="2" stroke-linecap="round" stroke-linejoin="round" points="211 147.561883 310.402681 199 321 179.440268 221.595119 128"></polygon>
            <polygon id="Fill-27" fill="#FFFFFF" points="193 178.559732 292.404669 230 303 210.438117 203.595331 159"></polygon>
            <polygon id="Stroke-29" stroke="#0F222E" stroke-width="2" stroke-linecap="round" stroke-linejoin="round" points="193 178.559732 292.404669 230 303 210.438117 203.595331 159"></polygon>
            <path d="M185.966132,216.107582 L264.546672,257.696809 C270.015663,260.590181 276.797996,258.504514 279.694754,253.035628 C282.591511,247.566742 280.504975,240.789415 275.035984,237.893866 L196.453266,196.304639 C190.984275,193.40909 184.201942,195.494756 181.305184,200.963643 C178.408426,206.432529 180.494963,213.212033 185.966132,216.107582 Z" id="Stroke-31" stroke="#EC1C24" stroke-width="2" stroke-linecap="round" stroke-linejoin="round"></path>
            <path d="M250.161062,46.8024247 C249.516364,48.0846015 257.886547,70.5324582 262.392899,92.9803149 C266.901428,115.428172 245.010013,114.785998 239.214266,110.937299 C233.418519,107.090768 233.418519,75.6633349 207.663272,69.8924545 C191.138532,66.1891114 156.797477,40.3872017 156.797477,40.3872017 C156.797477,40.3872017 144.249826,43.2400993 134,44.3747499 L157.548899,2 L238.974682,2.42305326 L250.161062,46.8024247 Z" id="Fill-33" fill="#FFFFFF"></path>
            <path d="M277,65.8574246 C275.701957,58.1187025 251.785894,47.158421 251.137971,48.447481 C250.487851,49.736541 258.92623,72.3049056 263.472676,94.8732702 C268.016926,117.439454 245.941405,116.796014 240.096916,112.926653 C234.254623,109.059473 234.254623,77.4633266 208.282776,71.659285 C191.619064,67.9360611 156.987006,42 156.987006,42 C156.987006,42 144.336026,44.8660318 134,46.0045924" id="Stroke-35" stroke="#EC1C24" stroke-width="2" stroke-linecap="round" stroke-linejoin="round"></path>
        </g>
    </g>
</svg>