<?xml version="1.0" encoding="UTF-8"?>
<svg width="500px" height="500px" viewBox="0 0 500 500" version="1.1" xmlns="http://www.w3.org/2000/svg" xmlns:xlink="http://www.w3.org/1999/xlink">
    <!-- Generator: Sketch 55.2 (78181) - https://sketchapp.com -->
    <title>Artboard Copy 4</title>
    <desc>Created with Sketch.</desc>
    <g id="Artboard-Copy-4" stroke="none" stroke-width="1" fill="none" fill-rule="evenodd">
        <g id="Group-115" transform="translate(6.000000, 36.000000)">
            <polygon id="Fill-1" fill="#EEEEEE" points="0 75 488 75 488 0 0 0"></polygon>
            <g id="Group-114" transform="translate(0.000000, 1.000000)">
                <polygon id="Stroke-2" stroke="#0F222E" stroke-width="2" stroke-linecap="round" stroke-linejoin="round" points="487.626481 317.343629 487.626481 426.997845 0.000920754717 426.997845 0.000920754717 0.288002878 487.626481 0.288002878 487.626481 273.995542"></polygon>
                <path d="M85.1676629,38.1044201 C85.1676629,43.5175424 80.794078,47.9083914 75.3984553,47.9083914 C70.0028327,47.9083914 65.6292478,43.5175424 65.6292478,38.1044201 C65.6292478,32.6882187 70.0028327,28.3004489 75.3984553,28.3004489 C80.794078,28.3004489 85.1676629,32.6882187 85.1676629,38.1044201" id="Fill-4" fill="#8A8A8A"></path>
                <path d="M116.288252,38.1044201 C116.288252,43.5175424 111.911597,47.9083914 106.515975,47.9083914 C101.123421,47.9083914 96.7467673,43.5175424 96.7467673,38.1044201 C96.7467673,32.6882187 101.123421,28.3004489 106.515975,28.3004489 C111.911597,28.3004489 116.288252,32.6882187 116.288252,38.1044201" id="Fill-6" fill="#8A8A8A"></path>
                <path d="M50.7412579,38.1044201 C50.7412579,43.5175424 46.3646038,47.9083914 40.9689811,47.9083914 C35.5764277,47.9083914 31.1997736,43.5175424 31.1997736,38.1044201 C31.1997736,32.6882187 35.5764277,28.3004489 40.9689811,28.3004489 C46.3646038,28.3004489 50.7412579,32.6882187 50.7412579,38.1044201" id="Fill-8" fill="#8A8A8A"></path>
                <path d="M433.514033,397.33806 L54.1139824,397.33806 C43.9549887,397.33806 35.7203723,389.076737 35.7203723,378.887873 L35.7203723,117.07196 C35.7203723,106.883096 43.9549887,98.6186935 54.1139824,98.6186935 L433.514033,98.6186935 C443.673026,98.6186935 451.904574,106.883096 451.904574,117.07196 L451.904574,378.887873 C451.904574,389.076737 443.673026,397.33806 433.514033,397.33806" id="Fill-12" fill="#282525"></path>
                <path d="M433.514033,397.33806 L54.1139824,397.33806 C43.9549887,397.33806 35.7203723,389.076737 35.7203723,378.887873 L35.7203723,117.07196 C35.7203723,106.883096 43.9549887,98.6186935 54.1139824,98.6186935 L433.514033,98.6186935 C443.673026,98.6186935 451.904574,106.883096 451.904574,117.07196 L451.904574,378.887873 C451.904574,389.076737 443.673026,397.33806 433.514033,397.33806 Z" id="Stroke-14" stroke="#FFFFFF" stroke-width="1.96" stroke-linecap="round" stroke-linejoin="round"></path>
                <polyline id="Stroke-16" stroke="#FFFFFF" stroke-width="0.75" stroke-linecap="round" stroke-linejoin="round" points="135.371814 144.46396 151.973021 161.122089 135.19687 177.95265"></polyline>
                <polyline id="Stroke-18" stroke="#FFFFFF" stroke-width="0.75" stroke-linecap="round" stroke-linejoin="round" points="91.5549384 177.952342 74.7787874 161.121781 91.5549384 144.29122"></polyline>
                <path d="M122.108956,144.46396 L106.517509,177.924938" id="Stroke-20" stroke="#FFFFFF" stroke-width="0.75" stroke-linecap="round" stroke-linejoin="round"></path>
                <polyline id="Stroke-22" stroke="#FFFFFF" stroke-width="0.75" stroke-linecap="round" stroke-linejoin="round" points="375.235477 225.898504 391.836684 242.553554 375.060533 259.387194"></polyline>
                <polyline id="Stroke-24" stroke="#FFFFFF" stroke-width="0.75" stroke-linecap="round" stroke-linejoin="round" points="329.998184 259.387194 313.222033 242.553554 329.998184 225.722993"></polyline>
                <path d="M360.554964,225.898504 L344.963517,259.359482" id="Stroke-26" stroke="#FFFFFF" stroke-width="0.75" stroke-linecap="round" stroke-linejoin="round"></path>
                <path d="M178.553062,160.85482 L216.316282,160.85482" id="Stroke-28" stroke="#FFFFFF" stroke-width="0.75" stroke-linecap="round" stroke-linejoin="round"></path>
                <path d="M238.192186,160.85482 L278.38313,160.85482" id="Stroke-30" stroke="#FFFFFF" stroke-width="0.75" stroke-linecap="round" stroke-linejoin="round"></path>
                <path d="M164.001454,244.15686 L197.605932,244.15686" id="Stroke-32" stroke="#FFFFFF" stroke-width="0.75" stroke-linecap="round" stroke-linejoin="round"></path>
                <path d="M219.399582,244.15686 L286.034601,244.15686" id="Stroke-34" stroke="#FFFFFF" stroke-width="0.75" stroke-linecap="round" stroke-linejoin="round"></path>
                <path d="M178.553062,181.410521 L203.864609,181.410521" id="Stroke-36" stroke="#FFFFFF" stroke-width="0.75" stroke-linecap="round" stroke-linejoin="round"></path>
                <path d="M225.666853,181.410521 L242.952488,181.410521" id="Stroke-38" stroke="#FFFFFF" stroke-width="0.75" stroke-linecap="round" stroke-linejoin="round"></path>
                <path d="M313.770803,181.410521 L336.501167,181.410521" id="Stroke-40" stroke="#FFFFFF" stroke-width="0.75" stroke-linecap="round" stroke-linejoin="round"></path>
                <path d="M264.235426,181.410521 L296.91915,181.410521" id="Stroke-42" stroke="#FFFFFF" stroke-width="0.75" stroke-linecap="round" stroke-linejoin="round"></path>
                <path d="M124.341786,202.269824 L141.627421,202.269824" id="Stroke-44" stroke="#FFFFFF" stroke-width="0.75" stroke-linecap="round" stroke-linejoin="round"></path>
                <path d="M305.603401,202.269824 L322.889036,202.269824" id="Stroke-46" stroke="#FFFFFF" stroke-width="0.75" stroke-linecap="round" stroke-linejoin="round"></path>
                <path d="M159.10396,202.269824 L184.185318,202.269824" id="Stroke-48" stroke="#FFFFFF" stroke-width="0.75" stroke-linecap="round" stroke-linejoin="round"></path>
                <path d="M210.758606,202.269824 L228.044242,202.269824" id="Stroke-50" stroke="#FFFFFF" stroke-width="0.75" stroke-linecap="round" stroke-linejoin="round"></path>
                <path d="M251.173293,202.269824 L286.39523,202.269824" id="Stroke-52" stroke="#FFFFFF" stroke-width="0.75" stroke-linecap="round" stroke-linejoin="round"></path>
                <path d="M164.502038,223.213496 L203.864302,223.213496" id="Stroke-54" stroke="#FFFFFF" stroke-width="0.75" stroke-linecap="round" stroke-linejoin="round"></path>
                <path d="M234.071195,223.213496 L270.76634,223.213496" id="Stroke-56" stroke="#FFFFFF" stroke-width="0.75" stroke-linecap="round" stroke-linejoin="round"></path>
                <polyline id="Stroke-58" stroke="#FFFFFF" stroke-width="0.75" stroke-linecap="round" stroke-linejoin="round" points="135.371814 295.362596 151.973021 312.020725 135.19687 328.851286"></polyline>
                <polyline id="Stroke-60" stroke="#FFFFFF" stroke-width="0.75" stroke-linecap="round" stroke-linejoin="round" points="91.5549384 328.851286 74.7787874 312.020725 91.5549384 295.190164"></polyline>
                <path d="M122.108956,295.362596 L106.517509,328.823574" id="Stroke-62" stroke="#FFFFFF" stroke-width="0.75" stroke-linecap="round" stroke-linejoin="round"></path>
                <polyline id="Stroke-64" stroke="#FFFFFF" stroke-width="0.75" stroke-linecap="round" stroke-linejoin="round" points="375.235477 376.797447 391.836684 393.452498 375.060533 410.283059"></polyline>
                <polyline id="Stroke-66" stroke="#FFFFFF" stroke-width="0.75" stroke-linecap="round" stroke-linejoin="round" points="329.998184 410.283059 313.222033 393.452498 329.998184 376.621937"></polyline>
                <path d="M360.554964,376.797447 L344.963517,410.258426" id="Stroke-68" stroke="#FFFFFF" stroke-width="0.75" stroke-linecap="round" stroke-linejoin="round"></path>
                <path d="M178.553062,311.750685 L216.316282,311.750685" id="Stroke-70" stroke="#FFFFFF" stroke-width="0.75" stroke-linecap="round" stroke-linejoin="round"></path>
                <path d="M238.192186,311.750685 L278.38313,311.750685" id="Stroke-72" stroke="#FFFFFF" stroke-width="0.75" stroke-linecap="round" stroke-linejoin="round"></path>
                <path d="M164.001454,395.055496 L197.605932,395.055496" id="Stroke-74" stroke="#FFFFFF" stroke-width="0.75" stroke-linecap="round" stroke-linejoin="round"></path>
                <path d="M219.399582,395.055496 L286.034601,395.055496" id="Stroke-76" stroke="#FFFFFF" stroke-width="0.75" stroke-linecap="round" stroke-linejoin="round"></path>
                <path d="M178.553062,332.309157 L203.864609,332.309157" id="Stroke-78" stroke="#FFFFFF" stroke-width="0.75" stroke-linecap="round" stroke-linejoin="round"></path>
                <path d="M225.666853,332.309157 L242.952488,332.309157" id="Stroke-80" stroke="#FFFFFF" stroke-width="0.75" stroke-linecap="round" stroke-linejoin="round"></path>
                <path d="M313.770803,332.309157 L336.501167,332.309157" id="Stroke-82" stroke="#FFFFFF" stroke-width="0.75" stroke-linecap="round" stroke-linejoin="round"></path>
                <path d="M264.235426,332.309157 L296.91915,332.309157" id="Stroke-84" stroke="#FFFFFF" stroke-width="0.75" stroke-linecap="round" stroke-linejoin="round"></path>
                <path d="M124.341786,353.16846 L141.627421,353.16846" id="Stroke-86" stroke="#FFFFFF" stroke-width="0.75" stroke-linecap="round" stroke-linejoin="round"></path>
                <path d="M305.603401,353.16846 L322.889036,353.16846" id="Stroke-88" stroke="#FFFFFF" stroke-width="0.75" stroke-linecap="round" stroke-linejoin="round"></path>
                <path d="M159.10396,353.16846 L184.185318,353.16846" id="Stroke-90" stroke="#FFFFFF" stroke-width="0.75" stroke-linecap="round" stroke-linejoin="round"></path>
                <path d="M210.758606,353.16846 L228.044242,353.16846" id="Stroke-92" stroke="#FFFFFF" stroke-width="0.75" stroke-linecap="round" stroke-linejoin="round"></path>
                <path d="M251.173293,353.16846 L286.39523,353.16846" id="Stroke-94" stroke="#FFFFFF" stroke-width="0.75" stroke-linecap="round" stroke-linejoin="round"></path>
                <path d="M164.502038,374.112132 L203.864302,374.112132" id="Stroke-96" stroke="#FFFFFF" stroke-width="0.75" stroke-linecap="round" stroke-linejoin="round"></path>
                <path d="M234.071195,374.112132 L270.76634,374.112132" id="Stroke-98" stroke="#FFFFFF" stroke-width="0.75" stroke-linecap="round" stroke-linejoin="round"></path>
                <polygon id="Fill-100" fill="#EC1C24" points="209.247955 237.854176 203.895301 244.240305 198.162068 237.854176 198.162068 175.523212 203.701942 169.137082 209.247955 175.523212"></polygon>
                <polygon id="Fill-102" fill="#EC1C24" points="209.247955 315.404081 203.895301 321.79021 198.162068 315.404081 198.162068 253.073117 203.701942 246.686987 209.247955 253.073117"></polygon>
                <polygon id="Fill-104" fill="#EC1C24" points="287.71283 237.854176 282.360176 244.240305 276.626943 237.854176 276.626943 175.523212 282.166818 169.137082 287.71283 175.523212"></polygon>
                <polygon id="Fill-106" fill="#EC1C24" points="287.71283 315.404081 282.360176 321.79021 276.626943 315.404081 276.626943 253.073117 282.166818 246.686987 287.71283 253.073117"></polygon>
                <polygon id="Fill-108" fill="#EC1C24" points="274.294058 160.012984 280.659542 165.379919 274.294058 171.131747 212.164599 171.131747 205.799114 165.573905 212.164599 160.012984"></polygon>
                <polygon id="Fill-110" fill="#EC1C24" points="274.875668 318.038282 281.244221 323.405217 274.875668 329.157045 212.746209 329.157045 206.380725 323.599203 212.746209 318.038282"></polygon>
                <path d="M326.146667,145.314725 L150.239547,321.789286" id="Stroke-112" stroke="#EC1C24" stroke-width="1.573"></path>
            </g>
        </g>
    </g>
</svg>