<?xml version="1.0" encoding="UTF-8"?>
<svg width="500px" height="500px" viewBox="0 0 500 500" version="1.1" xmlns="http://www.w3.org/2000/svg" xmlns:xlink="http://www.w3.org/1999/xlink">
    <!-- Generator: Sketch 55.2 (78181) - https://sketchapp.com -->
    <title>stop-supply-chain-attacks</title>
    <desc>Created with Sketch.</desc>
    <g id="stop-supply-chain-attacks" stroke="none" stroke-width="1" fill="none" fill-rule="evenodd">
        <path d="M239,286 L282.668925,286 C355.83578,286 365.209971,311.102432 392,314" id="Stroke-1" stroke="#0F222E" stroke-width="4" stroke-linecap="round" stroke-linejoin="round"></path>
        <path d="M483.992124,331 L483.992124,350.498463 C484.009845,350.515673 483.992124,350.532883 483.992124,350.532883 C483.265594,355.2311 466.750315,359 446.513782,359 C425.798803,359 409,355.057283 409,350.2059 C409,349.999385 409.035441,349.79287 409.106322,349.586355 L409.106322,331 L483.992124,331 Z" id="Fill-3" fill="#FFFFFF"></path>
        <path d="M483.992124,331 L483.992124,350.498463 C484.009845,350.515673 483.992124,350.532883 483.992124,350.532883 C483.265594,355.2311 466.750315,359 446.513782,359 C425.798803,359 409,355.057283 409,350.2059 C409,349.999385 409.035441,349.79287 409.106322,349.586355 L409.106322,331 L483.992124,331 Z" id="Stroke-5" stroke="#0F222E" stroke-width="4" stroke-linecap="round" stroke-linejoin="round"></path>
        <path d="M484.02,351.001 C484.02,351.121 484.02,351.239 483.98,351.341 L483.98,350.659 C484.02,350.761 484.02,350.879 484.02,351.001 Z" id="Stroke-7" stroke="#0F222E" stroke-width="2" stroke-linecap="round" stroke-linejoin="round"></path>
        <path d="M485,330.000879 C485,334.9707 467.986655,339 447.000898,339 C426.013345,339 409,334.9707 409,330.000879 C409,325.031058 426.013345,321 447.000898,321 C467.986655,321 485,325.031058 485,330.000879" id="Fill-9" fill="#FFFFFF"></path>
        <path d="M485,330.000879 C485,334.9707 467.986655,339 447.000898,339 C426.013345,339 409,334.9707 409,330.000879 C409,325.031058 426.013345,321 447.000898,321 C467.986655,321 485,325.031058 485,330.000879 Z" id="Stroke-11" stroke="#0F222E" stroke-width="4" stroke-linecap="round" stroke-linejoin="round"></path>
        <polygon id="Fill-13" fill="#EEEEEE" points="18 158 301 158 301 115 18 115"></polygon>
        <path d="M72.1997736,136.800449 C72.1997736,140.389331 69.289783,143.300449 65.6997736,143.300449 C62.1097642,143.300449 59.1997736,140.389331 59.1997736,136.800449 C59.1997736,133.209526 62.1097642,130.300449 65.6997736,130.300449 C69.289783,130.300449 72.1997736,133.209526 72.1997736,136.800449" id="Fill-4" fill="#8A8A8A"></path>
        <path d="M85.6987527,143.300449 C82.1113489,143.300449 79.1997736,140.389331 79.1997736,136.800449 C79.1997736,133.209526 82.1113489,130.300449 85.6987527,130.300449 C89.2881983,130.300449 92.1997736,133.209526 92.1997736,136.800449 C92.1997736,140.389331 89.2881983,143.300449 85.6987527,143.300449 Z" id="Fill-6" fill="#8A8A8A"></path>
        <path d="M49.1997736,136.800449 C49.1997736,140.389331 46.2881983,143.300449 42.6987527,143.300449 C39.1113489,143.300449 36.1997736,140.389331 36.1997736,136.800449 C36.1997736,133.209526 39.1113489,130.300449 42.6987527,130.300449 C46.2881983,130.300449 49.1997736,133.209526 49.1997736,136.800449" id="Fill-8" fill="#8A8A8A"></path>
        <polyline id="Stroke-15" stroke="#0F222E" stroke-width="4" stroke-linecap="round" stroke-linejoin="round" points="301 298.269936 301 362 18 362 18 114 301 114 301 273.07641"></polyline>
        <path d="M228.921373,197.586032 L86.5107572,197 C82.5821885,196.983933 79.3893336,200.171832 79.3732622,204.103394 L79,295.253278 C78.9857625,299.183048 82.1518317,302.397826 86.0804004,302.413954 L228.491016,303 C232.417799,303.017844 235.612439,299.828154 235.626725,295.896592 L236,204.746708 C236.016011,200.81873 232.848156,197.60216 228.921373,197.586032" id="Fill-20" fill="#FFFFFF"></path>
        <path d="M228.921373,197.586032 L86.5107572,197 C82.5821885,196.983933 79.3893336,200.171832 79.3732622,204.103394 L79,295.253278 C78.9857625,299.183048 82.1518317,302.397826 86.0804004,302.413954 L228.491016,303 C232.417799,303.017844 235.612439,299.828154 235.626725,295.896592 L236,204.746708 C236.016011,200.81873 232.848156,197.60216 228.921373,197.586032 Z" id="Stroke-21" stroke="#0F222E" stroke-width="4" stroke-linecap="round" stroke-linejoin="round"></path>
        <path d="M113.650905,239 L92,238.912689 L92.0872317,218 L113.738137,218.085553 C116.65691,218.097531 119.012165,220.428007 119,223.288915 L118.956337,233.837658 C118.944124,236.700277 116.567933,239.011931 113.650905,239 Z" id="Stroke-22" stroke="#EC1C24" stroke-width="4" stroke-linecap="round" stroke-linejoin="round"></path>
        <path d="M101.05,218 L100.95,239" id="Stroke-23" stroke="#EC1C24" stroke-width="4" stroke-linecap="round" stroke-linejoin="round"></path>
        <path d="M93,224.981 L101,225.019" id="Stroke-24" stroke="#EC1C24" stroke-width="4" stroke-linecap="round" stroke-linejoin="round"></path>
        <path d="M93,232.981 L101,233.019" id="Stroke-25" stroke="#EC1C24" stroke-width="4" stroke-linecap="round" stroke-linejoin="round"></path>
        <path d="M107,239 L107.042678,229.162145 C107.053812,226.851932 109.115355,224.989894 111.646358,225 L119,225.027101" id="Stroke-26" stroke="#EC1C24" stroke-width="4" stroke-linecap="round" stroke-linejoin="round"></path>
        <path d="M107,233 L119,233.052" id="Stroke-27" stroke="#EC1C24" stroke-width="4" stroke-linecap="round" stroke-linejoin="round"></path>
        <path d="M143.733454,283 L131.834609,282.963037 C130.261719,282.96119 128.992534,281.699689 129,280.150056 L129.026279,273.790835 C129.031903,272.244896 130.308587,270.994477 131.879602,271 L143.782196,271.035111 C145.012012,271.040652 146.003739,272.02695 146,273.238582 L145.968119,280.814976 C145.962495,282.028455 144.96327,283.005518 143.733454,283 Z" id="Stroke-28" stroke="#0F222E" stroke-width="4" stroke-linecap="round" stroke-linejoin="round"></path>
        <path d="M169.015238,283 L156.938138,282.950162 C155.309443,282.942783 153.992854,281.577687 154,279.902676 L154.025141,274.021691 C154.030522,272.34668 155.35608,270.992651 156.984775,271 L169.061874,271.049838 C170.692364,271.057217 172.005365,272.422313 172,274.097324 L171.976665,279.980154 C171.96949,281.655165 170.643933,283.007349 169.015238,283 Z" id="Stroke-29" stroke="#0F222E" stroke-width="4" stroke-linecap="round" stroke-linejoin="round"></path>
        <path d="M193.015238,283 L180.938138,282.950162 C179.309443,282.942783 177.992854,281.577687 178,279.902676 L178.025141,274.019846 C178.030522,272.344835 179.35608,270.992651 180.984775,271 L193.061874,271.049838 C194.692364,271.057217 196.005365,272.422313 196,274.09548 L195.976665,279.978309 C195.96949,281.655165 194.643933,283.007349 193.015238,283 Z" id="Stroke-30" stroke="#0F222E" stroke-width="4" stroke-linecap="round" stroke-linejoin="round"></path>
        <path d="M218.015238,283 L205.938138,282.948339 C204.309443,282.940961 202.992854,281.577917 203,279.903161 L203.025141,274.021229 C203.030522,272.346474 204.35608,270.992652 205.984775,271 L218.061874,271.04983 C219.692364,271.057208 221.005365,272.422096 221,274.096852 L220.976665,279.978784 C220.96949,281.655383 219.643933,283.005516 218.015238,283 Z" id="Stroke-31" stroke="#0F222E" stroke-width="4" stroke-linecap="round" stroke-linejoin="round"></path>
        <path d="M159,246.942 L184,247.058" id="Stroke-32" stroke="#0F222E" stroke-width="4" stroke-linecap="round" stroke-linejoin="round"></path>
        <path d="M159,255.968 L173,256.032" id="Stroke-33" stroke="#0F222E" stroke-width="4" stroke-linecap="round" stroke-linejoin="round"></path>
        <path d="M177,255.974 L188,256.026" id="Stroke-34" stroke="#0F222E" stroke-width="4" stroke-linecap="round" stroke-linejoin="round"></path>
        <path d="M195,255.982 L202,256.018" id="Stroke-35" stroke="#0F222E" stroke-width="4" stroke-linecap="round" stroke-linejoin="round"></path>
        <path d="M207,255.983 L214,256.017" id="Stroke-36" stroke="#0F222E" stroke-width="4" stroke-linecap="round" stroke-linejoin="round"></path>
        <path d="M189,246.943 L214,247.057" id="Stroke-37" stroke="#0F222E" stroke-width="4" stroke-linecap="round" stroke-linejoin="round"></path>
        <path d="M215,215.5 C215,219.640643 211.642391,223 207.5,223 C203.357609,223 200,219.640643 200,215.5 C200,211.357609 203.357609,208 207.5,208 C211.642391,208 215,211.357609 215,215.5 Z" id="Stroke-38" stroke="#0F222E" stroke-width="4" stroke-linecap="round" stroke-linejoin="round"></path>
        <path d="M228,215.5 C228,219.640643 224.642391,223 220.5,223 C216.357609,223 213,219.640643 213,215.5 C213,211.357609 216.357609,208 220.5,208 C224.642391,208 228,211.357609 228,215.5 Z" id="Stroke-39" stroke="#0F222E" stroke-width="4" stroke-linecap="round" stroke-linejoin="round"></path>
        <path d="M484.02,299.001 C484.02,299.121 484.02,299.239 483.98,299.341 L483.98,298.659 C484.02,298.761 484.02,298.879 484.02,299.001 Z" id="Stroke-40" stroke="#0F222E" stroke-width="2" stroke-linecap="round" stroke-linejoin="round"></path>
        <path d="M483.992124,305 L483.992124,324.497265 C484.009845,324.514474 483.992124,324.531682 483.992124,324.531682 C483.265594,329.229611 466.750315,333 446.513782,333 C425.798803,333 409,329.057526 409,324.20472 C409,323.998218 409.035441,323.791715 409.106322,323.585213 L409.106322,305 L483.992124,305 Z" id="Fill-41" fill="#FFFFFF"></path>
        <path d="M483.992124,305 L483.992124,324.497265 C484.009845,324.514474 483.992124,324.531682 483.992124,324.531682 C483.265594,329.229611 466.750315,333 446.513782,333 C425.798803,333 409,329.057526 409,324.20472 C409,323.998218 409.035441,323.791715 409.106322,323.585213 L409.106322,305 L483.992124,305 Z" id="Stroke-42" stroke="#0F222E" stroke-width="4" stroke-linecap="round" stroke-linejoin="round"></path>
        <path d="M484.02,325 C484.02,325.12 484.02,325.24 483.98,325.34 L483.98,324.66 C484.02,324.76 484.02,324.878 484.02,325 Z" id="Stroke-43" stroke="#0F222E" stroke-width="2" stroke-linecap="round" stroke-linejoin="round"></path>
        <path d="M485,304 C485,308.970307 467.986655,313 447.000898,313 C426.013345,313 409,308.970307 409,304 C409,299.029693 426.013345,295 447.000898,295 C467.986655,295 485,299.029693 485,304" id="Fill-44" fill="#FFFFFF"></path>
        <path d="M485,304 C485,308.970307 467.986655,313 447.000898,313 C426.013345,313 409,308.970307 409,304 C409,299.029693 426.013345,295 447.000898,295 C467.986655,295 485,299.029693 485,304 Z" id="Stroke-45" stroke="#0F222E" stroke-width="4" stroke-linecap="round" stroke-linejoin="round"></path>
        <path d="M483.992124,278 L483.992124,297.498463 C484.009845,297.515673 483.992124,297.532883 483.992124,297.532883 C483.265594,302.2311 466.750315,306 446.513782,306 C425.798803,306 409,302.057283 409,297.2059 C409,296.999385 409.035441,296.79287 409.106322,296.586355 L409.106322,278 L483.992124,278 Z" id="Fill-46" fill="#FFFFFF"></path>
        <path d="M483.992124,278 L483.992124,297.498463 C484.009845,297.515673 483.992124,297.532883 483.992124,297.532883 C483.265594,302.2311 466.750315,306 446.513782,306 C425.798803,306 409,302.057283 409,297.2059 C409,296.999385 409.035441,296.79287 409.106322,296.586355 L409.106322,278 L483.992124,278 Z" id="Stroke-47" stroke="#0F222E" stroke-width="4" stroke-linecap="round" stroke-linejoin="round"></path>
        <path d="M485,278.000879 C485,282.9707 467.986655,287 447.000898,287 C426.013345,287 409,282.9707 409,278.000879 C409,273.031058 426.013345,269 447.000898,269 C467.986655,269 485,273.031058 485,278.000879" id="Fill-48" fill="#FFFFFF"></path>
        <path d="M485,278.000879 C485,282.9707 467.986655,287 447.000898,287 C426.013345,287 409,282.9707 409,278.000879 C409,273.031058 426.013345,269 447.000898,269 C467.986655,269 485,273.031058 485,278.000879 Z" id="Stroke-49" stroke="#0F222E" stroke-width="4" stroke-linecap="round" stroke-linejoin="round"></path>
        <path d="M424,296 C420.446208,295.448737 417.391534,294.771174 415,294" id="Stroke-50" stroke="#0F222E" stroke-width="4" stroke-linecap="round" stroke-linejoin="round"></path>
        <path d="M469,297 C462.655208,298.252747 454.651496,299 445.954952,299 C440.637949,299 435.578334,298.71978 431,298.216117" id="Stroke-51" stroke="#0F222E" stroke-width="4" stroke-linecap="round" stroke-linejoin="round"></path>
        <path d="M424,323 C420.446208,322.450223 417.391534,321.77266 415,321" id="Stroke-52" stroke="#0F222E" stroke-width="4" stroke-linecap="round" stroke-linejoin="round"></path>
        <path d="M469,323 C462.655208,324.253431 454.651496,325 445.954952,325 C440.637949,325 435.578334,324.720037 431,324.216834" id="Stroke-53" stroke="#0F222E" stroke-width="4" stroke-linecap="round" stroke-linejoin="round"></path>
        <path d="M424,347 C420.446208,346.448737 417.391534,345.771174 415,345" id="Stroke-54" stroke="#0F222E" stroke-width="4" stroke-linecap="round" stroke-linejoin="round"></path>
        <path d="M469,348 C462.655208,349.254579 454.651496,350 445.954952,350 C440.637949,350 435.578334,349.71978 431,349.217949" id="Stroke-55" stroke="#0F222E" stroke-width="4" stroke-linecap="round" stroke-linejoin="round"></path>
        <polyline id="Stroke-56" stroke="#0F222E" stroke-width="4" stroke-linecap="round" stroke-linejoin="round" points="409 290 395 290 395 343 409 343"></polyline>
        <path d="M395,316 L408,316" id="Stroke-57" stroke="#0F222E" stroke-width="4" stroke-linecap="round" stroke-linejoin="round"></path>
        <path d="M252.91341,263.711259 C266.051477,283.823171 260.398408,310.776672 240.288283,323.914739 C220.178158,337.051019 193.224657,331.397951 180.08659,311.287826 C166.948523,291.177701 172.601592,264.224199 192.711717,251.08792 C212.821842,237.948066 239.775343,243.601134 252.91341,263.711259" id="Fill-58" fill="#FFFFFF"></path>
        <path d="M252.91341,263.711259 C266.051477,283.823171 260.398408,310.776672 240.288283,323.914739 C220.178158,337.051019 193.224657,331.397951 180.08659,311.287826 C166.948523,291.177701 172.601592,264.224199 192.711717,251.08792 C212.821842,237.948066 239.775343,243.601134 252.91341,263.711259 Z" id="Stroke-59" stroke="#0F222E" stroke-width="4" stroke-linecap="round" stroke-linejoin="round"></path>
        <path d="M244,325 L280,381" id="Stroke-60" stroke="#EC1C24" stroke-width="4" stroke-linecap="round" stroke-linejoin="round"></path>
        <path d="M255.558731,268.373005 C266.122004,289.944557 257.197459,315.994473 235.625938,326.559548 C214.05263,337.121049 188.002754,328.198278 177.441269,306.624938 C166.877996,285.053385 175.802541,259.00347 197.374062,248.440182 C218.945583,237.878681 244.995459,246.803239 255.558731,268.373005 Z" id="Stroke-61" stroke="#EC1C24" stroke-width="4" stroke-linecap="round" stroke-linejoin="round"></path>
        <path d="M212.496874,245.754372 C212.027928,245.754372 211.665277,245.993827 211.404752,246.470936 C211.144227,246.951646 211.012922,247.6268 211.012922,248.4982 C211.012922,249.3768 211.144227,250.055556 211.404752,250.534465 C211.665277,251.015175 212.027928,251.25643 212.496874,251.25643 C212.969987,251.25643 213.334723,251.015175 213.595248,250.534465 C213.855773,250.055556 213.987078,249.3768 213.987078,248.4982 C213.987078,247.6268 213.855773,246.951646 213.595248,246.470936 C213.334723,245.993827 212.969987,245.754372 212.496874,245.754372 M212.496874,252 C211.731972,252 211.123385,251.688529 210.673197,251.061986 C210.225094,250.440844 210,249.583848 210,248.496399 C210,247.414352 210.225094,246.560957 210.673197,245.936214 C211.123385,245.313272 211.731972,245 212.496874,245 C213.261776,245 213.870363,245.313272 214.322634,245.939815 C214.774906,246.564558 215,247.417953 215,248.496399 C215,249.576646 214.774906,250.430041 214.322634,251.058385 C213.870363,251.684928 213.261776,252 212.496874,252" id="Fill-62" fill="#EC1C24"></path>
        <path d="M218.606934,246.168521 L218.504277,246.185215 C218.480864,246.188924 218.461054,246.190779 218.443044,246.190779 C218.334984,246.190779 218.244935,246.159247 218.176497,246.09433 C218.108059,246.033121 218.073841,245.947801 218.073841,245.842077 C218.073841,245.754902 218.104457,245.678855 218.16389,245.613937 C218.223323,245.54902 218.30977,245.500795 218.421432,245.467409 L219.990095,245.033386 C220.027915,245.022258 220.065736,245.014838 220.103557,245.007419 C220.139577,245.00371 220.177398,245 220.217019,245 C220.283656,245 220.335885,245.033386 220.373706,245.094595 C220.413327,245.159512 220.433138,245.244833 220.433138,245.354266 L220.433138,251.232114 L221.276002,251.232114 C221.589374,251.232114 221.789284,251.259936 221.87213,251.310016 C221.956776,251.36566 222,251.462109 222,251.608638 C222,251.738474 221.96398,251.836778 221.893742,251.901696 C221.823503,251.966614 221.719045,252 221.576767,252 L218.421432,252 C218.280955,252 218.176497,251.966614 218.106258,251.901696 C218.03602,251.836778 218,251.738474 218,251.608638 C218,251.462109 218.043224,251.36566 218.126069,251.310016 C218.210716,251.259936 218.410626,251.232114 218.722197,251.232114 L219.59928,251.232114 L219.59928,245.923688 L218.606934,246.168521 Z" id="Fill-63" fill="#EC1C24"></path>
        <path d="M189.496874,259.754372 C189.027928,259.754372 188.665277,259.993827 188.404752,260.470936 C188.144227,260.951646 188.012922,261.6268 188.012922,262.4982 C188.012922,263.3768 188.144227,264.055556 188.404752,264.534465 C188.665277,265.015175 189.027928,265.25643 189.496874,265.25643 C189.969987,265.25643 190.334723,265.015175 190.595248,264.534465 C190.855773,264.055556 190.987078,263.3768 190.987078,262.4982 C190.987078,261.6268 190.855773,260.951646 190.595248,260.470936 C190.334723,259.993827 189.969987,259.754372 189.496874,259.754372 M189.496874,266 C188.731972,266 188.123385,265.688529 187.673197,265.061986 C187.225094,264.440844 187,263.583848 187,262.496399 C187,261.414352 187.225094,260.560957 187.673197,259.936214 C188.123385,259.313272 188.731972,259 189.496874,259 C190.261776,259 190.870363,259.313272 191.322634,259.939815 C191.774906,260.564558 192,261.417953 192,262.496399 C192,263.576646 191.774906,264.430041 191.322634,265.058385 C190.870363,265.684928 190.261776,266 189.496874,266" id="Fill-64" fill="#EC1C24"></path>
        <path d="M194.606934,260.168521 L194.504277,260.185215 C194.480864,260.188924 194.461054,260.190779 194.443044,260.190779 C194.334984,260.190779 194.244935,260.159247 194.176497,260.09433 C194.108059,260.033121 194.073841,259.947801 194.073841,259.842077 C194.073841,259.754902 194.104457,259.678855 194.16389,259.613937 C194.223323,259.54902 194.30977,259.500795 194.421432,259.467409 L195.990095,259.033386 C196.027915,259.022258 196.065736,259.014838 196.103557,259.007419 C196.139577,259.00371 196.177398,259 196.217019,259 C196.283656,259 196.335885,259.033386 196.373706,259.094595 C196.413327,259.159512 196.433138,259.244833 196.433138,259.354266 L196.433138,265.232114 L197.276002,265.232114 C197.589374,265.232114 197.789284,265.259936 197.87213,265.310016 C197.956776,265.36566 198,265.462109 198,265.608638 C198,265.738474 197.96398,265.836778 197.893742,265.901696 C197.823503,265.966614 197.719045,266 197.576767,266 L194.421432,266 C194.280955,266 194.176497,265.966614 194.106258,265.901696 C194.03602,265.836778 194,265.738474 194,265.608638 C194,265.462109 194.043224,265.36566 194.126069,265.310016 C194.210716,265.259936 194.410626,265.232114 194.722197,265.232114 L195.59928,265.232114 L195.59928,259.923688 L194.606934,260.168521 Z" id="Fill-65" fill="#EC1C24"></path>
        <path d="M201.496874,259.754372 C201.027928,259.754372 200.665277,259.993827 200.404752,260.470936 C200.144227,260.951646 200.012922,261.6268 200.012922,262.4982 C200.012922,263.3768 200.144227,264.055556 200.404752,264.534465 C200.665277,265.015175 201.027928,265.25643 201.496874,265.25643 C201.969987,265.25643 202.334723,265.015175 202.595248,264.534465 C202.855773,264.055556 202.987078,263.3768 202.987078,262.4982 C202.987078,261.6268 202.855773,260.951646 202.595248,260.470936 C202.334723,259.993827 201.969987,259.754372 201.496874,259.754372 M201.496874,266 C200.731972,266 200.123385,265.688529 199.673197,265.061986 C199.225094,264.440844 199,263.583848 199,262.496399 C199,261.414352 199.225094,260.560957 199.673197,259.936214 C200.123385,259.313272 200.731972,259 201.496874,259 C202.261776,259 202.870363,259.313272 203.322634,259.939815 C203.774906,260.564558 204,261.417953 204,262.496399 C204,263.576646 203.774906,264.430041 203.322634,265.058385 C202.870363,265.684928 202.261776,266 201.496874,266" id="Fill-66" fill="#EC1C24"></path>
        <path d="M207.496874,259.754372 C207.027928,259.754372 206.665277,259.993827 206.404752,260.470936 C206.144227,260.951646 206.012922,261.6268 206.012922,262.4982 C206.012922,263.3768 206.144227,264.055556 206.404752,264.534465 C206.665277,265.015175 207.027928,265.25643 207.496874,265.25643 C207.969987,265.25643 208.334723,265.015175 208.595248,264.534465 C208.855773,264.055556 208.987078,263.3768 208.987078,262.4982 C208.987078,261.6268 208.855773,260.951646 208.595248,260.470936 C208.334723,259.993827 207.969987,259.754372 207.496874,259.754372 M207.496874,266 C206.731972,266 206.123385,265.688529 205.673197,265.061986 C205.225094,264.440844 205,263.583848 205,262.496399 C205,261.414352 205.225094,260.560957 205.673197,259.936214 C206.123385,259.313272 206.731972,259 207.496874,259 C208.261776,259 208.870363,259.313272 209.322634,259.939815 C209.774906,260.564558 210,261.417953 210,262.496399 C210,263.576646 209.774906,264.430041 209.322634,265.058385 C208.870363,265.684928 208.261776,266 207.496874,266" id="Fill-67" fill="#EC1C24"></path>
        <path d="M212.606934,260.168521 L212.504277,260.185215 C212.480864,260.188924 212.461054,260.190779 212.443044,260.190779 C212.334984,260.190779 212.244935,260.159247 212.176497,260.09433 C212.108059,260.033121 212.073841,259.947801 212.073841,259.842077 C212.073841,259.754902 212.104457,259.678855 212.16389,259.613937 C212.223323,259.54902 212.30977,259.500795 212.421432,259.467409 L213.990095,259.033386 C214.027915,259.022258 214.065736,259.014838 214.103557,259.007419 C214.139577,259.00371 214.177398,259 214.217019,259 C214.283656,259 214.335885,259.033386 214.373706,259.094595 C214.413327,259.159512 214.433138,259.244833 214.433138,259.354266 L214.433138,265.232114 L215.276002,265.232114 C215.589374,265.232114 215.789284,265.259936 215.87213,265.310016 C215.956776,265.36566 216,265.462109 216,265.608638 C216,265.738474 215.96398,265.836778 215.893742,265.901696 C215.823503,265.966614 215.719045,266 215.576767,266 L212.421432,266 C212.280955,266 212.176497,265.966614 212.106258,265.901696 C212.03602,265.836778 212,265.738474 212,265.608638 C212,265.462109 212.043224,265.36566 212.126069,265.310016 C212.210716,265.259936 212.410626,265.232114 212.722197,265.232114 L213.59928,265.232114 L213.59928,259.923688 L212.606934,260.168521 Z" id="Fill-68" fill="#EC1C24"></path>
        <path d="M221.496874,259.754372 C221.027928,259.754372 220.665277,259.993827 220.404752,260.470936 C220.144227,260.951646 220.012922,261.6268 220.012922,262.4982 C220.012922,263.3768 220.144227,264.055556 220.404752,264.534465 C220.665277,265.015175 221.027928,265.25643 221.496874,265.25643 C221.969987,265.25643 222.334723,265.015175 222.595248,264.534465 C222.855773,264.055556 222.987078,263.3768 222.987078,262.4982 C222.987078,261.6268 222.855773,260.951646 222.595248,260.470936 C222.334723,259.993827 221.969987,259.754372 221.496874,259.754372 M221.496874,266 C220.731972,266 220.123385,265.688529 219.673197,265.061986 C219.225094,264.440844 219,263.583848 219,262.496399 C219,261.414352 219.225094,260.560957 219.673197,259.936214 C220.123385,259.313272 220.731972,259 221.496874,259 C222.261776,259 222.870363,259.313272 223.322634,259.939815 C223.774906,260.564558 224,261.417953 224,262.496399 C224,263.576646 223.774906,264.430041 223.322634,265.058385 C222.870363,265.684928 222.261776,266 221.496874,266" id="Fill-69" fill="#EC1C24"></path>
        <path d="M226.606934,260.168521 L226.504277,260.185215 C226.480864,260.188924 226.461054,260.190779 226.443044,260.190779 C226.334984,260.190779 226.244935,260.159247 226.176497,260.09433 C226.108059,260.033121 226.073841,259.947801 226.073841,259.842077 C226.073841,259.754902 226.104457,259.678855 226.16389,259.613937 C226.223323,259.54902 226.30977,259.500795 226.421432,259.467409 L227.990095,259.033386 C228.027915,259.022258 228.065736,259.014838 228.103557,259.007419 C228.139577,259.00371 228.177398,259 228.217019,259 C228.283656,259 228.335885,259.033386 228.373706,259.094595 C228.413327,259.159512 228.433138,259.244833 228.433138,259.354266 L228.433138,265.232114 L229.276002,265.232114 C229.589374,265.232114 229.789284,265.259936 229.87213,265.310016 C229.956776,265.36566 230,265.462109 230,265.608638 C230,265.738474 229.96398,265.836778 229.893742,265.901696 C229.823503,265.966614 229.719045,266 229.576767,266 L226.421432,266 C226.280955,266 226.176497,265.966614 226.106258,265.901696 C226.03602,265.836778 226,265.738474 226,265.608638 C226,265.462109 226.043224,265.36566 226.126069,265.310016 C226.210716,265.259936 226.410626,265.232114 226.722197,265.232114 L227.59928,265.232114 L227.59928,259.923688 L226.606934,260.168521 Z" id="Fill-70" fill="#EC1C24"></path>
        <path d="M233.496874,259.754372 C233.027928,259.754372 232.665277,259.993827 232.404752,260.470936 C232.144227,260.951646 232.012922,261.6268 232.012922,262.4982 C232.012922,263.3768 232.144227,264.055556 232.404752,264.534465 C232.665277,265.015175 233.027928,265.25643 233.496874,265.25643 C233.969987,265.25643 234.334723,265.015175 234.595248,264.534465 C234.855773,264.055556 234.987078,263.3768 234.987078,262.4982 C234.987078,261.6268 234.855773,260.951646 234.595248,260.470936 C234.334723,259.993827 233.969987,259.754372 233.496874,259.754372 M233.496874,266 C232.731972,266 232.123385,265.688529 231.673197,265.061986 C231.225094,264.440844 231,263.583848 231,262.496399 C231,261.414352 231.225094,260.560957 231.673197,259.936214 C232.123385,259.313272 232.731972,259 233.496874,259 C234.261776,259 234.870363,259.313272 235.322634,259.939815 C235.774906,260.564558 236,261.417953 236,262.496399 C236,263.576646 235.774906,264.430041 235.322634,265.058385 C234.870363,265.684928 234.261776,266 233.496874,266" id="Fill-71" fill="#EC1C24"></path>
        <path d="M238.606934,260.168521 L238.504277,260.185215 C238.480864,260.188924 238.461054,260.190779 238.443044,260.190779 C238.334984,260.190779 238.244935,260.159247 238.176497,260.09433 C238.108059,260.033121 238.073841,259.947801 238.073841,259.842077 C238.073841,259.754902 238.104457,259.678855 238.16389,259.613937 C238.223323,259.54902 238.30977,259.500795 238.421432,259.467409 L239.990095,259.033386 C240.027915,259.022258 240.065736,259.014838 240.103557,259.007419 C240.139577,259.00371 240.177398,259 240.217019,259 C240.283656,259 240.335885,259.033386 240.373706,259.094595 C240.413327,259.159512 240.433138,259.244833 240.433138,259.354266 L240.433138,265.232114 L241.276002,265.232114 C241.589374,265.232114 241.789284,265.259936 241.87213,265.310016 C241.956776,265.36566 242,265.462109 242,265.608638 C242,265.738474 241.96398,265.836778 241.893742,265.901696 C241.823503,265.966614 241.719045,266 241.576767,266 L238.421432,266 C238.280955,266 238.176497,265.966614 238.106258,265.901696 C238.03602,265.836778 238,265.738474 238,265.608638 C238,265.462109 238.043224,265.36566 238.126069,265.310016 C238.210716,265.259936 238.410626,265.232114 238.722197,265.232114 L239.59928,265.232114 L239.59928,259.923688 L238.606934,260.168521 Z" id="Fill-72" fill="#EC1C24"></path>
        <path d="M179.496874,271.754372 C179.027928,271.754372 178.665277,271.993827 178.404752,272.470936 C178.144227,272.951646 178.012922,273.6268 178.012922,274.4982 C178.012922,275.3768 178.144227,276.055556 178.404752,276.534465 C178.665277,277.015175 179.027928,277.25643 179.496874,277.25643 C179.969987,277.25643 180.334723,277.015175 180.595248,276.534465 C180.855773,276.055556 180.987078,275.3768 180.987078,274.4982 C180.987078,273.6268 180.855773,272.951646 180.595248,272.470936 C180.334723,271.993827 179.969987,271.754372 179.496874,271.754372 M179.496874,278 C178.731972,278 178.123385,277.688529 177.673197,277.061986 C177.225094,276.440844 177,275.583848 177,274.496399 C177,273.414352 177.225094,272.560957 177.673197,271.936214 C178.123385,271.313272 178.731972,271 179.496874,271 C180.261776,271 180.870363,271.313272 181.322634,271.939815 C181.774906,272.564558 182,273.417953 182,274.496399 C182,275.576646 181.774906,276.430041 181.322634,277.058385 C180.870363,277.684928 180.261776,278 179.496874,278" id="Fill-73" fill="#EC1C24"></path>
        <path d="M185.606934,272.168521 L185.504277,272.185215 C185.480864,272.188924 185.461054,272.190779 185.443044,272.190779 C185.334984,272.190779 185.244935,272.159247 185.176497,272.09433 C185.108059,272.033121 185.073841,271.947801 185.073841,271.842077 C185.073841,271.754902 185.104457,271.678855 185.16389,271.613937 C185.223323,271.54902 185.30977,271.500795 185.421432,271.467409 L186.990095,271.033386 C187.027915,271.022258 187.065736,271.014838 187.103557,271.007419 C187.139577,271.00371 187.177398,271 187.217019,271 C187.283656,271 187.335885,271.033386 187.373706,271.094595 C187.413327,271.159512 187.433138,271.244833 187.433138,271.354266 L187.433138,277.232114 L188.276002,277.232114 C188.589374,277.232114 188.789284,277.259936 188.87213,277.310016 C188.956776,277.36566 189,277.462109 189,277.608638 C189,277.738474 188.96398,277.836778 188.893742,277.901696 C188.823503,277.966614 188.719045,278 188.576767,278 L185.421432,278 C185.280955,278 185.176497,277.966614 185.106258,277.901696 C185.03602,277.836778 185,277.738474 185,277.608638 C185,277.462109 185.043224,277.36566 185.126069,277.310016 C185.210716,277.259936 185.410626,277.232114 185.722197,277.232114 L186.59928,277.232114 L186.59928,271.923688 L185.606934,272.168521 Z" id="Fill-74" fill="#EC1C24"></path>
        <path d="M194.496874,271.754372 C194.027928,271.754372 193.665277,271.993827 193.404752,272.470936 C193.144227,272.951646 193.012922,273.6268 193.012922,274.4982 C193.012922,275.3768 193.144227,276.055556 193.404752,276.534465 C193.665277,277.015175 194.027928,277.25643 194.496874,277.25643 C194.969987,277.25643 195.334723,277.015175 195.595248,276.534465 C195.855773,276.055556 195.987078,275.3768 195.987078,274.4982 C195.987078,273.6268 195.855773,272.951646 195.595248,272.470936 C195.334723,271.993827 194.969987,271.754372 194.496874,271.754372 M194.496874,278 C193.731972,278 193.123385,277.688529 192.673197,277.061986 C192.225094,276.440844 192,275.583848 192,274.496399 C192,273.414352 192.225094,272.560957 192.673197,271.936214 C193.123385,271.313272 193.731972,271 194.496874,271 C195.261776,271 195.870363,271.313272 196.322634,271.939815 C196.774906,272.564558 197,273.417953 197,274.496399 C197,275.576646 196.774906,276.430041 196.322634,277.058385 C195.870363,277.684928 195.261776,278 194.496874,278" id="Fill-75" fill="#EC1C24"></path>
        <path d="M199.496874,271.754372 C199.027928,271.754372 198.665277,271.993827 198.404752,272.470936 C198.144227,272.951646 198.012922,273.6268 198.012922,274.4982 C198.012922,275.3768 198.144227,276.055556 198.404752,276.534465 C198.665277,277.015175 199.027928,277.25643 199.496874,277.25643 C199.969987,277.25643 200.334723,277.015175 200.595248,276.534465 C200.855773,276.055556 200.987078,275.3768 200.987078,274.4982 C200.987078,273.6268 200.855773,272.951646 200.595248,272.470936 C200.334723,271.993827 199.969987,271.754372 199.496874,271.754372 M199.496874,278 C198.731972,278 198.123385,277.688529 197.673197,277.061986 C197.225094,276.440844 197,275.583848 197,274.496399 C197,273.414352 197.225094,272.560957 197.673197,271.936214 C198.123385,271.313272 198.731972,271 199.496874,271 C200.261776,271 200.870363,271.313272 201.322634,271.939815 C201.774906,272.564558 202,273.417953 202,274.496399 C202,275.576646 201.774906,276.430041 201.322634,277.058385 C200.870363,277.684928 200.261776,278 199.496874,278" id="Fill-76" fill="#EC1C24"></path>
        <path d="M203.606934,272.168521 L203.504277,272.185215 C203.480864,272.188924 203.461054,272.190779 203.443044,272.190779 C203.334984,272.190779 203.244935,272.159247 203.176497,272.09433 C203.108059,272.033121 203.073841,271.947801 203.073841,271.842077 C203.073841,271.754902 203.104457,271.678855 203.16389,271.613937 C203.223323,271.54902 203.30977,271.500795 203.421432,271.467409 L204.990095,271.033386 C205.027915,271.022258 205.065736,271.014838 205.103557,271.007419 C205.139577,271.00371 205.177398,271 205.217019,271 C205.283656,271 205.335885,271.033386 205.373706,271.094595 C205.413327,271.159512 205.433138,271.244833 205.433138,271.354266 L205.433138,277.232114 L206.276002,277.232114 C206.589374,277.232114 206.789284,277.259936 206.87213,277.310016 C206.956776,277.36566 207,277.462109 207,277.608638 C207,277.738474 206.96398,277.836778 206.893742,277.901696 C206.823503,277.966614 206.719045,278 206.576767,278 L203.421432,278 C203.280955,278 203.176497,277.966614 203.106258,277.901696 C203.03602,277.836778 203,277.738474 203,277.608638 C203,277.462109 203.043224,277.36566 203.126069,277.310016 C203.210716,277.259936 203.410626,277.232114 203.722197,277.232114 L204.59928,277.232114 L204.59928,271.923688 L203.606934,272.168521 Z" id="Fill-77" fill="#EC1C24"></path>
        <path d="M212.496874,271.754372 C212.027928,271.754372 211.665277,271.993827 211.404752,272.470936 C211.144227,272.951646 211.012922,273.6268 211.012922,274.4982 C211.012922,275.3768 211.144227,276.055556 211.404752,276.534465 C211.665277,277.015175 212.027928,277.25643 212.496874,277.25643 C212.969987,277.25643 213.334723,277.015175 213.595248,276.534465 C213.855773,276.055556 213.987078,275.3768 213.987078,274.4982 C213.987078,273.6268 213.855773,272.951646 213.595248,272.470936 C213.334723,271.993827 212.969987,271.754372 212.496874,271.754372 M212.496874,278 C211.731972,278 211.123385,277.688529 210.673197,277.061986 C210.225094,276.440844 210,275.583848 210,274.496399 C210,273.414352 210.225094,272.560957 210.673197,271.936214 C211.123385,271.313272 211.731972,271 212.496874,271 C213.261776,271 213.870363,271.313272 214.322634,271.939815 C214.774906,272.564558 215,273.417953 215,274.496399 C215,275.576646 214.774906,276.430041 214.322634,277.058385 C213.870363,277.684928 213.261776,278 212.496874,278" id="Fill-78" fill="#EC1C24"></path>
        <path d="M218.606934,272.168521 L218.504277,272.185215 C218.480864,272.188924 218.461054,272.190779 218.443044,272.190779 C218.334984,272.190779 218.244935,272.159247 218.176497,272.09433 C218.108059,272.033121 218.073841,271.947801 218.073841,271.842077 C218.073841,271.754902 218.104457,271.678855 218.16389,271.613937 C218.223323,271.54902 218.30977,271.500795 218.421432,271.467409 L219.990095,271.033386 C220.027915,271.022258 220.065736,271.014838 220.103557,271.007419 C220.139577,271.00371 220.177398,271 220.217019,271 C220.283656,271 220.335885,271.033386 220.373706,271.094595 C220.413327,271.159512 220.433138,271.244833 220.433138,271.354266 L220.433138,277.232114 L221.276002,277.232114 C221.589374,277.232114 221.789284,277.259936 221.87213,277.310016 C221.956776,277.36566 222,277.462109 222,277.608638 C222,277.738474 221.96398,277.836778 221.893742,277.901696 C221.823503,277.966614 221.719045,278 221.576767,278 L218.421432,278 C218.280955,278 218.176497,277.966614 218.106258,277.901696 C218.03602,277.836778 218,277.738474 218,277.608638 C218,277.462109 218.043224,277.36566 218.126069,277.310016 C218.210716,277.259936 218.410626,277.232114 218.722197,277.232114 L219.59928,277.232114 L219.59928,271.923688 L218.606934,272.168521 Z" id="Fill-79" fill="#EC1C24"></path>
        <path d="M226.496874,271.754372 C226.027928,271.754372 225.665277,271.993827 225.404752,272.470936 C225.144227,272.951646 225.012922,273.6268 225.012922,274.4982 C225.012922,275.3768 225.144227,276.055556 225.404752,276.534465 C225.665277,277.015175 226.027928,277.25643 226.496874,277.25643 C226.969987,277.25643 227.334723,277.015175 227.595248,276.534465 C227.855773,276.055556 227.987078,275.3768 227.987078,274.4982 C227.987078,273.6268 227.855773,272.951646 227.595248,272.470936 C227.334723,271.993827 226.969987,271.754372 226.496874,271.754372 M226.496874,278 C225.731972,278 225.123385,277.688529 224.673197,277.061986 C224.225094,276.440844 224,275.583848 224,274.496399 C224,273.414352 224.225094,272.560957 224.673197,271.936214 C225.123385,271.313272 225.731972,271 226.496874,271 C227.261776,271 227.870363,271.313272 228.322634,271.939815 C228.774906,272.564558 229,273.417953 229,274.496399 C229,275.576646 228.774906,276.430041 228.322634,277.058385 C227.870363,277.684928 227.261776,278 226.496874,278" id="Fill-80" fill="#EC1C24"></path>
        <path d="M231.606934,272.168521 L231.504277,272.185215 C231.480864,272.188924 231.461054,272.190779 231.443044,272.190779 C231.334984,272.190779 231.244935,272.159247 231.176497,272.09433 C231.108059,272.033121 231.073841,271.947801 231.073841,271.842077 C231.073841,271.754902 231.104457,271.678855 231.16389,271.613937 C231.223323,271.54902 231.30977,271.500795 231.421432,271.467409 L232.990095,271.033386 C233.027915,271.022258 233.065736,271.014838 233.103557,271.007419 C233.139577,271.00371 233.177398,271 233.217019,271 C233.283656,271 233.335885,271.033386 233.373706,271.094595 C233.413327,271.159512 233.433138,271.244833 233.433138,271.354266 L233.433138,277.232114 L234.276002,277.232114 C234.589374,277.232114 234.789284,277.259936 234.87213,277.310016 C234.956776,277.36566 235,277.462109 235,277.608638 C235,277.738474 234.96398,277.836778 234.893742,277.901696 C234.823503,277.966614 234.719045,278 234.576767,278 L231.421432,278 C231.280955,278 231.176497,277.966614 231.106258,277.901696 C231.03602,277.836778 231,277.738474 231,277.608638 C231,277.462109 231.043224,277.36566 231.126069,277.310016 C231.210716,277.259936 231.410626,277.232114 231.722197,277.232114 L232.59928,277.232114 L232.59928,271.923688 L231.606934,272.168521 Z" id="Fill-81" fill="#EC1C24"></path>
        <path d="M238.496874,271.754372 C238.027928,271.754372 237.665277,271.993827 237.404752,272.470936 C237.144227,272.951646 237.012922,273.6268 237.012922,274.4982 C237.012922,275.3768 237.144227,276.055556 237.404752,276.534465 C237.665277,277.015175 238.027928,277.25643 238.496874,277.25643 C238.969987,277.25643 239.334723,277.015175 239.595248,276.534465 C239.855773,276.055556 239.987078,275.3768 239.987078,274.4982 C239.987078,273.6268 239.855773,272.951646 239.595248,272.470936 C239.334723,271.993827 238.969987,271.754372 238.496874,271.754372 M238.496874,278 C237.731972,278 237.123385,277.688529 236.673197,277.061986 C236.225094,276.440844 236,275.583848 236,274.496399 C236,273.414352 236.225094,272.560957 236.673197,271.936214 C237.123385,271.313272 237.731972,271 238.496874,271 C239.261776,271 239.870363,271.313272 240.322634,271.939815 C240.774906,272.564558 241,273.417953 241,274.496399 C241,275.576646 240.774906,276.430041 240.322634,277.058385 C239.870363,277.684928 239.261776,278 238.496874,278" id="Fill-82" fill="#EC1C24"></path>
        <path d="M243.606934,272.168521 C243.561909,272.175941 243.52769,272.181505 243.504277,272.185215 C243.480864,272.188924 243.461054,272.190779 243.443044,272.190779 C243.334984,272.190779 243.244935,272.159247 243.176497,272.09433 C243.108059,272.033121 243.073841,271.947801 243.073841,271.842077 C243.073841,271.754902 243.104457,271.678855 243.16389,271.613937 C243.223323,271.54902 243.30977,271.500795 243.421432,271.467409 L244.990095,271.033386 C245.027915,271.022258 245.065736,271.014838 245.103557,271.007419 C245.139577,271.00371 245.177398,271 245.217019,271 C245.283656,271 245.335885,271.033386 245.373706,271.094595 C245.413327,271.159512 245.433138,271.244833 245.433138,271.354266 L245.433138,277.232114 L246.276002,277.232114 C246.589374,277.232114 246.789284,277.259936 246.87213,277.310016 C246.956776,277.36566 247,277.462109 247,277.608638 C247,277.738474 246.96398,277.836778 246.893742,277.901696 C246.823503,277.966614 246.719045,278 246.576767,278 L243.421432,278 C243.280955,278 243.176497,277.966614 243.106258,277.901696 C243.03602,277.836778 243,277.738474 243,277.608638 C243,277.462109 243.043224,277.36566 243.126069,277.310016 C243.210716,277.259936 243.410626,277.232114 243.722197,277.232114 L244.59928,277.232114 L244.59928,271.923688 L243.606934,272.168521 Z" id="Fill-83" fill="#EC1C24"></path>
        <path d="M252.496874,271.754372 C252.027928,271.754372 251.665277,271.993827 251.404752,272.470936 C251.144227,272.951646 251.012922,273.6268 251.012922,274.4982 C251.012922,275.3768 251.144227,276.055556 251.404752,276.534465 C251.665277,277.015175 252.027928,277.25643 252.496874,277.25643 C252.969987,277.25643 253.334723,277.015175 253.595248,276.534465 C253.855773,276.055556 253.987078,275.3768 253.987078,274.4982 C253.987078,273.6268 253.855773,272.951646 253.595248,272.470936 C253.334723,271.993827 252.969987,271.754372 252.496874,271.754372 M252.496874,278 C251.731972,278 251.123385,277.688529 250.673197,277.061986 C250.225094,276.440844 250,275.583848 250,274.496399 C250,273.414352 250.225094,272.560957 250.673197,271.936214 C251.123385,271.313272 251.731972,271 252.496874,271 C253.261776,271 253.870363,271.313272 254.322634,271.939815 C254.774906,272.564558 255,273.417953 255,274.496399 C255,275.576646 254.774906,276.430041 254.322634,277.058385 C253.870363,277.684928 253.261776,278 252.496874,278" id="Fill-84" fill="#EC1C24"></path>
        <path d="M175.606934,286.168521 L175.504277,286.185215 C175.480864,286.188924 175.461054,286.190779 175.443044,286.190779 C175.334984,286.190779 175.244935,286.159247 175.176497,286.09433 C175.108059,286.033121 175.073841,285.947801 175.073841,285.842077 C175.073841,285.754902 175.104457,285.678855 175.16389,285.613937 C175.223323,285.54902 175.30977,285.500795 175.421432,285.467409 L176.990095,285.033386 C177.027915,285.022258 177.065736,285.014838 177.103557,285.007419 C177.139577,285.00371 177.177398,285 177.217019,285 C177.283656,285 177.335885,285.033386 177.373706,285.094595 C177.413327,285.159512 177.433138,285.244833 177.433138,285.354266 L177.433138,291.232114 L178.276002,291.232114 C178.589374,291.232114 178.789284,291.259936 178.87213,291.310016 C178.956776,291.36566 179,291.462109 179,291.608638 C179,291.738474 178.96398,291.836778 178.893742,291.901696 C178.823503,291.966614 178.719045,292 178.576767,292 L175.421432,292 C175.280955,292 175.176497,291.966614 175.106258,291.901696 C175.03602,291.836778 175,291.738474 175,291.608638 C175,291.462109 175.043224,291.36566 175.126069,291.310016 C175.210716,291.259936 175.410626,291.232114 175.722197,291.232114 L176.59928,291.232114 L176.59928,285.923688 L175.606934,286.168521 Z" id="Fill-85" fill="#EC1C24"></path>
        <path d="M183.496874,285.754372 C183.027928,285.754372 182.665277,285.993827 182.404752,286.470936 C182.144227,286.951646 182.012922,287.6268 182.012922,288.4982 C182.012922,289.3768 182.144227,290.055556 182.404752,290.534465 C182.665277,291.015175 183.027928,291.25643 183.496874,291.25643 C183.969987,291.25643 184.334723,291.015175 184.595248,290.534465 C184.855773,290.055556 184.987078,289.3768 184.987078,288.4982 C184.987078,287.6268 184.855773,286.951646 184.595248,286.470936 C184.334723,285.993827 183.969987,285.754372 183.496874,285.754372 M183.496874,292 C182.731972,292 182.123385,291.688529 181.673197,291.061986 C181.225094,290.440844 181,289.583848 181,288.496399 C181,287.414352 181.225094,286.560957 181.673197,285.936214 C182.123385,285.313272 182.731972,285 183.496874,285 C184.261776,285 184.870363,285.313272 185.322634,285.939815 C185.774906,286.564558 186,287.417953 186,288.496399 C186,289.576646 185.774906,290.430041 185.322634,291.058385 C184.870363,291.684928 184.261776,292 183.496874,292" id="Fill-86" fill="#EC1C24"></path>
        <path d="M190.496874,285.754372 C190.027928,285.754372 189.665277,285.993827 189.404752,286.470936 C189.144227,286.951646 189.012922,287.6268 189.012922,288.4982 C189.012922,289.3768 189.144227,290.055556 189.404752,290.534465 C189.665277,291.015175 190.027928,291.25643 190.496874,291.25643 C190.969987,291.25643 191.334723,291.015175 191.595248,290.534465 C191.855773,290.055556 191.987078,289.3768 191.987078,288.4982 C191.987078,287.6268 191.855773,286.951646 191.595248,286.470936 C191.334723,285.993827 190.969987,285.754372 190.496874,285.754372 M190.496874,292 C189.731972,292 189.123385,291.688529 188.673197,291.061986 C188.225094,290.440844 188,289.583848 188,288.496399 C188,287.414352 188.225094,286.560957 188.673197,285.936214 C189.123385,285.313272 189.731972,285 190.496874,285 C191.261776,285 191.870363,285.313272 192.322634,285.939815 C192.774906,286.564558 193,287.417953 193,288.496399 C193,289.576646 192.774906,290.430041 192.322634,291.058385 C191.870363,291.684928 191.261776,292 190.496874,292" id="Fill-87" fill="#EC1C24"></path>
        <path d="M195.606934,286.168521 L195.504277,286.185215 C195.480864,286.188924 195.461054,286.190779 195.443044,286.190779 C195.334984,286.190779 195.244935,286.159247 195.176497,286.09433 C195.108059,286.033121 195.073841,285.947801 195.073841,285.842077 C195.073841,285.754902 195.104457,285.678855 195.16389,285.613937 C195.223323,285.54902 195.30977,285.500795 195.421432,285.467409 L196.990095,285.033386 C197.027915,285.022258 197.065736,285.014838 197.103557,285.007419 C197.139577,285.00371 197.177398,285 197.217019,285 C197.283656,285 197.335885,285.033386 197.373706,285.094595 C197.413327,285.159512 197.433138,285.244833 197.433138,285.354266 L197.433138,291.232114 L198.276002,291.232114 C198.589374,291.232114 198.789284,291.259936 198.87213,291.310016 C198.956776,291.36566 199,291.462109 199,291.608638 C199,291.738474 198.96398,291.836778 198.893742,291.901696 C198.823503,291.966614 198.719045,292 198.576767,292 L195.421432,292 C195.280955,292 195.176497,291.966614 195.106258,291.901696 C195.03602,291.836778 195,291.738474 195,291.608638 C195,291.462109 195.043224,291.36566 195.126069,291.310016 C195.210716,291.259936 195.410626,291.232114 195.722197,291.232114 L196.59928,291.232114 L196.59928,285.923688 L195.606934,286.168521 Z" id="Fill-88" fill="#EC1C24"></path>
        <path d="M202.496874,285.754372 C202.027928,285.754372 201.665277,285.993827 201.404752,286.470936 C201.144227,286.951646 201.012922,287.6268 201.012922,288.4982 C201.012922,289.3768 201.144227,290.055556 201.404752,290.534465 C201.665277,291.015175 202.027928,291.25643 202.496874,291.25643 C202.969987,291.25643 203.334723,291.015175 203.595248,290.534465 C203.855773,290.055556 203.987078,289.3768 203.987078,288.4982 C203.987078,287.6268 203.855773,286.951646 203.595248,286.470936 C203.334723,285.993827 202.969987,285.754372 202.496874,285.754372 M202.496874,292 C201.731972,292 201.123385,291.688529 200.673197,291.061986 C200.225094,290.440844 200,289.583848 200,288.496399 C200,287.414352 200.225094,286.560957 200.673197,285.936214 C201.123385,285.313272 201.731972,285 202.496874,285 C203.261776,285 203.870363,285.313272 204.322634,285.939815 C204.774906,286.564558 205,287.417953 205,288.496399 C205,289.576646 204.774906,290.430041 204.322634,291.058385 C203.870363,291.684928 203.261776,292 202.496874,292" id="Fill-89" fill="#EC1C24"></path>
        <path d="M207.606934,286.168521 L207.504277,286.185215 C207.480864,286.188924 207.461054,286.190779 207.443044,286.190779 C207.334984,286.190779 207.244935,286.159247 207.176497,286.09433 C207.108059,286.033121 207.073841,285.947801 207.073841,285.842077 C207.073841,285.754902 207.104457,285.678855 207.16389,285.613937 C207.223323,285.54902 207.30977,285.500795 207.421432,285.467409 L208.990095,285.033386 C209.027915,285.022258 209.065736,285.014838 209.103557,285.007419 C209.139577,285.00371 209.177398,285 209.217019,285 C209.283656,285 209.335885,285.033386 209.373706,285.094595 C209.413327,285.159512 209.433138,285.244833 209.433138,285.354266 L209.433138,291.232114 L210.276002,291.232114 C210.589374,291.232114 210.789284,291.259936 210.87213,291.310016 C210.956776,291.36566 211,291.462109 211,291.608638 C211,291.738474 210.96398,291.836778 210.893742,291.901696 C210.823503,291.966614 210.719045,292 210.576767,292 L207.421432,292 C207.280955,292 207.176497,291.966614 207.106258,291.901696 C207.03602,291.836778 207,291.738474 207,291.608638 C207,291.462109 207.043224,291.36566 207.126069,291.310016 C207.210716,291.259936 207.410626,291.232114 207.722197,291.232114 L208.59928,291.232114 L208.59928,285.923688 L207.606934,286.168521 Z" id="Fill-90" fill="#EC1C24"></path>
        <path d="M215.496874,285.754372 C215.027928,285.754372 214.665277,285.993827 214.404752,286.470936 C214.144227,286.951646 214.012922,287.6268 214.012922,288.4982 C214.012922,289.3768 214.144227,290.055556 214.404752,290.534465 C214.665277,291.015175 215.027928,291.25643 215.496874,291.25643 C215.969987,291.25643 216.334723,291.015175 216.595248,290.534465 C216.855773,290.055556 216.987078,289.3768 216.987078,288.4982 C216.987078,287.6268 216.855773,286.951646 216.595248,286.470936 C216.334723,285.993827 215.969987,285.754372 215.496874,285.754372 M215.496874,292 C214.731972,292 214.123385,291.688529 213.673197,291.061986 C213.225094,290.440844 213,289.583848 213,288.496399 C213,287.414352 213.225094,286.560957 213.673197,285.936214 C214.123385,285.313272 214.731972,285 215.496874,285 C216.261776,285 216.870363,285.313272 217.322634,285.939815 C217.774906,286.564558 218,287.417953 218,288.496399 C218,289.576646 217.774906,290.430041 217.322634,291.058385 C216.870363,291.684928 216.261776,292 215.496874,292" id="Fill-91" fill="#EC1C24"></path>
        <path d="M221.606934,286.168521 L221.504277,286.185215 C221.480864,286.188924 221.461054,286.190779 221.443044,286.190779 C221.334984,286.190779 221.244935,286.159247 221.176497,286.09433 C221.108059,286.033121 221.073841,285.947801 221.073841,285.842077 C221.073841,285.754902 221.104457,285.678855 221.16389,285.613937 C221.223323,285.54902 221.30977,285.500795 221.421432,285.467409 L222.990095,285.033386 C223.027915,285.022258 223.065736,285.014838 223.103557,285.007419 C223.139577,285.00371 223.177398,285 223.217019,285 C223.283656,285 223.335885,285.033386 223.373706,285.094595 C223.413327,285.159512 223.433138,285.244833 223.433138,285.354266 L223.433138,291.232114 L224.276002,291.232114 C224.589374,291.232114 224.789284,291.259936 224.87213,291.310016 C224.956776,291.36566 225,291.462109 225,291.608638 C225,291.738474 224.96398,291.836778 224.893742,291.901696 C224.823503,291.966614 224.719045,292 224.576767,292 L221.421432,292 C221.280955,292 221.176497,291.966614 221.106258,291.901696 C221.03602,291.836778 221,291.738474 221,291.608638 C221,291.462109 221.043224,291.36566 221.126069,291.310016 C221.210716,291.259936 221.410626,291.232114 221.722197,291.232114 L222.59928,291.232114 L222.59928,285.923688 L221.606934,286.168521 Z" id="Fill-92" fill="#EC1C24"></path>
        <path d="M229.496874,285.754372 C229.027928,285.754372 228.665277,285.993827 228.404752,286.470936 C228.144227,286.951646 228.012922,287.6268 228.012922,288.4982 C228.012922,289.3768 228.144227,290.055556 228.404752,290.534465 C228.665277,291.015175 229.027928,291.25643 229.496874,291.25643 C229.969987,291.25643 230.334723,291.015175 230.595248,290.534465 C230.855773,290.055556 230.987078,289.3768 230.987078,288.4982 C230.987078,287.6268 230.855773,286.951646 230.595248,286.470936 C230.334723,285.993827 229.969987,285.754372 229.496874,285.754372 M229.496874,292 C228.731972,292 228.123385,291.688529 227.673197,291.061986 C227.225094,290.440844 227,289.583848 227,288.496399 C227,287.414352 227.225094,286.560957 227.673197,285.936214 C228.123385,285.313272 228.731972,285 229.496874,285 C230.261776,285 230.870363,285.313272 231.322634,285.939815 C231.774906,286.564558 232,287.417953 232,288.496399 C232,289.576646 231.774906,290.430041 231.322634,291.058385 C230.870363,291.684928 230.261776,292 229.496874,292" id="Fill-93" fill="#EC1C24"></path>
        <path d="M233.606934,286.168521 L233.504277,286.185215 C233.480864,286.188924 233.461054,286.190779 233.443044,286.190779 C233.334984,286.190779 233.244935,286.159247 233.176497,286.09433 C233.108059,286.033121 233.073841,285.947801 233.073841,285.842077 C233.073841,285.754902 233.104457,285.678855 233.16389,285.613937 C233.223323,285.54902 233.30977,285.500795 233.421432,285.467409 L234.990095,285.033386 C235.027915,285.022258 235.065736,285.014838 235.103557,285.007419 C235.139577,285.00371 235.177398,285 235.217019,285 C235.283656,285 235.335885,285.033386 235.373706,285.094595 C235.413327,285.159512 235.433138,285.244833 235.433138,285.354266 L235.433138,291.232114 L236.276002,291.232114 C236.589374,291.232114 236.789284,291.259936 236.87213,291.310016 C236.956776,291.36566 237,291.462109 237,291.608638 C237,291.738474 236.96398,291.836778 236.893742,291.901696 C236.823503,291.966614 236.719045,292 236.576767,292 L233.421432,292 C233.280955,292 233.176497,291.966614 233.106258,291.901696 C233.03602,291.836778 233,291.738474 233,291.608638 C233,291.462109 233.043224,291.36566 233.126069,291.310016 C233.210716,291.259936 233.410626,291.232114 233.722197,291.232114 L234.59928,291.232114 L234.59928,285.923688 L233.606934,286.168521 Z" id="Fill-94" fill="#EC1C24"></path>
        <path d="M240.496874,285.754372 C240.027928,285.754372 239.665277,285.993827 239.404752,286.470936 C239.144227,286.951646 239.012922,287.6268 239.012922,288.4982 C239.012922,289.3768 239.144227,290.055556 239.404752,290.534465 C239.665277,291.015175 240.027928,291.25643 240.496874,291.25643 C240.969987,291.25643 241.334723,291.015175 241.595248,290.534465 C241.855773,290.055556 241.987078,289.3768 241.987078,288.4982 C241.987078,287.6268 241.855773,286.951646 241.595248,286.470936 C241.334723,285.993827 240.969987,285.754372 240.496874,285.754372 M240.496874,292 C239.731972,292 239.123385,291.688529 238.673197,291.061986 C238.225094,290.440844 238,289.583848 238,288.496399 C238,287.414352 238.225094,286.560957 238.673197,285.936214 C239.123385,285.313272 239.731972,285 240.496874,285 C241.261776,285 241.870363,285.313272 242.322634,285.939815 C242.774906,286.564558 243,287.417953 243,288.496399 C243,289.576646 242.774906,290.430041 242.322634,291.058385 C241.870363,291.684928 241.261776,292 240.496874,292" id="Fill-95" fill="#EC1C24"></path>
        <path d="M247.496874,285.754372 C247.027928,285.754372 246.665277,285.993827 246.404752,286.470936 C246.144227,286.951646 246.012922,287.6268 246.012922,288.4982 C246.012922,289.3768 246.144227,290.055556 246.404752,290.534465 C246.665277,291.015175 247.027928,291.25643 247.496874,291.25643 C247.969987,291.25643 248.334723,291.015175 248.595248,290.534465 C248.855773,290.055556 248.987078,289.3768 248.987078,288.4982 C248.987078,287.6268 248.855773,286.951646 248.595248,286.470936 C248.334723,285.993827 247.969987,285.754372 247.496874,285.754372 M247.496874,292 C246.731972,292 246.123385,291.688529 245.673197,291.061986 C245.225094,290.440844 245,289.583848 245,288.496399 C245,287.414352 245.225094,286.560957 245.673197,285.936214 C246.123385,285.313272 246.731972,285 247.496874,285 C248.261776,285 248.870363,285.313272 249.322634,285.939815 C249.774906,286.564558 250,287.417953 250,288.496399 C250,289.576646 249.774906,290.430041 249.322634,291.058385 C248.870363,291.684928 248.261776,292 247.496874,292" id="Fill-96" fill="#EC1C24"></path>
        <path d="M253.606934,286.168521 L253.504277,286.185215 C253.480864,286.188924 253.461054,286.190779 253.443044,286.190779 C253.334984,286.190779 253.244935,286.159247 253.176497,286.09433 C253.108059,286.033121 253.073841,285.947801 253.073841,285.842077 C253.073841,285.754902 253.104457,285.678855 253.16389,285.613937 C253.223323,285.54902 253.30977,285.500795 253.421432,285.467409 L254.990095,285.033386 C255.027915,285.022258 255.065736,285.014838 255.103557,285.007419 C255.139577,285.00371 255.177398,285 255.217019,285 C255.283656,285 255.335885,285.033386 255.373706,285.094595 C255.413327,285.159512 255.433138,285.244833 255.433138,285.354266 L255.433138,291.232114 L256.276002,291.232114 C256.589374,291.232114 256.789284,291.259936 256.87213,291.310016 C256.956776,291.36566 257,291.462109 257,291.608638 C257,291.738474 256.96398,291.836778 256.893742,291.901696 C256.823503,291.966614 256.719045,292 256.576767,292 L253.421432,292 C253.280955,292 253.176497,291.966614 253.106258,291.901696 C253.03602,291.836778 253,291.738474 253,291.608638 C253,291.462109 253.043224,291.36566 253.126069,291.310016 C253.210716,291.259936 253.410626,291.232114 253.722197,291.232114 L254.59928,291.232114 L254.59928,285.923688 L253.606934,286.168521 Z" id="Fill-97" fill="#EC1C24"></path>
        <path d="M178.496874,298.754372 C178.027928,298.754372 177.665277,298.993827 177.404752,299.470936 C177.144227,299.951646 177.012922,300.6268 177.012922,301.4982 C177.012922,302.3768 177.144227,303.055556 177.404752,303.534465 C177.665277,304.015175 178.027928,304.25643 178.496874,304.25643 C178.969987,304.25643 179.334723,304.015175 179.595248,303.534465 C179.855773,303.055556 179.987078,302.3768 179.987078,301.4982 C179.987078,300.6268 179.855773,299.951646 179.595248,299.470936 C179.334723,298.993827 178.969987,298.754372 178.496874,298.754372 M178.496874,305 C177.731972,305 177.123385,304.688529 176.673197,304.061986 C176.225094,303.440844 176,302.583848 176,301.496399 C176,300.414352 176.225094,299.560957 176.673197,298.936214 C177.123385,298.313272 177.731972,298 178.496874,298 C179.261776,298 179.870363,298.313272 180.322634,298.939815 C180.774906,299.564558 181,300.417953 181,301.496399 C181,302.576646 180.774906,303.430041 180.322634,304.058385 C179.870363,304.684928 179.261776,305 178.496874,305" id="Fill-98" fill="#EC1C24"></path>
        <path d="M183.606934,298.168521 L183.504277,298.185215 C183.480864,298.188924 183.461054,298.190779 183.443044,298.190779 C183.334984,298.190779 183.244935,298.159247 183.176497,298.09433 C183.108059,298.033121 183.073841,297.947801 183.073841,297.842077 C183.073841,297.754902 183.104457,297.678855 183.16389,297.613937 C183.223323,297.54902 183.30977,297.500795 183.421432,297.467409 L184.990095,297.033386 C185.027915,297.022258 185.065736,297.014838 185.103557,297.007419 C185.139577,297.00371 185.177398,297 185.217019,297 C185.283656,297 185.335885,297.033386 185.373706,297.094595 C185.413327,297.159512 185.433138,297.244833 185.433138,297.354266 L185.433138,303.232114 L186.276002,303.232114 C186.589374,303.232114 186.789284,303.259936 186.87213,303.310016 C186.956776,303.36566 187,303.462109 187,303.608638 C187,303.738474 186.96398,303.836778 186.893742,303.901696 C186.823503,303.966614 186.719045,304 186.576767,304 L183.421432,304 C183.280955,304 183.176497,303.966614 183.106258,303.901696 C183.03602,303.836778 183,303.738474 183,303.608638 C183,303.462109 183.043224,303.36566 183.126069,303.310016 C183.210716,303.259936 183.410626,303.232114 183.722197,303.232114 L184.59928,303.232114 L184.59928,297.923688 L183.606934,298.168521 Z" id="Fill-99" fill="#EC1C24"></path>
        <path d="M192.496874,298.754372 C192.027928,298.754372 191.665277,298.993827 191.404752,299.470936 C191.144227,299.951646 191.012922,300.6268 191.012922,301.4982 C191.012922,302.3768 191.144227,303.055556 191.404752,303.534465 C191.665277,304.015175 192.027928,304.25643 192.496874,304.25643 C192.969987,304.25643 193.334723,304.015175 193.595248,303.534465 C193.855773,303.055556 193.987078,302.3768 193.987078,301.4982 C193.987078,300.6268 193.855773,299.951646 193.595248,299.470936 C193.334723,298.993827 192.969987,298.754372 192.496874,298.754372 M192.496874,305 C191.731972,305 191.123385,304.688529 190.673197,304.061986 C190.225094,303.440844 190,302.583848 190,301.496399 C190,300.414352 190.225094,299.560957 190.673197,298.936214 C191.123385,298.313272 191.731972,298 192.496874,298 C193.261776,298 193.870363,298.313272 194.322634,298.939815 C194.774906,299.564558 195,300.417953 195,301.496399 C195,302.576646 194.774906,303.430041 194.322634,304.058385 C193.870363,304.684928 193.261776,305 192.496874,305" id="Fill-100" fill="#EC1C24"></path>
        <path d="M199.496874,298.754372 C199.027928,298.754372 198.665277,298.993827 198.404752,299.470936 C198.144227,299.951646 198.012922,300.6268 198.012922,301.4982 C198.012922,302.3768 198.144227,303.055556 198.404752,303.534465 C198.665277,304.015175 199.027928,304.25643 199.496874,304.25643 C199.969987,304.25643 200.334723,304.015175 200.595248,303.534465 C200.855773,303.055556 200.987078,302.3768 200.987078,301.4982 C200.987078,300.6268 200.855773,299.951646 200.595248,299.470936 C200.334723,298.993827 199.969987,298.754372 199.496874,298.754372 M199.496874,305 C198.731972,305 198.123385,304.688529 197.673197,304.061986 C197.225094,303.440844 197,302.583848 197,301.496399 C197,300.414352 197.225094,299.560957 197.673197,298.936214 C198.123385,298.313272 198.731972,298 199.496874,298 C200.261776,298 200.870363,298.313272 201.322634,298.939815 C201.774906,299.564558 202,300.417953 202,301.496399 C202,302.576646 201.774906,303.430041 201.322634,304.058385 C200.870363,304.684928 200.261776,305 199.496874,305" id="Fill-101" fill="#EC1C24"></path>
        <path d="M203.606934,298.168521 L203.504277,298.185215 C203.480864,298.188924 203.461054,298.190779 203.443044,298.190779 C203.334984,298.190779 203.244935,298.159247 203.176497,298.09433 C203.108059,298.033121 203.073841,297.947801 203.073841,297.842077 C203.073841,297.754902 203.104457,297.678855 203.16389,297.613937 C203.223323,297.54902 203.30977,297.500795 203.421432,297.467409 L204.990095,297.033386 C205.027915,297.022258 205.065736,297.014838 205.103557,297.007419 C205.139577,297.00371 205.177398,297 205.217019,297 C205.283656,297 205.335885,297.033386 205.373706,297.094595 C205.413327,297.159512 205.433138,297.244833 205.433138,297.354266 L205.433138,303.232114 L206.276002,303.232114 C206.589374,303.232114 206.789284,303.259936 206.87213,303.310016 C206.956776,303.36566 207,303.462109 207,303.608638 C207,303.738474 206.96398,303.836778 206.893742,303.901696 C206.823503,303.966614 206.719045,304 206.576767,304 L203.421432,304 C203.280955,304 203.176497,303.966614 203.106258,303.901696 C203.03602,303.836778 203,303.738474 203,303.608638 C203,303.462109 203.043224,303.36566 203.126069,303.310016 C203.210716,303.259936 203.410626,303.232114 203.722197,303.232114 L204.59928,303.232114 L204.59928,297.923688 L203.606934,298.168521 Z" id="Fill-102" fill="#EC1C24"></path>
        <path d="M210.496874,298.754372 C210.027928,298.754372 209.665277,298.993827 209.404752,299.470936 C209.144227,299.951646 209.012922,300.6268 209.012922,301.4982 C209.012922,302.3768 209.144227,303.055556 209.404752,303.534465 C209.665277,304.015175 210.027928,304.25643 210.496874,304.25643 C210.969987,304.25643 211.334723,304.015175 211.595248,303.534465 C211.855773,303.055556 211.987078,302.3768 211.987078,301.4982 C211.987078,300.6268 211.855773,299.951646 211.595248,299.470936 C211.334723,298.993827 210.969987,298.754372 210.496874,298.754372 M210.496874,305 C209.731972,305 209.123385,304.688529 208.673197,304.061986 C208.225094,303.440844 208,302.583848 208,301.496399 C208,300.414352 208.225094,299.560957 208.673197,298.936214 C209.123385,298.313272 209.731972,298 210.496874,298 C211.261776,298 211.870363,298.313272 212.322634,298.939815 C212.774906,299.564558 213,300.417953 213,301.496399 C213,302.576646 212.774906,303.430041 212.322634,304.058385 C211.870363,304.684928 211.261776,305 210.496874,305" id="Fill-103" fill="#EC1C24"></path>
        <path d="M215.606934,298.168521 L215.504277,298.185215 C215.480864,298.188924 215.461054,298.190779 215.443044,298.190779 C215.334984,298.190779 215.244935,298.159247 215.176497,298.09433 C215.108059,298.033121 215.073841,297.947801 215.073841,297.842077 C215.073841,297.754902 215.104457,297.678855 215.16389,297.613937 C215.223323,297.54902 215.30977,297.500795 215.421432,297.467409 L216.990095,297.033386 C217.027915,297.022258 217.065736,297.014838 217.103557,297.007419 C217.139577,297.00371 217.177398,297 217.217019,297 C217.283656,297 217.335885,297.033386 217.373706,297.094595 C217.413327,297.159512 217.433138,297.244833 217.433138,297.354266 L217.433138,303.232114 L218.276002,303.232114 C218.589374,303.232114 218.789284,303.259936 218.87213,303.310016 C218.956776,303.36566 219,303.462109 219,303.608638 C219,303.738474 218.96398,303.836778 218.893742,303.901696 C218.823503,303.966614 218.719045,304 218.576767,304 L215.421432,304 C215.280955,304 215.176497,303.966614 215.106258,303.901696 C215.03602,303.836778 215,303.738474 215,303.608638 C215,303.462109 215.043224,303.36566 215.126069,303.310016 C215.210716,303.259936 215.410626,303.232114 215.722197,303.232114 L216.59928,303.232114 L216.59928,297.923688 L215.606934,298.168521 Z" id="Fill-104" fill="#EC1C24"></path>
        <path d="M224.496874,298.754372 C224.027928,298.754372 223.665277,298.993827 223.404752,299.470936 C223.144227,299.951646 223.012922,300.6268 223.012922,301.4982 C223.012922,302.3768 223.144227,303.055556 223.404752,303.534465 C223.665277,304.015175 224.027928,304.25643 224.496874,304.25643 C224.969987,304.25643 225.334723,304.015175 225.595248,303.534465 C225.855773,303.055556 225.987078,302.3768 225.987078,301.4982 C225.987078,300.6268 225.855773,299.951646 225.595248,299.470936 C225.334723,298.993827 224.969987,298.754372 224.496874,298.754372 M224.496874,305 C223.731972,305 223.123385,304.688529 222.673197,304.061986 C222.225094,303.440844 222,302.583848 222,301.496399 C222,300.414352 222.225094,299.560957 222.673197,298.936214 C223.123385,298.313272 223.731972,298 224.496874,298 C225.261776,298 225.870363,298.313272 226.322634,298.939815 C226.774906,299.564558 227,300.417953 227,301.496399 C227,302.576646 226.774906,303.430041 226.322634,304.058385 C225.870363,304.684928 225.261776,305 224.496874,305" id="Fill-105" fill="#EC1C24"></path>
        <path d="M229.606934,298.168521 L229.504277,298.185215 C229.480864,298.188924 229.461054,298.190779 229.443044,298.190779 C229.334984,298.190779 229.244935,298.159247 229.176497,298.09433 C229.108059,298.033121 229.073841,297.947801 229.073841,297.842077 C229.073841,297.754902 229.104457,297.678855 229.16389,297.613937 C229.223323,297.54902 229.30977,297.500795 229.421432,297.467409 L230.990095,297.033386 C231.027915,297.022258 231.065736,297.014838 231.103557,297.007419 C231.139577,297.00371 231.177398,297 231.217019,297 C231.283656,297 231.335885,297.033386 231.373706,297.094595 C231.413327,297.159512 231.433138,297.244833 231.433138,297.354266 L231.433138,303.232114 L232.276002,303.232114 C232.589374,303.232114 232.789284,303.259936 232.87213,303.310016 C232.956776,303.36566 233,303.462109 233,303.608638 C233,303.738474 232.96398,303.836778 232.893742,303.901696 C232.823503,303.966614 232.719045,304 232.576767,304 L229.421432,304 C229.280955,304 229.176497,303.966614 229.106258,303.901696 C229.03602,303.836778 229,303.738474 229,303.608638 C229,303.462109 229.043224,303.36566 229.126069,303.310016 C229.210716,303.259936 229.410626,303.232114 229.722197,303.232114 L230.59928,303.232114 L230.59928,297.923688 L229.606934,298.168521 Z" id="Fill-106" fill="#EC1C24"></path>
        <path d="M236.496874,298.754372 C236.027928,298.754372 235.665277,298.993827 235.404752,299.470936 C235.144227,299.951646 235.012922,300.6268 235.012922,301.4982 C235.012922,302.3768 235.144227,303.055556 235.404752,303.534465 C235.665277,304.015175 236.027928,304.25643 236.496874,304.25643 C236.969987,304.25643 237.334723,304.015175 237.595248,303.534465 C237.855773,303.055556 237.987078,302.3768 237.987078,301.4982 C237.987078,300.6268 237.855773,299.951646 237.595248,299.470936 C237.334723,298.993827 236.969987,298.754372 236.496874,298.754372 M236.496874,305 C235.731972,305 235.123385,304.688529 234.673197,304.061986 C234.225094,303.440844 234,302.583848 234,301.496399 C234,300.414352 234.225094,299.560957 234.673197,298.936214 C235.123385,298.313272 235.731972,298 236.496874,298 C237.261776,298 237.870363,298.313272 238.322634,298.939815 C238.774906,299.564558 239,300.417953 239,301.496399 C239,302.576646 238.774906,303.430041 238.322634,304.058385 C237.870363,304.684928 237.261776,305 236.496874,305" id="Fill-107" fill="#EC1C24"></path>
        <path d="M242.496874,298.754372 C242.027928,298.754372 241.665277,298.993827 241.404752,299.470936 C241.144227,299.951646 241.012922,300.6268 241.012922,301.4982 C241.012922,302.3768 241.144227,303.055556 241.404752,303.534465 C241.665277,304.015175 242.027928,304.25643 242.496874,304.25643 C242.969987,304.25643 243.334723,304.015175 243.595248,303.534465 C243.855773,303.055556 243.987078,302.3768 243.987078,301.4982 C243.987078,300.6268 243.855773,299.951646 243.595248,299.470936 C243.334723,298.993827 242.969987,298.754372 242.496874,298.754372 M242.496874,305 C241.731972,305 241.123385,304.688529 240.673197,304.061986 C240.225094,303.440844 240,302.583848 240,301.496399 C240,300.414352 240.225094,299.560957 240.673197,298.936214 C241.123385,298.313272 241.731972,298 242.496874,298 C243.261776,298 243.870363,298.313272 244.322634,298.939815 C244.774906,299.564558 245,300.417953 245,301.496399 C245,302.576646 244.774906,303.430041 244.322634,304.058385 C243.870363,304.684928 243.261776,305 242.496874,305" id="Fill-108" fill="#EC1C24"></path>
        <path d="M247.606934,298.168521 L247.504277,298.185215 C247.480864,298.188924 247.461054,298.190779 247.443044,298.190779 C247.334984,298.190779 247.244935,298.159247 247.176497,298.09433 C247.108059,298.033121 247.073841,297.947801 247.073841,297.842077 C247.073841,297.754902 247.104457,297.678855 247.16389,297.613937 C247.223323,297.54902 247.30977,297.500795 247.421432,297.467409 L248.990095,297.033386 C249.027915,297.022258 249.065736,297.014838 249.103557,297.007419 C249.139577,297.00371 249.177398,297 249.217019,297 C249.283656,297 249.335885,297.033386 249.373706,297.094595 C249.413327,297.159512 249.433138,297.244833 249.433138,297.354266 L249.433138,303.232114 L250.276002,303.232114 C250.589374,303.232114 250.789284,303.259936 250.87213,303.310016 C250.956776,303.36566 251,303.462109 251,303.608638 C251,303.738474 250.96398,303.836778 250.893742,303.901696 C250.823503,303.966614 250.719045,304 250.576767,304 L247.421432,304 C247.280955,304 247.176497,303.966614 247.106258,303.901696 C247.03602,303.836778 247,303.738474 247,303.608638 C247,303.462109 247.043224,303.36566 247.126069,303.310016 C247.210716,303.259936 247.410626,303.232114 247.722197,303.232114 L248.59928,303.232114 L248.59928,297.923688 L247.606934,298.168521 Z" id="Fill-109" fill="#EC1C24"></path>
        <path d="M188.496874,310.754372 C188.027928,310.754372 187.665277,310.993827 187.404752,311.470936 C187.144227,311.951646 187.012922,312.6268 187.012922,313.4982 C187.012922,314.3768 187.144227,315.055556 187.404752,315.534465 C187.665277,316.015175 188.027928,316.25643 188.496874,316.25643 C188.969987,316.25643 189.334723,316.015175 189.595248,315.534465 C189.855773,315.055556 189.987078,314.3768 189.987078,313.4982 C189.987078,312.6268 189.855773,311.951646 189.595248,311.470936 C189.334723,310.993827 188.969987,310.754372 188.496874,310.754372 M188.496874,317 C187.731972,317 187.123385,316.688529 186.673197,316.061986 C186.225094,315.440844 186,314.583848 186,313.496399 C186,312.414352 186.225094,311.560957 186.673197,310.936214 C187.123385,310.313272 187.731972,310 188.496874,310 C189.261776,310 189.870363,310.313272 190.322634,310.939815 C190.774906,311.564558 191,312.417953 191,313.496399 C191,314.576646 190.774906,315.430041 190.322634,316.058385 C189.870363,316.684928 189.261776,317 188.496874,317" id="Fill-110" fill="#EC1C24"></path>
        <path d="M193.606934,311.168521 L193.504277,311.185215 C193.480864,311.188924 193.461054,311.190779 193.443044,311.190779 C193.334984,311.190779 193.244935,311.159247 193.176497,311.09433 C193.108059,311.033121 193.073841,310.947801 193.073841,310.842077 C193.073841,310.754902 193.104457,310.678855 193.16389,310.613937 C193.223323,310.54902 193.30977,310.500795 193.421432,310.467409 L194.990095,310.033386 C195.027915,310.022258 195.065736,310.014838 195.103557,310.007419 C195.139577,310.00371 195.177398,310 195.217019,310 C195.283656,310 195.335885,310.033386 195.373706,310.094595 C195.413327,310.159512 195.433138,310.244833 195.433138,310.354266 L195.433138,316.232114 L196.276002,316.232114 C196.589374,316.232114 196.789284,316.259936 196.87213,316.310016 C196.956776,316.36566 197,316.462109 197,316.608638 C197,316.738474 196.96398,316.836778 196.893742,316.901696 C196.823503,316.966614 196.719045,317 196.576767,317 L193.421432,317 C193.280955,317 193.176497,316.966614 193.106258,316.901696 C193.03602,316.836778 193,316.738474 193,316.608638 C193,316.462109 193.043224,316.36566 193.126069,316.310016 C193.210716,316.259936 193.410626,316.232114 193.722197,316.232114 L194.59928,316.232114 L194.59928,310.923688 L193.606934,311.168521 Z" id="Fill-111" fill="#EC1C24"></path>
        <path d="M199.496874,310.754372 C199.027928,310.754372 198.665277,310.993827 198.404752,311.470936 C198.144227,311.951646 198.012922,312.6268 198.012922,313.4982 C198.012922,314.3768 198.144227,315.055556 198.404752,315.534465 C198.665277,316.015175 199.027928,316.25643 199.496874,316.25643 C199.969987,316.25643 200.334723,316.015175 200.595248,315.534465 C200.855773,315.055556 200.987078,314.3768 200.987078,313.4982 C200.987078,312.6268 200.855773,311.951646 200.595248,311.470936 C200.334723,310.993827 199.969987,310.754372 199.496874,310.754372 M199.496874,317 C198.731972,317 198.123385,316.688529 197.673197,316.061986 C197.225094,315.440844 197,314.583848 197,313.496399 C197,312.414352 197.225094,311.560957 197.673197,310.936214 C198.123385,310.313272 198.731972,310 199.496874,310 C200.261776,310 200.870363,310.313272 201.322634,310.939815 C201.774906,311.564558 202,312.417953 202,313.496399 C202,314.576646 201.774906,315.430041 201.322634,316.058385 C200.870363,316.684928 200.261776,317 199.496874,317" id="Fill-112" fill="#EC1C24"></path>
        <path d="M203.606934,311.168521 L203.504277,311.185215 C203.480864,311.188924 203.461054,311.190779 203.443044,311.190779 C203.334984,311.190779 203.244935,311.159247 203.176497,311.09433 C203.108059,311.033121 203.073841,310.947801 203.073841,310.842077 C203.073841,310.754902 203.104457,310.678855 203.16389,310.613937 C203.223323,310.54902 203.30977,310.500795 203.421432,310.467409 L204.990095,310.033386 C205.027915,310.022258 205.065736,310.014838 205.103557,310.007419 C205.139577,310.00371 205.177398,310 205.217019,310 C205.283656,310 205.335885,310.033386 205.373706,310.094595 C205.413327,310.159512 205.433138,310.244833 205.433138,310.354266 L205.433138,316.232114 L206.276002,316.232114 C206.589374,316.232114 206.789284,316.259936 206.87213,316.310016 C206.956776,316.36566 207,316.462109 207,316.608638 C207,316.738474 206.96398,316.836778 206.893742,316.901696 C206.823503,316.966614 206.719045,317 206.576767,317 L203.421432,317 C203.280955,317 203.176497,316.966614 203.106258,316.901696 C203.03602,316.836778 203,316.738474 203,316.608638 C203,316.462109 203.043224,316.36566 203.126069,316.310016 C203.210716,316.259936 203.410626,316.232114 203.722197,316.232114 L204.59928,316.232114 L204.59928,310.923688 L203.606934,311.168521 Z" id="Fill-113" fill="#EC1C24"></path>
        <path d="M212.496874,310.754372 C212.027928,310.754372 211.665277,310.993827 211.404752,311.470936 C211.144227,311.951646 211.012922,312.6268 211.012922,313.4982 C211.012922,314.3768 211.144227,315.055556 211.404752,315.534465 C211.665277,316.015175 212.027928,316.25643 212.496874,316.25643 C212.969987,316.25643 213.334723,316.015175 213.595248,315.534465 C213.855773,315.055556 213.987078,314.3768 213.987078,313.4982 C213.987078,312.6268 213.855773,311.951646 213.595248,311.470936 C213.334723,310.993827 212.969987,310.754372 212.496874,310.754372 M212.496874,317 C211.731972,317 211.123385,316.688529 210.673197,316.061986 C210.225094,315.440844 210,314.583848 210,313.496399 C210,312.414352 210.225094,311.560957 210.673197,310.936214 C211.123385,310.313272 211.731972,310 212.496874,310 C213.261776,310 213.870363,310.313272 214.322634,310.939815 C214.774906,311.564558 215,312.417953 215,313.496399 C215,314.576646 214.774906,315.430041 214.322634,316.058385 C213.870363,316.684928 213.261776,317 212.496874,317" id="Fill-114" fill="#EC1C24"></path>
        <path d="M218.606934,311.168521 L218.504277,311.185215 C218.480864,311.188924 218.461054,311.190779 218.443044,311.190779 C218.334984,311.190779 218.244935,311.159247 218.176497,311.09433 C218.108059,311.033121 218.073841,310.947801 218.073841,310.842077 C218.073841,310.754902 218.104457,310.678855 218.16389,310.613937 C218.223323,310.54902 218.30977,310.500795 218.421432,310.467409 L219.990095,310.033386 C220.027915,310.022258 220.065736,310.014838 220.103557,310.007419 C220.139577,310.00371 220.177398,310 220.217019,310 C220.283656,310 220.335885,310.033386 220.373706,310.094595 C220.413327,310.159512 220.433138,310.244833 220.433138,310.354266 L220.433138,316.232114 L221.276002,316.232114 C221.589374,316.232114 221.789284,316.259936 221.87213,316.310016 C221.956776,316.36566 222,316.462109 222,316.608638 C222,316.738474 221.96398,316.836778 221.893742,316.901696 C221.823503,316.966614 221.719045,317 221.576767,317 L218.421432,317 C218.280955,317 218.176497,316.966614 218.106258,316.901696 C218.03602,316.836778 218,316.738474 218,316.608638 C218,316.462109 218.043224,316.36566 218.126069,316.310016 C218.210716,316.259936 218.410626,316.232114 218.722197,316.232114 L219.59928,316.232114 L219.59928,310.923688 L218.606934,311.168521 Z" id="Fill-115" fill="#EC1C24"></path>
        <path d="M226.496874,310.754372 C226.027928,310.754372 225.665277,310.993827 225.404752,311.470936 C225.144227,311.951646 225.012922,312.6268 225.012922,313.4982 C225.012922,314.3768 225.144227,315.055556 225.404752,315.534465 C225.665277,316.015175 226.027928,316.25643 226.496874,316.25643 C226.969987,316.25643 227.334723,316.015175 227.595248,315.534465 C227.855773,315.055556 227.987078,314.3768 227.987078,313.4982 C227.987078,312.6268 227.855773,311.951646 227.595248,311.470936 C227.334723,310.993827 226.969987,310.754372 226.496874,310.754372 M226.496874,317 C225.731972,317 225.123385,316.688529 224.673197,316.061986 C224.225094,315.440844 224,314.583848 224,313.496399 C224,312.414352 224.225094,311.560957 224.673197,310.936214 C225.123385,310.313272 225.731972,310 226.496874,310 C227.261776,310 227.870363,310.313272 228.322634,310.939815 C228.774906,311.564558 229,312.417953 229,313.496399 C229,314.576646 228.774906,315.430041 228.322634,316.058385 C227.870363,316.684928 227.261776,317 226.496874,317" id="Fill-116" fill="#EC1C24"></path>
        <path d="M231.606934,311.168521 L231.504277,311.185215 C231.480864,311.188924 231.461054,311.190779 231.443044,311.190779 C231.334984,311.190779 231.244935,311.159247 231.176497,311.09433 C231.108059,311.033121 231.073841,310.947801 231.073841,310.842077 C231.073841,310.754902 231.104457,310.678855 231.16389,310.613937 C231.223323,310.54902 231.30977,310.500795 231.421432,310.467409 L232.990095,310.033386 C233.027915,310.022258 233.065736,310.014838 233.103557,310.007419 C233.139577,310.00371 233.177398,310 233.217019,310 C233.283656,310 233.335885,310.033386 233.373706,310.094595 C233.413327,310.159512 233.433138,310.244833 233.433138,310.354266 L233.433138,316.232114 L234.276002,316.232114 C234.589374,316.232114 234.789284,316.259936 234.87213,316.310016 C234.956776,316.36566 235,316.462109 235,316.608638 C235,316.738474 234.96398,316.836778 234.893742,316.901696 C234.823503,316.966614 234.719045,317 234.576767,317 L231.421432,317 C231.280955,317 231.176497,316.966614 231.106258,316.901696 C231.03602,316.836778 231,316.738474 231,316.608638 C231,316.462109 231.043224,316.36566 231.126069,316.310016 C231.210716,316.259936 231.410626,316.232114 231.722197,316.232114 L232.59928,316.232114 L232.59928,310.923688 L231.606934,311.168521 Z" id="Fill-117" fill="#EC1C24"></path>
        <path d="M238.496874,310.754372 C238.027928,310.754372 237.665277,310.993827 237.404752,311.470936 C237.144227,311.951646 237.012922,312.6268 237.012922,313.4982 C237.012922,314.3768 237.144227,315.055556 237.404752,315.534465 C237.665277,316.015175 238.027928,316.25643 238.496874,316.25643 C238.969987,316.25643 239.334723,316.015175 239.595248,315.534465 C239.855773,315.055556 239.987078,314.3768 239.987078,313.4982 C239.987078,312.6268 239.855773,311.951646 239.595248,311.470936 C239.334723,310.993827 238.969987,310.754372 238.496874,310.754372 M238.496874,317 C237.731972,317 237.123385,316.688529 236.673197,316.061986 C236.225094,315.440844 236,314.583848 236,313.496399 C236,312.414352 236.225094,311.560957 236.673197,310.936214 C237.123385,310.313272 237.731972,310 238.496874,310 C239.261776,310 239.870363,310.313272 240.322634,310.939815 C240.774906,311.564558 241,312.417953 241,313.496399 C241,314.576646 240.774906,315.430041 240.322634,316.058385 C239.870363,316.684928 239.261776,317 238.496874,317" id="Fill-118" fill="#EC1C24"></path>
        <path d="M243.606934,311.168521 C243.561909,311.175941 243.52769,311.181505 243.504277,311.185215 C243.480864,311.188924 243.461054,311.190779 243.443044,311.190779 C243.334984,311.190779 243.244935,311.159247 243.176497,311.09433 C243.108059,311.033121 243.073841,310.947801 243.073841,310.842077 C243.073841,310.754902 243.104457,310.678855 243.16389,310.613937 C243.223323,310.54902 243.30977,310.500795 243.421432,310.467409 L244.990095,310.033386 C245.027915,310.022258 245.065736,310.014838 245.103557,310.007419 C245.139577,310.00371 245.177398,310 245.217019,310 C245.283656,310 245.335885,310.033386 245.373706,310.094595 C245.413327,310.159512 245.433138,310.244833 245.433138,310.354266 L245.433138,316.232114 L246.276002,316.232114 C246.589374,316.232114 246.789284,316.259936 246.87213,316.310016 C246.956776,316.36566 247,316.462109 247,316.608638 C247,316.738474 246.96398,316.836778 246.893742,316.901696 C246.823503,316.966614 246.719045,317 246.576767,317 L243.421432,317 C243.280955,317 243.176497,316.966614 243.106258,316.901696 C243.03602,316.836778 243,316.738474 243,316.608638 C243,316.462109 243.043224,316.36566 243.126069,316.310016 C243.210716,316.259936 243.410626,316.232114 243.722197,316.232114 L244.59928,316.232114 L244.59928,310.923688 L243.606934,311.168521 Z" id="Fill-119" fill="#EC1C24"></path>
        <path d="M203.496874,323.754372 C203.027928,323.754372 202.665277,323.993827 202.404752,324.470936 C202.144227,324.951646 202.012922,325.6268 202.012922,326.4982 C202.012922,327.3768 202.144227,328.055556 202.404752,328.534465 C202.665277,329.015175 203.027928,329.25643 203.496874,329.25643 C203.969987,329.25643 204.334723,329.015175 204.595248,328.534465 C204.855773,328.055556 204.987078,327.3768 204.987078,326.4982 C204.987078,325.6268 204.855773,324.951646 204.595248,324.470936 C204.334723,323.993827 203.969987,323.754372 203.496874,323.754372 M203.496874,330 C202.731972,330 202.123385,329.688529 201.673197,329.061986 C201.225094,328.440844 201,327.583848 201,326.496399 C201,325.414352 201.225094,324.560957 201.673197,323.936214 C202.123385,323.313272 202.731972,323 203.496874,323 C204.261776,323 204.870363,323.313272 205.322634,323.939815 C205.774906,324.564558 206,325.417953 206,326.496399 C206,327.576646 205.774906,328.430041 205.322634,329.058385 C204.870363,329.684928 204.261776,330 203.496874,330" id="Fill-120" fill="#EC1C24"></path>
        <path d="M208.606934,324.168521 L208.504277,324.185215 C208.480864,324.188924 208.461054,324.190779 208.443044,324.190779 C208.334984,324.190779 208.244935,324.159247 208.176497,324.09433 C208.108059,324.033121 208.073841,323.947801 208.073841,323.842077 C208.073841,323.754902 208.104457,323.678855 208.16389,323.613937 C208.223323,323.54902 208.30977,323.500795 208.421432,323.467409 L209.990095,323.033386 C210.027915,323.022258 210.065736,323.014838 210.103557,323.007419 C210.139577,323.00371 210.177398,323 210.217019,323 C210.283656,323 210.335885,323.033386 210.373706,323.094595 C210.413327,323.159512 210.433138,323.244833 210.433138,323.354266 L210.433138,329.232114 L211.276002,329.232114 C211.589374,329.232114 211.789284,329.259936 211.87213,329.310016 C211.956776,329.36566 212,329.462109 212,329.608638 C212,329.738474 211.96398,329.836778 211.893742,329.901696 C211.823503,329.966614 211.719045,330 211.576767,330 L208.421432,330 C208.280955,330 208.176497,329.966614 208.106258,329.901696 C208.03602,329.836778 208,329.738474 208,329.608638 C208,329.462109 208.043224,329.36566 208.126069,329.310016 C208.210716,329.259936 208.410626,329.232114 208.722197,329.232114 L209.59928,329.232114 L209.59928,323.923688 L208.606934,324.168521 Z" id="Fill-121" fill="#EC1C24"></path>
        <path d="M216.496874,323.754372 C216.027928,323.754372 215.665277,323.993827 215.404752,324.470936 C215.144227,324.951646 215.012922,325.6268 215.012922,326.4982 C215.012922,327.3768 215.144227,328.055556 215.404752,328.534465 C215.665277,329.015175 216.027928,329.25643 216.496874,329.25643 C216.969987,329.25643 217.334723,329.015175 217.595248,328.534465 C217.855773,328.055556 217.987078,327.3768 217.987078,326.4982 C217.987078,325.6268 217.855773,324.951646 217.595248,324.470936 C217.334723,323.993827 216.969987,323.754372 216.496874,323.754372 M216.496874,330 C215.731972,330 215.123385,329.688529 214.673197,329.061986 C214.225094,328.440844 214,327.583848 214,326.496399 C214,325.414352 214.225094,324.560957 214.673197,323.936214 C215.123385,323.313272 215.731972,323 216.496874,323 C217.261776,323 217.870363,323.313272 218.322634,323.939815 C218.774906,324.564558 219,325.417953 219,326.496399 C219,327.576646 218.774906,328.430041 218.322634,329.058385 C217.870363,329.684928 217.261776,330 216.496874,330" id="Fill-122" fill="#EC1C24"></path>
        <path d="M224.496874,323.754372 C224.027928,323.754372 223.665277,323.993827 223.404752,324.470936 C223.144227,324.951646 223.012922,325.6268 223.012922,326.4982 C223.012922,327.3768 223.144227,328.055556 223.404752,328.534465 C223.665277,329.015175 224.027928,329.25643 224.496874,329.25643 C224.969987,329.25643 225.334723,329.015175 225.595248,328.534465 C225.855773,328.055556 225.987078,327.3768 225.987078,326.4982 C225.987078,325.6268 225.855773,324.951646 225.595248,324.470936 C225.334723,323.993827 224.969987,323.754372 224.496874,323.754372 M224.496874,330 C223.731972,330 223.123385,329.688529 222.673197,329.061986 C222.225094,328.440844 222,327.583848 222,326.496399 C222,325.414352 222.225094,324.560957 222.673197,323.936214 C223.123385,323.313272 223.731972,323 224.496874,323 C225.261776,323 225.870363,323.313272 226.322634,323.939815 C226.774906,324.564558 227,325.417953 227,326.496399 C227,327.576646 226.774906,328.430041 226.322634,329.058385 C225.870363,329.684928 225.261776,330 224.496874,330" id="Fill-123" fill="#EC1C24"></path>
        <polygon id="Fill-124" fill="#EC1C24" points="288 382.778452 281.634236 387 249 338.221548 255.365764 334"></polygon>
    </g>
</svg>