<?xml version="1.0" encoding="UTF-8"?>
<svg width="501px" height="500px" viewBox="0 0 501 500" version="1.1" xmlns="http://www.w3.org/2000/svg" xmlns:xlink="http://www.w3.org/1999/xlink">
    <!-- Generator: Sketch 55.2 (78181) - https://sketchapp.com -->
    <title>supply-chain-vulnerabilities</title>
    <desc>Created with Sketch.</desc>
    <g id="supply-chain-vulnerabilities" stroke="none" stroke-width="1" fill="none" fill-rule="evenodd">
        <polygon id="Fill-1" fill="#EEEEEE" points="23 120 479 120 479 49 23 49"></polygon>
        <path d="M23.1874,447.250047 L476.7874,447.250047 L476.7874,52.4561952 L23.1874,52.4561952 L23.1874,447.250047 Z M478.8832,451.433999 L21.0916,451.433999 C19.9366,451.433999 19,450.49817 19,449.344121 L19,50.3663175 C19,49.208072 19.9366,48.2722432 21.0916,48.2722432 L478.8832,48.2722432 C480.0424,48.2722432 480.9748,49.208072 480.9748,50.3663175 L480.9748,449.344121 C480.9748,450.49817 480.0424,451.433999 478.8832,451.433999 L478.8832,451.433999 Z" id="Fill-2" fill="#0F222E"></path>
        <polygon id="Fill-7" fill="#FFFFFF" points="159.0616 282.057382 449.6386 282.057382 449.6386 177.026337 159.0616 177.026337"></polygon>
        <polygon id="Stroke-8" stroke="#EC1C24" stroke-width="4" stroke-linecap="round" stroke-linejoin="round" points="159.0616 282.057382 449.6386 282.057382 449.6386 177.026337 159.0616 177.026337"></polygon>
        <polyline id="Stroke-9" stroke="#EC1C24" stroke-width="4" stroke-linecap="round" stroke-linejoin="round" points="247.24438 197.199113 257.63098 207.577161 247.13518 218.064318"></polyline>
        <polyline id="Stroke-10" stroke="#EC1C24" stroke-width="4" stroke-linecap="round" stroke-linejoin="round" points="219.83392 218.062639 209.33812 207.575482 219.83392 197.092521"></polyline>
        <path d="M238.94686,197.199113 L229.19446,218.047532" id="Stroke-11" stroke="#EC1C24" stroke-width="4" stroke-linecap="round" stroke-linejoin="round"></path>
        <polyline id="Stroke-12" stroke="#EC1C24" stroke-width="4" stroke-linecap="round" stroke-linejoin="round" points="385.12282 241.123475 395.50942 251.505719 385.01362 261.98868"></polyline>
        <polyline id="Stroke-13" stroke="#EC1C24" stroke-width="4" stroke-linecap="round" stroke-linejoin="round" points="356.82196 261.987002 346.33036 251.504041 356.82196 241.016883"></polyline>
        <path d="M375.93532,241.123475 L366.18712,261.971894" id="Stroke-14" stroke="#EC1C24" stroke-width="4" stroke-linecap="round" stroke-linejoin="round"></path>
        <path d="M269.2864,207.40762 L295.024,207.40762" id="Stroke-15" stroke="#EC1C24" stroke-width="4" stroke-linecap="round" stroke-linejoin="round"></path>
        <path d="M303.92002,207.40762 L325.10482,207.40762" id="Stroke-16" stroke="#EC1C24" stroke-width="4" stroke-linecap="round" stroke-linejoin="round"></path>
        <path d="M260.185,250.90981 L281.206,250.90981" id="Stroke-17" stroke="#EC1C24" stroke-width="4" stroke-linecap="round" stroke-linejoin="round"></path>
        <path d="M292.9114,250.90981 L336.5242,250.90981" id="Stroke-18" stroke="#EC1C24" stroke-width="4" stroke-linecap="round" stroke-linejoin="round"></path>
        <path d="M269.2864,219.304396 L290.9122,219.304396" id="Stroke-19" stroke="#EC1C24" stroke-width="4" stroke-linecap="round" stroke-linejoin="round"></path>
        <path d="M298.76032,219.304396 L309.57112,219.304396" id="Stroke-20" stroke="#EC1C24" stroke-width="4" stroke-linecap="round" stroke-linejoin="round"></path>
        <path d="M352.4044,219.304396 L368.0914,219.304396" id="Stroke-21" stroke="#EC1C24" stroke-width="4" stroke-linecap="round" stroke-linejoin="round"></path>
        <path d="M317.9392,219.304396 L343.3324,219.304396" id="Stroke-22" stroke="#EC1C24" stroke-width="4" stroke-linecap="round" stroke-linejoin="round"></path>
        <path d="M235.37476,229.406731 L246.18976,229.406731" id="Stroke-23" stroke="#EC1C24" stroke-width="4" stroke-linecap="round" stroke-linejoin="round"></path>
        <path d="M346.12078,229.406731 L356.93158,229.406731" id="Stroke-24" stroke="#EC1C24" stroke-width="4" stroke-linecap="round" stroke-linejoin="round"></path>
        <path d="M255.60742,229.406731 L279.50122,229.406731" id="Stroke-25" stroke="#EC1C24" stroke-width="4" stroke-linecap="round" stroke-linejoin="round"></path>
        <path d="M289.43338,229.406731 L300.24418,229.406731" id="Stroke-26" stroke="#EC1C24" stroke-width="4" stroke-linecap="round" stroke-linejoin="round"></path>
        <path d="M309.57196,229.406731 L336.75016,229.406731" id="Stroke-27" stroke="#EC1C24" stroke-width="4" stroke-linecap="round" stroke-linejoin="round"></path>
        <path d="M260.49664,240.479726 L291.81184,240.479726" id="Stroke-28" stroke="#EC1C24" stroke-width="4" stroke-linecap="round" stroke-linejoin="round"></path>
        <path d="M301.11022,240.479726 L329.54842,240.479726" id="Stroke-29" stroke="#EC1C24" stroke-width="4" stroke-linecap="round" stroke-linejoin="round"></path>
        <polygon id="Fill-30" fill="#FFFFFF" points="107.0908 346.155359 397.6678 346.155359 397.6678 241.124314 107.0908 241.124314"></polygon>
        <polygon id="Stroke-31" stroke="#EC1C24" stroke-width="4" stroke-linecap="round" stroke-linejoin="round" points="107.0908 346.155359 397.6678 346.155359 397.6678 241.124314 107.0908 241.124314"></polygon>
        <polyline id="Stroke-32" stroke="#EC1C24" stroke-width="4" stroke-linecap="round" stroke-linejoin="round" points="195.27358 261.298769 205.66018 271.676816 195.16858 282.163974"></polyline>
        <polyline id="Stroke-33" stroke="#EC1C24" stroke-width="4" stroke-linecap="round" stroke-linejoin="round" points="167.8627 282.162295 157.3669 271.675138 167.8627 261.192177"></polyline>
        <path d="M186.97606,261.298769 L177.22366,282.147188" id="Stroke-34" stroke="#EC1C24" stroke-width="4" stroke-linecap="round" stroke-linejoin="round"></path>
        <polyline id="Stroke-35" stroke="#EC1C24" stroke-width="4" stroke-linecap="round" stroke-linejoin="round" points="333.1516 305.223131 343.5382 315.605375 333.0466 326.088336"></polyline>
        <polyline id="Stroke-36" stroke="#EC1C24" stroke-width="4" stroke-linecap="round" stroke-linejoin="round" points="304.85494 326.086657 294.35914 315.603696 304.85494 305.116539"></polyline>
        <path d="M323.9683,305.223131 L314.2159,326.07155" id="Stroke-37" stroke="#EC1C24" stroke-width="4" stroke-linecap="round" stroke-linejoin="round"></path>
        <path d="M208.2142,315.009466 L229.2394,315.009466" id="Stroke-38" stroke="#EC1C24" stroke-width="4" stroke-linecap="round" stroke-linejoin="round"></path>
        <path d="M240.9406,315.009466 L284.5534,315.009466" id="Stroke-39" stroke="#EC1C24" stroke-width="4" stroke-linecap="round" stroke-linejoin="round"></path>
        <path d="M217.31938,283.404052 L238.94098,283.404052" id="Stroke-40" stroke="#EC1C24" stroke-width="4" stroke-linecap="round" stroke-linejoin="round"></path>
        <path d="M246.7933,283.404052 L257.6041,283.404052" id="Stroke-41" stroke="#EC1C24" stroke-width="4" stroke-linecap="round" stroke-linejoin="round"></path>
        <path d="M300.4336,283.404052 L316.1206,283.404052" id="Stroke-42" stroke="#EC1C24" stroke-width="4" stroke-linecap="round" stroke-linejoin="round"></path>
        <path d="M265.97218,283.404052 L291.36538,283.404052" id="Stroke-43" stroke="#EC1C24" stroke-width="4" stroke-linecap="round" stroke-linejoin="round"></path>
        <path d="M183.40774,293.506387 L194.21854,293.506387" id="Stroke-44" stroke="#EC1C24" stroke-width="4" stroke-linecap="round" stroke-linejoin="round"></path>
        <path d="M294.15418,293.506387 L304.96498,293.506387" id="Stroke-45" stroke="#EC1C24" stroke-width="4" stroke-linecap="round" stroke-linejoin="round"></path>
        <path d="M203.63662,293.506387 L227.53042,293.506387" id="Stroke-46" stroke="#EC1C24" stroke-width="4" stroke-linecap="round" stroke-linejoin="round"></path>
        <path d="M237.46216,293.506387 L248.27716,293.506387" id="Stroke-47" stroke="#EC1C24" stroke-width="4" stroke-linecap="round" stroke-linejoin="round"></path>
        <path d="M257.60494,293.506387 L284.77894,293.506387" id="Stroke-48" stroke="#EC1C24" stroke-width="4" stroke-linecap="round" stroke-linejoin="round"></path>
        <path d="M208.53004,304.579381 L239.84104,304.579381" id="Stroke-49" stroke="#EC1C24" stroke-width="4" stroke-linecap="round" stroke-linejoin="round"></path>
        <path d="M249.13942,304.579381 L277.58182,304.579381" id="Stroke-50" stroke="#EC1C24" stroke-width="4" stroke-linecap="round" stroke-linejoin="round"></path>
        <polygon id="Fill-51" fill="#282525" points="64.0492 409.607068 354.6262 409.607068 354.6262 304.580221 64.0492 304.580221"></polygon>
        <polygon id="Stroke-52" stroke="#FFFFFF" stroke-width="4" stroke-linecap="round" stroke-linejoin="round" points="64.0492 409.607068 354.6262 409.607068 354.6262 304.580221 64.0492 304.580221"></polygon>
        <polyline id="Stroke-53" stroke="#FFFFFF" stroke-width="4" stroke-linecap="round" stroke-linejoin="round" points="149.70106 326.549955 158.73526 335.576717 149.60866 344.699998"></polyline>
        <polyline id="Stroke-54" stroke="#FFFFFF" stroke-width="4" stroke-linecap="round" stroke-linejoin="round" points="125.85472 344.700837 116.72392 335.577556 125.85472 326.454274"></polyline>
        <path d="M142.48252,326.549955 L133.99432,344.683212" id="Stroke-55" stroke="#FFFFFF" stroke-width="4" stroke-linecap="round" stroke-linejoin="round"></path>
        <polyline id="Stroke-56" stroke="#FFFFFF" stroke-width="4" stroke-linecap="round" stroke-linejoin="round" points="280.24168 370.687502 289.27588 379.714263 280.14928 388.837544"></polyline>
        <polyline id="Stroke-57" stroke="#FFFFFF" stroke-width="4" stroke-linecap="round" stroke-linejoin="round" points="255.62422 388.838384 246.49342 379.715102 255.62422 370.591821"></polyline>
        <path d="M272.2516,370.687502 L263.7634,388.824955" id="Stroke-58" stroke="#FFFFFF" stroke-width="4" stroke-linecap="round" stroke-linejoin="round"></path>
        <path d="M173.203,335.430677 L193.7536,335.430677" id="Stroke-59" stroke="#FFFFFF" stroke-width="4" stroke-linecap="round" stroke-linejoin="round"></path>
        <path d="M205.65892,335.430677 L227.53252,335.430677" id="Stroke-60" stroke="#FFFFFF" stroke-width="4" stroke-linecap="round" stroke-linejoin="round"></path>
        <path d="M165.28306,380.584626 L183.56986,380.584626" id="Stroke-61" stroke="#FFFFFF" stroke-width="4" stroke-linecap="round" stroke-linejoin="round"></path>
        <path d="M195.4336,380.584626 L231.6964,380.584626" id="Stroke-62" stroke="#FFFFFF" stroke-width="4" stroke-linecap="round" stroke-linejoin="round"></path>
        <path d="M173.203,346.573754 L186.9748,346.573754" id="Stroke-63" stroke="#FFFFFF" stroke-width="4" stroke-linecap="round" stroke-linejoin="round"></path>
        <path d="M198.8419,346.573754 L208.2499,346.573754" id="Stroke-64" stroke="#FFFFFF" stroke-width="4" stroke-linecap="round" stroke-linejoin="round"></path>
        <path d="M246.7933,346.573754 L259.1623,346.573754" id="Stroke-65" stroke="#FFFFFF" stroke-width="4" stroke-linecap="round" stroke-linejoin="round"></path>
        <path d="M219.83392,346.573754 L237.62092,346.573754" id="Stroke-66" stroke="#FFFFFF" stroke-width="4" stroke-linecap="round" stroke-linejoin="round"></path>
        <path d="M143.69632,357.880496 L153.10432,357.880496" id="Stroke-67" stroke="#FFFFFF" stroke-width="4" stroke-linecap="round" stroke-linejoin="round"></path>
        <path d="M242.34718,357.880496 L251.75098,357.880496" id="Stroke-68" stroke="#FFFFFF" stroke-width="4" stroke-linecap="round" stroke-linejoin="round"></path>
        <path d="M162.6169,357.880496 L176.2669,357.880496" id="Stroke-69" stroke="#FFFFFF" stroke-width="4" stroke-linecap="round" stroke-linejoin="round"></path>
        <path d="M190.72918,357.880496 L200.13298,357.880496" id="Stroke-70" stroke="#FFFFFF" stroke-width="4" stroke-linecap="round" stroke-linejoin="round"></path>
        <path d="M212.72584,357.880496 L231.89044,357.880496" id="Stroke-71" stroke="#FFFFFF" stroke-width="4" stroke-linecap="round" stroke-linejoin="round"></path>
        <path d="M165.55354,369.232561 L186.97774,369.232561" id="Stroke-72" stroke="#FFFFFF" stroke-width="4" stroke-linecap="round" stroke-linejoin="round"></path>
        <path d="M203.41528,369.232561 L223.38628,369.232561" id="Stroke-73" stroke="#FFFFFF" stroke-width="4" stroke-linecap="round" stroke-linejoin="round"></path>
        <path d="M85.16302,203.813282 L64.22602,240.046223 C60.33262,246.781672 65.19622,255.204131 72.98302,255.204131 L114.85702,255.204131 C122.64382,255.204131 127.51162,246.781672 123.61402,240.046223 L102.68122,203.813282 C98.78782,197.077833 89.05642,197.077833 85.16302,203.813282" id="Fill-74" fill="#EC1C24"></path>
        <path d="M94.05106,233.221807 C92.25766,233.221807 90.80866,231.774 90.80866,229.982077 L90.80866,212.62518 C90.80866,210.833257 92.25766,209.381254 94.05106,209.381254 C95.84446,209.381254 97.29346,210.833257 97.29346,212.62518 L97.29346,229.982077 C97.29346,231.774 95.84446,233.221807 94.05106,233.221807" id="Fill-75" fill="#FFFFFF"></path>
        <path d="M94.05106,247.426261 C92.25766,247.426261 90.80866,245.974258 90.80866,244.186531 L90.80866,240.942604 C90.80866,239.146484 92.25766,237.702874 94.05106,237.702874 C95.84446,237.702874 97.29346,239.146484 97.29346,240.942604 L97.29346,244.186531 C97.29346,245.974258 95.84446,247.426261 94.05106,247.426261" id="Fill-76" fill="#FFFFFF"></path>
        <path d="M144.2503,141.770771 L123.3133,178.003712 C119.4199,184.739161 124.2877,193.16162 132.0745,193.16162 L173.9443,193.16162 C181.7311,193.16162 186.5989,184.739161 182.7055,178.003712 L161.7685,141.770771 C157.8751,135.035322 148.1437,135.035322 144.2503,141.770771" id="Fill-77" fill="#EC1C24"></path>
        <path d="M153.13834,171.179716 C151.34494,171.179716 149.89594,169.731909 149.89594,167.939985 L149.89594,150.587286 C149.89594,148.791166 151.34494,147.339162 153.13834,147.339162 C154.93174,147.339162 156.38074,148.791166 156.38074,150.587286 L156.38074,167.939985 C156.38074,169.731909 154.93174,171.179716 153.13834,171.179716" id="Fill-78" fill="#FFFFFF"></path>
        <path d="M153.13834,185.38375 C151.34494,185.38375 149.89594,183.931747 149.89594,182.14402 L149.89594,178.900093 C149.89594,177.10817 151.34494,175.660363 153.13834,175.660363 C154.93174,175.660363 156.38074,177.10817 156.38074,178.900093 L156.38074,182.14402 C156.38074,183.931747 154.93174,185.38375 153.13834,185.38375" id="Fill-79" fill="#FFFFFF"></path>
        <path d="M95.9678893,84.8039712 C95.9678893,90.2170935 91.5943044,94.6079424 86.1986818,94.6079424 C80.8030591,94.6079424 76.4294742,90.2170935 76.4294742,84.8039712 C76.4294742,79.3877698 80.8030591,75 86.1986818,75 C91.5943044,75 95.9678893,79.3877698 95.9678893,84.8039712" id="Fill-4" fill="#8A8A8A"></path>
        <path d="M127.088478,84.8039712 C127.088478,90.2170935 122.711824,94.6079424 117.316201,94.6079424 C111.923648,94.6079424 107.546994,90.2170935 107.546994,84.8039712 C107.546994,79.3877698 111.923648,75 117.316201,75 C122.711824,75 127.088478,79.3877698 127.088478,84.8039712" id="Fill-6" fill="#8A8A8A"></path>
        <path d="M61.5414843,84.8039712 C61.5414843,90.2170935 57.1648302,94.6079424 51.7692075,94.6079424 C46.3766541,94.6079424 42,90.2170935 42,84.8039712 C42,79.3877698 46.3766541,75 51.7692075,75 C57.1648302,75 61.5414843,79.3877698 61.5414843,84.8039712" id="Fill-8" fill="#8A8A8A"></path>
    </g>
</svg>