<?xml version="1.0" encoding="UTF-8"?>
<svg width="500px" height="500px" viewBox="0 0 500 500" version="1.1" xmlns="http://www.w3.org/2000/svg" xmlns:xlink="http://www.w3.org/1999/xlink">
    <!-- Generator: Sketch 55.2 (78181) - https://sketchapp.com -->
    <title>Artboard Copy 11</title>
    <desc>Created with Sketch.</desc>
    <g id="Artboard-Copy-11" stroke="none" stroke-width="1" fill="none" fill-rule="evenodd">
        <g id="Group-81" transform="translate(19.000000, 48.000000)">
            <polygon id="Fill-1" fill="#EEEEEE" points="4 72 460 72 460 1 4 1"></polygon>
            <g id="Group-80">
                <path d="M4.1874,399.250047 L457.7874,399.250047 L457.7874,4.45619521 L4.1874,4.45619521 L4.1874,399.250047 Z M459.8832,403.433999 L2.0916,403.433999 C0.9366,403.433999 0,402.49817 0,401.344121 L0,2.36631747 C0,1.20807197 0.9366,0.272243188 2.0916,0.272243188 L459.8832,0.272243188 C461.0424,0.272243188 461.9748,1.20807197 461.9748,2.36631747 L461.9748,401.344121 C461.9748,402.49817 461.0424,403.433999 459.8832,403.433999 L459.8832,403.433999 Z" id="Fill-2" fill="#000000"></path>
                <polygon id="Fill-7" fill="#FFFFFF" points="140.0616 234.057382 430.6386 234.057382 430.6386 129.026337 140.0616 129.026337"></polygon>
                <polygon id="Stroke-8" stroke="#EC1C24" stroke-linecap="round" stroke-linejoin="round" points="140.0616 234.057382 430.6386 234.057382 430.6386 129.026337 140.0616 129.026337"></polygon>
                <polyline id="Stroke-9" stroke="#EC1C24" stroke-width="1.372" stroke-linecap="round" stroke-linejoin="round" points="228.24438 149.199113 238.63098 159.577161 228.13518 170.064318"></polyline>
                <polyline id="Stroke-10" stroke="#EC1C24" stroke-width="1.372" stroke-linecap="round" stroke-linejoin="round" points="200.83392 170.062639 190.33812 159.575482 200.83392 149.092521"></polyline>
                <path d="M219.94686,149.199113 L210.19446,170.047532" id="Stroke-11" stroke="#EC1C24" stroke-width="1.372" stroke-linecap="round" stroke-linejoin="round"></path>
                <polyline id="Stroke-12" stroke="#EC1C24" stroke-width="1.372" stroke-linecap="round" stroke-linejoin="round" points="366.12282 193.123475 376.50942 203.505719 366.01362 213.98868"></polyline>
                <polyline id="Stroke-13" stroke="#EC1C24" stroke-width="1.372" stroke-linecap="round" stroke-linejoin="round" points="337.82196 213.987002 327.33036 203.504041 337.82196 193.016883"></polyline>
                <path d="M356.93532,193.123475 L347.18712,213.971894" id="Stroke-14" stroke="#EC1C24" stroke-width="1.372" stroke-linecap="round" stroke-linejoin="round"></path>
                <path d="M250.2864,159.40762 L276.024,159.40762" id="Stroke-15" stroke="#EC1C24" stroke-width="1.372" stroke-linecap="round" stroke-linejoin="round"></path>
                <path d="M284.92002,159.40762 L306.10482,159.40762" id="Stroke-16" stroke="#EC1C24" stroke-width="1.372" stroke-linecap="round" stroke-linejoin="round"></path>
                <path d="M241.185,202.90981 L262.206,202.90981" id="Stroke-17" stroke="#EC1C24" stroke-width="1.372" stroke-linecap="round" stroke-linejoin="round"></path>
                <path d="M273.9114,202.90981 L317.5242,202.90981" id="Stroke-18" stroke="#EC1C24" stroke-width="1.372" stroke-linecap="round" stroke-linejoin="round"></path>
                <path d="M250.2864,171.304396 L271.9122,171.304396" id="Stroke-19" stroke="#EC1C24" stroke-width="1.372" stroke-linecap="round" stroke-linejoin="round"></path>
                <path d="M279.76032,171.304396 L290.57112,171.304396" id="Stroke-20" stroke="#EC1C24" stroke-width="1.372" stroke-linecap="round" stroke-linejoin="round"></path>
                <path d="M333.4044,171.304396 L349.0914,171.304396" id="Stroke-21" stroke="#EC1C24" stroke-width="1.372" stroke-linecap="round" stroke-linejoin="round"></path>
                <path d="M298.9392,171.304396 L324.3324,171.304396" id="Stroke-22" stroke="#EC1C24" stroke-width="1.372" stroke-linecap="round" stroke-linejoin="round"></path>
                <path d="M216.37476,181.406731 L227.18976,181.406731" id="Stroke-23" stroke="#EC1C24" stroke-width="1.372" stroke-linecap="round" stroke-linejoin="round"></path>
                <path d="M327.12078,181.406731 L337.93158,181.406731" id="Stroke-24" stroke="#EC1C24" stroke-width="1.372" stroke-linecap="round" stroke-linejoin="round"></path>
                <path d="M236.60742,181.406731 L260.50122,181.406731" id="Stroke-25" stroke="#EC1C24" stroke-width="1.372" stroke-linecap="round" stroke-linejoin="round"></path>
                <path d="M270.43338,181.406731 L281.24418,181.406731" id="Stroke-26" stroke="#EC1C24" stroke-width="1.372" stroke-linecap="round" stroke-linejoin="round"></path>
                <path d="M290.57196,181.406731 L317.75016,181.406731" id="Stroke-27" stroke="#EC1C24" stroke-width="1.372" stroke-linecap="round" stroke-linejoin="round"></path>
                <path d="M241.49664,192.479726 L272.81184,192.479726" id="Stroke-28" stroke="#EC1C24" stroke-width="1.372" stroke-linecap="round" stroke-linejoin="round"></path>
                <path d="M282.11022,192.479726 L310.54842,192.479726" id="Stroke-29" stroke="#EC1C24" stroke-width="1.372" stroke-linecap="round" stroke-linejoin="round"></path>
                <polygon id="Fill-30" fill="#FFFFFF" points="88.0908 298.155359 378.6678 298.155359 378.6678 193.124314 88.0908 193.124314"></polygon>
                <polygon id="Stroke-31" stroke="#EC1C24" stroke-linecap="round" stroke-linejoin="round" points="88.0908 298.155359 378.6678 298.155359 378.6678 193.124314 88.0908 193.124314"></polygon>
                <polyline id="Stroke-32" stroke="#EC1C24" stroke-width="1.372" stroke-linecap="round" stroke-linejoin="round" points="176.27358 213.298769 186.66018 223.676816 176.16858 234.163974"></polyline>
                <polyline id="Stroke-33" stroke="#EC1C24" stroke-width="1.372" stroke-linecap="round" stroke-linejoin="round" points="148.8627 234.162295 138.3669 223.675138 148.8627 213.192177"></polyline>
                <path d="M167.97606,213.298769 L158.22366,234.147188" id="Stroke-34" stroke="#EC1C24" stroke-width="1.372" stroke-linecap="round" stroke-linejoin="round"></path>
                <polyline id="Stroke-35" stroke="#EC1C24" stroke-width="1.372" stroke-linecap="round" stroke-linejoin="round" points="314.1516 257.223131 324.5382 267.605375 314.0466 278.088336"></polyline>
                <polyline id="Stroke-36" stroke="#EC1C24" stroke-width="1.372" stroke-linecap="round" stroke-linejoin="round" points="285.85494 278.086657 275.35914 267.603696 285.85494 257.116539"></polyline>
                <path d="M304.9683,257.223131 L295.2159,278.07155" id="Stroke-37" stroke="#EC1C24" stroke-width="1.372" stroke-linecap="round" stroke-linejoin="round"></path>
                <path d="M189.2142,267.009466 L210.2394,267.009466" id="Stroke-38" stroke="#EC1C24" stroke-width="1.372" stroke-linecap="round" stroke-linejoin="round"></path>
                <path d="M221.9406,267.009466 L265.5534,267.009466" id="Stroke-39" stroke="#EC1C24" stroke-width="1.372" stroke-linecap="round" stroke-linejoin="round"></path>
                <path d="M198.31938,235.404052 L219.94098,235.404052" id="Stroke-40" stroke="#EC1C24" stroke-width="1.372" stroke-linecap="round" stroke-linejoin="round"></path>
                <path d="M227.7933,235.404052 L238.6041,235.404052" id="Stroke-41" stroke="#EC1C24" stroke-width="1.372" stroke-linecap="round" stroke-linejoin="round"></path>
                <path d="M281.4336,235.404052 L297.1206,235.404052" id="Stroke-42" stroke="#EC1C24" stroke-width="1.372" stroke-linecap="round" stroke-linejoin="round"></path>
                <path d="M246.97218,235.404052 L272.36538,235.404052" id="Stroke-43" stroke="#EC1C24" stroke-width="1.372" stroke-linecap="round" stroke-linejoin="round"></path>
                <path d="M164.40774,245.506387 L175.21854,245.506387" id="Stroke-44" stroke="#EC1C24" stroke-width="1.372" stroke-linecap="round" stroke-linejoin="round"></path>
                <path d="M275.15418,245.506387 L285.96498,245.506387" id="Stroke-45" stroke="#EC1C24" stroke-width="1.372" stroke-linecap="round" stroke-linejoin="round"></path>
                <path d="M184.63662,245.506387 L208.53042,245.506387" id="Stroke-46" stroke="#EC1C24" stroke-width="1.372" stroke-linecap="round" stroke-linejoin="round"></path>
                <path d="M218.46216,245.506387 L229.27716,245.506387" id="Stroke-47" stroke="#EC1C24" stroke-width="1.372" stroke-linecap="round" stroke-linejoin="round"></path>
                <path d="M238.60494,245.506387 L265.77894,245.506387" id="Stroke-48" stroke="#EC1C24" stroke-width="1.372" stroke-linecap="round" stroke-linejoin="round"></path>
                <path d="M189.53004,256.579381 L220.84104,256.579381" id="Stroke-49" stroke="#EC1C24" stroke-width="1.372" stroke-linecap="round" stroke-linejoin="round"></path>
                <path d="M230.13942,256.579381 L258.58182,256.579381" id="Stroke-50" stroke="#EC1C24" stroke-width="1.372" stroke-linecap="round" stroke-linejoin="round"></path>
                <polygon id="Fill-51" fill="#282525" points="45.0492 361.607068 335.6262 361.607068 335.6262 256.580221 45.0492 256.580221"></polygon>
                <polygon id="Stroke-52" stroke="#FFFFFF" stroke-linecap="round" stroke-linejoin="round" points="45.0492 361.607068 335.6262 361.607068 335.6262 256.580221 45.0492 256.580221"></polygon>
                <polyline id="Stroke-53" stroke="#FFFFFF" stroke-width="1.396" stroke-linecap="round" stroke-linejoin="round" points="130.70106 278.549955 139.73526 287.576717 130.60866 296.699998"></polyline>
                <polyline id="Stroke-54" stroke="#FFFFFF" stroke-width="1.396" stroke-linecap="round" stroke-linejoin="round" points="106.85472 296.700837 97.72392 287.577556 106.85472 278.454274"></polyline>
                <path d="M123.48252,278.549955 L114.99432,296.683212" id="Stroke-55" stroke="#FFFFFF" stroke-width="1.396" stroke-linecap="round" stroke-linejoin="round"></path>
                <polyline id="Stroke-56" stroke="#FFFFFF" stroke-width="1.396" stroke-linecap="round" stroke-linejoin="round" points="261.24168 322.687502 270.27588 331.714263 261.14928 340.837544"></polyline>
                <polyline id="Stroke-57" stroke="#FFFFFF" stroke-width="1.396" stroke-linecap="round" stroke-linejoin="round" points="236.62422 340.838384 227.49342 331.715102 236.62422 322.591821"></polyline>
                <path d="M253.2516,322.687502 L244.7634,340.824955" id="Stroke-58" stroke="#FFFFFF" stroke-width="1.396" stroke-linecap="round" stroke-linejoin="round"></path>
                <path d="M154.203,287.430677 L174.7536,287.430677" id="Stroke-59" stroke="#FFFFFF" stroke-width="1.396" stroke-linecap="round" stroke-linejoin="round"></path>
                <path d="M186.65892,287.430677 L208.53252,287.430677" id="Stroke-60" stroke="#FFFFFF" stroke-width="1.396" stroke-linecap="round" stroke-linejoin="round"></path>
                <path d="M146.28306,332.584626 L164.56986,332.584626" id="Stroke-61" stroke="#FFFFFF" stroke-width="1.396" stroke-linecap="round" stroke-linejoin="round"></path>
                <path d="M176.4336,332.584626 L212.6964,332.584626" id="Stroke-62" stroke="#FFFFFF" stroke-width="1.396" stroke-linecap="round" stroke-linejoin="round"></path>
                <path d="M154.203,298.573754 L167.9748,298.573754" id="Stroke-63" stroke="#FFFFFF" stroke-width="1.396" stroke-linecap="round" stroke-linejoin="round"></path>
                <path d="M179.8419,298.573754 L189.2499,298.573754" id="Stroke-64" stroke="#FFFFFF" stroke-width="1.396" stroke-linecap="round" stroke-linejoin="round"></path>
                <path d="M227.7933,298.573754 L240.1623,298.573754" id="Stroke-65" stroke="#FFFFFF" stroke-width="1.396" stroke-linecap="round" stroke-linejoin="round"></path>
                <path d="M200.83392,298.573754 L218.62092,298.573754" id="Stroke-66" stroke="#FFFFFF" stroke-width="1.396" stroke-linecap="round" stroke-linejoin="round"></path>
                <path d="M124.69632,309.880496 L134.10432,309.880496" id="Stroke-67" stroke="#FFFFFF" stroke-width="1.396" stroke-linecap="round" stroke-linejoin="round"></path>
                <path d="M223.34718,309.880496 L232.75098,309.880496" id="Stroke-68" stroke="#FFFFFF" stroke-width="1.396" stroke-linecap="round" stroke-linejoin="round"></path>
                <path d="M143.6169,309.880496 L157.2669,309.880496" id="Stroke-69" stroke="#FFFFFF" stroke-width="1.396" stroke-linecap="round" stroke-linejoin="round"></path>
                <path d="M171.72918,309.880496 L181.13298,309.880496" id="Stroke-70" stroke="#FFFFFF" stroke-width="1.396" stroke-linecap="round" stroke-linejoin="round"></path>
                <path d="M193.72584,309.880496 L212.89044,309.880496" id="Stroke-71" stroke="#FFFFFF" stroke-width="1.396" stroke-linecap="round" stroke-linejoin="round"></path>
                <path d="M146.55354,321.232561 L167.97774,321.232561" id="Stroke-72" stroke="#FFFFFF" stroke-width="1.396" stroke-linecap="round" stroke-linejoin="round"></path>
                <path d="M184.41528,321.232561 L204.38628,321.232561" id="Stroke-73" stroke="#FFFFFF" stroke-width="1.396" stroke-linecap="round" stroke-linejoin="round"></path>
                <path d="M66.16302,155.813282 L45.22602,192.046223 C41.33262,198.781672 46.19622,207.204131 53.98302,207.204131 L95.85702,207.204131 C103.64382,207.204131 108.51162,198.781672 104.61402,192.046223 L83.68122,155.813282 C79.78782,149.077833 70.05642,149.077833 66.16302,155.813282" id="Fill-74" fill="#EC1C24"></path>
                <path d="M75.05106,185.221807 C73.25766,185.221807 71.80866,183.774 71.80866,181.982077 L71.80866,164.62518 C71.80866,162.833257 73.25766,161.381254 75.05106,161.381254 C76.84446,161.381254 78.29346,162.833257 78.29346,164.62518 L78.29346,181.982077 C78.29346,183.774 76.84446,185.221807 75.05106,185.221807" id="Fill-75" fill="#FFFFFF"></path>
                <path d="M75.05106,199.426261 C73.25766,199.426261 71.80866,197.974258 71.80866,196.186531 L71.80866,192.942604 C71.80866,191.146484 73.25766,189.702874 75.05106,189.702874 C76.84446,189.702874 78.29346,191.146484 78.29346,192.942604 L78.29346,196.186531 C78.29346,197.974258 76.84446,199.426261 75.05106,199.426261" id="Fill-76" fill="#FFFFFF"></path>
                <path d="M125.2503,93.7707714 L104.3133,130.003712 C100.4199,136.739161 105.2877,145.16162 113.0745,145.16162 L154.9443,145.16162 C162.7311,145.16162 167.5989,136.739161 163.7055,130.003712 L142.7685,93.7707714 C138.8751,87.035322 129.1437,87.035322 125.2503,93.7707714" id="Fill-77" fill="#EC1C24"></path>
                <path d="M134.13834,123.179716 C132.34494,123.179716 130.89594,121.731909 130.89594,119.939985 L130.89594,102.587286 C130.89594,100.791166 132.34494,99.3391625 134.13834,99.3391625 C135.93174,99.3391625 137.38074,100.791166 137.38074,102.587286 L137.38074,119.939985 C137.38074,121.731909 135.93174,123.179716 134.13834,123.179716" id="Fill-78" fill="#FFFFFF"></path>
                <path d="M134.13834,137.38375 C132.34494,137.38375 130.89594,135.931747 130.89594,134.14402 L130.89594,130.900093 C130.89594,129.10817 132.34494,127.660363 134.13834,127.660363 C135.93174,127.660363 137.38074,129.10817 137.38074,130.900093 L137.38074,134.14402 C137.38074,135.931747 135.93174,137.38375 134.13834,137.38375" id="Fill-79" fill="#FFFFFF"></path>
            </g>
        </g>
        <path d="M95.9678893,84.8039712 C95.9678893,90.2170935 91.5943044,94.6079424 86.1986818,94.6079424 C80.8030591,94.6079424 76.4294742,90.2170935 76.4294742,84.8039712 C76.4294742,79.3877698 80.8030591,75 86.1986818,75 C91.5943044,75 95.9678893,79.3877698 95.9678893,84.8039712" id="Fill-4" fill="#8A8A8A"></path>
        <path d="M127.088478,84.8039712 C127.088478,90.2170935 122.711824,94.6079424 117.316201,94.6079424 C111.923648,94.6079424 107.546994,90.2170935 107.546994,84.8039712 C107.546994,79.3877698 111.923648,75 117.316201,75 C122.711824,75 127.088478,79.3877698 127.088478,84.8039712" id="Fill-6" fill="#8A8A8A"></path>
        <path d="M61.5414843,84.8039712 C61.5414843,90.2170935 57.1648302,94.6079424 51.7692075,94.6079424 C46.3766541,94.6079424 42,90.2170935 42,84.8039712 C42,79.3877698 46.3766541,75 51.7692075,75 C57.1648302,75 61.5414843,79.3877698 61.5414843,84.8039712" id="Fill-8" fill="#8A8A8A"></path>
    </g>
</svg>