<svg height="500" viewBox="0 0 500 500" width="500" xmlns="http://www.w3.org/2000/svg"><g fill="none" fill-rule="evenodd" transform="translate(24 12)"><g stroke-linecap="round" stroke-linejoin="round"><path d="m352 235c0 64.620044-52.382747 117-117.001798 117-64.615455 0-116.998202-52.379956-116.998202-117s52.382747-117 116.998202-117c64.619051 0 117.001798 52.379956 117.001798 117z" stroke="#ec1c24" stroke-width="2"/><path d="m236 118v-50" stroke="#ec1c24" stroke-width="2"/><path d="m270 34.5c0 19.0527851-15.447215 34.5-34.5 34.5s-34.5-15.4472149-34.5-34.5 15.447215-34.5 34.5-34.5 34.5 15.4472149 34.5 34.5z" stroke="#ec1c24" stroke-width="2"/><path d="m352 236h50" stroke="#ec1c24" stroke-width="2"/><path d="m441.5 270c-19.052785 0-34.5-15.446395-34.5-34.50183 0-19.051775 15.447215-34.49817 34.5-34.49817s34.5 15.446395 34.5 34.49817c0 19.055435-15.447215 34.50183-34.5 34.50183z" stroke="#ec1c24" stroke-width="2"/><path d="m240 352v50" stroke="#ec1c24" stroke-width="2"/><path d="m206 441.5c0-19.052785 15.446395-34.5 34.49817-34.5 19.055435 0 34.50183 15.447215 34.50183 34.5s-15.446395 34.5-34.50183 34.5c-19.051775 0-34.49817-15.447215-34.49817-34.5z" stroke="#ec1c24" stroke-width="2"/><path d="m118 236h-50" stroke="#ec1c24" stroke-width="2"/><path d="m34.4981699 201c19.0554347 0 34.5018301 15.446395 34.5018301 34.49817 0 19.055435-15.4463954 34.50183-34.5018301 34.50183-19.0517745 0-34.4981699-15.446395-34.4981699-34.50183 0-19.051775 15.4463954-34.49817 34.4981699-34.49817z" stroke="#ec1c24" stroke-width="2"/><path d="m114 114-23-23" stroke="#0f222e" stroke-width="2"/><path d="m90.8513335 61.1509267c8.198222 8.2012357 8.198222 21.4969109 0 29.6981466-8.2017528 8.2012356-21.5017969 8.2012356-29.700019 0-8.2017527-8.2012357-8.2017527-21.4969109 0-29.6981466 8.1982221-8.2012356 21.4982662-8.2012356 29.700019 0z" stroke="#0f222e" stroke-width="2"/><path d="m358 114 23-23" stroke="#0f222e" stroke-width="2"/><path d="m410.851333 90.8513335c-8.201752 8.198222-21.501796 8.198222-29.700018 0-8.201753-8.2017528-8.201753-21.5017969 0-29.700019 8.198222-8.2017527 21.498266-8.2017527 29.700018 0 8.198223 8.1982221 8.198223 21.4982662 0 29.700019z" stroke="#0f222e" stroke-width="2"/><path d="m358 352 23 23" stroke="#0f222e" stroke-width="2"/><path d="m377.150927 406.851333c-8.201236-8.201752-8.201236-21.501796 0-29.700018 8.201235-8.201753 21.496911-8.201753 29.698146 0 8.201236 8.198222 8.201236 21.498266 0 29.700018-8.201235 8.198223-21.496911 8.198223-29.698146 0z" stroke="#0f222e" stroke-width="2"/><path d="m114 352-23 23" stroke="#0f222e" stroke-width="2"/><path d="m61.1486665 377.148667c8.2017528-8.198223 21.5017969-8.198223 29.700019 0 8.2017527 8.201752 8.2017527 21.501796 0 29.700018-8.1982221 8.201753-21.4982662 8.201753-29.700019 0-8.198222-8.198222-8.198222-21.498266 0-29.700018z" stroke="#0f222e" stroke-width="2"/><path d="m165 219s66.959018-71.569737 151-.6425" stroke="#0f222e" stroke-width="4"/><path d="m193 275s40.515403 20.25 95 0" stroke="#0f222e" stroke-width="2"/></g><path d="m222.139611 219.603946c-4.567639 0-8.229001-3.667959-8.229001-8.239302 0-4.535063 3.661362-8.195766 8.229001-8.195766 4.531388 0 8.196375 3.660703 8.196375 8.195766 0 4.571343-3.664987 8.239302-8.196375 8.239302m16.856764-31.603946c-22.62069 0-40.996375 9.324089-40.996375 31.999404 0 22.642662 18.375685 41.000596 40.996375 41.000596 22.656941 0 41.003625-18.357934 41.003625-41.000596 0-22.675315-18.346684-31.999404-41.003625-31.999404" fill="#231f20"/></g></svg>