<?xml version="1.0" encoding="UTF-8"?>
<svg width="500px" height="500px" viewBox="0 0 500 500" version="1.1" xmlns="http://www.w3.org/2000/svg" xmlns:xlink="http://www.w3.org/1999/xlink">
    <!-- Generator: Sketch 55.2 (78181) - https://sketchapp.com -->
    <title>visibility</title>
    <desc>Created with Sketch.</desc>
    <g id="visibility" stroke="none" stroke-width="1" fill="none" fill-rule="evenodd">
        <path d="M376,247 C376,311.620044 323.617253,364 258.998202,364 C194.382747,364 142,311.620044 142,247 C142,182.379956 194.382747,130 258.998202,130 C323.617253,130 376,182.379956 376,247 Z" id="Stroke-1" stroke="#EC1C24" stroke-width="4" stroke-linecap="round" stroke-linejoin="round"></path>
        <path d="M260,130 L260,80" id="Stroke-3" stroke="#EC1C24" stroke-width="4" stroke-linecap="round" stroke-linejoin="round"></path>
        <path d="M294,46.5 C294,65.5527851 278.552785,81 259.5,81 C240.447215,81 225,65.5527851 225,46.5 C225,27.4472149 240.447215,12 259.5,12 C278.552785,12 294,27.4472149 294,46.5 Z" id="Stroke-5" stroke="#EC1C24" stroke-width="4" stroke-linecap="round" stroke-linejoin="round"></path>
        <path d="M376,248 L426,248" id="Stroke-7" stroke="#EC1C24" stroke-width="4" stroke-linecap="round" stroke-linejoin="round"></path>
        <path d="M465.5,282 C446.447215,282 431,266.553605 431,247.49817 C431,228.446395 446.447215,213 465.5,213 C484.552785,213 500,228.446395 500,247.49817 C500,266.553605 484.552785,282 465.5,282 Z" id="Stroke-9" stroke="#EC1C24" stroke-width="4" stroke-linecap="round" stroke-linejoin="round"></path>
        <path d="M264,364 L264,414" id="Stroke-11" stroke="#EC1C24" stroke-width="4" stroke-linecap="round" stroke-linejoin="round"></path>
        <path d="M230,453.5 C230,434.447215 245.446395,419 264.49817,419 C283.553605,419 299,434.447215 299,453.5 C299,472.552785 283.553605,488 264.49817,488 C245.446395,488 230,472.552785 230,453.5 Z" id="Stroke-13" stroke="#EC1C24" stroke-width="4" stroke-linecap="round" stroke-linejoin="round"></path>
        <path d="M142,248 L92,248" id="Stroke-15" stroke="#EC1C24" stroke-width="4" stroke-linecap="round" stroke-linejoin="round"></path>
        <path d="M58.4981699,213 C77.5536046,213 93,228.446395 93,247.49817 C93,266.553605 77.5536046,282 58.4981699,282 C39.4463954,282 24,266.553605 24,247.49817 C24,228.446395 39.4463954,213 58.4981699,213 Z" id="Stroke-17" stroke="#EC1C24" stroke-width="4" stroke-linecap="round" stroke-linejoin="round"></path>
        <path d="M138,126 L115,103" id="Stroke-19" stroke="#0F222E" stroke-width="4" stroke-linecap="round" stroke-linejoin="round"></path>
        <path d="M114.851333,73.1509267 C123.049556,81.3521624 123.049556,94.6478376 114.851333,102.849073 C106.649581,111.050309 93.3495366,111.050309 85.1513145,102.849073 C76.9495618,94.6478376 76.9495618,81.3521624 85.1513145,73.1509267 C93.3495366,64.9496911 106.649581,64.9496911 114.851333,73.1509267 Z" id="Stroke-21" stroke="#0F222E" stroke-width="4" stroke-linecap="round" stroke-linejoin="round"></path>
        <path d="M382,126 L405,103" id="Stroke-23" stroke="#0F222E" stroke-width="4" stroke-linecap="round" stroke-linejoin="round"></path>
        <path d="M434.851333,102.851333 C426.649581,111.049556 413.349537,111.049556 405.151315,102.851333 C396.949562,94.6495807 396.949562,81.3495366 405.151315,73.1513145 C413.349537,64.9495618 426.649581,64.9495618 434.851333,73.1513145 C443.049556,81.3495366 443.049556,94.6495807 434.851333,102.851333 Z" id="Stroke-25" stroke="#0F222E" stroke-width="4" stroke-linecap="round" stroke-linejoin="round"></path>
        <path d="M382,364 L405,387" id="Stroke-27" stroke="#0F222E" stroke-width="4" stroke-linecap="round" stroke-linejoin="round"></path>
        <path d="M401.150927,418.851333 C392.949691,410.649581 392.949691,397.349537 401.150927,389.151315 C409.352162,380.949562 422.647838,380.949562 430.849073,389.151315 C439.050309,397.349537 439.050309,410.649581 430.849073,418.851333 C422.647838,427.049556 409.352162,427.049556 401.150927,418.851333 Z" id="Stroke-29" stroke="#0F222E" stroke-width="4" stroke-linecap="round" stroke-linejoin="round"></path>
        <path d="M138,364 L115,387" id="Stroke-31" stroke="#0F222E" stroke-width="4" stroke-linecap="round" stroke-linejoin="round"></path>
        <path d="M85.1486665,389.148667 C93.3504193,380.950444 106.650463,380.950444 114.848685,389.148667 C123.050438,397.350419 123.050438,410.650463 114.848685,418.848685 C106.650463,427.050438 93.3504193,427.050438 85.1486665,418.848685 C76.9504445,410.650463 76.9504445,397.350419 85.1486665,389.148667 Z" id="Stroke-33" stroke="#0F222E" stroke-width="4" stroke-linecap="round" stroke-linejoin="round"></path>
        <path d="M189,231 C189,231 255.959018,159.430263 340,230.3575" id="Stroke-35" stroke="#0F222E" stroke-width="4" stroke-linecap="round" stroke-linejoin="round"></path>
        <path d="M217,287 C217,287 257.515403,307.25 312,287" id="Stroke-37" stroke="#0F222E" stroke-width="4" stroke-linecap="round" stroke-linejoin="round"></path>
        <path d="M246.139611,231.603946 C241.571972,231.603946 237.91061,227.935987 237.91061,223.364644 C237.91061,218.829581 241.571972,215.168878 246.139611,215.168878 C250.670999,215.168878 254.335986,218.829581 254.335986,223.364644 C254.335986,227.935987 250.670999,231.603946 246.139611,231.603946 M262.996375,200 C240.375685,200 222,209.324089 222,231.999404 C222,254.642066 240.375685,273 262.996375,273 C285.653316,273 304,254.642066 304,231.999404 C304,209.324089 285.653316,200 262.996375,200" id="Fill-39" fill="#0F222E"></path>
    </g>
</svg>