<?xml version="1.0" encoding="UTF-8"?>
<svg width="500px" height="500px" viewBox="0 0 500 500" version="1.1" xmlns="http://www.w3.org/2000/svg" xmlns:xlink="http://www.w3.org/1999/xlink">
    <!-- Generator: Sketch 55.2 (78181) - https://sketchapp.com -->
    <title>visibility</title>
    <desc>Created with Sketch.</desc>
    <g id="visibility" stroke="none" stroke-width="1" fill="none" fill-rule="evenodd">
        <path d="M328,248 C328,292.184646 292.182737,328 247.998771,328 C203.817263,328 168,292.184646 168,248 C168,203.815354 203.817263,168 247.998771,168 C292.182737,168 328,203.815354 328,248 Z" id="Stroke-1" stroke="#EC1C24" stroke-width="4" stroke-linecap="round" stroke-linejoin="round"></path>
        <path d="M249,168 L249,134" id="Stroke-3" stroke="#EC1C24" stroke-width="4" stroke-linecap="round" stroke-linejoin="round"></path>
        <path d="M273,111.5 C273,124.477984 262.254111,135 249,135 C235.745889,135 225,124.477984 225,111.5 C225,98.5220159 235.745889,88 249,88 C262.254111,88 273,98.5220159 273,111.5 Z" id="Stroke-5" stroke="#EC1C24" stroke-width="4" stroke-linecap="round" stroke-linejoin="round"></path>
        <path d="M328,249 L363,249" id="Stroke-7" stroke="#EC1C24" stroke-width="4" stroke-linecap="round" stroke-linejoin="round"></path>
        <path d="M389.5,273 C376.522016,273 366,262.254681 366,248.998727 C366,235.745319 376.522016,225 389.5,225 C402.477984,225 413,235.745319 413,248.998727 C413,262.254681 402.477984,273 389.5,273 Z" id="Stroke-9" stroke="#EC1C24" stroke-width="4" stroke-linecap="round" stroke-linejoin="round"></path>
        <path d="M252,328 L252,363" id="Stroke-11" stroke="#EC1C24" stroke-width="4" stroke-linecap="round" stroke-linejoin="round"></path>
        <path d="M228,389.5 C228,376.522016 238.745319,366 251.998727,366 C265.254681,366 276,376.522016 276,389.5 C276,402.477984 265.254681,413 251.998727,413 C238.745319,413 228,402.477984 228,389.5 Z" id="Stroke-13" stroke="#EC1C24" stroke-width="4" stroke-linecap="round" stroke-linejoin="round"></path>
        <path d="M168,249 L134,249" id="Stroke-15" stroke="#EC1C24" stroke-width="4" stroke-linecap="round" stroke-linejoin="round"></path>
        <path d="M111.498753,225 C124.478542,225 135,235.745319 135,248.998727 C135,262.254681 124.478542,273 111.498753,273 C98.5214577,273 88,262.254681 88,248.998727 C88,235.745319 98.5214577,225 111.498753,225 Z" id="Stroke-17" stroke="#EC1C24" stroke-width="4" stroke-linecap="round" stroke-linejoin="round"></path>
        <path d="M166,166 L150,150" id="Stroke-19" stroke="#0F222E" stroke-width="4" stroke-linecap="round" stroke-linejoin="round"></path>
        <path d="M149.900889,130.100618 C155.36637,135.568108 155.36637,144.431892 149.900889,149.899382 C144.433054,155.366873 135.566358,155.366873 130.100876,149.899382 C124.633041,144.431892 124.633041,135.568108 130.100876,130.100618 C135.566358,124.633127 144.433054,124.633127 149.900889,130.100618 Z" id="Stroke-21" stroke="#0F222E" stroke-width="4" stroke-linecap="round" stroke-linejoin="round"></path>
        <path d="M333,166 L348,150" id="Stroke-23" stroke="#0F222E" stroke-width="4" stroke-linecap="round" stroke-linejoin="round"></path>
        <path d="M368.754492,149.900889 C363.091377,155.36637 353.908013,155.36637 348.247336,149.900889 C342.584221,144.433054 342.584221,135.566358 348.247336,130.100876 C353.908013,124.633041 363.091377,124.633041 368.754492,130.100876 C374.415169,135.566358 374.415169,144.433054 368.754492,149.900889 Z" id="Stroke-25" stroke="#0F222E" stroke-width="4" stroke-linecap="round" stroke-linejoin="round"></path>
        <path d="M333,328 L348,344" id="Stroke-27" stroke="#0F222E" stroke-width="4" stroke-linecap="round" stroke-linejoin="round"></path>
        <path d="M345.247068,365.754492 C339.584311,360.091377 339.584311,350.908013 345.247068,345.247336 C350.909826,339.584221 360.090174,339.584221 365.752932,345.247336 C371.415689,350.908013 371.415689,360.091377 365.752932,365.754492 C360.090174,371.415169 350.909826,371.415169 345.247068,365.754492 Z" id="Stroke-29" stroke="#0F222E" stroke-width="4" stroke-linecap="round" stroke-linejoin="round"></path>
        <path d="M166,328 L150,344" id="Stroke-31" stroke="#0F222E" stroke-width="4" stroke-linecap="round" stroke-linejoin="round"></path>
        <path d="M130.099111,345.245508 C135.566946,339.584831 144.433642,339.584831 149.899124,345.245508 C155.366959,350.908623 155.366959,360.091987 149.899124,365.752664 C144.433642,371.415779 135.566946,371.415779 130.099111,365.752664 C124.63363,360.091987 124.63363,350.908623 130.099111,345.245508 Z" id="Stroke-33" stroke="#0F222E" stroke-width="4" stroke-linecap="round" stroke-linejoin="round"></path>
        <path d="M201,238 C201,238 246.674032,186.559252 304,237.538203" id="Stroke-35" stroke="#0F222E" stroke-width="4" stroke-linecap="round" stroke-linejoin="round"></path>
        <path d="M220,276 C220,276 247.721065,289.5 285,276" id="Stroke-37" stroke="#0F222E" stroke-width="4" stroke-linecap="round" stroke-linejoin="round"></path>
        <path d="M239.510925,237 C236.451997,237 234,234.545033 234,231.48543 C234,228.45011 236.451997,226 239.510925,226 C242.545575,226 245,228.45011 245,231.48543 C245,234.545033 242.545575,237 239.510925,237 M251.49748,216 C235.773342,216 223,222.386363 223,237.9174 C223,253.426072 235.773342,266 251.49748,266 C267.246817,266 280,253.426072 280,237.9174 C280,222.386363 267.246817,216 251.49748,216" id="Fill-39" fill="#0F222E"></path>
    </g>
</svg>