<?xml version="1.0" encoding="UTF-8"?>
<svg width="889px" height="134px" viewBox="0 0 889 134" version="1.1" xmlns="http://www.w3.org/2000/svg" xmlns:xlink="http://www.w3.org/1999/xlink">
    <!-- Generator: Sketch 53.2 (72643) - https://sketchapp.com -->
    <title>Deckers</title>
    <desc>Created with Sketch.</desc>
    <defs>
        <polygon id="path-1" points="-1.13686838e-13 133.908 888.905 133.908 888.905 -5.68434189e-14 -1.13686838e-13 -5.68434189e-14"></polygon>
    </defs>
    <g id="Page-1" stroke="none" stroke-width="1" fill="none" fill-rule="evenodd">
        <g id="Home-Page" transform="translate(201.000000, -441.000000)">
            <g id="Group-2" transform="translate(-201.000000, 441.000000)">
                <g id="Deckers">
                    <path d="M77.5581,24.9595 C77.5301,24.9595 77.5011,24.9585 77.4721,24.9575 C77.4721,24.1895 77.4761,23.4225 77.4691,22.6545 C77.4681,22.4745 77.4311,22.2945 77.4071,22.1145 C77.2221,20.7505 76.6851,20.1155 75.5371,19.9455 C75.2341,19.9005 74.9181,19.9055 74.6111,19.9315 C73.2711,20.0425 72.5871,20.6155 72.3021,21.9245 C71.9101,23.7305 71.9121,25.5515 72.2831,27.3585 C72.5741,28.7785 73.4911,29.4475 74.9921,29.4715 C76.5511,29.4955 77.2631,28.5965 77.4001,27.2905 C77.4811,26.5165 77.5071,25.7365 77.5581,24.9595 M77.5091,17.2585 L77.5091,11.4705 L83.1781,11.4705 L83.1781,11.8105 C83.1781,18.2275 83.1761,24.6435 83.1831,31.0605 C83.1831,31.3305 83.1251,31.4275 82.8301,31.4785 C81.5391,31.7005 80.2501,31.9465 78.9691,32.2215 C77.0691,32.6285 75.1491,32.6315 73.2311,32.5065 C72.3241,32.4465 71.4081,32.2715 70.5351,32.0175 C68.5791,31.4455 67.3141,30.1545 66.8391,28.1475 C66.2951,25.8455 66.2751,23.5285 66.8171,21.2315 C67.4061,18.7385 68.9971,17.3485 71.5441,16.9765 C73.5161,16.6885 75.4771,16.6625 77.5091,17.2585" id="Fill-77" fill="#6E6E6E"></path>
                    <path d="M137.3902,17.2202 C135.1452,19.2092 132.9002,21.1982 130.6552,23.1872 C130.6732,23.2222 130.6912,23.2572 130.7092,23.2932 C131.1812,23.4092 131.6522,23.5222 132.1222,23.6422 C132.9222,23.8452 133.6872,24.1302 134.3892,24.5742 C135.2422,25.1162 135.7892,25.8652 136.0262,26.8502 C136.4372,28.5602 136.6482,30.2912 136.6152,32.0502 C136.6142,32.1132 136.6032,32.1742 136.5962,32.2362 L130.7712,32.2362 C130.7322,31.6822 130.7152,31.1612 130.6532,30.6462 C130.5692,29.9592 130.4672,29.2732 130.3432,28.5922 C130.0992,27.2602 129.2202,26.5522 127.9552,26.2822 C127.5042,26.1842 127.0312,26.1912 126.5182,26.1462 L126.5182,32.2592 L120.6312,32.2592 L120.6312,11.4662 L126.5362,11.4662 L126.5362,21.3712 C126.6652,21.2462 126.7562,21.1672 126.8382,21.0792 C128.0162,19.8142 129.1912,18.5442 130.3772,17.2852 C130.4732,17.1842 130.6432,17.0972 130.7792,17.0972 C132.8612,17.0942 134.9432,17.1062 137.0242,17.1162 C137.1362,17.1162 137.2472,17.1332 137.3592,17.1432 C137.3692,17.1682 137.3792,17.1952 137.3902,17.2202" id="Fill-79" fill="#6E6E6E"></path>
                    <path d="M148.6138,23.065 C148.5488,22.502 148.5068,21.981 148.4248,21.467 C148.3168,20.783 147.8868,20.327 147.2618,20.092 C146.5538,19.827 145.8188,19.822 145.0998,20.083 C144.6828,20.234 144.3688,20.516 144.1558,20.907 C143.7858,21.584 143.7988,22.315 143.8258,23.065 L148.6138,23.065 Z M154.3588,25.538 L143.8188,25.538 C143.8138,26.441 143.7718,27.304 144.0968,28.131 C144.3258,28.713 144.7378,29.107 145.3378,29.291 C146.0058,29.495 146.6838,29.519 147.3588,29.339 C148.0438,29.158 148.4678,28.727 148.5378,27.996 C148.5458,27.922 148.5688,27.851 148.5888,27.758 L154.2798,27.758 C154.3248,28.756 154.0558,29.653 153.4658,30.449 C152.9158,31.191 152.1328,31.597 151.2888,31.902 C150.0928,32.334 148.8468,32.499 147.5868,32.571 C145.9188,32.667 144.2578,32.604 142.6178,32.25 C140.1998,31.726 138.7258,30.259 138.1918,27.839 C137.6998,25.613 137.7338,23.395 138.2468,21.176 C138.7718,18.906 140.1948,17.58 142.4588,17.105 C144.4018,16.697 146.3568,16.683 148.3208,16.881 C149.2988,16.98 150.2658,17.135 151.1838,17.515 C152.9198,18.234 153.9058,19.562 154.1418,21.387 C154.3138,22.716 154.3188,24.068 154.3968,25.41 C154.3988,25.438 154.3798,25.468 154.3588,25.538 L154.3588,25.538 Z" id="Fill-81" fill="#6E6E6E"></path>
                    <path d="M95.2705,23.0698 C95.2015,22.4768 95.1725,21.9238 95.0635,21.3838 C94.9415,20.7798 94.6125,20.2558 93.9845,20.1118 C93.4125,19.9818 92.7935,19.8968 92.2185,19.9698 C90.9075,20.1378 90.1035,21.6758 90.5255,23.0698 L95.2705,23.0698 Z M95.2395,27.7518 L100.9085,27.7518 C100.9995,28.6368 100.7965,29.4338 100.3185,30.1618 C99.7495,31.0268 98.9365,31.5728 97.9705,31.8988 C96.0065,32.5618 93.9785,32.6918 91.9315,32.5658 C91.0185,32.5098 90.0995,32.4038 89.2055,32.2168 C86.8635,31.7278 85.3925,30.2778 84.8765,27.9488 C84.4035,25.8098 84.4145,23.6388 84.8145,21.4898 C85.2865,18.9678 86.8635,17.5208 89.3655,17.0458 C91.2395,16.6898 93.1235,16.7058 95.0115,16.8848 C96.0005,16.9788 96.9715,17.1518 97.8995,17.5438 C99.4635,18.2028 100.3705,19.3748 100.7315,21.0088 C101.0515,22.4618 101.0345,23.9348 101.0275,25.4078 C101.0275,25.4368 101.0105,25.4658 100.9895,25.5318 L90.4795,25.5318 C90.4615,26.4308 90.4135,27.2948 90.7355,28.1218 C91.0435,28.9098 91.6635,29.3048 92.4725,29.3958 C92.9145,29.4448 93.3685,29.4408 93.8125,29.4028 C94.6075,29.3338 95.1355,28.7078 95.2395,27.7518 L95.2395,27.7518 Z" id="Fill-83" fill="#6E6E6E"></path>
                    <path d="M170.9536,27.3823 L176.5626,27.3823 C176.5806,27.5693 176.5746,27.7633 176.6216,27.9433 C176.8026,28.6353 177.2466,29.1203 177.9216,29.3253 C178.7966,29.5923 179.6766,29.5133 180.5176,29.1523 C180.9186,28.9803 181.2176,28.7193 181.1966,28.2113 C181.1746,27.6753 181.0736,27.1833 180.4886,27.0193 C179.6486,26.7833 178.8006,26.5773 177.9476,26.3953 C176.6876,26.1243 175.4116,25.9253 174.1606,25.6213 C172.4456,25.2043 171.4656,24.1313 171.3566,22.3103 C171.2616,20.7123 171.5116,19.2603 172.8456,18.1923 C173.4546,17.7033 174.1556,17.3853 174.9086,17.2053 C177.6726,16.5483 180.4346,16.5213 183.1446,17.4393 C184.9886,18.0643 186.0676,19.3703 186.2276,21.3593 C186.2406,21.5263 186.2286,21.6943 186.2286,21.8793 L181.1016,21.8793 C181.0776,21.7593 181.0466,21.6373 181.0276,21.5143 C180.8916,20.6653 180.4176,20.1363 179.5616,20.0113 C179.0726,19.9403 178.5606,19.9463 178.0676,19.9993 C177.5246,20.0573 177.2056,20.4283 177.0786,20.9563 C176.9526,21.4853 177.1066,22.0303 177.5526,22.2793 C177.9646,22.5103 178.4206,22.7023 178.8816,22.7953 C180.1246,23.0463 181.3866,23.2043 182.6276,23.4603 C183.3436,23.6093 184.0536,23.8273 184.7326,24.0993 C185.8406,24.5403 186.4716,25.3923 186.6606,26.5753 C186.8296,27.6383 186.8346,28.6863 186.3796,29.6843 C185.8326,30.8853 184.8126,31.5313 183.6226,31.9613 C182.4656,32.3793 181.2566,32.5103 180.0396,32.5703 C178.1656,32.6653 176.3046,32.5883 174.4966,32.0173 C173.1516,31.5923 172.0646,30.8303 171.4286,29.5333 C171.0996,28.8653 170.9936,28.1403 170.9536,27.3823" id="Fill-85" fill="#6E6E6E"></path>
                    <path d="M112.9624,26.4771 L118.8834,26.4771 C118.8504,27.4621 118.8504,28.4321 118.5364,29.3671 C118.1004,30.6681 117.1334,31.4141 115.9114,31.9001 C114.9284,32.2891 113.8974,32.4601 112.8484,32.5061 C111.0044,32.5871 109.1524,32.6821 107.3294,32.2811 C105.9044,31.9681 104.6024,31.4131 103.6954,30.1901 C103.0294,29.2911 102.7104,28.2531 102.5664,27.1641 C102.3184,25.2911 102.2954,23.4141 102.6644,21.5541 C103.1594,19.0651 104.7334,17.6471 107.1704,17.1081 C108.8664,16.7331 110.5814,16.7291 112.3014,16.8171 C113.3694,16.8711 114.4304,16.9871 115.4564,17.3061 C116.6654,17.6811 117.7024,18.2921 118.3164,19.4601 C118.6594,20.1151 118.8114,20.8221 118.8504,21.5521 C118.8724,21.9861 118.8544,22.4211 118.8544,22.8631 L113.0244,22.8631 C112.9834,22.4521 112.9534,22.0701 112.9074,21.6901 C112.7644,20.4981 112.1564,19.9451 110.9624,19.9181 C110.7384,19.9141 110.5134,19.9191 110.2914,19.9451 C109.1744,20.0721 108.6864,20.8551 108.5394,21.8271 C108.2404,23.8071 108.1594,25.8061 108.6104,27.7781 C108.9634,29.3211 110.7204,29.9961 112.0804,29.1551 C112.7684,28.7281 112.9104,28.0291 112.9594,27.2971 C112.9774,27.0331 112.9624,26.7671 112.9624,26.4771" id="Fill-87" fill="#6E6E6E"></path>
                    <path d="M126.6021,36.0874 C115.2191,36.0874 103.8361,36.0924 92.4541,36.0854 C84.6371,36.0814 76.8211,36.0614 69.0051,36.0434 C68.2361,36.0414 67.4681,36.0174 66.7001,35.9854 C66.2961,35.9694 66.1021,35.6704 66.2031,35.2834 C66.2761,34.9984 66.4891,34.9374 66.7381,34.9324 C67.5601,34.9124 68.3821,34.8854 69.2041,34.8814 C73.3151,34.8654 77.4261,34.8484 81.5371,34.8474 C107.9981,34.8414 134.4581,34.8374 160.9181,34.8394 C168.5101,34.8394 176.1021,34.8594 183.6941,34.8764 C184.6231,34.8784 185.5521,34.9114 186.4801,34.9304 C186.7621,34.9364 186.9811,35.0184 187.0351,35.3384 C187.1001,35.7254 186.9151,35.9754 186.5051,35.9874 C185.4481,36.0194 184.3911,36.0494 183.3341,36.0524 C177.6541,36.0664 171.9731,36.0784 166.2921,36.0804 C153.0621,36.0844 139.8321,36.0814 126.6021,36.0814 L126.6021,36.0874 Z" id="Fill-89" fill="#6E6E6E"></path>
                    <path d="M155.8926,17.897 C156.7036,17.768 157.5336,17.64 158.3636,17.505 C159.6366,17.299 160.9076,17.076 162.1826,16.884 C163.8506,16.635 165.5046,16.698 167.1146,17.242 C168.2686,17.632 169.1676,18.324 169.5626,19.534 C169.6326,19.745 169.6886,19.97 169.6916,20.189 C169.7056,21.169 169.6986,22.149 169.6986,23.153 L164.1816,23.153 C164.1816,22.637 164.1826,22.128 164.1806,21.621 C164.1806,21.482 164.1716,21.343 164.1636,21.205 C164.1006,20.067 162.9476,19.497 161.9806,20.124 C161.7426,20.279 161.5956,20.486 161.5876,20.78 C161.5576,21.889 161.5106,22.998 161.4966,24.107 C161.4656,26.668 161.4516,29.23 161.4296,31.792 C161.4286,31.919 161.4296,32.046 161.4296,32.198 L155.8926,32.198 L155.8926,17.897 Z" id="Fill-91" fill="#6E6E6E"></path>
                    <path d="M181.3555,40.4448 L181.3555,44.8148 L180.2625,44.8148 L180.2625,38.7588 C180.7585,38.7588 181.2465,38.7488 181.7325,38.7688 C181.8195,38.7728 181.9185,38.8928 181.9805,38.9808 C182.8265,40.1738 183.6675,41.3698 184.5085,42.5648 C184.5935,42.6858 184.6805,42.8048 184.8445,42.9158 L184.8445,38.7748 L186.0355,38.7748 L186.0355,44.8408 C185.5895,44.8198 185.1545,44.8118 184.7235,44.7688 C184.6355,44.7598 184.5475,44.6308 184.4815,44.5408 C183.5465,43.2668 182.6155,41.9908 181.6825,40.7168 C181.6085,40.6168 181.5235,40.5248 181.4435,40.4288 C181.4145,40.4338 181.3845,40.4398 181.3555,40.4448" id="Fill-93" fill="#6E6E6E"></path>
                    <path d="M89.1211,43.9595 C89.7361,43.9295 90.3101,43.9165 90.8821,43.8675 C91.1331,43.8465 91.4091,43.8045 91.6171,43.6795 C91.8291,43.5525 92.0721,43.3365 92.1261,43.1165 C92.3341,42.2605 92.3531,41.3865 92.1511,40.5185 C92.0641,40.1445 91.8421,39.8465 91.4741,39.7815 C90.7041,39.6475 89.9231,39.5765 89.1211,39.4775 L89.1211,43.9595 Z M87.8651,38.7145 C89.2191,38.7535 90.5481,38.7235 91.8611,38.8525 C92.8871,38.9535 93.4421,39.5435 93.4821,40.4495 C93.5231,41.3965 93.5211,42.3485 93.4631,43.2935 C93.4181,44.0215 92.8601,44.5845 91.9991,44.6705 C90.6361,44.8075 89.2611,44.8255 87.8651,44.8955 L87.8651,38.7145 Z" id="Fill-95" fill="#6E6E6E"></path>
                    <path d="M133.2852,39.4995 L133.2852,41.4065 C134.0022,41.4065 134.6922,41.4295 135.3802,41.3975 C135.8162,41.3785 136.0542,41.0965 136.0872,40.6775 C136.1322,40.1145 135.9452,39.7285 135.4852,39.6655 C134.7642,39.5675 134.0322,39.5515 133.2852,39.4995 M136.0982,41.9855 C136.8972,42.2505 137.2672,42.7475 137.3282,43.5025 C137.3622,43.9355 137.4572,44.3625 137.5292,44.8145 L136.2222,44.8145 C136.1602,44.4145 136.0982,44.0175 136.0382,43.6185 C135.9052,42.7475 135.5892,42.4485 134.7142,42.4115 C134.2472,42.3915 133.7792,42.4075 133.2702,42.4075 L133.2702,44.8095 L132.0152,44.8095 L132.0152,38.8015 C132.0372,38.7875 132.0542,38.7665 132.0712,38.7665 C133.3932,38.7845 134.7162,38.7875 136.0382,38.8325 C136.6652,38.8535 137.2852,39.3455 137.3492,39.8755 C137.4572,40.7595 137.3822,41.3245 136.6152,41.7065 C136.4652,41.7805 136.3202,41.8655 136.0982,41.9855" id="Fill-97" fill="#6E6E6E"></path>
                    <path d="M109.9766,39.5151 L109.9766,41.5051 C110.7056,41.4641 111.4086,41.4551 112.1036,41.3761 C112.5766,41.3221 112.7826,41.0011 112.7706,40.5151 C112.7596,40.0421 112.4976,39.6671 112.0636,39.6261 C111.3786,39.5601 110.6876,39.5501 109.9766,39.5151 M112.8266,41.9431 C112.8656,41.9931 112.8756,42.0111 112.8916,42.0231 C113.1756,42.2361 113.6116,42.3931 113.7146,42.6721 C113.9406,43.2911 114.0046,43.9721 114.1146,44.6301 C114.1226,44.6821 113.9746,44.8111 113.8906,44.8191 C113.6156,44.8441 113.3346,44.8491 113.0606,44.8211 C112.9816,44.8131 112.8746,44.6751 112.8546,44.5811 C112.7686,44.1761 112.7326,43.7591 112.6346,43.3561 C112.4786,42.7111 112.1476,42.4411 111.4816,42.4101 C110.9846,42.3861 110.4856,42.4051 109.9566,42.4051 L109.9566,44.8101 L108.7056,44.8101 L108.7056,38.7661 C108.7856,38.7571 108.8566,38.7421 108.9286,38.7431 C110.1546,38.7671 111.3806,38.7861 112.6066,38.8241 C113.3396,38.8461 113.8326,39.2321 113.9746,39.8521 C114.1876,40.7811 113.9856,41.3071 113.2656,41.7021 C113.1256,41.7781 112.9876,41.8551 112.8266,41.9431" id="Fill-99" fill="#6E6E6E"></path>
                    <path d="M153.0967,41.5083 C153.8757,41.4613 154.6177,41.4423 155.3517,41.3573 C155.5337,41.3363 155.7847,41.1373 155.8427,40.9653 C156.0677,40.2993 155.9197,39.6853 155.0967,39.6083 C154.5047,39.5523 153.9057,39.5563 153.3087,39.5503 C153.2387,39.5493 153.1077,39.6533 153.1057,39.7113 C153.0907,40.2833 153.0967,40.8573 153.0967,41.5083 M155.8737,41.9993 C156.8297,42.1973 157.0707,42.8623 157.1777,43.6183 C157.2327,44.0073 157.2707,44.3993 157.3207,44.8313 C156.9237,44.8313 156.5627,44.8413 156.2037,44.8213 C156.1417,44.8183 156.0507,44.6963 156.0337,44.6163 C155.9407,44.1793 155.8737,43.7373 155.7847,43.2983 C155.6767,42.7573 155.3297,42.4613 154.7897,42.4193 C154.3007,42.3823 153.8087,42.3873 153.3187,42.3653 C153.1217,42.3573 153.0917,42.4603 153.0927,42.6233 C153.0977,43.2313 153.0947,43.8393 153.0947,44.4473 L153.0947,44.8123 L151.8667,44.8123 L151.8667,38.7813 C151.9177,38.7703 151.9767,38.7423 152.0357,38.7433 C153.2837,38.7683 154.5327,38.7743 155.7797,38.8283 C156.9857,38.8823 157.6647,40.2133 157.0037,41.2353 C156.8477,41.4763 156.5367,41.6203 156.2887,41.7983 C156.1907,41.8683 156.0687,41.9063 155.8737,41.9993" id="Fill-101" fill="#6E6E6E"></path>
                    <path d="M129.773,41.7769 L129.731,41.7739 C129.731,41.5829 129.736,41.3899 129.729,41.1989 C129.722,40.9959 129.709,40.7939 129.69,40.5909 C129.631,39.9679 129.333,39.5919 128.719,39.4929 C128.25,39.4179 127.762,39.3859 127.289,39.4199 C126.523,39.4749 126.152,39.8329 126.118,40.5969 C126.081,41.4359 126.107,42.2809 126.156,43.1199 C126.188,43.6709 126.476,44.0029 127.026,44.0649 C127.611,44.1309 128.215,44.1249 128.8,44.0619 C129.242,44.0139 129.553,43.6949 129.625,43.2369 C129.701,42.7549 129.726,42.2639 129.773,41.7769 M127.892,38.6669 C128.338,38.6959 128.789,38.6969 129.231,38.7599 C130.249,38.9059 130.84,39.4969 130.9,40.5159 C130.953,41.3969 130.917,42.2849 130.891,43.1689 C130.871,43.8469 130.485,44.3119 129.883,44.5669 C129.525,44.7179 129.133,44.8209 128.747,44.8669 C127.929,44.9629 127.106,44.9649 126.303,44.7279 C125.367,44.4539 124.94,43.9589 124.888,42.9889 C124.844,42.1709 124.831,41.3469 124.876,40.5299 C124.939,39.4129 125.689,38.8459 126.835,38.7119 C127.182,38.6709 127.538,38.7059 127.89,38.7059 C127.891,38.6919 127.891,38.6789 127.892,38.6669" id="Fill-103" fill="#6E6E6E"></path>
                    <path d="M177.9336,41.7515 C177.8986,41.3115 177.8746,40.8315 177.8176,40.3565 C177.7606,39.8765 177.4616,39.5715 176.9926,39.5065 C176.4896,39.4365 175.9736,39.3875 175.4676,39.4135 C174.7446,39.4525 174.3646,39.7915 174.3256,40.5025 C174.2746,41.3935 174.3146,42.2905 174.3446,43.1835 C174.3596,43.6125 174.6366,43.8865 175.0346,44.0155 C175.6896,44.2285 176.3586,44.2335 177.0186,44.0495 C177.4736,43.9215 177.7866,43.6265 177.8356,43.1305 C177.8786,42.6855 177.8996,42.2375 177.9336,41.7515 M179.1546,41.7675 C179.1346,42.1775 179.1206,42.5715 179.0956,42.9655 C179.0316,43.9435 178.5646,44.5305 177.6076,44.7465 C176.6206,44.9695 175.6176,44.9925 174.6236,44.7725 C173.6446,44.5535 173.1146,43.9355 173.0706,42.9305 C173.0366,42.1335 173.0486,41.3335 173.0636,40.5345 C173.0796,39.7065 173.5576,39.1605 174.2916,38.9115 C174.8046,38.7385 175.3756,38.6795 175.9206,38.6825 C176.5636,38.6855 177.2246,38.7395 177.8456,38.8985 C178.6096,39.0965 179.0166,39.6815 179.0856,40.4725 C179.1236,40.9075 179.1336,41.3455 179.1546,41.7675" id="Fill-105" fill="#6E6E6E"></path>
                    <path d="M149.565,41.8189 C149.547,41.4549 149.529,40.9539 149.494,40.4549 C149.468,40.0889 149.292,39.8069 148.955,39.6429 C148.158,39.2559 147.353,39.2669 146.551,39.6209 C146.187,39.7819 145.981,40.0899 145.971,40.4759 C145.949,41.3379 145.935,42.2019 145.973,43.0619 C146,43.6589 146.326,44.0149 146.931,44.0809 C147.484,44.1409 148.058,44.1339 148.609,44.0579 C149.188,43.9769 149.443,43.6219 149.489,43.0419 C149.518,42.6799 149.535,42.3179 149.565,41.8189 L149.565,41.8189 Z M147.755,38.7049 C148.086,38.7049 148.419,38.6789 148.747,38.7099 C149.819,38.8079 150.615,39.3049 150.752,40.5169 C150.859,41.4659 150.828,42.4119 150.683,43.3549 C150.579,44.0329 150.154,44.4279 149.543,44.6519 C148.68,44.9679 147.78,44.9819 146.891,44.8569 C146.407,44.7899 145.921,44.6169 145.479,44.4039 C145.024,44.1839 144.765,43.7549 144.744,43.2399 C144.708,42.3669 144.661,41.4909 144.7,40.6199 C144.752,39.4729 145.478,38.7979 146.668,38.7109 C147.028,38.6839 147.392,38.7069 147.755,38.7069 L147.755,38.7049 Z" id="Fill-107" fill="#6E6E6E"></path>
                    <path d="M106.4175,41.8394 C106.3795,41.2854 106.3555,40.8274 106.3135,40.3714 C106.2705,39.8944 105.9805,39.5924 105.5285,39.5264 C104.9835,39.4454 104.4275,39.4184 103.8755,39.4194 C103.5105,39.4194 103.1735,39.6044 102.9925,39.9234 C102.8565,40.1624 102.7635,40.4624 102.7625,40.7354 C102.7575,41.5734 102.7805,42.4144 102.8445,43.2504 C102.8735,43.6324 103.1355,43.9144 103.5175,44.0304 C104.1965,44.2374 104.8795,44.2634 105.5595,44.0254 C105.9785,43.8774 106.2485,43.5864 106.3065,43.1474 C106.3675,42.6834 106.3875,42.2144 106.4175,41.8394 M101.5065,41.5494 C101.5065,41.2814 101.4975,41.0154 101.5075,40.7484 C101.5515,39.6564 102.0875,38.9764 103.1555,38.7744 C104.1035,38.5944 105.0735,38.5794 106.0185,38.7834 C106.8385,38.9604 107.4165,39.4394 107.5465,40.3354 C107.6855,41.2924 107.7105,42.2504 107.5585,43.2044 C107.4165,44.0854 106.7985,44.6684 105.8125,44.8204 C104.9235,44.9574 104.0255,44.9774 103.1395,44.7774 C102.9335,44.7314 102.7265,44.6624 102.5365,44.5704 C101.9315,44.2784 101.5855,43.8084 101.5645,43.1144 C101.5495,42.5934 101.5095,42.0714 101.4805,41.5504 C101.4895,41.5494 101.4985,41.5494 101.5065,41.5494" id="Fill-109" fill="#6E6E6E"></path>
                    <path d="M99.3213,41.8179 L99.3163,41.8179 C99.3163,41.4029 99.3393,40.9849 99.3113,40.5719 C99.2623,39.8659 98.9553,39.5429 98.2653,39.4659 C97.8543,39.4219 97.4363,39.3969 97.0223,39.4049 C96.3053,39.4179 95.7903,39.8699 95.7513,40.5809 C95.7083,41.3779 95.7133,42.1799 95.7493,42.9779 C95.7783,43.5959 96.0773,43.9159 96.6813,44.0839 C97.2943,44.2549 97.9063,44.2229 98.5083,44.0269 C99.0443,43.8519 99.2913,43.5369 99.3183,42.9689 C99.3363,42.5869 99.3213,42.2019 99.3213,41.8179 M100.5373,41.8299 C100.5373,42.2239 100.5443,42.6199 100.5363,43.0129 C100.5183,43.8369 100.0883,44.3739 99.3393,44.6579 C98.5093,44.9719 97.6403,44.9619 96.7793,44.8619 C96.3233,44.8089 95.8533,44.6959 95.4383,44.5049 C94.8693,44.2429 94.5433,43.7459 94.5313,43.1019 C94.5143,42.2279 94.4953,41.3519 94.5343,40.4789 C94.5793,39.4989 95.4023,38.7619 96.5053,38.7069 C97.2063,38.6709 97.9123,38.6989 98.6153,38.7159 C99.1003,38.7279 99.5233,38.9339 99.9153,39.2029 C100.3783,39.5199 100.4893,40.0109 100.5223,40.5189 C100.5503,40.9549 100.5283,41.3929 100.5283,41.8309 C100.5313,41.8299 100.5343,41.8299 100.5373,41.8299" id="Fill-111" fill="#6E6E6E"></path>
                    <path d="M72.1118,41.8267 L72.1298,41.8267 C72.1298,41.6017 72.1348,41.3777 72.1278,41.1537 C72.1218,40.9507 72.1068,40.7487 72.0878,40.5467 C72.0308,39.9617 71.7378,39.5577 71.1948,39.4857 C70.6608,39.4147 70.1088,39.4007 69.5728,39.4497 C68.9558,39.5067 68.6758,39.8117 68.5588,40.4287 C68.3868,41.3297 68.4208,42.2357 68.5458,43.1387 C68.6128,43.6227 68.9288,43.9637 69.3798,44.0477 C69.8948,44.1427 70.4428,44.1797 70.9598,44.1117 C71.7268,44.0127 72.0608,43.5837 72.1088,42.8177 C72.1288,42.4887 72.1118,42.1567 72.1118,41.8267 L72.1118,41.8267 Z M67.2948,41.7157 C67.2948,41.3207 67.2788,40.9257 67.2988,40.5317 C67.3398,39.7027 67.7908,39.1537 68.5568,38.8947 C68.9338,38.7677 69.3478,38.6907 69.7448,38.6927 C70.4558,38.6967 71.1778,38.7117 71.8728,38.8437 C72.7728,39.0137 73.2578,39.6137 73.2988,40.5247 C73.3368,41.3857 73.3188,42.2507 73.2898,43.1117 C73.2658,43.8607 72.8678,44.4027 72.1668,44.6317 C70.9508,45.0267 69.7068,45.0547 68.4878,44.6427 C67.6798,44.3707 67.2968,43.7517 67.2938,42.8997 C67.2928,42.5057 67.2938,42.1097 67.2938,41.7157 L67.2948,41.7157 Z" id="Fill-113" fill="#6E6E6E"></path>
                    <path d="M78.9214,38.7632 L80.1214,38.7632 C80.1384,38.7972 80.1644,38.8252 80.1644,38.8522 C80.1514,40.3462 80.1594,41.8412 80.1144,43.3342 C80.0914,44.0762 79.5644,44.6432 78.8354,44.7682 C77.8174,44.9432 76.7914,44.9322 75.7754,44.7572 C74.9874,44.6222 74.5324,44.0922 74.5144,43.3002 C74.4814,41.8382 74.4764,40.3752 74.4604,38.9122 C74.4604,38.8712 74.4704,38.8302 74.4784,38.7712 L75.7244,38.7712 L75.7244,39.1262 L75.7244,42.8752 C75.7244,43.5102 76.1094,44.0282 76.7434,44.1232 C77.1364,44.1832 77.5554,44.1742 77.9464,44.1062 C78.5344,44.0022 78.8684,43.5322 78.8804,42.8602 C78.9044,41.6322 78.9094,40.4042 78.9214,39.1762 C78.9224,39.0502 78.9214,38.9232 78.9214,38.7632" id="Fill-115" fill="#6E6E6E"></path>
                    <path d="M161.2593,40.0366 C161.2213,40.0386 161.1843,40.0396 161.1473,40.0406 C160.9363,40.6076 160.7263,41.1756 160.4983,41.7906 L161.9613,41.7906 C161.7113,41.1676 161.4853,40.6016 161.2593,40.0366 M164.5443,44.8316 C164.1163,44.8316 163.7033,44.8436 163.2913,44.8206 C163.2163,44.8166 163.1193,44.6836 163.0813,44.5916 C162.8553,44.0386 162.6533,43.4766 162.4173,42.9286 C162.3713,42.8206 162.2213,42.6956 162.1133,42.6886 C161.5493,42.6556 160.9823,42.6476 160.4163,42.6596 C160.3193,42.6616 160.1753,42.7786 160.1373,42.8766 C159.9143,43.4416 159.7103,44.0146 159.5163,44.5906 C159.4563,44.7706 159.3753,44.8486 159.1773,44.8376 C158.8733,44.8196 158.5683,44.8326 158.1883,44.8326 C158.2943,44.5406 158.3633,44.3336 158.4443,44.1306 C159.1153,42.4356 159.7933,40.7436 160.4593,39.0476 C160.5443,38.8296 160.6483,38.7266 160.8983,38.7446 C161.2483,38.7686 161.6033,38.7376 161.9543,38.7596 C162.0533,38.7656 162.2003,38.8496 162.2353,38.9336 C163.0083,40.8406 163.7693,42.7516 164.5313,44.6626 C164.5393,44.6826 164.5353,44.7046 164.5443,44.8316" id="Fill-117" fill="#6E6E6E"></path>
                    <path d="M123.8369,40.7241 L122.7409,40.7241 C122.7119,40.6311 122.6719,40.5361 122.6519,40.4361 C122.5389,39.8681 122.1949,39.5271 121.6299,39.4331 C121.0669,39.3391 120.5049,39.3281 119.9679,39.5781 C119.6469,39.7291 119.4089,39.9461 119.4089,40.3251 C119.4069,41.2711 119.3929,42.2191 119.4319,43.1641 C119.4519,43.6391 119.7819,43.9241 120.2309,44.0581 C120.7309,44.2071 121.2309,44.2331 121.7429,44.0951 C122.2719,43.9531 122.5569,43.6201 122.6409,43.0931 C122.6679,42.9251 122.6919,42.7571 122.7199,42.5781 L123.8659,42.5781 C123.9229,43.9251 123.3169,44.7091 122.0099,44.8331 C121.2549,44.9061 120.4729,44.8831 119.7239,44.7701 C118.7589,44.6231 118.1929,44.0021 118.0729,43.0011 C117.9609,42.0731 117.9729,41.1511 118.1079,40.2271 C118.2369,39.3461 118.8649,38.9521 119.6239,38.7841 C120.6309,38.5601 121.6639,38.5691 122.6689,38.8291 C123.5199,39.0501 123.9709,39.8081 123.8369,40.7241" id="Fill-119" fill="#6E6E6E"></path>
                    <path d="M139.8086,39.5073 L139.8086,40.6173 L139.8086,41.6063 C140.4586,41.6063 141.0556,41.6273 141.6486,41.5993 C142.2006,41.5723 142.4456,41.2973 142.4876,40.7503 C142.5366,40.1173 142.3206,39.7213 141.7816,39.6453 C141.1446,39.5553 140.4966,39.5513 139.8086,39.5073 M139.8166,42.6053 L139.8166,44.8073 L138.6676,44.8073 L138.6676,38.7953 C138.6876,38.7863 138.7156,38.7603 138.7426,38.7603 C139.9686,38.7793 141.1956,38.7683 142.4186,38.8343 C143.3236,38.8833 143.6416,39.2153 143.7416,40.1233 C143.7876,40.5413 143.7626,40.9783 143.6966,41.3943 C143.6056,41.9693 142.9746,42.4093 142.1996,42.4683 C141.4866,42.5233 140.7716,42.5423 140.0586,42.5783 C139.9856,42.5823 139.9126,42.5943 139.8166,42.6053" id="Fill-121" fill="#6E6E6E"></path>
                    <polygon id="Fill-123" fill="#6E6E6E" points="86.8101 38.7788 86.8101 39.5408 84.6491 39.5408 84.6491 44.8108 83.3821 44.8108 83.3821 39.5558 81.2151 39.5558 81.2151 38.7788"></polygon>
                    <polygon id="Fill-125" fill="#6E6E6E" points="166.2134 44.812 166.2134 39.555 164.0604 39.555 164.0604 38.778 169.6494 38.778 169.6494 39.541 167.4924 39.541 167.4924 44.812"></polygon>
                    <mask id="mask-2" fill="white">
                        <use xlink:href="#path-1"></use>
                    </mask>
                    <g id="Clip-128"></g>
                    <polygon id="Fill-127" fill="#6E6E6E" mask="url(#mask-2)" points="170.707 44.808 171.922 44.808 171.922 38.769 170.707 38.769"></polygon>
                </g>
            </g>
        </g>
    </g>
</svg>