<?xml version="1.0" encoding="UTF-8"?>
<svg width="133px" height="28px" viewBox="0 0 133 28" version="1.1" xmlns="http://www.w3.org/2000/svg" xmlns:xlink="http://www.w3.org/1999/xlink">
    <!-- Generator: Sketch 53.2 (72643) - https://sketchapp.com -->
    <title>Grubhub</title>
    <desc>Created with Sketch.</desc>
    <g id="Page-1" stroke="none" stroke-width="1" fill="none" fill-rule="evenodd">
        <g id="Home-Page" transform="translate(-61.000000, -455.000000)" fill="#6E6E6E">
            <g id="Group-2" transform="translate(-201.000000, 441.000000)">
                <g id="Grubhub" transform="translate(262.000000, 14.000000)">
                    <path d="M121.7289,8.4257 L121.7289,10.6717 C121.7289,10.6827 121.7299,10.6937 121.7289,10.7037 C121.6909,10.9697 121.7879,11.0727 122.0719,11.0657 C122.7429,11.0457 123.4149,11.0617 124.0859,11.0587 C124.9909,11.0537 125.7239,10.5207 125.9859,9.6587 C126.2049,8.9407 126.2169,8.2027 126.0709,7.4727 C125.8549,6.3957 125.1809,5.8407 124.0829,5.8187 C123.4229,5.8057 122.7629,5.8267 122.1029,5.8097 C121.8189,5.8027 121.7149,5.8817 121.7229,6.1807 C121.7419,6.9287 121.7289,7.6777 121.7289,8.4257 L121.7289,8.4257 Z M121.4649,18.9647 C121.4649,19.8017 121.4729,20.6377 121.4599,21.4747 C121.4559,21.7207 121.5349,21.7977 121.7809,21.7927 C122.6389,21.7787 123.4979,21.7937 124.3559,21.7777 C125.4909,21.7557 126.1909,21.2087 126.3739,20.0897 C126.4689,19.5037 126.4589,18.8767 126.3669,18.2887 C126.1699,17.0427 125.5819,16.2657 124.3529,16.1607 C123.4669,16.0867 122.5709,16.1397 121.6799,16.1337 C121.4409,16.1317 121.4649,16.3007 121.4649,16.4557 L121.4649,18.9647 Z M132.2559,19.5077 C132.1869,19.9507 132.1289,20.3967 132.0479,20.8367 C131.4249,24.2277 129.1579,26.4927 125.7779,27.0737 C125.2719,27.1617 124.7479,27.1677 124.2319,27.1707 C121.7969,27.1797 119.3619,27.1747 116.9269,27.1747 C116.3799,27.1737 116.3129,27.1087 116.3129,26.5687 C116.3119,18.1067 116.3119,9.6447 116.3129,1.1827 C116.3129,0.6597 116.4089,0.5627 116.9259,0.5617 C119.2619,0.5607 121.5979,0.5527 123.9339,0.5647 C126.0519,0.5737 127.9489,1.1867 129.4679,2.7277 C130.6319,3.9077 131.2099,5.3687 131.4509,6.9897 C131.8129,9.4297 131.0799,11.5057 129.4109,13.2827 C129.3809,13.3147 129.3589,13.3537 129.2649,13.4657 C129.3429,13.5077 129.4329,13.5357 129.4979,13.5927 C131.0189,14.9237 131.9079,16.5947 132.1819,18.5967 C132.1929,18.6817 132.2299,18.7627 132.2559,18.8467 L132.2559,19.5077 Z" id="Fill-129"></path>
                    <path d="M7.869,-1.42108547e-13 C8.358,0.064 8.852,0.103 9.335,0.197 C12.413,0.8 14.159,2.77 14.927,5.713 C15.255,6.973 15.221,8.266 15.215,9.554 C15.213,9.918 14.978,9.952 14.703,9.952 C13.514,9.952 12.324,9.953 11.134,9.953 C10.869,9.953 10.605,9.96 10.341,9.949 C9.994,9.936 9.882,9.804 9.864,9.459 C9.827,8.791 9.834,8.113 9.72,7.457 C9.57,6.597 9.13,5.888 8.211,5.682 C6.672,5.335 5.798,5.906 5.417,7.537 C5.331,7.908 5.303,8.3 5.302,8.683 C5.294,12.197 5.295,15.712 5.299,19.227 C5.3,19.857 5.373,20.478 5.627,21.065 C6.011,21.953 6.902,22.437 7.867,22.347 C8.794,22.26 9.301,21.717 9.605,20.903 C9.893,20.131 9.881,19.326 9.852,18.522 C9.849,18.45 9.69,18.328 9.6,18.324 C9.138,18.303 8.675,18.317 8.212,18.312 C7.783,18.308 7.602,18.139 7.601,17.716 C7.596,16.284 7.596,14.852 7.6,13.419 C7.602,12.999 7.784,12.801 8.2,12.8 C10.381,12.792 12.562,12.792 14.744,12.799 C15.161,12.801 15.346,12.998 15.346,13.417 C15.342,15.774 15.388,18.134 15.307,20.489 C15.229,22.729 14.489,24.715 12.648,26.154 C11.515,27.041 10.213,27.494 8.793,27.645 C7.21,27.812 5.674,27.652 4.211,26.993 C1.889,25.947 0.606,24.119 0.214,21.633 C0.13,21.103 0.071,20.569 1.13686838e-13,20.037 L1.13686838e-13,7.671 C0.071,7.128 0.134,6.584 0.213,6.042 C0.661,3.007 2.862,0.739 5.877,0.214 C6.406,0.122 6.94,0.07 7.473,-1.42108547e-13 L7.869,-1.42108547e-13 Z" id="Fill-130"></path>
                    <path d="M63.122,11.0224 C63.185,11.0384 63.217,11.0534 63.249,11.0534 C63.986,11.0564 64.724,11.0614 65.461,11.0574 C66.352,11.0544 67.071,10.5334 67.343,9.6814 C67.582,8.9314 67.594,8.1654 67.426,7.4014 C67.22,6.4654 66.665,5.9384 65.706,5.8504 C64.975,5.7844 64.233,5.8364 63.497,5.8094 C63.176,5.7964 63.084,5.9064 63.087,6.2214 C63.101,7.7074 63.092,9.1924 63.094,10.6774 C63.094,10.7944 63.113,10.9134 63.122,11.0224 M62.961,18.9454 C62.961,19.7934 62.966,20.6414 62.958,21.4894 C62.956,21.7144 63.033,21.7954 63.265,21.7934 C64.167,21.7784 65.07,21.7914 65.973,21.7734 C66.927,21.7544 67.541,21.2744 67.789,20.3444 C67.992,19.5784 68.001,18.7944 67.818,18.0244 C67.543,16.8704 66.951,16.2624 65.876,16.1674 C64.98,16.0874 64.073,16.1384 63.17,16.1354 C62.931,16.1334 62.963,16.3194 62.962,16.4674 C62.959,17.2934 62.961,18.1204 62.961,18.9454 M70.811,13.2984 C71.214,13.7644 71.638,14.2124 72.014,14.6984 C73.868,17.0954 74.033,19.7284 72.958,22.4614 C71.88,25.2054 69.796,26.7184 66.887,27.1014 C66.463,27.1574 66.031,27.1704 65.603,27.1714 C63.19,27.1774 60.777,27.1744 58.365,27.1744 C57.805,27.1734 57.742,27.1104 57.742,26.5444 L57.742,1.1934 C57.742,0.6584 57.837,0.5614 58.377,0.5614 C60.668,0.5604 62.96,0.5554 65.252,0.5634 C67.394,0.5694 69.312,1.1774 70.848,2.7404 C71.959,3.8714 72.529,5.2674 72.794,6.8124 C73.221,9.3084 72.497,11.4394 70.789,13.2694 C70.753,13.3074 70.726,13.3534 70.694,13.3964 C70.733,13.3644 70.772,13.3314 70.811,13.2984" id="Fill-131"></path>
                    <path d="M25.7128,5.7929 C25.7128,5.8009 25.7118,5.8089 25.7118,5.8159 C25.3588,5.8159 25.0058,5.8219 24.6538,5.8139 C24.4638,5.8099 24.3778,5.8649 24.3788,6.0749 C24.3848,7.8709 24.3838,9.6679 24.3798,11.4639 C24.3788,11.6509 24.4498,11.7149 24.6308,11.7129 C25.3478,11.7049 26.0638,11.7189 26.7798,11.7009 C28.1258,11.6689 29.0188,10.7159 29.1408,9.6649 C29.2138,9.0289 29.1998,8.3629 29.1018,7.7299 C28.9428,6.7119 28.1138,5.9829 27.0958,5.8689 C26.6378,5.8179 26.1738,5.8169 25.7128,5.7929 M19.1298,13.7309 L19.1298,1.1039 C19.1298,0.5309 19.2298,0.4299 19.8028,0.4299 C22.1828,0.4289 24.5638,0.4079 26.9428,0.4339 C31.1388,0.4799 33.9828,3.1809 34.6658,6.6859 C35.2508,9.6849 34.6258,12.4189 32.5228,14.7259 C32.2788,14.9919 31.9928,15.2269 31.6988,15.4369 C31.4818,15.5909 31.4398,15.7289 31.5208,15.9839 C32.5778,19.3499 33.6228,22.7189 34.6708,26.0869 C34.6968,26.1699 34.7258,26.2539 34.7518,26.3379 C34.9178,26.8779 34.9558,27.0969 34.1438,27.1359 C33.2648,27.1789 32.3808,27.1459 31.4998,27.1459 C30.8938,27.1459 30.2878,27.1479 29.6818,27.1459 C29.2188,27.1429 29.1288,27.0739 29.0008,26.6429 C28.0888,23.5899 27.1728,20.5369 26.2738,17.4799 C26.1808,17.1649 26.0558,17.0119 25.7118,17.0519 C25.4508,17.0809 25.1808,17.0809 24.9198,17.0519 C24.5668,17.0109 24.5048,17.1609 24.5068,17.4809 C24.5198,19.9279 24.5138,22.3739 24.5138,24.8209 C24.5138,25.3719 24.5158,25.9229 24.5128,26.4739 C24.5108,26.8949 24.3788,27.0289 23.9638,27.0289 C22.5538,27.0309 21.1428,27.0299 19.7328,27.0299 C19.2508,27.0289 19.1308,26.9089 19.1308,26.4269 C19.1298,22.1949 19.1298,17.9639 19.1298,13.7309" id="Fill-132"></path>
                    <path d="M77.0321,13.7109 C77.0321,9.5129 77.0321,5.3139 77.0321,1.1149 C77.0321,0.5039 77.1061,0.4299 77.7121,0.4299 C79.0681,0.4289 80.4231,0.4279 81.7791,0.4299 C82.2731,0.4309 82.3831,0.5399 82.3831,1.0249 C82.3831,4.1769 82.3831,7.3279 82.3831,10.4799 C82.3831,10.9169 82.3841,10.9179 82.8141,10.9179 C84.1031,10.9189 85.3931,10.9079 86.6811,10.9249 C87.0061,10.9299 87.0901,10.8219 87.0891,10.5109 C87.0801,7.3809 87.0831,4.2509 87.0841,1.1219 C87.0841,0.4959 87.1521,0.4299 87.7901,0.4299 C89.1241,0.4289 90.4571,0.4289 91.7911,0.4299 C92.3391,0.4299 92.4341,0.5229 92.4341,1.0529 C92.4341,9.5039 92.4341,17.9559 92.4341,26.4079 C92.4341,26.9469 92.3491,27.0299 91.7971,27.0299 C90.4201,27.0299 89.0421,27.0309 87.6651,27.0299 C87.1821,27.0289 87.0851,26.9349 87.0841,26.4509 C87.0831,23.2329 87.0841,20.0159 87.0831,16.7979 C87.0831,16.3009 87.0831,16.3009 86.5801,16.3009 C85.3021,16.3009 84.0231,16.3099 82.7451,16.2939 C82.4501,16.2909 82.3761,16.3809 82.3771,16.6679 C82.3861,19.9079 82.3831,23.1479 82.3831,26.3879 C82.3831,26.9539 82.3051,27.0299 81.7331,27.0299 L77.6671,27.0299 C77.1091,27.0299 77.0321,26.9559 77.0321,26.4049 C77.0321,22.1739 77.0321,17.9419 77.0321,13.7109" id="Fill-133"></path>
                    <path d="M111.9369,10.4746 C111.9369,13.6256 111.9499,16.7776 111.9299,19.9286 C111.9229,20.9986 111.7629,22.0606 111.3769,23.0666 C110.4309,25.5346 108.5899,26.9376 106.0339,27.4166 C104.3029,27.7416 102.5919,27.6226 100.9509,26.9236 C98.6109,25.9266 97.2519,24.1476 96.8389,21.6576 C96.7039,20.8476 96.6369,20.0166 96.6339,19.1956 C96.6179,13.1356 96.6249,7.0756 96.6249,1.0146 C96.6249,0.4956 96.6889,0.4306 97.2149,0.4296 C98.6039,0.4276 99.9919,0.4276 101.3799,0.4296 C101.9039,0.4306 102.0159,0.5456 102.0159,1.0736 C102.0159,7.0676 102.0189,13.0616 102.0129,19.0556 C102.0119,19.7436 102.1549,20.3796 102.4879,20.9846 C103.0999,22.0956 105.3409,22.3636 106.0649,21.0116 C106.3969,20.3926 106.5559,19.7526 106.5549,19.0536 C106.5489,13.1036 106.5509,7.1536 106.5519,1.2036 C106.5519,1.1046 106.5489,1.0046 106.5519,0.9066 C106.5619,0.5426 106.6599,0.4396 107.0319,0.4316 C107.4279,0.4226 107.8249,0.4286 108.2219,0.4286 C109.2689,0.4286 110.3149,0.4266 111.3619,0.4306 C111.8719,0.4316 111.9429,0.5136 111.9429,1.0206 C111.9419,4.1716 111.9419,7.3236 111.9419,10.4746 L111.9369,10.4746 Z" id="Fill-134"></path>
                    <path d="M38.1488,10.6211 C38.1488,7.4361 38.1488,4.2521 38.1488,1.0671 C38.1488,0.4711 38.1908,0.4301 38.7858,0.4301 C40.1518,0.4291 41.5188,0.4281 42.8848,0.4301 C43.3978,0.4311 43.4998,0.5351 43.4998,1.0481 C43.4998,7.0211 43.5008,12.9941 43.4988,18.9671 C43.4988,19.6721 43.6348,20.3351 43.9738,20.9651 C44.5828,22.1001 46.8458,22.3611 47.5718,21.0051 C47.9398,20.3171 48.0668,19.6021 48.0678,18.8461 C48.0688,12.9721 48.0678,7.0981 48.0678,1.2251 C48.0678,0.4291 48.0678,0.4291 48.8778,0.4291 C50.1898,0.4291 51.5018,0.4281 52.8128,0.4301 C53.3458,0.4311 53.4778,0.5641 53.4778,1.0941 C53.4778,7.1431 53.4808,13.1931 53.4748,19.2441 C53.4738,20.3691 53.3898,21.4921 53.0588,22.5741 C52.2188,25.3171 50.3188,26.8911 47.5448,27.4171 C45.8138,27.7461 44.1028,27.6211 42.4618,26.9191 C40.1758,25.9411 38.8088,24.2131 38.3848,21.7761 C38.2288,20.8811 38.1688,19.9611 38.1588,19.0521 C38.1308,16.2421 38.1488,13.4321 38.1488,10.6211" id="Fill-135"></path>
                </g>
            </g>
        </g>
    </g>
</svg>