<?xml version="1.0" encoding="UTF-8"?>
<svg width="108px" height="44px" viewBox="0 0 108 44" version="1.1" xmlns="http://www.w3.org/2000/svg" xmlns:xlink="http://www.w3.org/1999/xlink">
    <!-- Generator: Sketch 53.2 (72643) - https://sketchapp.com -->
    <title>Kiva</title>
    <desc>Created with Sketch.</desc>
    <g id="Page-1" stroke="none" stroke-width="1" fill="none" fill-rule="evenodd">
        <g id="Home-Page" transform="translate(-246.000000, -447.000000)" fill="#6E6E6E">
            <g id="Group-2" transform="translate(-201.000000, 441.000000)">
                <path d="M489.9209,11.5435 C489.9209,8.7715 487.8889,6.3695 484.6239,6.3695 C481.3599,6.3695 479.3289,8.7715 479.3289,11.5435 C479.3289,14.3145 481.3599,16.7175 484.6239,16.7175 C487.8889,16.7175 489.9209,14.3145 489.9209,11.5435 L489.9209,11.5435 Z M457.8349,34.6395 C457.8349,36.7935 460.2979,48.9265 475.6329,48.9265 L476.8649,48.9265 C476.8649,46.7725 474.4009,34.6395 459.0659,34.6395 L457.8349,34.6395 Z M459.0659,33.5285 C473.2929,33.5285 476.6179,21.6445 476.6179,19.6095 L475.3869,19.6095 C461.1599,19.6095 457.8349,31.4975 457.8349,33.5285 L459.0659,33.5285 Z M545.5339,35.0075 C545.5339,40.4275 542.2089,42.9515 538.8829,42.9515 C535.2489,42.9515 532.9089,39.2585 532.9089,34.2695 C532.9089,29.3415 535.3729,25.5845 539.1919,25.5845 C542.3319,25.5845 545.5339,28.1715 545.5339,33.5285 L545.5339,35.0075 Z M554.3419,19.6095 L545.7789,19.6095 L545.7789,23.6135 C544.3019,20.5345 540.8549,18.8105 536.8509,18.8105 C529.5819,18.8105 523.8559,24.7225 523.8559,34.2695 C523.8559,43.8765 529.3989,49.7275 536.4189,49.7275 C541.3469,49.7275 544.3019,47.3245 545.7789,44.6775 L545.7789,48.9265 L554.3419,48.9265 L554.3419,19.6095 Z M502.8549,48.9265 L513.0789,48.9265 L523.3019,19.6095 L514.4949,19.6095 C514.4949,19.6095 509.6909,35.5635 508.2739,40.6115 L508.1509,40.6115 C506.7339,35.5635 501.8699,19.6095 501.8699,19.6095 L492.5069,19.6095 L502.8549,48.9265 Z M480.1909,48.9265 L489.0599,48.9265 L489.0599,19.6105 L480.1909,19.6105 L480.1909,48.9265 Z M447.9189,48.9255 L456.7879,48.9255 L456.7879,7.1085 L447.9189,7.1085 L447.9189,48.9255 Z" id="Kiva"></path>
            </g>
        </g>
    </g>
</svg>