<svg id="Layer_1" data-name="Layer 1" xmlns="http://www.w3.org/2000/svg" viewBox="0 0 288 152.55"><defs><style>.cls-1{fill:#66676c;}.cls-2{fill:#00a79f;}</style></defs><title>Build3pt0_newLogo_dark</title><g id="_Group_" data-name="&lt;Group&gt;"><path id="_Compound_Path_" data-name="&lt;Compound Path&gt;" class="cls-1" d="M283.32,93.87l7-12.75L162.52,11,147.41,2.72,132.29,11,4.5,81.13l7,12.75L36.67,80.06V153h14.2V146h0.21c3.26,6,9.89,8.41,17.88,8.41,10.83,0,22.51-8.73,22.51-28.72S79.79,97.12,69,97.12c-6.73,0-13.46,2.52-17.15,8.1H51.6V71.87l95.81-52.56L243,71.77v33.45h-0.21c-3.37-5.36-9.68-8.1-16.09-8.1-16,0-24.09,13.57-24.09,28.19,0,15,8,29.14,24.4,29.14,6.94,0,13-2.52,16.51-8.41h0.21V153H258V80ZM63.8,108.37c8.84,0,12.73,8.31,12.73,17.46s-3.89,17.36-12.73,17.36-12.73-8.31-12.73-17.36S55,108.37,63.8,108.37Zm166.93,34.82c-9.26,0-13.15-8.94-13.15-17.46,0-8.94,3.37-17.36,13.15-17.36s12.83,8.42,12.83,17.25S240.62,143.19,230.73,143.19Z" transform="translate(-4.5 -2.72)"/><path id="_Path_" data-name="&lt;Path&gt;" class="cls-1" d="M134.41,127.1c0,11-3.47,15.57-11.57,15.57-6.94,0-9.57-4.42-9.57-13.36V98.59H98.34V132c0,13.46,4,22.4,19.88,22.4a19.4,19.4,0,0,0,16.62-9h0.32V153h14.2V98.59H134.41v28.5Z" transform="translate(-4.5 -2.72)"/><rect id="_Path_2" data-name="&lt;Path&gt;" class="cls-1" x="176.34" y="69.54" width="14.94" height="80.7"/><polygon id="_Path_3" data-name="&lt;Path&gt;" class="cls-2" points="153 144.36 167.93 152.55 167.93 92.38 153 100.58 153 144.36"/><path id="_Path_4" data-name="&lt;Path&gt;" class="cls-1" d="M277.53,140.08V144a2.77,2.77,0,0,1,2.76,3c0,2.51-2.22,3.47-4.44,3.47s-4.43-1-4.43-3.47a2.71,2.71,0,0,1,2.3-3v-3.89c-3.6.1-5.65,3.6-5.65,6.82,0,4.52,3.45,7.45,7.78,7.45s7.78-2.93,7.78-7.45C283.64,143.11,281.38,140.29,277.53,140.08Z" transform="translate(-4.5 -2.72)"/><path id="_Compound_Path_2" data-name="&lt;Compound Path&gt;" class="cls-1" d="M275.86,123.32c-4.33,0-7.78,2.66-7.78,7.36s3.45,7.36,7.78,7.36,7.78-2.66,7.78-7.36S280.19,123.32,275.86,123.32Zm0,10.84c-2.22,0-4.43-1-4.43-3.47s2.22-3.47,4.43-3.47,4.44,1,4.44,3.47S278.07,134.15,275.86,134.15Z" transform="translate(-4.5 -2.72)"/><polygon id="_Path_5" data-name="&lt;Path&gt;" class="cls-1" points="278.82 105.26 278.82 101.59 263.89 101.59 263.89 107.33 273.85 109.9 273.85 109.94 263.89 112.52 263.89 118.25 278.82 118.25 278.82 114.59 267.49 114.59 267.49 114.54 278.82 111.41 278.82 108.44 267.49 105.3 267.49 105.26 278.82 105.26"/><path id="_Compound_Path_3" data-name="&lt;Compound Path&gt;" class="cls-1" d="M289.35,148.06a3.14,3.14,0,1,0,3.15,3.13A3.13,3.13,0,0,0,289.35,148.06Zm0,5.82a2.68,2.68,0,1,1,2.58-2.7A2.6,2.6,0,0,1,289.35,153.88Z" transform="translate(-4.5 -2.72)"/><path id="_Compound_Path_4" data-name="&lt;Compound Path&gt;" class="cls-1" d="M290.83,150.41a1,1,0,0,0-1.29-1h-1.42V153h0.57v-1.58h0.6l1,1.58h0.61l-1.05-1.62A1,1,0,0,0,290.83,150.41Zm-1.54.58h-0.6v-1.17h0.76c0.39,0,.81.08,0.81,0.56S289.79,151,289.29,151Z" transform="translate(-4.5 -2.72)"/></g></svg>