<?xml version="1.0" encoding="utf-8"?>
<!-- Generator: Adobe Illustrator 23.0.4, SVG Export Plug-In . SVG Version: 6.00 Build 0)  -->
<svg version="1.1" id="Layer_1" xmlns="http://www.w3.org/2000/svg" xmlns:xlink="http://www.w3.org/1999/xlink" x="0px" y="0px"
	 viewBox="0 0 1260 560" style="enable-background:new 0 0 1260 560;" xml:space="preserve">
<style type="text/css">
	.st0{fill:#6E6E6E;}
</style>
<g>
	<g>
		<path class="st0" d="M435.2,319.6h15.3v-91.9l-14.6,2.1v-16.7c10.4-2.8,18.8-8.4,27.1-15.3H477v122.5h15.3v20.9h-56.4v-21.6
			L435.2,319.6L435.2,319.6z"/>
		<path class="st0" d="M547.3,281.3c10.4,9.7,16,17.4,16,26.4c0,9-5.6,15.3-13.2,15.3s-11.8-5.6-11.8-16.7
			C539,298,541.7,289,547.3,281.3L547.3,281.3z M554.3,250c-7.7-8.4-11.1-14.6-11.1-22.3c0-8.4,4.9-13.9,9-13.9
			c6.3,0,10.4,5.6,10.4,14.6C562.6,236.1,559.8,243,554.3,250L554.3,250z M536.9,269.5c-13.9,11.1-20.9,22.3-20.9,36.9
			c0,21.6,13.9,36.2,34.8,36.2c21.6,0,36.2-13.9,36.2-38.3c0-16-7-29.2-20.2-42.5c11.8-11.1,17.4-21.6,17.4-35.5
			c0-18.8-12.5-32-32-32c-18.1,0-32,14.6-32,36.2C520.2,245.1,525.7,258.4,536.9,269.5L536.9,269.5z"/>
		<path class="st0" d="M622.5,268.1c0-5.6,0-10.4,0-14.6c0-27.1,0.7-39,8.4-39c8.3,0,8.3,11.8,8.3,39c0,4.2,0,9,0,14.6
			c0,5.6,0,10.4,0,15.3c0,26.4-0.7,39-8.3,39s-8.4-12.5-8.4-39C622.5,278.5,622.5,273.7,622.5,268.1L622.5,268.1z M595.3,268.8
			c0,49.4,11.1,74.5,35.5,74.5c23,0,35.5-25.1,35.5-74.5S654.5,195,630.1,195C607.9,195,595.3,219.4,595.3,268.8L595.3,268.8z"/>
		<path class="st0" d="M706,268.1c0-5.6,0-10.4,0-14.6c0-27.1,0.7-39,8.4-39s8.4,11.8,8.4,39c0,4.2,0,9,0,14.6c0,5.6,0,10.4,0,15.3
			c0,26.4-0.7,39-8.4,39s-8.4-12.5-8.4-39C706,278.5,706,273.7,706,268.1L706,268.1z M678.9,268.8c0,49.4,11.8,74.5,36.2,74.5
			c23,0,35.5-25.1,35.5-74.5S738.7,195,714.4,195C691.4,195,678.9,219.4,678.9,268.8L678.9,268.8z"/>
	</g>
	<path class="st0" d="M511.1,269.5c0,6.3-5.6,11.8-11.8,11.8s-11.8-5.6-11.8-11.8s5.6-11.8,11.8-11.8
		C506.2,257.7,511.1,263.2,511.1,269.5z"/>
	<path class="st0" d="M340.6,201.3c-12.5,30.6-32,57.8-64.7,70.3c-8.4,2.1-17.4,2.8-25.8,0c-15.3-48.7,3.5-103.7,34.1-143.4
		c21.6-30.6,55.7-50.8,93.3-66.1C343.4,101.1,361.5,156,340.6,201.3L340.6,201.3z"/>
	<path class="st0" d="M311.3,77.4c-51.5,41.1-98.1,113.5-79.4,183.1c-30.6-7.7-50.1-38.3-57.1-68.9c-5.6-31.3,1.4-65.4,25.1-87.7
		C227.1,76.7,257.8,44,254.3,2.2C284.9,13.4,302.3,46.8,311.3,77.4L311.3,77.4z"/>
	<g>
		<path class="st0" d="M293.2,399.7h-18.8v-32h18.8v-28.5c0-32.7,14.6-43.9,39-43.9c7,0,13.2,0.7,20.2,1.4v33.4c-2.1,0-4.9,0-7,0
			c-10.4,0-13.9,4.2-13.9,14.6v23.7h21.6v32h-21.6v151h-36.9V399.7H293.2z"/>
		<path class="st0" d="M366.3,300.1h36.9v251.3h-36.9V300.1z"/>
		<path class="st0" d="M481.2,362.8c44.5-0.7,57.1,32.7,57.1,96.8c0,62.6-14.6,96.8-57.1,96.8c-44.5,0.7-57.1-32.7-57.1-96.8
			C424.1,396.9,438.7,362.8,481.2,362.8z M481.2,524.3c15.3,0,20.2-18.8,20.2-64.7s-4.9-64.7-20.2-64.7c-18.1,0-20.2,27.1-20.2,64.7
			C461.7,497.1,463.1,524.3,481.2,524.3z"/>
		<path class="st0" d="M542.4,367.6h36.9L596,497.8h0.7l18.1-130.2h40.4L674,497.8h0.7l17.4-130.2h35.5l-31.3,183.1h-41.8
			l-18.8-130.2H635l-18.1,130.2h-43.2L542.4,367.6z"/>
		<path class="st0" d="M766.6,466.5v14.6c0,21.6,4.9,42.5,18.1,42.5c12.5,0,17.4-11.8,19.5-34.1h33.4c-1.4,42.5-17.4,66.1-52.2,66.1
			c-53.6,0-55.7-52.2-55.7-98.1c0-49.4,7.7-94.7,57.8-94.7c43.2,0,52.9,36.9,52.9,93.3v10.4L766.6,466.5L766.6,466.5z M804.8,438.6
			c-0.7-27.8-3.5-43.9-18.8-43.9c-14.6,0-18.8,19.5-18.8,36.2v7h37.6V438.6z"/>
		<path class="st0" d="M854.3,367.6h35.5V392h0.7c7.7-17.4,18.1-29.2,33.4-29.2c2.1,0,4.9,0.7,7,0.7v45.2c-3.5,0-7.7-0.7-11.8-0.7
			c-13.2,0-27.1,8.4-27.1,33.4v110H855V367.6H854.3z"/>
		<path class="st0" d="M970.5,491.5v6.3c0,16,7,26.4,19.5,26.4c11.1,0,18.8-7,18.8-21.6c0-11.8-6.3-17.4-13.2-20.9L969.8,470
			c-20.2-9-30.6-25.1-30.6-50.8c0-30.6,15.3-55,52.9-55c33.4,0,49.4,18.8,49.4,52.2v7.7h-33.4c0-18.1-4.2-27.8-16.7-27.8
			c-9.7,0-17.4,7-17.4,19.5c0,9,3.5,16,16,21.6l22.3,9.7c23.7,9.7,32,25.1,32,52.2c0,38.3-22.3,57.8-53.6,57.8
			c-41.8,0-52.9-23-52.9-58.5v-6.3h32.7L970.5,491.5L970.5,491.5z"/>
	</g>
	<g>
		<path class="st0" d="M1049.2,541c0-3.5,1.4-6.3,3.5-9.1c2.1-2.1,5.6-3.5,8.3-3.5c3.5,0,6.3,1.4,9.1,3.5c2.1,2.1,3.5,5.6,3.5,9.1
			c0,3.5-1.4,6.3-3.5,8.4c-2.1,2.1-4.9,3.5-9.1,3.5c-3.5,0-6.3-1.4-8.3-3.5C1049.9,547.2,1049.2,544.4,1049.2,541L1049.2,541z"/>
		<path class="st0" d="M1103.4,552.1c-13.9,0-20.9-11.1-20.9-32.7c0-23.7,8.4-36.2,20.9-36.2c11.8,0,18.1,8.4,18.1,23.7
			c0,0.7,0,1.4,0,2.1h-13.2c0-1.4,0-2.1,0-2.8c0-7.7-1.4-11.1-4.2-11.1c-4.2,0-4.2,6.3-4.2,18.1c0,17.4,0.7,25.8,4.9,25.8
			c3.5,0,5.6-4.2,5.6-13.2v-0.7l12.5,0.7C1122.9,543,1115.3,552.1,1103.4,552.1L1103.4,552.1z"/>
		<path class="st0" d="M1150.8,495.7c4.9,0,6.3,7,6.3,22.3c0,14.6-1.4,22.3-6.3,22.3c-4.2,0-5.6-7-5.6-22.3
			C1145.2,502.7,1146.6,495.7,1150.8,495.7L1150.8,495.7z M1129.2,518c0,23,7.7,34.8,22.3,34.8c13.9,0,22.3-11.8,22.3-34.8
			c0-23-7.7-34.8-22.3-34.8C1136.2,483.2,1129.2,495,1129.2,518L1129.2,518z"/>
		<path class="st0" d="M1181.4,484.6h15.3v5.6c4.2-4.9,8.4-7.7,12.5-7.7c4.9,0,8.3,2.8,10.4,7.7c4.2-4.9,8.4-7.7,13.2-7.7
			c7,0,10.4,4.2,10.4,12.5v54.3H1228v-50.1c0-2.8-1.4-4.2-3.5-4.2s-3.5,1.4-4.9,3.5v50.8h-15.3v-50.1c0-2.8-1.4-4.2-3.5-4.2
			s-3.5,1.4-4.9,3.5v50.8h-15.3v-64.7L1181.4,484.6L1181.4,484.6z"/>
	</g>
	<g>
		<path class="st0" d="M234.8,275.8c-2.1-0.7-4.2,0.7-4.9,2.8c-16.7,34.8-32,71.7-41.8,109.3c-11.1-37.6-26.4-74.5-44.5-108.6
			c-36.2-67.5-74.5-134.3-132.9-176.8c-2.1-1.4-4.9-1.4-6.3,0.7c-1.4,2.1-1.4,5.6,0.7,7.7C57.3,159.5,83.7,233.3,117.8,298
			c27.1,74.5,52.9,153.1,44.5,235.3c1.4,15.3,13.2,25.8,25.8,24.4c5.6-0.7,9.7-3.5,13.2-7.7c3.5-4.2,6.3-9.7,7-16
			c-5.6-27.8-7.7-55.7-6.3-82.8c0.7-24.4,4.2-49.4,10.4-73.1c8.4-32,20.2-64,24.4-97.4C237.6,278.5,236.9,276.5,234.8,275.8z"/>
	</g>
	<g>
		<path class="st0" d="M1256.6,489.4c0,3.5-2.8,5.6-5.6,5.6c-3.5,0-5.6-2.8-5.6-5.6c0-2.8,2.8-5.6,5.6-5.6S1256.6,486,1256.6,489.4z
			 M1246.8,489.4c0,2.8,2.1,4.2,4.2,4.2s4.2-2.1,4.2-4.2c0-2.8-2.1-4.2-4.2-4.2C1248.2,484.6,1246.8,486.7,1246.8,489.4z
			 M1250.3,492.2h-1.4v-5.6c0.7,0,1.4,0,2.1,0c1.4,0,1.4,0,2.1,0.7c0,0,0.7,0.7,0.7,1.4c0,0.7-0.7,1.4-1.4,1.4l0,0
			c0.7,0,0.7,0.7,0.7,1.4c0,0.7,0,1.4,0.7,1.4h-1.4c0,0,0-0.7-0.7-1.4c0-0.7-0.7-0.7-1.4-0.7h-0.7v1.4L1250.3,492.2L1250.3,492.2z
			 M1250.3,488.8L1250.3,488.8c1.4,0,2.1,0,2.1-0.7s-0.7-0.7-1.4-0.7h-0.7V488.8z"/>
	</g>
</g>
</svg>
