<?xml version="1.0" encoding="utf-8"?>
<!-- Generator: Adobe Illustrator 23.0.6, SVG Export Plug-In . SVG Version: 6.00 Build 0)  -->
<svg version="1.1" id="Layer_1" xmlns="http://www.w3.org/2000/svg" xmlns:xlink="http://www.w3.org/1999/xlink" x="0px" y="0px"
	 viewBox="0 0 226.7 88.6" style="enable-background:new 0 0 226.7 88.6;" xml:space="preserve">
<style type="text/css">
	.st0{fill:url(#SVGID_1_);}
	.st1{clip-path:url(#SVGID_5_);fill:url(#SVGID_6_);}
	.st2{fill:url(#SVGID_7_);}
	.st3{clip-path:url(#SVGID_9_);fill:url(#SVGID_10_);}
	.st4{clip-path:url(#SVGID_9_);}
	.st5{clip-path:url(#SVGID_12_);fill:url(#SVGID_13_);}
	.st6{fill:url(#SVGID_14_);}
	.st7{clip-path:url(#SVGID_16_);}
	.st8{opacity:0.69;}
	.st9{clip-path:url(#SVGID_18_);}
	.st10{clip-path:url(#SVGID_20_);}
	.st11{fill:#FFFFFF;}
	.st12{fill:#F6F6FA;}
	.st13{display:none;}
	.st14{display:inline;}
	.st15{clip-path:url(#SVGID_26_);}
	.st16{clip-path:url(#SVGID_28_);}
	.st17{clip-path:url(#SVGID_30_);}
	.st18{clip-path:url(#SVGID_32_);}
	.st19{clip-path:url(#SVGID_34_);}
	.st20{clip-path:url(#SVGID_40_);}
	.st21{clip-path:url(#SVGID_44_);}
	.st22{fill:url(#SVGID_49_);}
	.st23{fill:#F2F2F2;}
	.st24{fill:#8D1637;}
	.st25{fill:#4AAAD4;}
	.st26{clip-path:url(#SVGID_51_);}
	.st27{clip-path:url(#SVGID_53_);}
	.st28{fill:url(#SVGID_58_);}
	.st29{clip-path:url(#SVGID_60_);}
	.st30{clip-path:url(#SVGID_62_);}
	.st31{fill:url(#SVGID_65_);}
	.st32{fill:none;stroke:#8D1637;stroke-miterlimit:10;}
	.st33{fill:none;stroke:#6E6E6E;stroke-miterlimit:10;}
	.st34{fill:#6E6E6E;}
	.st35{clip-path:url(#SVGID_67_);}
	.st36{clip-path:url(#SVGID_71_);}
	.st37{opacity:0.4;clip-path:url(#SVGID_73_);fill:#E1E1E1;}
	.st38{clip-path:url(#SVGID_75_);}
	.st39{opacity:0.4;clip-path:url(#SVGID_77_);fill:#E1E1E1;}
	.st40{clip-path:url(#SVGID_79_);}
	.st41{clip-path:url(#SVGID_81_);}
	.st42{clip-path:url(#SVGID_85_);}
	.st43{opacity:0.4;clip-path:url(#SVGID_87_);fill:#E1E1E1;}
	.st44{clip-path:url(#SVGID_89_);}
	.st45{clip-path:url(#SVGID_91_);}
	.st46{clip-path:url(#SVGID_95_);}
	.st47{clip-path:url(#SVGID_97_);}
	.st48{clip-path:url(#SVGID_101_);}
	.st49{clip-path:url(#SVGID_103_);fill:#6E6E6E;}
	.st50{clip-path:url(#SVGID_105_);}
	.st51{clip-path:url(#SVGID_107_);fill:#6E6E6E;}
	.st52{clip-path:url(#SVGID_109_);}
	.st53{clip-path:url(#SVGID_111_);fill:#6E6E6E;}
	.st54{clip-path:url(#SVGID_113_);}
	.st55{clip-path:url(#SVGID_115_);fill:#6E6E6E;}
	.st56{clip-path:url(#SVGID_117_);}
	.st57{clip-path:url(#SVGID_119_);fill:#6E6E6E;}
	.st58{clip-path:url(#SVGID_121_);}
	.st59{clip-path:url(#SVGID_123_);fill:#6E6E6E;}
	.st60{clip-path:url(#SVGID_125_);}
	.st61{clip-path:url(#SVGID_127_);fill:#6E6E6E;}
	.st62{clip-path:url(#SVGID_129_);}
	.st63{clip-path:url(#SVGID_131_);fill:#6E6E6E;}
	.st64{clip-path:url(#SVGID_133_);}
	.st65{clip-path:url(#SVGID_135_);fill:#6E6E6E;}
	.st66{clip-path:url(#SVGID_137_);}
	.st67{clip-path:url(#SVGID_139_);fill:#6E6E6E;}
	.st68{clip-path:url(#SVGID_141_);}
	.st69{clip-path:url(#SVGID_143_);fill:#6E6E6E;}
	.st70{clip-path:url(#SVGID_145_);}
	.st71{clip-path:url(#SVGID_147_);fill:#6E6E6E;}
	.st72{clip-path:url(#SVGID_149_);}
	.st73{clip-path:url(#SVGID_151_);fill:#6E6E6E;}
	.st74{clip-path:url(#SVGID_153_);}
	.st75{clip-path:url(#SVGID_155_);fill:#6E6E6E;}
	.st76{clip-path:url(#SVGID_157_);}
	.st77{clip-path:url(#SVGID_159_);fill:#6E6E6E;}
	.st78{clip-path:url(#SVGID_161_);}
	.st79{clip-path:url(#SVGID_163_);fill:#6E6E6E;}
	.st80{clip-path:url(#SVGID_165_);}
	.st81{clip-path:url(#SVGID_167_);fill:#6E6E6E;}
	.st82{clip-path:url(#SVGID_169_);}
	.st83{clip-path:url(#SVGID_171_);fill:#6E6E6E;}
	.st84{clip-path:url(#SVGID_173_);}
	.st85{clip-path:url(#SVGID_175_);fill:#6E6E6E;}
	.st86{clip-path:url(#SVGID_177_);}
	.st87{clip-path:url(#SVGID_179_);fill:#6E6E6E;}
	.st88{clip-path:url(#SVGID_181_);}
	.st89{clip-path:url(#SVGID_183_);fill:#6E6E6E;}
	.st90{clip-path:url(#SVGID_185_);}
	.st91{clip-path:url(#SVGID_187_);fill:#6E6E6E;}
	.st92{clip-path:url(#SVGID_189_);}
	.st93{clip-path:url(#SVGID_191_);fill:#6E6E6E;}
	.st94{clip-path:url(#SVGID_193_);}
	.st95{clip-path:url(#SVGID_195_);fill:#6E6E6E;}
	.st96{clip-path:url(#SVGID_197_);}
	.st97{clip-path:url(#SVGID_199_);enable-background:new    ;}
	.st98{clip-path:url(#SVGID_201_);}
	.st99{clip-path:url(#SVGID_203_);}
	.st100{clip-path:url(#SVGID_205_);fill:#6E6E6E;}
	.st101{clip-path:url(#SVGID_207_);}
	.st102{clip-path:url(#SVGID_209_);fill:#6E6E6E;}
	.st103{clip-path:url(#SVGID_211_);}
	.st104{clip-path:url(#SVGID_213_);fill:#6E6E6E;}
	.st105{clip-path:url(#SVGID_215_);}
	.st106{clip-path:url(#SVGID_217_);fill:#6E6E6E;}
	.st107{clip-path:url(#SVGID_219_);}
	.st108{clip-path:url(#SVGID_221_);fill:#6E6E6E;}
	.st109{clip-path:url(#SVGID_223_);}
	.st110{clip-path:url(#SVGID_225_);fill:#6E6E6E;}
	.st111{clip-path:url(#SVGID_227_);}
	.st112{clip-path:url(#SVGID_229_);fill:#6E6E6E;}
	.st113{clip-path:url(#SVGID_231_);}
	.st114{clip-path:url(#SVGID_233_);fill:#6E6E6E;}
	.st115{clip-path:url(#SVGID_235_);}
	.st116{clip-path:url(#SVGID_237_);fill:#6E6E6E;}
	.st117{clip-path:url(#SVGID_239_);}
	.st118{clip-path:url(#SVGID_241_);fill:#6E6E6E;}
	.st119{clip-path:url(#SVGID_243_);}
	.st120{clip-path:url(#SVGID_245_);fill:#6E6E6E;}
	.st121{clip-path:url(#SVGID_247_);}
	.st122{clip-path:url(#SVGID_249_);enable-background:new    ;}
	.st123{clip-path:url(#SVGID_251_);}
	.st124{clip-path:url(#SVGID_253_);}
	.st125{clip-path:url(#SVGID_255_);fill:#6E6E6E;}
	.st126{clip-path:url(#SVGID_257_);}
	.st127{clip-path:url(#SVGID_259_);fill:#CACACA;}
	.st128{clip-path:url(#SVGID_261_);}
	.st129{clip-path:url(#SVGID_263_);fill:#6E6E6E;}
	.st130{clip-path:url(#SVGID_265_);}
	.st131{clip-path:url(#SVGID_267_);fill:#CACACA;}
	.st132{clip-path:url(#SVGID_269_);}
	.st133{clip-path:url(#SVGID_271_);fill:#6E6E6E;}
	.st134{clip-path:url(#SVGID_273_);}
	.st135{clip-path:url(#SVGID_275_);fill:#CACACA;}
	.st136{clip-path:url(#SVGID_277_);}
	.st137{clip-path:url(#SVGID_279_);fill:#6E6E6E;}
	.st138{clip-path:url(#SVGID_281_);}
	.st139{clip-path:url(#SVGID_283_);fill:#6E6E6E;}
	.st140{fill:#28659C;}
	.st141{fill:#929497;}
	.st142{fill:#EDEDEE;}
	.st143{fill:none;stroke:#8D1637;stroke-width:1.5;stroke-miterlimit:10;}
	.st144{fill:#231F20;}
	.st145{fill:none;stroke:#231F20;stroke-width:1.5;stroke-miterlimit:10;}
	.st146{fill:#8D1637;stroke:#8D1637;stroke-width:1.5;stroke-miterlimit:10;}
	.st147{fill:none;stroke:#808184;stroke-width:1.5;stroke-miterlimit:10;}
	.st148{fill:#808184;}
	.st149{fill:none;stroke:#231F20;stroke-width:1.5;stroke-miterlimit:10;stroke-dasharray:6,4;}
	.st150{fill:none;stroke:#28659C;stroke-miterlimit:10;}
	.st151{fill:none;stroke:#929497;stroke-width:1.5;stroke-miterlimit:10;}
	.st152{fill:#EDEDEE;stroke:#EC1C24;stroke-width:1.5;stroke-miterlimit:10;}
	.st153{fill:#FFFFFF;stroke:#EC2024;stroke-width:1.5;stroke-miterlimit:10;}
	.st154{fill:#EC2024;}
	.st155{fill:none;stroke:#FFFFFF;stroke-width:1.5;stroke-miterlimit:10;}
	.st156{fill:none;stroke:#4AAAD4;stroke-miterlimit:10;}
	.st157{fill:#EDEDEE;stroke:#929497;stroke-miterlimit:10;}
	.st158{fill:none;stroke:#EC1C24;stroke-width:1.5;stroke-linecap:round;stroke-linejoin:round;stroke-miterlimit:10;}
	.st159{fill:none;stroke:#929497;stroke-width:2;stroke-miterlimit:10;stroke-dasharray:6,4;}
	.st160{fill:#8D1637;stroke:#8D1637;stroke-miterlimit:10;}
	.st161{fill:none;stroke:#EC2024;stroke-width:1.5;stroke-miterlimit:10;}
	.st162{clip-path:url(#SVGID_285_);}
	.st163{clip-path:url(#SVGID_287_);fill:#979797;}
	.st164{clip-path:url(#SVGID_289_);}
	.st165{clip-path:url(#SVGID_291_);}
	.st166{clip-path:url(#SVGID_293_);}
	.st167{clip-path:url(#SVGID_295_);}
	.st168{clip-path:url(#SVGID_297_);}
	.st169{clip-path:url(#SVGID_299_);}
	.st170{clip-path:url(#SVGID_301_);}
	.st171{clip-path:url(#SVGID_303_);}
	.st172{clip-path:url(#SVGID_305_);}
	.st173{clip-path:url(#SVGID_307_);}
	.st174{clip-path:url(#SVGID_309_);}
	.st175{clip-path:url(#SVGID_311_);}
	.st176{clip-path:url(#SVGID_313_);}
	.st177{clip-path:url(#SVGID_315_);}
	.st178{clip-path:url(#SVGID_317_);}
	.st179{clip-path:url(#SVGID_319_);fill:#D81D25;}
	.st180{clip-path:url(#SVGID_321_);}
	.st181{clip-path:url(#SVGID_323_);fill:#D81D25;}
	.st182{clip-path:url(#SVGID_325_);}
	.st183{clip-path:url(#SVGID_327_);fill:#D81D25;}
	.st184{clip-path:url(#SVGID_329_);}
	.st185{clip-path:url(#SVGID_331_);fill:#D81D25;}
	.st186{clip-path:url(#SVGID_333_);}
	.st187{clip-path:url(#SVGID_335_);fill:#D81D25;}
	.st188{clip-path:url(#SVGID_337_);}
	.st189{clip-path:url(#SVGID_339_);fill:#D81D25;}
	.st190{clip-path:url(#SVGID_341_);}
	.st191{clip-path:url(#SVGID_343_);fill:#D81D25;}
	.st192{clip-path:url(#SVGID_345_);}
	.st193{clip-path:url(#SVGID_347_);fill:#6E6E6E;}
	.st194{clip-path:url(#SVGID_349_);}
	.st195{clip-path:url(#SVGID_351_);}
	.st196{clip-path:url(#SVGID_353_);}
	.st197{clip-path:url(#SVGID_355_);}
	.st198{clip-path:url(#SVGID_357_);}
	.st199{clip-path:url(#SVGID_359_);}
	.st200{clip-path:url(#SVGID_361_);}
	.st201{clip-path:url(#SVGID_363_);}
	.st202{clip-path:url(#SVGID_365_);}
	.st203{clip-path:url(#SVGID_367_);}
	.st204{clip-path:url(#SVGID_369_);}
	.st205{clip-path:url(#SVGID_371_);}
	.st206{clip-path:url(#SVGID_373_);}
	.st207{clip-path:url(#SVGID_375_);}
	.st208{clip-path:url(#SVGID_377_);}
	.st209{clip-path:url(#SVGID_379_);}
	.st210{clip-path:url(#SVGID_381_);}
	.st211{clip-path:url(#SVGID_383_);}
	.st212{clip-path:url(#SVGID_385_);}
	.st213{clip-path:url(#SVGID_387_);}
	.st214{clip-path:url(#SVGID_389_);}
	.st215{clip-path:url(#SVGID_391_);}
	.st216{clip-path:url(#SVGID_393_);}
	.st217{clip-path:url(#SVGID_395_);}
	.st218{clip-path:url(#SVGID_397_);}
	.st219{clip-path:url(#SVGID_399_);}
	.st220{clip-path:url(#SVGID_401_);}
	.st221{clip-path:url(#SVGID_403_);}
	.st222{clip-path:url(#SVGID_405_);}
	.st223{clip-path:url(#SVGID_407_);}
	.st224{clip-path:url(#SVGID_409_);}
	.st225{clip-path:url(#SVGID_411_);}
	.st226{fill:#F6F6F6;}
	.st227{fill:url(#SVGID_412_);}
	.st228{clip-path:url(#SVGID_414_);}
	.st229{clip-path:url(#SVGID_416_);}
	.st230{clip-path:url(#SVGID_418_);}
	.st231{clip-path:url(#SVGID_424_);}
	.st232{clip-path:url(#SVGID_428_);}
	.st233{clip-path:url(#SVGID_414_);fill:none;}
	.st234{fill:url(#SVGID_431_);}
	.st235{fill:#4BAD49;}
	.st236{fill:#51267D;}
	.st237{fill-rule:evenodd;clip-rule:evenodd;fill:#3366B8;}
	.st238{fill-rule:evenodd;clip-rule:evenodd;fill:#9BC440;}
	.st239{fill:#3366B8;}
	.st240{fill-rule:evenodd;clip-rule:evenodd;fill:#FFCB29;}
	.st241{fill-rule:evenodd;clip-rule:evenodd;fill:#2E3133;}
	.st242{fill:#272133;}
	.st243{fill:#63A444;}
	.st244{fill:#F3A63B;}
	.st245{fill:none;stroke:#F3A63B;stroke-linecap:round;stroke-linejoin:round;}
	.st246{fill:none;stroke:#8D1637;stroke-linecap:round;stroke-linejoin:round;}
	.st247{fill:none;stroke:#AFDAEC;stroke-miterlimit:10;}
	.st248{fill:none;stroke:#CCCCCC;stroke-miterlimit:10;}
	.st249{clip-path:url(#SVGID_433_);}
	.st250{clip-path:url(#SVGID_435_);}
	.st251{clip-path:url(#SVGID_437_);}
	.st252{clip-path:url(#SVGID_443_);}
	.st253{clip-path:url(#SVGID_447_);}
	.st254{clip-path:url(#SVGID_433_);fill:none;}
	.st255{fill:url(#SVGID_450_);}
	.st256{fill:#999999;}
	.st257{fill:url(#SVGID_451_);}
	.st258{fill:#E6E6E6;}
	.st259{fill:#B3B3B3;}
	.st260{fill:#2F669D;}
	.st261{fill:none;stroke:#FFFFFF;stroke-width:0.3165;stroke-linecap:round;stroke-linejoin:round;stroke-miterlimit:10;}
	.st262{fill:none;stroke:#2F669D;stroke-width:7.912987e-02;stroke-miterlimit:10;}
	.st263{fill:#666666;}
	.st264{fill:none;stroke:#666666;stroke-width:0.1748;stroke-miterlimit:10;}
	.st265{fill:#C7B299;}
	.st266{fill:none;stroke:#666666;stroke-width:0.1372;stroke-miterlimit:10;}
	.st267{fill:none;stroke:#999999;stroke-width:0.212;stroke-miterlimit:10;}
	.st268{fill:#090A0A;}
	.st269{fill:url(#SVGID_462_);}
	.st270{fill:url(#SVGID_473_);}
	.st271{fill:url(#SVGID_484_);}
	.st272{fill:#66676C;}
	.st273{fill:#00A79F;}
	.st274{clip-path:url(#SVGID_486_);}
	.st275{clip-path:url(#SVGID_488_);fill:#979797;}
	.st276{clip-path:url(#SVGID_490_);}
	.st277{clip-path:url(#SVGID_492_);}
	.st278{clip-path:url(#SVGID_494_);}
	.st279{clip-path:url(#SVGID_496_);}
	.st280{clip-path:url(#SVGID_498_);}
	.st281{clip-path:url(#SVGID_500_);}
	.st282{clip-path:url(#SVGID_502_);}
	.st283{clip-path:url(#SVGID_504_);}
	.st284{clip-path:url(#SVGID_506_);}
	.st285{clip-path:url(#SVGID_508_);}
	.st286{clip-path:url(#SVGID_510_);}
	.st287{clip-path:url(#SVGID_512_);}
	.st288{clip-path:url(#SVGID_514_);}
	.st289{clip-path:url(#SVGID_516_);}
	.st290{clip-path:url(#SVGID_518_);}
	.st291{clip-path:url(#SVGID_520_);fill:#D81D25;}
	.st292{clip-path:url(#SVGID_522_);}
	.st293{clip-path:url(#SVGID_524_);fill:#D81D25;}
	.st294{clip-path:url(#SVGID_526_);}
	.st295{clip-path:url(#SVGID_528_);fill:#D81D25;}
	.st296{clip-path:url(#SVGID_530_);}
	.st297{clip-path:url(#SVGID_532_);fill:#D81D25;}
	.st298{clip-path:url(#SVGID_534_);}
	.st299{clip-path:url(#SVGID_536_);fill:#D81D25;}
	.st300{clip-path:url(#SVGID_538_);}
	.st301{clip-path:url(#SVGID_540_);fill:#D81D25;}
	.st302{clip-path:url(#SVGID_542_);}
	.st303{clip-path:url(#SVGID_544_);fill:#D81D25;}
	.st304{clip-path:url(#SVGID_546_);}
	.st305{clip-path:url(#SVGID_548_);}
	.st306{clip-path:url(#SVGID_550_);}
	.st307{clip-path:url(#SVGID_552_);}
	.st308{clip-path:url(#SVGID_554_);}
	.st309{clip-path:url(#SVGID_556_);}
	.st310{clip-path:url(#SVGID_558_);}
	.st311{clip-path:url(#SVGID_560_);}
	.st312{clip-path:url(#SVGID_562_);}
	.st313{clip-path:url(#SVGID_564_);}
	.st314{clip-path:url(#SVGID_566_);}
	.st315{clip-path:url(#SVGID_568_);}
	.st316{clip-path:url(#SVGID_570_);}
	.st317{clip-path:url(#SVGID_572_);}
	.st318{clip-path:url(#SVGID_574_);}
	.st319{clip-path:url(#SVGID_576_);}
	.st320{clip-path:url(#SVGID_578_);}
	.st321{clip-path:url(#SVGID_580_);}
	.st322{clip-path:url(#SVGID_582_);}
	.st323{clip-path:url(#SVGID_584_);}
	.st324{clip-path:url(#SVGID_586_);}
	.st325{clip-path:url(#SVGID_588_);}
	.st326{clip-path:url(#SVGID_590_);}
	.st327{clip-path:url(#SVGID_592_);}
	.st328{clip-path:url(#SVGID_594_);}
	.st329{clip-path:url(#SVGID_596_);}
	.st330{clip-path:url(#SVGID_598_);}
	.st331{clip-path:url(#SVGID_600_);}
	.st332{clip-path:url(#SVGID_602_);}
	.st333{clip-path:url(#SVGID_604_);}
	.st334{clip-path:url(#SVGID_606_);}
	.st335{clip-path:url(#SVGID_608_);}
	.st336{clip-path:url(#SVGID_610_);}
	.st337{clip-path:url(#SVGID_612_);}
	.st338{clip-path:url(#SVGID_614_);}
	.st339{clip-path:url(#SVGID_616_);}
	.st340{clip-path:url(#SVGID_618_);}
	.st341{clip-path:url(#SVGID_620_);}
	.st342{clip-path:url(#SVGID_622_);}
	.st343{clip-path:url(#SVGID_624_);}
	.st344{clip-path:url(#SVGID_626_);}
	.st345{clip-path:url(#SVGID_628_);}
	.st346{clip-path:url(#SVGID_630_);}
	.st347{clip-path:url(#SVGID_632_);}
	.st348{clip-path:url(#SVGID_634_);}
	.st349{clip-path:url(#SVGID_636_);}
	.st350{clip-path:url(#SVGID_638_);}
	.st351{clip-path:url(#SVGID_640_);fill:#D81D25;}
	.st352{clip-path:url(#SVGID_642_);}
	.st353{clip-path:url(#SVGID_644_);fill:#D81D25;}
	.st354{clip-path:url(#SVGID_646_);}
	.st355{clip-path:url(#SVGID_648_);fill:#D81D25;}
	.st356{clip-path:url(#SVGID_650_);}
	.st357{clip-path:url(#SVGID_652_);fill:#D81D25;}
	.st358{clip-path:url(#SVGID_654_);}
	.st359{clip-path:url(#SVGID_656_);fill:#D81D25;}
	.st360{clip-path:url(#SVGID_658_);}
	.st361{clip-path:url(#SVGID_660_);fill:#D81D25;}
	.st362{clip-path:url(#SVGID_662_);}
	.st363{clip-path:url(#SVGID_664_);fill:#D81D25;}
	.st364{clip-path:url(#SVGID_666_);}
	.st365{clip-path:url(#SVGID_668_);}
	.st366{clip-path:url(#SVGID_670_);}
	.st367{clip-path:url(#SVGID_672_);}
	.st368{clip-path:url(#SVGID_674_);}
	.st369{clip-path:url(#SVGID_676_);}
	.st370{clip-path:url(#SVGID_678_);}
	.st371{clip-path:url(#SVGID_680_);}
	.st372{clip-path:url(#SVGID_682_);}
	.st373{clip-path:url(#SVGID_684_);}
	.st374{clip-path:url(#SVGID_686_);}
	.st375{clip-path:url(#SVGID_688_);}
	.st376{clip-path:url(#SVGID_690_);}
	.st377{clip-path:url(#SVGID_692_);}
	.st378{clip-path:url(#SVGID_694_);}
	.st379{clip-path:url(#SVGID_696_);}
	.st380{clip-path:url(#SVGID_698_);}
	.st381{clip-path:url(#SVGID_700_);}
	.st382{clip-path:url(#SVGID_702_);}
	.st383{clip-path:url(#SVGID_704_);}
	.st384{clip-path:url(#SVGID_706_);}
	.st385{clip-path:url(#SVGID_708_);}
	.st386{clip-path:url(#SVGID_710_);}
	.st387{clip-path:url(#SVGID_712_);}
	.st388{clip-path:url(#SVGID_714_);}
	.st389{clip-path:url(#SVGID_716_);}
	.st390{clip-path:url(#SVGID_718_);}
	.st391{clip-path:url(#SVGID_720_);}
	.st392{clip-path:url(#SVGID_722_);}
	.st393{clip-path:url(#SVGID_724_);}
	.st394{clip-path:url(#SVGID_726_);}
	.st395{clip-path:url(#SVGID_728_);}
	.st396{fill:none;stroke:#333333;stroke-width:0.6649;stroke-linecap:round;stroke-linejoin:round;stroke-miterlimit:10;}
	.st397{fill:#F7C66A;}
	.st398{fill:url(#SVGID_729_);}
	.st399{fill:#AFDAEC;}
	.st400{clip-path:url(#SVGID_731_);}
	.st401{clip-path:url(#SVGID_733_);fill:#4AAAD4;}
	.st402{clip-path:url(#SVGID_735_);}
	.st403{clip-path:url(#SVGID_737_);}
	.st404{clip-path:url(#SVGID_739_);fill:#4AAAD4;}
	.st405{fill:none;stroke:#F9D5A3;stroke-miterlimit:10;}
	.st406{fill:#F9D5A3;}
	.st407{clip-path:url(#SVGID_741_);}
	.st408{clip-path:url(#SVGID_743_);fill:#F3A63B;}
	.st409{clip-path:url(#SVGID_745_);}
	.st410{clip-path:url(#SVGID_747_);fill:#F3A63B;}
	.st411{clip-path:url(#SVGID_749_);}
	.st412{clip-path:url(#SVGID_753_);}
	.st413{clip-path:url(#SVGID_755_);fill:#333333;}
	.st414{clip-path:url(#SVGID_757_);}
	.st415{opacity:0.12;}
	.st416{fill:#E7CDD4;}
	.st417{clip-path:url(#SVGID_763_);}
	.st418{clip-path:url(#SVGID_765_);fill:#8D1637;}
	.st419{fill:none;stroke:#8D1637;stroke-width:1.3394;stroke-miterlimit:10;}
	.st420{fill:none;stroke:#231F20;stroke-width:1.3394;stroke-miterlimit:10;}
	.st421{fill:#8D1637;stroke:#8D1637;stroke-width:1.3394;stroke-miterlimit:10;}
	.st422{fill:none;stroke:#808184;stroke-width:1.3394;stroke-miterlimit:10;}
	.st423{fill:none;stroke:#231F20;stroke-width:1.3394;stroke-miterlimit:10;stroke-dasharray:5.3578,3.5719;}
	.st424{fill:none;stroke:#28659C;stroke-width:0.893;stroke-miterlimit:10;}
	.st425{fill:none;stroke:#929497;stroke-width:1.3394;stroke-miterlimit:10;}
	.st426{fill:#EDEDEE;stroke:#EC1C24;stroke-width:1.3394;stroke-miterlimit:10;}
	.st427{fill:#FFFFFF;stroke:#EC2024;stroke-width:1.3394;stroke-miterlimit:10;}
	.st428{fill:none;stroke:#FFFFFF;stroke-width:1.3394;stroke-miterlimit:10;}
	.st429{fill:none;stroke:#4AAAD4;stroke-width:0.893;stroke-miterlimit:10;}
	.st430{fill:#EDEDEE;stroke:#929497;stroke-width:0.893;stroke-miterlimit:10;}
	.st431{fill:none;stroke:#EC1C24;stroke-width:1.3394;stroke-linecap:round;stroke-linejoin:round;stroke-miterlimit:10;}
	.st432{fill:none;stroke:#929497;stroke-width:1.7859;stroke-miterlimit:10;stroke-dasharray:5.3578,3.5719;}
	.st433{fill:#8D1637;stroke:#8D1637;stroke-width:0.893;stroke-miterlimit:10;}
	.st434{fill:none;stroke:#EC2024;stroke-width:1.3394;stroke-miterlimit:10;}
	.st435{fill:#FFFFFF;stroke:#000000;stroke-miterlimit:10;}
	.st436{fill:url(#SVGID_766_);}
	.st437{fill:none;stroke:#FFFFFF;stroke-width:2;stroke-linecap:round;stroke-linejoin:round;stroke-miterlimit:10;}
	.st438{fill:url(#SVGID_769_);}
	.st439{fill:url(#SVGID_770_);}
	.st440{clip-path:url(#SVGID_772_);fill:url(#SVGID_773_);}
	.st441{clip-path:url(#SVGID_772_);}
	.st442{clip-path:url(#SVGID_775_);fill:url(#SVGID_776_);}
	.st443{fill:url(#SVGID_779_);}
	.st444{clip-path:url(#SVGID_781_);}
	.st445{clip-path:url(#SVGID_783_);}
	.st446{clip-path:url(#SVGID_787_);}
	.st447{clip-path:url(#SVGID_789_);}
	.st448{clip-path:url(#SVGID_791_);}
	.st449{clip-path:url(#SVGID_797_);}
	.st450{clip-path:url(#SVGID_801_);}
	.st451{clip-path:url(#SVGID_787_);fill:none;}
	.st452{fill:url(#SVGID_804_);}
	.st453{clip-path:url(#SVGID_806_);}
	.st454{clip-path:url(#SVGID_808_);fill:#979797;}
	.st455{clip-path:url(#SVGID_810_);}
	.st456{clip-path:url(#SVGID_812_);}
	.st457{clip-path:url(#SVGID_814_);}
	.st458{clip-path:url(#SVGID_816_);}
	.st459{clip-path:url(#SVGID_818_);}
	.st460{clip-path:url(#SVGID_820_);}
	.st461{clip-path:url(#SVGID_822_);}
	.st462{clip-path:url(#SVGID_824_);}
	.st463{clip-path:url(#SVGID_826_);}
	.st464{clip-path:url(#SVGID_828_);}
	.st465{clip-path:url(#SVGID_830_);}
	.st466{clip-path:url(#SVGID_832_);}
	.st467{clip-path:url(#SVGID_834_);}
	.st468{clip-path:url(#SVGID_836_);}
	.st469{clip-path:url(#SVGID_838_);}
	.st470{clip-path:url(#SVGID_840_);fill:#D81D25;}
	.st471{clip-path:url(#SVGID_842_);}
	.st472{clip-path:url(#SVGID_844_);fill:#D81D25;}
	.st473{clip-path:url(#SVGID_846_);}
	.st474{clip-path:url(#SVGID_848_);fill:#D81D25;}
	.st475{clip-path:url(#SVGID_850_);}
	.st476{clip-path:url(#SVGID_852_);fill:#D81D25;}
	.st477{clip-path:url(#SVGID_854_);}
	.st478{clip-path:url(#SVGID_856_);fill:#D81D25;}
	.st479{clip-path:url(#SVGID_858_);}
	.st480{clip-path:url(#SVGID_860_);fill:#D81D25;}
	.st481{clip-path:url(#SVGID_862_);}
	.st482{clip-path:url(#SVGID_864_);fill:#D81D25;}
	.st483{clip-path:url(#SVGID_866_);}
	.st484{clip-path:url(#SVGID_868_);}
	.st485{clip-path:url(#SVGID_870_);}
	.st486{clip-path:url(#SVGID_872_);}
	.st487{clip-path:url(#SVGID_874_);}
	.st488{clip-path:url(#SVGID_876_);}
	.st489{clip-path:url(#SVGID_878_);}
	.st490{clip-path:url(#SVGID_880_);}
	.st491{clip-path:url(#SVGID_882_);}
	.st492{clip-path:url(#SVGID_884_);}
	.st493{clip-path:url(#SVGID_886_);}
	.st494{clip-path:url(#SVGID_888_);}
	.st495{clip-path:url(#SVGID_890_);}
	.st496{clip-path:url(#SVGID_892_);}
	.st497{clip-path:url(#SVGID_894_);}
	.st498{clip-path:url(#SVGID_896_);}
	.st499{clip-path:url(#SVGID_898_);}
	.st500{clip-path:url(#SVGID_900_);}
	.st501{clip-path:url(#SVGID_902_);}
	.st502{clip-path:url(#SVGID_904_);}
	.st503{clip-path:url(#SVGID_906_);}
	.st504{clip-path:url(#SVGID_908_);}
	.st505{clip-path:url(#SVGID_910_);}
	.st506{clip-path:url(#SVGID_912_);}
	.st507{clip-path:url(#SVGID_914_);}
	.st508{clip-path:url(#SVGID_916_);}
	.st509{clip-path:url(#SVGID_918_);}
	.st510{clip-path:url(#SVGID_920_);}
	.st511{clip-path:url(#SVGID_922_);}
	.st512{clip-path:url(#SVGID_924_);}
	.st513{clip-path:url(#SVGID_926_);}
	.st514{clip-path:url(#SVGID_928_);}
	.st515{fill:url(#SVGID_929_);}
	.st516{clip-path:url(#SVGID_931_);}
	.st517{clip-path:url(#SVGID_933_);fill:#4AAAD4;}
	.st518{clip-path:url(#SVGID_935_);}
	.st519{clip-path:url(#SVGID_937_);}
	.st520{clip-path:url(#SVGID_939_);fill:#4AAAD4;}
	.st521{clip-path:url(#SVGID_941_);}
	.st522{clip-path:url(#SVGID_943_);fill:#F3A63B;}
	.st523{clip-path:url(#SVGID_945_);}
	.st524{clip-path:url(#SVGID_947_);fill:#F3A63B;}
	.st525{clip-path:url(#SVGID_949_);}
	.st526{clip-path:url(#SVGID_953_);}
	.st527{clip-path:url(#SVGID_955_);fill:#333333;}
	.st528{clip-path:url(#SVGID_957_);}
	.st529{clip-path:url(#SVGID_963_);}
	.st530{clip-path:url(#SVGID_965_);fill:#8D1637;}
	.st531{fill:url(#SVGID_966_);}
	.st532{fill:url(#SVGID_969_);}
	.st533{fill:none;stroke:#FFFFFF;stroke-miterlimit:10;}
</style>
<g>
	<g>
		<defs>
			<path id="SVGID_689_" d="M28.6,32.5c0-1.1,0-1.1-1.1-1.1h-2.3c-1.5,0-3.5,0.1-4.3,0.9c-0.8,0.8-1.2,1.6-1.6,2.4
				c-0.3,0.2-0.8,0-0.9-0.2c0.6-1.6,1.1-3.9,1.3-5.3c0.1-0.1,0.6-0.1,0.7,0c0.2,1.1,1.4,1.1,3,1.1h14.7c1.9,0,2.5-0.2,2.6-0.5v-0.5
				l2.4-1c0.1,0,0.3,0.1,0.4,0.2c0,1.1-0.1,2.8-0.1,4.4v7.4c0,0.3,0,0.6,0.1,0.7c1.3-1,3-1.8,4.8-1.8c3.4,0,4.6,2.1,4.6,4.6v5.9
				c0,2.5,0.1,2.9,1.3,3.1l1,0.1c0.2,0.2,0.2,0.8-0.1,0.9c-1.3-0.1-2.3-0.1-3.5-0.1c-1.3,0-2.3,0-3.3,0.1c-0.2-0.1-0.3-0.7-0.1-0.9
				l0.7-0.1c1.3-0.2,1.3-0.5,1.3-3.1v-5.1c0-2.3-1.1-3.8-3.4-3.8c-1.2,0-2.1,0.4-2.8,1c-0.6,0.5-0.7,0.7-0.7,1.9v5.9
				c0,2.5,0.1,2.9,1.3,3.1l0.7,0.1c0.2,0.1,0.2,0.8-0.1,0.9c-1.1-0.1-2.1-0.1-3.3-0.1c-1.3,0-2.3,0-3.5,0.1
				c-0.2-0.1-0.3-0.7-0.1-0.9l0.9-0.1c1.3-0.1,1.3-0.5,1.3-3.1V33.8c0-2.2-0.8-2.5-4.9-2.5h-3.2c-1.1,0-1,0-1,1.2v15.7
				c0,3.7,0.1,4.2,2.1,4.4l1.1,0.1c0.2,0.1,0.1,0.8-0.1,0.9c-2-0.1-3.2-0.1-4.6-0.1c-1.4,0-2.7,0-4.9,0.1c-0.2-0.1-0.3-0.7,0-0.9
				l1.3-0.1c2-0.2,2.2-0.7,2.2-4.4V32.5z"/>
		</defs>
		<use xlink:href="#SVGID_689_"  style="overflow:visible;fill-rule:evenodd;clip-rule:evenodd;"/>
		<clipPath id="SVGID_1_">
			<use xlink:href="#SVGID_689_"  style="overflow:visible;"/>
		</clipPath>
		<g style="clip-path:url(#SVGID_1_);">
			<defs>
				<rect id="SVGID_691_" x="-1081.6" y="-1406.7" width="1440" height="2419"/>
			</defs>
			<use xlink:href="#SVGID_691_"  style="overflow:visible;"/>
			<clipPath id="SVGID_3_">
				<use xlink:href="#SVGID_691_"  style="overflow:visible;"/>
			</clipPath>
			<rect x="13.4" y="23.3" style="clip-path:url(#SVGID_3_);" width="46.8" height="35.4"/>
		</g>
	</g>
	<g>
		<defs>
			<path id="SVGID_693_" d="M60.4,44.5c-0.9,0-1,0.1-1,1c0,3.6,2.1,6.6,5.9,6.6c1.2,0,2.2-0.4,3.3-1.7c0.4-0.1,0.6,0.1,0.6,0.4
				c-1.2,2.4-3.7,3.3-5.5,3.3c-2.3,0-4.1-1-5.1-2.3c-1.1-1.4-1.5-3-1.5-4.6c0-4.3,2.9-8,7.1-8c3,0,5,2.1,5,4.2
				c0,0.5-0.1,0.8-0.1,0.9c-0.1,0.2-0.6,0.2-2.1,0.2H60.4z M62.6,43.5c2.6,0,3.4-0.1,3.7-0.4c0.1-0.1,0.2-0.2,0.2-0.7
				c0-1-0.7-2.2-2.7-2.2c-2.1,0-3.9,1.9-3.9,3.1c0,0.1,0,0.2,0.2,0.2H62.6z"/>
		</defs>
		<use xlink:href="#SVGID_693_"  style="overflow:visible;fill-rule:evenodd;clip-rule:evenodd;"/>
		<clipPath id="SVGID_5_">
			<use xlink:href="#SVGID_693_"  style="overflow:visible;"/>
		</clipPath>
		<g style="clip-path:url(#SVGID_5_);">
			<defs>
				<rect id="SVGID_695_" x="-1081.6" y="-1406.7" width="1440" height="2419"/>
			</defs>
			<use xlink:href="#SVGID_695_"  style="overflow:visible;"/>
			<clipPath id="SVGID_6_">
				<use xlink:href="#SVGID_695_"  style="overflow:visible;"/>
			</clipPath>
			<rect x="52" y="34.1" style="clip-path:url(#SVGID_6_);" width="22.2" height="24.9"/>
		</g>
	</g>
	<g>
		<defs>
			<path id="SVGID_697_" d="M83.1,35.6c0-3.4-0.1-4-1.6-4.1l-1.1-0.1c-0.2-0.2-0.2-0.7,0-0.9c2-0.2,4.4-0.3,7.9-0.3
				c2.2,0,4.3,0.2,5.9,1.1c1.7,0.9,2.9,2.5,2.9,4.9c0,3.4-2.7,5.2-4.4,5.9c-0.2,0.2,0,0.6,0.2,0.8c2.8,4.6,4.7,7.4,7.1,9.4
				c0.6,0.5,1.5,0.9,2.4,1c0.2,0.1,0.2,0.4,0,0.5c-0.3,0.1-0.9,0.2-1.6,0.2c-3,0-4.8-0.9-7.3-4.5c-0.9-1.3-2.4-3.7-3.5-5.3
				c-0.5-0.8-1.1-1.1-2.5-1.1c-1.6,0-1.7,0-1.7,0.8v4.5c0,3.7,0.1,4.1,2.1,4.4l0.7,0.1c0.2,0.2,0.1,0.8-0.1,0.9
				c-1.6-0.1-2.8-0.1-4.2-0.1c-1.5,0-2.8,0-4.4,0.1c-0.2-0.1-0.3-0.6-0.1-0.9l0.9-0.1c2-0.2,2.1-0.7,2.1-4.4V35.6z M86,40.6
				c0,0.6,0,1,0.1,1.2c0.1,0.1,0.6,0.2,2.4,0.2c1.3,0,2.6-0.1,3.6-0.9c1-0.7,1.8-2,1.8-4.4c0-2.8-1.7-5.4-5.7-5.4
				c-2.2,0-2.3,0.1-2.3,1.1V40.6z"/>
		</defs>
		<use xlink:href="#SVGID_697_"  style="overflow:visible;fill-rule:evenodd;clip-rule:evenodd;"/>
		<clipPath id="SVGID_7_">
			<use xlink:href="#SVGID_697_"  style="overflow:visible;"/>
		</clipPath>
		<g style="clip-path:url(#SVGID_7_);">
			<defs>
				<rect id="SVGID_699_" x="-1081.6" y="-1406.7" width="1440" height="2419"/>
			</defs>
			<use xlink:href="#SVGID_699_"  style="overflow:visible;"/>
			<clipPath id="SVGID_9_">
				<use xlink:href="#SVGID_699_"  style="overflow:visible;"/>
			</clipPath>
			<rect x="75" y="25.1" class="st4" width="32.6" height="33.8"/>
		</g>
	</g>
	<g>
		<defs>
			<path id="SVGID_701_" d="M105.6,44.5c-0.9,0-1,0.1-1,1c0,3.6,2.1,6.6,5.9,6.6c1.2,0,2.2-0.4,3.3-1.7c0.4-0.1,0.6,0.1,0.6,0.4
				c-1.2,2.4-3.7,3.3-5.5,3.3c-2.3,0-4.1-1-5.1-2.3c-1.1-1.4-1.5-3-1.5-4.6c0-4.3,2.9-8,7.1-8c3,0,5,2.1,5,4.2
				c0,0.5-0.1,0.8-0.1,0.9c-0.1,0.2-0.6,0.2-2.1,0.2H105.6z M107.8,43.5c2.6,0,3.4-0.1,3.7-0.4c0.1-0.1,0.2-0.2,0.2-0.7
				c0-1-0.7-2.2-2.7-2.2c-2.1,0-3.9,1.9-3.9,3.1c0,0.1,0,0.2,0.2,0.2H107.8z"/>
		</defs>
		<use xlink:href="#SVGID_701_"  style="overflow:visible;fill-rule:evenodd;clip-rule:evenodd;"/>
		<clipPath id="SVGID_10_">
			<use xlink:href="#SVGID_701_"  style="overflow:visible;"/>
		</clipPath>
		<g style="clip-path:url(#SVGID_10_);">
			<defs>
				<rect id="SVGID_703_" x="-1081.6" y="-1406.7" width="1440" height="2419"/>
			</defs>
			<use xlink:href="#SVGID_703_"  style="overflow:visible;"/>
			<clipPath id="SVGID_12_">
				<use xlink:href="#SVGID_703_"  style="overflow:visible;"/>
			</clipPath>
			<rect x="97.2" y="34.1" style="clip-path:url(#SVGID_12_);" width="22.2" height="24.9"/>
		</g>
	</g>
	<g>
		<defs>
			<path id="SVGID_705_" d="M123.4,46.2c0.5-0.2,0.6-0.5,0.6-1l0-1.6c0-1.3-0.4-3.1-2.6-3.1c-1,0-2.2,0.5-2.3,1.6
				c0,0.6-0.1,1-0.4,1.2c-0.5,0.4-1.5,0.7-2,0.7c-0.3,0-0.5-0.2-0.5-0.5c0-1.8,4-4.3,6.6-4.3c2.5,0,3.8,1.5,3.7,4.1l-0.2,6.1
				c-0.1,1.6,0.2,3.1,1.6,3.1c0.4,0,0.7-0.1,0.9-0.2c0.2-0.1,0.4-0.2,0.5-0.2c0.1,0,0.2,0.2,0.2,0.5c0,0.2-1.2,1.6-3,1.6
				c-0.8,0-1.7-0.3-2.3-1.1c-0.1-0.2-0.4-0.5-0.6-0.5c-0.2,0-0.7,0.3-1.4,0.7c-0.8,0.4-1.6,0.9-2.5,0.9c-1,0-1.9-0.3-2.5-0.8
				c-0.7-0.6-1.1-1.5-1.1-2.5c0-1.4,0.7-2.2,2.9-3L123.4,46.2z M121.2,52.5c0.7,0,1.8-0.5,2.2-0.9c0.4-0.4,0.4-0.9,0.5-1.7l0.1-2.1
				c0-0.4-0.1-0.5-0.4-0.5c-0.2,0-0.8,0.1-1.4,0.4c-2.1,0.7-3.1,1.2-3.1,2.6C118.9,50.9,119.4,52.5,121.2,52.5z"/>
		</defs>
		<use xlink:href="#SVGID_705_"  style="overflow:visible;fill-rule:evenodd;clip-rule:evenodd;"/>
		<clipPath id="SVGID_13_">
			<use xlink:href="#SVGID_705_"  style="overflow:visible;"/>
		</clipPath>
		<g style="clip-path:url(#SVGID_13_);">
			<defs>
				<rect id="SVGID_707_" x="-1081.6" y="-1406.7" width="1440" height="2419"/>
			</defs>
			<use xlink:href="#SVGID_707_"  style="overflow:visible;"/>
			<clipPath id="SVGID_14_">
				<use xlink:href="#SVGID_707_"  style="overflow:visible;"/>
			</clipPath>
			<rect x="111.2" y="34.1" style="clip-path:url(#SVGID_14_);" width="23.3" height="24.9"/>
		</g>
	</g>
	<g>
		<defs>
			<path id="SVGID_709_" d="M135,49.6c0,2.5,0.1,2.9,1.3,3.1l0.8,0.1c0.2,0.2,0.2,0.8-0.1,0.9c-1.2-0.1-2.2-0.1-3.4-0.1
				c-1.3,0-2.3,0-3.4,0.1c-0.2-0.1-0.3-0.7-0.1-0.9l0.8-0.1c1.3-0.2,1.3-0.5,1.3-3.1v-16c0-2.1,0-2.3-1.1-2.9l-0.4-0.2
				c-0.2-0.1-0.2-0.6,0-0.7c0.9-0.3,2.5-0.8,3.8-1.5c0.1,0,0.3,0.1,0.4,0.2c0,1.1-0.1,2.8-0.1,4.4V49.6z"/>
		</defs>
		<use xlink:href="#SVGID_709_"  style="overflow:visible;fill-rule:evenodd;clip-rule:evenodd;"/>
		<clipPath id="SVGID_16_">
			<use xlink:href="#SVGID_709_"  style="overflow:visible;"/>
		</clipPath>
		<g class="st7">
			<defs>
				<rect id="SVGID_711_" x="-1081.6" y="-1406.7" width="1440" height="2419"/>
			</defs>
			<use xlink:href="#SVGID_711_"  style="overflow:visible;"/>
			<clipPath id="SVGID_18_">
				<use xlink:href="#SVGID_711_"  style="overflow:visible;"/>
			</clipPath>
			<rect x="125.1" y="23.3" class="st9" width="17.3" height="35.4"/>
		</g>
	</g>
	<g>
		<defs>
			<path id="SVGID_713_" d="M151.3,35.6c0-3.4-0.1-4-1.6-4.1l-1.1-0.1c-0.2-0.2-0.2-0.7,0-0.9c2-0.2,4.4-0.3,7.9-0.3
				c2.2,0,4.3,0.2,5.9,1.1c1.7,0.9,2.9,2.5,2.9,4.9c0,3.4-2.7,5.2-4.4,5.9c-0.2,0.2,0,0.6,0.2,0.8c2.8,4.6,4.7,7.4,7.1,9.4
				c0.6,0.5,1.5,0.9,2.4,1c0.2,0.1,0.2,0.4,0,0.5c-0.3,0.1-0.9,0.2-1.6,0.2c-3,0-4.8-0.9-7.3-4.5c-0.9-1.3-2.4-3.7-3.5-5.3
				c-0.5-0.8-1.1-1.1-2.5-1.1c-1.6,0-1.7,0-1.7,0.8v4.5c0,3.7,0.1,4.1,2.1,4.4l0.7,0.1c0.2,0.2,0.1,0.8-0.1,0.9
				c-1.6-0.1-2.8-0.1-4.2-0.1c-1.5,0-2.8,0-4.4,0.1c-0.2-0.1-0.3-0.6-0.1-0.9l0.9-0.1c2.1-0.2,2.1-0.7,2.1-4.4V35.6z M154.2,40.6
				c0,0.6,0,1,0.1,1.2c0.1,0.1,0.6,0.2,2.4,0.2c1.3,0,2.6-0.1,3.6-0.9c1-0.7,1.8-2,1.8-4.4c0-2.8-1.7-5.4-5.7-5.4
				c-2.2,0-2.3,0.1-2.3,1.1V40.6z"/>
		</defs>
		<use xlink:href="#SVGID_713_"  style="overflow:visible;fill-rule:evenodd;clip-rule:evenodd;"/>
		<clipPath id="SVGID_20_">
			<use xlink:href="#SVGID_713_"  style="overflow:visible;"/>
		</clipPath>
		<g class="st10">
			<defs>
				<rect id="SVGID_715_" x="-1081.6" y="-1406.7" width="1440" height="2419"/>
			</defs>
			<use xlink:href="#SVGID_715_"  style="overflow:visible;"/>
			<clipPath id="SVGID_22_">
				<use xlink:href="#SVGID_715_"  style="overflow:visible;"/>
			</clipPath>
			<rect x="143.2" y="25.1" style="clip-path:url(#SVGID_22_);" width="32.6" height="33.8"/>
		</g>
	</g>
	<g>
		<defs>
			<path id="SVGID_717_" d="M173.8,44.5c-0.9,0-1,0.1-1,1c0,3.6,2.1,6.6,5.9,6.6c1.2,0,2.2-0.4,3.2-1.7c0.4-0.1,0.6,0.1,0.6,0.4
				c-1.2,2.4-3.7,3.3-5.5,3.3c-2.3,0-4.1-1-5.1-2.3c-1.1-1.4-1.5-3-1.5-4.6c0-4.3,2.9-8,7.1-8c3,0,5,2.1,5,4.2
				c0,0.5-0.1,0.8-0.1,0.9c-0.1,0.2-0.6,0.2-2.1,0.2H173.8z M176,43.5c2.6,0,3.4-0.1,3.7-0.4c0.1-0.1,0.2-0.2,0.2-0.7
				c0-1-0.7-2.2-2.7-2.2c-2.1,0-3.9,1.9-3.9,3.1c0,0.1,0,0.2,0.2,0.2H176z"/>
		</defs>
		<use xlink:href="#SVGID_717_"  style="overflow:visible;fill-rule:evenodd;clip-rule:evenodd;"/>
		<clipPath id="SVGID_24_">
			<use xlink:href="#SVGID_717_"  style="overflow:visible;"/>
		</clipPath>
		<g style="clip-path:url(#SVGID_24_);">
			<defs>
				<rect id="SVGID_719_" x="-1081.6" y="-1406.7" width="1440" height="2419"/>
			</defs>
			<use xlink:href="#SVGID_719_"  style="overflow:visible;"/>
			<clipPath id="SVGID_26_">
				<use xlink:href="#SVGID_719_"  style="overflow:visible;"/>
			</clipPath>
			<rect x="165.4" y="34.1" class="st15" width="22.2" height="24.9"/>
		</g>
	</g>
	<g>
		<defs>
			<path id="SVGID_721_" d="M191.6,46.2c0.5-0.2,0.6-0.5,0.6-1l0-1.6c0-1.3-0.4-3.1-2.6-3.1c-1,0-2.2,0.5-2.3,1.6
				c0,0.6-0.1,1-0.4,1.2c-0.5,0.4-1.5,0.7-2,0.7c-0.3,0-0.5-0.2-0.5-0.5c0-1.8,4-4.3,6.6-4.3c2.5,0,3.8,1.5,3.7,4.1l-0.2,6.1
				c-0.1,1.6,0.2,3.1,1.6,3.1c0.4,0,0.7-0.1,0.9-0.2c0.2-0.1,0.4-0.2,0.5-0.2c0.1,0,0.2,0.2,0.2,0.5c0,0.2-1.2,1.6-3,1.6
				c-0.8,0-1.7-0.3-2.3-1.1c-0.1-0.2-0.4-0.5-0.6-0.5c-0.2,0-0.7,0.3-1.4,0.7c-0.8,0.4-1.6,0.9-2.5,0.9c-1,0-1.9-0.3-2.5-0.8
				c-0.7-0.6-1.1-1.5-1.1-2.5c0-1.4,0.7-2.2,2.9-3L191.6,46.2z M189.4,52.5c0.7,0,1.8-0.5,2.2-0.9c0.4-0.4,0.4-0.9,0.5-1.7l0.1-2.1
				c0-0.4-0.1-0.5-0.4-0.5c-0.2,0-0.8,0.1-1.4,0.4c-2.1,0.7-3.1,1.2-3.1,2.6C187.1,50.9,187.6,52.5,189.4,52.5z"/>
		</defs>
		<use xlink:href="#SVGID_721_"  style="overflow:visible;fill-rule:evenodd;clip-rule:evenodd;"/>
		<clipPath id="SVGID_28_">
			<use xlink:href="#SVGID_721_"  style="overflow:visible;"/>
		</clipPath>
		<g class="st16">
			<defs>
				<rect id="SVGID_723_" x="-1081.6" y="-1406.7" width="1440" height="2419"/>
			</defs>
			<use xlink:href="#SVGID_723_"  style="overflow:visible;"/>
			<clipPath id="SVGID_30_">
				<use xlink:href="#SVGID_723_"  style="overflow:visible;"/>
			</clipPath>
			<rect x="179.4" y="34.1" class="st17" width="23.3" height="24.9"/>
		</g>
	</g>
	<g>
		<defs>
			<path id="SVGID_725_" d="M203.2,49.6c0,2.5,0.1,2.9,1.3,3.1l0.8,0.1c0.2,0.2,0.2,0.8-0.1,0.9c-1.2-0.1-2.2-0.1-3.4-0.1
				c-1.3,0-2.3,0-3.4,0.1c-0.2-0.1-0.3-0.7-0.1-0.9l0.8-0.1c1.3-0.2,1.3-0.5,1.3-3.1v-16c0-2.1,0-2.3-1.1-2.9l-0.4-0.2
				c-0.2-0.1-0.2-0.6,0-0.7c0.9-0.3,2.5-0.8,3.8-1.5c0.1,0,0.3,0.1,0.4,0.2c0,1.1-0.1,2.8-0.1,4.4V49.6z"/>
		</defs>
		<use xlink:href="#SVGID_725_"  style="overflow:visible;fill-rule:evenodd;clip-rule:evenodd;"/>
		<clipPath id="SVGID_32_">
			<use xlink:href="#SVGID_725_"  style="overflow:visible;"/>
		</clipPath>
		<g class="st18">
			<defs>
				<rect id="SVGID_727_" x="-1081.6" y="-1406.7" width="1440" height="2419"/>
			</defs>
			<use xlink:href="#SVGID_727_"  style="overflow:visible;"/>
			<clipPath id="SVGID_34_">
				<use xlink:href="#SVGID_727_"  style="overflow:visible;"/>
			</clipPath>
			<rect x="193.3" y="23.3" class="st19" width="17.3" height="35.4"/>
		</g>
	</g>
</g>
</svg>
