<?xml version="1.0" encoding="UTF-8"?>
<svg width="88px" height="45px" viewBox="0 0 88 45" version="1.1" xmlns="http://www.w3.org/2000/svg" xmlns:xlink="http://www.w3.org/1999/xlink">
    <!-- Generator: Sketch 53.2 (72643) - https://sketchapp.com -->
    <title>Puma</title>
    <desc>Created with Sketch.</desc>
    <g id="Page-1" stroke="none" stroke-width="1" fill="none" fill-rule="evenodd">
        <g id="Home-Page" transform="translate(-393.000000, -442.000000)" fill="#6E6E6E">
            <g id="Group-2" transform="translate(-201.000000, 441.000000)">
                <g id="Puma" transform="translate(594.021000, 1.000500)">
                    <path d="M7.603,34.1748 C7.575,34.7868 7.116,35.0928 6.671,35.0928 C6.199,35.0928 5.741,34.7728 5.741,34.1198 L5.741,25.1548 C5.741,24.5438 6.199,24.2248 6.671,24.2248 C7.144,24.2248 7.603,24.5438 7.603,25.1968 L7.603,34.1748 Z M10.507,21.9728 L6.671,21.9728 L0.75,21.9728 C0.028,21.9728 0.028,21.9728 0.028,22.5008 L0.028,42.1668 C0.014,42.1528 0.014,42.1668 -1.70530257e-13,42.1808 L-1.70530257e-13,42.1948 C0.014,42.3058 0.139,42.6248 0.556,42.6248 L5.282,42.6248 C5.741,42.6248 5.741,42.6248 5.741,42.2078 L5.741,38.2468 C5.741,37.7048 5.741,37.6218 6.268,37.6218 L6.671,37.6218 L10.507,37.6218 C12.758,37.5248 13.315,36.9958 13.315,34.4398 L13.315,24.6268 C13.315,22.4458 12.758,21.9728 10.507,21.9728 L10.507,21.9728 Z" id="Fill-1"></path>
                    <path d="M28.6997,22.4453 C28.6997,21.9723 28.6017,22.1263 28.1717,21.9723 L23.5017,21.9723 C22.9877,21.9723 22.9877,21.9723 22.9877,22.4453 L22.9737,38.7193 C22.9737,40.3183 21.1677,40.2763 21.1677,38.7193 L21.1677,22.4453 C21.1677,21.9723 21.1677,21.9723 20.6947,21.9723 L15.8157,21.9723 C15.2467,21.9723 15.2467,21.9723 15.2467,22.4453 L15.2467,39.6653 C15.2467,42.2083 15.8157,42.6253 17.3727,42.6253 L26.4067,42.6253 C28.1717,42.6253 28.7557,42.1523 28.6997,39.8173 L28.6997,22.4453 Z" id="Fill-3"></path>
                    <path d="M49.0464,21.9727 L32.9524,21.9727 C31.0344,21.9727 30.4644,22.4457 30.4644,24.3217 L30.4644,42.2077 C30.4644,42.6247 30.4644,42.6247 31.0344,42.6247 L35.5514,42.6247 C36.1774,42.6247 36.1774,42.6247 36.1774,42.2077 L36.1774,25.3647 C36.1774,23.8907 37.9834,23.7387 37.9834,25.3647 L37.9834,42.2077 C37.9834,42.6247 37.9834,42.6247 38.6644,42.6247 L43.1674,42.6247 C43.6954,42.6247 43.6954,42.6247 43.6954,42.2077 L43.6954,25.3647 C43.6954,23.9737 45.5024,23.8907 45.5024,25.3647 L45.5024,42.2077 C45.5024,42.6247 45.5024,42.6247 46.0724,42.6247 L50.7004,42.6247 C51.2144,42.6247 51.2144,42.6247 51.2144,42.2077 L51.2144,24.2097 C51.2144,22.4457 50.6454,21.9727 49.0464,21.9727" id="Fill-5"></path>
                    <path d="M60.9292,34.1748 C60.9292,34.7318 60.4712,35.0088 60.0122,34.9948 C59.5682,34.9948 59.1092,34.7178 59.1092,34.1748 L59.1092,25.3638 C59.1092,24.7518 59.5682,24.4608 60.0122,24.4608 C60.4712,24.4748 60.9292,24.7798 60.9292,25.3638 L60.9292,34.1748 Z M64.6672,21.9728 L60.0122,21.9728 L55.5362,21.9728 C54.0222,21.9728 53.3972,22.4458 53.3972,24.2248 L53.3972,42.2078 C53.3972,42.6248 53.3972,42.6248 54.0222,42.6248 L58.5382,42.6248 C59.1092,42.6248 59.1092,42.6248 59.1092,42.2078 L59.1092,38.1918 C59.1642,37.5668 59.5812,37.2468 60.0122,37.2328 C60.4712,37.2188 60.9292,37.5528 60.9292,38.2468 L60.9292,42.2078 C60.9292,42.6248 60.9292,42.6248 61.4992,42.6248 L66.1832,42.6248 C66.6412,42.6248 66.6412,42.6248 66.6412,42.2078 L66.6412,24.2098 C66.6412,22.4458 66.1682,21.9728 64.6672,21.9728 L64.6672,21.9728 Z" id="Fill-7"></path>
                    <path d="M73.5903,42.0977 C73.4383,43.1397 72.6173,43.8337 71.6453,43.8487 C71.3803,43.8487 71.1163,43.8067 70.8523,43.7087 C70.0323,43.3067 69.5733,42.6117 69.6433,41.6947 C69.7963,40.5817 70.6993,39.8867 71.6453,39.9017 C72.1873,39.9017 72.7293,40.1237 73.1463,40.6237 C73.4793,41.0967 73.6183,41.4997 73.5903,42.0977 M71.6453,39.4017 L71.6033,39.4017 C70.2553,39.4017 69.1433,40.5127 69.1433,41.8887 C69.1433,43.2367 70.2553,44.3487 71.6033,44.3487 L71.6453,44.3487 C73.0073,44.3347 74.0913,43.2367 74.0913,41.8887 C74.0913,40.5267 73.0073,39.4287 71.6453,39.4017" id="Fill-9"></path>
                    <path d="M71.5474,41.8467 L71.0474,41.8467 L71.0324,40.7357 L71.5474,40.7357 C71.5894,40.7357 71.6164,40.7487 71.6454,40.7487 C71.7974,40.7627 71.9504,40.8187 72.0484,40.9017 C72.1734,40.9987 72.2564,41.1527 72.2564,41.2777 C72.2564,41.4447 72.1874,41.5697 72.0484,41.6807 C71.9374,41.7777 71.7974,41.8327 71.6454,41.8467 L71.5474,41.8467 Z M72.4374,41.9307 C72.6174,41.7637 72.7144,41.5407 72.7144,41.2777 C72.7144,41.0407 72.6044,40.8317 72.3814,40.6797 C72.1874,40.5267 71.9224,40.4297 71.6454,40.4147 L71.5474,40.4147 L70.5744,40.4147 L70.5614,43.3757 L71.0474,43.3757 L71.0324,42.2227 L71.4084,42.2227 L71.6454,42.5417 L72.2704,43.3617 L72.7424,43.3617 L71.8254,42.1947 C72.0334,42.1947 72.2424,42.0827 72.4374,41.9307 L72.4374,41.9307 Z" id="Fill-11"></path>
                    <path d="M87.1685,0.959 C86.7375,0.264 85.8075,0.473 84.6815,1.015 C83.2225,1.64 80.5955,4.559 79.9555,6.185 C79.3865,8.52 78.0515,10.674 75.8835,12.994 C73.7015,14.773 69.8235,14.064 67.5865,12.647 C67.4475,12.647 58.2615,5.489 58.2615,5.489 C54.9675,2.891 52.6745,1.765 49.9075,1.432 C49.7695,1.348 49.6445,1.209 49.6025,1.112 C49.1715,0.153 49.0885,0.236 48.7825,-5.68434189e-14 C48.4215,0.278 48.1565,0.431 47.7955,0.542 C47.6285,0.542 47.6015,0.542 47.5035,0.486 C47.2815,0.389 47.0455,0.194 46.8095,0.181 C46.5305,0.236 46.3085,0.792 45.9335,1.348 C45.9335,1.348 45.2945,1.904 44.7105,2.391 C44.4875,2.585 44.4605,2.891 44.3075,3.071 C44.0015,3.405 43.6405,3.947 43.5845,3.947 C43.4455,4.336 43.3905,4.684 43.6405,4.864 C43.6405,5.295 43.8625,5.406 43.9455,5.504 C44.0155,5.643 44.0295,5.698 44.1265,5.796 C44.2935,5.865 44.4325,5.893 44.5995,5.935 C45.4885,6.755 45.8505,6.74 46.8785,6.602 C48.6575,6.727 48.5045,7.324 48.4625,8.228 C48.3525,8.366 48.3235,8.353 48.1985,8.422 C47.4065,8.422 46.5725,8.241 45.7805,8.241 C44.0435,8.395 42.5425,8.7 42.6815,10.799 C42.7925,11.619 44.2795,12.759 45.0585,11.216 C45.1695,10.507 45.7665,10.827 46.2805,10.993 C49.3945,12.342 51.8815,13.036 53.5355,11.633 C54.0355,11.007 54.3415,11.452 54.8555,11.827 C57.3575,14.802 60.9425,16.733 66.4605,16.803 C68.2955,17.262 69.6985,18.025 70.3945,19.832 C72.1035,24.21 74.2715,27.74 77.4545,29.589 C77.1895,32.355 77.3015,34.647 80.0955,35.245 C80.8315,34.647 79.8035,33.744 80.6505,31.715 C80.5815,30.812 79.8035,30.075 79.5385,28.352 C76.2865,25.684 77.6625,24.586 77.1765,22.807 C77.1345,20.208 76.5645,18.221 75.4665,16.247 C75.3415,15.927 75.5505,15.69 75.8425,15.524 C77.6765,14.148 78.6775,12.8 79.1215,11.494 C79.8035,9.173 80.9565,7.353 82.5965,6.046 C83.9855,4.934 85.3065,4.586 86.8075,3.6 C87.7385,2.07 87.5995,1.654 87.1685,0.959" id="Fill-13"></path>
                </g>
            </g>
        </g>
    </g>
</svg>