<?xml version="1.0" encoding="UTF-8"?>
<svg width="159px" height="30px" viewBox="0 0 159 30" version="1.1" xmlns="http://www.w3.org/2000/svg" xmlns:xlink="http://www.w3.org/1999/xlink">
    <!-- Generator: Sketch 53.2 (72643) - https://sketchapp.com -->
    <title>Seeking Alpha</title>
    <desc>Created with Sketch.</desc>
    <g id="Page-1" stroke="none" stroke-width="1" fill="none" fill-rule="evenodd">
        <g id="Home-Page" transform="translate(-520.000000, -456.000000)" fill="#6E6E6E">
            <g id="Group-2" transform="translate(-201.000000, 441.000000)">
                <g id="Seeking-Alpha" transform="translate(721.328500, 15.302033)">
                    <path d="M1.235,20.4845666 C1.447,20.7755666 1.706,21.0385666 2.012,21.2735666 C2.318,21.5085666 2.674,21.7005666 3.083,21.8495666 C3.491,21.9995666 3.945,22.0735666 4.448,22.0735666 C4.965,22.0735666 5.432,21.9835666 5.848,21.8025666 C6.263,21.6225666 6.617,21.3795666 6.907,21.0735666 C7.197,20.7675666 7.421,20.4065666 7.578,19.9905666 C7.734,19.5755666 7.813,19.1315666 7.813,18.6615666 C7.813,17.9395666 7.629,17.3665666 7.259,16.9435666 C6.891,16.5195666 6.432,16.1665666 5.883,15.8835666 C5.334,15.6015666 4.742,15.3425666 4.106,15.1075666 C3.471,14.8725666 2.879,14.5785666 2.33,14.2245666 C1.781,13.8725666 1.322,13.4215666 0.953,12.8725666 C0.585,12.3225666 0.4,11.5865666 0.4,10.6605666 C0.4,10.0015666 0.517,9.40056661 0.754,8.85956661 C0.988,8.31856661 1.33,7.85156661 1.777,7.45956661 C2.224,7.06756661 2.761,6.76056661 3.388,6.54156661 C4.016,6.32256661 4.722,6.21256661 5.506,6.21256661 C6.259,6.21256661 6.911,6.30256661 7.46,6.48256661 C8.008,6.66356661 8.519,6.94156661 8.99,7.31856661 C8.848,7.58556661 8.731,7.86756661 8.636,8.16556661 C8.543,8.46356661 8.448,8.83956661 8.354,9.29556661 L8.072,9.29556661 C7.993,9.07556661 7.887,8.83656661 7.754,8.57756661 C7.621,8.31856661 7.44,8.07956661 7.213,7.85956661 C6.985,7.63956661 6.714,7.45656661 6.401,7.30656661 C6.087,7.15756661 5.711,7.08356661 5.271,7.08356661 C4.832,7.08356661 4.427,7.15356661 4.059,7.29556661 C3.691,7.43556661 3.369,7.63556661 3.094,7.89456661 C2.82,8.15356661 2.608,8.46356661 2.46,8.82456661 C2.31,9.18556661 2.236,9.57756661 2.236,10.0015666 C2.236,10.7385666 2.42,11.3185666 2.789,11.7425666 C3.157,12.1665666 3.616,12.5225666 4.166,12.8135666 C4.714,13.1035666 5.306,13.3625666 5.942,13.5895666 C6.578,13.8175666 7.17,14.0955666 7.718,14.4245666 C8.268,14.7555666 8.726,15.1775666 9.095,15.6965666 C9.464,16.2135666 9.648,16.9045666 9.648,17.7665666 C9.648,18.4885666 9.519,19.1715666 9.26,19.8135666 C9.002,20.4575666 8.625,21.0185666 8.131,21.4975666 C7.636,21.9755666 7.032,22.3435666 6.319,22.6025666 C5.604,22.8615666 4.793,22.9915666 3.882,22.9915666 C2.91,22.9915666 2.122,22.8615666 1.518,22.6025666 C0.914,22.3435666 0.408,22.0495666 -1.70530257e-13,21.7205666 C0.141,21.3595666 0.239,21.0345666 0.295,20.7435666 C0.349,20.4535666 0.4,20.0815666 0.447,19.6265666 L0.729,19.6265666 C0.855,19.9085666 1.024,20.1945666 1.235,20.4845666" id="Fill-136"></path>
                    <path d="M17.6735,12.0246666 C17.0925,12.0246666 16.6025,12.1586666 16.2025,12.4246666 C15.8025,12.6916666 15.4735,13.0246666 15.2145,13.4246666 C14.9545,13.8256666 14.7585,14.2646666 14.6255,14.7436666 C14.4915,15.2216666 14.4095,15.6716666 14.3785,16.0956666 C14.8645,16.1116666 15.3705,16.1286666 15.8965,16.1426666 C16.4215,16.1596666 16.9355,16.1666666 17.4385,16.1666666 C17.9555,16.1666666 18.4815,16.1596666 19.0145,16.1426666 C19.5475,16.1286666 20.0665,16.1116666 20.5685,16.0956666 C20.5685,15.6716666 20.5325,15.2246666 20.4615,14.7546666 C20.3915,14.2836666 20.2505,13.8446666 20.0385,13.4366666 C19.8265,13.0286666 19.5325,12.6916666 19.1555,12.4246666 C18.7785,12.1586666 18.2845,12.0246666 17.6735,12.0246666 M12.2365,17.4616666 C12.2365,15.5316666 12.6955,14.0176666 13.6135,12.9196666 C14.5315,11.8216666 15.8685,11.2716666 17.6265,11.2716666 C18.4575,11.2716666 19.1755,11.4016666 19.7795,11.6606666 C20.3835,11.9196666 20.8895,12.2636666 21.2975,12.6956666 C21.7045,13.1276666 22.0065,13.6326666 22.2035,14.2126666 C22.3995,14.7946666 22.4975,15.4136666 22.4975,16.0726666 C22.4975,16.2296666 22.4935,16.3826666 22.4855,16.5316666 C22.4775,16.6806666 22.4655,16.8336666 22.4505,16.9906666 C21.6035,16.9746666 20.7635,16.9596666 19.9325,16.9436666 C19.1005,16.9276666 18.2615,16.9206666 17.4145,16.9206666 C16.8975,16.9206666 16.3825,16.9276666 15.8725,16.9436666 C15.3625,16.9596666 14.8495,16.9746666 14.3315,16.9906666 C14.3165,17.0696666 14.3085,17.1866666 14.3085,17.3426666 L14.3085,17.6486666 C14.3085,18.2606666 14.3985,18.8346666 14.5785,19.3676666 C14.7585,19.9006666 15.0225,20.3596666 15.3665,20.7436666 C15.7115,21.1286666 16.1355,21.4346666 16.6375,21.6616666 C17.1395,21.8886666 17.7205,22.0036666 18.3795,22.0036666 C18.6935,22.0036666 19.0145,21.9606666 19.3445,21.8736666 C19.6735,21.7876666 19.9945,21.6696666 20.3095,21.5206666 C20.6225,21.3716666 20.9165,21.1946666 21.1915,20.9916666 C21.4655,20.7876666 21.7045,20.5676666 21.9085,20.3326666 L22.0275,20.4026666 L21.8855,21.5556666 C21.4145,21.9316666 20.8305,22.2536666 20.1325,22.5206666 C19.4345,22.7876666 18.7085,22.9206666 17.9555,22.9206666 C17.1085,22.9206666 16.3355,22.7916666 15.6375,22.5326666 C14.9395,22.2736666 14.3355,21.8966666 13.8255,21.4026666 C13.3165,20.9086666 12.9235,20.3246666 12.6495,19.6496666 C12.3745,18.9746666 12.2365,18.2456666 12.2365,17.4616666" id="Fill-137"></path>
                    <path d="M30.6168,12.0246666 C30.0358,12.0246666 29.5458,12.1586666 29.1448,12.4246666 C28.7458,12.6916666 28.4158,13.0246666 28.1568,13.4246666 C27.8978,13.8256666 27.7018,14.2646666 27.5688,14.7436666 C27.4348,15.2216666 27.3528,15.6716666 27.3218,16.0956666 C27.8078,16.1116666 28.3138,16.1286666 28.8398,16.1426666 C29.3648,16.1596666 29.8788,16.1666666 30.3808,16.1666666 C30.8988,16.1666666 31.4248,16.1596666 31.9578,16.1426666 C32.4908,16.1286666 33.0088,16.1116666 33.5108,16.0956666 C33.5108,15.6716666 33.4748,15.2246666 33.4048,14.7546666 C33.3348,14.2836666 33.1928,13.8446666 32.9808,13.4366666 C32.7688,13.0286666 32.4748,12.6916666 32.0988,12.4246666 C31.7218,12.1586666 31.2278,12.0246666 30.6168,12.0246666 M25.1798,17.4616666 C25.1798,15.5316666 25.6388,14.0176666 26.5568,12.9196666 C27.4738,11.8216666 28.8118,11.2716666 30.5688,11.2716666 C31.4008,11.2716666 32.1188,11.4016666 32.7218,11.6606666 C33.3258,11.9196666 33.8328,12.2636666 34.2408,12.6956666 C34.6478,13.1276666 34.9498,13.6326666 35.1458,14.2126666 C35.3428,14.7946666 35.4398,15.4136666 35.4398,16.0726666 C35.4398,16.2296666 35.4358,16.3826666 35.4288,16.5316666 C35.4208,16.6806666 35.4088,16.8336666 35.3928,16.9906666 C34.5468,16.9746666 33.7068,16.9596666 32.8758,16.9436666 C32.0438,16.9276666 31.2048,16.9206666 30.3568,16.9206666 C29.8398,16.9206666 29.3258,16.9276666 28.8158,16.9436666 C28.3058,16.9596666 27.7928,16.9746666 27.2748,16.9906666 C27.2588,17.0696666 27.2508,17.1866666 27.2508,17.3426666 L27.2508,17.6486666 C27.2508,18.2606666 27.3418,18.8346666 27.5218,19.3676666 C27.7018,19.9006666 27.9648,20.3596666 28.3098,20.7436666 C28.6548,21.1286666 29.0788,21.4346666 29.5808,21.6616666 C30.0828,21.8886666 30.6638,22.0036666 31.3218,22.0036666 C31.6368,22.0036666 31.9578,21.9606666 32.2868,21.8736666 C32.6168,21.7876666 32.9378,21.6696666 33.2518,21.5206666 C33.5658,21.3716666 33.8598,21.1946666 34.1348,20.9916666 C34.4088,20.7876666 34.6478,20.5676666 34.8518,20.3326666 L34.9698,20.4026666 L34.8288,21.5556666 C34.3578,21.9316666 33.7728,22.2536666 33.0758,22.5206666 C32.3778,22.7876666 31.6518,22.9206666 30.8988,22.9206666 C30.0518,22.9206666 29.2788,22.7916666 28.5808,22.5326666 C27.8828,22.2736666 27.2778,21.8966666 26.7678,21.4026666 C26.2588,20.9086666 25.8658,20.3246666 25.5928,19.6496666 C25.3168,18.9746666 25.1798,18.2456666 25.1798,17.4616666" id="Fill-138"></path>
                    <path d="M38.5592,9.97776661 C38.5502,9.34976661 38.5382,8.73076661 38.5232,8.11876661 C38.5072,7.50576661 38.4882,6.92176661 38.4642,6.36576661 C38.4412,5.80876661 38.4132,5.33376661 38.3812,4.94176661 C38.8212,5.01976661 39.1742,5.05876661 39.4412,5.05876661 C39.7072,5.05876661 40.0612,5.01976661 40.4992,4.94176661 C40.4682,5.33376661 40.4412,5.80876661 40.4172,6.36576661 C40.3942,6.92176661 40.3742,7.50576661 40.3592,8.11876661 C40.3432,8.73076661 40.3312,9.34976661 40.3242,9.97776661 C40.3152,10.6047666 40.3122,11.1857666 40.3122,11.7187666 L40.3122,16.0017666 C40.3122,16.2997666 40.4062,16.4497666 40.5942,16.4497666 C40.7192,16.4497666 40.8572,16.3937666 41.0062,16.2847666 C41.1552,16.1747666 41.3242,16.0487666 41.5122,15.9077666 C41.6532,15.7977666 41.8922,15.5857666 42.2302,15.2727666 C42.5672,14.9587666 42.9442,14.5937666 43.3592,14.1777666 C43.7752,13.7627666 44.2032,13.3197666 44.6422,12.8487666 C45.0802,12.3777666 45.4812,11.9307666 45.8422,11.5067666 C46.1562,11.5857666 46.4542,11.6237666 46.7372,11.6237666 C46.9092,11.6237666 47.0802,11.6137666 47.2532,11.5887666 C47.4262,11.5657666 47.6462,11.5397666 47.9132,11.5067666 C46.9242,12.3067666 45.9792,13.0957666 45.0782,13.8727666 C44.1742,14.6487666 43.3162,15.4367666 42.5002,16.2377666 C43.3952,17.3197666 44.3162,18.4027666 45.2652,19.4847666 C46.2142,20.5677666 47.1832,21.6337666 48.1722,22.6847666 C47.9052,22.6537666 47.6652,22.6377666 47.4542,22.6377666 L46.8302,22.6377666 L46.2652,22.6377666 C46.0622,22.6377666 45.8502,22.6537666 45.6302,22.6847666 C45.2852,22.2927666 44.8932,21.8337666 44.4542,21.3087666 C44.0142,20.7837666 43.5792,20.2607666 43.1472,19.7437666 C42.7162,19.2257666 42.3042,18.7397666 41.9122,18.2847666 C41.5202,17.8297666 41.1822,17.4537666 40.9002,17.1547666 C40.8532,17.0917666 40.7972,17.0377666 40.7352,16.9907666 C40.6722,16.9437666 40.6102,16.9197666 40.5472,16.9197666 C40.3902,16.9197666 40.3122,17.0137666 40.3122,17.2027666 L40.3122,18.6147666 C40.3122,19.3197666 40.3242,20.0057666 40.3472,20.6727666 C40.3712,21.3397666 40.4212,22.0107666 40.4992,22.6847666 C40.1392,22.6537666 39.7862,22.6377666 39.4412,22.6377666 C39.0962,22.6377666 38.7432,22.6537666 38.3812,22.6847666 C38.4132,22.3247666 38.4412,21.8697666 38.4642,21.3207666 C38.4882,20.7717666 38.5072,20.1907666 38.5232,19.5797666 C38.5382,18.9667666 38.5502,18.3477666 38.5592,17.7197666 C38.5662,17.0917666 38.5712,16.5117666 38.5712,15.9787666 L38.5712,11.7187666 C38.5712,11.1857666 38.5662,10.6047666 38.5592,9.97776661" id="Fill-139"></path>
                    <path d="M50.525,15.9074666 C50.525,15.2014666 50.513,14.4604666 50.49,13.6834666 C50.466,12.9074666 50.416,12.1814666 50.337,11.5074666 C50.776,11.5864666 51.129,11.6244666 51.396,11.6244666 C51.663,11.6244666 52.015,11.5864666 52.455,11.5074666 C52.377,12.1814666 52.326,12.9074666 52.301,13.6834666 C52.278,14.4604666 52.266,15.2014666 52.266,15.9074666 L52.266,18.3554666 C52.266,19.0614666 52.278,19.8024666 52.301,20.5794666 C52.326,21.3554666 52.377,22.0574666 52.455,22.6844666 C52.093,22.6534666 51.741,22.6374666 51.396,22.6374666 C51.05,22.6374666 50.698,22.6534666 50.337,22.6844666 C50.416,22.0574666 50.466,21.3554666 50.49,20.5794666 C50.513,19.8024666 50.525,19.0614666 50.525,18.3554666 L50.525,15.9074666 Z M50.196,7.41246661 C50.196,7.08346661 50.313,6.80146661 50.548,6.56546661 C50.784,6.32946661 51.066,6.21246661 51.396,6.21246661 C51.725,6.21246661 52.007,6.32946661 52.243,6.56546661 C52.478,6.80146661 52.596,7.08346661 52.596,7.41246661 C52.596,7.74246661 52.478,8.02446661 52.243,8.25946661 C52.007,8.49546661 51.725,8.61246661 51.396,8.61246661 C51.066,8.61246661 50.784,8.49546661 50.548,8.25946661 C50.313,8.02446661 50.196,7.74246661 50.196,7.41246661 L50.196,7.41246661 Z" id="Fill-140"></path>
                    <path d="M61.3268,13.4015666 C60.8718,12.7975666 60.2438,12.4955666 59.4438,12.4955666 C58.3458,12.4955666 57.5418,12.8335666 57.0318,13.5065666 C56.5218,14.1815666 56.2668,15.1305666 56.2668,16.3545666 L56.2668,18.3555666 C56.2668,19.0615666 56.2788,19.8015666 56.3028,20.5795666 C56.3258,21.3555666 56.3768,22.0575666 56.4558,22.6845666 C56.0948,22.6535666 55.7418,22.6375666 55.3958,22.6375666 C55.0518,22.6375666 54.6978,22.6535666 54.3378,22.6845666 C54.4158,22.0575666 54.4678,21.3555666 54.4908,20.5795666 C54.5148,19.8015666 54.5258,19.0615666 54.5258,18.3555666 L54.5258,15.9075666 C54.5258,15.2015666 54.5148,14.4605666 54.4908,13.6835666 C54.4678,12.9075666 54.4158,12.1815666 54.3378,11.5065666 C54.7758,11.5865666 55.1298,11.6245666 55.3958,11.6245666 C55.5218,11.6245666 55.6588,11.6135666 55.8078,11.5895666 C55.9578,11.5655666 56.1338,11.5395666 56.3378,11.5065666 C56.2908,12.1345666 56.2668,12.7625666 56.2668,13.3895666 L56.3138,13.3895666 C56.7538,12.7145666 57.2788,12.1935666 57.8908,11.8245666 C58.5028,11.4565666 59.2318,11.2715666 60.0798,11.2715666 C60.5178,11.2715666 60.9618,11.3345666 61.4088,11.4605666 C61.8558,11.5865666 62.2608,11.8005666 62.6208,12.1075666 C62.9818,12.4135666 63.2758,12.8295666 63.5038,13.3545666 C63.7308,13.8805666 63.8448,14.5505666 63.8448,15.3665666 C63.8448,16.0415666 63.8288,16.7355666 63.7978,17.4495666 C63.7658,18.1635666 63.7508,18.9205666 63.7508,19.7195666 L63.7508,21.2495666 C63.7508,21.5015666 63.7548,21.7485666 63.7628,21.9915666 C63.7698,22.2345666 63.7818,22.4655666 63.7978,22.6845666 C63.4838,22.6535666 63.1538,22.6375666 62.8088,22.6375666 C62.4798,22.6375666 62.1578,22.6535666 61.8448,22.6845666 C61.8758,21.8695666 61.9108,21.0305666 61.9508,20.1675666 C61.9898,19.3045666 62.0098,18.4185666 62.0098,17.5075666 L62.0098,16.0725666 C62.0098,14.8955666 61.7818,14.0055666 61.3268,13.4015666" id="Fill-141"></path>
                    <path d="M73.1871,14.9904666 C73.1871,14.0014666 72.9521,13.2484666 72.4811,12.7304666 C72.0101,12.2134666 71.3911,11.9544666 70.6231,11.9544666 C69.7751,11.9544666 69.1161,12.2404666 68.6451,12.8134666 C68.1751,13.3864666 67.9401,14.1504666 67.9401,15.1074666 C67.9401,16.0954666 68.1551,16.8774666 68.5861,17.4494666 C69.0181,18.0214666 69.6891,18.3074666 70.5991,18.3074666 C71.0531,18.3074666 71.4421,18.2184666 71.7631,18.0374666 C72.0841,17.8574666 72.3521,17.6134666 72.5641,17.3074666 C72.7761,17.0024666 72.9321,16.6484666 73.0351,16.2494666 C73.1361,15.8484666 73.1871,15.4284666 73.1871,14.9904666 M74.4581,25.1794666 C74.4581,24.2384666 74.1831,23.5794666 73.6341,23.2034666 C73.0851,22.8264666 72.1751,22.6374666 70.9051,22.6374666 C69.7281,22.6374666 68.8181,22.8304666 68.1751,23.2154666 C67.5321,23.5984666 67.2091,24.2934666 67.2091,25.2974666 C67.2091,25.8304666 67.3001,26.2854666 67.4801,26.6624666 C67.6611,27.0384666 67.9041,27.3444666 68.2101,27.5804666 C68.5161,27.8154666 68.8801,27.9874666 69.3041,28.0974666 C69.7281,28.2074666 70.1831,28.2624666 70.6691,28.2624666 C71.1401,28.2624666 71.6031,28.1994666 72.0581,28.0744666 C72.5121,27.9484666 72.9161,27.7604666 73.2701,27.5104666 C73.6231,27.2584666 73.9091,26.9404666 74.1281,26.5554666 C74.3481,26.1724666 74.4581,25.7134666 74.4581,25.1794666 M66.1041,15.1074666 C66.1041,14.4484666 66.2211,13.8804666 66.4571,13.4014666 C66.6921,12.9234666 67.0171,12.5274666 67.4331,12.2134666 C67.8491,11.8994666 68.3281,11.6644666 68.8691,11.5074666 C69.4101,11.3504666 69.9871,11.2714666 70.5991,11.2714666 C70.8971,11.2714666 71.1831,11.2794666 71.4581,11.2954666 C71.7321,11.3104666 72.0821,11.3344666 72.5041,11.3654666 C72.8661,11.3974666 73.1871,11.4214666 73.4701,11.4364666 C73.7521,11.4524666 73.9791,11.4604666 74.1521,11.4604666 C75.0311,11.4604666 75.6661,11.4214666 76.0581,11.3424666 C76.0421,11.4214666 76.0311,11.5034666 76.0231,11.5894666 C76.0151,11.6764666 76.0111,11.7584666 76.0111,11.8364666 C76.0111,11.9154666 76.0151,11.9974666 76.0231,12.0834666 C76.0311,12.1704666 76.0421,12.2524666 76.0581,12.3314666 C75.6031,12.3004666 75.1601,12.2634666 74.7291,12.2244666 C74.2971,12.1854666 73.8701,12.1584666 73.4461,12.1424666 L73.3991,12.1894666 C73.8851,12.4564666 74.2781,12.8684666 74.5761,13.4254666 C74.8741,13.9814666 75.0231,14.5584666 75.0231,15.1544666 C75.0231,16.3314666 74.6261,17.2534666 73.8341,17.9204666 C73.0411,18.5874666 71.9791,18.9204666 70.6461,18.9204666 C70.4261,18.9204666 70.2101,18.9124666 69.9991,18.8964666 C69.7871,18.8814666 69.5711,18.8734666 69.3511,18.8734666 C69.0691,18.8734666 68.8061,18.9744666 68.5631,19.1784666 C68.3201,19.3834666 68.1981,19.6414666 68.1981,19.9554666 C68.1981,20.3634666 68.2961,20.6614666 68.4931,20.8494666 C68.6891,21.0384666 69.0531,21.1394666 69.5861,21.1554666 C70.0261,21.1714666 70.4581,21.1824666 70.8811,21.1904666 C71.3041,21.1994666 71.7361,21.2114666 72.1751,21.2254666 C72.8971,21.2424666 73.5131,21.3284666 74.0231,21.4854666 C74.5331,21.6414666 74.9491,21.8534666 75.2701,22.1204666 C75.5911,22.3864666 75.8271,22.6924666 75.9761,23.0384666 C76.1251,23.3834666 76.2001,23.7604666 76.2001,24.1684666 C76.2001,24.7174666 76.0931,25.2734666 75.8811,25.8394666 C75.6701,26.4034666 75.3401,26.9134666 74.8931,27.3684666 C74.4461,27.8234666 73.8701,28.1994666 73.1641,28.4984666 C72.4581,28.7964666 71.6111,28.9454666 70.6231,28.9454666 C69.1001,28.9454666 67.9001,28.6424666 67.0221,28.0394666 C66.1431,27.4344666 65.7041,26.6064666 65.7041,25.5554666 C65.7041,25.1484666 65.7781,24.7714666 65.9271,24.4274666 C66.0771,24.0814666 66.2681,23.7754666 66.5041,23.5094666 C66.7401,23.2414666 67.0051,23.0304666 67.3041,22.8734666 C67.6021,22.7164666 67.9081,22.5984666 68.2221,22.5204666 L68.2221,22.4734666 C67.7351,22.3324666 67.3671,22.0964666 67.1161,21.7674666 C66.8651,21.4374666 66.7401,21.0464666 66.7401,20.5914666 C66.7401,20.3244666 66.7911,20.0814666 66.8921,19.8614666 C66.9941,19.6414666 67.1241,19.4454666 67.2811,19.2724666 C67.4371,19.1004666 67.6181,18.9594666 67.8221,18.8494666 C68.0261,18.7394666 68.2221,18.6694666 68.4101,18.6374666 L68.4101,18.5904666 C67.6881,18.2764666 67.1241,17.8344666 66.7151,17.2614666 C66.3081,16.6884666 66.1041,15.9704666 66.1041,15.1074666" id="Fill-142"></path>
                    <path d="M88.1783,15.3664666 C88.5853,15.3664666 89.0093,15.3744666 89.4493,15.3894666 C89.8883,15.4054666 90.3113,15.4134666 90.7193,15.4134666 C91.1583,15.4134666 91.5983,15.4104666 92.0373,15.4014666 C92.4763,15.3934666 92.9153,15.3824666 93.3553,15.3664666 L90.7423,9.38846661 L88.1783,15.3664666 Z M98.6033,22.6844666 C98.3833,22.6534666 98.1753,22.6374666 97.9793,22.6374666 L97.3563,22.6374666 L96.7323,22.6374666 C96.5353,22.6374666 96.3273,22.6534666 96.1093,22.6844666 C95.9983,22.3244666 95.8493,21.8884666 95.6613,21.3794666 C95.4733,20.8694666 95.2653,20.3364666 95.0373,19.7794666 C94.8103,19.2214666 94.5783,18.6574666 94.3433,18.0844666 C94.1083,17.5124666 93.8883,16.9674666 93.6853,16.4494666 C93.1823,16.4334666 92.6723,16.4224666 92.1553,16.4144666 C91.6373,16.4054666 91.1193,16.4014666 90.6023,16.4014666 C90.1153,16.4014666 89.6373,16.4054666 89.1663,16.4144666 C88.6963,16.4224666 88.2173,16.4334666 87.7313,16.4494666 C87.2293,17.6734666 86.7743,18.8384666 86.3663,19.9434666 C85.9573,21.0504666 85.6523,21.9644666 85.4483,22.6844666 C85.1813,22.6534666 84.8913,22.6374666 84.5773,22.6374666 C84.2633,22.6374666 83.9733,22.6534666 83.7063,22.6844666 C84.9773,19.9394666 86.2163,17.2104666 87.4253,14.4954666 C88.6333,11.7814666 89.8493,9.02046661 91.0733,6.21246661 L91.5203,6.21246661 C91.8963,7.12246661 92.3043,8.10646661 92.7433,9.16546661 C93.1823,10.2244666 93.6293,11.2954666 94.0843,12.3784666 C94.5393,13.4604666 94.9943,14.5354666 95.4493,15.6014666 C95.9053,16.6694666 96.3323,17.6614666 96.7323,18.5784666 C97.1323,19.4964666 97.4923,20.3164666 97.8153,21.0384666 C98.1363,21.7604666 98.3993,22.3084666 98.6033,22.6844666 L98.6033,22.6844666 Z" id="Fill-143"></path>
                    <path d="M99.9801,9.97776661 C99.9711,9.34976661 99.9591,8.73076661 99.9441,8.11876661 C99.9281,7.50576661 99.9091,6.92176661 99.8851,6.36576661 C99.8621,5.80876661 99.8341,5.33376661 99.8031,4.94176661 C100.2421,5.01976661 100.5951,5.05876661 100.8621,5.05876661 C101.1281,5.05876661 101.4821,5.01976661 101.9211,4.94176661 C101.8891,5.33376661 101.8631,5.80876661 101.8381,6.36576661 C101.8151,6.92176661 101.7951,7.50576661 101.7801,8.11876661 C101.7641,8.73076661 101.7521,9.34976661 101.7451,9.97776661 C101.7371,10.6047666 101.7331,11.1857666 101.7331,11.7187666 L101.7331,15.9787666 C101.7331,16.5117666 101.7371,17.0917666 101.7451,17.7197666 C101.7521,18.3477666 101.7641,18.9667666 101.7801,19.5797666 C101.7951,20.1907666 101.8151,20.7717666 101.8381,21.3207666 C101.8631,21.8697666 101.8891,22.3247666 101.9211,22.6847666 C101.5601,22.6537666 101.2081,22.6377666 100.8621,22.6377666 C100.5171,22.6377666 100.1641,22.6537666 99.8031,22.6847666 C99.8341,22.3247666 99.8621,21.8697666 99.8851,21.3207666 C99.9091,20.7717666 99.9281,20.1907666 99.9441,19.5797666 C99.9591,18.9667666 99.9711,18.3477666 99.9801,17.7197666 C99.9871,17.0917666 99.9921,16.5117666 99.9921,15.9787666 L99.9921,11.7187666 C99.9921,11.1857666 99.9871,10.6047666 99.9801,9.97776661" id="Fill-144"></path>
                    <path d="M112.276,17.0373666 C112.276,16.0963666 112.177,15.3193666 111.981,14.7073666 C111.785,14.0963666 111.535,13.6053666 111.228,13.2363666 C110.922,12.8683666 110.573,12.6133666 110.181,12.4723666 C109.789,12.3313666 109.405,12.2603666 109.028,12.2603666 C108.401,12.2603666 107.863,12.3933666 107.416,12.6603666 C106.969,12.9273666 106.604,13.2833666 106.322,13.7303666 C106.04,14.1783666 105.836,14.7043666 105.71,15.3083666 C105.585,15.9113666 105.522,16.5513666 105.522,17.2253666 C105.522,20.4883666 106.667,22.1203666 108.958,22.1203666 C109.522,22.1203666 110.012,21.9913666 110.428,21.7313666 C110.843,21.4733666 111.189,21.1123666 111.464,20.6493666 C111.738,20.1863666 111.942,19.6453666 112.076,19.0253666 C112.209,18.4063666 112.276,17.7433666 112.276,17.0373666 L112.276,17.0373666 Z M103.78,18.3553666 C103.78,17.8213666 103.776,17.2413666 103.768,16.6133666 C103.76,15.9863666 103.749,15.3623666 103.733,14.7433666 C103.717,14.1233666 103.698,13.5313666 103.674,12.9663666 C103.651,12.4013666 103.624,11.9153666 103.592,11.5073666 C104.031,11.5863666 104.384,11.6243666 104.651,11.6243666 C104.918,11.6243666 105.271,11.5863666 105.71,11.5073666 C105.647,11.9153666 105.6,12.3073666 105.569,12.6833666 C105.537,13.0593666 105.522,13.4363666 105.522,13.8133666 L105.569,13.8133666 C105.678,13.5623666 105.836,13.2923666 106.04,13.0013666 C106.243,12.7113666 106.506,12.4363666 106.828,12.1783666 C107.149,11.9193666 107.538,11.7033666 107.993,11.5303666 C108.448,11.3583666 108.965,11.2713666 109.546,11.2713666 C110.142,11.2713666 110.73,11.3863666 111.311,11.6133666 C111.891,11.8413666 112.405,12.1893666 112.852,12.6603666 C113.299,13.1313666 113.66,13.7303666 113.935,14.4603666 C114.209,15.1893666 114.346,16.0573666 114.346,17.0603666 C114.346,18.0643666 114.197,18.9353666 113.9,19.6733666 C113.601,20.4103666 113.213,21.0223666 112.735,21.5093666 C112.255,21.9953666 111.711,22.3513666 111.099,22.5793666 C110.487,22.8073666 109.876,22.9203666 109.263,22.9203666 C107.538,22.9203666 106.306,22.1753666 105.569,20.6843666 L105.522,20.6843666 L105.522,22.1673666 C105.522,22.6693666 105.525,23.2293666 105.534,23.8493666 C105.542,24.4703666 105.553,25.0863666 105.569,25.6973666 C105.585,26.3093666 105.604,26.8933666 105.628,27.4503666 C105.651,28.0073666 105.678,28.4813666 105.71,28.8743666 C105.271,28.7963666 104.918,28.7573666 104.651,28.7573666 C104.384,28.7573666 104.031,28.7963666 103.592,28.8743666 C103.624,28.4813666 103.651,28.0073666 103.674,27.4503666 C103.698,26.8933666 103.717,26.3093666 103.733,25.6973666 C103.749,25.0863666 103.76,24.4703666 103.768,23.8493666 C103.776,23.2293666 103.78,22.6693666 103.78,22.1673666 L103.78,18.3553666 Z" id="Fill-145"></path>
                    <path d="M117.0651,9.97776661 C117.0561,9.34976661 117.0441,8.73076661 117.0291,8.11876661 C117.0131,7.50576661 116.9941,6.92176661 116.9701,6.36576661 C116.9471,5.80876661 116.9191,5.33376661 116.8881,4.94176661 C117.3271,5.01976661 117.6801,5.05876661 117.9471,5.05876661 C118.2131,5.05876661 118.5671,5.01976661 119.0061,4.94176661 C118.9741,5.33376661 118.9471,5.80376661 118.9231,6.35376661 C118.9001,6.90276661 118.8801,7.47876661 118.8651,8.08276661 C118.8491,8.68676661 118.8371,9.29476661 118.8301,9.90676661 C118.8221,10.5187666 118.8181,11.0827666 118.8181,11.6017666 L118.8181,13.3897666 L118.8651,13.3897666 C119.3031,12.7147666 119.8301,12.1937666 120.4421,11.8247666 C121.0531,11.4567666 121.7831,11.2717666 122.6301,11.2717666 C123.0691,11.2717666 123.5121,11.3337666 123.9601,11.4597666 C124.4071,11.5857666 124.8101,11.8007666 125.1711,12.1077666 C125.5331,12.4137666 125.8271,12.8297666 126.0541,13.3547666 C126.2821,13.8797666 126.3951,14.5507666 126.3951,15.3667666 C126.3951,16.0407666 126.3791,16.7357666 126.3481,17.4497666 C126.3171,18.1637666 126.3011,18.9197666 126.3011,19.7197666 L126.3011,21.2487666 C126.3011,21.5007666 126.3051,21.7487666 126.3131,21.9917666 C126.3211,22.2347666 126.3331,22.4657666 126.3481,22.6847666 C126.0341,22.6537666 125.7051,22.6377666 125.3601,22.6377666 C125.0311,22.6377666 124.7091,22.6537666 124.3951,22.6847666 C124.4261,21.8697666 124.4611,21.0307666 124.5011,20.1667666 C124.5401,19.3047666 124.5601,18.4177666 124.5601,17.5077666 L124.5601,16.0727666 C124.5601,14.8957666 124.3331,14.0057666 123.8771,13.4017666 C123.4221,12.7977666 122.7941,12.4957666 121.9951,12.4957666 C120.8961,12.4957666 120.0921,12.8327666 119.5831,13.5067666 C119.0731,14.1817666 118.8181,15.1307666 118.8181,16.3547666 C118.8181,16.7937666 118.8221,17.3037666 118.8301,17.8837666 C118.8371,18.4647666 118.8491,19.0487666 118.8651,19.6377666 C118.8801,20.2257666 118.9001,20.7947666 118.9231,21.3437666 C118.9471,21.8927666 118.9741,22.3397666 119.0061,22.6847666 C118.6451,22.6537666 118.2921,22.6377666 117.9471,22.6377666 C117.6021,22.6377666 117.2491,22.6537666 116.8881,22.6847666 C116.9191,22.3247666 116.9471,21.8697666 116.9701,21.3207666 C116.9941,20.7717666 117.0131,20.1907666 117.0291,19.5797666 C117.0441,18.9667666 117.0561,18.3477666 117.0651,17.7197666 C117.0721,17.0917666 117.0771,16.5117666 117.0771,15.9787666 L117.0771,11.7187666 C117.0771,11.1857666 117.0721,10.6047666 117.0651,9.97776661" id="Fill-146"></path>
                    <path d="M135.0787,16.8254666 C134.8117,16.9204666 134.5027,16.9984666 134.1487,17.0604666 C133.7967,17.1234666 133.4397,17.1904666 133.0787,17.2614666 C132.7177,17.3314666 132.3607,17.4224666 132.0087,17.5314666 C131.6547,17.6414666 131.3417,17.7904666 131.0667,17.9784666 C130.7927,18.1674666 130.5727,18.4024666 130.4077,18.6844666 C130.2427,18.9674666 130.1607,19.3284666 130.1607,19.7664666 C130.1607,20.5054666 130.3727,21.0614666 130.7967,21.4374666 C131.2197,21.8144666 131.6897,22.0034666 132.2077,22.0034666 C132.8047,22.0034666 133.3497,21.8384666 133.8437,21.5094666 C134.3377,21.1794666 134.7187,20.7954666 134.9847,20.3554666 L135.0787,16.8254666 Z M129.2667,12.6374666 C129.9727,12.1034666 130.6237,11.7424666 131.2197,11.5544666 C131.8157,11.3654666 132.4277,11.2714666 133.0557,11.2714666 C133.6197,11.2714666 134.1377,11.3534666 134.6077,11.5184666 C135.0787,11.6834666 135.4787,11.9194666 135.8077,12.2244666 C136.1387,12.5304666 136.3967,12.8994666 136.5857,13.3314666 C136.7737,13.7624666 136.8677,14.2364666 136.8677,14.7554666 C136.8677,15.6484666 136.8517,16.5394666 136.8207,17.4264666 C136.7887,18.3124666 136.7737,19.2494666 136.7737,20.2374666 C136.7737,20.4264666 136.7767,20.6264666 136.7847,20.8384666 C136.7927,21.0504666 136.8277,21.2374666 136.8907,21.4024666 C136.9537,21.5674666 137.0447,21.7054666 137.1617,21.8144666 C137.2797,21.9244666 137.4557,21.9794666 137.6907,21.9794666 C137.7687,21.9794666 137.8517,21.9754666 137.9377,21.9674666 C138.0237,21.9604666 138.1067,21.9314666 138.1847,21.8854666 L138.1847,22.4024666 C138.0127,22.4814666 137.7977,22.5444666 137.5387,22.5914666 C137.2797,22.6374666 136.9927,22.6614666 136.6797,22.6614666 C136.1777,22.6614666 135.7927,22.5324666 135.5257,22.2734666 C135.2597,22.0144666 135.1027,21.6804666 135.0557,21.2734666 C134.4907,21.8384666 133.9337,22.2544666 133.3847,22.5204666 C132.8357,22.7874666 132.1607,22.9204666 131.3607,22.9204666 C130.9687,22.9204666 130.5847,22.8654666 130.2077,22.7564666 C129.8317,22.6454666 129.4977,22.4664666 129.2077,22.2154666 C128.9177,21.9644666 128.6817,21.6614666 128.5017,21.3084666 C128.3207,20.9554666 128.2307,20.5524666 128.2307,20.0964666 C128.2307,19.1554666 128.5247,18.4264666 129.1137,17.9084666 C129.7017,17.3894666 130.5137,17.0454666 131.5497,16.8724666 C132.3957,16.7314666 133.0587,16.6094666 133.5377,16.5084666 C134.0167,16.4054666 134.3687,16.3004666 134.5967,16.1904666 C134.8237,16.0804666 134.9617,15.9514666 135.0087,15.8024666 C135.0557,15.6524666 135.0787,15.4604666 135.0787,15.2244666 C135.0787,14.8334666 135.0317,14.4574666 134.9377,14.0964666 C134.8447,13.7354666 134.6947,13.4214666 134.4907,13.1544666 C134.2867,12.8874666 134.0197,12.6724666 133.6907,12.5074666 C133.3607,12.3424666 132.9617,12.2604666 132.4907,12.2604666 C131.8627,12.2604666 131.2787,12.4014666 130.7367,12.6834666 C130.1957,12.9664666 129.7917,13.3584666 129.5247,13.8604666 L129.2667,13.8604666 L129.2667,12.6374666 Z" id="Fill-147"></path>
                    <path d="M152.6422,6.96796661 C152.6062,6.95996661 152.5702,6.95296661 152.5332,6.94596661 C152.5152,6.58096661 152.5122,6.21696661 152.4772,5.85496661 C152.3332,4.37996661 151.8692,3.03796661 150.7832,1.97796661 C149.5652,0.786966614 147.6752,0.815966614 146.5622,2.10396661 C146.1442,2.58696661 145.8112,3.19496661 145.6022,3.80096661 C145.0072,5.52696661 145.0442,7.30196661 145.4572,9.05996661 C145.6842,10.0249666 146.1552,10.8899666 146.8792,11.5899666 C147.2882,11.9849666 147.7502,12.3089666 148.3362,12.3599666 C150.1632,12.5159666 151.4972,11.7019666 152.0502,9.95496661 C152.3542,8.99296661 152.4522,7.96596661 152.6422,6.96796661 M158.2542,9.88196661 C158.2542,10.6629666 158.3562,11.4149666 158.2332,12.1269666 C157.9902,13.5299666 156.3482,14.0659666 155.2172,13.1589666 C154.6232,12.6829666 154.2482,12.0439666 153.9852,11.3369666 C153.9182,11.1579666 153.8562,10.9789666 153.7702,10.7409666 C153.3632,11.1289666 152.9892,11.4819666 152.6192,11.8389666 C151.5612,12.8629666 150.2952,13.4849666 148.8302,13.5299666 C146.4482,13.6049666 144.3232,12.4589666 143.4662,10.0709666 C142.4072,7.11596661 142.7172,4.29896661 144.7762,1.86396661 C145.9982,0.418966614 147.6472,-0.266033386 149.5882,0.0949666137 C150.5992,0.283966614 151.4552,0.811966614 152.0712,1.63296661 C152.6012,2.34196661 153.0372,3.12196661 153.5282,3.89196661 C153.6182,3.76796661 153.7702,3.58996661 153.8862,3.39096661 C154.3962,2.52196661 154.9192,1.65896661 155.3862,0.766966614 C155.5852,0.386966614 155.8252,0.226966614 156.2352,0.264966614 C156.4242,0.281966614 156.6162,0.267966614 156.8862,0.267966614 C156.6952,0.725966614 156.5372,1.10896661 156.3752,1.48896661 C155.6272,3.25696661 154.9442,5.04596661 154.6302,6.95196661 C154.4472,8.06696661 154.3952,9.18196661 154.7562,10.2769666 C154.9722,10.9299666 155.3302,11.4929666 155.8712,11.9219666 C156.4212,12.3579666 156.9502,12.2469666 157.2342,11.6089666 C157.3852,11.2689666 157.4612,10.8909666 157.5402,10.5239666 C157.6112,10.1989666 157.7192,9.93896661 158.2542,9.88196661" id="Fill-148"></path>
                </g>
            </g>
        </g>
    </g>
</svg>