<?xml version="1.0" encoding="UTF-8"?>
<svg width="122px" height="28px" viewBox="0 0 122 28" version="1.1" xmlns="http://www.w3.org/2000/svg" xmlns:xlink="http://www.w3.org/1999/xlink">
    <!-- Generator: Sketch 53.2 (72643) - https://sketchapp.com -->
    <title>Shiekh</title>
    <desc>Created with Sketch.</desc>
    <g id="Page-1" stroke="none" stroke-width="1" fill="none" fill-rule="evenodd">
        <g id="Home-Page" transform="translate(-935.000000, -459.000000)" fill="#6E6E6E">
            <g id="Group-2" transform="translate(-201.000000, 441.000000)">
                <g id="Shiekh" transform="translate(1136.040400, 18.091920)">
                    <path d="M0.048,26.9253805 L0.048,21.0593805 C2.996,21.0593805 5.835,21.0623805 8.674,21.0583805 C13.974,21.0513805 19.274,21.0433805 24.574,21.0293805 C26.375,21.0243805 27.125,20.3983805 27.122,18.9433805 C27.119,17.5213805 26.297,16.7303805 24.588,16.7193805 C19.229,16.6853805 13.87,16.7153805 8.512,16.7003805 C3.506,16.6883805 1.56319402e-13,13.2053805 1.56319402e-13,8.27738046 C1.56319402e-13,3.53238046 3.571,0.0103804557 8.492,0.00838045572 C44.079,-0.00461954428 79.667,0.000380455722 115.254,0.00438045572 C115.708,0.00438045572 116.162,0.0513804557 116.707,0.0823804557 L116.707,5.95438046 L114.533,5.95438046 L10.566,5.95438046 C9.984,5.95438046 9.401,5.94438046 8.819,5.96838046 C7.22,6.03538046 6.548,7.03838046 6.49,8.48138046 C6.429,10.0463805 7.411,10.6403805 8.839,10.6433805 C14.197,10.6523805 19.556,10.6453805 24.915,10.6523805 C29.99,10.6583805 33.268,14.1543805 33.274,19.5563805 C33.278,23.7793805 29.613,27.1213805 24.913,27.1113805 C17.051,27.0923805 9.189,27.0353805 1.327,26.9903805 C0.93,26.9873805 0.534,26.9503805 0.048,26.9253805" id="Fill-149"></path>
                    <path d="M67.006,16.3901805 C69.768,15.4421805 72.358,14.5531805 74.948,13.6631805 C74.922,13.5451805 74.897,13.4281805 74.871,13.3101805 C72.288,13.0001805 69.706,12.6911805 67.006,12.3681805 L67.006,16.3901805 Z M67.073,22.4051805 L80.456,22.4051805 L80.456,26.9241805 L62.168,26.9241805 L62.168,7.76518046 C68.334,8.47618046 74.433,9.17918046 80.739,9.90718046 C80.739,11.8131805 80.831,13.6671805 80.673,15.5011805 C80.635,15.9471805 79.843,16.5071805 79.289,16.6981805 C75.554,17.9851805 71.794,19.1991805 68.032,20.4071805 C67.078,20.7131805 66.449,21.1201805 67.073,22.4051805 L67.073,22.4051805 Z" id="Fill-150"></path>
                    <path d="M38.7204,26.9048805 L34.2594,26.9048805 L34.2594,7.83688046 L38.7994,7.83688046 L38.7994,14.9948805 L54.8464,14.9948805 L54.8464,27.0008805 L50.1424,27.0008805 L50.1424,19.7798805 C46.5434,19.7798805 43.1234,19.7428805 39.7074,19.8378805 C39.3674,19.8458805 38.7914,20.6408805 38.7654,21.0948805 C38.6584,22.9988805 38.7204,24.9118805 38.7204,26.9048805" id="Fill-151"></path>
                    <path d="M99.048,26.9067805 L94.332,26.9067805 C94.332,25.0737805 94.293,23.2907805 94.346,21.5107805 C94.381,20.3157805 93.907,19.8187805 92.702,19.8507805 C90.796,19.9017805 88.887,19.8647805 86.816,19.8647805 L86.816,26.8907805 L82.305,26.8907805 L82.305,7.78678046 L86.703,7.78678046 L86.703,14.9687805 C88.4,14.9687805 89.911,15.0347805 91.409,14.9267805 C91.841,14.8937805 92.278,14.3967805 92.632,14.0347805 C92.811,13.8507805 92.806,13.4907805 92.89,13.2127805 C94.053,9.38778046 94.053,9.38778046 98.32,9.92578046 C97.938,11.6097805 97.474,13.2677805 97.222,14.9577805 C97.122,15.6307805 97.435,16.3927805 97.66,17.0817805 C98.085,18.3807805 98.832,19.6267805 98.989,20.9487805 C99.219,22.8827805 99.048,24.8637805 99.048,26.9067805" id="Fill-152"></path>
                    <polygon id="Fill-153" points="104.9396 15.0689805 121.0516 15.0689805 121.0516 26.9679805 116.4696 26.9679805 116.4696 19.9039805 105.0176 19.9039805 105.0176 26.9069805 100.5306 26.9069805 100.5306 7.77898046 104.9396 7.77898046"></polygon>
                    <polygon id="Fill-154" points="56.0896 26.9040805 60.4426 26.9040805 60.4426 7.73708046 56.0896 7.73708046"></polygon>
                </g>
            </g>
        </g>
    </g>
</svg>