<?xml version="1.0" encoding="UTF-8"?>
<svg width="186px" height="32px" viewBox="0 0 186 32" version="1.1" xmlns="http://www.w3.org/2000/svg" xmlns:xlink="http://www.w3.org/1999/xlink">
    <!-- Generator: Sketch 53.2 (72643) - https://sketchapp.com -->
    <title>Skyscanner</title>
    <desc>Created with Sketch.</desc>
    <defs>
        <polygon id="path-1" points="0 0.9898 47.0037 0.9898 47.0037 29.3658 0 29.3658"></polygon>
    </defs>
    <g id="Page-1" stroke="none" stroke-width="1" fill="none" fill-rule="evenodd">
        <g id="Home-Page" transform="translate(-711.000000, -456.000000)">
            <g id="Group-2" transform="translate(-201.000000, 441.000000)">
                <g id="Skyscanner" transform="translate(912.000000, 14.000000)">
                    <path d="M62.0869,13.4763 C62.0029,13.7623 61.6879,13.9063 61.4099,13.7993 C60.5529,13.4683 59.5839,13.2323 58.6769,13.2323 C57.1159,13.2323 55.6459,13.7023 55.6459,15.2643 C55.6459,16.1083 56.1149,16.5453 57.6159,17.0153 L58.7089,17.3583 C60.8969,18.0433 61.8339,19.0453 61.8339,20.9813 C61.8339,24.3243 59.4899,26.6063 55.2419,26.6063 C53.5729,26.6063 52.1449,26.3433 50.9339,25.9213 C50.6399,25.8193 50.4989,25.4923 50.5859,25.1923 L51.0859,23.4583 C51.1689,23.1703 51.4899,23.0353 51.7669,23.1463 C52.8609,23.5883 54.0739,23.8883 55.1479,23.8883 C57.0549,23.8883 58.3969,23.2313 58.3969,21.7003 C58.3969,20.7943 57.7719,20.4513 56.3659,20.0123 L55.1779,19.6383 C53.0839,18.9513 52.1469,17.7013 52.1469,15.7013 C52.1469,12.2953 54.9909,10.4543 58.7409,10.4543 C59.8679,10.4543 61.1579,10.7053 62.2319,11.0753 C62.5279,11.1753 62.6709,11.5043 62.5809,11.8043 L62.0869,13.4763 Z" id="Fill-17" fill="#6E6E6E"></path>
                    <path d="M69.4707,4.5573 C69.7617,4.5573 69.9797,4.8233 69.9247,5.1093 L67.6257,16.9943 C69.7927,15.4123 71.6857,13.5553 73.3567,11.4003 C73.5697,11.1233 73.8987,10.9623 74.2477,10.9623 L76.7487,10.9623 C76.9897,10.9623 77.1227,11.2353 76.9857,11.4313 C75.3417,13.7503 73.4597,15.8903 71.4687,17.6183 L74.6367,25.5943 C74.7357,25.8463 74.5507,26.1193 74.2817,26.1193 L71.6237,26.1193 C71.2877,26.1193 70.9857,25.9073 70.8677,25.5913 L68.6877,19.6503 C68.0317,20.0873 67.4067,20.4623 66.8757,20.7443 L65.9497,25.5673 C65.8877,25.8843 65.6067,26.1193 65.2837,26.1193 L62.9997,26.1193 C62.7097,26.1193 62.4907,25.8523 62.5467,25.5673 L66.5187,5.1093 C66.5797,4.7883 66.8597,4.5573 67.1877,4.5573 L69.4707,4.5573 Z" id="Fill-19" fill="#6E6E6E"></path>
                    <path d="M81.1582,10.9626 C81.4512,10.9626 81.6682,11.2286 81.6142,11.5166 L80.0642,19.4936 C79.9392,20.0876 79.8142,20.8366 79.8142,21.5566 C79.8142,22.4926 80.3462,23.1186 81.5952,23.1186 C82.8152,23.1186 84.2502,22.5876 85.3132,21.5876 L87.2992,11.5146 C87.3622,11.1946 87.6432,10.9626 87.9682,10.9626 L90.2522,10.9626 C90.5422,10.9626 90.7612,11.2286 90.7042,11.5166 L88.6572,22.0256 C88.4072,23.2426 88.1262,24.6176 87.8762,25.7116 C86.6882,30.6496 84.4392,32.8356 79.9392,32.8356 C78.9492,32.8356 77.9612,32.7116 77.1042,32.4816 C76.7882,32.3956 76.5892,32.0776 76.6662,31.7586 L77.0572,30.1616 C77.1272,29.8696 77.4182,29.6846 77.7102,29.7546 C78.3582,29.9086 79.1002,30.0236 79.7832,30.0236 C82.4412,30.0236 84.0012,28.8986 84.5632,25.8366 L84.7832,24.6796 C83.6272,25.6796 81.9082,26.3366 80.2832,26.3366 C77.6582,26.3366 76.2522,25.0246 76.2522,22.9306 C76.2522,21.6806 76.5022,20.3056 76.7832,18.8696 L78.2072,11.5166 C78.2702,11.1946 78.5512,10.9626 78.8762,10.9626 L81.1582,10.9626 Z" id="Fill-21" fill="#6E6E6E"></path>
                    <path d="M101.7744,13.488 C101.6894,13.773 101.3764,13.918 101.0974,13.81 C100.2414,13.48 99.2704,13.244 98.3644,13.244 C96.8034,13.244 95.3354,13.714 95.3354,15.275 C95.3354,16.119 95.8024,16.556 97.3024,17.026 L98.3964,17.369 C100.5834,18.055 101.5214,19.056 101.5214,20.993 C101.5214,24.335 99.1774,26.617 94.9294,26.617 C93.2624,26.617 91.8314,26.354 90.6224,25.933 C90.3274,25.831 90.1864,25.504 90.2724,25.204 L90.7734,23.469 C90.8564,23.182 91.1774,23.047 91.4554,23.158 C92.5474,23.599 93.7604,23.899 94.8344,23.899 C96.7404,23.899 98.0844,23.243 98.0844,21.712 C98.0844,20.805 97.4604,20.463 96.0544,20.024 L94.8644,19.65 C92.7724,18.963 91.8354,17.713 91.8354,15.713 C91.8354,12.307 94.6784,10.466 98.4294,10.466 C99.5574,10.466 100.8444,10.717 101.9204,11.087 C102.2134,11.187 102.3574,11.516 102.2674,11.815 L101.7744,13.488 Z" id="Fill-23" fill="#6E6E6E"></path>
                    <path d="M115.1099,13.8288 C115.0329,14.1058 114.7219,14.2348 114.4599,14.1148 C113.6369,13.7398 112.7059,13.5248 111.6449,13.5248 C108.3339,13.5248 106.3319,16.3698 106.3319,19.9928 C106.3639,22.1498 107.1459,23.5878 109.5829,23.6178 C110.6629,23.6438 111.7889,23.4268 112.8069,23.0758 C113.0559,22.9908 113.3289,23.1658 113.2989,23.4268 L113.0839,25.2468 C113.0439,25.5998 112.8059,25.8988 112.4719,26.0148 C111.3389,26.4088 110.1049,26.6168 108.7079,26.6168 C104.6459,26.6168 102.7399,24.3058 102.7399,20.4918 C102.7399,15.0888 105.8019,10.4658 111.6749,10.4658 C113.0999,10.4658 114.3019,10.7308 115.2799,11.1508 C115.5849,11.2828 115.7369,11.6228 115.6469,11.9408 L115.1099,13.8288 Z" id="Fill-25" fill="#6E6E6E"></path>
                    <path d="M123.5806,18.8064 C120.4256,18.8064 118.1126,19.8364 118.1126,22.1184 C118.1126,23.1184 118.7066,23.7434 120.0506,23.7434 C121.3306,23.7434 122.6756,23.0864 123.5176,22.2114 L124.2036,18.8064 L123.5806,18.8064 Z M117.5996,12.0874 C117.6066,11.7474 117.8236,11.4454 118.1456,11.3354 C119.6426,10.8354 121.5316,10.4654 123.1746,10.4654 C126.2986,10.4654 128.3296,11.4024 128.3296,14.1194 C128.3296,14.6824 128.2356,15.3694 128.0806,16.1184 L126.8626,22.5244 C126.6736,23.4854 126.7676,24.0234 127.1826,24.2334 C127.4376,24.3614 127.6506,24.6074 127.5936,24.8864 L127.4096,25.7854 C127.3386,26.1334 127.0766,26.4194 126.7296,26.4934 C126.3756,26.5684 125.9816,26.6174 125.6106,26.6174 C124.2036,26.6174 123.5176,25.9604 123.4246,24.8044 L123.3306,24.8044 C122.2996,25.9294 120.7376,26.6174 118.8926,26.6174 C116.2376,26.6174 114.5196,25.2744 114.5196,22.5874 C114.5196,18.9624 117.3936,16.3694 123.8306,16.3694 L124.6756,16.3694 C124.7676,15.9004 124.8296,15.4314 124.8296,15.0884 C124.8296,13.8384 124.2036,13.2764 122.2366,13.2764 C120.9846,13.2764 119.4846,13.5744 118.0676,14.0564 C117.8156,14.1444 117.5556,13.9504 117.5616,13.6844 L117.5996,12.0874 Z" id="Fill-27" fill="#6E6E6E"></path>
                    <path d="M134.2041,10.9626 C134.5061,10.9626 134.7421,11.2226 134.7121,11.5246 L134.6101,12.5886 L134.6411,12.5886 C136.1711,11.3076 138.1411,10.4656 140.0461,10.4656 C142.4211,10.4656 143.9821,11.8386 143.9821,14.0266 C143.9821,15.0886 143.8281,15.9636 143.6411,16.9626 L141.9961,25.5666 C141.9331,25.8846 141.6531,26.1186 141.3291,26.1186 L139.0451,26.1186 C138.7551,26.1186 138.5341,25.8526 138.5931,25.5666 L140.1081,17.7126 C140.2661,16.9326 140.3911,16.0556 140.3911,15.5256 C140.3911,14.3696 139.7661,13.7766 138.4531,13.7766 C137.0171,13.7766 135.3911,14.5256 134.2351,15.6186 L132.3401,25.5666 C132.2801,25.8846 131.9991,26.1186 131.6751,26.1186 L129.3921,26.1186 C129.0991,26.1186 128.8791,25.8526 128.9361,25.5666 L131.6301,11.5166 C131.6911,11.1946 131.9711,10.9626 132.2951,10.9626 L134.2041,10.9626 Z" id="Fill-29" fill="#6E6E6E"></path>
                    <path d="M149.6719,10.9626 C149.9739,10.9626 150.2069,11.2226 150.1799,11.5246 L150.0769,12.5886 L150.1079,12.5886 C151.6389,11.3076 153.6069,10.4656 155.5119,10.4656 C157.8879,10.4656 159.4499,11.8386 159.4499,14.0266 C159.4499,15.0886 159.2929,15.9636 159.1069,16.9626 L157.4629,25.5666 C157.4009,25.8846 157.1199,26.1186 156.7959,26.1186 L154.5109,26.1186 C154.2189,26.1186 154.0029,25.8526 154.0559,25.5666 L155.5759,17.7126 C155.7319,16.9326 155.8579,16.0556 155.8579,15.5256 C155.8579,14.3696 155.2319,13.7766 153.9189,13.7766 C152.4829,13.7766 150.8589,14.5256 149.7009,15.6186 L147.8079,25.5666 C147.7479,25.8846 147.4649,26.1186 147.1409,26.1186 L144.8569,26.1186 C144.5649,26.1186 144.3459,25.8526 144.4009,25.5666 L147.0959,11.5166 C147.1559,11.1946 147.4379,10.9626 147.7639,10.9626 L149.6719,10.9626 Z" id="Fill-31" fill="#6E6E6E"></path>
                    <path d="M170.8535,17.5251 C170.9815,17.0551 171.1035,16.3701 171.1035,15.7131 C171.1035,14.3061 170.4795,13.3071 168.8865,13.3071 C166.5745,13.3071 165.1675,14.9941 164.6675,17.5251 L170.8535,17.5251 Z M164.2935,19.9931 C164.2305,20.4631 164.2615,20.9931 164.3255,21.3681 C164.6065,22.8991 165.7925,23.6491 167.7925,23.6491 C169.1875,23.6491 170.6525,23.4341 171.9395,23.0251 C172.1875,22.9461 172.4435,23.1361 172.4115,23.3941 L172.2025,25.1241 C172.1625,25.4621 171.9475,25.7611 171.6245,25.8741 C170.2085,26.3691 168.6085,26.6171 167.1045,26.6171 C162.7935,26.6171 160.7005,24.7741 160.7005,20.5881 C160.7005,16.9631 161.8865,13.6211 164.4505,11.8381 C165.7305,10.9321 167.3245,10.4651 169.3235,10.4651 C172.9485,10.4651 174.5415,12.5251 174.5415,15.5891 C174.5415,16.6441 174.4165,18.0491 174.1245,19.4701 C174.0605,19.7851 173.7695,19.9931 173.4495,19.9931 L164.2935,19.9931 Z" id="Fill-33" fill="#6E6E6E"></path>
                    <path d="M180.1372,10.9626 C180.4392,10.9626 180.6792,11.2206 180.6582,11.5246 L180.5722,12.7446 L180.6332,12.7446 C181.7902,11.3386 183.4792,10.6196 185.0712,10.6196 C185.2472,10.6196 185.3972,10.6246 185.5252,10.6336 C185.8242,10.6516 185.9922,10.9656 185.9022,11.2496 L185.2702,13.2716 C185.1702,13.5946 184.8562,13.7996 184.5192,13.8136 C182.9402,13.8816 181.4152,14.3326 180.3852,15.0576 L178.3662,25.5666 C178.3042,25.8846 178.0242,26.1186 177.6992,26.1186 L175.4152,26.1186 C175.1242,26.1186 174.9042,25.8526 174.9602,25.5666 L177.6542,11.5166 C177.7172,11.1946 177.9952,10.9626 178.3202,10.9626 L180.1372,10.9626 Z" id="Fill-35" fill="#6E6E6E"></path>
                    <g id="Group-39">
                        <mask id="mask-2" fill="white">
                            <use xlink:href="#path-1"></use>
                        </mask>
                        <g id="Clip-38"></g>
                        <path d="M15.1487,29.3028 C15.1487,16.1728 25.2177,5.3948 38.0557,4.2678 C36.0587,2.2458 33.2867,0.9898 30.2207,0.9898 C24.5757,0.9898 19.9237,5.2358 19.2807,10.7078 C18.3227,10.1068 17.1897,9.7578 15.9747,9.7578 C12.5347,9.7578 9.4017,13.1998 9.7937,16.7498 C8.8657,16.2628 7.8097,15.9858 6.6887,15.9858 C2.9937,15.9858 -0.0003,18.9808 -0.0003,22.6768 C-0.0003,26.0428 2.4857,28.8278 5.7217,29.2958 C5.9757,29.3408 6.2357,29.3658 6.5027,29.3658 L15.1497,29.3658 C15.1497,29.3448 15.1477,29.3238 15.1487,29.3028 M45.3757,24.2608 C44.0227,22.9068 42.2647,22.2178 40.4937,22.1798 L40.4937,22.1808 C40.4307,22.1788 40.3687,22.1798 40.3067,22.1798 C40.2447,22.1798 40.1817,22.1788 40.1187,22.1808 L40.1187,22.1798 C38.3487,22.2178 36.5917,22.9068 35.2387,24.2608 C33.8307,25.6698 33.1407,27.5188 33.1597,29.3658 L36.7337,29.3658 C36.9677,28.1728 37.1837,27.5678 37.8657,26.8868 C38.5387,26.2138 39.4247,25.8978 40.3067,25.9048 C41.1887,25.8978 42.0757,26.2138 42.7477,26.8868 C42.9807,27.1198 43.1667,27.3808 43.3167,27.6548 C44.3517,26.8938 45.2107,25.9108 45.8387,24.7728 C45.6947,24.5978 45.5397,24.4258 45.3757,24.2608 M46.9627,21.0998 C46.9897,20.8088 47.0037,20.5138 47.0037,20.2158 C47.0037,18.7968 46.6777,17.4558 46.0987,16.2598 C44.2597,15.4478 42.2837,15.0418 40.3067,15.0458 C36.6457,15.0388 32.9867,16.4258 30.1957,19.2178 C27.3957,22.0168 26.0067,25.6938 26.0245273,29.3658 L29.7477,29.3658 C29.7327,26.6428 30.7497,23.9148 32.8217,21.8428 C34.8377,19.8268 37.4727,18.8098 40.1187,18.7698 L40.1187,18.7678 C40.1817,18.7668 40.2447,18.7688 40.3067,18.7688 C40.3687,18.7688 40.4307,18.7668 40.4937,18.7678 L40.4937,18.7698 C42.7917,18.8048 45.0797,19.5768 46.9627,21.0998 M24.9867,14.0048 C29.2157,9.7758 34.7617,7.6728 40.3067,7.6778 C40.3207,7.6778 40.3357,7.6798 40.3497,7.6798 C40.8437,8.8338 41.1447,10.0898 41.2157,11.4068 C40.9217,11.3928 40.6267,11.3858 40.3307,11.3858 C40.3227,11.3858 40.3147,11.3858 40.3067,11.3868 C40.2987,11.3858 40.2907,11.3858 40.2837,11.3858 C35.4967,11.3858 30.9977,13.2498 27.6147,16.6328 C24.2297,20.0178 22.3657,24.5168 22.3657,29.3028 C22.3657,29.3228 22.3667,29.3448 22.3667,29.3658 L18.6566203,29.3658 C18.6417,23.8088 20.7447,18.2448 24.9867,14.0048" id="Fill-37" fill="#6E6E6E" mask="url(#mask-2)"></path>
                    </g>
                </g>
            </g>
        </g>
    </g>
</svg>