<?xml version="1.0" encoding="UTF-8"?>
<svg width="188px" height="26px" viewBox="0 0 188 26" version="1.1" xmlns="http://www.w3.org/2000/svg" xmlns:xlink="http://www.w3.org/1999/xlink">
    <!-- Generator: Sketch 53.2 (72643) - https://sketchapp.com -->
    <title>The Real Real</title>
    <desc>Created with Sketch.</desc>
    <g id="Page-1" stroke="none" stroke-width="1" fill="none" fill-rule="evenodd">
        <g id="Home-Page" transform="translate(-1090.000000, -460.000000)" fill="#6E6E6E">
            <g id="Group-2" transform="translate(-201.000000, 441.000000)">
                <g id="The-Real-Real" transform="translate(1291.647900, 19.228800)">
                    <path d="M10.213,4.1703 C10.213,3.0743 10.213,3.0393 9.153,3.0393 L6.856,3.0393 C5.336,3.0393 3.393,3.1093 2.509,3.9233 C1.661,4.7003 1.307,5.4783 0.919,6.3613 C0.636,6.5733 0.141,6.3973 -2.84217094e-14,6.1133 C0.566,4.5243 1.095,2.2623 1.343,0.8483 C1.449,0.7773 1.908,0.7423 2.014,0.8483 C2.226,1.9793 3.393,1.9433 5.018,1.9433 L19.684,1.9433 C21.628,1.9433 22.193,1.7323 22.299,1.4493 L22.299,0.9543 L24.667,0.0003 C24.808,0.0003 24.949,0.0703 25.02,0.2123 C24.985,1.2733 24.914,3.0393 24.914,4.5943 L24.914,12.0163 C24.914,12.3333 24.949,12.6163 25.055,12.6873 C26.328,11.6973 28.024,10.8503 29.826,10.8503 C33.184,10.8503 34.385,12.9353 34.385,15.4083 L34.385,21.3103 C34.385,23.8543 34.456,24.2433 35.728,24.3843 L36.682,24.4903 C36.929,24.6673 36.859,25.2683 36.611,25.3743 C35.339,25.3033 34.315,25.2683 33.078,25.2683 C31.805,25.2683 30.745,25.3033 29.791,25.3743 C29.544,25.2683 29.473,24.6673 29.72,24.4903 L30.427,24.3843 C31.734,24.1723 31.77,23.8543 31.77,21.3103 L31.77,16.2563 C31.77,13.9943 30.674,12.4753 28.413,12.4753 C27.211,12.4753 26.293,12.8993 25.656,13.4293 C25.02,13.9593 24.914,14.1363 24.914,15.3733 L24.914,21.3103 C24.914,23.8543 24.985,24.2073 26.257,24.3843 L26.999,24.4903 C27.247,24.6323 27.176,25.2683 26.928,25.3743 C25.868,25.3033 24.843,25.2683 23.607,25.2683 C22.335,25.2683 21.274,25.3033 20.143,25.3743 C19.896,25.2683 19.825,24.6673 20.073,24.4903 L20.956,24.3843 C22.264,24.2433 22.299,23.8543 22.299,21.3103 L22.299,5.5133 C22.299,3.2863 21.486,3.0393 17.352,3.0393 L14.136,3.0393 C13.075,3.0393 13.111,3.0743 13.111,4.2403 L13.111,19.9673 C13.111,23.6783 13.181,24.2073 15.231,24.3843 L16.362,24.4903 C16.574,24.6323 16.504,25.2683 16.292,25.3743 C14.277,25.3033 13.075,25.2683 11.662,25.2683 C10.248,25.2683 9.011,25.3033 6.75,25.3743 C6.538,25.2683 6.467,24.6673 6.75,24.4903 L8.022,24.3843 C10.036,24.2073 10.213,23.6783 10.213,19.9673 L10.213,4.1703 Z" id="Fill-40"></path>
                    <path d="M44.172,15.1606 C46.787,15.1606 47.565,15.0196 47.847,14.8066 C47.953,14.7366 48.059,14.5956 48.059,14.1366 C48.059,13.1466 47.388,11.9096 45.338,11.9096 C43.253,11.9096 41.451,13.8176 41.416,14.9836 C41.416,15.0556 41.416,15.1606 41.663,15.1606 L44.172,15.1606 Z M41.981,16.2216 C41.062,16.2216 41.027,16.2916 41.027,17.1756 C41.027,20.7446 43.112,23.7836 46.893,23.7836 C48.059,23.7836 49.049,23.4306 50.144,22.0526 C50.498,21.9456 50.745,22.1586 50.78,22.4756 C49.614,24.8796 47.07,25.7636 45.232,25.7636 C42.935,25.7636 41.133,24.7726 40.108,23.4306 C39.048,22.0526 38.624,20.3906 38.624,18.8366 C38.624,14.4896 41.486,10.8496 45.727,10.8496 C48.766,10.8496 50.745,12.9346 50.745,15.0556 C50.745,15.5496 50.674,15.8326 50.604,15.9736 C50.498,16.1856 50.003,16.2216 48.519,16.2216 L41.981,16.2216 Z" id="Fill-42"></path>
                    <path d="M67.6358,12.3334 C67.6358,12.9704 67.6358,13.3584 67.7418,13.5004 C67.8478,13.6054 68.3778,13.6764 70.1798,13.6764 C71.4518,13.6764 72.7958,13.5354 73.8198,12.7584 C74.7738,12.0164 75.5868,10.7784 75.5868,8.3754 C75.5868,5.5844 73.8558,2.9344 69.9328,2.9344 C67.7418,2.9344 67.6358,3.0744 67.6358,4.0644 L67.6358,12.3334 Z M64.7378,7.2804 C64.7378,3.9234 64.6318,3.3224 63.1828,3.1454 L62.0528,3.0044 C61.8048,2.8274 61.8048,2.2624 62.0878,2.1204 C64.0668,1.9434 66.5048,1.8384 69.9688,1.8384 C72.1588,1.8384 74.2438,2.0154 75.8698,2.8974 C77.5658,3.7814 78.8028,5.3714 78.8028,7.8464 C78.8028,11.2024 76.1528,13.0404 74.3858,13.7474 C74.2088,13.9594 74.3858,14.3124 74.5618,14.5954 C77.3888,19.1544 79.2618,21.9814 81.6658,23.9954 C82.2658,24.5254 83.1498,24.9144 84.1038,24.9844 C84.2808,25.0564 84.3158,25.3384 84.1388,25.4794 C83.8208,25.5864 83.2558,25.6564 82.5838,25.6564 C79.5808,25.6564 77.7778,24.7724 75.2688,21.2034 C74.3498,19.8964 72.9018,17.4584 71.8058,15.8674 C71.2758,15.0904 70.7098,14.7364 69.2968,14.7364 C67.7068,14.7364 67.6358,14.7714 67.6358,15.5144 L67.6358,19.9674 C67.6358,23.6784 67.7068,24.1024 69.7558,24.3844 L70.4978,24.4904 C70.7098,24.6674 70.6398,25.2684 70.4278,25.3744 C68.8378,25.3034 67.6358,25.2684 66.2218,25.2684 C64.7378,25.2684 63.4658,25.3034 61.8048,25.3744 C61.5928,25.2684 61.5218,24.7374 61.7338,24.4904 L62.6178,24.3844 C64.6668,24.1374 64.7378,23.6784 64.7378,19.9674 L64.7378,7.2804 Z" id="Fill-44"></path>
                    <path d="M89.3682,15.1606 C91.9832,15.1606 92.7612,15.0196 93.0432,14.8066 C93.1492,14.7366 93.2552,14.5956 93.2552,14.1366 C93.2552,13.1466 92.5842,11.9096 90.5342,11.9096 C88.4492,11.9096 86.6472,13.8176 86.6122,14.9836 C86.6122,15.0556 86.6122,15.1606 86.8592,15.1606 L89.3682,15.1606 Z M87.1772,16.2216 C86.2582,16.2216 86.2232,16.2916 86.2232,17.1756 C86.2232,20.7446 88.3082,23.7836 92.0892,23.7836 C93.2552,23.7836 94.2452,23.4306 95.3402,22.0526 C95.6942,21.9456 95.9412,22.1586 95.9762,22.4756 C94.8102,24.8796 92.2662,25.7636 90.4282,25.7636 C88.1312,25.7636 86.3292,24.7726 85.3042,23.4306 C84.2442,22.0526 83.8202,20.3906 83.8202,18.8366 C83.8202,14.4896 86.6822,10.8496 90.9232,10.8496 C93.9622,10.8496 95.9412,12.9346 95.9412,15.0556 C95.9412,15.5496 95.8702,15.8326 95.8002,15.9736 C95.6942,16.1856 95.1992,16.2216 93.7152,16.2216 L87.1772,16.2216 Z" id="Fill-46"></path>
                    <path d="M102.7613,24.1723 C103.4683,24.1723 104.5643,23.6423 104.9163,23.2893 C105.3413,22.8643 105.3413,22.3703 105.3763,21.6283 L105.4473,19.5433 C105.4473,19.1543 105.3063,19.0833 105.0933,19.0833 C104.8813,19.0833 104.2813,19.2253 103.6443,19.4373 C101.5603,20.1443 100.5343,20.6743 100.5343,22.0523 C100.5343,22.6523 100.9583,24.1723 102.7613,24.1723 L102.7613,24.1723 Z M104.9523,17.9523 C105.4823,17.7763 105.5523,17.4583 105.5523,16.9283 L105.5883,15.3023 C105.6233,13.9943 105.1993,12.2283 103.0083,12.2283 C102.0193,12.2283 100.8183,12.7223 100.7463,13.8183 C100.7113,14.3833 100.6763,14.8073 100.3933,15.0203 C99.8633,15.4433 98.9093,15.6913 98.3783,15.6913 C98.0613,15.6913 97.8843,15.5143 97.8843,15.1963 C97.8843,13.3593 101.8773,10.8503 104.4573,10.8503 C107.0013,10.8503 108.2393,12.3333 108.1323,14.9843 L107.9203,21.1333 C107.8503,22.7593 108.1673,24.2073 109.5463,24.2073 C109.9003,24.2073 110.2183,24.1023 110.4293,23.9953 C110.6073,23.8903 110.7823,23.7483 110.8893,23.7483 C111.0313,23.7483 111.1363,23.9603 111.1363,24.2073 C111.1363,24.3843 109.9003,25.7633 108.1673,25.7633 C107.3203,25.7633 106.4723,25.4443 105.8703,24.6673 C105.7303,24.4553 105.5173,24.1723 105.3063,24.1723 C105.0583,24.1723 104.6343,24.4903 103.9273,24.8793 C103.1503,25.3033 102.3723,25.7633 101.3823,25.7633 C100.3583,25.7633 99.5093,25.4803 98.9093,24.9493 C98.2383,24.3493 97.8143,23.4653 97.8143,22.4763 C97.8143,21.0983 98.4853,20.2853 100.7463,19.4723 L104.9523,17.9523 Z" id="Fill-48"></path>
                    <path d="M116.5777,21.31 C116.5777,23.854 116.6477,24.207 117.9207,24.384 L118.7687,24.491 C119.0157,24.667 118.9447,25.268 118.6977,25.374 C117.5317,25.303 116.5077,25.268 115.2697,25.268 C113.9977,25.268 112.9367,25.303 111.8777,25.374 C111.6307,25.268 111.5587,24.667 111.8067,24.491 L112.6197,24.384 C113.9277,24.207 113.9627,23.854 113.9627,21.31 L113.9627,5.336 C113.9627,3.251 113.9277,3.039 112.8667,2.404 L112.5137,2.192 C112.3377,2.085 112.3377,1.59 112.5137,1.485 C113.3967,1.202 115.0577,0.672 116.3297,-1.03028697e-13 C116.4727,-1.03028697e-13 116.6127,0.071 116.6827,0.212 C116.6477,1.273 116.5777,3.039 116.5777,4.594 L116.5777,21.31 Z" id="Fill-50"></path>
                    <path d="M135.8365,12.3334 C135.8365,12.9704 135.8365,13.3584 135.9425,13.5004 C136.0485,13.6054 136.5785,13.6764 138.3805,13.6764 C139.6525,13.6764 140.9955,13.5354 142.0215,12.7584 C142.9755,12.0164 143.7875,10.7784 143.7875,8.3754 C143.7875,5.5844 142.0565,2.9344 138.1335,2.9344 C135.9425,2.9344 135.8365,3.0744 135.8365,4.0644 L135.8365,12.3334 Z M132.9395,7.2804 C132.9395,3.9234 132.8325,3.3224 131.3835,3.1454 L130.2525,3.0044 C130.0055,2.8274 130.0055,2.2624 130.2885,2.1204 C132.2675,1.9434 134.7055,1.8384 138.1685,1.8384 C140.3595,1.8384 142.4445,2.0154 144.0695,2.8974 C145.7675,3.7814 147.0035,5.3714 147.0035,7.8464 C147.0035,11.2024 144.3535,13.0404 142.5855,13.7474 C142.4095,13.9594 142.5855,14.3124 142.7635,14.5954 C145.5895,19.1544 147.4625,21.9814 149.8665,23.9954 C150.4665,24.5254 151.3505,24.9144 152.3045,24.9844 C152.4815,25.0564 152.5175,25.3384 152.3395,25.4794 C152.0225,25.5864 151.4565,25.6564 150.7845,25.6564 C147.7805,25.6564 145.9785,24.7724 143.4705,21.2034 C142.5505,19.8964 141.1025,17.4584 140.0065,15.8674 C139.4765,15.0904 138.9105,14.7364 137.4975,14.7364 C135.9065,14.7364 135.8365,14.7714 135.8365,15.5144 L135.8365,19.9674 C135.8365,23.6784 135.9065,24.1024 137.9565,24.3844 L138.6985,24.4904 C138.9105,24.6674 138.8405,25.2684 138.6285,25.3744 C137.0375,25.3034 135.8365,25.2684 134.4235,25.2684 C132.9395,25.2684 131.6665,25.3034 130.0055,25.3744 C129.7935,25.2684 129.7225,24.7374 129.9355,24.4904 L130.8175,24.3844 C132.8675,24.1374 132.9395,23.6784 132.9395,19.9674 L132.9395,7.2804 Z" id="Fill-52"></path>
                    <path d="M157.5689,15.1606 C160.1839,15.1606 160.9619,15.0196 161.2439,14.8066 C161.3499,14.7366 161.4569,14.5956 161.4569,14.1366 C161.4569,13.1466 160.7849,11.9096 158.7349,11.9096 C156.6499,11.9096 154.8469,13.8176 154.8119,14.9836 C154.8119,15.0556 154.8119,15.1606 155.0599,15.1606 L157.5689,15.1606 Z M155.3789,16.2216 C154.4589,16.2216 154.4229,16.2916 154.4229,17.1756 C154.4229,20.7446 156.5089,23.7836 160.2909,23.7836 C161.4569,23.7836 162.4459,23.4306 163.5409,22.0526 C163.8939,21.9456 164.1419,22.1586 164.1769,22.4756 C163.0109,24.8796 160.4659,25.7636 158.6289,25.7636 C156.3319,25.7636 154.5299,24.7726 153.5059,23.4306 C152.4449,22.0526 152.0209,20.3906 152.0209,18.8366 C152.0209,14.4896 154.8829,10.8496 159.1239,10.8496 C162.1639,10.8496 164.1419,12.9346 164.1419,15.0556 C164.1419,15.5496 164.0719,15.8326 164.0009,15.9736 C163.8939,16.1856 163.3999,16.2216 161.9159,16.2216 L155.3789,16.2216 Z" id="Fill-54"></path>
                    <path d="M170.9615,24.1723 C171.6685,24.1723 172.7645,23.6423 173.1175,23.2893 C173.5415,22.8643 173.5415,22.3703 173.5765,21.6283 L173.6485,19.5433 C173.6485,19.1543 173.5065,19.0833 173.2945,19.0833 C173.0825,19.0833 172.4815,19.2253 171.8455,19.4373 C169.7605,20.1443 168.7355,20.6743 168.7355,22.0523 C168.7355,22.6523 169.1595,24.1723 170.9615,24.1723 L170.9615,24.1723 Z M173.1525,17.9523 C173.6835,17.7763 173.7535,17.4583 173.7535,16.9283 L173.7885,15.3023 C173.8235,13.9943 173.3995,12.2283 171.2095,12.2283 C170.2195,12.2283 169.0185,12.7223 168.9475,13.8183 C168.9115,14.3833 168.8765,14.8073 168.5945,15.0203 C168.0645,15.4433 167.1095,15.6913 166.5795,15.6913 C166.2615,15.6913 166.0855,15.5143 166.0855,15.1963 C166.0855,13.3593 170.0785,10.8503 172.6575,10.8503 C175.2025,10.8503 176.4395,12.3333 176.3335,14.9843 L176.1215,21.1333 C176.0505,22.7593 176.3685,24.2073 177.7465,24.2073 C178.1005,24.2073 178.4185,24.1023 178.6305,23.9953 C178.8075,23.8903 178.9835,23.7483 179.0895,23.7483 C179.2315,23.7483 179.3375,23.9603 179.3375,24.2073 C179.3375,24.3843 178.1005,25.7633 176.3685,25.7633 C175.5215,25.7633 174.6725,25.4443 174.0715,24.6673 C173.9305,24.4553 173.7185,24.1723 173.5065,24.1723 C173.2595,24.1723 172.8345,24.4903 172.1285,24.8793 C171.3505,25.3033 170.5725,25.7633 169.5835,25.7633 C168.5595,25.7633 167.7105,25.4803 167.1095,24.9493 C166.4395,24.3493 166.0145,23.4653 166.0145,22.4763 C166.0145,21.0983 166.6855,20.2853 168.9475,19.4723 L173.1525,17.9523 Z" id="Fill-56"></path>
                    <path d="M184.7779,21.31 C184.7779,23.854 184.8489,24.207 186.1209,24.384 L186.9689,24.491 C187.2159,24.667 187.1459,25.268 186.8989,25.374 C185.7319,25.303 184.7079,25.268 183.4699,25.268 C182.1989,25.268 181.1379,25.303 180.0779,25.374 C179.8309,25.268 179.7599,24.667 180.0069,24.491 L180.8199,24.384 C182.1279,24.207 182.1639,23.854 182.1639,21.31 L182.1639,5.336 C182.1639,3.251 182.1279,3.039 181.0679,2.404 L180.7149,2.192 C180.5379,2.085 180.5379,1.59 180.7149,1.485 C181.5969,1.202 183.2579,0.672 184.5309,-1.03028697e-13 C184.6729,-1.03028697e-13 184.8139,0.071 184.8839,0.212 C184.8489,1.273 184.7779,3.039 184.7779,4.594 L184.7779,21.31 Z" id="Fill-58"></path>
                </g>
            </g>
        </g>
    </g>
</svg>