<?xml version="1.0" encoding="UTF-8"?>
<svg width="88px" height="34px" viewBox="0 0 88 34" version="1.1" xmlns="http://www.w3.org/2000/svg" xmlns:xlink="http://www.w3.org/1999/xlink">
    <!-- Generator: Sketch 53.2 (72643) - https://sketchapp.com -->
    <title>Wix</title>
    <desc>Created with Sketch.</desc>
    <defs>
        <polygon id="path-1" points="0.1784 0.987405442 87.5764 0.987405442 87.5764 35 0.1784 35"></polygon>
    </defs>
    <g id="Page-1" stroke="none" stroke-width="1" fill="none" fill-rule="evenodd">
        <g id="Home-Page" transform="translate(-1333.000000, -457.000000)">
            <g id="Group-2" transform="translate(-201.000000, 441.000000)">
                <g id="Wix" transform="translate(1534.000000, 15.000000)">
                    <mask id="mask-2" fill="white">
                        <use xlink:href="#path-1"></use>
                    </mask>
                    <g id="Clip-63"></g>
                    <path d="M76.2324,18.07 L87.5764,1.141 C87.5764,1.141 82.7934,0.315 80.4144,2.494 C78.8864,3.871 77.1834,6.35 77.1834,6.35 L73.0274,12.411 C72.8014,12.712 72.5764,13.062 72.1504,13.062 C71.7244,13.062 71.4494,12.736 71.2744,12.411 L67.0674,6.376 C67.0674,6.376 65.3884,3.896 63.8364,2.519 C61.4824,0.341 56.6744,1.167 56.6744,1.167 L68.0444,18.046 L56.6734,34.898 C56.6734,34.898 61.6824,35.549 64.0374,33.371 C65.5644,31.994 67.0424,29.715 67.0424,29.715 L71.1984,23.679 C71.4234,23.379 71.6494,23.028 72.0754,23.028 C72.5014,23.028 72.7764,23.354 72.9514,23.679 L77.1084,29.715 C77.1084,29.715 78.6614,31.943 80.1644,33.371 C82.5174,35.549 87.4514,34.898 87.4514,34.898 L76.2324,18.07 Z M53.8944,6.576 C53.8944,6.576 53.3434,7.427 52.0664,8.178 C51.2404,8.63 50.4634,8.955 49.6124,9.355 C48.2104,10.032 47.8094,10.808 47.8094,11.96 L47.8094,34.949 C47.8094,34.949 50.0874,35.224 51.5414,34.498 C53.4434,33.521 53.8694,32.594 53.8944,28.363 L53.8944,6.576 Z M39.9204,2.644 C38.5184,3.896 38.0924,5.875 38.0924,5.875 L33.3844,23.955 L29.5034,9.13 C29.1284,7.578 28.4264,5.599 27.3494,4.297 C25.9974,2.644 23.2174,2.544 22.9174,2.544 C22.6174,2.544 19.8124,2.644 18.4344,4.322 C17.3584,5.649 16.6574,7.602 16.2814,9.155 L12.3994,23.98 L7.7424,5.875 C7.7424,5.875 7.3404,3.871 5.9144,2.644 C3.6094,0.616 0.1784,1.042 0.1784,1.042 L9.1194,34.949 C9.1194,34.949 12.0744,35.174 13.5514,34.398 C15.4794,33.421 16.4314,32.644 17.6084,28.011 C18.6604,23.905 21.5894,11.835 21.8654,10.958 C21.9904,10.532 22.1664,9.506 22.9174,9.506 C23.6934,9.506 23.8434,10.508 23.9684,10.958 C24.2444,11.809 27.1494,23.905 28.2264,28.011 C29.4034,32.62 30.3304,33.371 32.2834,34.398 C33.7604,35.174 36.7154,34.949 36.7154,34.949 L45.6554,1.066 C45.6554,1.066 42.2244,0.64 39.9204,2.644 L39.9204,2.644 Z" id="Fill-62" fill="#6E6E6E" mask="url(#mask-2)"></path>
                    <path d="M50.1885,1.6423 C48.4355,2.5693 47.8095,4.0963 47.8095,8.3293 C47.8095,8.3293 48.6855,7.4773 49.9885,7.0013 C50.9395,6.6753 51.7415,6.1503 52.2165,5.7993 C53.6945,4.7223 53.8945,3.3453 53.8945,1.0163 C53.8945,1.0163 51.4905,0.9413 50.1885,1.6423" id="Fill-60" fill="#CACACA" mask="url(#mask-2)"></path>
                </g>
            </g>
        </g>
    </g>
</svg>