<?xml version="1.0" encoding="utf-8"?>
<!-- Generator: Adobe Illustrator 19.2.1, SVG Export Plug-In . SVG Version: 6.00 Build 0)  -->
<svg version="1.1" id="layer" xmlns="http://www.w3.org/2000/svg" xmlns:xlink="http://www.w3.org/1999/xlink" x="0px" y="0px"
	 viewBox="0 0 652 652" style="enable-background:new 0 0 652 652;" xml:space="preserve">
<style type="text/css">
	.st0{fill-rule:evenodd;clip-rule:evenodd;fill:#5673B8;}
	.st1{fill-rule:evenodd;clip-rule:evenodd;fill:#89BB2A;}
	.st2{fill:#5673B8;}
</style>
<path class="st0" d="M119,250.6c-10,4.6-38.8,26.7-54.3,38.3c18.9-6.2,64.2-16.2,87.4-16.8C144.9,267,124.5,253.3,119,250.6"/>
<path class="st1" d="M28.6,393.1c6.4-2.8,67-22.8,122.7-26.1c1.2-4.7,7.3-20.3,8.4-24.5c-57.8,4.1-104.8,21.2-123.7,29.9L28.6,393.1
	z"/>
<path class="st0" d="M156.5,275.1c0,0-56.3,56.1-65,64.2c17.1-6.1,52.2-13.4,74.4-14.8c2.6-7.8,5.3-13.5,5.3-13.5l29.8-2.9
	C200.9,308.1,178.3,289.9,156.5,275.1"/>
<path class="st1" d="M38.2,366.3c17.7-18.1,81.5-76.5,81.5-76.5c-33.2,7.7-67.8,18.1-80.1,23.7l-18.6,19c15.5-3.3,20.6-3.9,31.9-5.6
	L38.2,366.3z"/>
<path class="st0" d="M470.2,354.8c-5.4,6.1-12.5,9.9-23.5,9.9c-19.3,0-32-14.4-32-36.8s12.8-37.2,32-37.2c10.1,0,18.1,3.5,24.2,10.7
	c5.7,6.7,8.2,14.4,8.2,26C479.1,339.5,476.3,347.8,470.2,354.8 M455,308.1c-1.8-2.4-4.7-3.8-8.1-3.8c-4.4,0-8.1,2.8-9.6,7.2
	c-1.2,3.8-1.9,8.8-1.9,15.8c0,8.2,0.8,14.3,2.4,17.9c1.7,3.9,5.8,5.8,9.4,5.8c8.1,0,11.5-7.2,11.5-24
	C458.8,317.5,457.5,311.3,455,308.1 M560.3,363.1h-17.1l-6.4-24.4c-1.5-5.7-3.2-12.5-4-17.2c-0.5-3.3-0.7-4.3-1.1-7.1
	c-0.4,3.1-0.6,4-1.7,9.2c-1.4,6.1-4.4,18.3-6.1,25l-3.6,14.6h-17.4L483.1,292h19l5.7,26.5c1.8,8.2,4,22.1,4,22.1s1.8-12.6,5.1-24.7
	l6.7-23.9h17.5l5.7,23.5c3.2,13.2,5.3,25.1,5.3,25.1c0.4-3.1,1.9-14.2,3.9-23.2l5.4-25.4h19.2L560.3,363.1z M381.6,363h19
	l-0.1-102.7l-19,4.3L381.6,363z M344.7,363h19l-0.1-102.7l-19,4.3L344.7,363z M307.7,363.2l0-62.5l18.5-4.2l0,66.7H307.7z
	 M317.1,292.4c-6.2,0-11.4-5.1-11.4-11.5c0-6.4,5.3-11.5,11.7-11.5c6.3,0,11.2,5.1,11.2,11.5C328.6,287.3,323.4,292.4,317.1,292.4
	 M290,363.1h-60.3v-13.6l36.4-62.6c2.6-4.4,4.1-7.9,4.1-7.9s-2.1-0.2-7.9-0.2h-29.7l4.3-16.1h57.8v14L257.9,341
	c-2.1,3.5-3.6,6.3-3.6,6.3s4.3,0,8.2,0H295L290,363.1z"/>
<path class="st2" d="M612,290.7c-4.9,0-8.9-3.9-8.9-9s4-9,8.9-9c4.8,0,8.9,3.9,8.9,9S616.9,290.7,612,290.7 M612,274.2
	c-4,0-7.1,3.3-7.1,7.5c0,4.2,3.2,7.5,7.1,7.5c4,0,7.2-3.3,7.2-7.5C619.2,277.5,616,274.2,612,274.2 M614,286.7l-0.9-1.6
	c-0.7-1.2-1.2-1.9-1.7-2.5c-0.2-0.2-0.3-0.3-0.6-0.3v4.3h-1.6v-10h3.1c2.2,0,3.2,1.3,3.2,2.9c0,1.5-1,2.7-2.5,2.7
	c0.4,0.2,1,1.2,1.5,2l1.5,2.4H614z M610.8,278v3.2h0.9c0.9,0,1.3-0.1,1.6-0.4c0.3-0.3,0.5-0.7,0.5-1.2c0-1-0.5-1.5-2-1.5H610.8z"/>
</svg>
