<?xml version="1.0" encoding="UTF-8"?>
<svg width="100px" height="100px" viewBox="0 0 100 100" version="1.1" xmlns="http://www.w3.org/2000/svg" xmlns:xlink="http://www.w3.org/1999/xlink">
    <!-- Generator: Sketch 55.2 (78181) - https://sketchapp.com -->
    <title>AdvancedArchitecture</title>
    <desc>Created with Sketch.</desc>
    <g id="AdvancedArchitecture" stroke="none" stroke-width="1" fill="none" fill-rule="evenodd" stroke-linecap="round" stroke-linejoin="round">
        <g id="Group-6" transform="translate(-1.000000, 0.000000)" stroke-width="2">
            <polygon id="Stroke-1" stroke="#ED2028" points="25.7810173 33.9202788 76.7810173 33.9202788 51.2810173 77.9202788"></polygon>
            <polygon id="Stroke-2" stroke="#B2B2B2" points="25.7810173 34.4203975 25.7810173 63.420635 51.2807762 77.9202788 76.7810173 63.420635 76.7810173 34.4203975 51.2807762 19.9202788"></polygon>
            <path d="M100.743819,48.9202788 C101.260019,62.0578786 96.4037833,75.3612748 86.1755919,85.3879469 C75.0113049,96.332404 57.3338351,100.183039 42.7810173,98.5671138 L51.2078028,78.0196867 L60.5976495,96.6776952" id="Stroke-3" stroke="#B2B2B2"></path>
            <path d="M85.8174743,15.4203344 L76.1932266,33.9202788 L94.7810173,27.1919913 C92.5039203,22.9170811 89.5425393,18.9035419 85.8978367,15.3079117 C71.7896521,1.39168433 51.3135839,-2.43021444 33.7084288,3.84601028 C30.2663166,5.0726989 26.9344021,6.68551456 23.7810173,8.68445726" id="Stroke-5" stroke="#B2B2B2"></path>
            <path d="M15.5531051,14.9202788 L25.254266,33.8863887 L6.18857452,27.818656 C-4.36483334,48.1375237 0.736522107,73.576767 19.6746433,88.3447285 C23.1544497,91.0578305 26.8903668,93.2460455 30.7810173,94.9202788" id="Stroke-7" stroke="#B2B2B2"></path>
        </g>
    </g>
</svg>