<?xml version="1.0" encoding="UTF-8"?>
<svg width="40px" height="40px" viewBox="0 0 40 40" version="1.1" xmlns="http://www.w3.org/2000/svg" xmlns:xlink="http://www.w3.org/1999/xlink">
    <!-- Generator: Sketch 55.2 (78181) - https://sketchapp.com -->
    <title>Behavioral Fingerprint</title>
    <desc>Created with Sketch.</desc>
    <g id="Behavioral-Fingerprint" stroke="none" stroke-width="1" fill="none" fill-rule="evenodd" stroke-linecap="round" stroke-linejoin="round">
        <g id="Group-2" transform="translate(6.000000, 1.000000)">
            <path d="M5,11 C2.40711695,13.5162542 0,14 0,14" id="Stroke-1" stroke="#B2B2B2"></path>
            <path d="M15,4 C15,4 11.7707287,4.7037702 9,8" id="Stroke-3" stroke="#B2B2B2"></path>
            <path d="M26,14 C26,14 24.4122442,3.44277369 18.3719455,0.989315662 C14.3731904,-0.634833427 8.61650905,-1.56291862 1,9.09256948" id="Stroke-5" stroke="#B2B2B2"></path>
            <path d="M22,17 C22,17 23.0145814,19.8193409 27,21" id="Stroke-7" stroke="#B2B2B2"></path>
            <path d="M16,8 C14.4030827,8.4971374 12.7005464,9.70896947 11.435141,11.0677481 C8.57635577,14.1369275 3.25093964,17.3649809 0,18" id="Stroke-9" stroke="#B2B2B2"></path>
            <path d="M14,20 C18.1591923,16.4571515 21.307175,12.5704011 20.9760975,10" id="Stroke-11" stroke="#B2B2B2"></path>
            <path d="M2,27 C4.57703643,26.0794834 7.88559472,24.2160954 11,22" id="Stroke-13" stroke="#B2B2B2"></path>
            <path d="M13,15 C14.7609139,13.7095303 16.2204542,12.3388053 17,11" id="Stroke-15" stroke="#B2B2B2"></path>
            <path d="M1,23 C2.23646039,22.6303419 4.51986954,21.5267094 7,20" id="Stroke-17" stroke="#B2B2B2"></path>
            <path d="M19,21 C19,21 19.1678281,21.4242915 20,22" id="Stroke-19" stroke="#B2B2B2"></path>
            <path d="M11,26.8992393 C12.4811537,25.8591115 13.9572985,24.5681843 15.1534416,23 C17.779146,25.7350898 19.610427,27.0475141 23,28" id="Stroke-21" stroke="#B2B2B2"></path>
            <path d="M5,30 C5,30 6.7762351,29.689554 9,29" id="Stroke-23" stroke="#B2B2B2"></path>
            <path d="M7,34 C9.51197418,33.0765665 13.0183257,31.4587753 15.4298209,29 C17.6601416,30.774668 19.3141399,31.5002228 22,32.3594795" id="Stroke-25" stroke="#B2B2B2"></path>
            <path d="M12,37 C12,37 14.1076298,33.3840873 15.9893706,34.091819 C18.0313874,34.8596949 19.8915911,35.8126699 21,36.2471601" id="Stroke-27" stroke="#B2B2B2"></path>
            <path d="M25,22.5002768 C25,23.8807705 23.8806466,25 22.5,25 C21.1193534,25 20,23.8807705 20,22.5002768 C20,21.119783 21.1193534,20 22.5,20 C23.8806466,20 25,21.119783 25,22.5002768 Z" id="Stroke-29" stroke="#ED2028"></path>
            <path d="M13,19 C13,20.6566058 11.6570174,22 10,22 C8.34339416,22 7,20.6566058 7,19 C7,17.3433942 8.34339416,16 10,16 C11.6570174,16 13,17.3433942 13,19 Z" id="Stroke-31" stroke="#ED2028"></path>
            <path d="M21,8.5 C21,9.88086434 19.8808643,11 18.5,11 C17.1197134,11 16,9.88086434 16,8.5 C16,7.11913566 17.1197134,6 18.5,6 C19.8808643,6 21,7.11913566 21,8.5 Z" id="Stroke-33" stroke="#ED2028"></path>
            <path d="M9,10 C9,11.1047672 8.10476718,12 7,12 C5.89523282,12 5,11.1047672 5,10 C5,8.89523282 5.89523282,8 7,8 C8.10476718,8 9,8.89523282 9,10 Z" id="Stroke-35" stroke="#ED2028"></path>
            <path d="M11,28.5 C11,29.3284055 10.5522703,30 10,30 C9.44772967,30 9,29.3284055 9,28.5 C9,27.6715945 9.44772967,27 10,27 C10.5522703,27 11,27.6715945 11,28.5 Z" id="Stroke-37" stroke="#ED2028"></path>
        </g>
    </g>
</svg>