<?xml version="1.0" encoding="UTF-8"?>
<svg width="40px" height="40px" viewBox="0 0 40 40" version="1.1" xmlns="http://www.w3.org/2000/svg" xmlns:xlink="http://www.w3.org/1999/xlink">
    <!-- Generator: Sketch 55.2 (78181) - https://sketchapp.com -->
    <title>VisibleAnalytics Copy</title>
    <desc>Created with Sketch.</desc>
    <g id="VisibleAnalytics-Copy" stroke="none" stroke-width="1" fill="none" fill-rule="evenodd">
        <g id="Group" transform="translate(4.479581, -0.026865)">
            <path d="M14.6006096,17.9420841 L4.10060957,1.14325602" id="Path-13" stroke="#979797" transform="translate(9.600610, 9.643256) rotate(3.000000) translate(-9.600610, -9.643256) "></path>
            <path d="M20.2754643,18.2192179 L28.6111577,1.54416906" id="Path-7" stroke="#979797" transform="translate(24.443311, 9.881693) rotate(3.000000) translate(-24.443311, -9.881693) "></path>
            <path d="M19.5475368,17.708659 L9.84514419,1.40983084" id="Path-9" stroke="#979797" transform="translate(14.696340, 9.559245) rotate(3.000000) translate(-14.696340, -9.559245) "></path>
            <path d="M12.7077637,19.0112305 L1,1" id="Path-8" stroke="#979797" transform="translate(6.853882, 10.005615) rotate(3.000000) translate(-6.853882, -10.005615) "></path>
            <path d="M17.6964136,14.4972582 L24.0047632,1.3534594" id="Path-14" stroke="#979797" transform="translate(20.850588, 7.925359) rotate(3.000000) translate(-20.850588, -7.925359) "></path>
            <circle id="Oval" stroke="#EF2F37" fill="#FFFFFF" transform="translate(17.157442, 27.862547) rotate(3.000000) translate(-17.157442, -27.862547) " cx="17.1574419" cy="27.8625471" r="10"></circle>
            <circle id="Oval" stroke="#EF2F37" fill="#FFFFFF" transform="translate(17.157442, 27.862547) rotate(3.000000) translate(-17.157442, -27.862547) " cx="17.1574419" cy="27.8625471" r="7"></circle>
        </g>
    </g>
</svg>