<?xml version="1.0" encoding="UTF-8"?>
<svg width="40px" height="40px" viewBox="0 0 40 40" version="1.1" xmlns="http://www.w3.org/2000/svg" xmlns:xlink="http://www.w3.org/1999/xlink">
    <!-- Generator: Sketch 55.2 (78181) - https://sketchapp.com -->
    <title>Changing</title>
    <desc>Created with Sketch.</desc>
    <g id="Changing" stroke="none" stroke-width="1" fill="none" fill-rule="evenodd" stroke-linecap="round" stroke-linejoin="round">
        <g id="Group-11" transform="translate(2.000000, 2.000000)">
            <g id="Group-9">
                <path d="M12.158812,24.6315789 C10.5077451,23.0354449 9.47368421,20.7489559 9.47368421,18.2095205 C9.47368421,13.3847769 13.2061445,9.47368421 17.8105263,9.47368421" id="Stroke-1" stroke="#B2B2B2"></path>
                <path d="M23.8736842,17.8105263 C23.8736842,21.1590519 21.1590218,23.8736842 17.8104592,23.8736842 C14.4620308,23.8736842 11.7473684,21.1590519 11.7473684,17.8105263 C11.7473684,14.4620007 14.4620308,11.7473684 17.8104592,11.7473684 C21.1590218,11.7473684 23.8736842,14.4620007 23.8736842,17.8105263 Z" id="Stroke-3" stroke="#B2B2B2"></path>
                <path d="M23.3333601,10.9894737 C25.2774046,12.5811679 26.5263158,15.0544962 26.5263158,17.8319309 C26.5263158,22.6337812 22.7937303,26.5263158 18.1894737,26.5263158" id="Stroke-5" stroke="#B2B2B2"></path>
                <path d="M28.3114421,21.0769598 C28.1121585,21.7461622 27.8494365,22.3885913 27.5297387,22.9964656 C27.34127,23.3549387 27.3655375,23.7880607 27.589748,24.1254316 L28.4069294,25.3550285 C28.7001176,25.7963276 28.641691,26.3832316 28.2668638,26.7580588 L26.8515678,28.1734867 C26.4768724,28.5480502 25.8901003,28.6067406 25.4488012,28.3136842 L24.2545505,27.5205065 C23.9128272,27.2937901 23.4737703,27.272556 23.1130551,27.4677511 C22.5091375,27.7947028 21.8707969,28.0653381 21.2039684,28.2724031 C20.817535,28.3922898 20.5289628,28.716208 20.4491703,29.1129288 L20.1582241,30.5592186 C20.0536365,31.0788594 19.5970384,31.4526316 19.0669783,31.4526316 L17.0649102,31.4526316 C16.5348502,31.4526316 16.0783839,31.0788594 15.9737963,30.5592186 L15.691291,29.1559245 C15.6103115,28.7543238 15.3158043,28.4281635 14.9230402,28.3114421 C14.2538378,28.1121585 13.6114087,27.8494365 13.0036663,27.5297387 C12.6450613,27.3411381 12.2120712,27.3655375 11.8745684,27.589748 L10.6451034,28.4067975 C10.2036724,28.7001176 9.61676842,28.6415591 9.24194118,28.2668638 L7.8266452,26.8514359 C7.45194985,26.4767406 7.39339133,25.8899684 7.68631579,25.4486693 L8.4794935,24.2545505 C8.7063418,23.9128272 8.72757585,23.4737703 8.53224892,23.1130551 C8.2054291,22.5090056 7.93466192,21.8707969 7.72772879,21.2039684 C7.60771022,20.8174031 7.28379195,20.5289628 6.8872031,20.4490384 L5.44091331,20.1580923 C4.92114056,20.0535046 4.54736842,19.5969065 4.54736842,19.0669783 L4.54736842,17.0647783 C4.54736842,16.5348502 4.92114056,16.0783839 5.44078142,15.9737963 L6.84407554,15.6911591 C7.24567616,15.6103115 7.57183653,15.3156724 7.68868978,14.9230402 C7.88797337,14.2538378 8.15069536,13.6114087 8.47039319,13.0035344 C8.65886192,12.6449294 8.63459443,12.2119393 8.41025201,11.8745684 L7.59320248,10.6449715 C7.30001424,10.2036724 7.35844087,9.61663653 7.73326811,9.24194118 L9.14856409,7.82651331 C9.52325944,7.45181796 10.1100316,7.39325944 10.5513307,7.68631579 L11.7455814,8.47922972 C12.0871728,8.70620991 12.5262297,8.72744396 12.8870768,8.53224892 C13.4909944,8.20529721 14.129335,7.93466192 14.7960316,7.7275969 C15.1825969,7.60771022 15.471169,7.28379195 15.5509616,6.88707121 L15.8419077,5.44078142 C15.9464954,4.92114056 16.4029616,4.54736842 16.9331536,4.54736842 L18.9352217,4.54736842 C19.4652817,4.54736842 19.921748,4.92114056 20.0263356,5.44064954 L20.3088409,6.84394365 C20.3898204,7.24567616 20.6843276,7.57183653 21.0769598,7.68855789 C21.7462941,7.88784149 22.3887232,8.15056347 22.9964656,8.4702613 C23.3550706,8.65886192 23.7880607,8.63446254 24.1255635,8.41025201 L25.3550285,7.59320248 C25.7964594,7.29988235 26.3833635,7.35830898 26.7581907,7.73313622 L28.1734867,9.14856409 C28.548182,9.52312755 28.6067406,10.1100316 28.3138161,10.5511988 L27.5206384,11.7454495 C27.2937901,12.0871728 27.272556,12.5262297 27.467883,12.8869449 C27.7947028,13.4908625 28.06547,14.1292031 28.2724031,14.7960316 C28.3922898,15.1825969 28.716208,15.4710372 29.1129288,15.5509616 L30.5592186,15.8419077 C31.0788594,15.9464954 31.4526316,16.4030935 31.4526316,16.9330217 L31.4526316,18.9352217 C31.4526316,19.4651498 31.0788594,19.9216161 30.5593505,20.0262037 L29.1560563,20.3088409 C28.7543238,20.3896885 28.4282954,20.6841957 28.3114421,21.0769598 Z" id="Stroke-7" stroke="#B2B2B2"></path>
                <path d="M32.6666667,10.4 L32.9258667,7.93613333 C34.8666667,10.8088 36,14.2721333 36,18 C36,27.9412 27.9412,36 18,36 C8.0588,36 0,27.9412 0,18 C0,8.0588 8.0588,0 18,0 C22.0893333,0 25.8601333,1.36373333 28.8826667,3.66106667" id="Stroke-9" stroke="#ED2028"></path>
            </g>
            <path d="M36,10 L33,8" id="Stroke-11" stroke="#ED2028"></path>
        </g>
    </g>
</svg>