<?xml version="1.0" encoding="UTF-8"?>
<svg width="100px" height="100px" viewBox="0 0 100 100" version="1.1" xmlns="http://www.w3.org/2000/svg" xmlns:xlink="http://www.w3.org/1999/xlink">
    <!-- Generator: Sketch 55.2 (78181) - https://sketchapp.com -->
    <title>CustomerCentricity</title>
    <desc>Created with Sketch.</desc>
    <g id="CustomerCentricity" stroke="none" stroke-width="1" fill="none" fill-rule="evenodd" stroke-linecap="round" stroke-linejoin="round">
        <g id="Group-13" transform="translate(4.000000, 1.000000)" stroke-width="2">
            <path d="M54,38.4997988 C54,44.2987297 49.2986396,49 43.4995976,49 C37.7005557,49 33,44.2987297 33,38.4997988 C33,32.700868 37.7005557,28 43.4995976,28 C49.2986396,28 54,32.700868 54,38.4997988 Z" id="Stroke-1" stroke="#ED2028"></path>
            <path d="M26.0007206,66 C25.9126986,58.3789944 33.8995141,52.1111259 43.8408473,52.0014802 C53.7813217,51.8909943 61.911978,57.9794808 62,65.6009065" id="Stroke-3" stroke="#ED2028"></path>
            <path d="M21,6.8084751 C23.7529971,5.05669238 26.6618798,3.64313337 29.6669829,2.56738254 C45.0374635,-2.9347775 62.9172388,0.406739723 75.2401784,12.5927652 C78.4234364,15.7410711 81.0100436,19.2558553 83,23" id="Stroke-5" stroke="#B2B2B2"></path>
            <path d="M21,81 C17.9113588,79.1633288 15.0016924,76.8917772 12.3557999,74.1861791 C-2.04209534,59.4615379 -3.85671283,36.7410185 6.911132,20" id="Stroke-7" stroke="#B2B2B2"></path>
            <path d="M86.9665721,43 C87.4265858,54.6401274 83.1387979,66.4288326 74.1027828,75.3158765 C64.2395088,85.0169593 50.8608105,89.1528625 38,87.7252602" id="Stroke-9" stroke="#B2B2B2"></path>
            <path d="M64.506101,23.4935664 C75.8312997,34.8187444 75.8312997,53.1809385 64.506101,64.5061165 C53.1809024,75.8312945 34.8190976,75.8312945 23.493899,64.5061165 C12.1687003,53.1809385 12.1687003,34.8187444 23.493899,23.4935664 C34.8190976,12.1688112 53.1809024,12.1688112 64.506101,23.4935664 Z" id="Stroke-11" stroke="#B2B2B2"></path>
            <path d="M93.3639284,27.6360716 C96.8786905,31.1504177 96.8786905,36.8491663 93.3639284,40.3639284 C89.8495823,43.8786905 84.1508337,43.8786905 80.6360716,40.3639284 C77.1213095,36.8491663 77.1213095,31.1504177 80.6360716,27.6360716 C84.1508337,24.1213095 89.8495823,24.1213095 93.3639284,27.6360716 Z" id="Stroke-13" stroke="#B2B2B2"></path>
            <path d="M19.3639284,6.6360716 C22.8786905,10.1508337 22.8786905,15.8491663 19.3639284,19.3639284 C15.8491663,22.8786905 10.1508337,22.8786905 6.6360716,19.3639284 C3.12130947,15.8491663 3.12130947,10.1508337 6.6360716,6.6360716 C10.1508337,3.12130947 15.8491663,3.12130947 19.3639284,6.6360716 Z" id="Stroke-15" stroke="#B2B2B2"></path>
            <path d="M35.3639284,79.6360716 C38.8786905,83.1508337 38.8786905,88.8491663 35.3639284,92.3639284 C31.8495823,95.8786905 26.1512497,95.8786905 22.6360716,92.3639284 C19.1213095,88.8491663 19.1213095,83.1508337 22.6360716,79.6360716 C26.1512497,76.1213095 31.8495823,76.1213095 35.3639284,79.6360716 Z" id="Stroke-17" stroke="#B2B2B2"></path>
        </g>
    </g>
</svg>