<?xml version="1.0" encoding="UTF-8"?>
<svg width="100px" height="100px" viewBox="0 0 100 100" version="1.1" xmlns="http://www.w3.org/2000/svg" xmlns:xlink="http://www.w3.org/1999/xlink">
    <!-- Generator: Sketch 55.2 (78181) - https://sketchapp.com -->
    <title>Deal</title>
    <desc>Created with Sketch.</desc>
    <defs>
        <polygon id="path-1" points="0 0 5 0 5 17 0 17"></polygon>
    </defs>
    <g id="Deal" stroke="none" stroke-width="1" fill="none" fill-rule="evenodd">
        <circle id="Oval-Copy-10" fill="#0D0D0D" cx="49.5" cy="49.5" r="31.5"></circle>
        <g id="Group" transform="translate(64.000000, 37.000000)">
            <mask id="mask-2" fill="white">
                <use xlink:href="#path-1"></use>
            </mask>
            <g id="Clip-8"></g>
            <path d="M-27,1.08510638 C-27,1.08510638 -25.2758689,8.31914894 -26.3103476,15.9148936 C-24.5862165,16.6382979 -22.5172592,17 -22.5172592,17 C-22.5172592,17 -20.8293349,4.31257447 -23.5517378,0 C-25.2758689,0.361702128 -27,1.08510638 -27,1.08510638" id="Fill-10" fill="#FFFFFF" mask="url(#mask-2)"></path>
        </g>
        <g id="Group-8" transform="translate(34.000000, 39.000000)" fill="#FFFFFF">
            <path d="M27,1.70117217 L27,19.2982714 C27,20.3493699 26.0256111,21.1439803 24.9628777,20.9780174 C24.9213038,20.9704736 24.8797298,20.9604153 24.8404944,20.9478423 C24.1547845,20.7165 7.43167329,16.0997132 5.72974074,15.7476707 C5.68816682,15.7401269 5.64919126,15.7275539 5.61021571,15.7127179 L2.41162187,16.7411851 C-0.672643674,16.8465464 -0.932480703,4.1528972 2.41162187,4.25850998 L5.59462549,5.28194801 C5.63360104,5.26686047 5.67517496,5.25428753 5.71934726,5.24422917 C7.47844395,4.84969003 24.1288008,0.303060261 24.8355575,0.0541158729 C24.8797298,0.0392797932 24.9213038,0.0292214341 24.9680744,0.0214262058 C26.0282095,-0.14202213 27,0.650073649 27,1.70117217" id="Fill-1"></path>
            <path d="M13.8079155,22 C13.5031831,22 13.195662,21.9583898 12.8929577,21.8742128 L10.2951268,21.1510562 C8.94360563,20.7751295 8,19.5839777 8,18.2550817 L8,16 L9.26760563,16 L9.26760563,18.2550817 C9.26760563,19.0578717 9.83777465,19.7772021 10.6541127,20.0043842 L13.2516901,20.7275409 C13.8418873,20.8920686 14.4637746,20.7866082 14.9566197,20.4389 C15.4497183,20.0911917 15.7323944,19.5586289 15.7323944,18.9779992 L15.7323944,18.1522519 L17,18.1522519 L17,18.9779992 C17,19.9393384 16.5317465,20.8208051 15.7154085,21.3966521 C15.1520845,21.7938621 14.4873521,22 13.8079155,22" id="Fill-4"></path>
        </g>
    </g>
</svg>