<?xml version="1.0" encoding="UTF-8"?>
<svg width="40px" height="40px" viewBox="0 0 40 40" version="1.1" xmlns="http://www.w3.org/2000/svg" xmlns:xlink="http://www.w3.org/1999/xlink">
    <!-- Generator: Sketch 55.2 (78181) - https://sketchapp.com -->
    <title>Deploy</title>
    <desc>Created with Sketch.</desc>
    <g id="Deploy" stroke="none" stroke-width="1" fill="none" fill-rule="evenodd" stroke-linecap="round" stroke-linejoin="round">
        <g id="Group-10">
            <path d="M31.2195122,20 C31.2195122,26.1963355 26.1963034,31.2195122 19.9999284,31.2195122 C13.8035533,31.2195122 8.7804878,26.1963355 8.7804878,20 C8.7804878,13.8036645 13.8035533,8.7804878 19.9999284,8.7804878 C26.1963034,8.7804878 31.2195122,13.8036645 31.2195122,20 Z" id="Stroke-1" stroke="#B2B2B2"></path>
            <path d="M27.3170732,20 C27.3170732,26.1962962 24.0411996,31.2195122 20.0000731,31.2195122 C15.9589466,31.2195122 12.6829268,26.1962962 12.6829268,20 C12.6829268,13.8037038 15.9589466,8.7804878 20.0000731,8.7804878 C24.0411996,8.7804878 27.3170732,13.8037038 27.3170732,20 Z" id="Stroke-3" stroke="#B2B2B2"></path>
            <polyline id="Stroke-5" stroke="#ED2426" points="19.5121951 13.6585366 19.5121951 0 17.5609756 2.32485729"></polyline>
            <polyline id="Stroke-7" stroke="#ED2426" points="20.4878049 26.3414634 20.4878049 40 22.4390244 37.9657499"></polyline>
            <polyline id="Stroke-9" stroke="#ED2426" points="13.6585366 20.4878049 0 20.4878049 2.32485729 22.4390244"></polyline>
            <polyline id="Stroke-11" stroke="#ED2426" points="26.3414634 19.5121951 40 19.5121951 37.9657499 17.5609756"></polyline>
            <path d="M22.4390244,20 C22.4390244,21.3469833 21.3469833,22.4390244 20,22.4390244 C18.6530167,22.4390244 17.5609756,21.3469833 17.5609756,20 C17.5609756,18.6530167 18.6530167,17.5609756 20,17.5609756 C21.3469833,17.5609756 22.4390244,18.6530167 22.4390244,20 Z" id="Stroke-13" stroke="#ED2028"></path>
            <path d="M32.195122,33.6585366 C32.195122,33.9278049 31.9765854,34.1463415 31.7073171,34.1463415 C31.4380488,34.1463415 31.2195122,33.9278049 31.2195122,33.6585366 C31.2195122,33.3892683 31.4380488,33.1707317 31.7073171,33.1707317 C31.9765854,33.1707317 32.195122,33.3892683 32.195122,33.6585366 Z" id="Stroke-15" stroke="#D5D5D5"></path>
            <path d="M6.82926829,10.2439024 C6.82926829,10.5131707 6.61073171,10.7317073 6.34146341,10.7317073 C6.07219512,10.7317073 5.85365854,10.5131707 5.85365854,10.2439024 C5.85365854,9.97463415 6.07219512,9.75609756 6.34146341,9.75609756 C6.61073171,9.75609756 6.82926829,9.97463415 6.82926829,10.2439024 Z" id="Stroke-17" stroke="#ED2426"></path>
            <path d="M29.2682927,5.85365854 C29.2682927,6.39219512 28.8312195,6.82926829 28.2926829,6.82926829 C27.7541463,6.82926829 27.3170732,6.39219512 27.3170732,5.85365854 C27.3170732,5.31512195 27.7541463,4.87804878 28.2926829,4.87804878 C28.8312195,4.87804878 29.2682927,5.31512195 29.2682927,5.85365854 Z" id="Stroke-19" stroke="#B2B2B2"></path>
            <path d="M10.7317073,32.195122 C10.7317073,32.7336585 10.2946341,33.1707317 9.75609756,33.1707317 C9.21707317,33.1707317 8.7804878,32.7336585 8.7804878,32.195122 C8.7804878,31.6560976 9.21707317,31.2195122 9.75609756,31.2195122 C10.2946341,31.2195122 10.7317073,31.6560976 10.7317073,32.195122 Z" id="Stroke-21" stroke="#B2B2B2"></path>
            <path d="M16.5853659,35.6097561 C16.5853659,35.8790244 16.3668293,36.097561 16.097561,36.097561 C15.8282927,36.097561 15.6097561,35.8790244 15.6097561,35.6097561 C15.6097561,35.3404878 15.8282927,35.1219512 16.097561,35.1219512 C16.3668293,35.1219512 16.5853659,35.3404878 16.5853659,35.6097561 Z" id="Stroke-23" stroke="#D5D5D5"></path>
            <path d="M34.1463415,24.8780488 C34.1463415,25.1473171 33.9278049,25.3658537 33.6585366,25.3658537 C33.3892683,25.3658537 33.1707317,25.1473171 33.1707317,24.8780488 C33.1707317,24.6087805 33.3892683,24.3902439 33.6585366,24.3902439 C33.9278049,24.3902439 34.1463415,24.6087805 34.1463415,24.8780488 Z" id="Stroke-25" stroke="#ED2426"></path>
            <path d="M13.6585366,5.36585366 C13.6585366,5.63512195 13.44,5.85365854 13.1707317,5.85365854 C12.9014634,5.85365854 12.6829268,5.63512195 12.6829268,5.36585366 C12.6829268,5.09658537 12.9014634,4.87804878 13.1707317,4.87804878 C13.44,4.87804878 13.6585366,5.09658537 13.6585366,5.36585366 Z" id="Stroke-27" stroke="#B2B2B2"></path>
        </g>
    </g>
</svg>