<?xml version="1.0" encoding="UTF-8"?>
<svg width="40px" height="40px" viewBox="0 0 40 40" version="1.1" xmlns="http://www.w3.org/2000/svg" xmlns:xlink="http://www.w3.org/1999/xlink">
    <!-- Generator: Sketch 55.2 (78181) - https://sketchapp.com -->
    <title>MLAI</title>
    <desc>Created with Sketch.</desc>
    <g id="MLAI" stroke="none" stroke-width="1" fill="none" fill-rule="evenodd" stroke-linecap="round" stroke-linejoin="round">
        <g id="Group-8" transform="translate(6.000000, 6.000000)">
            <g id="Group-4">
                <path d="M10,1 C10,1.55229358 9.55226942,2 8.99994603,2 C8.44773058,2 8,1.55229358 8,1 C8,0.447706422 8.44773058,0 8.99994603,0 C9.55226942,0 10,0.447706422 10,1 Z" id="Stroke-3" stroke="#B2B2B2"></path>
                <path d="M6,3.99994603 C6,4.55226942 5.55237735,5 4.99994603,5 C4.44773058,5 4,4.55226942 4,3.99994603 C4,3.44762265 4.44773058,3 4.99994603,3 C5.55237735,3 6,3.44762265 6,3.99994603 Z" id="Stroke-5" stroke="#B2B2B2"></path>
                <path d="M2,7.00005397 C2,7.55237735 1.5523532,8 1,8 C0.447646805,8 0,7.55237735 0,7.00005397 C0,6.44773058 0.447646805,6 1,6 C1.5523532,6 2,6.44773058 2,7.00005397 Z" id="Stroke-7" stroke="#B2B2B2"></path>
                <path d="M2,14 C2,14.5521856 1.55237735,15 0.999946031,15 C0.447730584,15 0,14.5521856 0,14 C0,13.4477064 0.447730584,13 0.999946031,13 C1.55237735,13 2,13.4477064 2,14 Z" id="Stroke-9" stroke="#B2B2B2"></path>
                <path d="M8,18.000054 C8,18.5522694 7.55226942,19 6.99994603,19 C6.44773058,19 6,18.5522694 6,18.000054 C6,17.4477306 6.44773058,17 6.99994603,17 C7.55226942,17 8,17.4477306 8,18.000054 Z" id="Stroke-13" stroke="#B2B2B2"></path>
                <path d="M18,1.00005397 C18,1.13810783 17.9720423,1.26968536 17.9214162,1.38928167 C17.7696459,1.74817853 17.4141839,2 17,2 C16.4476468,2 16,1.55237735 16,1.00005397 C16,0.447730584 16.4476468,0 17,0 C17.5523532,0 18,0.447730584 18,1.00005397 Z" id="Stroke-23" stroke="#B2B2B2"></path>
                <path d="M1,12 L1,8" id="Stroke-25" stroke="#B2B2B2"></path>
                <path d="M5,14.1551724 L3,13.8448276" id="Stroke-27" stroke="#B2B2B2"></path>
                <path d="M20,18 L8,13" id="Stroke-29" stroke="#B2B2B2"></path>
                <path d="M25,15 L21.6666667,18.90625" id="Stroke-31" stroke="#B2B2B2"></path>
                <path d="M26,10 L26,14" id="Stroke-33" stroke="#B2B2B2"></path>
                <path d="M19,1.5 L20.8636364,2.9" id="Stroke-35" stroke="#B2B2B2"></path>
                <path d="M10,1 L16,1" id="Stroke-37" stroke="#B2B2B2"></path>
                <path d="M6,2 L7,1.5" id="Stroke-39" stroke="#B2B2B2"></path>
                <path d="M1,6 L3,4" id="Stroke-41" stroke="#B2B2B2"></path>
                <path d="M17,12 L24,8" id="Stroke-43" stroke="#B2B2B2"></path>
                <path d="M14.5,20 L16,15" id="Stroke-45" stroke="#B2B2B2"></path>
                <path d="M9,19.125 L12.8257576,20.5" id="Stroke-47" stroke="#B2B2B2"></path>
                <path d="M6,15 L7,17" id="Stroke-49" stroke="#B2B2B2"></path>
                <path d="M5.25,5 L6,12" id="Stroke-51" stroke="#B2B2B2"></path>
                <path d="M17,7 L10,2" id="Stroke-53" stroke="#B2B2B2"></path>
                <path d="M24,14 L18,9" id="Stroke-55" stroke="#B2B2B2"></path>
                <path d="M17,14 L24,15" id="Stroke-57" stroke="#B2B2B2"></path>
                <path d="M11,7 L16,12" id="Stroke-59" stroke="#B2B2B2"></path>
                <path d="M16,1 L11,6" id="Stroke-61" stroke="#B2B2B2"></path>
                <path d="M13.5,22.5 L13.5,24" id="Stroke-63" stroke="#B2B2B2"></path>
                <path d="M3,7.25287356 L8.4,7.12643678" id="Stroke-65" stroke="#B2B2B2"></path>
                <path d="M20.25,25 L20.25,21.0985311" id="Stroke-67" stroke="#B2B2B2"></path>
                <path d="M17,9 L7.15151515,13.84375" id="Stroke-69" stroke="#B2B2B2"></path>
                <path d="M21,5 L20,6" id="Stroke-71" stroke="#B2B2B2"></path>
                <path d="M27,9.00005397 C27,9.55226942 26.5522694,10 25.999946,10 C25.4477306,10 25,9.55226942 25,9.00005397 C25,8.70214259 25.1302823,8.43466998 25.3368773,8.25149765 C25.5133574,8.09509418 25.745534,8 25.999946,8 C26.5522694,8 27,8.44773058 27,9.00005397 Z" id="Stroke-73" stroke="#B2B2B2"></path>
                <path d="M27,15.000054 C27,15.5522694 26.5522694,16 25.999946,16 C25.4477306,16 25,15.5522694 25,15.000054 C25,14.4477306 25.4477306,14 25.999946,14 C26.5522694,14 27,14.4477306 27,15.000054 Z" id="Stroke-75" stroke="#B2B2B2"></path>
                <path d="M22,20 C22,20.5521856 21.5522694,21 20.999946,21 C20.4477306,21 20,20.5521856 20,20 C20,19.4478144 20.4477306,19 20.999946,19 C21.5522694,19 22,19.4478144 22,20 Z" id="Stroke-77" stroke="#B2B2B2"></path>
                <path d="M21,26 C21,26.5522936 20.5522694,27 19.999946,27 C19.4477306,27 19,26.5522936 19,26 C19,25.4478144 19.4477306,25 19.999946,25 C20.5522694,25 21,25.4478144 21,26 Z" id="Stroke-79" stroke="#B2B2B2"></path>
                <path d="M15,26 C15,26.5522936 14.5522694,27 13.999946,27 C13.4477306,27 13,26.5522936 13,26 C13,25.4478144 13.4477306,25 13.999946,25 C14.5522694,25 15,25.4478144 15,26 Z" id="Stroke-81" stroke="#B2B2B2"></path>
                <path d="M24,5 L26,7" id="Stroke-83" stroke="#B2B2B2"></path>
                <path d="M11,7 C11,7.41413923 10.7481649,7.76956287 10.3892487,7.92131678 C10.269538,7.9719374 10.1380613,8 9.99989206,8 C9.4476468,8 9,7.55229358 9,7 C9,6.44770642 9.4476468,6 9.99989206,6 C10.5523532,6 11,6.44770642 11,7 Z" id="Stroke-1" stroke="#ED2426"></path>
                <path d="M15,21 C15,21.5521856 14.5522694,22 13.999946,22 C13.4477306,22 13,21.5521856 13,21 C13,20.4477064 13.4477306,20 13.999946,20 C14.5522694,20 15,20.4477064 15,21 Z" id="Stroke-15" stroke="#ED2426"></path>
                <path d="M17,14.000054 C17,14.5522694 16.5523532,15 16,15 C15.4476468,15 15,14.5522694 15,14.000054 C15,13.4477306 15.4476468,13 16,13 C16.5523532,13 17,13.4477306 17,14.000054 Z" id="Stroke-17" stroke="#ED2426"></path>
                <path d="M19,7 C19,7.55229358 18.5523532,8 18,8 C17.4476468,8 17,7.55229358 17,7 C17,6.44770642 17.4476468,6 18,6 C18.5523532,6 19,6.44770642 19,7 Z" id="Stroke-19" stroke="#ED2426"></path>
                <path d="M7,14 C7,14.5521856 6.55226942,15 5.99994603,15 C5.44773058,15 5,14.5521856 5,14 C5,13.4477064 5.44773058,13 5.99994603,13 C6.55226942,13 7,13.4477064 7,14 Z" id="Stroke-11" stroke="#ED2426"></path>
                <path d="M23,4 C23,4.55229358 22.5522694,5 21.999946,5 C21.4477306,5 21,4.55229358 21,4 C21,3.44770642 21.4477306,3 21.999946,3 C22.5522694,3 23,3.44770642 23,4 Z" id="Stroke-21" stroke="#ED2426"></path>
            </g>
        </g>
    </g>
</svg>