<?xml version="1.0" encoding="UTF-8"?>
<svg width="40px" height="40px" viewBox="0 0 40 40" version="1.1" xmlns="http://www.w3.org/2000/svg" xmlns:xlink="http://www.w3.org/1999/xlink">
    <!-- Generator: Sketch 55.2 (78181) - https://sketchapp.com -->
    <title>VisibleAnalytics</title>
    <desc>Created with Sketch.</desc>
    <g id="VisibleAnalytics" stroke="none" stroke-width="1" fill="none" fill-rule="evenodd">
        <g id="Group-2" transform="translate(4.000000, 2.000000)">
            <rect id="Rectangle" stroke="#B2B2B2" x="0.5" y="0.5" width="31" height="36"></rect>
            <g id="Group" transform="translate(3.000000, 5.000000)" stroke="#B2B2B2">
                <polyline id="Path-2" points="9.34149181 1 6 6.25 11 10"></polyline>
                <path d="M14,1.5 L25,1.5" id="Path"></path>
                <path d="M14,4.5 L25,4.5" id="Path-Copy"></path>
                <path d="M14,7.5 L25,7.5" id="Path-Copy-2"></path>
                <circle id="Oval" cx="6" cy="6" r="6"></circle>
                <path d="M5,12.3142857 L5,5.57142857" id="Path-3"></path>
                <path d="M5,6.13094076 L0,6.86905924" id="Path-4"></path>
            </g>
            <rect id="Rectangle" stroke="#B2B2B2" x="6" y="22" width="3" height="12"></rect>
            <rect id="Rectangle-Copy" stroke="#B2B2B2" x="11" y="26" width="3" height="8"></rect>
            <rect id="Rectangle-Copy-2" stroke="#B2B2B2" x="16" y="24" width="3" height="10"></rect>
            <rect id="Rectangle-Copy-3" stroke="#B2B2B2" x="21" y="27" width="3" height="7"></rect>
            <polyline id="Path-5" stroke="#B2B2B2" points="3 21 3 34 28 34"></polyline>
            <polyline id="Path-6" stroke="#EF2F37" points="3 26 7.5 22 12.5 26 17.5 24 22.5 27 27.4506836 22"></polyline>
        </g>
    </g>
</svg>